<svg width="797" height="95" viewBox="0 0 797 95" fill="none" xmlns="http://www.w3.org/2000/svg">
<path d="M752.259 71.6401V22.6801H762.731V71.6401H752.259ZM759.399 46.2081L781.431 22.6801H795.371L772.115 46.2081H759.399ZM782.519 71.6401L759.263 46.2081H772.115L796.731 71.6401H782.519Z" fill="white"/>
<path d="M707.245 71.6401V22.6801H729.141C732.677 22.6801 735.76 23.2921 738.389 24.5161C741.019 25.6947 743.059 27.3721 744.509 29.5481C745.96 31.7241 746.685 34.2627 746.685 37.1641C746.685 40.0201 745.96 42.5361 744.509 44.7121C743.059 46.8427 741.019 48.5201 738.389 49.7441C735.76 50.9227 732.677 51.5121 729.141 51.5121H715.541V43.8281H728.869C731.363 43.8281 733.267 43.2614 734.581 42.1281C735.941 40.9494 736.621 39.3174 736.621 37.2321C736.621 35.1014 735.964 33.4921 734.649 32.4041C733.335 31.2707 731.408 30.7041 728.869 30.7041H717.717V71.6401H707.245ZM734.853 71.6401L715.201 46.2081H726.285L748.997 71.6401H734.853Z" fill="white"/>
<path d="M677.675 72.32C674.049 72.32 670.694 71.708 667.611 70.484C664.574 69.26 661.922 67.5373 659.655 65.316C657.434 63.0493 655.689 60.3747 654.419 57.292C653.195 54.164 652.583 50.7187 652.583 46.956C652.583 41.9693 653.649 37.6173 655.779 33.9C657.91 30.1373 660.857 27.2133 664.619 25.128C668.427 23.0427 672.757 22 677.607 22C682.549 22 686.901 23.0427 690.663 25.128C694.426 27.2133 697.373 30.1373 699.503 33.9C701.679 37.6627 702.767 42.0373 702.767 47.024C702.767 50.7413 702.133 54.164 700.863 57.292C699.639 60.3747 697.894 63.0493 695.627 65.316C693.406 67.5373 690.754 69.26 687.671 70.484C684.634 71.708 681.302 72.32 677.675 72.32ZM677.607 64.024C680.463 64.024 682.979 63.2987 685.155 61.848C687.331 60.3973 689.031 58.4027 690.255 55.864C691.525 53.28 692.159 50.288 692.159 46.888C692.159 43.5333 691.547 40.6093 690.323 38.116C689.099 35.6227 687.399 33.696 685.223 32.336C683.047 30.976 680.509 30.296 677.607 30.296C674.751 30.296 672.235 30.976 670.059 32.336C667.883 33.696 666.183 35.6227 664.959 38.116C663.781 40.564 663.191 43.488 663.191 46.888C663.191 50.3333 663.803 53.348 665.027 55.932C666.251 58.4707 667.951 60.4653 670.127 61.916C672.303 63.3213 674.797 64.024 677.607 64.024Z" fill="white"/>
<path d="M596.484 71.6401L582.68 22.6801H593.288L604.712 67.4921H601.38L611.58 22.6801H623.48L633.544 67.4921H630.28L641.772 22.6801H651.904L638.1 71.6401H626.404L616 27.7121H618.72L608.18 71.6401H596.484Z" fill="white"/>
<path d="M553.105 71.6401V30.7041H537.125V22.6801H579.557V30.7041H563.577V71.6401H553.105Z" fill="white"/>
<path d="M497.206 71.6401V22.6801H507.678V71.6401H497.206ZM502.102 71.6401V63.6161H533.654V71.6401H502.102ZM502.102 50.5601V42.6721H531.274V50.5601H502.102ZM502.102 30.7041V22.6801H532.838V30.7041H502.102Z" fill="white"/>
<path d="M448.945 71.6401V22.6801H462.477L484.237 65.9281L480.905 66.7441V22.6801H491.105V71.6401H477.573L455.813 28.3921L459.145 27.5761V71.6401H448.945Z" fill="white"/>
<path d="M388.414 71.6401V22.6801H401.946L423.706 65.9281L420.374 66.7441V22.6801H430.574V71.6401H417.042L395.282 28.3921L398.614 27.5761V71.6401H388.414Z" fill="white"/>
<path d="M346.528 71.6401V22.6801H357V71.6401H346.528ZM351.424 71.6401V63.6161H382.976V71.6401H351.424ZM351.424 50.5601V42.6721H380.596V50.5601H351.424ZM351.424 30.7041V22.6801H382.16V30.7041H351.424Z" fill="white"/>
<path d="M315.732 71.6401V30.7041H299.752V22.6801H342.184V30.7041H326.204V71.6401H315.732Z" fill="white"/>
<path d="M271.056 71.6401V22.6801H281.528V71.6401H271.056ZM275.952 71.6401V63.6161H305.056V71.6401H275.952Z" fill="white"/>
<path d="M241.214 72.32C237.587 72.32 234.232 71.708 231.15 70.484C228.112 69.26 225.46 67.5373 223.194 65.316C220.972 63.0493 219.227 60.3747 217.958 57.292C216.734 54.164 216.122 50.7187 216.122 46.956C216.122 41.9693 217.187 37.6173 219.318 33.9C221.448 30.1373 224.395 27.2133 228.158 25.128C231.966 23.0427 236.295 22 241.146 22C246.087 22 250.439 23.0427 254.202 25.128C257.964 27.2133 260.911 30.1373 263.042 33.9C265.218 37.6627 266.306 42.0373 266.306 47.024C266.306 50.7413 265.671 54.164 264.402 57.292C263.178 60.3747 261.432 63.0493 259.166 65.316C256.944 67.5373 254.292 69.26 251.21 70.484C248.172 71.708 244.84 72.32 241.214 72.32ZM241.146 64.024C244.002 64.024 246.518 63.2987 248.694 61.848C250.87 60.3973 252.57 58.4027 253.794 55.864C255.063 53.28 255.698 50.288 255.698 46.888C255.698 43.5333 255.086 40.6093 253.862 38.116C252.638 35.6227 250.938 33.696 248.762 32.336C246.586 30.976 244.047 30.296 241.146 30.296C238.29 30.296 235.774 30.976 233.598 32.336C231.422 33.696 229.722 35.6227 228.498 38.116C227.319 40.564 226.73 43.488 226.73 46.888C226.73 50.3333 227.342 53.348 228.566 55.932C229.79 58.4707 231.49 60.4653 233.666 61.916C235.842 63.3213 238.335 64.024 241.146 64.024Z" fill="white"/>
<path d="M157.4 71.6401V22.6801H173.72L187.32 69.8721H181.404L195.004 22.6801H211.392V71.6401H201.056V25.6041H202.824L189.564 71.6401H178.752L165.628 26.0121H167.328V71.6401H157.4Z" fill="white"/>
<circle cx="47.5" cy="47.5" r="47.5" transform="rotate(-90 47.5 47.5)" fill="url(#paint0_linear_56_19)"/>
<defs>
<linearGradient id="paint0_linear_56_19" x1="47.5" y1="-3.8147e-06" x2="47.5" y2="95" gradientUnits="userSpaceOnUse">
<stop stop-color="#EF0D74"/>
<stop offset="1" stop-color="#FF6606"/>
</linearGradient>
</defs>
</svg>
