<svg width="37" height="38" viewBox="0 0 37 38" fill="none" xmlns="http://www.w3.org/2000/svg">
<path d="M7.51717 13.5454L1.97885 10.7256C1.54564 11.5767 1.1767 12.4691 0.883118 13.378L6.79685 15.2902C6.99011 14.6924 7.2319 14.1053 7.51717 13.5454Z" fill="white"/>
<path d="M12.2217 8.57576L15.2893 13.8612C15.7373 13.6014 16.2168 13.4016 16.7156 13.2675L15.128 7.36583C15.532 7.25718 15.9426 7.16749 16.3555 7.1023L15.3799 0.963867C14.4363 1.11366 13.4987 1.33975 12.5925 1.63518L14.4895 7.44905C13.8861 7.64601 13.2985 7.89058 12.7326 8.18001L9.94425 2.73739C9.09633 3.17198 8.27615 3.67685 7.50543 4.23952L11.1694 9.2596C11.5069 9.0136 11.8601 8.78613 12.2217 8.57576Z" fill="white"/>
<path d="M28.683 12.9549L23.3994 16.0253C23.6597 16.4728 23.8594 16.9527 23.994 17.4507L29.8952 15.8602C30.0039 16.2643 30.0936 16.6744 30.1592 17.0868L36.2967 16.1094C36.1465 15.1663 35.9199 14.2282 35.6236 13.3216L29.8106 15.2222C29.6132 14.6189 29.3686 14.0317 29.0787 13.4658L34.5195 10.6738C34.0849 9.8268 33.5791 9.0066 33.0165 8.23633L27.9978 11.9027C28.2442 12.2402 28.4727 12.5929 28.683 12.9549Z" fill="white"/>
<path d="M26.5284 2.71251C25.6763 2.27977 24.784 1.91128 23.876 1.61816L21.967 7.53283C22.5643 7.72562 23.1515 7.96788 23.7123 8.25268L26.5284 2.71251Z" fill="white"/>
<path d="M24.3216 8.46746L21.2189 13.8523C21.6683 14.1112 22.0825 14.4284 22.451 14.7954L31.1531 6.06377C30.4781 5.39107 29.7448 4.76646 28.9736 4.20703L25.3845 9.1568C25.0424 8.90899 24.6877 8.67875 24.3216 8.46746Z" fill="white"/>
<path d="M7.73299 12.9354L13.1164 16.0414C13.3753 15.5925 13.6934 15.1778 14.061 14.8088L5.33301 6.10352C4.65985 6.77853 4.03477 7.51133 3.47534 8.28204L8.42326 11.8735C8.17545 12.2151 7.94428 12.5693 7.73299 12.9354Z" fill="white"/>
<path d="M20.1462 6.99785L21.0852 0.955581C20.1573 0.811331 19.2077 0.738281 18.2622 0.738281H18.2479V13.066H18.2622C18.7819 13.066 19.296 13.1326 19.7907 13.2639L21.3848 7.25675C20.977 7.14857 20.5637 7.06304 20.1462 6.99785Z" fill="white"/>
<path d="M12.5261 17.4684L6.51986 15.8701C6.41121 16.2779 6.32522 16.6912 6.26003 17.1087L0.218685 16.1669C0.0735114 17.0981 0 18.0514 0 18.9997H12.3277C12.3277 18.4791 12.3944 17.9636 12.5261 17.4684Z" fill="white"/>
<path d="M29.0074 24.4558L34.5457 27.2756C34.9789 26.4244 35.3478 25.5321 35.6414 24.6232L29.7277 22.7109C29.5344 23.3087 29.2927 23.8959 29.0074 24.4558Z" fill="white"/>
<path d="M24.3026 29.4241L21.235 24.1387C20.787 24.3985 20.3076 24.5982 19.8087 24.7323L21.3964 30.634C20.9918 30.7427 20.5817 30.8324 20.1689 30.8976L21.1439 37.0355C22.0876 36.8857 23.0252 36.6596 23.9314 36.3642L22.0344 30.5503C22.6382 30.3534 23.2254 30.1088 23.7913 29.8194L26.5796 35.262C27.4275 34.8274 28.2477 34.3225 29.0184 33.7599L25.3544 28.7398C25.0169 28.9858 24.6642 29.2137 24.3026 29.4241Z" fill="white"/>
<path d="M7.84183 25.0465L13.1259 21.9762C12.8656 21.5286 12.6658 21.0487 12.5313 20.5508L6.63005 22.1412C6.5214 21.7371 6.43171 21.327 6.36606 20.9146L0.228088 21.892C0.378348 22.8352 0.604892 23.7733 0.901249 24.6799L6.7142 22.7792C6.91161 23.3826 7.15619 23.9698 7.44608 24.5357L2.00531 27.3277C2.4399 28.1747 2.9457 28.9949 3.50836 29.7651L8.52702 26.0988C8.28059 25.7613 8.05219 25.4085 7.84183 25.0465Z" fill="white"/>
<path d="M9.99615 35.2882C10.8482 35.721 11.7405 36.0894 12.6486 36.3826L14.5576 30.4679C13.9602 30.2751 13.3731 30.0328 12.8122 29.748L9.99615 35.2882Z" fill="white"/>
<path d="M12.2029 29.534L15.3057 24.1492C14.8563 23.8903 14.442 23.5731 14.0735 23.2061L5.37146 31.9377C6.04647 32.6104 6.77974 33.235 7.55091 33.7945L11.14 28.8447C11.4822 29.0925 11.8367 29.3227 12.2029 29.534Z" fill="white"/>
<path d="M28.7914 25.0659L23.4079 21.96C23.149 22.4089 22.8309 22.8236 22.4634 23.1925L31.1909 31.8983C31.8641 31.2233 32.4891 30.4905 33.0486 29.7198L28.1006 26.1284C28.3485 25.7867 28.5801 25.4321 28.7914 25.0659Z" fill="white"/>
<path d="M16.7338 24.7363L15.1397 30.7435C15.5475 30.8516 15.9608 30.9372 16.3783 31.0024L15.4398 37.0446C16.3677 37.1889 17.3173 37.2619 18.2628 37.2619H18.2771V24.9342H18.2628C17.7431 24.9342 17.2285 24.8676 16.7338 24.7363Z" fill="white"/>
<path d="M24.1969 19.001C24.1969 19.5216 24.1299 20.0366 23.9981 20.5322L30.0043 22.1305C30.113 21.7227 30.199 21.3094 30.2641 20.8919L36.306 21.8342C36.4511 20.903 36.5246 19.9497 36.5246 19.0014L24.1969 19.001Z" fill="white"/>
</svg>
