<svg width="193" height="215" viewBox="0 0 193 215" fill="none" xmlns="http://www.w3.org/2000/svg">
<rect width="193" height="215" fill="#000912"/>
<rect x="143" y="26" width="1" height="1" fill="#D9D9D9"/>
<rect x="114" y="52" width="1" height="1" fill="#D9D9D9"/>
<rect x="154" y="124" width="1" height="1" fill="#D9D9D9"/>
<rect x="27" y="91" width="1" height="1" fill="#D9D9D9"/>
<rect x="163" y="67" width="1" height="1" fill="#D9D9D9"/>
<rect x="164" y="58" width="1" height="1" fill="#D9D9D9"/>
<rect x="172" y="58" width="1" height="1" fill="#D9D9D9"/>
<rect x="183" y="47" width="1" height="1" fill="#D9D9D9"/>
<rect x="23" y="151" width="1" height="1" fill="#D9D9D9"/>
<rect x="52" y="172" width="1" height="1" fill="#D9D9D9"/>
<rect x="18" y="200" width="1" height="1" fill="#D9D9D9"/>
<rect x="57" y="48" width="1" height="1" fill="#D9D9D9"/>
<rect x="182" y="5" width="1" height="1" fill="#D9D9D9"/>
<rect x="19" y="15" width="1" height="1" fill="#D9D9D9"/>
<rect x="97" y="125" width="1" height="1" fill="#D9D9D9"/>
<rect x="168" y="168" width="1" height="1" fill="#D9D9D9"/>
<rect x="154" y="180" width="1" height="1" fill="#D9D9D9"/>
<rect x="176" y="201" width="1" height="1" fill="#D9D9D9"/>
</svg>
