<svg width="24" height="25" viewBox="0 0 24 25" fill="none" xmlns="http://www.w3.org/2000/svg">
<path d="M21.9 18.477C21.904 17.94 23.952 17.963 23.938 17.461C23.928 17.074 23.021 17.083 23.306 16.264C23.726 15.044 23.954 13.734 23.954 12.371C23.954 5.75598 18.59 0.393982 11.977 0.393982C5.36201 0.393982 6.07247e-06 5.75598 6.07247e-06 12.371C-0.00136042 13.7265 0.227911 15.0724 0.678006 16.351C0.848006 16.894 0.00200607 17.107 0.00200607 17.431C0.00200607 17.939 1.78401 17.871 1.78401 18.461C1.78401 18.977 0.0230061 19.135 0.0230061 19.655C0.0230061 20.372 3.92401 20.122 3.97301 20.739C4.01201 21.216 2.63301 21.244 2.62401 21.753C2.61101 22.565 7.94901 22.299 7.94901 22.84C7.94901 23.249 5.52101 23.101 5.52101 23.584C5.52101 24.067 8.71701 24.374 12.239 24.374C15.761 24.374 18.192 23.982 18.192 23.558C18.192 23.135 15.924 23.223 15.971 22.84C16.053 22.173 21.085 22.514 21.085 21.743C21.085 21.336 19.701 21.241 19.745 20.803C19.809 20.183 23.954 20.276 23.954 19.633C23.954 19.128 21.901 19.003 21.903 18.479L21.9 18.477ZM18.69 16.921C18.58 17.33 19.842 17.391 19.842 17.818C19.842 18.337 15.994 18.13 16.032 18.817C16.056 19.249 18.766 19.322 18.714 19.774C18.64 20.428 14.518 20.102 14.477 20.728C14.447 21.188 16.489 21.203 16.493 21.622C16.497 21.975 14.889 22.167 11.813 22.167C8.30601 22.167 6.60301 21.978 6.79601 21.584C6.97701 21.216 10.081 21.284 10.05 20.705C10.018 20.127 4.53801 20.298 4.37201 19.737C4.23501 19.271 6.17301 19.175 6.16101 18.732C6.14801 18.281 3.67801 18.383 3.62401 17.837C3.58901 17.477 4.91501 17.501 4.85801 17.049C4.81601 16.721 4.26801 16.767 3.94401 16.089C3.31942 14.7407 3.04448 13.2567 3.14455 11.7741C3.24462 10.2915 3.71647 8.85803 4.51658 7.60586C5.31669 6.35369 6.41927 5.32319 7.7226 4.60945C9.02594 3.89572 10.488 3.52172 11.974 3.52198C13.4307 3.52163 14.865 3.88094 16.1495 4.56802C17.434 5.2551 18.529 6.2487 19.3372 7.46061C20.1455 8.67251 20.642 10.0652 20.7828 11.5151C20.9235 12.965 20.7041 14.4273 20.144 15.772C19.729 16.714 18.794 16.525 18.687 16.922H18.689L18.69 16.921Z" fill="white"/>
</svg>
