<svg width="202" height="180" viewBox="0 0 202 180" fill="none" xmlns="http://www.w3.org/2000/svg">
<path d="M48.4982 122.166H42V180H48.4982V155.307H54.9964L59.5451 180H66.0433L61.4946 155.307H66.6931V122.166H48.4982ZM60.1949 148.809H48.4982V128.664H60.1949V148.809ZM79.6895 89.0253H73.1913V180H79.6895V135.812H91.3863V180H97.8845V89.0253H79.6895ZM91.3863 129.314H79.6895V95.5235H91.3863V129.314ZM104.383 44.1877H129.076V50.6859H110.881V173.502H129.076V180H104.383V44.1877ZM142.072 6.49819V89.0253H160.267V95.5235H142.072V173.502H160.267V180H135.574V0H160.267V6.49819H142.072Z" fill="url(#paint0_radial_112_2)"/>
<defs>
<radialGradient id="paint0_radial_112_2" cx="0" cy="0" r="1" gradientUnits="userSpaceOnUse" gradientTransform="translate(88.1372 126.715) rotate(46.1088) scale(142.469 93.6079)">
<stop stop-color="#FDC8A8"/>
<stop offset="1" stop-color="#A57755"/>
</radialGradient>
</defs>
</svg>
