<svg width="102" height="40" viewBox="0 0 102 40" fill="none" xmlns="http://www.w3.org/2000/svg">
<g clip-path="url(#clip0_2001_108)">
<path d="M13.3929 39.4L18.5457 33.6103C18.6329 33.5231 18.5744 33.3785 18.4298 33.3785H12.756C12.7124 33.3714 12.672 33.3514 12.6401 33.321L7.83493 27.9364C7.80621 27.879 7.77647 27.8205 7.80621 27.7621L15.8534 13.9539C15.8821 13.8964 15.8821 13.838 15.8534 13.8103L12.5242 8.07694C12.4667 7.99079 12.3221 7.99079 12.2636 8.07694L0.366212 28.5169C0.352024 28.5436 0.344604 28.5734 0.344604 28.6036C0.344604 28.6338 0.352024 28.6636 0.366212 28.6903L9.91801 39.4287C9.94672 39.4585 9.97544 39.4872 10.0339 39.4872H13.276C13.3047 39.4585 13.3642 39.4298 13.3929 39.4Z" fill="white"/>
<path d="M16.924 0.0882658L13.5661 5.81955C13.5374 5.87801 13.5374 5.93545 13.5661 5.96416L17.0399 11.9283L26.2461 27.7334C26.2748 27.7919 26.2748 27.8503 26.2174 27.9078L21.3538 33.3498L16.1712 39.198C16.0851 39.2852 16.1425 39.4298 16.2871 39.4298H24.0461C24.0897 39.4224 24.1301 39.402 24.162 39.3713L33.7148 28.6319C33.7435 28.5734 33.7723 28.516 33.7435 28.4575L17.1558 0.0882658C17.1271 -0.0276316 16.9815 -0.0276316 16.924 0.0882658ZM48.0451 31.4103V12.999C48.0459 12.9683 48.0368 12.9381 48.0192 12.9128C48.0016 12.8876 47.9763 12.8687 47.9471 12.859C47.9179 12.8492 47.8864 12.8491 47.8571 12.8586C47.8278 12.8681 47.8024 12.8868 47.7846 12.9119L42.1681 19.1939C42.1394 19.2226 42.1394 19.2513 42.1394 19.2801V37.3447C42.1394 37.4319 42.1969 37.4893 42.284 37.4893H56.4687C56.5558 37.4893 56.6143 37.4319 56.6143 37.3447V31.6995C56.6143 31.6124 56.5558 31.5549 56.4687 31.5549H48.1897C48.1322 31.5549 48.0451 31.4975 48.0451 31.4103ZM64.7784 37.3436V20.0924C64.7792 20.0616 64.7702 20.0314 64.7525 20.0062C64.7349 19.9809 64.7096 19.9621 64.6804 19.9523C64.6512 19.9425 64.6197 19.9424 64.5904 19.9519C64.5612 19.9614 64.5357 19.9801 64.5179 20.0052L58.9015 26.2872C58.8728 26.316 58.8728 26.3447 58.8728 26.3734V37.3457C58.8728 37.4319 58.9302 37.4903 59.0174 37.4903H64.6338C64.7199 37.4903 64.7774 37.4031 64.7774 37.3457L64.7784 37.3436ZM95.1743 28.6883C95.1601 28.6616 95.1527 28.6318 95.1527 28.6016C95.1527 28.5714 95.1601 28.5416 95.1743 28.5149L100.935 19.9467C100.993 19.8595 100.935 19.7149 100.819 19.7149H94.363C94.3056 19.7149 94.2769 19.7437 94.2481 19.7724L89.9917 26.6626C89.9739 26.6877 89.9485 26.7064 89.9192 26.7159C89.8899 26.7254 89.8584 26.7253 89.8292 26.7155C89.8 26.7058 89.7747 26.6869 89.7571 26.6616C89.7395 26.6364 89.7304 26.6062 89.7312 26.5754V12.9693C89.7321 12.9385 89.723 12.9083 89.7054 12.8831C89.6877 12.8579 89.6624 12.839 89.6333 12.8292C89.6041 12.8195 89.5725 12.8193 89.5433 12.8288C89.514 12.8384 89.4886 12.857 89.4707 12.8821L83.8553 19.1642C83.8266 19.1939 83.8266 19.2226 83.8266 19.2513V37.3436C83.8266 37.4319 83.884 37.4893 83.9702 37.4893H89.5866C89.6738 37.4893 89.7312 37.4319 89.7312 37.3447V30.4257C89.73 30.3947 89.739 30.3641 89.7567 30.3385C89.7743 30.313 89.7998 30.2939 89.8293 30.284C89.8588 30.2742 89.8906 30.2742 89.9201 30.284C89.9496 30.2939 89.9751 30.313 89.9928 30.3385L94.7107 37.4319C94.7427 37.4622 94.7831 37.4822 94.8266 37.4893H101.08C101.196 37.4893 101.254 37.3447 101.196 37.2575L95.1743 28.6883ZM74.3015 37.836C77.9497 37.836 81.8287 36.3026 81.8287 32.0185C81.8287 27.7334 78.2389 26.9231 75.604 26.316C74.1579 25.9672 72.9989 25.7067 72.9989 24.9252C72.9989 24.318 73.5487 23.9406 74.4461 23.9406C75.3733 23.9406 76.1251 24.4042 76.6471 25.3016C76.6758 25.3601 76.762 25.3888 76.8205 25.3601L81.2779 23.3621C81.3651 23.3334 81.3938 23.2462 81.3364 23.1601C79.9753 20.6698 77.602 19.396 74.3015 19.396C69.5251 19.3672 67.3538 22.2913 67.3538 25.1857C67.3538 29.1519 70.8861 30.0493 73.4625 30.7149C74.9671 31.0913 76.0389 31.3816 76.0389 32.1334C76.0389 32.6257 75.7497 33.2339 74.3015 33.2339C72.9702 33.2339 72.0143 32.6554 71.522 31.4965C71.4933 31.4103 71.4071 31.3816 71.3199 31.4103L66.7169 33.7262C66.6297 33.7549 66.601 33.8421 66.6594 33.9283C67.962 36.5631 70.481 37.836 74.3015 37.836Z" fill="white"/>
</g>
<defs>
<clipPath id="clip0_2001_108">
<rect width="101.538" height="40" fill="white"/>
</clipPath>
</defs>
</svg>
