<svg width="1512" height="982" viewBox="0 0 1512 982" fill="none" xmlns="http://www.w3.org/2000/svg">
<g clip-path="url(#clip0_666_5117)">
<g clip-path="url(#clip1_666_5117)">
<path d="M679.618 1380.81C679.604 1380.83 679.585 1380.83 679.566 1380.83C635.312 1380.83 597.077 1378.32 565.508 1375.85L546.19 1374.38L530.251 1372.17L529.601 1372.08C485.421 1367.28 393.726 1357.31 282.583 1305.16L261.23 1295.12L241.175 1283.85C28.1153 1164.44 -45.5613 998.634 -80.9919 918.937L-82.0748 916.512C-101.133 876.317 -112.221 844.135 -121.36 815.331L-125.259 802.9L-128.507 790.989C-157.614 687.426 -164.111 591.79 -148.821 490.306C-135.241 400.289 -106.9 321.172 -59.7828 241.849C-59.3431 241.109 -58.9813 240.321 -58.7069 239.505C-48.2005 208.264 -35.3436 177.363 -20.3377 147.486C-20.0025 146.818 -19.7292 146.121 -19.5214 145.404C-15.009 129.828 -9.96234 114.344 -4.54327 99.3142L-3.41712 96.239C6.58835 66.136 36.7347 -23.653 115.522 -120.805L148.529 -160.839C148.903 -161.293 149.309 -161.718 149.746 -162.112L183.915 -192.966C259.887 -262.008 352.535 -314.201 451.767 -343.827C504.393 -359.507 558.838 -369.209 613.673 -372.544L622.466 -373.064L625.714 -373.194C635.72 -373.67 646.288 -373.93 656.987 -373.93C656.987 -373.93 656.987 -373.93 656.987 -373.93C656.987 -373.93 657.693 -373.93 658.448 -373.93C659.434 -373.93 660.415 -374.052 661.372 -374.29C687.808 -380.873 714.733 -385.992 741.492 -389.523C743.031 -389.725 747.336 -390.307 747.887 -390.381C747.927 -390.387 747.966 -390.392 748.005 -390.397C760.109 -391.909 770.832 -393.076 781.081 -394.071C803.69 -396.236 838.904 -398.792 878.103 -398.792C970.318 -398.792 1053.78 -385.408 1133.31 -357.947L1146.86 -353.096L1149.68 -352.057C1309.03 -291.851 1395.49 -207.346 1446.77 -148.31C1495.32 -104.13 1537.25 -53.2795 1571.43 2.9415L1586.76 28.15L1599.67 54.528C1696.69 252.644 1668.36 419.965 1657.71 482.986L1657.32 485.238C1652.47 514.778 1645.32 545.228 1636.09 575.504C1630.25 603.138 1622.75 630.512 1613.79 656.977C1591.62 724.648 1558.58 789.55 1515.68 849.524C1514.99 850.488 1514.44 851.559 1514.06 852.681C1484.77 938.215 1446.77 997.249 1434.03 1017.04L1425.33 1030.04L1385.91 1086.65L1376.51 1098.3C1284.17 1213.34 1172.12 1289.96 1033.95 1332.45L996.263 1344.28L954.292 1351.55C927.802 1356.26 900.296 1359.4 872.612 1360.94C871.943 1360.98 871.278 1361.07 870.624 1361.22C811.129 1374.53 750.303 1380.79 679.671 1380.79C679.651 1380.79 679.632 1380.8 679.618 1380.81V1380.81Z" stroke="black" stroke-width="3" stroke-miterlimit="10"/>
<path d="M679.575 1341.87C679.583 1341.86 679.577 1341.85 679.566 1341.85C636.698 1341.85 599.372 1339.38 568.54 1337L550.392 1335.61L535.015 1333.45L533.759 1333.32C491.745 1328.77 404.425 1319.28 299.216 1269.86L279.161 1260.42L260.32 1249.85C58.5647 1136.76 -11.5602 978.97 -45.3015 903.128L-46.6009 900.226C-64.7927 861.98 -75.4046 831.141 -84.1539 803.55L-87.8356 791.942L-90.8675 780.81C-118.545 682.489 -124.782 591.92 -110.315 496.11C-97.3449 410.014 -69.9272 334.249 -24.2239 258.239C-23.7547 257.459 -23.3725 256.626 -23.0879 255.761C-12.5802 223.829 0.560939 192.278 16.0139 161.831C16.3701 161.129 16.6577 160.395 16.8725 159.638C21.3843 143.736 26.4716 127.926 32.0134 112.612L33.3128 109.06C42.8419 80.473 71.3856 -4.55155 145.712 -96.2031L176.729 -133.772C177.101 -134.223 177.505 -134.646 177.939 -135.037L209.989 -163.989C281.717 -229.176 369.167 -278.467 462.855 -306.447C512.622 -321.304 564.122 -330.443 615.969 -333.605L624.198 -334.081L627.447 -334.211C636.933 -334.688 646.851 -334.904 656.9 -334.904H657.377C659.256 -334.904 661.163 -334.904 663.075 -334.904C664.094 -334.904 665.109 -335.035 666.096 -335.289C692.607 -342.118 719.688 -347.358 746.603 -350.887C747.34 -351.01 752.377 -351.675 752.922 -351.747C752.956 -351.751 752.987 -351.755 753.021 -351.76C764.608 -353.186 774.858 -354.353 784.676 -355.262C806.462 -357.341 840.377 -359.81 878.017 -359.81C965.813 -359.81 1045.12 -347.162 1120.49 -321.087L1133.05 -316.583L1135.86 -315.543C1287.63 -258.196 1369.89 -177.503 1418.74 -120.978C1465.26 -78.9643 1505.37 -30.4531 1538.03 23.2125L1552.41 46.905L1564.54 71.6803C1656.06 258.492 1629.25 416.89 1619.16 476.489L1618.81 478.612C1614.13 507.198 1607.16 536.608 1598.19 565.758C1592.61 592.44 1585.42 618.904 1576.75 644.459C1555.31 709.993 1523.13 772.711 1481.25 830.491C1481 830.858 1480.73 831.233 1480.45 831.613C1479.77 832.562 1479.24 833.621 1478.87 834.73C1450.9 918.672 1413.64 976.587 1401.16 995.992L1393.23 1007.82L1354.6 1063.3L1346.06 1073.91C1258.74 1182.72 1152.84 1255.14 1022.38 1295.29L986.951 1306.42L947.535 1313.26C921.455 1317.88 894.446 1320.94 867.217 1322.31C866.506 1322.34 865.8 1322.44 865.106 1322.6C807.534 1335.77 748.457 1341.89 679.584 1341.89C679.573 1341.89 679.567 1341.88 679.575 1341.87V1341.87Z" stroke="black" stroke-width="3" stroke-miterlimit="10"/>
<path d="M679.64 1302.81C679.613 1302.85 679.567 1302.87 679.518 1302.87C638.013 1302.87 601.656 1300.49 571.572 1298.11L554.593 1296.81L539.78 1294.73L537.874 1294.51C497.982 1290.18 415.08 1281.17 315.761 1234.52L296.963 1225.69L279.378 1215.81C88.8843 1109.04 22.3112 959.221 -9.69767 887.234L-11.1703 883.899C-28.4525 847.558 -38.5879 818.149 -46.9475 791.727L-50.3692 780.942L-53.1846 770.59C-79.3894 677.553 -85.3234 592.052 -71.7229 501.873C-59.3193 419.699 -32.8695 347.289 11.4587 274.552C11.9615 273.727 12.3665 272.842 12.6617 271.922C23.127 239.308 36.5084 207.117 52.5253 176.109C52.9114 175.361 53.2194 174.576 53.4442 173.765C57.9544 157.505 63.0809 141.416 68.7434 125.781L70.2161 121.753C79.2253 94.7251 106.166 14.4217 176.075 -71.7291L205.055 -106.871C205.428 -107.323 205.833 -107.747 206.267 -108.139L236.194 -135.183C303.677 -196.516 385.973 -242.904 474.073 -269.196C520.982 -283.186 569.536 -291.805 618.438 -294.794L626.061 -295.227L629.309 -295.357C638.189 -295.79 647.544 -296.007 656.987 -296.007H657.463C660.824 -296.007 664.247 -296.007 667.68 -295.926C668.861 -295.899 670.041 -296.034 671.183 -296.337C697.705 -303.386 724.794 -308.731 751.8 -312.293C752.87 -312.457 757.648 -313.09 758.129 -313.154C758.157 -313.158 758.182 -313.161 758.21 -313.164C769.281 -314.548 779.1 -315.629 788.487 -316.537C809.451 -318.53 842.023 -320.912 878.147 -320.912C961.525 -320.912 1036.67 -308.958 1107.88 -284.312L1119.49 -280.154L1122.31 -279.115C1266.45 -224.669 1344.59 -147.701 1390.98 -93.7323C1435.46 -53.8838 1473.75 -7.75489 1504.9 43.3985L1518.37 65.5317L1529.71 88.7045C1615.74 264.298 1590.44 413.686 1580.91 469.907L1580.56 471.9C1576.02 499.534 1569.3 527.904 1560.6 555.928C1555.31 581.656 1548.38 607.168 1540.02 631.857C1519.71 693.839 1489.3 753.135 1449.76 807.667C1448.48 809.458 1447.1 811.386 1445.63 813.408C1444.86 814.455 1444.27 815.627 1443.87 816.859C1417.28 899.095 1380.8 955.727 1368.54 974.771L1361.4 985.426L1323.54 1039.78L1315.87 1049.31C1233.54 1151.88 1133.83 1220.14 1011.08 1257.91L977.898 1268.31L941.038 1274.67C915.368 1279.2 888.771 1282.17 862.037 1283.37C861.286 1283.41 860.539 1283.51 859.807 1283.68C804.169 1296.67 746.812 1302.74 679.762 1302.74C679.713 1302.74 679.667 1302.77 679.64 1302.81V1302.81Z" stroke="black" stroke-width="3" stroke-miterlimit="10"/>
<path d="M679.597 1263.91C679.597 1263.9 679.587 1263.89 679.575 1263.89C639.389 1263.89 603.966 1261.55 574.604 1259.25L558.795 1258.04L544.544 1256.05L542.032 1255.79C504.306 1251.67 425.778 1243.14 332.351 1199.26L314.852 1191.03L298.479 1181.85C119.291 1081.41 56.2691 939.597 25.9495 871.422L24.2603 867.61C7.88774 833.219 -1.77122 805.195 -9.78425 779.987L-12.9461 770.025L-15.545 760.452C-40.2771 672.656 -45.9079 592.222 -33.1737 507.761C-21.3803 429.555 4.1851 360.502 47.1353 291.039C47.6756 290.166 48.1056 289.224 48.4114 288.243C58.7953 254.947 72.4171 222.114 88.9571 190.544C89.3684 189.758 89.6934 188.931 89.9259 188.076C94.4355 171.489 99.6025 155.035 105.387 139.076L107.033 134.571C115.522 109.103 140.904 33.5205 206.308 -47.1294L233.253 -79.8033C233.625 -80.2544 234.03 -80.6777 234.463 -81.0698L262.269 -106.209C325.507 -163.686 402.649 -207.173 485.161 -231.819C529.211 -244.986 574.864 -253.042 620.777 -255.858L627.837 -256.291L631.085 -256.421C639.401 -256.81 648.151 -257.027 656.944 -257.027H657.42C662.323 -257.027 667.329 -256.958 672.316 -256.821C673.524 -256.787 674.731 -256.932 675.897 -257.252C702.495 -264.548 729.66 -270.056 756.825 -273.616C758.246 -273.831 763.093 -274.432 763.148 -274.439C763.15 -274.439 763.15 -274.439 763.151 -274.439C773.675 -275.739 783.074 -276.778 792.082 -277.644C812.18 -279.55 843.452 -281.846 878.06 -281.846C957.064 -281.846 1028.01 -270.584 1095.06 -247.411L1105.72 -243.6L1108.53 -242.56C1245.1 -190.974 1319.08 -117.774 1363 -66.3173C1405.45 -28.6345 1441.92 15.1122 1471.5 63.7101L1484.02 84.3273L1494.59 105.897C1575.06 270.229 1551.33 410.609 1542.36 463.451L1542.02 465.357C1537.64 492.038 1531.1 519.369 1522.65 546.31C1517.63 571.085 1511.05 595.688 1502.99 619.423C1483.85 677.853 1455.26 733.641 1418.1 784.881C1415.74 788.215 1413.15 791.775 1410.42 795.394C1409.57 796.522 1408.91 797.798 1408.49 799.147C1383.32 879.683 1347.65 935.121 1335.63 953.804L1329.3 963.247L1292.23 1016.52L1285.38 1025.01C1208.07 1121.34 1114.51 1185.4 999.512 1220.79L968.585 1230.49L934.281 1236.43C909.024 1240.91 882.884 1243.7 856.648 1244.74C855.851 1244.77 855.06 1244.88 854.285 1245.06C800.553 1257.91 744.887 1263.93 679.618 1263.93C679.606 1263.93 679.597 1263.92 679.597 1263.91V1263.91Z" stroke="black" stroke-width="3" stroke-miterlimit="10"/>
<path d="M679.575 1224.95C679.585 1224.93 679.57 1224.9 679.548 1224.9C640.715 1224.9 606.211 1222.61 577.636 1220.4L562.996 1219.27L549.352 1217.37L546.234 1217.02C510.543 1213.17 436.477 1205.11 348.896 1164.01L332.697 1156.38L317.537 1147.89C149.61 1053.77 90.1404 919.933 61.5534 855.613L59.6043 851.281C44.098 818.84 34.9155 792.202 27.3356 768.206L24.4335 759.067L22.0513 750.274C-1.20816 667.718 -6.53574 592.396 5.37553 513.609C16.5583 439.373 41.2373 373.678 82.8479 307.45C83.4303 306.523 83.8879 305.518 84.2045 304.47C94.465 270.503 108.323 237.08 125.42 204.998C125.864 204.164 126.211 203.281 126.453 202.367C130.921 185.462 136.126 168.652 142.03 152.417L143.849 147.436C151.819 123.527 175.642 52.6656 236.584 -22.5268L261.491 -52.7289C261.865 -53.1819 262.271 -53.6069 262.707 -54.0005L288.387 -77.1885C347.424 -130.811 419.325 -171.352 496.336 -194.352C537.571 -206.653 580.235 -214.233 623.159 -216.832L629.613 -217.221L632.861 -217.351C640.658 -217.741 648.757 -217.914 656.9 -217.914H657.377C663.842 -217.914 670.38 -217.771 676.891 -217.549C678.167 -217.506 679.441 -217.663 680.668 -218.014C707.283 -225.628 734.546 -231.295 761.849 -234.893C763.421 -235.1 767.715 -235.662 768.102 -235.713C768.123 -235.715 768.14 -235.718 768.161 -235.72C778.154 -236.974 787.067 -237.969 795.677 -238.748C814.952 -240.611 844.925 -242.776 877.973 -242.776C952.56 -242.776 1019.35 -232.208 1082.24 -210.464L1091.9 -206.999L1094.72 -205.96C1223.08 -157.45 1292.86 -88.3782 1334.46 -39.5135C1334.84 -39.0698 1335.24 -38.663 1335.68 -38.2776C1375.81 -2.89001 1410.23 38.2753 1438.11 84.0679L1449.71 103.126L1459.46 123.093C1534.44 276.164 1512.22 407.577 1503.86 457.041L1503.55 458.86C1499.31 484.589 1492.98 510.837 1484.8 536.652C1480.08 560.474 1473.75 584.123 1466 606.993C1448.07 661.785 1421.26 714.107 1386.48 762.055C1382.98 766.954 1379.2 772.096 1375.17 777.326C1374.26 778.514 1373.56 779.872 1373.13 781.308C1349.49 860.168 1314.55 914.428 1302.79 932.754L1297.25 941.027L1260.95 993.177L1254.98 1000.58C1182.69 1090.68 1095.32 1150.53 987.99 1183.54L959.316 1192.55L927.568 1198.05C902.726 1202.44 877.046 1205.11 851.312 1205.98C850.464 1206.01 849.621 1206.12 848.797 1206.33C797.039 1219.06 743.092 1224.99 679.602 1224.99C679.58 1224.99 679.565 1224.97 679.575 1224.95V1224.95Z" stroke="black" stroke-width="3" stroke-miterlimit="10"/>
<path d="M679.596 1185.92C642.043 1185.92 608.519 1183.71 580.668 1181.55L567.154 1180.51L554.073 1178.69L550.348 1178.3C516.78 1174.66 447.132 1167.08 365.442 1128.75L350.499 1121.73L336.552 1113.89C179.93 1026.1 124.012 900.271 97.1139 839.805L94.9482 834.954C80.3515 804.461 71.6454 779.209 64.4553 756.47L61.8132 748.153L59.6475 740.14C37.8607 662.869 32.8363 592.614 43.8813 519.458C54.4528 449.196 78.2842 386.864 118.59 323.876C119.224 322.887 119.714 321.807 120.041 320.679C130.096 286.055 144.185 252.095 161.912 219.473C162.399 218.578 162.772 217.624 163.024 216.637C167.412 199.382 172.695 182.262 178.674 165.716L180.623 160.258C188.073 137.908 210.293 71.7251 266.817 2.07683L289.733 -25.7017C290.106 -26.1534 290.511 -26.5773 290.946 -26.9698L314.505 -48.2535C369.297 -98.0642 436.044 -135.66 507.468 -157.014C545.844 -168.449 585.562 -175.509 625.541 -177.978L631.432 -178.324L634.68 -178.454C641.914 -178.801 649.407 -178.974 656.943 -178.974H657.42C665.387 -178.974 673.427 -178.754 681.473 -178.348C682.868 -178.278 684.265 -178.446 685.603 -178.845C712.296 -186.808 739.674 -192.665 767.177 -196.256C768.357 -196.419 772.71 -197.002 773.233 -197.072C773.267 -197.077 773.302 -197.081 773.336 -197.086C782.671 -198.252 791.145 -199.203 799.445 -199.981C817.897 -201.757 846.527 -203.836 878.06 -203.836C948.228 -203.836 1010.86 -193.96 1069.55 -173.69L1078.26 -170.571L1081.07 -169.532C1201.78 -123.937 1267.44 -58.6188 1306.58 -12.2279C1306.98 -11.7529 1307.4 -11.3188 1307.87 -10.9101C1345.9 22.3051 1378.54 61.0332 1404.84 104.254L1415.5 121.796L1424.46 140.161C1493.94 281.969 1473.23 404.373 1465.44 450.459L1465.13 452.235C1461.06 476.967 1454.96 502.132 1446.99 526.864C1442.52 549.777 1436.5 572.473 1429.1 594.39C1412.33 645.587 1387.34 694.401 1354.94 739.057C1350.31 745.551 1345.28 752.298 1339.98 759.033C1339 760.288 1338.26 761.736 1337.82 763.271C1315.79 840.488 1281.63 893.608 1270.05 911.576L1265.28 918.679L1229.77 969.702L1224.66 976.026C1157.35 1059.88 1076.18 1115.54 976.555 1146.21L950.134 1154.52L920.94 1159.59C896.523 1163.89 871.353 1166.43 846.088 1167.05C845.171 1167.07 844.26 1167.2 843.372 1167.42C793.573 1180.05 741.329 1185.92 679.596 1185.92Z" stroke="black" stroke-width="3" stroke-miterlimit="10"/>
<path d="M679.575 1146.92C679.583 1146.93 679.577 1146.94 679.566 1146.94C643.325 1146.94 610.763 1144.78 583.7 1142.65L571.356 1141.7L559.055 1139.97C558.605 1139.93 554.913 1139.5 554.501 1139.45C554.475 1139.45 554.451 1139.45 554.425 1139.44C523.051 1136.02 457.757 1128.95 382.032 1093.36L368.388 1086.95L355.653 1079.81C210.293 998.333 157.926 880.477 132.761 823.866L130.336 818.452C116.648 789.908 108.419 766.086 101.619 744.559L99.2364 737.065L97.2872 729.832C77.0164 657.801 72.2519 592.615 82.4307 525.175C92.4333 458.892 115.329 399.969 154.448 340.141C155.142 339.081 155.669 337.914 156.008 336.693C165.776 301.463 180.051 266.898 198.48 233.826C199.016 232.863 199.421 231.832 199.683 230.761C203.988 213.159 209.266 195.693 215.36 178.84L217.483 172.906C224.586 151.596 245.377 90.2636 297.093 26.506L317.975 1.19482C318.347 0.744079 318.751 0.321101 319.185 -0.0707361L340.624 -19.4498C391.171 -65.4055 452.763 -100.1 518.6 -119.764C554.117 -130.376 590.89 -136.873 627.88 -139.169L633.164 -139.515L636.413 -139.645C643.04 -139.948 649.927 -140.121 656.857 -140.121H657.333C666.796 -140.121 676.37 -139.824 685.918 -139.196C687.437 -139.096 688.96 -139.277 690.412 -139.731C717.098 -148.078 744.546 -154.125 772.158 -157.75C773.596 -157.955 777.761 -158.511 778.187 -158.568C778.212 -158.572 778.235 -158.575 778.26 -158.578C787.124 -159.702 795.169 -160.566 803.041 -161.302C820.669 -162.991 848 -164.983 877.973 -164.983C943.724 -164.983 1002.24 -155.801 1056.73 -136.96L1064.48 -134.187L1067.3 -133.148C1180.3 -90.4275 1241.88 -28.8674 1278.64 15.0911C1279.07 15.603 1279.53 16.0691 1280.04 16.5048C1316 47.5041 1346.76 83.7928 1371.49 124.438L1381.24 140.464L1389.42 157.226C1453.4 287.817 1434.21 401.212 1426.97 443.919L1426.67 445.608C1422.77 469.344 1416.84 493.47 1409.13 517.076C1404.97 539.036 1399.25 560.822 1392.15 581.829C1376.56 629.431 1353.34 674.781 1323.32 716.145C1317.53 724.303 1311.25 732.571 1304.59 740.746C1303.5 742.091 1302.69 743.665 1302.24 745.34C1281.94 820.922 1248.52 872.835 1237.17 890.482L1233.23 896.373L1198.49 946.27L1194.25 951.554C1131.96 1029.17 1056.99 1080.67 965.034 1108.91L940.865 1116.49L914.227 1121.13C890.233 1125.37 865.572 1127.71 840.817 1128.12C839.835 1128.14 838.858 1128.27 837.907 1128.52C790.13 1141.04 739.61 1146.9 679.584 1146.9C679.573 1146.9 679.567 1146.91 679.575 1146.92V1146.92Z" stroke="black" stroke-width="3" stroke-miterlimit="10"/>
<path d="M679.553 1107.85C679.574 1107.9 679.535 1107.96 679.48 1107.96C644.615 1107.95 613.037 1105.88 586.732 1103.8L575.557 1102.94L564.425 1101.38C563.429 1101.25 562.13 1101.12 560.787 1100.94L558.708 1100.73C529.515 1097.56 468.529 1090.94 398.577 1058.11L386.233 1052.3L374.755 1045.85C240.699 970.699 191.884 860.855 168.408 808.056L165.723 802.079C152.945 775.528 145.235 753.091 138.782 732.777L136.659 726.107L134.927 719.653C116.129 652.864 111.667 592.788 120.98 530.979C130.336 468.997 152.166 413.859 189.675 357.508L190.701 355.821C191.313 354.815 191.773 353.724 192.072 352.584C201.469 316.795 215.868 281.791 235.033 248.322C235.628 247.283 236.069 246.161 236.341 244.995C240.523 227.055 245.796 209.289 252.004 192.05L253.693 187.329L254.169 186.073C261.359 164.46 280.028 109.408 327.37 51.0214L346.217 28.1773C346.588 27.7278 346.991 27.3058 347.423 26.9148L366.742 9.44032C413.044 -32.6605 469.438 -64.4527 529.731 -82.4711C562.39 -92.2167 596.218 -98.2373 630.262 -100.316L634.983 -100.62L638.232 -100.749C644.296 -101.053 650.576 -101.183 656.857 -101.183H657.333C668.277 -101.183 679.369 -100.734 690.369 -99.8025C692.034 -99.6615 693.711 -99.8579 695.298 -100.383C721.925 -109.189 749.433 -115.5 777.226 -119.158C778.862 -119.403 782.776 -119.919 783.207 -119.976C783.235 -119.979 783.26 -119.982 783.287 -119.986C791.631 -121.023 799.241 -121.844 806.722 -122.58C823.485 -124.182 849.516 -126.088 877.973 -126.088C939.349 -126.088 993.664 -117.642 1043.99 -100.23L1050.79 -97.8041L1053.61 -96.7646C1158.9 -56.9632 1216.36 0.876838 1250.74 42.4019C1251.2 42.9559 1251.7 43.4582 1252.25 43.9237C1286.15 72.7067 1315.02 106.554 1338.18 144.579L1346.97 159.045L1354.38 174.205C1412.81 293.534 1395.18 397.963 1388.51 437.292L1388.25 438.895C1384.53 461.634 1378.81 484.677 1371.27 507.243C1367.42 528.294 1362 549.084 1355.2 569.182C1340.74 613.318 1319.38 655.029 1291.75 693.102C1284.75 702.958 1277.15 712.739 1269.16 722.238C1267.96 723.675 1267.09 725.382 1266.63 727.203C1248.18 801.229 1215.51 851.932 1204.39 869.215L1201.22 873.893L1167.27 922.664L1163.89 926.865C1106.63 998.203 1037.8 1045.54 953.556 1071.45L931.639 1078.33L907.513 1082.53C883.998 1086.69 859.779 1088.89 835.584 1089.03C834.511 1089.03 833.443 1089.18 832.407 1089.46C786.674 1101.93 737.906 1107.74 679.627 1107.74C679.571 1107.74 679.532 1107.8 679.553 1107.85V1107.85Z" stroke="black" stroke-width="3" stroke-miterlimit="10"/>
<path d="M679.661 1069.11C679.622 1069.03 679.54 1068.98 679.451 1068.98C645.983 1068.97 615.325 1066.94 589.764 1064.95L579.758 1064.17L569.796 1062.78C568.194 1062.57 566.158 1062.35 564.122 1062.13L563.039 1062C535.882 1059.06 479.184 1052.91 415.166 1022.85L404.121 1017.65L393.813 1011.89C271.062 943.064 225.799 841.234 204.012 792.29C203.102 790.254 202.106 787.958 201.067 785.749C189.199 761.19 181.965 740.14 175.901 721.082L174.039 715.235L172.523 709.561C155.198 648.012 151.039 593.047 159.529 536.913C168.018 480.562 188.029 430.275 222.507 378.645L227.018 371.293C227.674 370.223 228.156 369.058 228.458 367.84C237.362 331.837 251.854 296.618 271.659 263.006C272.322 261.881 272.803 260.657 273.082 259.381C277.101 241.067 282.33 222.967 288.69 205.434L290.076 201.492L290.899 199.37C298.089 177.713 314.722 128.682 357.689 75.7096L374.503 55.3322C374.872 54.8841 375.274 54.4634 375.705 54.0735L392.903 38.5032C434.961 0.257303 486.201 -28.6329 540.949 -44.9621C570.792 -53.8414 601.632 -59.3422 632.731 -61.248L636.846 -61.5079L640.094 -61.6378C645.595 -61.8977 651.269 -62.0276 656.943 -62.0276H657.42C669.884 -62.0276 682.423 -61.3515 694.897 -60.0692C696.714 -59.8823 698.551 -60.0996 700.274 -60.7061C726.93 -70.0873 754.581 -76.7005 782.596 -80.3493C783.835 -80.5091 787.726 -81.0373 788.323 -81.1184C788.377 -81.1257 788.427 -81.1322 788.481 -81.1388C796.246 -82.0875 803.412 -82.907 810.534 -83.5545C826.473 -85.0705 851.205 -86.8896 878.146 -86.8896C935.104 -86.8896 985.261 -79.1365 1031.43 -63.1538L1037.24 -61.0747L1040.05 -60.0352C1137.63 -23.1549 1191.01 31.0015 1223.01 70.092C1223.51 70.6948 1224.05 71.2385 1224.65 71.7376C1256.44 98.2608 1283.46 129.623 1305 165.065L1312.89 178.016L1319.51 191.573C1372.44 299.641 1356.29 395.104 1350.22 431.011L1349.96 432.484C1346.42 454.019 1340.97 475.722 1333.84 496.888C1333.65 497.467 1333.49 498.059 1333.39 498.661C1329.84 518.495 1324.79 538.153 1318.39 557.097C1305.22 597.335 1285.68 635.581 1260.39 670.492C1252.16 682.076 1243.25 693.321 1233.8 704.088C1232.44 705.636 1231.49 707.514 1231.03 709.523C1214.61 781.915 1182.7 831.469 1171.77 848.467L1169.43 851.976L1136.25 899.621L1133.74 902.783C1081.46 967.926 1018.83 1011.02 942.294 1034.59L922.63 1040.78L901.059 1044.55C878.883 1048.45 856.013 1050.48 833.23 1050.48C833.23 1050.48 833.23 1050.48 833.23 1050.48C833.23 1050.48 831.818 1050.48 830.514 1050.48C829.385 1050.48 828.263 1050.64 827.177 1050.95C783.539 1063.4 736.533 1069.23 679.872 1069.24C679.783 1069.24 679.701 1069.19 679.661 1069.11V1069.11Z" stroke="black" stroke-width="3" stroke-miterlimit="10"/>
<path d="M679.597 1029.97C679.597 1029.99 679.587 1030 679.575 1030C647.401 1029.99 617.652 1028 592.796 1026.1L583.96 1025.4L575.167 1024.19C573.131 1023.89 570.533 1023.63 567.977 1023.37L567.327 1023.28C542.162 1020.55 489.796 1014.84 431.712 987.592L421.967 983L412.871 977.889C301.381 915.388 259.714 821.571 239.659 776.438C238.663 774.229 237.537 771.674 236.454 769.205C225.539 746.682 218.782 727.061 213.151 709.215L211.549 704.148L210.206 699.253C194.353 642.989 190.498 593.092 198.121 542.588C205.745 491.911 223.98 446.432 255.382 399.523L263.523 386.199C264.213 385.07 264.709 383.834 265.004 382.544C273.255 346.42 287.793 311.157 308.347 277.493C309.093 276.27 309.622 274.927 309.91 273.523C313.724 254.883 318.866 236.419 325.334 218.559L326.633 214.921L327.586 212.408C333.953 193.221 348.853 148.348 387.965 100.14L402.778 82.1973C403.153 81.7429 403.561 81.3168 403.999 80.9224L419.108 67.308C456.964 32.917 502.963 6.92882 552.168 -7.75449C579.152 -15.8108 607.046 -20.7486 635.157 -22.4811L638.708 -22.6977L641.957 -22.8276C646.895 -23.0442 651.962 -23.1741 656.987 -23.1741H657.463C671.41 -23.1741 685.394 -22.2363 699.242 -20.4305C701.272 -20.1657 703.337 -20.405 705.252 -21.1295C731.825 -31.1804 759.504 -38.1221 787.708 -41.799C789.226 -41.9987 792.807 -42.4932 793.354 -42.5688C793.403 -42.5756 793.45 -42.5817 793.498 -42.5879C800.704 -43.4932 807.438 -44.2267 814.215 -44.8742C829.375 -46.3036 852.765 -48.0361 878.103 -48.0361C930.643 -48.0361 976.642 -40.976 1018.66 -26.4226L1023.51 -24.7334L1026.32 -23.6939C1115.32 9.93708 1163.38 58.092 1195.14 97.4566C1195.68 98.1218 1196.27 98.7213 1196.94 99.2618C1226.61 123.482 1251.73 152.353 1271.69 185.164L1278.62 196.599L1284.47 208.554C1331.9 305.359 1317.26 391.813 1311.76 424.385L1311.5 425.814C1308.13 446.359 1302.88 466.946 1295.94 486.956C1295.72 487.602 1295.55 488.265 1295.43 488.94C1292.23 507.783 1287.52 526.451 1281.4 544.45C1269.4 581.137 1251.6 616.004 1228.64 647.623C1219.31 660.793 1209.03 673.435 1197.99 685.339C1196.43 687.022 1195.37 689.118 1194.92 691.368C1180.79 762.134 1149.38 810.92 1138.89 827.201L1137.34 829.54L1104.94 876.059L1103.25 878.138C1055.99 937.001 999.555 975.94 930.729 997.121L913.274 1002.58L894.259 1005.87C874.248 1009.42 853.631 1011.2 833.1 1011.2H832.321C830.501 1011.2 828.596 1011.2 826.603 1011.2L824.827 1011.28L824.039 1011.31C823.009 1011.35 821.991 1011.52 821.004 1011.82C779.661 1024.16 734.608 1029.95 679.618 1029.95C679.606 1029.95 679.597 1029.96 679.597 1029.97V1029.97Z" stroke="black" stroke-width="3" stroke-miterlimit="10"/>
<path d="M679.596 991.013C648.757 991.013 619.91 989.107 595.784 987.201L588.161 986.595L580.538 985.555C578.026 985.209 574.734 984.862 571.529 984.516C548.313 982.003 500.451 976.806 448.258 952.29L439.769 948.305L431.885 943.887C331.744 887.753 293.585 801.862 275.22 760.628C274.137 758.202 272.881 755.387 271.711 752.745C261.749 732.257 255.512 714.109 250.228 697.476L248.885 693.232L247.759 689.117C233.422 638.094 229.827 593.307 236.584 548.478C243.384 503.475 259.757 462.847 288.127 420.659L300.818 399.955C301.121 399.436 301.338 398.959 301.425 398.44C311.379 349.126 332.482 312.01 345.074 292.28C345.937 290.929 346.525 289.429 346.815 287.853C350.316 268.833 355.408 250.066 361.977 231.899L363.147 228.607L364.229 225.878L364.619 224.752C370.337 207.513 383.634 167.448 418.242 124.784L431.02 109.309C431.394 108.856 431.801 108.431 432.238 108.037L445.226 96.3272C478.838 65.7911 519.682 42.7483 563.299 29.7109C587.425 22.5209 612.374 18.1029 637.496 16.5436L640.484 16.327L643.733 16.1971C648.064 15.9805 652.525 15.8939 656.943 15.8939H657.42C673.316 15.8939 689.299 17.2366 704.978 19.9654C705.238 20.0087 705.671 20.052 706.061 20.052C707.014 20.052 707.924 19.8788 708.79 19.4889C735.601 8.31402 763.842 0.690837 792.732 -3.07744C794.594 -3.3373 798.405 -3.81369 798.406 -3.8138C798.406 -3.8138 798.406 -3.8138 798.406 -3.81381C802.911 -4.37688 809.667 -5.15651 817.897 -5.93616C832.191 -7.32219 854.281 -8.9248 878.103 -8.9248C926.225 -8.9248 968.066 -2.55768 1005.92 10.523L1009.78 11.8657L1012.59 12.9052C1095.38 44.189 1139.12 89.5683 1167.92 125.951C1168.06 126.127 1168.22 126.286 1168.39 126.43V126.43C1196.37 148.477 1219.89 175.115 1238.43 205.521L1244.45 215.396L1249.52 225.748C1291.45 311.293 1278.32 388.781 1273.38 417.931L1273.17 419.317C1269.94 438.905 1264.92 458.368 1258.18 477.133C1257.92 477.859 1257.73 478.607 1257.61 479.368C1254.75 497.214 1250.39 514.885 1244.58 531.975C1233.67 565.283 1217.68 596.556 1197.07 624.926C1186.61 639.696 1174.92 653.639 1162.2 666.545C1160.38 668.387 1159.18 670.75 1158.75 673.301C1158.4 675.401 1158.02 677.468 1157.65 679.501C1145.35 745.425 1115.94 791.121 1106.24 806.15L1105.46 807.32L1073.84 852.756L1073.01 853.795C1030.78 906.421 980.54 941.159 919.424 959.914L904.221 964.678L887.719 967.537C869.874 970.699 851.465 972.301 833.23 972.301H832.45C830.371 972.301 828.249 972.301 825.953 972.258L823.614 972.388L820.019 972.518C817.377 972.648 814.735 973.081 812.223 973.861C773.977 985.555 731.876 991.013 679.77 991.013H679.596Z" stroke="black" stroke-width="3" stroke-miterlimit="10"/>
<path d="M679.597 952.009C679.597 952.021 679.587 952.031 679.575 952.031C650.173 952.03 622.244 950.168 598.817 948.349L592.363 947.829L585.909 946.92C583.094 946.53 579.239 946.097 575.557 945.707C553.034 943.238 511.106 938.69 464.847 916.947L457.657 913.568L450.944 909.8C362.021 859.946 328.756 784.97 310.824 744.645C309.698 742.09 308.312 738.971 307.012 736.113C297.96 717.618 292.242 700.899 287.391 685.652L286.308 682.23L285.399 678.939C272.491 633.069 269.243 593.438 275.133 554.282C281.067 514.953 295.621 479.176 320.916 441.71L334.04 420.27C336.725 415.938 338.588 411.174 339.584 406.193C349.169 358.685 370.399 324.452 381.992 306.921C382.961 305.455 383.594 303.808 383.872 302.072C386.979 282.667 391.906 263.593 398.577 245.153L399.617 242.208L400.743 239.349C400.916 238.829 401.176 238.136 401.609 236.837C406.634 221.72 418.372 186.42 448.475 149.3L459.219 136.291C459.592 135.84 459.998 135.416 460.433 135.024L471.301 125.218C500.884 98.3632 536.098 78.439 574.388 67.0042C595.785 60.6371 617.788 56.7389 640.095 55.3961L642.26 55.2229L645.509 55.0496C649.364 54.8764 653.175 54.7898 656.944 54.7898C670.847 54.7898 684.708 55.9159 698.395 58.2981C706.971 59.7275 715.764 58.7313 723.733 55.3961C747.469 45.4773 772.418 38.807 797.93 35.4719C800.052 35.1687 801.914 34.9521 803.387 34.7355C807.415 34.2158 813.782 33.4795 821.536 32.7431C835.006 31.4437 855.667 29.9277 878.06 29.9277C921.807 29.9277 959.446 35.6018 993.144 47.2532L996.003 48.2494L998.818 49.2889C1073.19 77.3994 1111.04 116.642 1138.25 151.292L1138.88 152.098C1139.32 152.657 1139.81 153.176 1140.35 153.648L1143.31 156.273C1167.92 175.505 1188.84 199.024 1205.04 225.705L1210.1 234.065L1214.39 242.814C1250.77 317.054 1239.21 385.619 1234.83 411.391L1234.62 412.777C1231.57 431.358 1226.74 449.567 1220.18 467.243C1219.88 468.064 1219.66 468.916 1219.53 469.783C1217.04 486.706 1212.99 503.414 1207.5 519.588C1197.84 549.128 1183.59 577.022 1165.27 602.144C1154.75 617.044 1142.84 630.947 1129.71 643.681C1125.08 648.186 1122.05 654.077 1121.18 660.444C1120.62 664.385 1119.97 668.283 1119.23 672.138C1108.58 729.356 1083.54 769.117 1073.36 784.97L1042.48 829.323C1005.32 875.626 961.179 906.205 907.816 922.621L894.866 926.692L880.919 929.118C864.936 931.933 848.737 933.363 832.537 933.319C830.285 933.319 828.033 933.319 825.564 933.233H824.827L822.055 933.406L819.11 933.493H819.023C812.83 933.709 806.722 934.705 800.788 936.481C766.316 947.005 727.34 951.986 679.618 951.987C679.606 951.987 679.597 951.997 679.597 952.009V952.009Z" stroke="black" stroke-width="3" stroke-miterlimit="10"/>
<path d="M679.597 921.494C679.597 921.518 679.577 921.538 679.553 921.538C651.372 921.536 624.317 919.761 601.632 917.943L596.261 917.509L590.89 916.773C587.512 916.297 583.44 915.864 579.455 915.43C557.582 913.048 520.982 909.063 480.137 889.919L474.116 887.103L468.529 883.985C390.088 839.978 361.024 774.618 343.699 735.592C342.443 732.82 340.927 729.399 339.541 726.28C331.441 709.691 326.157 694.401 321.696 680.281L320.786 677.422L320.006 674.65C308.528 633.849 305.583 599.025 310.694 565.067C315.805 531.109 328.712 499.707 351.192 466.615L367.998 439.154C370.986 434.303 373.022 428.889 374.018 423.301C382.378 376.653 404.425 343.604 414.43 328.531L415.686 326.626V326.626C416.003 326.135 416.283 325.622 416.513 325.085C416.595 324.895 416.678 324.703 416.769 324.503C417.266 322.872 417.762 321.298 418.259 319.759C418.477 319.082 418.637 318.388 418.736 317.684C421.402 298.905 425.986 280.465 432.449 262.651L433.358 260.226L434.311 257.757C434.614 256.977 434.918 256.111 435.74 253.599C440.505 239.219 450.424 209.376 476.412 177.367L485.255 166.649C485.625 166.201 486.028 165.779 486.459 165.389L495.383 157.313C521.025 134.01 551.561 116.771 584.783 106.852C603.624 101.265 623.072 97.8432 642.693 96.6738L644.469 96.5438L647.155 96.4139C650.446 96.2406 653.695 96.1973 656.9 96.1973C670.977 96.1973 685.011 92.1258 698.828 94.9412C709.483 97.1502 720.528 95.9807 730.49 91.5628C749.072 83.3765 774.064 80.0846 802.694 76.5329C804.73 76.2297 806.506 76.0132 807.892 75.8399C811.66 75.3634 817.681 74.6705 824.957 73.9774C837.605 72.7647 857.096 71.292 878.06 71.292C917.735 71.292 951.52 76.3164 981.406 86.625L983.789 87.4479L986.128 88.3576C1052.05 113.263 1084.62 146.614 1110 178.926C1111.1 180.293 1112.2 181.71 1112.89 182.587C1113.22 183.006 1113.59 183.388 1113.99 183.734V183.734L1118.8 188.022L1119.45 188.672C1141.36 205.477 1159.99 226.181 1174.33 249.787L1178.57 256.761L1182.17 264.037C1213.44 327.882 1203.65 386.008 1199.45 410.827L1199.23 412.127C1196.32 429.658 1191.65 446.861 1185.26 463.457C1184.9 464.376 1184.66 465.333 1184.53 466.309C1182.37 482.35 1178.67 498.139 1173.46 513.48C1164.93 539.642 1152.32 564.287 1136.12 586.507C1125.16 602.1 1112.47 616.393 1098.31 629.171C1091.73 635.062 1087.61 643.205 1086.7 651.954C1086.01 658.408 1085.1 664.688 1083.93 670.882C1074.53 721.386 1052.57 756.296 1042.48 771.932L1017.49 808.273C984.265 850.98 944.893 878.874 897.161 893.6L886.376 896.979L874.681 899.015C860.734 901.483 846.614 902.696 832.451 902.653C830.415 902.653 828.293 902.653 826.04 902.61H824.048C824.048 902.61 824.048 902.61 824.047 902.61C824.034 902.61 823.599 902.611 822.662 902.696L820.193 902.869L817.724 902.956L812.743 903.129C806.159 903.346 799.662 904.515 793.425 906.508C761.686 916.64 725.013 921.448 679.64 921.451C679.616 921.451 679.597 921.47 679.597 921.494V921.494Z" stroke="black" stroke-width="3" stroke-miterlimit="10"/>
<path d="M679.488 885.695C679.519 885.677 679.506 885.631 679.47 885.631C652.573 885.625 626.416 883.895 604.404 882.165L600.116 881.819L595.828 881.213C591.93 880.693 587.555 880.216 583.31 879.74C562.39 877.488 530.814 874.023 495.383 857.433L490.576 855.181L486.071 852.669C418.025 814.51 393.033 758.245 376.487 721.039C375.058 717.834 373.499 714.239 371.983 710.947C364.793 696.35 359.985 682.403 355.913 669.496L355.177 667.244L354.527 665.034C344.478 629.344 341.836 599.284 346.168 570.568C350.542 541.417 362.02 514.26 382.161 485.067L384.544 481.601L387.142 478.266C388.573 476.459 389.939 474.652 391.295 472.901C391.701 472.378 392.066 471.823 392.383 471.242L401.999 453.578C405.334 447.514 407.543 440.93 408.626 434.086C415.031 392.496 435.058 362.451 444.337 348.576C444.353 348.553 444.36 348.528 444.36 348.5V348.5C444.36 348.471 444.369 348.443 444.386 348.419C444.944 347.645 445.621 346.671 445.962 346.117L447.955 342.955C448.735 341.265 449.774 339.013 450.64 336.674C451.458 334.145 452.38 331.091 453.407 327.889C453.639 327.164 453.805 326.418 453.903 325.662C456.149 308.338 460.3 291.312 466.277 274.866L466.97 272.917L467.749 270.924C468.399 269.278 468.875 267.849 469.785 265.034C474.203 251.736 482.433 227.047 504.263 200.106L511.239 191.647C511.612 191.194 512.018 190.77 512.453 190.377L519.422 184.08C541.123 164.373 566.981 149.776 595.092 141.373C611.421 136.522 628.226 133.577 645.205 132.624L646.635 132.537L648.8 132.451C651.486 132.321 654.171 132.277 656.9 132.277C671.497 132.277 686.05 134.097 700.171 137.778C712.428 140.853 725.336 139.511 736.684 133.923C754.789 125.131 779.045 115.818 807.415 112.31C809.364 112.05 811.01 111.833 812.353 111.66C815.905 111.227 821.492 110.577 828.336 109.884C840.204 108.758 858.482 107.372 878.017 107.372C913.62 107.372 943.594 111.747 969.625 120.756L971.531 121.406L973.393 122.099C1033.95 144.968 1061.06 174.941 1081.68 201.233C1086.23 207.037 1086.92 207.903 1090.04 210.718L1093.89 214.14L1095.41 215.656C1105.37 223.366 1125.73 239.262 1143.57 268.629L1146.95 274.216L1149.81 280.063C1176.01 333.556 1167.87 381.85 1163.93 405.066L1163.71 406.366C1160.98 422.901 1156.45 439.069 1150.15 454.63C1149.78 455.542 1149.54 456.499 1149.42 457.476V457.476C1147.69 472.722 1144.31 487.752 1139.37 502.305C1131.96 525.088 1121.01 546.528 1106.89 565.846C1095.1 582.739 1080.9 597.855 1064.79 610.719C1060.93 613.751 1057.81 617.563 1055.56 621.937C1053.31 626.312 1052.05 631.077 1051.83 635.971C1051.4 645.543 1050.28 655.116 1048.54 664.558C1040.4 708.348 1021.3 738.668 1011.55 753.827L992.148 782.458C962.911 821.483 928.304 846.692 886.463 859.556L877.843 862.241L868.531 863.844C856.62 865.966 844.535 867.006 832.451 866.962C830.588 866.962 828.639 866.962 826.603 866.919H824.048C823.701 866.919 822.618 866.919 820.453 867.049L818.46 867.179L816.554 867.266L806.549 867.612C799.532 867.829 792.645 869.085 785.975 871.337C756.897 881.116 722.631 885.751 679.507 885.76C679.472 885.76 679.458 885.714 679.488 885.695V885.695Z" stroke="black" stroke-width="3" stroke-miterlimit="10"/>
<path d="M679.618 849.768C679.605 849.717 679.56 849.681 679.507 849.681C653.766 849.677 628.505 847.99 607.176 846.346L603.971 846.086L600.766 845.653C596.348 845.046 591.713 844.527 587.208 844.05C567.544 841.884 540.646 838.982 510.673 824.905L507.078 823.216L503.743 821.354C446.136 789.042 424.912 741.31 409.449 706.443C407.846 702.848 406.157 699.079 404.511 695.441C397.927 682.187 393.726 669.496 390.261 658.625L389.741 656.935L389.265 655.289C372.416 595.43 378.739 553.416 411.831 505.468L413.65 502.869L415.599 500.357C417.808 497.541 419.844 494.856 421.88 492.257C424.912 488.229 428.03 484.157 431.409 479.956C433.488 477.357 435.177 474.412 436.39 471.337L440.202 461.634C441.804 457.52 442.8 453.188 443.19 448.77C446.479 410.383 465.12 382.416 474.397 368.501C474.412 368.478 474.419 368.452 474.419 368.425V368.425C474.419 368.396 474.428 368.368 474.445 368.344C475.179 367.306 476.156 365.819 476.499 365.305L478.664 361.84L478.767 361.697C479.131 361.187 479.455 360.651 479.728 360.087C480.966 357.532 482.946 353.141 484.685 348.543C485.744 345.109 487.385 339.851 488.997 335C489.067 334.789 489.09 334.589 489.117 334.368V334.368C489.14 334.183 489.2 333.982 489.22 333.796C491.008 317.78 494.679 302.066 500.234 286.951L500.754 285.478L501.317 284.005C502.313 281.45 503.05 279.328 504.003 276.339C507.944 264.471 514.571 244.59 532.287 222.76L537.961 215.916L543.635 210.762C585.476 172.819 632.298 169.528 647.934 168.488L649.017 168.401L650.663 168.315C652.785 168.228 654.908 168.185 656.987 168.185C675.568 168.228 693.933 171.997 711.042 179.23C714.074 180.486 717.366 181.049 720.614 180.919C723.892 180.747 727.085 179.887 729.977 178.383C730.001 178.37 730.028 178.364 730.055 178.364V178.364C730.085 178.364 730.113 178.356 730.138 178.341C746.043 169.111 775.176 152.415 812.31 147.957C814.085 147.698 815.775 147.481 816.987 147.351C820.279 146.918 825.477 146.312 831.887 145.705C842.976 144.622 860.041 143.366 878.146 143.366C909.722 143.366 935.84 147.091 958.017 154.758L959.446 155.234L960.832 155.754C1012.72 175.375 1035.07 199.977 1053.57 223.496C1058.55 229.777 1060.76 232.679 1066.3 237.617L1069.2 240.215L1071.54 242.598L1073.32 244.027C1082.11 250.827 1098.48 263.518 1112.99 287.384L1115.55 291.542L1117.67 295.917C1138.76 339.014 1132.18 378.126 1128.63 399.133L1128.41 400.389C1125.9 415.679 1121.57 430.579 1115.46 444.829L1115.43 444.909C1115.11 445.661 1114.85 446.445 1114.73 447.254V447.254C1114.47 448.684 1114.29 449.853 1114.08 451.326L1113.86 452.972C1112.43 465.879 1109.57 478.527 1105.41 490.828C1099.13 510.189 1089.82 528.424 1077.82 544.883C1065.95 561.732 1052.66 575.419 1037.76 586.291C1031.22 591.055 1025.85 597.293 1022.12 604.526C1018.4 611.716 1016.4 619.686 1016.27 627.829C1016.14 637.921 1015.15 648.013 1013.33 657.975C1006.44 695.051 990.632 720.173 980.757 735.463L966.68 756.6C941.471 791.814 911.714 814.337 875.894 825.295L873.988 825.902C870.956 826.855 867.838 827.591 864.719 828.154L862.467 828.544C852.591 830.276 842.586 831.186 832.537 831.143C830.848 831.143 829.115 831.143 827.253 831.099H824.134C823.441 831.099 821.579 831.099 818.244 831.316L816.771 831.403H815.342C810.534 831.619 804.556 831.836 799.229 832.096C791.952 832.399 784.719 833.828 777.832 836.297C752.079 845.516 720.574 849.848 679.73 849.854C679.677 849.854 679.631 849.818 679.618 849.768V849.768Z" stroke="black" stroke-width="3" stroke-miterlimit="10"/>
<path d="M679.683 813.816C679.626 813.788 679.563 813.773 679.5 813.773C655.016 813.768 630.581 812.125 609.948 810.524L607.782 810.351L605.617 810.048C600.679 809.355 595.741 808.835 590.977 808.315C572.915 806.366 550.435 803.897 525.833 792.376L523.451 791.25L521.198 789.994C473.986 763.529 456.358 723.767 442.151 691.845C440.418 687.904 438.556 683.832 436.78 679.891C431.236 668.802 427.467 657.454 424.392 647.709L424.046 646.582L423.742 645.5C409.839 596.122 414.43 564.763 441.328 525.824L442.541 524.092L443.84 522.446C446.179 519.457 448.345 516.642 450.38 513.956C457.397 504.774 464.154 495.894 474.246 485.153C476.455 482.77 477.798 479.738 477.971 476.49L478.692 465.76C478.731 465.175 478.728 464.589 478.681 464.004L478.448 461.07L478.578 457.129C479.617 425.25 495.643 401.254 504.219 388.39C505.215 386.917 506.255 385.358 506.861 384.405L508.291 382.11L509.633 380.334C511.236 377.735 515.438 368.812 518.599 360.28C519.682 356.685 521.805 349.841 523.667 344.384C524.23 342.651 524.274 342.218 524.707 338.493C526.179 325.066 529.255 311.812 533.932 299.121L534.279 298.125L534.669 297.128C536.012 293.75 536.921 290.978 538.004 287.729C541.382 277.551 546.493 262.218 560.094 245.412L563.341 241.501C563.717 241.048 564.125 240.624 564.564 240.231L567.674 237.442C596.997 210.848 628.919 205.78 650.446 204.351H651.183L652.309 204.307C653.868 204.221 655.427 204.221 656.943 204.221C675.352 204.221 697.355 213.057 708.92 218.384C711.692 219.64 714.681 220.377 717.713 220.463C720.744 220.55 723.776 220.074 726.635 218.991C733.825 216.392 740.842 213.317 747.599 209.765C762.282 201.232 786.711 187.155 816.987 183.603C818.677 183.344 820.149 183.17 821.406 182.997C824.437 182.607 829.245 182.087 835.223 181.481C845.574 180.485 861.384 179.315 878.103 179.315C905.607 179.315 927.871 182.391 946.236 188.758L947.188 189.104L948.098 189.451C991.455 205.823 1008.69 224.621 1025.28 245.759C1030.65 252.559 1034.47 257.453 1042.39 264.513L1044.3 266.246L1046.07 268.065C1047.68 269.668 1049.41 271.14 1051.27 272.44C1058.72 278.2 1071.2 287.859 1082.24 306.051L1083.93 308.823L1085.36 311.725C1101.39 344.427 1096.23 374.92 1093.16 393.155L1092.94 394.411C1090.91 406.958 1087.32 419.246 1082.26 430.929C1082.25 430.954 1082.24 430.982 1082.24 431.01V431.01C1082.24 431.039 1082.23 431.068 1082.22 431.094C1080.85 434.114 1079.9 437.306 1079.38 440.583C1078.95 442.879 1078.69 444.741 1078.43 446.777L1078.21 448.423C1077.04 458.948 1074.75 469.3 1071.37 479.305C1066.26 495.288 1058.55 510.318 1048.67 523.875C1034.03 544.752 1017.1 559.435 996.739 568.791C991.801 571.043 987.557 574.639 984.525 579.143C981.493 583.648 979.76 588.932 979.5 594.346C979.414 596.555 979.37 598.418 979.414 599.414C980.41 615.137 981.536 632.939 978.071 651.26C972.472 681.409 959.764 701.75 950.124 716.713C950.014 716.884 949.915 717.03 949.796 717.194C946.825 721.274 904.223 779.038 865.369 790.903L861.038 792.246L856.36 793.069C848.52 794.455 840.55 795.148 832.58 795.148C831.064 795.148 829.505 795.148 827.859 795.105H824.178C822.618 795.105 820.019 795.105 816.035 795.365L815.038 795.451H814.085C798.666 796.014 784.069 796.534 780.041 797.314C777.875 797.66 775.753 798.267 773.76 799.176C750.952 809.174 721.095 813.852 679.867 813.859C679.804 813.86 679.74 813.845 679.683 813.816V813.816Z" stroke="black" stroke-width="3" stroke-miterlimit="10"/>
<path d="M679.596 777.846C679.596 777.857 679.587 777.867 679.575 777.867C656.279 777.866 632.725 776.264 612.72 774.705L611.637 774.619L610.554 774.445C605.097 773.709 599.899 773.146 594.875 772.583C577.853 770.72 560.267 768.815 541.079 759.805L539.867 759.242L538.74 758.636C501.924 737.975 488.237 707.136 474.983 677.25C473.077 673.005 471.128 668.63 469.135 664.256C464.631 655.376 461.469 645.847 458.61 636.838L458.437 636.275L458.263 635.712C447.218 596.383 450.034 576.329 470.824 546.183L471.431 545.273L472.081 544.45C474.506 541.332 476.758 538.43 478.881 535.614C488.884 522.494 497.544 511.148 516.895 493.268C516.905 493.259 516.918 493.254 516.931 493.254V493.254C516.946 493.254 516.959 493.248 516.969 493.238C518.39 491.812 519.381 490.085 519.812 488.186C520.289 486.28 520.159 484.288 519.509 482.425L516.001 472.463C515.308 469.301 514.788 466.139 514.528 462.934V462.847L514.311 460.162L514.398 458.17C515.091 436.556 526.483 419.491 534.019 408.186C535.189 406.367 536.315 404.764 537.181 403.335L537.917 402.165L538.74 401.082C542.725 395.711 549.222 380.768 552.644 371.542C553.554 368.684 555.849 361.061 557.755 355.516C559.098 351.358 560.007 347.027 560.397 342.652C561.523 331.824 563.992 321.212 567.76 311.033L567.934 310.514L568.15 310.037C569.796 305.792 570.966 302.284 572.092 298.862C575.124 289.81 578.502 279.544 587.988 267.893L589.894 265.597L591.756 263.908C612.59 244.98 635.417 241.169 653.002 239.999H653.955C654.951 239.999 655.947 239.912 656.9 239.912C674.052 239.912 687.176 246.929 695.926 251.607L697.962 252.69L698.265 252.863C700.647 254.163 702.769 255.289 704.718 256.242C710.133 258.97 716.37 259.577 722.217 258.061C734.128 254.856 752.753 247.795 765.271 240.909L765.531 240.735C778.698 233.112 798.536 221.591 821.795 219.035C823.268 218.819 824.654 218.645 825.997 218.472C828.682 218.126 833.187 217.563 838.688 217.086C848.26 216.177 862.857 215.094 878.146 215.094C901.579 215.094 919.987 217.519 934.541 222.544L935.017 222.717L935.494 222.89C970.275 236.014 982.966 249.788 997.086 267.806C1002.85 275.126 1008.26 282.057 1018.57 291.196L1019.52 292.105L1020.43 293.015C1023.2 295.83 1026.24 298.429 1029.4 300.768C1035.59 305.533 1044.04 312.116 1051.66 324.634L1052.48 326.02L1053.22 327.492C1064.14 349.799 1060.5 371.369 1057.85 387.135L1057.64 388.391C1056.04 398.31 1053.22 408.012 1049.15 417.238C1046.81 422.566 1045.12 428.11 1044.17 433.871C1043.52 437.206 1043.17 439.805 1042.87 442.187L1042.65 443.876C1041.79 452.019 1040.01 460.032 1037.41 467.785C1033.43 480.346 1027.41 492.214 1019.57 502.826C1006.36 521.797 991.715 533.449 972.267 539.642C962.955 542.588 954.942 548.652 949.571 556.838L948.011 559.22L946.322 561.169C941.384 566.8 942.771 588.587 943.637 601.581C944.546 615.874 945.499 630.601 942.814 644.505C938.456 668.149 928.339 684.186 919.269 698.224C919.199 698.333 919.132 698.434 919.057 698.54C916.957 701.535 884.339 747.504 854.8 756.47L852.591 757.163L850.252 757.553C844.448 758.593 838.558 759.112 832.624 759.069H824.221C822.142 759.069 818.85 759.069 813.782 759.416H812.829C792.342 760.152 779.998 760.585 773.197 761.928C768.606 762.751 764.102 764.093 759.813 765.913C741.539 774.011 716.034 777.822 679.618 777.824C679.606 777.824 679.596 777.834 679.596 777.846V777.846Z" stroke="black" stroke-width="3" stroke-miterlimit="10"/>
<path d="M679.662 738.818C679.62 738.859 679.564 738.883 679.505 738.883C657.66 738.878 635.13 737.364 615.926 735.851C609.948 735.028 604.447 734.421 599.12 733.858C584.06 732.214 571.076 730.785 557.835 724.649C557.811 724.638 557.785 724.632 557.759 724.632V724.632C557.728 724.632 557.697 724.624 557.67 724.609C532.406 710.359 522.838 688.84 510.716 661.568C508.724 657.063 506.688 652.515 504.609 647.967L504.003 646.711C500.764 640.363 498.214 632.593 495.881 625.206C495.867 625.163 495.86 625.118 495.86 625.073V625.073C495.86 625.032 495.854 624.99 495.843 624.951C487.46 595.201 489.718 587.662 503.007 568.444L503.18 568.184C505.519 565.195 507.815 562.163 510.024 559.261C519.596 546.7 526.569 537.561 543.462 521.968L544.891 520.669L545.541 519.932C551.605 513.609 555.849 505.812 557.885 497.279C560.094 488.01 559.574 478.395 556.369 469.385L554.156 463.051C553.957 462.481 553.793 461.899 553.713 461.3C553.66 460.906 553.622 460.511 553.597 460.116V459.337C553.987 448.811 560.96 438.33 566.591 429.883L567.804 428.021C568.714 426.678 569.536 425.379 570.273 424.253C579.109 412.211 587.728 389.515 589.374 385.097L589.721 384.231L590.89 380.463C591.886 377.171 593.446 372.19 594.788 368.291L595.005 367.642C597.257 360.798 598.687 353.695 599.38 346.505C600.203 339.011 601.935 331.648 604.534 324.588L604.664 324.242C606.786 318.784 608.172 314.583 609.299 311.204C611.701 304.038 613.311 299.169 617.691 293.454C618.095 292.926 618.557 292.439 619.061 292.005C630.379 282.253 642.739 279.912 654.561 279.022C655.218 279.022 656.705 278.991 657.157 278.982C657.246 278.98 657.335 278.979 657.424 278.979C664.521 279.024 671.234 282.596 677.734 286.082L679.856 287.208C682.759 288.768 685.271 290.11 687.653 291.28C696.229 295.568 706.148 297.95 716.023 297.95C721.568 297.95 727.068 297.214 732.396 295.828C745.867 292.19 767.783 284.22 784.199 275.167L785.239 274.561C796.154 268.237 811.097 259.574 826.17 257.885L827.123 257.799L828.033 257.669C828.812 257.539 829.549 257.452 830.242 257.365L831.195 257.235C833.36 256.976 837.388 256.456 842.283 256.023C855.407 254.81 867.448 254.16 878.233 254.16C896.858 254.16 911.498 255.936 921.72 259.401L921.937 259.488C947.882 269.277 955.072 277.333 966.463 291.93C972.657 299.813 979.674 308.735 992.322 320.04L993.015 320.69C996.913 324.631 1001.33 328.443 1006.01 331.908C1010.82 335.633 1014.63 338.665 1018.35 344.772C1023.72 355.774 1021.69 367.858 1019.52 380.679L1019.31 381.979C1018.22 388.865 1016.27 395.406 1013.59 401.6C1010.04 409.613 1007.44 418.232 1005.97 427.025C1005.19 431.226 1004.71 434.518 1004.36 437.203L1004.06 439.759C1003.5 445 1002.37 450.241 1000.64 455.265L1000.38 456.001C997.692 464.534 993.621 472.504 988.337 479.651L987.73 480.517C977.248 495.547 968.499 499.965 960.616 502.477C942.857 508.108 927.394 519.802 917.129 535.439L916.999 535.612C902.662 552.114 902.965 575.417 904.871 604.091C905.651 616.608 906.387 628.216 904.698 637.096C901.623 653.641 894.519 664.86 886.983 676.554C873.259 696.061 852.784 716.213 843.767 719.058C843.699 719.079 843.633 719.088 843.562 719.088V719.088C843.518 719.088 843.474 719.092 843.431 719.1C839.945 719.742 836.588 720.041 833.23 720.041H824.394C822.229 720.041 818.287 720.041 812.656 720.388H811.054C788.487 721.254 775.97 721.687 766.224 723.55C758.774 724.892 751.497 727.101 744.524 730.047L744.134 730.22C731.37 735.888 709.701 738.747 679.819 738.753C679.76 738.753 679.703 738.776 679.662 738.818V738.818Z" stroke="black" stroke-width="3" stroke-miterlimit="10"/>
<path d="M679.64 699.88C679.611 699.895 679.58 699.902 679.548 699.902C659.379 699.9 638.217 698.515 620.04 697.087C614.106 696.307 608.649 695.701 603.278 695.094C590.794 693.721 582.908 692.788 576.277 690.181C575.737 689.969 575.217 689.704 574.727 689.395C562.684 681.801 557.102 670.083 546.277 645.717C544.198 640.996 542.076 636.274 539.91 631.597L538.697 629.084C536.705 625.143 534.496 618.213 533.066 613.795C531.433 607.921 530.601 604.161 530.18 601.786C529.826 599.787 530.241 597.762 531.317 596.04C532.05 594.866 533.063 593.315 534.452 591.272C536.661 588.413 538.827 585.598 540.906 582.825C549.915 571.044 555.33 563.897 569.753 550.6L572.612 547.958L574.128 546.269C584.653 535.094 592.103 521.277 595.655 506.247C598.961 492.408 598.855 478.09 595.397 464.386C594.56 461.065 594.911 457.516 596.777 454.644C597.515 453.51 598.231 452.433 598.844 451.522C598.855 451.506 598.863 451.493 598.874 451.478C599.09 451.153 601.747 447.166 602.412 446.128C613.327 430.708 622.336 407.882 625.758 398.613L626.451 396.794L628.14 391.423C629.049 388.521 630.306 384.319 631.475 381.027L631.822 380.075C635.027 370.286 637.062 360.41 638.015 350.491C638.492 346.29 639.488 342.132 640.917 338.147C643.3 331.996 644.902 327.102 646.115 323.55V323.55C646.963 321.093 648.823 319.068 651.383 318.612C651.571 318.578 651.765 318.545 651.965 318.513C653.795 318.215 655.665 318.562 657.305 319.427C657.976 319.78 658.631 320.13 659.196 320.432L661.405 321.601C664.523 323.29 667.469 324.85 670.241 326.192C684.058 333.123 699.911 336.848 715.807 336.848C724.729 336.848 733.609 335.678 742.228 333.383C758.471 329.008 783.463 319.869 802.824 309.214L804.297 308.391C812.093 303.886 823.355 297.346 830.242 296.566L832.104 296.349L836.046 295.786C837.821 295.57 841.33 295.137 845.618 294.747C857.616 293.621 868.488 293.058 878.06 293.058C896.641 293.058 905.304 295.05 908.509 296.09C925.012 302.37 927.091 305.055 935.624 315.927C942.381 324.503 950.697 335.115 965.467 348.456C970.611 353.599 976.229 358.484 982.192 362.895C982.217 362.913 982.242 362.935 982.265 362.956V362.956C982.404 363.078 982.479 363.246 982.461 363.43C982.142 366.575 981.433 370.948 980.887 374.141L980.67 375.527C980.064 379.382 979.067 382.717 977.681 385.922C972.917 396.664 969.408 408.228 967.373 420.14C966.42 425.207 965.857 429.236 965.51 432.181L965.077 435.603C964.817 438.028 964.297 440.41 963.518 442.706L963.041 444.179C961.655 448.597 959.533 452.755 956.761 456.48L955.548 458.169C951.173 464.449 949.484 464.969 948.618 465.272C923.063 473.372 900.713 490.004 885.553 512.181C861.514 541.764 863.983 579.144 865.802 606.605C866.322 615.051 867.015 625.663 866.235 629.734C864.589 638.613 860.864 644.807 854.497 654.726C847.805 664.138 839.989 672.634 834.275 678.062C832.188 680.044 829.395 681.061 826.517 681.061H824.264C821.969 681.061 817.334 681.061 810.88 681.451H809.927C784.979 682.36 771.465 682.88 758.861 685.262C748.898 687.038 738.72 690.113 729.061 694.271L728.411 694.575C726.29 695.484 714.778 699.855 679.733 699.859C679.701 699.859 679.668 699.866 679.64 699.88V699.88Z" stroke="black" stroke-width="3" stroke-miterlimit="10"/>
<path d="M679.64 660.897C679.611 660.911 679.58 660.918 679.548 660.918C660.851 660.916 641.119 659.618 624.112 658.32C618.264 657.54 612.807 656.934 607.523 656.371C605.123 656.104 602.035 655.772 599.125 655.404C595.902 654.997 593.054 653.17 591.532 650.3C588.458 644.502 584.654 635.909 581.967 629.906C579.802 625.011 577.593 620.117 575.34 615.223L573.521 611.454C573.231 610.791 572.663 609.295 571.932 607.042C571.87 606.853 571.932 606.64 572.029 606.467V606.467C572.045 606.438 572.059 606.416 572.079 606.39C580.547 595.286 584.407 590.217 596.304 579.229L600.592 575.287L603.061 572.515C618.048 556.446 628.616 536.652 633.727 515.255C637.171 500.816 638.034 485.953 636.348 471.337C636 468.322 636.685 465.274 638.313 462.712C649.519 445.069 658.096 423.879 662.444 412.082L663.484 409.31L665.693 402.25C666.472 399.738 667.512 396.359 668.422 393.717L668.811 392.504C669.867 389.263 670.828 386.021 671.694 382.78C673.534 375.889 680.613 371.603 687.603 373.019C696.86 374.894 706.367 375.872 715.893 375.872C728.195 375.872 740.452 374.269 752.32 371.107C769.516 366.473 797.93 356.467 821.665 343.43L823.961 342.13C826.576 340.615 831.941 337.508 835.564 335.768C836.507 335.315 837.524 335.039 838.56 334.893L841.287 334.507C842.889 334.291 845.748 333.944 849.17 333.641C860.041 332.601 869.744 332.125 878.103 332.125C887.279 332.125 892.689 332.723 895.275 333.099C896.1 333.219 896.904 333.448 897.677 333.761C898.193 333.97 898.65 334.158 899.053 334.328C900.479 334.928 901.717 335.882 902.684 337.089C903.434 338.025 904.26 339.088 905.001 340.051C912.148 349.147 921.893 361.535 938.699 376.781V376.781C939.004 377.01 939.078 377.46 938.94 377.814C934.511 389.158 931.212 401.122 929.083 413.338C927.957 419.402 927.308 424.21 926.918 427.285L926.511 430.661C926.493 430.807 926.461 430.95 926.415 431.089V431.089C926.212 431.698 925.75 432.186 925.156 432.428C896.787 443.962 871.975 463.687 854.367 488.964C821.795 530.155 825.044 579.576 826.993 609.245C827.17 612.223 827.493 617.492 827.628 621.326C827.681 622.845 827.42 624.363 826.697 625.701C825.817 627.328 824.435 629.571 822.315 632.895C820.961 634.781 819.538 636.614 818.109 638.355C816.009 640.913 812.858 642.321 809.555 642.535C809.463 642.541 809.37 642.547 809.278 642.553H808.931C781.86 643.55 767.134 644.07 751.627 647.015C739.412 649.213 726.948 652.937 714.882 657.986C714.286 658.235 713.679 658.443 713.047 658.576C709.694 659.286 700.005 660.873 679.732 660.875C679.701 660.875 679.668 660.883 679.64 660.897V660.897Z" stroke="black" stroke-width="3" stroke-miterlimit="10"/>
<path d="M679.661 621.959C679.618 621.944 679.574 621.937 679.528 621.937C662.395 621.934 644.015 620.723 628.14 619.511C626.132 619.246 624.165 619 622.225 618.775C620.55 618.58 618.875 617.037 618.19 615.497V615.497C617.434 613.795 618.023 612.339 619.368 611.05C620.387 610.074 621.501 609.03 622.726 607.903L628.443 602.619L631.908 598.721C651.269 577.8 665 552.072 671.627 524.308C675.155 509.553 676.605 494.574 676.011 479.58C675.917 477.224 676.464 474.885 677.612 472.827C686.926 456.128 694.152 438.679 699.001 425.64L700.387 421.915V421.915C701.758 417.522 705.966 414.677 710.565 414.816C712.336 414.87 714.111 414.898 715.893 414.898C731.573 414.898 747.209 412.862 762.326 408.834C782.596 403.377 813.696 392.332 840.464 377.648L843.149 376.132C844.502 375.335 845.666 374.673 846.671 374.108C848.062 373.326 849.595 372.828 851.183 372.675C851.66 372.629 852.158 372.583 852.678 372.537C862.467 371.628 870.956 371.151 878.146 371.151V371.151C879.27 371.151 880.332 371.659 881.042 372.529C883.737 375.827 886.769 379.413 890.233 383.288C892.977 386.358 894.032 390.583 893.112 394.596C892.706 396.366 892.323 398.141 891.962 399.923C891.233 403.518 888.987 406.625 885.811 408.46C861.067 422.755 839.684 442.222 823.051 465.792C789.153 509.309 785.949 558.192 787.053 592.311C787.269 598.995 782.157 604.663 775.484 605.095C764.182 605.825 754.508 606.872 744.35 608.813C731.062 611.195 717.533 615.068 704.305 620.316C703.342 620.699 702.339 620.967 701.308 621.077C697.644 621.468 690.774 621.978 679.796 621.98C679.75 621.98 679.705 621.973 679.661 621.959V621.959Z" stroke="black" stroke-width="3" stroke-miterlimit="10"/>
<path d="M690.856 582.654C690.849 582.661 690.837 582.652 690.842 582.643C699.145 567.109 705.459 550.537 709.57 533.317C713.105 518.566 714.963 503.509 715.143 488.398C715.167 486.438 715.639 484.507 716.537 482.763C720.507 475.053 724.04 467.414 727.106 460.29C728.924 456.067 732.93 453.204 737.505 452.752C749.255 451.591 760.896 449.467 772.331 446.43C775.877 445.495 782.261 443.684 790.57 440.965C791.452 440.676 792.2 441.697 791.649 442.445V442.445C761.21 481.89 751.374 524.976 748.654 558.607C748.189 564.357 743.887 569.074 738.221 570.154C737.81 570.232 737.399 570.312 736.987 570.393C722.939 572.905 708.556 576.881 694.373 582.198C693.881 582.383 693.363 582.491 692.838 582.528C692.232 582.571 691.577 582.621 690.861 582.651C690.859 582.651 690.857 582.652 690.856 582.654V582.654Z" stroke="black" stroke-width="3" stroke-miterlimit="10"/>
</g>
</g>
<defs>
<clipPath id="clip0_666_5117">
<rect width="1512" height="982" fill="white"/>
</clipPath>
<clipPath id="clip1_666_5117">
<rect width="1831" height="1784" fill="white" transform="translate(-159 -401)"/>
</clipPath>
</defs>
</svg>
