<svg width="32" height="32" viewBox="0 0 32 32" fill="none" xmlns="http://www.w3.org/2000/svg">
<mask id="path-1-inside-1_9_5063" fill="white">
<path d="M0 0H32V30H0V0Z"/>
</mask>
<path d="M32.5 30V29.0625H31.5V30H32.5ZM32.5 27.1875V25.3125H31.5V27.1875H32.5ZM32.5 23.4375V21.5625H31.5V23.4375H32.5ZM32.5 19.6875V17.8125H31.5V19.6875H32.5ZM32.5 15.9375V14.0625H31.5V15.9375H32.5ZM32.5 12.1875V10.3125H31.5V12.1875H32.5ZM32.5 8.4375V6.5625H31.5V8.4375H32.5ZM32.5 4.6875V2.8125H31.5V4.6875H32.5ZM32.5 0.9375V0H31.5V0.9375H32.5ZM33 30V29.0625H31V30H33ZM33 27.1875V25.3125H31V27.1875H33ZM33 23.4375V21.5625H31V23.4375H33ZM33 19.6875V17.8125H31V19.6875H33ZM33 15.9375V14.0625H31V15.9375H33ZM33 12.1875V10.3125H31V12.1875H33ZM33 8.4375V6.5625H31V8.4375H33ZM33 4.6875V2.8125H31V4.6875H33ZM33 0.9375V0H31V0.9375H33Z" fill="#666666" mask="url(#path-1-inside-1_9_5063)"/>
<mask id="path-3-inside-2_9_5063" fill="white">
<path d="M0 0H32V32H0V0Z"/>
</mask>
<path d="M32 31H0V33H32V31Z" fill="#666666" mask="url(#path-3-inside-2_9_5063)"/>
</svg>
