<svg width="121" height="32" viewBox="0 0 121 32" fill="none" xmlns="http://www.w3.org/2000/svg">
<g clip-path="url(#clip0_639_1841)">
<path fill-rule="evenodd" clip-rule="evenodd" d="M14.5948 17.4284C14.5948 17.4284 14.7832 9.43582 17.7435 6.48015C20.1253 4.10206 23.806 3.92133 25.9645 6.07648C28.1231 8.23162 27.942 11.9065 25.5602 14.2847C22.5999 17.2403 14.5948 17.4284 14.5948 17.4284ZM12.8773 17.4284C12.8773 17.4284 12.6889 9.43582 9.72856 6.48016C7.34673 4.10207 3.66603 3.92134 1.50748 6.07648C-0.651056 8.23162 -0.470036 11.9065 1.9118 14.2847C4.87212 17.2403 12.8773 17.4284 12.8773 17.4284ZM9.72814 30.0915C12.6885 27.1359 12.8769 19.1433 12.8769 19.1433C12.8769 19.1433 4.87169 19.3314 1.91138 22.2871C-0.470456 24.6651 -0.651476 28.3401 1.50707 30.4952C3.6656 32.6504 7.3463 32.4696 9.72814 30.0915Z" fill="url(#paint0_linear_639_1841)"/>
<path d="M17.7444 30.0913C14.7841 27.1356 14.5957 19.1431 14.5957 19.1431C14.5957 19.1431 22.6009 19.3312 25.5612 22.2868C27.9431 24.6649 28.1241 28.3399 25.9656 30.495C23.807 32.6502 20.1263 32.4694 17.7444 30.0913Z" fill="#FF571E"/>
<path d="M25.5612 22.2868C27.9431 24.6649 28.1241 28.3399 25.9656 30.495L14.5957 19.1431C14.5957 19.1431 22.6009 19.3312 25.5612 22.2868Z" fill="#FAE02F"/>
<path d="M41.2627 12.8184V14.0664H45.3652V17.4584H41.2627V29.7144H37.7051V17.4584H34.6924V14.0664H37.7051V12.6584C37.7051 8.78635 40.1409 6.61035 43.6024 6.61035C44.2754 6.61035 45.0126 6.73835 45.5254 6.96235L45.3331 10.1304C45.0447 10.0344 44.4998 9.93835 44.1152 9.93835C42.5447 9.93835 41.2627 11.0264 41.2627 12.8184ZM54.797 13.7464C55.5342 13.7464 56.1431 13.8424 56.5918 14.0024L56.3675 17.3624C55.8226 17.1704 55.1175 17.0424 54.5086 17.0424C53.3227 17.0424 51.624 18.0024 50.7907 19.7304V29.7144H47.2331V14.0664H50.7907V16.2104C51.592 14.7064 53.3548 13.7464 54.797 13.7464ZM73.3564 14.0664V29.7144H69.7667V26.9624C68.645 28.9144 66.7219 30.0344 64.222 30.0344C60.0234 30.0344 56.7222 26.3864 56.7222 21.8744C56.7222 17.3624 60.0234 13.7464 64.222 13.7464C66.7219 13.7464 68.645 14.8664 69.7667 16.8184V14.0664H73.3564ZM60.2478 21.8744C60.2478 24.5304 62.331 26.6424 64.9912 26.6424C67.7155 26.6424 69.7667 24.5944 69.7667 21.8744C69.7667 19.1864 67.7155 17.1384 64.9912 17.1384C62.331 17.1384 60.2478 19.2504 60.2478 21.8744ZM94.2936 13.7464C98.0756 13.7464 100.704 16.2744 100.704 20.1464V29.7144H97.082V20.8184C97.082 18.4824 95.768 17.0424 93.6526 17.0424C92.2424 17.0424 90.8001 18.0024 90.095 19.1864L90.1912 19.7304V29.7144H86.6015V20.8184C86.6015 18.4824 85.2234 17.0424 83.2363 17.0424C81.6337 17.0424 80.3197 17.9704 79.6787 19.2184V29.7144H76.1211V14.0664H79.6787V16.1144C80.4479 15.0584 82.0183 13.7464 84.4542 13.7464C86.6015 13.7464 88.172 14.5464 89.1656 16.2744C90.2232 15.0264 92.0181 13.7464 94.2936 13.7464ZM118.613 21.2024C118.613 21.6184 118.581 22.2584 118.485 22.7384H106.562C106.947 25.2664 108.678 26.8024 111.209 26.8024C112.972 26.8024 114.575 26.0344 115.312 24.8184L118.164 26.6424C117.01 28.7544 114.382 30.0344 111.145 30.0344C106.626 30.0344 103.005 26.4824 103.005 21.8104C103.005 17.2664 106.562 13.7464 111.081 13.7464C115.312 13.7464 118.613 17.0104 118.613 21.2024ZM106.69 20.0184H114.863C114.671 18.0664 113.036 16.6904 110.889 16.6904C108.742 16.6904 107.235 17.9704 106.69 20.0184Z" fill="#8F8F8F"/>
</g>
<defs>
<linearGradient id="paint0_linear_639_1841" x1="4" y1="27.5" x2="27" y2="5" gradientUnits="userSpaceOnUse">
<stop stop-color="#FE7822"/>
<stop offset="1" stop-color="#FCB72A"/>
</linearGradient>
<clipPath id="clip0_639_1841">
<rect width="120.189" height="32" fill="white"/>
</clipPath>
</defs>
</svg>
