<svg width="32" height="32" viewBox="0 0 32 32" fill="none" xmlns="http://www.w3.org/2000/svg">
<path d="M16 32C24.8366 32 32 24.8366 32 16C32 7.16344 24.8366 0 16 0C7.16344 0 0 7.16344 0 16C0 24.8366 7.16344 32 16 32Z" fill="#F9F9F9"/>
<path fill-rule="evenodd" clip-rule="evenodd" d="M16.5628 15.4373C16.5628 15.4373 16.6862 10.1923 18.6258 8.25267C20.1864 6.69207 22.598 6.57347 24.0122 7.98776C25.4265 9.40205 25.3079 11.8136 23.7473 13.3743C21.8078 15.3139 16.5628 15.4373 16.5628 15.4373ZM15.4375 15.4373C15.4375 15.4373 15.3141 10.1923 13.3745 8.25267C11.8139 6.69208 9.40229 6.57348 7.98802 7.98776C6.57375 9.40205 6.69235 11.8136 8.25293 13.3743C10.1925 15.3139 15.4375 15.4373 15.4375 15.4373ZM13.3742 23.7473C15.3138 21.8077 15.4372 16.5627 15.4372 16.5627C15.4372 16.5627 10.1922 16.6861 8.25265 18.6258C6.69208 20.1863 6.57347 22.598 7.98775 24.0122C9.40202 25.4266 11.8136 25.3079 13.3742 23.7473Z" fill="url(#paint0_linear_644_1880)"/>
<path d="M18.9561 23.8123C17.117 21.9732 17 17 17 17C17 17 21.9732 17.117 23.8122 18.9561C25.292 20.4358 25.4044 22.7225 24.0635 24.0634C22.7225 25.4044 20.4359 25.2919 18.9561 23.8123Z" fill="#FF571E"/>
<path d="M23.8122 18.9386C25.292 20.405 25.4044 22.6711 24.0635 24L17 17C17 17 21.9732 17.116 23.8122 18.9386Z" fill="#FAE02F"/>
<defs>
<linearGradient id="paint0_linear_644_1880" x1="9.62111" y1="22.0467" x2="24.714" y2="7.30525" gradientUnits="userSpaceOnUse">
<stop stop-color="#FE7822"/>
<stop offset="1" stop-color="#FCB72A"/>
</linearGradient>
</defs>
</svg>
