<svg width="128" height="32" viewBox="0 0 128 32" fill="none" xmlns="http://www.w3.org/2000/svg">
<path fill-rule="evenodd" clip-rule="evenodd" d="M32.0087 16C32.0087 24.8378 24.832 32 15.9767 32C7.12145 32 0.683636 25.5535 0 17.344H21.1927V14.6531H0C0.683636 6.44655 7.57527 0 15.9767 0C24.832 0 32.0087 7.16218 32.0087 16ZM91.4473 29.1025C97.0036 29.1025 100.646 26.1091 100.646 21.6C100.646 17.4167 97.9026 15.4327 93.7571 14.7491L90.0771 14.1353C87.264 13.6669 85.3876 12.4393 85.3876 9.73673C85.3876 7.03418 87.4793 4.90473 91.4473 4.90473C95.4153 4.90473 97.2916 6.85091 97.5069 9.62909H100.285C100.07 5.952 97.2538 2.66764 91.4822 2.66764C85.7106 2.66764 82.6444 5.87636 82.6444 9.84436C82.6444 14.0625 85.4953 16.0116 89.3906 16.6604L93.1055 17.2364C96.2065 17.7775 97.9404 19.04 97.9404 21.7076C97.9404 24.8465 95.3804 26.8655 91.4822 26.8655C87.584 26.8655 84.9164 24.9193 84.7011 21.6H81.9607C82.176 25.9287 85.4953 29.1025 91.4473 29.1025ZM50.4931 28.5964H40.3927V3.20873H50.1324C54.4262 3.20873 57.4196 5.73382 57.4196 9.77164C57.4196 12.6924 55.7615 14.6415 53.0909 15.2902V15.3978C56.2647 16.0116 58.2138 18.176 58.2138 21.5651C58.2138 25.9287 55.0022 28.5964 50.4931 28.5964ZM49.7716 14.3505C52.8378 14.3505 54.7142 12.6924 54.7142 10.0945V9.73382C54.7142 7.136 52.8378 5.51564 49.7716 5.51564H43.0982V14.3505H49.7716ZM50.0975 26.2865C53.4516 26.2865 55.5084 24.448 55.5084 21.6349V21.2742C55.5084 18.3535 53.4167 16.5847 50.0596 16.5847H43.0982V26.2865H50.0975ZM80.064 28.5935H77.1782L75.0138 21.7047H64.9135L62.7491 28.5935H60.0087L68.3433 3.20582H71.6247L80.0669 28.5935H80.064ZM70.1062 5.98109H69.8909L65.6349 19.4327H74.3302L70.1091 5.98109H70.1062ZM104.713 28.5935V3.20873H121.018V5.55345H107.418V14.2807H119.936V16.5876H107.418V26.2516H121.018V28.5964H104.713V28.5935Z" fill="white"/>
</svg>
