<svg width="518" height="602" viewBox="0 0 518 602" fill="none" xmlns="http://www.w3.org/2000/svg">
<path d="M9.1 0H16.38V9.12001H9.12V16.41H16.4V9.12001H25.52V16.41H41.93V25.53H49.21V16.41H58.33V25.53H65.59V32.81H58.31V25.53H49.21V32.81H16.4V41.93H9.12V32.81H0V9.12001H9.1V0Z" fill="white"/>
<path d="M74.71 32.81H82V41.93H98.4V49.21H82V41.93H74.71V32.81Z" fill="white"/>
<path d="M114.9 49.33H107.61V58.45H114.9V49.33Z" fill="white"/>
<path d="M517.13 9.1V16.38H508.01V9.12H500.72V16.4H508.01V25.52H500.72V41.93H491.61V49.21H500.72V58.33H491.61V65.59H484.32V58.31H491.61V49.21H484.32V16.4H475.2V9.12H484.32V0H508.01V9.1H517.13Z" fill="white"/>
<path d="M484.32 74.71V82H475.2V98.4H467.92V82H475.2V74.71H484.32Z" fill="white"/>
<path d="M467.81 107.61H458.69V114.9H467.81V107.61Z" fill="white"/>
<path d="M442.29 156.75H435V164.04H442.29V156.75Z" fill="white"/>
<path d="M442.29 173.16H435V180.45H442.29V173.16Z" fill="white"/>
<path d="M434.9 590.67H425.57V601.53H434.9V590.67Z" fill="white"/>
<path d="M414.71 590.67H405.38V601.53H414.71V590.67Z" fill="white"/>
<path d="M517.2 550.27H506.34V559.6H517.2V550.27Z" fill="white"/>
<path d="M434.9 539.44H425.57V550.3H434.9V539.44Z" fill="white"/>
<path d="M465.94 509.9H455.08V519.23H465.94V509.9Z" fill="white"/>
<path d="M354.16 499.07H344.83V509.93H354.16V499.07Z" fill="white"/>
<path d="M324.64 458.67H313.78V469.53H324.64V458.67Z" fill="white"/>
<path d="M405.38 449.35H394.52V458.68H405.38V449.35Z" fill="white"/>
<path d="M304.46 429.16H293.6V438.49H304.46V429.16Z" fill="white"/>
<path d="M333.94 418.3H324.61V429.16H333.94V418.3Z" fill="white"/>
<path d="M243.87 418.3H233.01V429.16H243.87V418.3Z" fill="white"/>
<path d="M455.07 408.98H445.75V418.31H455.07V408.98Z" fill="white"/>
<path d="M394.53 408.98H385.2V418.31H394.53V408.98Z" fill="white"/>
<path d="M192.64 408.98H181.78V418.31H192.64V408.98Z" fill="white"/>
<path d="M333.94 388.79H324.61V398.12H333.94V388.79Z" fill="white"/>
<path d="M101.01 388.79H91.6799V398.12H101.01V388.79Z" fill="white"/>
<path d="M40.46 388.79H31.13V398.12H40.46V388.79Z" fill="white"/>
<path d="M455.07 377.93H445.75V388.79H455.07V377.93Z" fill="white"/>
<path d="M253.2 377.93H243.87V388.79H253.2V377.93Z" fill="white"/>
<path d="M233.01 377.93H222.15V388.79H233.01V377.93Z" fill="white"/>
<path d="M201.94 377.93H192.61V388.79H201.94V377.93Z" fill="white"/>
<path d="M161.57 377.93H152.24V388.79H161.57V377.93Z" fill="white"/>
<path d="M497.01 368.61H486.15V377.94H497.01V368.61Z" fill="white"/>
<path d="M385.2 368.61H374.34V377.94H385.2V368.61Z" fill="white"/>
<path d="M354.16 368.61H344.83V377.94H354.16V368.61Z" fill="white"/>
<path d="M304.46 368.61H293.6V377.94H304.46V368.61Z" fill="white"/>
<path d="M273.39 368.61H264.06V377.94H273.39V368.61Z" fill="white"/>
<path d="M172.46 368.61H161.6V377.94H172.46V368.61Z" fill="white"/>
<path d="M101.01 368.61H91.6799V377.94H101.01V368.61Z" fill="white"/>
<path d="M60.6501 368.61H51.3201V377.94H60.6501V368.61Z" fill="white"/>
<path d="M40.46 368.61H31.13V377.94H40.46V368.61Z" fill="white"/>
<path d="M201.94 357.75H192.61V368.61H201.94V357.75Z" fill="white"/>
<path d="M141.39 357.75H132.06V368.61H141.39V357.75Z" fill="white"/>
<path d="M111.87 357.75H101.01V368.61H111.87V357.75Z" fill="white"/>
<path d="M506.33 346.86H497.01V357.75H506.33V346.86Z" fill="white"/>
<path d="M455.07 346.86H445.75V357.75H455.07V346.86Z" fill="white"/>
<path d="M385.2 346.86H374.34V357.75H385.2V346.86Z" fill="white"/>
<path d="M324.64 346.86H313.78V357.75H324.64V346.86Z" fill="white"/>
<path d="M304.46 346.86H293.6V357.75H304.46V346.86Z" fill="white"/>
<path d="M273.39 346.86H264.06V357.75H273.39V346.86Z" fill="white"/>
<path d="M233.01 346.86H222.15V357.75H233.01V346.86Z" fill="white"/>
<path d="M212.83 346.86H201.97V357.75H212.83V346.86Z" fill="white"/>
<path d="M192.64 346.86H181.78V357.75H192.64V346.86Z" fill="white"/>
<path d="M121.2 346.86H111.87V357.75H121.2V346.86Z" fill="white"/>
<path d="M71.5 346.86H60.64V357.75H71.5V346.86Z" fill="white"/>
<path d="M20.27 346.86H10.9399V357.75H20.27V346.86Z" fill="white"/>
<path d="M405.38 337.53H394.52V346.86H405.38V337.53Z" fill="white"/>
<path d="M344.83 337.53H333.97V346.86H344.83V337.53Z" fill="white"/>
<path d="M284.27 337.53H273.41V346.86H284.27V337.53Z" fill="white"/>
<path d="M243.87 337.53H233.01V346.86H243.87V337.53Z" fill="white"/>
<path d="M152.27 337.53H132.09V346.86H152.27V337.53Z" fill="white"/>
<path d="M101.01 337.53H91.6799V346.86H101.01V337.53Z" fill="white"/>
<path d="M517.2 326.67H506.34V337.53H517.2V326.67Z" fill="white"/>
<path d="M455.07 326.67H445.75V337.53H455.07V326.67Z" fill="white"/>
<path d="M434.9 326.67H425.57V337.53H434.9V326.67Z" fill="white"/>
<path d="M414.71 326.67H405.38V337.53H414.71V326.67Z" fill="white"/>
<path d="M354.16 326.67H344.83V337.53H354.16V326.67Z" fill="white"/>
<path d="M324.64 326.67H313.78V337.53H324.64V326.67Z" fill="white"/>
<path d="M304.46 326.67H293.6V337.53H304.46V326.67Z" fill="white"/>
<path d="M264.09 326.67H253.2V337.53H264.09V326.67Z" fill="white"/>
<path d="M233.01 326.67H222.15V337.53H233.01V326.67Z" fill="white"/>
<path d="M212.83 326.67H201.97V337.53H212.83V326.67Z" fill="white"/>
<path d="M192.64 326.67H181.78V337.53H192.64V326.67Z" fill="white"/>
<path d="M172.46 326.67H152.27V337.53H172.46V326.67Z" fill="white"/>
<path d="M121.2 326.67H111.87V337.53H121.2V326.67Z" fill="white"/>
<path d="M80.83 326.67H71.5V337.53H80.83V326.67Z" fill="white"/>
<path d="M40.46 326.67H31.13V337.53H40.46V326.67Z" fill="white"/>
<path d="M486.16 317.35H476.83V326.68H486.16V317.35Z" fill="white"/>
<path d="M465.94 317.35H455.08V326.68H465.94V317.35Z" fill="white"/>
<path d="M385.2 317.35H354.15V326.68H385.2V317.35Z" fill="white"/>
<path d="M333.94 317.35H324.61V326.68H333.94V317.35Z" fill="white"/>
<path d="M313.76 317.35H304.43V326.68H313.76V317.35Z" fill="white"/>
<path d="M284.27 317.35H273.41V326.68H284.27V317.35Z" fill="white"/>
<path d="M253.2 317.35H233.01V326.68H253.2V317.35Z" fill="white"/>
<path d="M181.79 317.35H172.46V326.68H181.79V317.35Z" fill="white"/>
<path d="M141.39 317.35H132.06V326.68H141.39V317.35Z" fill="white"/>
<path d="M91.6901 317.35H80.8301V326.68H91.6901V317.35Z" fill="white"/>
<path d="M60.65 317.35H40.46V326.68H60.65V317.35Z" fill="white"/>
<path d="M20.27 317.35H10.9399V326.68H20.27V317.35Z" fill="white"/>
<path d="M445.75 306.46H434.89V317.35H445.75V306.46Z" fill="white"/>
<path d="M425.57 297.16H414.71V317.34H425.57V297.16Z" fill="white"/>
<path d="M394.53 306.46H385.2V317.35H394.53V306.46Z" fill="white"/>
<path d="M264.09 306.46H253.2V317.35H264.09V306.46Z" fill="white"/>
<path d="M222.16 306.46H212.83V317.35H222.16V306.46Z" fill="white"/>
<path d="M201.94 306.46H192.61V317.35H201.94V306.46Z" fill="white"/>
<path d="M152.27 306.46H141.41V317.35H152.27V306.46Z" fill="white"/>
<path d="M121.2 306.46H111.87V317.35H121.2V306.46Z" fill="white"/>
<path d="M101.01 306.46H91.6799V317.35H101.01V306.46Z" fill="white"/>
<path d="M71.5 306.46H60.64V317.35H71.5V306.46Z" fill="white"/>
<path d="M10.9501 306.46H0.0600586V317.35H10.9501V306.46Z" fill="white"/>
<path d="M506.34 297.16H476.83V306.49H506.34V297.16Z" fill="white"/>
<path d="M465.94 276.98H455.08V306.49H465.94V276.98Z" fill="white"/>
<path d="M405.38 297.16H394.52V306.49H405.38V297.16Z" fill="white"/>
<path d="M354.16 297.16H344.83V306.49H354.16V297.16Z" fill="white"/>
<path fill-rule="evenodd" clip-rule="evenodd" d="M333.94 306.49H313.75V297.16H324.61V286.3H333.94V306.49Z" fill="white"/>
<path d="M304.46 297.16H293.6V306.49H304.46V297.16Z" fill="white"/>
<path fill-rule="evenodd" clip-rule="evenodd" d="M284.27 306.49H273.41V276.98H284.27V266.09H293.6V286.27H284.27V306.49Z" fill="white"/>
<path d="M233.01 297.16H222.15V306.49H233.01V297.16Z" fill="white"/>
<path d="M192.64 297.16H181.78V306.49H192.64V297.16Z" fill="white"/>
<path d="M172.46 297.16H161.6V306.49H172.46V297.16Z" fill="white"/>
<path d="M132.06 297.16H121.2V306.49H132.06V297.16Z" fill="white"/>
<path d="M111.87 297.16H101.01V306.49H111.87V297.16Z" fill="white"/>
<path d="M20.27 297.16H10.9399V306.49H20.27V297.16Z" fill="white"/>
</svg>
