<svg width="96" height="96" viewBox="0 0 96 96" fill="none" xmlns="http://www.w3.org/2000/svg">
<path fill-rule="evenodd" clip-rule="evenodd" d="M47.8869 0.0583496L48.1151 0.0583496C60.1496 0.0863134 71.1441 4.53795 79.5546 11.8715C80.1503 12.3912 79.7732 13.3449 78.9817 13.3449H17.0202C16.229 13.3449 15.8516 12.3912 16.4476 11.8715C24.8579 4.53794 35.8521 0.0863116 47.8869 0.0583496Z" fill="white"/>
<path fill-rule="evenodd" clip-rule="evenodd" d="M29.3279 61.0523C28.9845 60.5636 28.4316 60.2559 27.8334 60.2559H3.0059C2.28666 60.2559 1.76226 60.9373 1.96635 61.6262C7.84454 81.4658 26.2296 95.9415 47.9997 95.9415C69.7695 95.9415 88.155 81.4658 94.0329 61.6262C94.2371 60.9373 93.7128 60.2559 92.9936 60.2559H68.1662C67.568 60.2559 67.0154 60.5636 66.672 61.0523C62.55 66.9228 55.7235 70.7607 47.9999 70.7607C40.2761 70.7607 33.4498 66.9228 29.3279 61.0523Z" fill="white"/>
<path fill-rule="evenodd" clip-rule="evenodd" d="M66.0782 34.1331C66.5168 34.7031 67.1854 35.0606 67.905 35.0606H92.7879C93.514 35.0606 94.0398 34.3684 93.8233 33.6764C91.9429 27.6681 88.9103 22.168 84.9846 17.4342C84.658 17.0401 84.1698 16.8176 83.6574 16.8176H12.3448C11.8326 16.8176 11.3444 17.0401 11.0176 17.4341C7.09175 22.168 4.05949 27.6681 2.17912 33.6764C1.96253 34.3684 2.48818 35.0606 3.21416 35.0606H28.0971C28.817 35.0606 29.4854 34.7031 29.9242 34.1331C34.0906 28.7216 40.6381 25.234 48.0012 25.234C55.3642 25.234 61.9116 28.7216 66.0782 34.1331Z" fill="white"/>
<path fill-rule="evenodd" clip-rule="evenodd" d="M70.0208 56.7885C69.5505 56.7885 69.2313 56.3098 69.3939 55.8692C70.2968 53.4189 70.79 50.7699 70.79 48.0063C70.79 44.9935 70.2037 42.1172 69.1396 39.4853C68.9597 39.0415 69.2799 38.5454 69.7591 38.5454H94.1667C94.6891 38.5454 95.1406 38.9136 95.2338 39.4273C95.7373 42.2111 96 45.0784 96 48.0071C96 50.6921 95.779 53.3257 95.3542 55.891C95.268 56.4119 94.813 56.7885 94.2847 56.7885H70.0208ZM26.6064 55.8692C26.7688 56.3098 26.4494 56.7885 25.9795 56.7885H1.71561C1.18694 56.7885 0.73217 56.4119 0.64588 55.891C0.221019 53.3257 0 50.6921 0 48.0071C0 45.0784 0.26292 42.2111 0.766471 39.4273C0.859397 38.9136 1.31079 38.5454 1.83345 38.5454H26.2412C26.7204 38.5454 27.0402 39.0415 26.8607 39.4853C25.7962 42.1172 25.2102 44.9935 25.2102 48.0063C25.2102 50.7699 25.7033 53.4189 26.6064 55.8692Z" fill="white"/>
</svg>
