<svg width="64" height="64" viewBox="0 0 64 64" fill="none" xmlns="http://www.w3.org/2000/svg">
<rect width="64" height="64" fill="#6CF9D8"/>
<path fill-rule="evenodd" clip-rule="evenodd" d="M13.9031 16.8393L17.0217 13.7207L29.4842 26.1834C28.728 26.5056 28.0194 26.9752 27.4024 27.5922C26.9246 28.07 26.535 28.6028 26.234 29.1702L13.9031 16.8393ZM25.9992 34.8794L13.7188 47.1598L16.8373 50.2784L28.9928 38.1228C28.4208 37.821 27.8838 37.4292 27.4024 36.948C26.789 36.3346 26.3212 35.6308 25.9992 34.8794ZM35.1802 38.1164L47.1678 50.104L50.2864 46.9854L38.167 34.866C37.8448 35.6224 37.375 36.331 36.758 36.948C36.2802 37.4258 35.7474 37.8152 35.1802 38.1164ZM37.933 29.1826L50.102 17.0136L46.9834 13.8951L34.6896 26.189C35.4408 26.5112 36.1448 26.9788 36.758 27.5922C37.2394 28.0736 37.631 28.6106 37.933 29.1826Z" fill="#2D2E33"/>
</svg>
