<svg width="64" height="64" viewBox="0 0 64 64" fill="none" xmlns="http://www.w3.org/2000/svg">
<rect width="64" height="64" fill="#C7F18C"/>
<path d="M50.0179 39.2903H14.0065V43.2405H50.0179V39.2903Z" fill="#040503"/>
<path d="M20.0974 48.8931L18.9306 51.9935H14L17.4557 43.2409L18.4225 43.8614C20.0974 44.9338 20.7922 47.0315 20.0907 48.8864L20.0974 48.8931Z" fill="#040503"/>
<path d="M50.0176 51.9932H44.8936L43.747 49.003C43.0141 47.092 43.7582 44.9336 45.5141 43.8858L46.5798 43.2474L50.0154 52V51.9932H50.0176Z" fill="#040503"/>
<path d="M46.5803 43.2427H41.5868L40.0916 39.2924L31.9256 17.6568H31.8447L23.7058 39.2902L22.2241 43.2405H17.46L19.0158 39.2902L27.7438 17.1847H31.7435L29.792 12H34.3268L45.0311 39.2902L46.5825 43.2405L46.5803 43.2427Z" fill="#040503"/>
</svg>
