<svg width="64" height="64" viewBox="0 0 64 64" fill="none" xmlns="http://www.w3.org/2000/svg">
<rect width="64" height="64" fill="#E57410"/>
<mask id="mask0_6_120" style="mask-type:luminance" maskUnits="userSpaceOnUse" x="8" y="8" width="48" height="48">
<path d="M56 8H8V56H56V8Z" fill="white"/>
</mask>
<g mask="url(#mask0_6_120)">
<path d="M32.2154 10.9742C32.3294 10.9742 32.4434 11.0057 32.5456 11.0608L50.1347 21.2438C50.339 21.362 50.4647 21.5826 50.4647 21.815V42.1771C50.4647 42.4135 50.339 42.6301 50.1347 42.7483L32.5456 52.9313C32.4473 52.9904 32.3294 53.018 32.2154 53.018C32.1016 53.018 31.9876 52.9865 31.8854 52.9313L14.2963 42.7562C14.092 42.638 13.9662 42.4174 13.9662 42.185V21.819C13.9662 21.5826 14.092 21.3659 14.2963 21.2478L31.8854 11.0648C31.9876 11.0057 32.1016 10.9742 32.2154 10.9742ZM32.2154 8C31.5908 8 30.9622 8.16151 30.4004 8.48847L12.8151 18.6675C11.6915 19.3175 11 20.519 11 21.819V42.1811C11 43.481 11.6915 44.6825 12.8151 45.3324L30.4043 55.5155C30.9661 55.8385 31.5908 56.0039 32.2195 56.0039C32.848 56.0039 33.4727 55.8425 34.0345 55.5155L51.6238 45.3324C52.7474 44.6825 53.4388 43.481 53.4388 42.1811V21.819C53.4388 20.519 52.7474 19.3175 51.6238 18.6675L34.0306 8.48847C33.4688 8.16151 32.8402 8 32.2154 8Z" fill="white"/>
<path d="M27.7327 21.5707H25.4344C25.2614 21.5707 25.1083 21.677 25.0493 21.8425L17.6592 42.1533C17.6121 42.2873 17.7103 42.429 17.8517 42.429H20.1501C20.3229 42.429 20.4762 42.3227 20.5351 42.1572L27.9251 21.8425C27.9723 21.7125 27.8741 21.5707 27.7327 21.5707Z" fill="white"/>
<path d="M30.7067 29.4454C30.6399 29.2642 30.3885 29.2642 30.3218 29.4454L29.1273 32.7307C29.096 32.8213 29.096 32.9198 29.1273 33.0143L32.4551 42.1613C32.514 42.3229 32.6672 42.4331 32.8401 42.4331H35.1384C35.2799 42.4331 35.3781 42.2914 35.3309 42.1574L30.7067 29.4454Z" fill="white"/>
<path d="M31.7479 21.5707H29.4496C29.2766 21.5707 29.1235 21.677 29.0645 21.8425L21.6784 42.1533C21.6313 42.2873 21.7295 42.429 21.8709 42.429H24.1693C24.3421 42.429 24.4954 42.3227 24.5543 42.1572L31.9444 21.8425C31.9915 21.7125 31.8932 21.5707 31.7479 21.5707Z" fill="white"/>
<path d="M32.7143 23.9225C32.6476 23.7413 32.3962 23.7413 32.3293 23.9225L31.135 27.2079C31.1036 27.2985 31.1036 27.3969 31.135 27.4914L36.4742 42.1613C36.5332 42.3228 36.6863 42.4331 36.8593 42.4331H39.1576C39.299 42.4331 39.3973 42.2913 39.35 42.1574L32.7143 23.9225Z" fill="white"/>
<path d="M46.5791 21.5707H44.2808C44.1079 21.5707 43.9547 21.677 43.8958 21.8425L38.5604 36.5123C38.5291 36.6029 38.5291 36.7014 38.5604 36.7959L39.7549 40.0812C39.8216 40.2624 40.073 40.2624 40.1398 40.0812L46.7716 21.8504C46.8227 21.7125 46.7206 21.5707 46.5791 21.5707Z" fill="white"/>
<path d="M37.7473 34.5545C37.814 34.7357 38.0654 34.7357 38.1323 34.5545L42.7565 21.8464C42.8036 21.7125 42.7054 21.5707 42.5639 21.5707H40.2656C40.0927 21.5707 39.9395 21.677 39.8806 21.8425L36.5528 30.9894C36.5215 31.08 36.5215 31.1786 36.5528 31.2731L37.7473 34.5545Z" fill="white"/>
</g>
</svg>
