<svg width="64" height="64" viewBox="0 0 64 64" fill="none" xmlns="http://www.w3.org/2000/svg">
<rect width="64" height="64" fill="#1B4ADD"/>
<path d="M32.071 11.0086C32.1855 11.0086 32.2999 11.0401 32.4025 11.0993L50.0044 21.3385C50.2096 21.4569 50.3357 21.6778 50.3318 21.9106L50.2648 42.2745C50.2648 42.5113 50.1385 42.7282 49.9333 42.8467L32.2644 52.9714C32.1657 53.0307 32.0473 53.0583 31.9329 53.0583C31.8186 53.0583 31.7041 53.0266 31.6015 52.9675L13.9996 42.7282C13.7944 42.6099 13.6682 42.3889 13.6721 42.1561L13.7392 21.7923C13.7392 21.5555 13.8654 21.3385 14.0706 21.2201L31.7395 11.0954C31.8382 11.0362 31.9527 11.0086 32.071 11.0086ZM32.079 8.0335C31.4515 8.02955 30.8242 8.19133 30.2599 8.51488L12.591 18.6357C11.4625 19.2828 10.768 20.4783 10.7602 21.7804L10.6931 42.1443C10.6891 43.4425 11.3796 44.646 12.5002 45.3009L30.1021 55.54C30.6624 55.8676 31.2898 56.0293 31.921 56.0334C32.5485 56.0373 33.1758 55.8754 33.7401 55.5519L51.409 45.4272C52.5376 44.7801 53.2319 43.5846 53.2399 42.2824L53.3069 21.9225C53.3108 20.6243 52.6204 19.4209 51.4997 18.7659L33.8979 8.52671C33.3337 8.19922 32.7063 8.0335 32.079 8.0335Z" fill="white"/>
<path d="M35.646 19.1329H33.0654C32.872 19.1329 32.6985 19.2552 32.6314 19.4367L24.3375 42.1798C24.2821 42.3298 24.3927 42.4876 24.5544 42.4876H27.135C27.3283 42.4876 27.5019 42.3654 27.5689 42.1839L35.8669 19.4367C35.9142 19.2907 35.8038 19.1329 35.646 19.1329ZM31.132 19.1329H28.5514C28.3581 19.1329 28.1845 19.2552 28.1175 19.4367L19.8235 42.1798C19.7683 42.3298 19.8788 42.4876 20.0405 42.4876H22.621C22.8144 42.4876 22.9879 42.3654 23.0551 42.1839L31.353 19.4367C31.4043 19.2907 31.2937 19.1329 31.132 19.1329ZM34.474 27.9516C34.399 27.7503 34.1149 27.7503 34.0399 27.9516L32.6985 31.629C32.6629 31.7316 32.6629 31.8421 32.6985 31.9447L36.4351 42.1878C36.5022 42.3693 36.6757 42.4917 36.8691 42.4917H39.4495C39.6114 42.4917 39.7218 42.3337 39.6666 42.1839L34.474 27.9516ZM44.1766 42.1798L36.7309 21.7687C36.6561 21.5674 36.372 21.5674 36.297 21.7687L34.9554 25.446C34.9198 25.5486 34.9198 25.6592 34.9554 25.7618L40.9489 42.1878C41.016 42.3693 41.1897 42.4917 41.383 42.4917H43.9635C44.1174 42.4876 44.2318 42.3298 44.1766 42.1798Z" fill="white"/>
</svg>
