<svg width="64" height="64" viewBox="0 0 64 64" fill="none" xmlns="http://www.w3.org/2000/svg">
<rect width="64" height="64" fill="#E84142"/>
<path fill-rule="evenodd" clip-rule="evenodd" d="M22.039 49.4882H15.3132C13.8999 49.4882 13.2018 49.4882 12.7761 49.2158C12.3164 48.9179 12.0354 48.4244 12.0013 47.8797C11.9758 47.3776 12.3248 46.7648 13.023 45.5393L29.6298 16.2786C30.3364 15.0361 30.694 14.4149 31.1452 14.185C31.6305 13.9383 32.2095 13.9383 32.6948 14.185C33.146 14.4149 33.5036 15.0361 34.2102 16.2786L37.6242 22.2359L37.6417 22.2664C38.4048 23.5994 38.7919 24.2753 38.9608 24.9848C39.1481 25.7592 39.1481 26.5762 38.9608 27.3507C38.7906 28.0656 38.4074 28.7465 37.6327 30.0996L28.9096 45.5138L28.887 45.5533C28.1186 46.8973 27.7293 47.5784 27.1897 48.0925C26.6023 48.6542 25.8957 49.0626 25.121 49.2924C24.4143 49.4882 23.6225 49.4882 22.039 49.4882ZM39.0238 49.4889H48.6614C50.0832 49.4889 50.7983 49.4889 51.224 49.2081C51.6837 48.9102 51.9732 48.4081 51.9988 47.8634C52.0234 47.3779 51.6819 46.7888 51.0126 45.6346C50.9898 45.5952 50.9666 45.5552 50.943 45.5146L46.1158 37.2594L46.0608 37.1666C45.3825 36.0198 45.0399 35.4408 44.6003 35.217C44.115 34.9701 43.5447 34.9701 43.0594 35.217C42.6166 35.4467 42.259 36.051 41.5524 37.2679L36.7422 45.523L36.7257 45.5515C36.0215 46.7665 35.6696 47.3737 35.695 47.872C35.7291 48.4166 36.01 48.9188 36.4698 49.2166C36.8869 49.4889 37.602 49.4889 39.0238 49.4889Z" fill="white"/>
</svg>
