<svg width="64" height="64" viewBox="0 0 64 64" fill="none" xmlns="http://www.w3.org/2000/svg">
<rect width="64" height="64" fill="#F8F2E9"/>
<g clip-path="url(#clip0_127_245)">
<path d="M27.895 30.4891C27.8678 30.4026 27.8481 30.315 27.8333 30.226C27.8258 30.1853 27.8184 30.1433 27.8098 30.1025C27.79 30.0136 27.769 29.9259 27.7456 29.8382C28.1346 29.2503 29.9923 26.1809 27.8777 24.2109C25.531 22.0247 22.7889 24.8902 22.7889 24.8902L22.7976 24.9026C21.5649 24.5283 20.2285 24.4839 18.9291 24.8902C18.9131 24.8729 16.1809 22.0309 13.8404 24.2109C11.4998 26.3909 14.0269 29.9185 14.0405 29.937C14.0133 30.0198 13.9923 30.105 13.9775 30.1902C13.7243 31.7008 12 32.1664 12 34.796C12 37.4257 13.8033 39.5884 17.484 39.5884H18.9946C19.0008 39.5983 19.6233 40.4789 20.9004 40.4789C22.0862 40.4777 22.868 39.597 22.8754 39.5884H24.3168C27.9975 39.5884 29.8008 37.4763 29.8008 34.796C29.8008 32.348 28.3051 31.7749 27.895 30.4891Z" fill="#E68441"/>
<path d="M51.8123 26.6565C51.8123 26.6565 52.1236 23.7749 49.757 23.1561V22H47.9253V23.1264C45.4291 23.6786 45.7515 26.6565 45.7515 26.6565V27.1505C45.7515 27.1505 45.4291 30.1285 47.9266 30.6806V33.1545C45.2957 33.6338 45.628 36.7093 45.628 36.7093V37.2033C45.628 37.2033 45.3056 40.1813 47.8018 40.7334V41.8598H49.6348V40.7037C52.0013 40.0849 51.69 37.2033 51.69 37.2033C51.7938 37.2033 51.8778 37.1193 51.8778 37.0156V36.8958C51.8778 36.792 51.7938 36.708 51.69 36.708C51.69 36.708 51.9988 33.8512 49.6656 33.2151V30.6806H49.6385C52.1347 30.1285 51.8135 27.1505 51.8135 27.1505C51.9173 27.1505 52.0013 27.0665 52.0013 26.9628V26.843C52 26.7405 51.9161 26.6565 51.8123 26.6565ZM50.319 36.708H50.151C50.0473 36.708 49.9633 36.792 49.9633 36.8958V37.0156C49.9633 37.1193 50.0473 37.2033 50.151 37.2033H50.319C50.319 38.9906 49.7249 39.292 49.5261 39.3426C49.4927 39.3512 49.4618 39.3265 49.4618 39.2932V38.7238C49.4618 38.4088 49.2617 38.2359 49.0604 38.142C48.8072 38.0235 48.5108 38.0235 48.2576 38.142C48.0575 38.2359 47.8562 38.4088 47.8562 38.7238V39.2932C47.8562 39.3265 47.8253 39.3512 47.7932 39.3438C47.5943 39.2944 46.999 38.9955 46.999 37.2046V36.7105C46.999 34.9233 47.5931 34.6219 47.7919 34.5713C47.8253 34.5626 47.8562 34.5873 47.8562 34.6207V35.1901C47.8562 35.505 48.0562 35.6779 48.2576 35.7718C48.5108 35.8904 48.8072 35.8904 49.0604 35.7718C49.2605 35.6779 49.4618 35.505 49.4618 35.1901V34.6207C49.4618 34.5873 49.4927 34.5626 49.5248 34.57C49.7237 34.6194 50.319 34.9183 50.319 36.708ZM50.2758 27.1505H50.4438C50.4438 28.9415 49.8484 29.2404 49.6496 29.2898C49.6175 29.2984 49.5866 29.2725 49.5866 29.2392V28.6698C49.5866 28.3548 49.3865 28.1819 49.1852 28.088C48.932 27.9694 48.6355 27.9694 48.3823 28.088C48.1822 28.1819 47.9809 28.3548 47.9809 28.6698V29.2392C47.9809 29.2725 47.9488 29.2972 47.9167 29.2886C47.7166 29.2379 47.1237 28.9365 47.1237 27.1493V26.6552C47.1237 24.8643 47.7191 24.5654 47.9179 24.516C47.95 24.5073 47.9809 24.5333 47.9809 24.5666V25.1373C47.9809 25.4522 48.181 25.6251 48.3823 25.719C48.6355 25.8376 48.932 25.8376 49.1852 25.719C49.3853 25.6251 49.5866 25.4522 49.5866 25.1373V24.5679C49.5866 24.5345 49.6187 24.5098 49.6508 24.5184C49.8509 24.5691 50.4438 24.8692 50.4438 26.6577H50.2758C50.172 26.6577 50.0881 26.7417 50.0881 26.8455V26.9653C50.0881 27.0665 50.172 27.1505 50.2758 27.1505Z" fill="#E68441"/>
<path d="M42.7587 31.7453C42.7587 31.7453 43.0823 28.75 40.5627 28.2115V25.5201C43.0156 24.9458 42.697 22 42.697 22C42.697 22 41.3223 22 41.3272 22C41.3272 23.791 40.7319 24.0899 40.533 24.1393C40.5009 24.1479 40.47 24.122 40.47 24.0886V23.5192C40.47 23.2043 40.2699 23.0313 40.0686 22.9375C39.8154 22.8189 39.519 22.8189 39.2658 22.9375C39.0657 23.0313 38.8643 23.2043 38.8643 23.5192V24.0886C38.8643 24.122 38.8322 24.1467 38.8001 24.138C38.6 24.0874 38.0071 23.7872 38.0071 21.9988C38.0133 21.9988 36.6374 21.9988 36.6374 21.9988C36.6374 21.9988 36.3076 25.0557 38.9125 25.5486V28.2053C36.3731 28.7365 36.6979 31.7453 36.6979 31.7453V32.2393C36.6979 32.2393 36.3731 35.2481 38.9113 35.7767V38.31C36.3064 38.8028 36.6361 41.8598 36.6361 41.8598C36.6361 41.8598 38.0109 41.8598 38.0059 41.8598C38.0059 40.0689 38.6013 39.77 38.8001 39.7205C38.8322 39.7119 38.8631 39.7378 38.8631 39.7712V40.3406C38.8631 40.6555 39.0632 40.8285 39.2645 40.9223C39.5177 41.0409 39.8142 41.0409 40.0674 40.9223C40.2675 40.8285 40.4688 40.6555 40.4688 40.3406V39.7712C40.4688 39.7378 40.5009 39.7131 40.533 39.7218C40.7331 39.7724 41.326 40.0726 41.326 41.861C41.3198 41.861 42.6957 41.861 42.6957 41.861C42.6957 41.861 43.0144 38.9152 40.5614 38.3409V35.7743C43.0811 35.2345 42.7575 32.2405 42.7575 32.2405C42.8612 32.2405 42.9452 32.1566 42.9452 32.0528V31.933C42.9465 31.8292 42.8625 31.7453 42.7587 31.7453ZM41.2222 32.2393H41.3902C41.3902 34.0303 40.7949 34.3292 40.596 34.3786C40.5639 34.3872 40.533 34.3613 40.533 34.3279V33.7585C40.533 33.4436 40.3329 33.2706 40.1316 33.1768C39.8784 33.0582 39.582 33.0582 39.3287 33.1768C39.1287 33.2706 38.9273 33.4436 38.9273 33.7585V34.3279C38.9273 34.3613 38.8952 34.386 38.8631 34.3773C38.663 34.3267 38.0701 34.0253 38.0701 32.2381V31.744C38.0701 29.9531 38.6655 29.6542 38.8643 29.6048C38.8964 29.5961 38.9273 29.622 38.9273 29.6554V30.226C38.9273 30.541 39.1274 30.7139 39.3287 30.8078C39.582 30.9264 39.8784 30.9264 40.1316 30.8078C40.3317 30.7139 40.533 30.541 40.533 30.226V29.6566C40.533 29.6233 40.5651 29.5986 40.5972 29.6072C40.7973 29.6579 41.3902 29.9592 41.3902 31.7465H41.2222C41.1185 31.7465 41.0345 31.8305 41.0345 31.9342V32.054C41.0345 32.1553 41.1185 32.2393 41.2222 32.2393Z" fill="#E68441"/>
</g>
<defs>
<clipPath id="clip0_127_245">
<rect width="40" height="19.861" fill="white" transform="translate(12 22)"/>
</clipPath>
</defs>
</svg>
