<svg width="64" height="64" viewBox="0 0 64 64" fill="none" xmlns="http://www.w3.org/2000/svg">
<rect width="64" height="64" fill="#F25D00"/>
<g clip-path="url(#clip0_127_15)">
<mask id="mask0_127_15" style="mask-type:luminance" maskUnits="userSpaceOnUse" x="12" y="12" width="40" height="40">
<path d="M52 12H12V52H52V12Z" fill="white"/>
</mask>
<g mask="url(#mask0_127_15)">
<path d="M29.9077 12H19.7445C19.3947 12 19.1111 12.2836 19.1111 12.6333V22.7966C19.1111 23.1464 19.3947 23.4299 19.7445 23.4299H29.9077C30.2575 23.4299 30.5411 23.1464 30.5411 22.7966V12.6333C30.5411 12.2836 30.2575 12 29.9077 12Z" fill="white"/>
<path d="M19.1152 41.2024V51.3656C19.1152 51.7153 19.3987 51.9989 19.7484 51.9989H29.9117C30.2615 51.9989 30.545 51.7153 30.545 51.3656V41.2024C30.545 40.8527 30.2615 40.5691 29.9117 40.5691H19.7484C19.3987 40.5691 19.1152 40.8527 19.1152 41.2024Z" fill="white"/>
<path d="M19.1111 26.9195V37.0827C19.1111 37.4327 19.3947 37.716 19.7445 37.716H29.9077C30.2575 37.716 30.5411 37.4327 30.5411 37.0827V26.9195C30.5411 26.5697 30.2575 26.2862 29.9077 26.2862H19.7445C19.3947 26.2862 19.1111 26.5697 19.1111 26.9195Z" fill="white"/>
<path d="M33.3973 41.2033V51.3667C33.3973 51.7164 33.6808 52 34.0306 52H44.1938C44.5438 52 44.8271 51.7164 44.8271 51.3667V41.2033C44.8271 40.8536 44.5438 40.57 44.1938 40.57H34.0306C33.6808 40.57 33.3973 40.8536 33.3973 41.2033Z" fill="white"/>
<path d="M33.3973 26.9162V37.0796C33.3973 37.4293 33.6808 37.7129 34.0306 37.7129H44.1938C44.5438 37.7129 44.8271 37.4293 44.8271 37.0796V26.9162C44.8271 26.5664 44.5438 26.2829 44.1938 26.2829H34.0306C33.6808 26.2829 33.3973 26.5664 33.3973 26.9162Z" fill="white"/>
</g>
</g>
<defs>
<clipPath id="clip0_127_15">
<rect width="40" height="40" fill="white" transform="translate(12 12)"/>
</clipPath>
</defs>
</svg>
