<svg width="64" height="64" viewBox="0 0 64 64" fill="none" xmlns="http://www.w3.org/2000/svg">
<rect width="64" height="64" fill="#FFE900"/>
<path d="M22.1104 18.8205L32.1943 13L42.2782 18.8205L38.5708 20.9707L32.1943 17.3005L25.8177 20.9707L22.1104 18.8205ZM42.2782 26.161L38.5708 24.0107L32.1943 27.681L25.8177 24.0107L22.1104 26.161V30.4615L28.4869 34.1316V41.4721L32.1943 43.6225L35.9016 41.4721V34.1316L42.2782 30.4615V26.161ZM42.2782 37.802V33.5015L38.5708 35.6516V39.9521L42.2782 37.802ZM44.9103 39.322L38.5338 42.9921V47.2926L48.6177 41.4721V29.8312L44.9103 31.9815V39.322ZM41.2031 22.4907L44.9103 24.641V28.9415L48.6177 26.7912V22.4907L44.9103 20.3405L41.2031 22.4907ZM28.4869 44.5493V48.8498L32.1943 51L35.9016 48.8498V44.5493L32.1943 46.6995L28.4869 44.5493ZM22.1104 37.802L25.8177 39.9521V35.6516L22.1104 33.5015V37.802ZM28.4869 22.4907L32.1943 24.641L35.9016 22.4907L32.1943 20.3405L28.4869 22.4907ZM19.4781 24.641L23.1854 22.4907L19.4781 20.3405L15.7708 22.4907V26.7912L19.4781 28.9415V24.641ZM19.4781 31.9815L15.7708 29.8312V41.4721L25.8547 47.2926V42.9921L19.4781 39.322V31.9815Z" fill="#181A1E"/>
</svg>
