<svg width="64" height="64" viewBox="0 0 64 64" fill="none" xmlns="http://www.w3.org/2000/svg">
<rect width="64" height="64" fill="white"/>
<g clip-path="url(#clip0_127_263)">
<g clip-path="url(#clip1_127_263)">
<path d="M50.2001 40.2426L45.869 36.8743C45.1419 36.3088 44.0835 36.5431 43.6554 37.3587C42.5924 39.3812 40.9266 41.0477 39.018 42.1846L34.4788 37.6454C34.2347 37.4012 33.9035 37.2638 33.5579 37.2638C33.2123 37.2638 32.8811 37.4012 32.6369 37.6454L27.8078 42.4746C24.0527 40.4854 21.4882 36.5373 21.4882 32C21.4882 25.4684 26.8024 20.1542 33.334 20.1542C37.2842 20.1542 41.0687 21.8743 43.5703 26.0084C44.0187 26.7493 45.0051 26.9463 45.7034 26.4345L49.9062 23.3543C50.53 22.8974 50.6956 22.0354 50.2845 21.3802C46.6381 15.5613 40.2629 12 33.3334 12C22.3051 12 13.3334 20.9717 13.3334 32C13.3334 43.0283 22.3051 52 33.3334 52C37.1035 52 40.7768 50.9442 43.9571 48.9479C46.6692 47.2452 48.9344 44.918 50.5634 42.161C50.9417 41.5209 50.7872 40.6988 50.2001 40.2426ZM30.4711 43.495L33.5572 40.4088L36.4823 43.334C35.4403 43.6678 34.3747 43.8465 33.334 43.8465C32.347 43.8465 31.3887 43.7241 30.4711 43.4956V43.495ZM33.2437 28.9335C33.2391 29.031 33.2385 30.327 36.4863 32.5407C38.9094 34.1927 37.7744 37.4837 37.2783 38.5657C36.9689 37.6558 36.525 36.7973 35.9613 36.0189C35.1281 34.8675 34.2026 34.1273 33.5566 33.6894C32.8772 34.1057 31.7625 34.916 30.8684 36.3088C30.3271 37.1525 30.0293 37.9556 29.8591 38.5657L29.8571 38.5624C28.8688 35.905 29.219 34.5776 29.7295 33.8563C30.1301 33.2901 30.8579 32.5079 30.8579 32.5079C31.4935 31.8757 32.1644 31.2604 32.8097 30.0096C33.2064 29.2405 33.2411 28.9728 33.2437 28.9329V28.9335Z" fill="black"/>
<path d="M30.8579 32.5086C30.8579 32.5086 30.1307 33.2907 29.7295 33.8569C29.219 34.5782 28.8695 35.9056 29.8571 38.563C24.2268 33.6344 30.0247 28.6043 29.9089 28.9872C29.4782 30.4108 30.8573 32.5086 30.8573 32.5086H30.8579ZM32.2311 30.9599C32.4282 30.6805 32.6219 30.3669 32.8071 30.0076C33.2404 29.1678 33.2418 28.925 33.2418 28.925C33.2418 28.925 33.105 30.2354 36.4837 32.5387C38.9068 34.1907 37.7718 37.4817 37.2757 38.5637C37.2757 38.5637 40.1353 36.7402 39.7295 33.6599C39.2419 29.9546 37.237 30.289 35.7473 27.5446C34.3577 24.9847 36.7311 22.934 36.7311 22.934C36.7311 22.934 33.554 22.7632 32.0996 26.1033C30.5667 29.6227 32.2305 30.9606 32.2305 30.9606L32.2311 30.9599Z" fill="#FF6D01"/>
</g>
</g>
<defs>
<clipPath id="clip0_127_263">
<rect width="40" height="40" fill="white" transform="translate(12 12)"/>
</clipPath>
<clipPath id="clip1_127_263">
<rect width="37.4362" height="40" fill="white" transform="translate(13.3334 12)"/>
</clipPath>
</defs>
</svg>
