<svg width="64" height="64" viewBox="0 0 64 64" fill="none" xmlns="http://www.w3.org/2000/svg">
<path d="M54.5915 19.1109L53.4697 17.1411C53.3817 16.9868 53.2593 16.8548 53.1119 16.7556C52.9645 16.6563 52.7962 16.5925 52.6201 16.569C52.4439 16.5456 52.2648 16.5631 52.0965 16.6203C51.9283 16.6776 51.7756 16.7729 51.6503 16.8988L49.0703 19.4766C48.8817 19.6661 48.7643 19.9151 48.7382 20.1812C48.712 20.4474 48.7786 20.7144 48.9267 20.9371C49.8675 22.3746 50.6213 23.9261 51.1702 25.5541C52.1956 28.5974 52.4819 31.8411 52.0055 35.017C51.5292 38.1928 50.3038 41.2097 48.4307 43.8183C46.5575 46.4269 44.0905 48.5521 41.2334 50.0185C38.3763 51.4849 35.2113 52.2502 31.9998 52.2512C28.6939 52.2603 25.437 51.4519 22.519 49.8978L26.8825 45.5321C29.5864 46.5548 32.5349 46.7429 35.3468 46.0723C38.1588 45.4016 40.705 43.903 42.6562 41.77C44.6075 39.6371 45.8742 36.9679 46.2925 34.1075C46.7109 31.2471 46.2616 28.327 45.0029 25.7246C44.923 25.558 44.8043 25.4129 44.6567 25.3017C44.5092 25.1904 44.3371 25.1162 44.1549 25.0852C43.9727 25.0542 43.7857 25.0673 43.6097 25.1236C43.4336 25.1798 43.2736 25.2774 43.1431 25.4083L40.5317 28.0017C40.3925 28.1408 40.2911 28.3131 40.2373 28.5024C40.1835 28.6917 40.1791 28.8916 40.2244 29.0831L40.4487 30.0208C40.8348 31.6635 40.7328 33.3832 40.1555 34.9688C39.5781 36.5544 38.5504 37.9369 37.1984 38.9468C35.8465 39.9566 34.2292 40.5498 32.5449 40.6536C30.8606 40.7573 29.1827 40.3671 27.7171 39.5308L26.5662 38.8713C26.3463 38.7446 26.0906 38.6942 25.8391 38.7278C25.5875 38.7615 25.3541 38.8774 25.1752 39.0575L14.5166 49.7139C14.4002 49.8302 14.3101 49.9701 14.2522 50.1241C14.1942 50.2781 14.1699 50.4427 14.1807 50.6069C14.1915 50.7711 14.2373 50.9311 14.315 51.0761C14.3926 51.2212 14.5004 51.348 14.631 51.4481L16.2014 52.6528C20.7303 56.1428 26.2912 58.0275 32.0088 58.0102C36.5608 58.0043 41.0316 56.8046 44.975 54.5308C48.9184 52.257 52.1964 48.9887 54.4818 45.052C56.7673 41.1153 57.9801 36.648 57.9993 32.0961C58.0186 27.5441 56.8435 23.0668 54.5915 19.1109Z" fill="url(#paint0_linear_8_2)"/>
<path d="M47.8117 11.3597C43.2834 7.86843 37.7222 5.98288 32.0043 6.00012C27.4501 6.00366 22.9766 7.20226 19.0307 9.47617C15.0848 11.7501 11.8047 15.0197 9.51821 18.9582C7.23168 22.8968 6.01876 27.3665 6.00063 31.9206C5.98251 36.4748 7.15982 40.954 9.41493 44.9106L10.5367 46.8781C10.625 47.0323 10.7477 47.1642 10.8952 47.2633C11.0426 47.3625 11.211 47.4264 11.3871 47.4501C11.5633 47.4737 11.7425 47.4565 11.9109 47.3997C12.0794 47.3429 12.2325 47.2481 12.3583 47.1227L14.9338 44.5472C15.1212 44.3573 15.2376 44.1089 15.2638 43.8435C15.2899 43.578 15.2241 43.3117 15.0774 43.0889C14.1358 41.6519 13.3819 40.1003 12.834 38.4719C11.8086 35.4286 11.5222 32.1849 11.9986 29.009C12.475 25.8332 13.7004 22.8163 15.5735 20.2077C17.4466 17.5991 19.9137 15.4738 22.7707 14.0075C25.6278 12.5411 28.7929 11.7758 32.0043 11.7748C35.3102 11.7673 38.5665 12.5781 41.4829 14.1349L37.1171 18.4984C34.9301 17.6695 32.5746 17.3841 30.2529 17.6665C27.9313 17.949 25.7129 18.7909 23.7884 20.12C21.864 21.4491 20.291 23.2256 19.2047 25.2968C18.1184 27.368 17.5512 29.672 17.5519 32.0107C17.5519 32.2508 17.617 33.3456 17.6372 33.5341C17.8141 35.191 18.2748 36.8051 18.999 38.3059C19.0792 38.4725 19.1981 38.6176 19.3459 38.7288C19.4937 38.8401 19.6659 38.9143 19.8483 38.9453C20.0306 38.9762 20.2177 38.9631 20.3939 38.9069C20.5701 38.8507 20.7303 38.753 20.861 38.6222L23.4724 36.0086C23.6115 35.8699 23.7129 35.698 23.7671 35.5092C23.8213 35.3203 23.8264 35.1208 23.782 34.9295L23.5577 33.9895C23.1711 32.3467 23.2727 30.6269 23.85 29.0411C24.4273 27.4553 25.4551 26.0726 26.8073 25.0628C28.1595 24.053 29.7771 23.4601 31.4616 23.3569C33.146 23.2537 34.8239 23.6446 36.2893 24.4817L37.4402 25.1413C37.6604 25.2668 37.9158 25.3166 38.1671 25.283C38.4184 25.2493 38.6517 25.1341 38.8311 24.9551L49.4875 14.2987C49.6041 14.1823 49.6944 14.0423 49.7525 13.8882C49.8107 13.7341 49.8352 13.5694 49.8246 13.405C49.814 13.2407 49.7684 13.0805 49.691 12.9351C49.6135 12.7898 49.5059 12.6627 49.3754 12.5622L47.8117 11.3597Z" fill="url(#paint1_linear_8_2)"/>
<defs>
<linearGradient id="paint0_linear_8_2" x1="22.8308" y1="59.6748" x2="59.444" y2="23.0616" gradientUnits="userSpaceOnUse">
<stop stop-color="#B090F5"/>
<stop offset="1" stop-color="#5FBFFF"/>
</linearGradient>
<linearGradient id="paint1_linear_8_2" x1="4.56233" y1="40.9576" x2="41.1778" y2="4.34444" gradientUnits="userSpaceOnUse">
<stop stop-color="#68D7FA"/>
<stop offset="1" stop-color="#4EE498"/>
</linearGradient>
</defs>
</svg>
