<svg width="64" height="64" viewBox="0 0 64 64" fill="none" xmlns="http://www.w3.org/2000/svg">
<rect width="64" height="64" fill="#EAFFE7"/>
<g clip-path="url(#clip0_127_31)">
<path d="M31.9538 24.7953C35.8894 24.7953 39.0804 27.9781 39.0804 31.9038C39.0804 35.8295 35.8894 39.0124 31.9538 39.0124C28.0183 39.0124 24.8275 35.8295 24.8275 31.9038C24.8275 27.9781 28.0183 24.7953 31.9538 24.7953ZM31.9538 12C29.2655 12 26.6519 12.5278 24.1826 13.5692C21.8041 14.5715 19.6716 16.0057 17.8436 17.829C16.0157 19.6523 14.578 21.7795 13.5732 24.152C12.5291 26.6133 12 29.2221 12 31.9038C12 34.5855 12.5291 37.1925 13.5732 39.6556C14.578 42.0282 16.0157 44.1553 17.8436 45.9786C19.6716 47.8021 21.8041 49.2361 24.1826 50.2385C26.6501 51.2798 29.2655 51.8077 31.9538 51.8077C34.6423 51.8077 37.256 51.2798 39.7253 50.2385C42.1037 49.2361 44.2362 47.8021 46.0642 45.9786C47.892 44.1553 49.3298 42.0282 50.3346 39.6556C51.3786 37.1944 51.9078 34.5855 51.9078 31.9038C51.9078 29.2221 51.3786 26.6151 50.3346 24.152C49.3298 21.7795 47.892 19.6523 46.0642 17.829C44.2362 16.0057 42.1037 14.5715 39.7253 13.5692C37.2577 12.5278 34.6423 12 31.9538 12Z" fill="#B7F7B0"/>
<path d="M31.954 24.7953C35.8896 24.7953 39.0804 27.9781 39.0804 31.9038C39.0804 35.8295 35.8896 39.0124 31.954 39.0124C28.0185 39.0124 24.8277 35.8295 24.8277 31.9038C24.8277 27.9781 28.0185 24.7953 31.954 24.7953ZM31.954 16.2651C23.3097 16.2651 16.276 23.2812 16.276 31.9038C16.276 40.5264 23.3097 47.5425 31.954 47.5425C40.5983 47.5425 47.6321 40.5264 47.6321 31.9038C47.6321 23.2812 40.5983 16.2651 31.954 16.2651Z" fill="#07DC10"/>
<path d="M31.9542 24.7953C35.8898 24.7953 39.0806 27.9781 39.0806 31.9038C39.0806 35.8295 35.8898 39.0124 31.9542 39.0124C28.0186 39.0124 24.8278 35.8295 24.8278 31.9038C24.8278 27.9781 28.0186 24.7953 31.9542 24.7953ZM31.9542 20.5302C25.6669 20.5302 20.5519 25.6323 20.5519 31.9038C20.5519 38.1752 25.6669 43.2774 31.9542 43.2774C38.2415 43.2774 43.3564 38.1752 43.3564 31.9038C43.3564 25.6323 38.2415 20.5302 31.9542 20.5302Z" fill="#0C9B00"/>
<path d="M31.9536 24.7953C35.8892 24.7953 39.08 27.9781 39.08 31.9038C39.08 35.8295 35.8892 39.0124 31.9536 39.0124C28.018 39.0124 24.8272 35.8295 24.8272 31.9038C24.8272 27.9781 28.018 24.7953 31.9536 24.7953Z" fill="#EAEAEA"/>
</g>
<defs>
<clipPath id="clip0_127_31">
<rect width="40" height="39.8122" fill="white" transform="translate(12 12)"/>
</clipPath>
</defs>
</svg>
