<svg width="64" height="64" viewBox="0 0 64 64" fill="none" xmlns="http://www.w3.org/2000/svg">
<rect width="64" height="64" fill="url(#paint0_linear_127_47)"/>
<g clip-path="url(#clip0_127_47)">
<mask id="mask0_127_47" style="mask-type:luminance" maskUnits="userSpaceOnUse" x="12" y="15" width="40" height="34">
<path d="M52 15H12V48.8657H52V15Z" fill="white"/>
</mask>
<g mask="url(#mask0_127_47)">
<path d="M17.8395 35.8607L18.0009 38.7994C18.0114 38.9996 18.0864 39.1879 18.213 39.3422C19.0979 40.4135 23.0653 44.1515 32.0059 44.1515C40.9464 44.1515 44.8658 40.4618 45.7835 39.3622C45.9218 39.1962 46.0015 38.9902 46.0144 38.7735L46.1743 35.8627C47.2387 35.2787 48.3375 34.6188 48.3375 34.6188C50.0651 33.6828 51.9932 35.0273 51.9967 36.9993C52.0026 40.1899 49.5096 43.4687 46.1469 45.5349C42.3553 47.8648 36.6954 48.8314 32.0083 48.8314C27.3212 48.8314 21.6613 47.8648 17.8697 45.5349C14.507 43.4687 12.014 40.191 12.0199 36.9993C12.0234 35.0273 13.9515 33.6828 15.6791 34.6188C15.6791 34.6188 16.776 35.2771 17.8395 35.8607Z" fill="#8B5CF6"/>
<path d="M32.0071 15.0058C39.3173 15.0058 41.2993 15.1765 44.2716 15.5179H44.2704C45.6406 15.6757 46.7388 16.6952 46.6368 18.0762L45.542 32.991C45.1994 33.0902 44.8257 33.2156 44.4067 33.3563C42.2106 34.0933 38.7679 35.2486 32.0071 35.2486C25.2463 35.2486 21.8036 34.0933 19.6074 33.3563C19.188 33.2155 18.814 33.09 18.4711 32.9907L17.3763 18.0762C17.2755 16.6952 18.3702 15.6509 19.7426 15.5179C22.6787 15.233 25.7354 15.0058 32.0071 15.0058ZM18.9957 40.1374L18.9996 40.1898L19.0751 40.2072C19.0481 40.1837 19.0216 40.1604 18.9957 40.1374ZM44.9455 40.2055L45.0136 40.1898L45.0171 40.1421C44.9936 40.163 44.9698 40.1841 44.9455 40.2055Z" fill="#8B5CF6"/>
</g>
</g>
<defs>
<linearGradient id="paint0_linear_127_47" x1="32" y1="0" x2="32" y2="64" gradientUnits="userSpaceOnUse">
<stop stop-color="#0F172A"/>
<stop offset="1" stop-color="#412978"/>
</linearGradient>
<clipPath id="clip0_127_47">
<rect width="40" height="33.8657" fill="white" transform="translate(12 15)"/>
</clipPath>
</defs>
</svg>
