<svg width="64" height="64" viewBox="0 0 64 64" fill="none" xmlns="http://www.w3.org/2000/svg">
<rect width="64" height="64" fill="black"/>
<g clip-path="url(#clip0_127_306)">
<mask id="mask0_127_306" style="mask-type:luminance" maskUnits="userSpaceOnUse" x="11" y="12" width="41" height="40">
<path d="M51.9999 11.9999H11.9999V51.9999H51.9999V11.9999Z" fill="white"/>
</mask>
<g mask="url(#mask0_127_306)">
<path d="M25.4771 25.4771H47.1667C47.1667 25.4771 47.1667 27.5828 47.1667 28.8463C47.1667 30.6783 45.5874 32.1103 43.7975 32.1103C42.0075 32.1103 32.005 32.1103 32.005 32.1103V52.0101C32.005 52.0101 29.8992 52.0101 28.6357 52.0101C27.3723 52.0101 25.4771 50.3254 25.4771 48.6408C25.4771 46.9562 25.4771 25.4771 25.4771 25.4771Z" fill="#FF6B6B"/>
<path d="M11.9999 11.9999H51.9999C51.9999 11.9999 51.9999 14.442 51.9999 17.4545C51.9999 20.4669 49.5578 22.909 46.5452 22.909H11.9999L11.9999 11.9999Z" fill="white"/>
<path d="M22.909 11.9999V51.9999C22.909 51.9999 20.4669 51.9999 17.4544 51.9999C14.442 51.9999 11.9999 49.5578 11.9999 46.5453L11.9999 11.9999H22.909Z" fill="white"/>
</g>
</g>
<defs>
<clipPath id="clip0_127_306">
<rect width="40" height="40" fill="white" transform="translate(12 12)"/>
</clipPath>
</defs>
</svg>
