<svg width="64" height="64" viewBox="0 0 64 64" fill="none" xmlns="http://www.w3.org/2000/svg">
<rect width="64" height="64" fill="black"/>
<g clip-path="url(#clip0_127_308)">
<g clip-path="url(#clip1_127_308)">
<path d="M19.5908 35.628C19.5635 35.6279 19.5362 35.6291 19.509 35.6317C19.263 35.6548 19.1941 35.7385 19.1941 35.9965C19.1941 40.5888 19.1952 45.1825 19.1974 49.7777C19.1974 50.3412 18.7868 50.8618 18.1285 50.8548C16.435 50.8364 14.7411 50.8414 13.0477 50.8521C12.3805 50.8562 12.0033 50.4637 12.0028 49.8123C12.001 45.1488 12.0024 40.4854 12.007 35.8222C12.007 35.1648 12.2908 34.849 12.9834 34.843C14.3754 34.831 15.7675 34.843 17.1595 34.837C17.4507 34.842 17.7348 34.7464 17.9639 34.5666C18.2385 34.3502 18.3065 34.0455 18.3097 33.7344C18.3218 32.6128 18.3218 31.4914 18.3097 30.3701C18.3113 30.2298 18.2845 30.0907 18.2311 29.961C18.1777 29.8313 18.0988 29.7136 17.9989 29.6151C17.8991 29.5166 17.7804 29.4391 17.65 29.3874C17.5196 29.3357 17.3802 29.3108 17.2399 29.3142C15.9644 29.3299 14.688 29.3216 13.412 29.317C13.1668 29.3195 12.9219 29.3021 12.6797 29.2647C12.3935 29.2185 12.1711 29.0608 12.0939 28.7599C12.0518 28.592 12.0056 28.4191 12.0051 28.2485C11.9996 26.0831 11.9996 23.9176 12.0051 21.7521C12.0051 21.4488 12.0329 21.1298 12.3043 20.9259C12.4254 20.8335 12.5816 20.7512 12.7287 20.741C13.2344 20.7049 13.7425 20.6948 14.2501 20.6888C14.9228 20.6809 15.5955 20.692 16.2686 20.6846C16.6385 20.6804 17.0055 20.6661 17.3726 20.6384C17.6634 20.6153 17.8867 20.4368 18.1086 20.2653C18.3791 20.0563 18.6477 19.8455 18.9205 19.6398C19.2214 19.4128 19.2857 19.0901 19.2861 18.7443C19.288 17.2131 19.288 15.6819 19.2861 14.1507C19.2861 13.7212 19.6033 13.4041 20.0388 13.4036H24.5394C33.4159 13.3888 42.9322 13.3509 51.816 13.3366C51.8399 13.3365 51.8635 13.3411 51.8855 13.3502C51.9076 13.3593 51.9276 13.3726 51.9445 13.3895C51.9614 13.4063 51.9748 13.4263 51.9839 13.4483C51.993 13.4703 51.9977 13.494 51.9977 13.5178V13.9718C51.9976 14.0198 51.9785 14.0658 51.9445 14.0998C51.9106 14.1338 51.8645 14.1529 51.8165 14.153H46.8508C46.6641 14.1515 46.4789 14.1876 46.3064 14.2591C46.1339 14.3305 45.9776 14.436 45.8466 14.5691C44.3557 16.061 42.867 17.5575 41.3659 19.0415C40.9197 19.483 40.4412 19.8922 39.9669 20.3041C39.6502 20.5792 39.2572 20.6828 38.8486 20.6832C34.0842 20.6878 29.3202 20.6895 24.5565 20.6883C23.152 20.6883 21.7475 20.7096 20.343 20.7373C19.9547 20.7452 19.5571 20.7951 19.3504 21.2056C19.2945 21.3166 19.2727 21.4456 19.2422 21.5676C19.2369 21.6137 19.2369 21.6602 19.2422 21.7063L19.196 26.6855C19.1909 27.1478 18.7522 27.5528 18.2575 27.5532C16.7184 27.5532 15.1794 27.5532 13.6403 27.556C13.5038 27.5573 13.3678 27.5728 13.2344 27.6022C12.9788 27.6572 12.8313 27.8163 12.8392 28.0081C12.8478 28.1301 12.9002 28.2449 12.9866 28.3314C13.0731 28.418 13.1878 28.4704 13.3098 28.4792C13.3787 28.4857 13.4485 28.4792 13.5188 28.4792L48.4874 28.4718C48.9996 28.4654 49.4638 28.9383 49.4582 29.4325C49.4402 31.1958 49.4513 32.9591 49.4513 34.7224C49.4513 35.2591 49.0815 35.6253 48.5447 35.6253L19.5908 35.628Z" fill="white"/>
</g>
</g>
<defs>
<clipPath id="clip0_127_308">
<rect width="40" height="40" fill="white" transform="translate(12 12)"/>
</clipPath>
<clipPath id="clip1_127_308">
<rect width="40" height="37.5215" fill="white" transform="translate(12 13.3333)"/>
</clipPath>
</defs>
</svg>
