<svg width="64" height="64" viewBox="0 0 64 64" fill="none" xmlns="http://www.w3.org/2000/svg">
<rect width="64" height="64" fill="black"/>
<path d="M45.9775 31.999C45.9775 29.1562 45.1234 26.5111 43.6605 24.301L48 19.9617L44.0974 16.0593L39.7697 20.3867C37.5475 18.8942 34.8746 18.0223 32.002 18.0223C29.159 18.0223 26.5138 18.8764 24.3035 20.3393L19.9619 16L16.0593 19.9024L20.387 24.2298C18.8943 26.4518 18.0225 29.1246 18.0225 31.997C18.0225 34.8398 18.8766 37.4849 20.3395 39.6951L16 44.0363L19.9026 47.9387L24.2303 43.6113C26.4525 45.1038 29.1254 45.9757 31.998 45.9757C34.841 45.9757 37.4862 45.1217 39.6965 43.6587L44.0381 48L47.9407 44.0976L43.613 39.7702C45.1057 37.5442 45.9775 34.8714 45.9775 31.999ZM23.5443 31.999C23.5443 27.3355 27.3382 23.5418 32.002 23.5418C36.6658 23.5418 40.4597 27.3355 40.4597 31.999C40.4597 36.6625 36.6658 40.4562 32.002 40.4562C27.3382 40.4562 23.5443 36.6625 23.5443 31.999Z" fill="white"/>
</svg>
