<svg width="64" height="64" viewBox="0 0 64 64" fill="none" xmlns="http://www.w3.org/2000/svg">
<rect width="64" height="64" fill="#BAFEC0"/>
<g clip-path="url(#clip0_127_60)">
<path d="M25.3816 15.7652L31.5174 12.2218C31.6922 12.121 31.909 12.121 32.0837 12.2218L48.2551 21.5584C48.4298 21.6592 48.5373 21.8456 48.5391 22.0473L48.5608 28.4688C48.5608 28.672 48.4533 28.8603 48.2768 28.9611L42.1494 32.4994C41.773 32.7179 41.301 32.4456 41.2992 32.0106L41.279 26.2476C41.279 26.046 41.1699 25.8595 40.9952 25.7587L25.3816 16.7464C25.0035 16.528 25.0035 15.9836 25.3816 15.7652Z" fill="#010101"/>
<path d="M21.4181 44.8518L15.2839 41.3101C15.1075 41.2093 15 41.0227 15 40.8194V22.1463C15 21.9447 15.1075 21.7582 15.2823 21.6557L20.8335 18.4248C21.0099 18.3223 21.2266 18.3223 21.4013 18.4248L27.5288 21.9632C27.9052 22.1816 27.9068 22.7243 27.5305 22.9444L22.5506 25.8426C22.3758 25.9435 22.2683 26.13 22.2683 26.3332V44.3629C22.2683 44.7997 21.7962 45.0702 21.4181 44.8518Z" fill="#010101"/>
<path d="M48.5609 33.7342V40.8178C48.5609 41.0211 48.4534 41.2075 48.2769 41.3083L32.1056 50.645C31.9309 50.7458 31.7158 50.7458 31.5411 50.645L25.968 47.4526C25.7916 47.3518 25.6824 47.1637 25.6824 46.9603V39.8853C25.6824 39.4502 26.1529 39.1779 26.5309 39.393L31.531 42.2576C31.7057 42.3586 31.9208 42.3568 32.0955 42.2576L47.7091 33.2421C48.087 33.0237 48.5592 33.2958 48.5592 33.7326L48.5609 33.7342Z" fill="#010101"/>
</g>
<defs>
<clipPath id="clip0_127_60">
<rect width="33.6" height="40" fill="white" transform="translate(15 12)"/>
</clipPath>
</defs>
</svg>
