<svg width="64" height="64" viewBox="0 0 64 64" fill="none" xmlns="http://www.w3.org/2000/svg">
<rect width="64" height="64" fill="#133629"/>
<path d="M18.7401 19.7001L31.0734 31.9926L43.4066 19.7001C40.1358 16.4092 35.7734 14.6029 31.0734 14.6029C26.3733 14.6029 22.0279 16.4092 18.7401 19.7001ZM31.0583 35.6966L15.1446 19.8364C15.5889 19.2698 16.0653 18.7181 16.5588 18.1984C20.2142 14.3878 25.3607 12 31.0734 12C36.786 12 41.9474 14.3878 45.5878 18.2005C46.0942 18.7054 46.5705 19.272 46.97 19.8215L31.0583 35.6946V35.6966ZM45.0046 24.874C46.0792 26.1605 46.7243 27.7814 46.7243 29.5877C46.7243 33.6434 43.4215 36.9343 39.3517 36.9343C37.5551 36.9343 35.9122 36.2909 34.6218 35.2195L31.0734 38.7554L27.5248 35.2195C26.2344 36.2909 24.6065 36.9343 22.7949 36.9343C18.7251 36.9343 15.4223 33.6434 15.4223 29.5877C15.4223 27.7963 16.0675 26.1584 17.1421 24.874L15.4821 23.221L13.9012 21.6448C12.0596 24.6737 11 28.2095 11 32.0074C11 43.0602 19.9834 52 31.0583 52C42.1332 52 51.1168 43.0454 51.1168 32.0074C51.1466 28.1968 50.0869 24.661 48.2432 21.6448L45.0025 24.874H45.0046ZM39.3517 34.7488C42.2252 34.7637 44.558 32.4355 44.558 29.5578C44.558 28.3651 44.1586 27.2617 43.4685 26.3735L36.1578 33.6603C37.0338 34.3483 38.1383 34.7466 39.3517 34.7466V34.7488ZM17.6035 29.5728C17.6035 28.3629 18.003 27.2617 18.6931 26.3905L26.0037 33.6774C25.1128 34.3654 24.0083 34.7637 22.8098 34.7637C19.9215 34.7637 17.5886 32.4355 17.6035 29.5728Z" fill="#F0EBDE"/>
</svg>
