<svg width="64" height="64" viewBox="0 0 64 64" fill="none" xmlns="http://www.w3.org/2000/svg">
<g clip-path="url(#clip0_15_307)">
<path d="M64 0H0V64H64V0Z" fill="#2362C1"/>
<path d="M37.6966 14H45.1445C46.1606 14 47.0697 14.5965 47.4244 15.4959L53.9617 32.0721C54.0122 32.2 54.0128 32.3406 53.9634 32.4689L53.9268 32.5641L53.9264 32.5651L47.4166 49.4868C47.0671 50.3952 46.1532 51 45.1299 51H37.6831C37.2644 51 36.9709 50.6096 37.1089 50.2361L43.8214 32.0721L37.1253 14.7718C36.9802 14.397 37.274 14 37.6966 14Z" fill="white"/>
<path d="M18.2547 14H25.7025C26.7186 14 27.6277 14.5965 27.9825 15.4959L34.5198 32.0721C34.5702 32.2 34.5708 32.3406 34.5215 32.4689L34.4848 32.5641L34.4845 32.5651L27.9747 49.4868C27.6252 50.3952 26.7113 51 25.688 51H18.2412C17.8225 51 17.529 50.6096 17.667 50.2361L24.3795 32.0721L17.6834 14.7718C17.5383 14.397 17.8321 14 18.2547 14Z" fill="white"/>
<path d="M42.7505 28.5387H32.2366V36.5575H42.7505L44.4684 32.4336L42.7505 28.5387Z" fill="white"/>
<path d="M34.0641 14H41.512C42.5281 14 43.4372 14.5965 43.7919 15.4959L50.3292 32.0721C50.3797 32.2 50.3803 32.3406 50.3309 32.4689L50.2943 32.5641L50.2939 32.5651L43.7841 49.4868C43.4346 50.3952 42.5207 51 41.4974 51H34.0506C33.6319 51 33.3384 50.6096 33.4764 50.2361L40.1889 32.0721L33.4928 14.7718C33.3477 14.397 33.6415 14 34.0641 14Z" fill="white"/>
<path d="M14.6222 14H22.0701C23.0862 14 23.9953 14.5965 24.35 15.4959L30.8873 32.0721C30.9377 32.2 30.9383 32.3406 30.889 32.4689L30.8523 32.5641L30.852 32.5651L24.3422 49.4868C23.9927 50.3952 23.0788 51 22.0555 51H14.6087C14.19 51 13.8965 50.6096 14.0345 50.2361L20.747 32.0721L14.0509 14.7718C13.9058 14.397 14.1996 14 14.6222 14Z" fill="white"/>
<path d="M39.118 28.5387H28.6041V36.5575H39.118L40.836 32.4336L39.118 28.5387Z" fill="white"/>
</g>
<defs>
<clipPath id="clip0_15_307">
<rect width="64" height="64" fill="white"/>
</clipPath>
</defs>
</svg>
