<svg width="64" height="64" viewBox="0 0 64 64" fill="none" xmlns="http://www.w3.org/2000/svg">
<rect width="64" height="64" fill="url(#paint0_linear_6_133)"/>
<path d="M16.848 18.9152C17.0999 18.6038 17.3592 18.2986 17.6258 17.9997C17.6348 17.9847 17.6617 17.9817 17.6737 17.9697C17.6976 17.9398 17.7335 17.9189 17.7605 17.892L17.7844 17.8621C17.9669 17.6915 18.1614 17.506 18.3887 17.3445C19.142 16.7607 19.9832 16.3002 20.8809 15.9802C23.6782 14.9989 26.7897 15.6032 29.2281 17.9069C32.6387 21.1022 32.3306 26.2451 29.611 29.6648C26.1735 34.7628 20.2676 41.8774 28.4442 48.2469C29.9162 49.3928 31.0082 50.3382 35.6395 51.6755C32.6088 52.235 29.7995 52.0615 26.6731 51.2627C24.4621 50.0151 20.9886 47.3434 19.8039 43.7323C18.0147 38.2572 22.9512 30.0747 25.3387 26.9213C28.6117 22.5592 23.3132 17.8381 19.412 23.1097C17.3715 25.8562 13.8023 33.6319 15.0439 39.3972C15.7679 42.6672 16.7342 45.0517 20.5668 48.3247C19.8547 47.9059 19.1666 47.4302 18.4965 46.8976C9.59579 38.6073 10.628 25.7874 16.851 18.9152H16.848Z" fill="white"/>
<path d="M47.1491 45.0876C46.8991 45.3979 46.6417 45.7021 46.3772 46.0001C46.3652 46.015 46.3383 46.018 46.3263 46.033C46.3024 46.0629 46.2635 46.0809 46.2396 46.1108L46.2156 46.1407C46.0331 46.3112 45.8386 46.4937 45.6113 46.6553C44.8582 47.2401 44.017 47.7016 43.1191 48.0225C40.3218 49.0039 37.2103 48.3995 34.7719 46.0958C31.3613 42.9006 31.6694 37.7546 34.389 34.338C37.8266 29.2369 43.7324 22.1254 35.5558 15.7528C34.0838 14.6099 32.9918 13.6645 28.3605 12.3242C31.3912 11.7677 34.1975 11.9412 37.324 12.7401C39.5379 13.9876 43.0144 16.6593 44.1961 20.2704C45.9853 25.7455 41.0488 33.9281 38.6613 37.0785C35.3883 41.4405 40.6868 46.1616 44.5881 40.893C46.6285 38.1436 50.1977 30.3708 48.9561 24.6026C48.2321 21.3355 47.2658 18.9481 43.4332 15.675C44.1556 16.1022 44.8474 16.5791 45.5036 17.1021C54.4042 25.3954 53.3721 38.2154 47.1491 45.0876Z" fill="white"/>
<defs>
<linearGradient id="paint0_linear_6_133" x1="32" y1="64" x2="32" y2="0" gradientUnits="userSpaceOnUse">
<stop stop-color="#0187FB"/>
<stop offset="1" stop-color="#01EAFE"/>
</linearGradient>
</defs>
</svg>
