<svg width="64" height="64" viewBox="0 0 64 64" fill="none" xmlns="http://www.w3.org/2000/svg">
<rect width="64" height="64" fill="url(#paint0_linear_127_77)"/>
<path d="M28.1348 51.9117L33.3547 46.0466C33.443 45.9582 33.3838 45.8117 33.2373 45.8117H27.4896C27.4455 45.8046 27.4046 45.7843 27.3722 45.7536L22.5045 40.2989C22.4754 40.2407 22.4453 40.1815 22.4754 40.1222L30.6274 26.1342C30.6565 26.0761 30.6565 26.0169 30.6274 25.9888L27.2548 20.1808C27.1966 20.0936 27.0501 20.0936 26.9909 20.1808L14.9386 40.8869C14.9242 40.914 14.9167 40.9441 14.9167 40.9747C14.9167 41.0053 14.9242 41.0355 14.9386 41.0625L24.6147 51.9407C24.6438 51.9709 24.6729 52 24.7321 52H28.0164C28.0455 51.9709 28.1057 51.9418 28.1348 51.9117Z" fill="white"/>
<path d="M31.7119 12.0881L28.3103 17.894C28.2812 17.9532 28.2812 18.0113 28.3103 18.0405L31.8293 24.0822L41.1553 40.093C41.1844 40.1523 41.1844 40.2115 41.1263 40.2697L36.1993 45.7826L30.9493 51.7069C30.862 51.7952 30.9202 51.9417 31.0667 51.9417H38.9267C38.9709 51.9342 39.0118 51.9136 39.0441 51.8825L48.7213 41.0032C48.7504 40.944 48.7795 40.8858 48.7504 40.8266L31.9468 12.0881C31.9177 11.9706 31.7701 11.9706 31.7119 12.0881Z" fill="white"/>
<defs>
<linearGradient id="paint0_linear_127_77" x1="32" y1="0" x2="32" y2="64" gradientUnits="userSpaceOnUse">
<stop stop-color="#4070F4"/>
<stop offset="1" stop-color="#295CE9"/>
</linearGradient>
</defs>
</svg>
