<svg width="64" height="64" viewBox="0 0 64 64" fill="none" xmlns="http://www.w3.org/2000/svg">
<rect width="64" height="64" fill="white"/>
<g clip-path="url(#clip0_127_83)">
<path fill-rule="evenodd" clip-rule="evenodd" d="M50.5365 25.4127C50.5365 23.7185 49.6328 22.1531 48.1656 21.306L34.9518 13.677C33.4846 12.8299 31.677 12.8299 30.2098 13.677L16.996 21.306C15.5288 22.153 14.625 23.7185 14.625 25.4127V40.6707C14.625 42.3648 15.5288 43.9304 16.996 44.7773L30.2098 52.4064C31.677 53.2533 33.4846 53.2533 34.9518 52.4064L48.1656 44.7773C49.6328 43.9304 50.5365 42.3648 50.5365 40.6707V25.4127ZM28.549 23.5573C27.6543 23.5573 26.8275 24.0346 26.3802 24.8094L22.3513 31.7877C21.904 32.5625 21.904 33.5171 22.3513 34.2919L26.3802 41.2701C26.8275 42.0451 27.6543 42.5224 28.549 42.5224H36.6068C37.5014 42.5224 38.3282 42.0451 38.7755 41.2701L42.8045 34.2919C43.2517 33.5171 43.2517 32.5625 42.8045 31.7877L38.7755 24.8094C38.3282 24.0346 37.5014 23.5573 36.6068 23.5573H28.549Z" fill="black"/>
</g>
<defs>
<clipPath id="clip0_127_83">
<rect width="40" height="42.6667" fill="white" transform="translate(12 11)"/>
</clipPath>
</defs>
</svg>
