<svg width="64" height="64" viewBox="0 0 64 64" fill="none" xmlns="http://www.w3.org/2000/svg">
<rect width="64" height="64" fill="url(#paint0_linear_6_132)"/>
<path fill-rule="evenodd" clip-rule="evenodd" d="M21.2989 46.3424C16.9348 43.0815 14.1033 37.8696 14.1033 32C14.1033 22.1196 22.1196 14.1033 32 14.1033C40.1576 14.1033 49.0652 18.9783 51.2174 26.4456C48.8097 18.1033 41.1196 12 32 12C20.9565 12 12 20.9565 12 32C12 43.0435 20.9565 52 32 52C43.0435 52 52 43.0435 52 32V30.9456H50.9021C50.8696 30.9456 50.8206 30.9456 50.7554 30.9456C50.625 30.9456 50.4402 30.9403 50.2011 30.9294C49.7282 30.913 49.0761 30.8804 48.3424 30.8153C46.8424 30.6848 45.1304 30.4294 43.9674 29.962C42.0924 29.212 41.0326 28.2229 39.8261 27.0598L39.7554 26.9946C38.5435 25.8315 37.1848 24.5218 34.8206 23.413C32.4946 22.3207 29.9239 22.4946 28.038 22.8859C27.0815 23.0815 26.2554 23.3424 25.6739 23.5543C25.3804 23.6576 25.1468 23.7554 24.9838 23.8207C24.0326 24.2228 23.1087 24.6956 22.1794 25.1359C22.1794 25.1359 24.0109 25.6359 24.913 25.9185C24.9456 25.9294 24.9946 25.9456 25.0652 25.9674C25.2011 26.0109 25.3967 26.0815 25.6304 26.1794C26.1087 26.375 26.7338 26.663 27.3533 27.0653C28.3315 27.6903 29.1413 28.4838 29.4729 29.4511C27.4021 29.7229 25.4565 30.6359 24 31.4891C23.1196 32.0054 22.3859 32.5271 21.8696 32.913C21.6141 33.1088 21.4076 33.2717 21.2663 33.3859C21.1467 33.4837 19.2772 35.1304 19.2772 35.1304C19.2772 35.1304 21.6902 35.3859 22.8804 35.625C23.6739 35.7826 24.7391 36.0435 25.8587 36.4294C26.9782 36.8206 28.1088 37.3315 29.0489 37.9891C29.9891 38.6467 30.6794 39.4021 31.0163 40.2717C32.0054 42.8044 31.0326 45.2663 29.0815 46.6521C27.1521 48.0218 24.2228 48.3479 21.2935 46.337L21.2989 46.3424ZM28.125 49.4729C28.913 49.2174 29.6468 48.8424 30.3098 48.375C32.962 46.4891 34.3588 43.0326 32.9838 39.5109C32.4403 38.125 31.4076 37.0706 30.2609 36.2663C29.1087 35.462 27.788 34.875 26.5598 34.4456C25.7554 34.163 24.9729 33.9456 24.2935 33.7826C24.538 33.625 24.7935 33.462 25.0706 33.2989C26.6903 32.3479 28.7337 31.4729 30.6902 31.4729C33.6412 31.4729 35.837 32.3804 37.9348 33.3479C38.125 33.4348 38.3153 33.5271 38.5109 33.6141C40.3859 34.4946 42.3533 35.4185 44.6413 35.4185C46.9294 35.4185 48.587 34.7935 49.7771 34.1412C48.7174 43.0109 41.1685 49.8912 32.0109 49.8912C30.6794 49.8912 29.3804 49.7446 28.1359 49.4729H28.125ZM47.4946 32.8533C46.7065 33.1196 45.75 33.3153 44.6359 33.3153C42.8424 33.3153 41.2989 32.5979 39.3424 31.6847C39.1685 31.6032 38.9946 31.5218 38.8152 31.4403C36.8532 30.5326 34.587 29.5706 31.6359 29.3968C31.2391 27.4456 29.7609 26.1087 28.4891 25.2935C28.3479 25.2011 28.2065 25.1141 28.0652 25.0326C28.1902 25.0054 28.3206 24.9729 28.4565 24.9456C30.163 24.5924 32.1956 24.5054 33.9185 25.3206C35.962 26.2826 37.1196 27.3913 38.3206 28.5435L38.3641 28.5815C39.5979 29.7662 40.9076 31.0109 43.1847 31.9239C44.4511 32.4294 46.0924 32.7011 47.4946 32.8533Z" fill="white"/>
<defs>
<linearGradient id="paint0_linear_6_132" x1="32" y1="-10.5" x2="32" y2="78.5" gradientUnits="userSpaceOnUse">
<stop stop-color="#29CCB9"/>
<stop offset="0.49" stop-color="#0091FF"/>
<stop offset="1" stop-color="#FF66B7"/>
</linearGradient>
</defs>
</svg>
