<svg width="64" height="64" viewBox="0 0 64 64" fill="none" xmlns="http://www.w3.org/2000/svg">
<rect width="64" height="64" fill="black"/>
<path d="M20.1267 25.6437L14.1393 22.5952C13.671 23.5154 13.2721 24.4801 12.9547 25.4627L19.3479 27.5299C19.5569 26.8837 19.8183 26.249 20.1267 25.6437Z" fill="white"/>
<path d="M25.2126 20.2711L28.5289 25.9851C29.0133 25.7042 29.5316 25.4882 30.0709 25.3432L28.3546 18.9631C28.7913 18.8456 29.2352 18.7486 29.6816 18.6782L28.6269 12.042C27.6068 12.204 26.5932 12.4484 25.6135 12.7678L27.6643 19.053C27.012 19.266 26.3767 19.5304 25.7649 19.8433L22.7505 13.9593C21.8338 14.4292 20.9472 14.975 20.114 15.5833L24.075 21.0104C24.4399 20.7444 24.8217 20.4985 25.2126 20.2711Z" fill="white"/>
<path d="M43.0086 25.0053L37.2966 28.3247C37.578 28.8084 37.7939 29.3272 37.9394 29.8656L44.3191 28.1462C44.4366 28.583 44.5336 29.0264 44.6045 29.4722L51.2397 28.4156C51.0773 27.396 50.8323 26.3818 50.512 25.4017L44.2277 27.4564C44.0143 26.8042 43.7498 26.1694 43.4364 25.5576L49.3184 22.5392C48.8485 21.6236 48.3017 20.7369 47.6935 19.9041L42.2679 23.8678C42.5343 24.2327 42.7813 24.6139 43.0086 25.0053Z" fill="white"/>
<path d="M40.6794 13.9324C39.7582 13.4646 38.7935 13.0662 37.8119 12.7494L35.7481 19.1436C36.3938 19.352 37.0286 19.6139 37.6349 19.9218L40.6794 13.9324Z" fill="white"/>
<path d="M38.2936 20.154L34.9393 25.9755C35.4252 26.2554 35.873 26.5983 36.2713 26.995L45.679 17.5554C44.9493 16.8282 44.1565 16.1529 43.3228 15.5481L39.4427 20.8992C39.0728 20.6313 38.6894 20.3824 38.2936 20.154Z" fill="white"/>
<path d="M20.36 24.9842L26.1799 28.3421C26.4598 27.8568 26.8037 27.4084 27.2011 27.0095L17.7654 17.5984C17.0377 18.3281 16.3619 19.1204 15.7571 19.9536L21.1062 23.8362C20.8383 24.2055 20.5884 24.5884 20.36 24.9842Z" fill="white"/>
<path d="M33.7797 18.5652L34.7948 12.0331C33.7917 11.8771 32.7651 11.7981 31.7429 11.7981H31.7275V25.1254H31.7429C32.3048 25.1254 32.8606 25.1974 33.3954 25.3394L35.1187 18.8451C34.6779 18.7282 34.231 18.6357 33.7797 18.5652Z" fill="white"/>
<path d="M25.5417 29.8848L19.0485 28.1569C18.931 28.5977 18.8381 29.0445 18.7676 29.4959L12.2364 28.4777C12.0795 29.4844 12 30.515 12 31.5402H25.3272C25.3272 30.9774 25.3994 30.4201 25.5417 29.8848Z" fill="white"/>
<path d="M43.3594 37.4387L49.3467 40.4871C49.815 39.5669 50.2139 38.6023 50.5313 37.6197L44.1381 35.5523C43.9291 36.1986 43.6678 36.8334 43.3594 37.4387Z" fill="white"/>
<path d="M38.2731 42.8098L34.9567 37.0959C34.4724 37.3768 33.9541 37.5926 33.4148 37.7376L35.1312 44.1178C34.6938 44.2354 34.2505 44.3323 33.8042 44.4028L34.8583 51.0384C35.8785 50.8764 36.8921 50.632 37.8718 50.3127L35.821 44.0274C36.4737 43.8145 37.1085 43.5501 37.7203 43.2372L40.7347 49.1211C41.6513 48.6512 42.538 48.1054 43.3712 47.4972L39.4101 42.0701C39.0453 42.336 38.664 42.5824 38.2731 42.8098Z" fill="white"/>
<path d="M20.4777 38.0773L26.1902 34.7581C25.9088 34.2742 25.6928 33.7554 25.5474 33.2171L19.1676 34.9364C19.0502 34.4996 18.9532 34.0562 18.8822 33.6104L12.2466 34.667C12.409 35.6867 12.6539 36.7009 12.9743 37.681L19.2586 35.6262C19.472 36.2785 19.7364 36.9133 20.0498 37.5251L14.1679 40.5435C14.6377 41.4591 15.1845 42.3458 15.7928 43.1785L21.2184 39.2149C20.952 38.8501 20.7051 38.4687 20.4777 38.0773Z" fill="white"/>
<path d="M22.8066 49.1494C23.7278 49.6173 24.6924 50.0156 25.6742 50.3325L27.7379 43.9383C27.0921 43.7298 26.4574 43.4679 25.851 43.16L22.8066 49.1494Z" fill="white"/>
<path d="M25.1923 42.9286L28.5467 37.1072C28.0609 36.8274 27.613 36.4844 27.2146 36.0877L17.807 45.5272C18.5367 46.2545 19.3295 46.9297 20.1632 47.5346L24.0433 42.1835C24.4132 42.4514 24.7965 42.7002 25.1923 42.9286Z" fill="white"/>
<path d="M43.1258 38.0983L37.3058 34.7405C37.0259 35.2258 36.682 35.6742 36.2847 36.073L45.7199 45.4846C46.4476 44.7549 47.1233 43.9627 47.7282 43.1295L42.379 39.2469C42.647 38.8775 42.8974 38.4942 43.1258 38.0983Z" fill="white"/>
<path d="M30.0906 37.7419L28.3672 44.2362C28.8081 44.3531 29.2549 44.4456 29.7063 44.5161L28.6917 51.0482C29.6948 51.2042 30.7214 51.2831 31.7436 51.2831H31.759V37.9559H31.7436C31.1817 37.9559 30.6254 37.8839 30.0906 37.7419Z" fill="white"/>
<path d="M38.1588 31.5416C38.1588 32.1044 38.0864 32.6612 37.9439 33.197L44.4371 34.9249C44.5546 34.484 44.6476 34.0372 44.718 33.5858L51.2497 34.6045C51.4066 33.5978 51.4861 32.5672 51.4861 31.5421L38.1588 31.5416Z" fill="white"/>
</svg>
