<svg width="64" height="64" viewBox="0 0 64 64" fill="none" xmlns="http://www.w3.org/2000/svg">
<rect width="64" height="64" fill="#0F0832"/>
<path fill-rule="evenodd" clip-rule="evenodd" d="M52 32C52 20.9543 43.0457 12 32 12C20.9543 12 12 20.9543 12 32C12 36.9793 13.8196 41.5336 16.8302 45.0342L28.2186 34.4831C28.4784 34.2424 28.3385 33.8079 27.9871 33.764L21.7113 32.9795C21.2346 32.9199 21.2206 32.2341 21.6945 32.1551L26.9635 31.2769C27.2682 31.2261 27.4136 30.8731 27.2332 30.6225L21.7529 23.011C21.4733 22.6226 21.9621 22.1462 22.3432 22.4358L29.9658 28.229C30.2215 28.4233 30.5916 28.2676 30.6314 27.949L31.2488 23.0098C31.3078 22.5372 31.9857 22.5176 32.072 22.986L32.9225 27.6029C32.9779 27.9036 33.3275 28.0442 33.5757 27.8655L41.3812 22.2455C41.7646 21.9695 42.2388 22.4437 41.9628 22.8271L36.3623 30.6056C36.1789 30.8603 36.3323 31.2186 36.6431 31.2618L41.3295 31.9127C41.7834 31.9757 41.8178 32.6185 41.3733 32.7296L36.5739 33.9294C36.283 34.0022 36.1618 34.349 36.3442 34.587L41.8883 41.8252C42.1759 42.2008 41.7144 42.6891 41.3232 42.4231L33.5581 37.1429C33.3124 36.9757 32.9757 37.1123 32.9157 37.4034L32.0608 41.5557C31.9668 42.0124 31.308 41.9934 31.2405 41.532L30.4592 36.1937C30.4086 35.8476 29.9797 35.7142 29.7416 35.9705L19.1764 47.3485C22.6482 50.2522 27.12 52 32 52C43.0457 52 52 43.0457 52 32Z" fill="url(#paint0_linear_127_113)"/>
<defs>
<linearGradient id="paint0_linear_127_113" x1="12" y1="32" x2="52" y2="32" gradientUnits="userSpaceOnUse">
<stop stop-color="#3B30D3"/>
<stop offset="1" stop-color="#AB66FF"/>
</linearGradient>
</defs>
</svg>
