<svg width="64" height="64" viewBox="0 0 64 64" fill="none" xmlns="http://www.w3.org/2000/svg">
<rect width="64" height="64" fill="#00CFFF"/>
<path d="M51.9891 29.7053C51.3444 29.2172 50.6735 28.7646 49.9795 28.3497C49.6839 28.1638 49.41 27.9455 49.1628 27.699C48.6442 27.1839 47.7766 26.2892 47.4953 25.7368C47.3157 25.3979 47.3903 24.7472 47.5293 24.144C47.7752 23.0801 47.5913 21.9621 47.0176 21.033L46.1127 19.5656C45.6972 18.8958 45.3628 18.1792 45.1164 17.4305C44.8061 16.4678 44.2637 15.596 43.5371 14.8923C42.0697 13.4587 38.0098 12.7538 34.6377 12.642C34.4286 12.5795 34.2158 12.5298 34.0007 12.4929C32.4993 12.2353 30.8964 11.8151 29.4595 12.0896C27.3244 12.4895 25.1691 13.1571 23.5559 14.8007C23.217 15.1396 22.7257 15.2921 22.3766 15.6073C21.6988 16.2342 20.7465 16.2342 20.1297 16.929C19.7705 17.3323 19.6044 18.6573 18.6589 19.1623C17.0932 19.9993 15.9478 20.9245 15.558 21.3956C15.27 21.7514 15.0497 22.1649 14.7684 22.5275C14.4871 22.8901 13.1383 23.5273 12.7351 23.9204C12.4358 24.2519 12.2186 24.6492 12.1009 25.08C11.9832 25.5109 11.9683 25.9634 12.0573 26.401C12.081 26.5061 12.0979 26.5908 12.1115 26.6587C12.2674 27.2347 12.6842 28.2752 12.5893 28.753C12.4741 29.3189 11.0203 33.5348 14.2838 34.6565C14.5824 34.7458 14.8444 34.9288 15.0311 35.1784C15.2178 35.428 15.3194 35.7309 15.3208 36.0426C15.3913 36.6053 15.5539 37.1526 15.8021 37.6625C16.0189 38.0756 16.3387 38.4258 16.7306 38.6792C17.1485 39.0766 17.5434 39.4975 17.9134 39.9399C19.0656 42.0715 18.7403 43.139 20.9634 43.8609C21.5307 44.048 22.0752 44.298 22.5867 44.6065C23.2101 44.9825 23.8785 45.2786 24.576 45.4875L24.6641 45.5181C25.1521 44.3319 25.6503 43.2102 26.1451 42.1494C22.1732 38.0827 23.217 33.5111 23.6 32.291C23.611 32.2548 23.631 32.222 23.658 32.1955C23.6849 32.1689 23.7181 32.1496 23.7545 32.1392C23.7909 32.1287 23.8292 32.1275 23.8662 32.1358C23.9031 32.1439 23.9374 32.1612 23.966 32.186C24.7997 32.918 27.355 35.5512 27.0397 40.3194C27.9141 38.5673 28.7681 37.0288 29.5476 35.7139C28.6094 34.1728 28.1084 32.4054 28.0982 30.6012C28.0881 28.797 28.5692 27.024 29.4899 25.4725C29.5103 25.4395 29.5388 25.4124 29.5726 25.3935C29.6063 25.3747 29.6444 25.3648 29.6831 25.3648C29.7218 25.3648 29.7599 25.3747 29.7937 25.3935C29.8275 25.4124 29.8559 25.4395 29.8763 25.4725C30.4626 26.34 32.0486 29.2003 31.0658 33.2671C31.7775 32.1758 32.357 31.3693 32.7366 30.8643C33.7533 24.0864 38.8773 21.8633 40.2227 21.3922C40.2588 21.3794 40.2976 21.376 40.3354 21.3822C40.3732 21.3884 40.4088 21.4041 40.4388 21.4278C40.469 21.4515 40.4926 21.4824 40.5075 21.5176C40.5225 21.5529 40.5282 21.5913 40.5243 21.6294C40.3105 23.6936 39.555 25.6645 38.3345 27.3428C37.1139 29.021 35.4715 30.3469 33.5736 31.1863C32.8586 32.125 32.1706 33.1145 31.5132 34.1278C33.7838 32.3554 36.9626 31.5218 39.606 32.1622C39.643 32.1707 39.6774 32.1883 39.706 32.2133C39.7347 32.2382 39.7566 32.27 39.7701 32.3055C39.7835 32.3411 39.7879 32.3794 39.7829 32.4171C39.7779 32.4548 39.7637 32.4907 39.7415 32.5215C38.9824 33.5381 35.9594 36.9271 30.2524 36.1442C29.29 37.7676 28.4089 39.4078 27.626 40.9803C30.0864 39.1197 33.6787 38.408 36.4644 39.3434C36.5016 39.3554 36.5352 39.3765 36.5622 39.4048C36.5891 39.4332 36.6085 39.4677 36.6187 39.5055C36.6287 39.5433 36.6292 39.583 36.6201 39.6209C36.6109 39.6589 36.5923 39.694 36.5661 39.723C35.7019 40.6549 32.3706 43.7118 26.8907 42.4985C26.3755 43.583 25.6096 45.3689 25.2368 46.25C25.1081 46.555 24.9895 46.8601 24.8979 47.1719C24.6539 47.8903 24.3286 48.7884 23.9389 49.6831C23.8847 49.811 23.8574 49.9486 23.8586 50.0875C23.8597 50.2264 23.8893 50.3636 23.9455 50.4906C24.0017 50.6177 24.0833 50.7319 24.1853 50.8261C24.2873 50.9204 24.4076 50.9926 24.5387 51.0386C28.861 52.5834 33.5545 52.7574 37.9793 51.5368C38.1254 51.495 38.2605 51.421 38.3742 51.3201C38.488 51.2192 38.5777 51.0941 38.6367 50.9539L38.8197 50.5269C38.8197 50.5269 40.7311 46.0908 41.0123 44.1557C41.0926 43.5462 41.2821 42.9562 41.5715 42.4138C41.7207 42.1425 41.9365 41.9137 42.1985 41.7488C42.4606 41.584 42.7603 41.4886 43.0694 41.4717C44.5267 41.3937 47.6276 41.1904 48.7561 40.8312C50.254 40.3567 49.6033 37.6252 49.5254 37.3304C49.4474 37.0355 50.2472 36.351 50.4099 35.9545C50.5726 35.5579 50.0066 35.4156 49.7728 34.9785C49.5389 34.5413 50.3523 34.2227 50.4506 33.8262C50.5488 33.4297 50.1862 32.9925 50.0304 32.6977C49.9267 32.4836 49.8559 32.2551 49.8202 32.0199C49.8202 32.0199 50.9148 31.2167 51.5146 30.7118C52.1145 30.2068 51.9891 29.7866 51.9891 29.6951" fill="black"/>
</svg>
