<svg width="96" height="96" viewBox="0 0 96 96" fill="none" xmlns="http://www.w3.org/2000/svg">
<rect width="96" height="96" fill="#30BF54"/>
<path d="M24 24C37.2555 24 48 34.7445 48 48C34.7445 48 24 37.2555 24 24ZM72 72C58.7445 72 48 61.2555 48 48C61.2555 48 72 58.7445 72 72ZM48 48C48 44.8174 49.2643 41.7652 51.5147 39.5147C53.7652 37.2643 56.8174 36 60 36C60 39.1826 58.7357 42.2348 56.4853 44.4853C54.2348 46.7357 51.1826 48 48 48ZM48 48C48 51.1826 46.7357 54.2348 44.4853 56.4853C42.2348 58.7357 39.1826 60 36 60C36 56.8174 37.2643 53.7652 39.5147 51.5147C41.7652 49.2643 44.8174 48 48 48Z" fill="#EBF5ED"/>
</svg>
