<svg width="64" height="64" viewBox="0 0 64 64" fill="none" xmlns="http://www.w3.org/2000/svg">
<rect width="64" height="64" fill="black"/>
<path d="M48.5 41.795C48.5067 40.9 51.92 40.9383 51.8967 40.1017C51.88 39.4567 50.3683 39.4717 50.8433 38.1067C51.5433 36.0733 51.9233 33.89 51.9233 31.6183C51.9233 20.5933 42.9833 11.6566 31.9617 11.6566C20.9367 11.6566 12 20.5933 12 31.6183C11.9977 33.8775 12.3799 36.1207 13.13 38.2517C13.4133 39.1567 12.0033 39.5117 12.0033 40.0517C12.0033 40.8983 14.9734 40.785 14.9734 41.7683C14.9734 42.6283 12.0383 42.8917 12.0383 43.7583C12.0383 44.9533 18.54 44.5367 18.6217 45.565C18.6867 46.36 16.3884 46.4067 16.3734 47.255C16.3517 48.6083 25.2483 48.165 25.2483 49.0667C25.2483 49.7483 21.2017 49.5017 21.2017 50.3067C21.2017 51.1117 26.5284 51.6233 32.3983 51.6233C38.2683 51.6233 42.32 50.97 42.32 50.2633C42.32 49.5583 38.54 49.705 38.6183 49.0667C38.755 47.955 47.1417 48.5233 47.1417 47.2383C47.1417 46.56 44.835 46.4017 44.9083 45.6717C45.015 44.6383 51.9233 44.7933 51.9233 43.7217C51.9233 42.88 48.5017 42.6717 48.505 41.7983L48.5 41.795ZM43.15 39.2017C42.9667 39.8833 45.07 39.985 45.07 40.6967C45.07 41.5617 38.6567 41.2167 38.72 42.3617C38.76 43.0817 43.2767 43.2033 43.19 43.9567C43.0667 45.0467 36.1967 44.5033 36.1283 45.5467C36.0783 46.3133 39.4817 46.3383 39.4883 47.0367C39.495 47.625 36.815 47.945 31.6883 47.945C25.8433 47.945 23.005 47.63 23.3267 46.9733C23.6283 46.36 28.8017 46.4733 28.75 45.5083C28.6967 44.545 19.5634 44.83 19.2867 43.895C19.0584 43.1183 22.2883 42.9583 22.2683 42.22C22.2467 41.4683 18.13 41.6383 18.04 40.7283C17.9817 40.1283 20.1917 40.1683 20.0967 39.415C20.0267 38.8683 19.1133 38.945 18.5733 37.815C17.5324 35.5678 17.0741 33.0945 17.2409 30.6235C17.4077 28.1525 18.1941 25.7634 19.5276 23.6764C20.8611 21.5895 22.6988 19.872 24.871 18.6824C27.0432 17.4929 29.48 16.8695 31.9567 16.87C34.3845 16.8694 36.775 17.4682 38.9158 18.6134C41.0567 19.7585 42.8817 21.4145 44.2287 23.4344C45.5758 25.4542 46.4033 27.7753 46.638 30.1918C46.8725 32.6083 46.5068 35.0455 45.5733 37.2867C44.8817 38.8567 43.3233 38.5417 43.145 39.2033H43.1483L43.15 39.2017Z" fill="white"/>
</svg>
