<svg width="64" height="64" viewBox="0 0 64 64" fill="none" xmlns="http://www.w3.org/2000/svg">
<rect width="64" height="64" fill="#FF0420"/>
<path d="M20.1125 42.4218C17.7288 42.4218 15.7758 41.8665 14.2535 40.7556C12.7512 39.625 12 38.0185 12 35.9358C12 35.4994 12.0501 34.9639 12.1502 34.3291C12.4106 32.9011 12.7812 31.1852 13.262 29.1819C14.6241 23.7273 18.1395 21 23.8082 21C25.3506 21 26.7327 21.2579 27.9546 21.7735C29.1765 22.2695 30.1379 23.0233 30.8391 24.0347C31.5402 25.0266 31.8907 26.2167 31.8907 27.605C31.8907 28.0216 31.8407 28.5471 31.7405 29.1819C31.4399 30.9473 31.0794 32.6629 30.6589 34.3291C29.9577 37.0466 28.7458 39.0797 27.0233 40.4284C25.3005 41.7573 22.997 42.4218 20.1125 42.4218ZM20.5332 38.1375C21.655 38.1375 22.6064 37.8101 23.3877 37.1556C24.1889 36.5011 24.7597 35.4994 25.1003 34.1506C25.561 32.2861 25.9114 30.6596 26.1519 29.2711C26.2321 28.8547 26.2721 28.4282 26.2721 27.9918C26.2721 26.1869 25.3205 25.2843 23.4176 25.2843C22.2959 25.2843 21.3343 25.6116 20.5332 26.2662C19.752 26.9207 19.1911 27.9224 18.8506 29.2711C18.49 30.6001 18.1295 32.2266 17.7689 34.1506C17.6888 34.5473 17.6487 34.9639 17.6487 35.4002C17.6487 37.2251 18.6102 38.1375 20.5332 38.1375Z" fill="#FEF2F2"/>
<path d="M32.1694 42.1243C31.9488 42.1243 31.7786 42.0549 31.6585 41.9161C31.5584 41.7575 31.5283 41.579 31.5684 41.3806L35.7148 22.0414C35.7548 21.8232 35.865 21.6447 36.0452 21.5058C36.2256 21.3671 36.4159 21.2976 36.6162 21.2976H44.6085C46.832 21.2976 48.6146 21.7537 49.9566 22.6662C51.3188 23.5786 52 24.8976 52 26.6233C52 27.1191 51.9398 27.6349 51.8197 28.1705C51.3188 30.4514 50.3074 32.1374 48.7849 33.2284C47.2826 34.3193 45.2193 34.8647 42.5954 34.8647H38.539L37.1569 41.3806C37.1168 41.5988 37.0066 41.7772 36.8265 41.9161C36.6461 42.0549 36.456 42.1243 36.2555 42.1243H32.1694ZM42.8056 30.7588C43.647 30.7588 44.3783 30.5309 44.9991 30.0746C45.6402 29.6184 46.0607 28.9639 46.261 28.111C46.321 27.7736 46.3513 27.4762 46.3513 27.2183C46.3513 26.6432 46.1809 26.2067 45.8405 25.9093C45.4999 25.5919 44.919 25.4332 44.0978 25.4332H40.4921L39.3504 30.7588H42.8056Z" fill="#FEF2F2"/>
</svg>
