<svg width="64" height="64" viewBox="0 0 64 64" fill="none" xmlns="http://www.w3.org/2000/svg">
<rect width="64" height="64" fill="url(#paint0_linear_127_152)"/>
<g clip-path="url(#clip0_127_152)">
<path d="M26.4939 16.4444C26.0321 16.4441 25.5753 16.5391 25.152 16.7236C24.7287 16.9081 24.348 17.1781 24.0339 17.5165C23.2234 18.3897 22.2413 19.0861 21.1492 19.5621C20.057 20.0381 18.8783 20.2834 17.687 20.2826H15.6904C17.5619 17.7123 20.0155 15.6218 22.8503 14.1822C25.6851 12.7426 28.8206 11.9948 32 12C35.1794 11.9948 38.3149 12.7426 41.1498 14.1822C43.9844 15.6218 46.4381 17.7123 48.3095 20.2826H46.5851C45.3807 20.2833 44.1884 20.0437 43.0774 19.5778C41.9667 19.112 40.9602 18.4292 40.1165 17.5696C39.7667 17.2131 39.3495 16.9299 38.8891 16.7367C38.4286 16.5435 37.9342 16.4441 37.4349 16.4444H26.4939ZM50.6705 24.5252H44.553C44.0535 24.5254 43.5591 24.426 43.0984 24.2328C42.6377 24.0396 42.2202 23.7565 41.8705 23.4C41.0267 22.5403 40.0202 21.8575 38.9095 21.3917C37.7988 20.9258 36.6063 20.6862 35.4016 20.687H28.527C27.3355 20.6863 26.1567 20.9316 25.0644 21.4076C23.9721 21.8836 22.9899 22.5799 22.1791 23.453C21.865 23.7915 21.4844 24.0615 21.0611 24.246C20.6378 24.4305 20.1809 24.5255 19.7191 24.5252H13.3296C12.6476 26.2067 12.2002 27.974 12 29.7774H19.7191C20.9107 29.7783 22.0895 29.533 23.1818 29.057C24.2741 28.5811 25.2564 27.8846 26.067 27.0113C26.3811 26.6728 26.7617 26.4029 27.185 26.2184C27.6083 26.0339 28.0652 25.9388 28.527 25.9391H35.4016C35.9012 25.9389 36.3958 26.0383 36.8563 26.2315C37.317 26.4247 37.7344 26.7079 38.0844 27.0643C38.9279 27.9241 39.9347 28.6069 41.0453 29.0727C42.156 29.5386 43.3486 29.7781 44.553 29.7774H52C51.7998 27.974 51.3523 26.2067 50.6705 24.5252ZM52 34.2226H44.553C43.3486 34.2219 42.156 34.4614 41.0453 34.9273C39.9347 35.3933 38.9279 36.0758 38.0844 36.9356C37.7344 37.2921 37.317 37.5753 36.8563 37.7684C36.3958 37.9616 35.9012 38.0612 35.4016 38.0609H28.527C28.0652 38.0612 27.6083 37.966 27.185 37.7816C26.7617 37.5972 26.3811 37.3272 26.067 36.9886C25.2564 36.1153 24.2741 35.4188 23.1818 34.943C22.0895 34.467 20.9107 34.2217 19.7191 34.2226H12C12.2001 36.026 12.6475 37.7933 13.3296 39.4749H19.7191C20.6539 39.4749 21.5461 39.8635 22.1791 40.547C22.9897 41.4202 23.972 42.1167 25.0643 42.5928C26.1566 43.0686 27.3354 43.314 28.527 43.313H35.4016C37.8384 43.313 40.1714 42.3349 41.8705 40.6C42.2202 40.2435 42.6377 39.9605 43.0984 39.7672C43.5591 39.574 44.0535 39.4747 44.553 39.4749H50.6705C51.3526 37.7933 51.7998 36.026 52 34.2226ZM48.3095 43.7174H46.5851C45.3807 43.7167 44.1884 43.9563 43.0774 44.4221C41.9667 44.8881 40.9602 45.5707 40.1165 46.4305C39.7667 46.787 39.3495 47.07 38.8891 47.2633C38.4286 47.4565 37.9342 47.5558 37.4349 47.5556H26.4939C26.0321 47.556 25.5753 47.4609 25.152 47.2763C24.7287 47.0919 24.348 46.8219 24.0339 46.4835C23.2234 45.6102 22.2413 44.914 21.1492 44.4379C20.057 43.9619 18.8783 43.7165 17.687 43.7174H15.6904C17.5619 46.2877 20.0155 48.3781 22.8503 49.8177C25.6851 51.2574 28.8206 52.0051 32 52C35.1794 52.0051 38.3149 51.2574 41.1498 49.8177C43.9844 48.3781 46.4381 46.2877 48.3095 43.7174ZM31.9991 35.8381C34.1322 35.8381 35.8616 34.12 35.8616 32C35.8616 29.88 34.1322 28.1617 31.9991 28.1617C29.8661 28.1617 28.1374 29.88 28.1374 32C28.1374 34.12 29.8661 35.8381 31.9991 35.8381Z" fill="#1C122C"/>
</g>
<defs>
<linearGradient id="paint0_linear_127_152" x1="32" y1="0" x2="32" y2="64" gradientUnits="userSpaceOnUse">
<stop stop-color="#D0D3E2"/>
<stop offset="1" stop-color="#F5F6FB"/>
</linearGradient>
<clipPath id="clip0_127_152">
<rect width="40" height="40" fill="white" transform="translate(12 12)"/>
</clipPath>
</defs>
</svg>
