<svg width="64" height="64" viewBox="0 0 64 64" fill="none" xmlns="http://www.w3.org/2000/svg">
<rect width="64" height="64" fill="#FADFBA"/>
<path d="M49.2028 39.4165V15.8305C49.1714 13.857 47.6365 12.2686 45.7101 12.2686H21.6836C16.4993 12.3488 12.333 16.697 12.333 22.0239C12.333 23.8209 12.8029 25.3612 13.5234 26.709C14.1342 27.8321 15.0896 28.8911 16.0294 29.6774C16.2956 29.9019 16.1704 29.8057 16.9848 30.3192C18.1125 31.025 19.3968 31.378 19.3968 31.378L19.3812 45.4815C19.4125 46.1554 19.4752 46.7972 19.6474 47.3909C20.18 49.3805 21.5269 50.9048 23.3595 51.6427C24.127 51.9477 24.9884 52.1562 25.9125 52.1724L45.0992 52.2364C48.9208 52.2364 52.022 49.0596 52.022 45.1285C52.0376 42.802 50.9101 40.7162 49.2028 39.4165Z" fill="#FFEEDA"/>
<path d="M49.6724 45.3051C49.5941 47.8242 47.5736 49.8457 45.0989 49.8457L31.8954 49.7976C32.9447 48.5462 33.5868 46.9255 33.5868 45.1606C33.5868 42.3849 31.9737 40.4756 31.9737 40.4756H45.1145C47.6362 40.4756 49.688 42.5773 49.688 45.1606L49.6724 45.3051Z" fill="#EBC28E"/>
<path d="M17.2824 27.6878C15.7631 26.2117 14.6981 24.3023 14.6981 22.04V21.7993C14.8234 17.9325 17.9246 14.8198 21.6992 14.7075H45.7257C46.3522 14.7396 46.8534 15.1888 46.8534 15.8467V36.6729C47.4015 36.7693 47.6678 36.8495 48.2004 37.0421C48.6233 37.2026 49.2028 37.5394 49.2028 37.5394V15.8467C49.1714 13.8731 47.6365 12.2847 45.7101 12.2847H21.6836C16.4993 12.3649 12.333 16.7131 12.333 22.04C12.333 25.1367 13.7113 27.7841 15.9667 29.6452C16.1234 29.7737 16.2643 29.9342 16.6716 29.9342C17.3764 29.9342 17.8776 29.3565 17.8462 28.7307C17.8306 28.2013 17.6113 28.0087 17.2824 27.6878Z" fill="#101010"/>
<path d="M45.0991 38.0367H26.257C24.9883 38.0527 23.9702 39.0958 23.9702 40.3953V43.171C24.0016 44.4548 25.0666 45.5458 26.3353 45.5458H27.7293V43.171H26.3353V40.4596C26.3353 40.4596 26.6799 40.4596 27.1028 40.4596C29.4835 40.4596 31.2378 42.7218 31.2378 45.1447C31.2378 47.2947 29.3269 50.0383 26.1317 49.8138C23.2968 49.6212 21.7618 47.0379 21.7618 45.1447V21.6228C21.7618 20.5638 20.9161 19.6974 19.8823 19.6974H18.0028V22.1041H19.3968V45.1606C19.3185 49.8459 22.6546 52.2045 26.1317 52.2045L45.1148 52.2686C48.9365 52.2686 52.0377 49.0917 52.0377 45.1606C52.0377 41.2297 48.9209 38.0367 45.0991 38.0367ZM49.6725 45.3051C49.5942 47.8242 47.5737 49.8459 45.0991 49.8459L31.8955 49.7976C32.945 48.5462 33.5872 46.9255 33.5872 45.1606C33.5872 42.3849 31.9738 40.4756 31.9738 40.4756H45.1148C47.6364 40.4756 49.6883 42.5775 49.6883 45.1606L49.6725 45.3051Z" fill="#101010"/>
<path d="M40.0241 22.5377H25.8181V20.1309H40.0241C40.6662 20.1309 41.1988 20.6604 41.1988 21.3343C41.1988 21.9921 40.682 22.5377 40.0241 22.5377Z" fill="#101010"/>
<path d="M40.0241 33.8649H25.8181V31.4581H40.0241C40.6662 31.4581 41.1988 31.9877 41.1988 32.6616C41.1988 33.3194 40.682 33.8649 40.0241 33.8649Z" fill="#101010"/>
<path d="M42.5302 28.2013H25.8181V25.7945H42.5144C43.1567 25.7945 43.6892 26.324 43.6892 26.9979C43.7048 27.6557 43.1723 28.2013 42.5302 28.2013Z" fill="#101010"/>
</svg>
