<svg width="64" height="64" viewBox="0 0 64 64" fill="none" xmlns="http://www.w3.org/2000/svg">
<rect width="64" height="64" fill="url(#paint0_linear_127_157)"/>
<path fill-rule="evenodd" clip-rule="evenodd" d="M31.9491 52.102C37.8905 52.102 43.2284 49.5178 46.9001 45.412C45.1921 43.9276 42.6182 43.8374 40.7999 45.3046L40.4525 45.5849C37.1233 48.2713 32.2721 47.8746 29.4236 44.683C27.87 42.9423 25.2093 42.7646 23.4379 44.2832L19.4328 47.7167C22.8631 50.461 27.2145 52.102 31.9491 52.102ZM38.4501 42.3926C41.6212 39.8338 46.0784 39.9256 49.1282 42.397C50.9512 39.3765 52 35.8363 52 32.0509C52 27.8449 50.7051 23.9414 48.4919 20.7174C47.0653 20.4135 45.5189 20.7684 44.345 21.8086L44.0109 22.1047C40.8092 24.9419 35.945 24.7695 32.9521 21.7127C31.3198 20.0456 28.6538 19.9909 26.9544 21.5896L22.2937 25.9744L19.7297 23.2491L24.3905 18.8643C27.5737 15.8695 32.5681 15.972 35.6258 19.095C37.2234 20.7268 39.8201 20.8189 41.5293 19.3042L41.8634 19.0082C42.9008 18.0888 44.1013 17.469 45.358 17.143C41.8057 13.9458 37.1046 12 31.9491 12C21.7704 12 13.3632 19.5844 12.0704 29.4101C15.1621 27.9265 18.9756 28.4974 21.4964 31.0789C23.0878 32.7085 25.6502 32.8805 27.4452 31.4782L30.0511 29.4423C33.3261 26.8837 37.9557 27.0076 41.0893 29.7377L46.1627 34.1578L43.7047 36.9791L38.6313 32.5589C36.8495 31.0065 34.217 30.936 32.3547 32.391L29.7488 34.4268C26.451 37.0032 21.7431 36.6872 18.8194 33.693C17.1192 31.952 14.3385 31.8912 12.5639 33.5564L12 34.0855C12.422 38.2735 14.1327 42.081 16.7296 45.1057L21.0025 41.4424C24.3206 38.5977 29.3049 38.9307 32.2152 42.1915C33.7359 43.8953 36.3255 44.107 38.1028 42.6729L38.4501 42.3926Z" fill="#B52A2A"/>
<defs>
<linearGradient id="paint0_linear_127_157" x1="32" y1="0" x2="32" y2="64" gradientUnits="userSpaceOnUse">
<stop stop-color="#F2E9E9"/>
<stop offset="1" stop-color="#ECEDEE"/>
</linearGradient>
</defs>
</svg>
