<svg width="96" height="96" viewBox="0 0 96 96" fill="none" xmlns="http://www.w3.org/2000/svg">
<g clip-path="url(#clip0_18_15)">
<rect width="96" height="96" fill="#00D1FF"/>
<path d="M36.1145 41.2229C35.7924 40.8734 35.3974 40.6967 34.9256 40.6967H25.2876C25.1994 40.6967 25.1304 40.671 25.0805 40.6195C25.0268 40.568 25 40.5128 25 40.4502V34.2502C25 34.1877 25.0268 34.1325 25.0805 34.0809C25.1342 34.0294 25.2033 34.0037 25.2876 34.0037H35.4702C38.0398 34.0037 40.2566 35.0082 42.1206 37.0099L44.5943 39.8909L39.7734 45.5022L36.1107 41.2266L36.1145 41.2229ZM53.9101 36.9767C55.7741 34.9935 58.0023 34 60.5911 34H70.743C70.8274 34 70.8926 34.0221 70.9348 34.0626C70.977 34.103 71 34.1656 71 34.2502V40.4502C71 40.5128 70.977 40.568 70.9348 40.6195C70.8926 40.671 70.8274 40.6967 70.743 40.6967H61.1051C60.6333 40.6967 60.2383 40.8734 59.9161 41.2229L52.8132 49.4687L59.9468 57.7771C60.269 58.1083 60.6525 58.2738 61.1051 58.2738H70.743C70.8274 58.2738 70.8926 58.2996 70.9348 58.3511C70.977 58.4026 71 58.4688 71 58.5535V64.7535C71 64.816 70.977 64.8712 70.9348 64.9227C70.8926 64.9742 70.8274 65 70.743 65H60.5911C57.9985 65 55.7856 63.9992 53.9408 61.9938L48.0307 55.1131L42.1206 61.9938C40.2566 63.9992 38.0283 65 35.4396 65H25.2876C25.1994 65 25.1342 64.9742 25.092 64.9227C25.0499 64.8712 25.0268 64.805 25.0268 64.7204V58.5204C25.0268 58.4578 25.0499 58.4026 25.092 58.3511C25.1342 58.2996 25.1994 58.2738 25.2876 58.2738H34.9256C35.3744 58.2738 35.7694 58.0972 36.1145 57.7477L43.0832 49.6269L53.9101 36.9804V36.9767Z" fill="#06061B"/>
<path d="M86.1145 41.2229C85.7924 40.8734 85.3974 40.6967 84.9256 40.6967H75.2876C75.1994 40.6967 75.1304 40.671 75.0805 40.6195C75.0268 40.568 75 40.5128 75 40.4502V34.2502C75 34.1877 75.0268 34.1325 75.0805 34.0809C75.1342 34.0294 75.2033 34.0037 75.2876 34.0037H85.4702C88.0398 34.0037 90.2566 35.0082 92.1206 37.0099L94.5943 39.8909L89.7734 45.5022L86.1107 41.2266L86.1145 41.2229ZM103.91 36.9767C105.774 34.9935 108.002 34 110.591 34H120.743C120.827 34 120.893 34.0221 120.935 34.0626C120.977 34.103 121 34.1656 121 34.2502V40.4502C121 40.5128 120.977 40.568 120.935 40.6195C120.893 40.671 120.827 40.6967 120.743 40.6967H111.105C110.633 40.6967 110.238 40.8734 109.916 41.2229L102.813 49.4687L109.947 57.7771C110.269 58.1083 110.652 58.2738 111.105 58.2738H120.743C120.827 58.2738 120.893 58.2996 120.935 58.3511C120.977 58.4026 121 58.4688 121 58.5535V64.7535C121 64.816 120.977 64.8712 120.935 64.9227C120.893 64.9742 120.827 65 120.743 65H110.591C107.998 65 105.786 63.9992 103.941 61.9938L98.0307 55.1131L92.1206 61.9938C90.2566 63.9992 88.0283 65 85.4396 65H75.2876C75.1994 65 75.1342 64.9742 75.092 64.9227C75.0499 64.8712 75.0268 64.805 75.0268 64.7204V58.5204C75.0268 58.4578 75.0499 58.4026 75.092 58.3511C75.1342 58.2996 75.1994 58.2738 75.2876 58.2738H84.9256C85.3744 58.2738 85.7694 58.0972 86.1145 57.7477L93.0832 49.6269L103.91 36.9804V36.9767Z" fill="#06061B"/>
<path d="M-13.8855 41.2229C-14.2076 40.8734 -14.6026 40.6967 -15.0744 40.6967H-24.7124C-24.8006 40.6967 -24.8696 40.671 -24.9195 40.6195C-24.9732 40.568 -25 40.5128 -25 40.4502V34.2502C-25 34.1877 -24.9732 34.1325 -24.9195 34.0809C-24.8658 34.0294 -24.7967 34.0037 -24.7124 34.0037H-14.5298C-11.9602 34.0037 -9.74338 35.0082 -7.87945 37.0099L-5.40571 39.8909L-10.2266 45.5022L-13.8893 41.2266L-13.8855 41.2229ZM3.91012 36.9767C5.77405 34.9935 8.00233 34 10.5911 34H20.743C20.8274 34 20.8926 34.0221 20.9348 34.0626C20.977 34.103 21 34.1656 21 34.2502V40.4502C21 40.5128 20.977 40.568 20.9348 40.6195C20.8926 40.671 20.8274 40.6967 20.743 40.6967H11.1051C10.6333 40.6967 10.2383 40.8734 9.91611 41.2229L2.81323 49.4687L9.9468 57.7771C10.269 58.1083 10.6525 58.2738 11.1051 58.2738H20.743C20.8274 58.2738 20.8926 58.2996 20.9348 58.3511C20.977 58.4026 21 58.4688 21 58.5535V64.7535C21 64.816 20.977 64.8712 20.9348 64.9227C20.8926 64.9742 20.8274 65 20.743 65H10.5911C7.99849 65 5.78555 63.9992 3.9408 61.9938L-1.96932 55.1131L-7.87945 61.9938C-9.74338 63.9992 -11.9717 65 -14.5604 65H-24.7124C-24.8006 65 -24.8658 64.9742 -24.908 64.9227C-24.9501 64.8712 -24.9732 64.805 -24.9732 64.7204V58.5204C-24.9732 58.4578 -24.9501 58.4026 -24.908 58.3511C-24.8658 58.2996 -24.8006 58.2738 -24.7124 58.2738H-15.0744C-14.6256 58.2738 -14.2306 58.0972 -13.8855 57.7477L-6.9168 49.6269L3.91012 36.9804V36.9767Z" fill="#06061B"/>
</g>
<defs>
<clipPath id="clip0_18_15">
<rect width="96" height="96" fill="white"/>
</clipPath>
</defs>
</svg>
