<svg width="64" height="64" viewBox="0 0 64 64" fill="none" xmlns="http://www.w3.org/2000/svg">
<rect width="64" height="64" fill="#1F5EFF"/>
<g clip-path="url(#clip0_6_121)">
<path d="M48.3029 17.7501C40.6098 16.2603 28.2134 13.2515 22.9115 21.3884C20.7835 24.6535 21.7968 28.5018 24.3892 31.1596C26.414 33.236 33.6942 35.6341 32.6861 39.3C31.6385 43.1139 24.6387 41.2938 22.146 40.3976C18.5575 39.1056 15.0653 36.7282 13.2951 33.2584C9.6206 26.0556 15.1135 18.8528 21.4579 15.6203C30.03 11.2508 40.5306 12.2348 48.3029 17.7501Z" fill="white"/>
<path d="M15.9773 46.2603C23.8218 47.707 35.6797 50.6745 41.2534 42.6752C43.648 39.2398 42.2907 35.1473 39.4695 32.4499C37.4017 30.4733 31.3893 28.7564 31.4564 25.3709C31.539 21.17 38.2704 22.412 40.6565 23.1363C44.4789 24.2992 48.2704 26.3738 50.4431 29.8453C55.1292 37.3355 49.1701 45.2763 42.3217 48.5878C34.0041 52.6116 23.4072 51.8254 15.9773 46.2603Z" fill="white"/>
</g>
<defs>
<clipPath id="clip0_6_121">
<rect width="40" height="38.2264" fill="white" transform="translate(12.1135 12.8868)"/>
</clipPath>
</defs>
</svg>
