<svg width="64" height="64" viewBox="0 0 64 64" fill="none" xmlns="http://www.w3.org/2000/svg">
<rect width="64" height="64" fill="#E81899"/>
<path d="M50.4729 42.7667L43.7387 33.6176C43.0071 32.6234 41.924 32.0279 40.7703 31.8966C40.5077 31.8661 40.2733 31.7137 40.142 31.4839C40.0083 31.2541 39.9941 30.9751 40.0997 30.7313C40.5616 29.6667 40.5897 28.431 40.0927 27.3009L35.5369 16.8949C34.8616 15.3497 33.3351 14.3532 31.6493 14.3532C29.9634 14.3532 28.437 15.3521 27.7617 16.8949L23.2059 27.3009C22.7112 28.431 22.7369 29.6667 23.1989 30.7313C23.3044 30.9751 23.288 31.2541 23.1567 31.4839C23.023 31.7137 22.7909 31.8661 22.5283 31.8966C21.3746 32.0279 20.2914 32.6234 19.5598 33.6176L12.8257 42.7667C11.8269 44.1244 11.7261 45.9439 12.5678 47.4047C13.4119 48.8631 15.0392 49.6861 16.7133 49.5009L28.0033 48.2441C29.2296 48.1081 30.287 47.468 30.9763 46.5347C31.1334 46.3214 31.3843 46.1947 31.6493 46.1947C31.9143 46.1947 32.1629 46.3214 32.3223 46.5347C33.0116 47.468 34.069 48.1081 35.2954 48.2441L46.5853 49.5009C48.2594 49.6884 49.8867 48.8654 50.7307 47.4047C51.5726 45.9439 51.4717 44.1244 50.4729 42.7667ZM26.1509 28.6069L30.7137 18.1892C30.8779 17.8164 31.246 17.5749 31.6516 17.5749C32.0573 17.5749 32.4254 17.8164 32.5896 18.1892L37.1524 28.6069C37.2954 28.9351 37.265 29.315 37.068 29.6151C36.871 29.9153 36.538 30.0959 36.177 30.0959H27.124C26.7651 30.0959 26.4299 29.9153 26.2329 29.6151C26.036 29.315 26.0055 28.9351 26.1485 28.6069H26.1509ZM28.4933 44.4667C28.3314 44.788 28.0173 45.0037 27.6609 45.0436L16.3593 46.3003C15.956 46.3449 15.562 46.1479 15.3581 45.7961C15.1541 45.4444 15.1799 45.006 15.4214 44.6777L22.1625 35.5191C22.3759 35.2307 22.7182 35.0667 23.0769 35.0877C23.4357 35.1066 23.7593 35.3059 23.9398 35.6177L23.9468 35.6294L28.4604 43.4467L28.4674 43.4584C28.648 43.7703 28.6574 44.1501 28.4956 44.469L28.4933 44.4667ZM32.5779 40.9309C32.3856 41.2614 32.0339 41.4677 31.6493 41.4677C31.2671 41.4677 30.913 41.2639 30.7207 40.9331L27.2529 34.9283C27.0606 34.5977 27.0606 34.1874 27.2529 33.8567C27.4451 33.5261 27.7969 33.3199 28.1814 33.3199H35.1149C35.497 33.3199 35.851 33.5214 36.0433 33.8544C36.2356 34.1874 36.2356 34.5953 36.0433 34.926L32.5779 40.9309ZM47.9429 45.7961C47.7389 46.1479 47.3473 46.3471 46.9417 46.3026L35.64 45.0459C35.2836 45.006 34.9694 44.7903 34.8077 44.469C34.6459 44.1479 34.6553 43.768 34.8359 43.4584L34.8429 43.4467L39.3564 35.6294L39.3634 35.6177C39.544 35.3059 39.8676 35.1066 40.2263 35.0877C40.5851 35.069 40.9274 35.2307 41.1409 35.5191L47.8819 44.6777C48.1234 45.006 48.1469 45.4444 47.9453 45.7961H47.9429Z" fill="white"/>
</svg>
