<svg width="64" height="64" viewBox="0 0 64 64" fill="none" xmlns="http://www.w3.org/2000/svg">
<rect width="64" height="64" fill="#F8F6D7"/>
<path d="M52 12V27.8395C45.8764 30.5156 39.1122 31.999 32 31.999C24.8878 31.999 18.1236 30.5146 12 27.8395V12H12.002C18.1256 14.6761 24.8898 16.1595 32 16.1595C39.1102 16.1595 45.8744 14.6751 51.998 12H52Z" fill="#231F20"/>
<path d="M52 52.4003V36.5608C45.8764 33.8846 39.1122 32.4013 32 32.4013C24.8878 32.4013 18.1236 33.8857 12 36.5608V52.4003H12.002C18.1256 49.7242 24.8898 48.2408 32 48.2408C39.1102 48.2408 45.8744 49.7252 51.998 52.4003H52Z" fill="#231F20"/>
</svg>
