<svg width="64" height="64" viewBox="0 0 64 64" fill="none" xmlns="http://www.w3.org/2000/svg">
<rect width="64" height="64" fill="black"/>
<path opacity="0.5" d="M44.5842 16.4444H47.7305C48.2267 16.4444 48.6291 16.8469 48.6291 17.3433V25.8826C48.6291 26.3791 48.2267 26.7815 47.7305 26.7815H44.5842V16.4444Z" fill="white"/>
<path d="M31.7753 26.7815H23.2359C22.7395 26.7815 22.337 27.1839 22.337 27.6804V36.2197C22.337 36.7162 22.7395 37.1186 23.2359 37.1186H31.7753C32.2717 37.1186 32.6741 36.7162 32.6741 36.2197V27.6804C32.6741 27.1839 32.2717 26.7815 31.7753 26.7815Z" fill="white"/>
<path d="M21.4382 37.1187H12.8989C12.4024 37.1187 12 37.5211 12 38.0175V46.5569C12 47.0533 12.4024 47.4558 12.8989 47.4558H21.4382C21.9346 47.4558 22.3371 47.0533 22.3371 46.5569V38.0175C22.3371 37.5211 21.9346 37.1187 21.4382 37.1187Z" fill="white"/>
<path d="M42.1124 37.1187H33.5731C33.0766 37.1187 32.6742 37.5211 32.6742 38.0175V46.5569C32.6742 47.0533 33.0766 47.4558 33.5731 47.4558H42.1124C42.6088 47.4558 43.0113 47.0533 43.0113 46.5569V38.0175C43.0113 37.5211 42.6088 37.1187 42.1124 37.1187Z" fill="white"/>
<path opacity="0.5" d="M44.5842 37.1187H47.7305C48.2267 37.1187 48.6291 37.5211 48.6291 38.0176V46.5569C48.6291 47.0533 48.2267 47.4558 47.7305 47.4558H44.5842V37.1187Z" fill="white"/>
<path opacity="0.3" d="M49.9775 37.1187H51.1011C51.5975 37.1187 52 37.5211 52 38.0176V46.5569C52 47.0533 51.5975 47.4558 51.1011 47.4558H49.9775V37.1187Z" fill="white"/>
<path d="M21.4382 16.4444H12.8989C12.4024 16.4444 12 16.8469 12 17.3433V25.8827C12 26.3791 12.4024 26.7815 12.8989 26.7815H21.4382C21.9346 26.7815 22.3371 26.3791 22.3371 25.8827V17.3433C22.3371 16.8469 21.9346 16.4444 21.4382 16.4444Z" fill="white"/>
<path d="M42.1124 16.4444H33.5731C33.0766 16.4444 32.6742 16.8469 32.6742 17.3433V25.8827C32.6742 26.3791 33.0766 26.7815 33.5731 26.7815H42.1124C42.6088 26.7815 43.0113 26.3791 43.0113 25.8827V17.3433C43.0113 16.8469 42.6088 16.4444 42.1124 16.4444Z" fill="white"/>
<path opacity="0.3" d="M49.9775 16.4444H51.1011C51.5975 16.4444 52 16.8469 52 17.3433V25.8826C52 26.3791 51.5975 26.7815 51.1011 26.7815H49.9775V16.4444Z" fill="white"/>
</svg>
