<svg width="64" height="64" viewBox="0 0 64 64" fill="none" xmlns="http://www.w3.org/2000/svg">
<rect width="64" height="64" fill="#F6F3E9"/>
<path fill-rule="evenodd" clip-rule="evenodd" d="M12 32.0604C12 20.9811 20.9547 12 31.9996 12C43.0463 12 52.001 20.9811 52 32.0594C52 35.9835 50.8762 39.6439 48.9347 42.7351C48.3993 43.5867 47.8031 44.3951 47.1496 45.155L32.026 29.9869L19.0211 43.0292L16.8739 45.1827C16.2185 44.4247 15.6203 43.6173 15.0849 42.7667C13.1307 39.6696 12 35.9973 12 32.0604ZM46.6419 39.8769L46.8249 39.5098L46.8259 39.5108C47.9733 37.2151 48.5795 34.6382 48.5795 32.0604C48.5795 22.8918 41.1421 15.4326 32.0004 15.4326C22.8588 15.4326 15.4225 22.8918 15.4225 32.0604C15.4225 34.652 16.0345 37.2398 17.1927 39.5443L17.3768 39.9095L32.026 25.217L46.6419 39.8769ZM32.0003 52.1187C36.9795 52.1187 41.5347 50.2939 45.0358 47.2739L32.0269 34.2256L18.9933 47.2966C22.4896 50.3037 27.0211 52.1187 32.0003 52.1187Z" fill="url(#paint0_linear_18_2)"/>
<defs>
<linearGradient id="paint0_linear_18_2" x1="31.9999" y1="12" x2="32.0594" y2="52.1187" gradientUnits="userSpaceOnUse">
<stop stop-color="#169E00"/>
<stop offset="0.49" stop-color="#00C537"/>
<stop offset="1" stop-color="#00B1C9"/>
</linearGradient>
</defs>
</svg>
