<svg width="64" height="64" viewBox="0 0 64 64" fill="none" xmlns="http://www.w3.org/2000/svg"><path fill="url(#paint0_linear_6_126)" d="M0 0h64v64H0z"/><g clip-path="url(#clip0_6_126)"><path d="M58.778 3.30488H5.82812V56.2548H58.778V3.30488Z" fill="#A1723A"/><g filter="url(#filter0_f_6_126)"><path d="M33.5275 51.1589c11.7869 0 21.342-9.5523 21.342-21.3358 0-11.7834-9.5551-21.33578-21.342-21.33578-11.7868 0-21.342 9.55238-21.342 21.33578 0 11.7835 9.5552 21.3358 21.342 21.3358Z" fill="#531002"/></g><g filter="url(#filter1_f_6_126)"><path d="M35.8279 44.4057c9.5599 0 17.3098-7.7526 17.3098-17.316 0-9.5634-7.7499-17.31604-17.3098-17.31604-9.56 0-17.3099 7.75264-17.3099 17.31604 0 9.5634 7.7499 17.316 17.3099 17.316Z" fill="#2B5DF0"/></g><g filter="url(#filter2_f_6_126)"><path d="M35.5128 45.3952c9.9663 0 18.0457-8.0822 18.0457-18.052S45.4791 9.29127 35.5128 9.29127c-9.9664 0-18.0458 8.08213-18.0458 18.05193s8.0794 18.052 18.0458 18.052Z" fill="url(#paint1_radial_6_126)"/></g><g filter="url(#filter3_f_6_126)"><path d="M38.506 31.8887c5.0208 0 9.0909-4.0702 9.0909-9.0909 0-5.0208-4.0701-9.0909-9.0909-9.0909-5.0208 0-9.0909 4.0701-9.0909 9.0909 0 5.0207 4.0701 9.0909 9.0909 9.0909Z" fill="#FCB8D4"/></g><g filter="url(#filter4_f_6_126)"><path d="M38.4995 26.4218c2.005 0 3.6302-1.6253 3.6302-3.6302s-1.6252-3.6302-3.6302-3.6302c-2.0049 0-3.6301 1.6253-3.6301 3.6302s1.6252 3.6302 3.6301 3.6302Z" fill="#fff"/></g><g filter="url(#filter5_f_6_126)"><path d="M36.0877 59.0377c18.0167 0 32.6221-14.6054 32.6221-32.6221 0-18.01673-14.6054-32.62216-32.6221-32.62216-18.0167 0-32.62215 14.60543-32.62215 32.62216 0 18.0167 14.60545 32.6221 32.62215 32.6221Z" fill="url(#paint2_radial_6_126)" fill-opacity=".9"/></g></g><defs><filter id="filter0_f_6_126" x="7.23811" y="3.53989" width="52.5789" height="52.5665" filterUnits="userSpaceOnUse" color-interpolation-filters="sRGB"><feFlood flood-opacity="0" result="BackgroundImageFix"/><feBlend in="SourceGraphic" in2="BackgroundImageFix" result="shape"/><feGaussianBlur stdDeviation="2.47372" result="effect1_foregroundBlur_6_126"/></filter><filter id="filter1_f_6_126" x="8.62317" y="-.121208" width="54.4094" height="54.4218" filterUnits="userSpaceOnUse" color-interpolation-filters="sRGB"><feFlood flood-opacity="0" result="BackgroundImageFix"/><feBlend in="SourceGraphic" in2="BackgroundImageFix" result="shape"/><feGaussianBlur stdDeviation="4.94743" result="effect1_foregroundBlur_6_126"/></filter><filter id="filter2_f_6_126" x="13.7564" y="5.58069" width="43.5127" height="43.525" filterUnits="userSpaceOnUse" color-interpolation-filters="sRGB"><feFlood flood-opacity="0" result="BackgroundImageFix"/><feBlend in="SourceGraphic" in2="BackgroundImageFix" result="shape"/><feGaussianBlur stdDeviation="1.85529" result="effect1_foregroundBlur_6_126"/></filter><filter id="filter3_f_6_126" x="21.9939" y="6.28571" width="33.0241" height="33.0241" filterUnits="userSpaceOnUse" color-interpolation-filters="sRGB"><feFlood flood-opacity="0" result="BackgroundImageFix"/><feBlend in="SourceGraphic" in2="BackgroundImageFix" result="shape"/><feGaussianBlur stdDeviation="3.71058" result="effect1_foregroundBlur_6_126"/></filter><filter id="filter4_f_6_126" x="29.9219" y="14.214" width="17.1552" height="17.1552" filterUnits="userSpaceOnUse" color-interpolation-filters="sRGB"><feFlood flood-opacity="0" result="BackgroundImageFix"/><feBlend in="SourceGraphic" in2="BackgroundImageFix" result="shape"/><feGaussianBlur stdDeviation="2.47372" result="effect1_foregroundBlur_6_126"/></filter><filter id="filter5_f_6_126" x="-.245029" y="-9.91713" width="72.6654" height="72.6654" filterUnits="userSpaceOnUse" color-interpolation-filters="sRGB"><feFlood flood-opacity="0" result="BackgroundImageFix"/><feBlend in="SourceGraphic" in2="BackgroundImageFix" result="shape"/><feGaussianBlur stdDeviation="1.85529" result="effect1_foregroundBlur_6_126"/></filter><radialGradient id="paint1_radial_6_126" cx="0" cy="0" r="1" gradientUnits="userSpaceOnUse" gradientTransform="matrix(-21 27 -27 -21 38.5566 22.2504)"><stop offset=".286458" stop-color="#387AFA"/><stop offset=".647782" stop-color="#387AFA" stop-opacity="0"/></radialGradient><radialGradient id="paint2_radial_6_126" cx="0" cy="0" r="1" gradientUnits="userSpaceOnUse" gradientTransform="matrix(0 33 -33 0 36.0877 26.4156)"><stop offset=".598958" stop-opacity="0"/><stop offset=".671875"/><stop offset=".734375" stop-opacity="0"/></radialGradient><linearGradient id="paint0_linear_6_126" x1="32" y1="0" x2="32" y2="64" gradientUnits="userSpaceOnUse"><stop stop-color="#57A0FE"/><stop offset="1" stop-color="#C3DDFF"/></linearGradient><clipPath id="clip0_6_126"><rect x="12" y="12" width="40" height="40" rx="20" fill="#fff"/></clipPath></defs></svg>