<svg width="40" height="41" viewBox="0 0 40 41" fill="none" xmlns="http://www.w3.org/2000/svg">
<path fill-rule="evenodd" clip-rule="evenodd" d="M0 20.0604C0 8.98109 8.95471 0 19.9996 0C31.0463 0 40.001 8.98109 40 20.0594C40 23.9835 38.8762 27.6439 36.9347 30.7351C36.3993 31.5867 35.8031 32.3951 35.1496 33.155L20.026 17.9869L7.02108 31.0292L4.87392 33.1827C4.21855 32.4247 3.62026 31.6173 3.08494 30.7667C1.13065 27.6696 0 23.9973 0 20.0604ZM34.6419 27.8769L34.8249 27.5098L34.8259 27.5108C35.9733 25.2151 36.5795 22.6382 36.5795 20.0604C36.5795 10.8918 29.1421 3.43256 20.0004 3.43256C10.8588 3.43256 3.42247 10.8918 3.42247 20.0604C3.42247 22.652 4.03454 25.2398 5.19274 27.5443L5.37676 27.9095L20.026 13.217L34.6419 27.8769ZM20.0003 40.1187C24.9795 40.1187 29.5347 38.2939 33.0358 35.2739L20.0269 22.2256L6.99335 35.2966C10.4896 38.3037 15.0211 40.1187 20.0003 40.1187Z" fill="url(#paint0_linear_28_13)"/>
<defs>
<linearGradient id="paint0_linear_28_13" x1="19.9999" y1="-1.87938e-09" x2="20.0594" y2="40.1187" gradientUnits="userSpaceOnUse">
<stop stop-color="#169E00"/>
<stop offset="0.49" stop-color="#00C537"/>
<stop offset="1" stop-color="#00B1C9"/>
</linearGradient>
</defs>
</svg>
