<svg width="97" height="98" viewBox="0 0 97 98" fill="none" xmlns="http://www.w3.org/2000/svg">
<path d="M83.0217 14.7089V41.7166C72.5805 46.2796 61.0469 48.8089 48.92 48.8089C36.7931 48.8089 25.2595 46.2779 14.8183 41.7166V14.7089H14.8217C25.263 19.2719 36.7965 21.8012 48.92 21.8012C61.0435 21.8012 72.577 19.2702 83.0183 14.7089H83.0217Z" fill="#231F20"/>
<path d="M83.0217 83.5948V56.5871C72.5805 52.024 61.0469 49.4948 48.92 49.4948C36.7931 49.4948 25.2595 52.0258 14.8183 56.5871V83.5948H14.8217C25.263 79.0318 36.7965 76.5025 48.92 76.5025C61.0435 76.5025 72.577 79.0335 83.0183 83.5948H83.0217Z" fill="#231F20"/>
</svg>
