<svg width="80" height="28" viewBox="0 0 80 28" fill="none" xmlns="http://www.w3.org/2000/svg">
<g clip-path="url(#clip0_2_106)">
<path d="M0.498535 0L28.2128 10.2857V17.7143L0.498535 28V0Z" fill="url(#paint0_linear_2_106)"/>
<path d="M0.498535 5.71429L28.2128 10.2857V17.7143L0.498535 22.2857V5.71429Z" fill="url(#paint1_linear_2_106)"/>
<path d="M28.2123 17.7143C30.2637 17.7143 31.9266 16.0513 31.9266 14C31.9266 11.9487 30.2637 10.2857 28.2123 10.2857C26.161 10.2857 24.498 11.9487 24.498 14C24.498 16.0513 26.161 17.7143 28.2123 17.7143Z" fill="#F2EBF6"/>
<path fill-rule="evenodd" clip-rule="evenodd" d="M74.9706 18.344C74.3065 18.344 73.6905 18.236 73.1226 18.02C72.5626 17.804 72.0751 17.5 71.6587 17.108C71.2509 16.716 70.9307 16.256 70.6988 15.728C70.4748 15.2 70.3628 14.624 70.3628 14C70.3628 13.376 70.4748 12.8 70.6988 12.272C70.9307 11.7441 71.2545 11.284 71.6709 10.892C72.0866 10.5 72.5748 10.196 73.1348 9.97999C73.6948 9.76403 74.3029 9.65604 74.9591 9.65604C75.6225 9.65604 76.2306 9.76403 76.7827 9.97999C77.3427 10.196 77.8266 10.5 78.2351 10.892C78.6508 11.284 78.9746 11.7441 79.2065 12.272C79.4391 12.792 79.5547 13.3681 79.5547 14C79.5547 14.624 79.4391 15.204 79.2065 15.74C78.9746 16.268 78.6508 16.7281 78.2351 17.1201C77.8266 17.504 77.3427 17.804 76.7827 18.02C76.2306 18.236 75.6268 18.344 74.9706 18.344ZM74.9591 16.688C75.3346 16.688 75.6785 16.624 75.9908 16.496C76.311 16.368 76.591 16.184 76.8308 15.9441C77.0706 15.704 77.2551 15.42 77.3829 15.092C77.5186 14.764 77.5868 14.4 77.5868 14C77.5868 13.6 77.5186 13.236 77.3829 12.908C77.2551 12.58 77.0706 12.296 76.8308 12.056C76.5989 11.816 76.3225 11.6321 76.003 11.504C75.6828 11.376 75.3346 11.312 74.9591 11.312C74.5829 11.312 74.2347 11.376 73.9145 11.504C73.6029 11.6321 73.3265 11.816 73.0867 12.056C72.8469 12.296 72.6588 12.58 72.5231 12.908C72.3946 13.236 72.3307 13.6 72.3307 14C72.3307 14.392 72.3946 14.756 72.5231 15.092C72.6588 15.42 72.8426 15.704 73.0745 15.9441C73.315 16.184 73.595 16.368 73.9145 16.496C74.2347 16.624 74.5829 16.688 74.9591 16.688ZM66.3533 18.2001V9.8H68.2975V18.2001H66.3533ZM54.2919 9.8V18.2001H56.1159V13.2669L58.5759 17.312H59.4519L61.9251 13.1583L61.936 18.2001H63.7597L63.7359 9.8H62.1399L59.0463 15.0159L55.8999 9.8H54.2919ZM47.967 18.344C46.775 18.344 45.843 18.012 45.171 17.348C44.499 16.684 44.163 15.7361 44.163 14.5041V9.8H46.107V14.4321C46.107 15.2321 46.271 15.808 46.599 16.16C46.927 16.512 47.387 16.6881 47.979 16.6881C48.571 16.6881 49.031 16.512 49.359 16.16C49.687 15.808 49.851 15.2321 49.851 14.4321V9.8H51.771V14.5041C51.771 15.7361 51.435 16.684 50.763 17.348C50.091 18.012 49.159 18.344 47.967 18.344ZM36.4984 9.8V18.2001H42.6544V16.6161H38.4424V9.8H36.4984Z" fill="#F2EBF6"/>
</g>
<defs>
<linearGradient id="paint0_linear_2_106" x1="3.92711" y1="14.2857" x2="28.4985" y2="14.4828" gradientUnits="userSpaceOnUse">
<stop stop-color="#8D29C1" stop-opacity="0"/>
<stop offset="1" stop-color="#8D29C1"/>
</linearGradient>
<linearGradient id="paint1_linear_2_106" x1="0.498535" y1="14.2857" x2="28.4985" y2="14.2857" gradientUnits="userSpaceOnUse">
<stop stop-color="#F03F77" stop-opacity="0"/>
<stop offset="1" stop-color="#F03F77"/>
</linearGradient>
<clipPath id="clip0_2_106">
<rect width="79.1304" height="28" fill="white" transform="translate(0.498535)"/>
</clipPath>
</defs>
</svg>
