<svg width="80" height="29" viewBox="0 0 80 29" fill="none" xmlns="http://www.w3.org/2000/svg">
<g clip-path="url(#clip0_2_101)">
<path d="M0.498535 0.260742L28.2128 10.5465V17.975L0.498535 28.2607V0.260742Z" fill="url(#paint0_linear_2_101)"/>
<path d="M0.498535 5.97503L28.2128 10.5465V17.975L0.498535 22.5464V5.97503Z" fill="url(#paint1_linear_2_101)"/>
<path d="M28.2123 17.975C30.2637 17.975 31.9266 16.3121 31.9266 14.2607C31.9266 12.2094 30.2637 10.5465 28.2123 10.5465C26.161 10.5465 24.498 12.2094 24.498 14.2607C24.498 16.3121 26.161 17.975 28.2123 17.975Z" fill="#F2EBF6"/>
<path fill-rule="evenodd" clip-rule="evenodd" d="M74.9706 18.6048C74.3065 18.6048 73.6905 18.4968 73.1226 18.2808C72.5626 18.0648 72.0751 17.7607 71.6587 17.3687C71.2509 16.9767 70.9307 16.5168 70.6988 15.9888C70.4748 15.4608 70.3628 14.8848 70.3628 14.2607C70.3628 13.6368 70.4748 13.0608 70.6988 12.5328C70.9307 12.0048 71.2545 11.5447 71.6709 11.1527C72.0866 10.7607 72.5748 10.4568 73.1348 10.2407C73.6948 10.0248 74.3029 9.91679 74.9591 9.91679C75.6225 9.91679 76.2306 10.0248 76.7827 10.2407C77.3427 10.4568 77.8266 10.7607 78.2351 11.1527C78.6508 11.5447 78.9746 12.0048 79.2065 12.5328C79.4391 13.0528 79.5547 13.6288 79.5547 14.2607C79.5547 14.8848 79.4391 15.4647 79.2065 16.0008C78.9746 16.5287 78.6508 16.9888 78.2351 17.3808C77.8266 17.7648 77.3427 18.0648 76.7827 18.2808C76.2306 18.4968 75.6268 18.6048 74.9706 18.6048ZM74.9591 16.9487C75.3346 16.9487 75.6785 16.8848 75.9908 16.7568C76.311 16.6288 76.591 16.4447 76.8308 16.2048C77.0706 15.9648 77.2551 15.6808 77.3829 15.3527C77.5186 15.0248 77.5868 14.6608 77.5868 14.2607C77.5868 13.8608 77.5186 13.4968 77.3829 13.1687C77.2551 12.8408 77.0706 12.5568 76.8308 12.3168C76.5989 12.0767 76.3225 11.8928 76.003 11.7648C75.6828 11.6368 75.3346 11.5727 74.9591 11.5727C74.5829 11.5727 74.2347 11.6368 73.9145 11.7648C73.6029 11.8928 73.3265 12.0767 73.0867 12.3168C72.8469 12.5568 72.6588 12.8408 72.5231 13.1687C72.3946 13.4968 72.3307 13.8608 72.3307 14.2607C72.3307 14.6527 72.3946 15.0167 72.5231 15.3527C72.6588 15.6808 72.8426 15.9648 73.0745 16.2048C73.315 16.4447 73.595 16.6288 73.9145 16.7568C74.2347 16.8848 74.5829 16.9487 74.9591 16.9487ZM66.3533 18.4608V10.0607H68.2975V18.4608H66.3533ZM54.2919 10.0607V18.4608H56.1159V13.5277L58.5759 17.5728H59.4519L61.9251 13.419L61.936 18.4608H63.7597L63.7359 10.0607H62.1399L59.0463 15.2766L55.8999 10.0607H54.2919ZM47.967 18.6048C46.775 18.6048 45.843 18.2728 45.171 17.6088C44.499 16.9448 44.163 15.9968 44.163 14.7648V10.0607H46.107V14.6928C46.107 15.4928 46.271 16.0688 46.599 16.4208C46.927 16.7728 47.387 16.9488 47.979 16.9488C48.571 16.9488 49.031 16.7728 49.359 16.4208C49.687 16.0688 49.851 15.4928 49.851 14.6928V10.0607H51.771V14.7648C51.771 15.9968 51.435 16.9448 50.763 17.6088C50.091 18.2728 49.159 18.6048 47.967 18.6048ZM36.4984 10.0607V18.4608H42.6544V16.8768H38.4424V10.0607H36.4984Z" fill="#18181B"/>
</g>
<defs>
<linearGradient id="paint0_linear_2_101" x1="3.92711" y1="14.5465" x2="28.4985" y2="14.7435" gradientUnits="userSpaceOnUse">
<stop stop-color="#8D29C1" stop-opacity="0"/>
<stop offset="1" stop-color="#8D29C1"/>
</linearGradient>
<linearGradient id="paint1_linear_2_101" x1="0.498535" y1="14.5465" x2="28.4985" y2="14.5465" gradientUnits="userSpaceOnUse">
<stop stop-color="#F03F77" stop-opacity="0"/>
<stop offset="1" stop-color="#F03F77"/>
</linearGradient>
<clipPath id="clip0_2_101">
<rect width="79.1304" height="28" fill="white" transform="translate(0.498535 0.260742)"/>
</clipPath>
</defs>
</svg>
