<svg width="93" height="32" viewBox="0 0 93 32" fill="none" xmlns="http://www.w3.org/2000/svg">
<path d="M25.6679 0H12.834L0 16H12.834L25.6679 0Z" fill="#A2F3B2"/>
<path d="M25.6679 16H12.834L0 32H12.834L25.6679 16Z" fill="#23B2EF"/>
<path d="M35.4217 22.0441C34.9881 22.0441 34.5889 21.9361 34.2238 21.7199C33.8702 21.5038 33.585 21.2193 33.3683 20.8665C33.1515 20.5025 33.0431 20.1043 33.0431 19.6719V12.1284C33.0431 11.6961 33.1515 11.3035 33.3683 10.9508C33.585 10.5868 33.8702 10.2966 34.2238 10.0804C34.5889 9.86427 34.9881 9.75617 35.4217 9.75617H45.3294V12.026H35.9008C35.7183 12.026 35.57 12.0772 35.4559 12.1796C35.3533 12.282 35.3019 12.4299 35.3019 12.6233V19.1769C35.3019 19.359 35.3533 19.507 35.4559 19.6207C35.57 19.7231 35.7183 19.7743 35.9008 19.7743H45.3294V22.0441H35.4217Z" fill="black"/>
<path d="M49.7489 22.0441C49.3154 22.0441 48.9218 21.9361 48.5682 21.7199C48.2145 21.5038 47.9294 21.2193 47.7126 20.8665C47.4958 20.5139 47.3875 20.1214 47.3875 19.6889V8.88577H49.6462V19.6036C49.6462 19.6606 49.6633 19.7118 49.6975 19.7572C49.7432 19.7913 49.7945 19.8084 49.8516 19.8084H51.751V22.0441H49.7489Z" fill="black"/>
<path d="M53.662 22.0441V12.1455H55.9037V22.0441H53.662ZM53.662 11.1556V8.90284H55.9037V11.1556H53.662Z" fill="black"/>
<path d="M65.6225 25.9695V22.0441H60.1295C59.6846 22.0441 59.2854 21.9361 58.9317 21.7199C58.5781 21.5038 58.2928 21.2193 58.0761 20.8665C57.8708 20.5139 57.7682 20.1214 57.7682 19.6889V14.5007C57.7682 14.0683 57.8708 13.6758 58.0761 13.3231C58.2928 12.9704 58.5781 12.6859 58.9317 12.4697C59.2854 12.2536 59.6846 12.1455 60.1295 12.1455H67.8642V25.9695H65.6225ZM60.2323 19.8084H65.4172C65.4742 19.8084 65.5198 19.7913 65.5541 19.7572C65.5997 19.7118 65.6225 19.6606 65.6225 19.6036V14.586C65.6225 14.5291 65.5997 14.4836 65.5541 14.4495C65.5198 14.404 65.4742 14.3812 65.4172 14.3812H60.2323C60.1752 14.3812 60.1238 14.404 60.0782 14.4495C60.044 14.4836 60.0269 14.5291 60.0269 14.586V19.6036C60.0269 19.6606 60.044 19.7118 60.0782 19.7572C60.1238 19.7913 60.1752 19.8084 60.2323 19.8084Z" fill="black"/>
<path d="M72.0657 22.0441C71.6322 22.0441 71.2329 21.9361 70.8679 21.7199C70.5142 21.5038 70.229 21.2193 70.0123 20.8665C69.8069 20.5139 69.7043 20.1214 69.7043 19.6889V12.1455H71.9459V19.6036C71.9459 19.6606 71.963 19.7118 71.9972 19.7572C72.0428 19.7913 72.0942 19.8084 72.1513 19.8084H77.3362C77.3932 19.8084 77.4388 19.7913 77.473 19.7572C77.5187 19.7118 77.5415 19.6606 77.5415 19.6036V12.1455H79.7832V19.6889C79.7832 20.1214 79.6748 20.5139 79.458 20.8665C79.2526 21.2193 78.9733 21.5038 78.6196 21.7199C78.2659 21.9361 77.8666 22.0441 77.4217 22.0441H72.0657Z" fill="black"/>
<path d="M83.9042 22.0441C83.4707 22.0441 83.0771 21.9361 82.7234 21.7199C82.3698 21.5038 82.0846 21.2193 81.8679 20.8665C81.6511 20.5139 81.5427 20.1214 81.5427 19.6889V14.5007C81.5427 14.0683 81.6511 13.6758 81.8679 13.3231C82.0846 12.9704 82.3698 12.6859 82.7234 12.4697C83.0771 12.2536 83.4707 12.1455 83.9042 12.1455H89.2602C89.6937 12.1455 90.0873 12.2536 90.4409 12.4697C90.8059 12.6859 91.0912 12.9704 91.2965 13.3231C91.5133 13.6758 91.6216 14.0683 91.6216 14.5007V18.2212H83.7844V19.6036C83.7844 19.6606 83.8015 19.7118 83.8357 19.7572C83.8814 19.7913 83.9327 19.8084 83.9897 19.8084H91.6216V22.0441H83.9042ZM83.7844 16.2073H89.38V14.586C89.38 14.5291 89.3572 14.4836 89.3115 14.4495C89.2773 14.404 89.2317 14.3812 89.1746 14.3812H83.9897C83.9327 14.3812 83.8814 14.404 83.8357 14.4495C83.8015 14.4836 83.7844 14.5291 83.7844 14.586V16.2073Z" fill="black"/>
</svg>
