<svg width="126" height="32" viewBox="0 0 126 32" fill="none" xmlns="http://www.w3.org/2000/svg">
<g clip-path="url(#clip0_6001_868)">
<path d="M0 0C8.837 0 16 7.163 16 16C7.163 16 0 8.837 0 0ZM32 32C23.163 32 16 24.837 16 16C24.837 16 32 23.163 32 32ZM16 16C16 13.8783 16.8429 11.8434 18.3431 10.3431C19.8434 8.84285 21.8783 8 24 8C24 10.1217 23.1571 12.1566 21.6569 13.6569C20.1566 15.1571 18.1217 16 16 16ZM16 16C16 18.1217 15.1571 20.1566 13.6569 21.6569C12.1566 23.1571 10.1217 24 8 24C8 21.8783 8.84285 19.8434 10.3431 18.3431C11.8434 16.8429 13.8783 16 16 16ZM82.96 7C83.623 7 84.2589 6.73661 84.7278 6.26777C85.1966 5.79893 85.46 5.16304 85.46 4.5C85.46 3.83696 85.1966 3.20107 84.7278 2.73223C84.2589 2.26339 83.623 2 82.96 2C82.297 2 81.6611 2.26339 81.1922 2.73223C80.7234 3.20107 80.46 3.83696 80.46 4.5C80.46 5.16304 80.7234 5.79893 81.1922 6.26777C81.6611 6.73661 82.297 7 82.96 7ZM72 6V28H75V30H65V28H68V8H67.7L59.5 25.58L51.3 8V28H54V30H46V28H48.7V6H46V4H54L60.5 17.94L67 4H75V6H72ZM87.5 30V28H85V10L81 10.6L78.4 11V13L81 13.4V28H78.4V30H87.5ZM111.7 30V28H109V16C109 12.68 106.32 10 103 10C100.04 10 97.58 12.14 97.1 14.94V10L93.1 10.6L90.5 11V13L93.1 13.4V28H90.5V30H99.6V28H97.1V16.96C97.1 14.76 98.84 13 101.04 13C103.24 13 105 14.76 105 16.96V28H102.6V30H111.7ZM120.7 13V28H126V30H118.7C117.6 30 116.7 29.1 116.7 28V13H112.96V11H114.2C115.24 11 116.12 10.36 116.5 9.48L116.7 9.06L118.6 5H120.7V11H126V13H120.7Z" fill="#EBF5ED"/>
<mask id="mask0_6001_868" style="mask-type:alpha" maskUnits="userSpaceOnUse" x="0" y="0" width="126" height="32">
<path d="M0 0C8.837 0 16 7.163 16 16C7.163 16 0 8.837 0 0ZM32 32C23.163 32 16 24.837 16 16C24.837 16 32 23.163 32 32ZM16 16C16 13.8783 16.8429 11.8434 18.3431 10.3431C19.8434 8.84285 21.8783 8 24 8C24 10.1217 23.1571 12.1566 21.6569 13.6569C20.1566 15.1571 18.1217 16 16 16ZM16 16C16 18.1217 15.1571 20.1566 13.6569 21.6569C12.1566 23.1571 10.1217 24 8 24C8 21.8783 8.84285 19.8434 10.3431 18.3431C11.8434 16.8429 13.8783 16 16 16ZM82.96 7C83.623 7 84.2589 6.73661 84.7278 6.26777C85.1966 5.79893 85.46 5.16304 85.46 4.5C85.46 3.83696 85.1966 3.20107 84.7278 2.73223C84.2589 2.26339 83.623 2 82.96 2C82.297 2 81.6611 2.26339 81.1922 2.73223C80.7234 3.20107 80.46 3.83696 80.46 4.5C80.46 5.16304 80.7234 5.79893 81.1922 6.26777C81.6611 6.73661 82.297 7 82.96 7ZM72 6V28H75V30H65V28H68V8H67.7L59.5 25.58L51.3 8V28H54V30H46V28H48.7V6H46V4H54L60.5 17.94L67 4H75V6H72ZM87.5 30V28H85V10L81 10.6L78.4 11V13L81 13.4V28H78.4V30H87.5ZM111.7 30V28H109V16C109 12.68 106.32 10 103 10C100.04 10 97.58 12.14 97.1 14.94V10L93.1 10.6L90.5 11V13L93.1 13.4V28H90.5V30H99.6V28H97.1V16.96C97.1 14.76 98.84 13 101.04 13C103.24 13 105 14.76 105 16.96V28H102.6V30H111.7ZM120.7 13V28H126V30H118.7C117.6 30 116.7 29.1 116.7 28V13H112.96V11H114.2C115.24 11 116.12 10.36 116.5 9.48L116.7 9.06L118.6 5H120.7V11H126V13H120.7Z" fill="#EBF5ED"/>
</mask>
<g mask="url(#mask0_6001_868)">
<path d="M0 0H126V32H0V0Z" fill="#30BF54"/>
</g>
</g>
<defs>
<clipPath id="clip0_6001_868">
<rect width="126" height="32" fill="white"/>
</clipPath>
</defs>
</svg>
