<svg width="14" height="14" viewBox="0 0 14 14" fill="none" xmlns="http://www.w3.org/2000/svg">
<g clip-path="url(#clip0_718_3784)">
<path d="M6.57133 11.2287C6.81794 11.4753 7.21015 11.4753 7.45676 11.2287C7.57184 11.1136 7.6423 10.9516 7.6376 10.7872L7.6423 8.05809C7.6423 7.94771 7.68692 7.84202 7.76912 7.76217C7.84428 7.68701 7.94996 7.64239 8.06035 7.64239L10.7894 7.63769C10.9609 7.63769 11.1159 7.57193 11.231 7.45685C11.4776 7.21025 11.4776 6.80864 11.2357 6.56673C11.1206 6.45165 10.9632 6.38589 10.7941 6.38589H8.058C7.94292 6.38119 7.83723 6.33657 7.76207 6.25906C7.68692 6.18391 7.6423 6.07822 7.6423 5.96784V3.23172C7.6376 3.06497 7.57653 2.90526 7.45676 2.78314C7.23129 2.55767 6.82733 2.52714 6.56664 2.78783C6.45156 2.90292 6.3858 3.06027 6.3858 3.22937V5.96549C6.3858 6.07587 6.34117 6.18156 6.26602 6.25671C6.19086 6.33187 6.08517 6.37649 5.97009 6.38354H3.23397C3.06722 6.37884 2.90752 6.4493 2.79244 6.56438C2.54114 6.81568 2.54584 7.2032 2.79244 7.4498C2.90752 7.56488 3.05783 7.63534 3.23397 7.64004H5.97009C6.08048 7.64004 6.18616 7.68466 6.26132 7.75982C6.34117 7.83967 6.38814 7.94536 6.38814 8.05574V10.7919C6.38814 10.9633 6.4586 11.1136 6.57368 11.2287H6.57133ZM2.04558 11.9521C4.77466 14.6811 9.22056 14.6811 11.9496 11.9521C14.6787 9.223 14.6787 4.7771 11.9496 2.04803C9.22056 -0.681047 4.77466 -0.681047 2.04558 2.04803C-0.683489 4.7771 -0.683489 9.223 2.04558 11.9521Z" fill="#FAFAFA"/>
<path d="M6.57143 11.2287C6.45635 11.1136 6.38589 10.9633 6.38589 10.7919V8.05574C6.38589 7.94536 6.34126 7.83967 6.25906 7.75982C6.18391 7.68466 6.07822 7.64004 5.96784 7.64004H3.23172C3.05557 7.63534 2.90526 7.56488 2.79018 7.4498C2.54358 7.2032 2.53888 6.81568 2.79018 6.56438C2.90526 6.4493 3.06732 6.37884 3.23172 6.38354H5.96784C6.08292 6.37884 6.18861 6.33422 6.26376 6.25671C6.33892 6.18156 6.38354 6.07587 6.38354 5.96549V3.22937C6.38354 3.05792 6.4493 2.90292 6.56438 2.78783C6.82508 2.52714 7.22903 2.55767 7.4545 2.78314C7.57428 2.90292 7.63534 3.06497 7.64004 3.23172V5.96784C7.64004 6.07822 7.68466 6.18391 7.75982 6.25906C7.83497 6.33422 7.94066 6.37884 8.05574 6.38589H10.7919C10.9633 6.38589 11.1183 6.45165 11.2334 6.56673C11.4753 6.80864 11.4753 7.21025 11.2287 7.45685C11.1136 7.57193 10.9563 7.63769 10.7872 7.63769L8.05809 7.64239C7.94771 7.64239 7.84202 7.68701 7.76686 7.76217C7.68701 7.84202 7.64004 7.94771 7.64004 8.05809L7.63534 10.7872C7.64004 10.9539 7.56958 11.1136 7.4545 11.2287C7.2079 11.4753 6.81568 11.4753 6.56908 11.2287H6.57143ZM11.9521 11.9521C14.6811 9.223 14.6811 4.7771 11.9521 2.04803C9.223 -0.681047 4.7771 -0.681047 2.04803 2.04803C-0.681047 4.7771 -0.681047 9.223 2.04803 11.9521C4.7771 14.6811 9.223 14.6811 11.9521 11.9521Z" fill="#FAFAFA"/>
<path d="M7.76911 7.75983C7.84427 7.68467 7.94995 7.64005 8.06034 7.64005L10.7894 7.63535C10.9609 7.63535 11.1159 7.56959 11.2309 7.45451C11.4776 7.20791 11.4776 6.8063 11.2356 6.56439C11.1206 6.44931 10.9632 6.38355 10.7941 6.38355H8.05799C7.94291 6.37885 7.83722 6.33423 7.76207 6.25672C7.68691 6.18157 7.64229 6.07588 7.64229 5.9655V3.22938C7.63759 3.06263 7.57653 2.90293 7.45675 2.7808C7.23128 2.55533 6.82732 2.5248 6.56663 2.7855C6.45155 2.90058 6.38579 3.05793 6.38579 3.22703V5.96315C6.38579 6.07353 6.34116 6.17922 6.26601 6.25438C6.19085 6.32953 6.08517 6.37416 5.97009 6.3812H3.23397C3.06722 6.3765 2.90751 6.44696 2.79243 6.56204C2.54113 6.81334 2.54583 7.20086 2.79243 7.44746C2.90751 7.56255 3.05782 7.633 3.23397 7.6377H5.97009C6.08047 7.6377 6.18616 7.68232 6.26131 7.75748C6.34116 7.83733 6.38814 7.94302 6.38814 8.0534V10.7895C6.38814 10.961 6.45859 11.1113 6.57368 11.2264C6.82028 11.473 7.21249 11.473 7.4591 11.2264C7.57418 11.1113 7.64464 10.9492 7.63994 10.7848L7.64464 8.05575C7.64464 7.94537 7.68926 7.83968 7.77146 7.75983H7.76911Z" fill="#FAFAFA"/>
<path d="M6.57133 11.2287C6.81793 11.4753 7.21015 11.4753 7.45675 11.2287C7.57183 11.1136 7.64229 10.9515 7.63759 10.7871L7.64229 8.05807C7.64229 7.94769 7.68691 7.842 7.76911 7.76215C7.84427 7.68699 7.94995 7.64237 8.06034 7.64237L10.7894 7.63767C10.9609 7.63767 11.1159 7.57191 11.2309 7.45683C11.4776 7.21023 11.4776 6.80862 11.2356 6.56671C11.1206 6.45163 10.9632 6.38587 10.7941 6.38587H8.05799C7.94291 6.38117 7.83722 6.33655 7.76207 6.25904C7.68691 6.18389 7.64229 6.0782 7.64229 5.96782V3.2317C7.63759 3.06495 7.57653 2.90524 7.45675 2.78312C7.23128 2.55765 6.82732 2.52712 6.56663 2.78781C6.45155 2.9029 6.38579 3.06025 6.38579 3.22935V5.96547C6.38579 6.07585 6.34116 6.18154 6.26601 6.2567C6.19085 6.33185 6.08517 6.37647 5.97009 6.38352H3.23397C3.06722 6.37882 2.90751 6.44928 2.79243 6.56436C2.54113 6.81566 2.54583 7.20318 2.79243 7.44978C2.90751 7.56487 3.05782 7.63532 3.23397 7.64002H5.97009C6.08047 7.64002 6.18616 7.68464 6.26131 7.7598C6.34116 7.83965 6.38814 7.94534 6.38814 8.05572V10.7918C6.38814 10.9633 6.45859 11.1136 6.57368 11.2287H6.57133Z" fill="#09090B"/>
</g>
<defs>
<clipPath id="clip0_718_3784">
<rect width="14" height="14" fill="white"/>
</clipPath>
</defs>
</svg>
