<svg width="14" height="14" viewBox="0 0 14 14" fill="none" xmlns="http://www.w3.org/2000/svg">
<g clip-path="url(#clip0_718_3593)">
<path fill-rule="evenodd" clip-rule="evenodd" d="M14 7C14 10.8592 10.8592 14 7 14C3.14085 14 0 10.8592 0 7C0 3.14085 3.14085 0 7 0C10.8592 0 14 3.14085 14 7ZM3.20658 7.00704C3.07043 6.86385 3.00705 6.67371 3.00705 6.48826H3.0094C3.0094 6.06807 3.36386 5.72066 3.777 5.72066C3.98358 5.72066 4.1878 5.80516 4.33804 5.96948L6.46949 8.30047L9.54696 4.01643C9.69484 3.80986 9.92959 3.70422 10.1714 3.70422C10.5775 3.70422 10.939 4.01643 10.939 4.46479C10.939 4.62206 10.8944 4.78404 10.7958 4.92019L7.16433 9.97183C7.03757 10.1573 6.81691 10.284 6.58921 10.284C6.3263 10.284 6.12207 10.2136 5.97184 10.0423L3.20658 7.00704Z" fill="#22C55E"/>
</g>
<defs>
<clipPath id="clip0_718_3593">
<rect width="14" height="14" fill="white"/>
</clipPath>
</defs>
</svg>
