<svg width="14" height="14" viewBox="0 0 14 14" fill="none" xmlns="http://www.w3.org/2000/svg">
<g clip-path="url(#clip0_718_3820)">
<path d="M9.68704 10.2932C9.52429 10.2932 9.36818 10.2367 9.24695 10.1155L7.31222 8.18077C7.23417 8.10272 7.12788 8.05954 7.01329 8.0612C6.90701 8.0612 6.80072 8.10438 6.72267 8.18243L4.78794 10.1172C4.66007 10.2384 4.50396 10.2949 4.34121 10.2949C3.99246 10.2949 3.71512 10.0242 3.71512 9.66877C3.71512 9.50602 3.77989 9.34161 3.89946 9.22868L5.83419 7.29395C5.91224 7.20926 5.95542 7.10297 5.95376 6.99502C5.95376 6.88874 5.91058 6.78245 5.83253 6.7044L3.8978 4.76967C3.77657 4.64844 3.71346 4.49233 3.71346 4.32958C3.71346 3.96091 4.02069 3.69685 4.33955 3.69685C4.50894 3.69685 4.66671 3.76826 4.78794 3.88285L6.72267 5.81758C6.80072 5.89563 6.90701 5.93881 7.01329 5.93881C7.11958 5.93881 7.22586 5.89563 7.31222 5.81924L9.24695 3.88451C9.36818 3.76328 9.52429 3.70017 9.68704 3.70017C10.0291 3.70017 10.3131 3.98416 10.3131 4.33291C10.3131 4.49566 10.2484 4.65342 10.1288 4.77299L8.20236 6.70606C8.12431 6.78411 8.08113 6.8904 8.08113 6.99669C8.08113 7.10961 8.12265 7.21756 8.2007 7.29561L10.1271 9.22868C10.2484 9.34327 10.3115 9.50602 10.3115 9.66877C10.3115 10.0175 10.0341 10.2949 9.68538 10.2949L9.68704 10.2932ZM14.0032 7.00001C14.0032 3.14052 10.8595 -0.003209 7.00001 -0.003209C3.14052 -0.003209 -0.00320886 3.14052 -0.00320886 7.00001C-0.00320886 10.8595 3.14052 14.0032 7.00001 14.0032C10.8595 14.0032 14.0032 10.8595 14.0032 7.00001Z" fill="#EF4444"/>
</g>
<defs>
<clipPath id="clip0_718_3820">
<rect width="14" height="14" fill="white"/>
</clipPath>
</defs>
</svg>
