<svg width="14" height="14" viewBox="0 0 14 14" fill="none" xmlns="http://www.w3.org/2000/svg">
<g clip-path="url(#clip0_718_3740)">
<path d="M10.5669 5.76291C10.7031 6.14554 10.6937 6.45305 10.5458 6.60094L5.4854 11.6596C5.47131 11.5399 5.43609 11.4178 5.39382 11.2911C5.21536 10.7512 4.83965 10.169 4.32774 9.67136C3.82992 9.15963 3.24756 8.78404 2.70747 8.60564C2.58067 8.56338 2.45856 8.52817 2.33881 8.51409L7.38275 3.46714C7.54008 3.30986 7.84535 3.30282 8.24219 3.43193C8.69775 3.58216 9.19557 3.91549 9.64172 4.36385C10.0879 4.81221 10.4166 5.30282 10.5669 5.76291Z" fill="#FFD200"/>
<path d="M13.3096 3.83805L12.9621 4.18547C12.8494 3.50237 12.3516 2.7418 11.8044 2.19486C11.2996 1.69016 10.7243 1.31457 10.1771 1.12913C10.0503 1.08687 9.92823 1.05871 9.81552 1.03758L10.1631 0.690161C10.5975 0.255889 11.8044 0.953072 12.4244 1.58453C13.0349 2.18077 13.7464 3.40378 13.312 3.83805H13.3096Z" fill="#FF8080"/>
<path d="M11.4546 4.88263C11.5743 5.23709 11.5673 5.52817 11.4475 5.69953L11.1986 5.94836C11.1845 5.83568 11.1493 5.70657 11.1141 5.57981C10.9286 5.0399 10.5458 4.46479 10.048 3.95305C9.4938 3.41314 8.69072 2.89436 8.04966 2.80282L8.26334 2.59624C8.42772 2.43897 8.73299 2.41784 9.11574 2.54695C9.57834 2.71127 10.0832 3.03756 10.5223 3.47887C10.9614 3.92019 11.2902 4.42488 11.4546 4.88497V4.88263ZM12.3281 4.00939C12.4643 4.38497 12.4549 4.69249 12.2999 4.84742L12.0792 5.06807C11.9524 4.35681 11.4827 3.62441 10.9215 3.07746C10.3814 2.53051 9.66287 2.04695 8.93023 1.92019L9.13688 1.71361C9.22141 1.62911 9.35761 1.58685 9.51963 1.58685C10.1302 1.58685 10.891 2.09155 11.4029 2.60328C11.8444 3.0446 12.1708 3.54225 12.3281 4.00939Z" fill="#666660"/>
<path d="M4.85846 12.2794L1.85041 13.0258L1.84336 12.9977C1.80109 12.8193 1.67194 12.6432 1.50992 12.4859C1.35259 12.3216 1.17647 12.1949 0.998008 12.1526L0.969829 12.1456L1.7236 9.13852C1.89502 9.02585 2.17211 9.02585 2.51965 9.13852C2.98929 9.30284 3.48711 9.62913 3.92622 10.0704C4.37473 10.5118 4.70113 11.0165 4.85846 11.4766C4.97117 11.824 4.97117 12.115 4.85846 12.2794Z" fill="white"/>
<path d="M10.5669 5.76291C10.7031 6.14554 10.6937 6.45305 10.5458 6.60094L5.48541 11.6596C5.47132 11.5399 5.43609 11.4178 5.39383 11.2911C5.21536 10.7512 4.83965 10.169 4.32774 9.67136C3.82992 9.15962 3.24757 8.78404 2.70748 8.60563C2.58068 8.56338 2.45857 8.52817 2.33881 8.51408L7.38276 3.46714C7.54009 3.30986 7.84535 3.30282 8.2422 3.43192C8.69775 3.58216 9.19557 3.91549 9.64173 4.36385C10.0879 4.81221 10.4166 5.30282 10.5669 5.76291ZM11.4545 4.88263C11.5743 5.23709 11.5673 5.52817 11.4475 5.69953L11.1986 5.94836C11.1845 5.83568 11.1493 5.70657 11.1141 5.57981C10.9285 5.03991 10.5458 4.46479 10.048 3.95305C9.49379 3.41315 8.69071 2.89437 8.04965 2.80282L8.26333 2.59624C8.42771 2.43897 8.73298 2.41784 9.11573 2.54695C9.57833 2.71127 10.0832 3.03756 10.5223 3.47887C10.9614 3.92019 11.2902 4.42488 11.4545 4.88498V4.88263ZM12.3281 4.00939C12.4643 4.38498 12.4549 4.69249 12.2999 4.84742L12.0792 5.06808C11.9524 4.35681 11.4827 3.62441 10.9215 3.07746C10.3814 2.53052 9.66286 2.04695 8.93022 1.92019L9.13687 1.71362C9.2214 1.62911 9.3576 1.58685 9.51962 1.58685C10.1302 1.58685 10.891 2.09155 11.4029 2.60329C11.8443 3.0446 12.1707 3.54225 12.3281 4.00939ZM13.3096 3.83803L12.9621 4.18545C12.8494 3.50235 12.3516 2.74178 11.8044 2.19484C11.2996 1.69014 10.7243 1.31455 10.1771 1.12911C10.0503 1.08685 9.92821 1.05869 9.8155 1.03756L10.163 0.690141C10.5975 0.255869 11.8044 0.953052 12.4244 1.58451C13.0349 2.18075 13.7464 3.40376 13.312 3.83803H13.3096ZM14 3.57512C14 2.67371 13.5515 1.9061 12.8259 1.18075C12.1661 0.518779 11.1986 0 10.4237 0C10.1536 0 9.91882 0.126761 9.75444 0.29108L1.35257 8.69014C1.21637 8.82629 1.18819 8.92488 1.16001 9.02347L0.00939152 13.6432C-0.0328762 13.8216 0.0657485 13.9977 0.265346 13.9977C0.342837 13.9977 0.500167 13.9484 0.69272 13.8991L4.94297 12.8474C5.09326 12.8122 5.19893 12.7488 5.34217 12.6056L11.7739 6.17606L11.8162 6.14085L11.8725 6.07746L13.7065 4.24413C13.8779 4.07277 13.9977 3.84507 13.9977 3.57512H14ZM4.85844 12.2793L1.85038 13.0258L1.84334 12.9977C1.80107 12.8192 1.67192 12.6432 1.5099 12.4859C1.35257 12.3216 1.17645 12.1948 0.997987 12.1526L0.969808 12.1455L1.72358 9.1385C1.895 9.02582 2.17209 9.02582 2.51962 9.1385C2.98926 9.30282 3.48708 9.62911 3.9262 10.0704C4.37471 10.5117 4.70111 11.0164 4.85844 11.4765C4.97115 11.8239 4.97115 12.115 4.85844 12.2793Z" fill="black"/>
</g>
<defs>
<clipPath id="clip0_718_3740">
<rect width="14" height="14" fill="white" transform="matrix(-1 0 0 1 14 0)"/>
</clipPath>
</defs>
</svg>
