<svg width="15" height="14" viewBox="0 0 15 14" fill="none" xmlns="http://www.w3.org/2000/svg">
<path d="M12.8698 10.8543L8.19973 2.49962C7.8254 1.83434 7.18758 1.83434 6.81325 2.49434L2.12685 10.849C1.79613 11.4456 2.13775 12 2.85371 12H12.1447C12.8607 12 13.2059 11.4509 12.8716 10.8543H12.8698ZM7.50558 11.1147C6.93318 11.1147 6.47708 10.673 6.47708 10.1186C6.47708 9.56419 6.93318 9.13827 7.50558 9.13827C8.07798 9.13827 8.51773 9.58002 8.51773 10.1186C8.51773 10.6571 8.06163 11.1147 7.50558 11.1147ZM8.1543 8.28468C8.09434 8.65779 7.86356 8.91827 7.50013 8.91827C7.15851 8.91827 6.90048 8.68947 6.84051 8.28468C6.76964 7.81124 6.48253 5.59895 6.48253 5.31735C6.48253 4.79463 6.90048 4.28952 7.50013 4.28952C8.09979 4.28952 8.52318 4.79111 8.52318 5.31735C8.52318 5.59895 8.27605 7.54901 8.1543 8.28468Z" fill="#F97316"/>
</svg>
