<svg width="32" height="32" viewBox="0 0 32 32" fill="none" xmlns="http://www.w3.org/2000/svg">
<path d="M16.252 1.98344C16.3283 1.98344 16.4046 2.00448 16.473 2.04394L28.2076 8.87006C28.3444 8.94897 28.4285 9.09628 28.4259 9.25148L28.3812 22.8274C28.3812 22.9853 28.297 23.1299 28.1602 23.2089L16.3809 29.9587C16.3151 29.9982 16.2362 30.0166 16.1599 30.0166C16.0837 30.0166 16.0074 29.9955 15.939 29.9561L4.20436 23.1299C4.06758 23.051 3.9834 22.9037 3.98603 22.7485L4.03075 9.17257C4.03075 9.01474 4.11492 8.87006 4.25171 8.79114L16.031 2.04131C16.0968 2.00185 16.1731 1.98344 16.252 1.98344ZM16.2573 4.69775e-05C15.839 -0.00258351 15.4208 0.105267 15.0446 0.320967L3.26528 7.06817C2.51296 7.49957 2.04999 8.29661 2.04473 9.16467L2.00001 22.7406C1.99738 23.6061 2.45772 24.4084 3.20478 24.845L14.9394 31.6711C15.3129 31.8895 15.7312 31.9973 16.152 32C16.5703 32.0026 16.9885 31.8947 17.3647 31.679L29.144 24.9292C29.8964 24.4978 30.3593 23.7008 30.3646 22.8327L30.4093 9.25937C30.4119 8.39394 29.9516 7.59164 29.2045 7.15498L17.4699 0.328858C17.0938 0.110528 16.6755 4.69775e-05 16.2573 4.69775e-05Z" fill="white"/>
<path d="M18.6353 7.39966H16.9149C16.786 7.39966 16.6703 7.4812 16.6256 7.60221L11.0963 22.7643C11.0594 22.8643 11.1331 22.9695 11.2409 22.9695H12.9613C13.0902 22.9695 13.2059 22.888 13.2506 22.767L18.7826 7.60221C18.8141 7.50488 18.7405 7.39966 18.6353 7.39966ZM15.626 7.39966H13.9056C13.7767 7.39966 13.661 7.4812 13.6163 7.60221L8.08699 22.7643C8.05016 22.8643 8.12381 22.9695 8.23166 22.9695H9.952C10.0809 22.9695 10.1966 22.888 10.2414 22.767L15.7733 7.60221C15.8075 7.50488 15.7338 7.39966 15.626 7.39966ZM17.854 13.2788C17.804 13.1446 17.6146 13.1446 17.5646 13.2788L16.6703 15.7304C16.6466 15.7988 16.6466 15.8725 16.6703 15.9409L19.1614 22.7696C19.2061 22.8906 19.3218 22.9722 19.4507 22.9722H21.171C21.2789 22.9722 21.3525 22.8669 21.3157 22.767L17.854 13.2788ZM24.3224 22.7643L19.3586 9.15683C19.3087 9.02267 19.1193 9.02267 19.0693 9.15683L18.1749 11.6084C18.1512 11.6768 18.1512 11.7505 18.1749 11.8189L22.1706 22.7696C22.2153 22.8906 22.3311 22.9722 22.46 22.9722H24.1803C24.2829 22.9695 24.3592 22.8643 24.3224 22.7643Z" fill="white"/>
</svg>
