<?xml version="1.0" encoding="UTF-8"?>
<svg id="Layer_2" data-name="Layer 2" xmlns="http://www.w3.org/2000/svg" viewBox="0 0 54.49 24.85">
  <defs>
    <style>
      .cls-1 {
        stroke-width: 0px;
      }
    </style>
  </defs>
  <g id="Layer_1-2" data-name="Layer 1">
    <path class="cls-1" d="m54.49,12.41c0,1.03-.61,1.6-1.24,2.03l-14.56,9.99c-.42.27-.91.42-1.36.42-1.45,0-2.42-1.18-2.42-2.42,0-.76.36-1.51,1.06-2l8.14-5.6H2.42c-1.36,0-2.42-1.09-2.42-2.42s1.06-2.42,2.42-2.42h41.69l-8.14-5.57c-.7-.48-1.06-1.24-1.06-2,0-1.3,1.09-2.42,2.42-2.42.45,0,.94.12,1.36.42l14.56,9.93c.67.45,1.24,1.21,1.24,2.06Z"/>
  </g>
</svg>