<?xml version="1.0" encoding="UTF-8"?>
<svg id="Layer_2" data-name="Layer 2" xmlns="http://www.w3.org/2000/svg" viewBox="0 0 54.49 43.96">
  <defs>
    <style>
      .cls-1 {
        stroke-width: 0px;
      }
    </style>
  </defs>
  <g id="Layer_1-2" data-name="Layer 1">
    <path class="cls-1" d="m42.41,42.35v-11.02c0-.94.61-1.57,1.51-1.57s1.51.64,1.51,1.57v4.51l6.08-5.51c.33-.3.7-.48,1.27-.48.61,0,1.24.58,1.24,1.18,0,.54-.21.97-.82,1.51l-3.72,3.36,4.27,5.42c.48.64.64.94.64,1.36,0,.67-.67,1.21-1.42,1.21-.45,0-1.06-.21-1.42-.67l-4.21-5.39-1.91,1.73v2.79c0,.91-.61,1.54-1.51,1.54s-1.51-.64-1.51-1.54Zm-14.74-5.51c0-4.21,2.85-7.11,6.9-7.11,2.3,0,4.06.67,5.36,2.15.45.54.76,1.21.76,1.76,0,.79-.67,1.45-1.45,1.45-.42,0-.91-.18-1.33-.67-.82-1.09-1.85-1.67-3.3-1.67-2.24,0-3.81,1.7-3.81,4.09s1.57,4.09,3.81,4.09c1.45,0,2.48-.61,3.3-1.7.45-.48.91-.67,1.36-.67.79,0,1.42.67,1.42,1.48,0,.48-.27,1.15-.73,1.67-1.3,1.51-3.06,2.24-5.39,2.24-4.06,0-6.9-2.91-6.9-7.11Zm-9.38,1.09h4.15l-2.06-5.36-2.09,5.36Zm-4.84,4.6c0-.24.06-.61.21-1l3.84-9.45c.64-1.6,1.39-2.36,2.88-2.36s2.24.76,2.88,2.36l3.84,9.45c.15.39.21.76.21,1,0,.76-.67,1.39-1.42,1.39s-1.27-.33-1.51-.97l-.85-2.18h-6.33l-.85,2.18c-.24.64-.73.97-1.48.97s-1.42-.64-1.42-1.39Zm-8.75-6.96h3.3c1,0,1.6-.51,1.6-1.3,0-.85-.64-1.36-1.6-1.36h-3.3v2.66Zm0,5.21h3.33c1.03,0,1.63-.51,1.63-1.45s-.61-1.42-1.63-1.42h-3.33v2.88ZM0,12.41c0-.85.58-1.6,1.24-2.06L15.8.42c.42-.3.91-.42,1.36-.42,1.33,0,2.42,1.12,2.42,2.42,0,.76-.36,1.51-1.06,2l-8.14,5.57h41.69c1.36,0,2.42,1.09,2.42,2.42s-1.06,2.42-2.42,2.42H10.38l8.14,5.6c.7.48,1.06,1.24,1.06,2,0,1.24-.97,2.42-2.42,2.42-.45,0-.94-.15-1.36-.42L1.24,14.44c-.64-.42-1.24-1-1.24-2.03Zm12.81,27.12c0,2.45-1.79,4.15-4.75,4.15H3.18c-.88,0-1.48-.64-1.48-1.54v-10.6c0-.91.61-1.54,1.48-1.54h4.87c2.88,0,4.69,1.57,4.69,4.03,0,1.18-.61,2.12-1.76,2.72,1.18.58,1.82,1.54,1.82,2.79Z"/>
  </g>
</svg>