<svg width="16" height="16" viewBox="0 0 16 16" fill="none" xmlns="http://www.w3.org/2000/svg">
<g opacity="0.9">
<path d="M6.03134 2.4694L11.0313 7.4694C11.1013 7.53908 11.1567 7.62187 11.1946 7.71304C11.2325 7.8042 11.2519 7.90194 11.2519 8.00065C11.2519 8.09936 11.2325 8.1971 11.1946 8.28827C11.1567 8.37943 11.1013 8.46222 11.0313 8.5319L6.03134 13.5319C5.89045 13.6728 5.69935 13.752 5.50009 13.752C5.30084 13.752 5.10974 13.6728 4.96884 13.5319C4.82795 13.391 4.74879 13.1999 4.74879 13.0007C4.74879 12.8014 4.82795 12.6103 4.96884 12.4694L9.43822 8.00003L4.96822 3.53065C4.82732 3.38976 4.74817 3.19866 4.74817 2.9994C4.74817 2.80015 4.82732 2.60905 4.96822 2.46815C5.10912 2.32726 5.30021 2.2481 5.49947 2.2481C5.69873 2.2481 5.88982 2.32726 6.03072 2.46815L6.03134 2.4694Z" fill="#D4D4D8"/>
</g>
</svg>
