<svg width="16" height="16" viewBox="0 0 16 16" fill="none" xmlns="http://www.w3.org/2000/svg">
<g opacity="0.9">
<path d="M9.96878 2.4694L4.96878 7.4694C4.89886 7.53908 4.84338 7.62187 4.80553 7.71304C4.76767 7.8042 4.74819 7.90194 4.74819 8.00065C4.74819 8.09936 4.76767 8.1971 4.80553 8.28827C4.84338 8.37943 4.89886 8.46222 4.96878 8.5319L9.96878 13.5319C10.1097 13.6728 10.3008 13.752 10.5 13.752C10.6993 13.752 10.8904 13.6728 11.0313 13.5319C11.1722 13.391 11.2513 13.1999 11.2513 13.0007C11.2513 12.8014 11.1722 12.6103 11.0313 12.4694L6.5619 8.00003L11.0319 3.53065C11.1728 3.38976 11.252 3.19866 11.252 2.9994C11.252 2.80015 11.1728 2.60905 11.0319 2.46815C10.891 2.32726 10.6999 2.2481 10.5007 2.2481C10.3014 2.2481 10.1103 2.32726 9.9694 2.46815L9.96878 2.4694Z" fill="#D4D4D8"/>
</g>
</svg>
