<svg width="16" height="16" viewBox="0 0 16 16" fill="none" xmlns="http://www.w3.org/2000/svg">
<g opacity="0.9">
<path d="M13.5306 6.03134L8.5306 11.0313C8.46092 11.1013 8.37813 11.1567 8.28696 11.1946C8.1958 11.2325 8.09806 11.2519 7.99935 11.2519C7.90064 11.2519 7.8029 11.2325 7.71173 11.1946C7.62057 11.1567 7.53778 11.1013 7.4681 11.0313L2.4681 6.03134C2.3272 5.89045 2.24805 5.69935 2.24805 5.50009C2.24805 5.30084 2.3272 5.10974 2.4681 4.96884C2.60899 4.82795 2.80009 4.74879 2.99935 4.74879C3.19861 4.74879 3.3897 4.82795 3.5306 4.96884L7.99997 9.43822L12.4693 4.96822C12.6102 4.82732 12.8013 4.74817 13.0006 4.74817C13.1999 4.74817 13.391 4.82732 13.5318 4.96822C13.6727 5.10912 13.7519 5.30021 13.7519 5.49947C13.7519 5.69873 13.6727 5.88982 13.5318 6.03072L13.5306 6.03134Z" fill="#D4D4D8"/>
</g>
</svg>
