<svg width="16" height="16" viewBox="0 0 16 16" fill="none" xmlns="http://www.w3.org/2000/svg">
<path fill-rule="evenodd" clip-rule="evenodd" d="M8 -3.49691e-07C6.41775 -4.18853e-07 4.87103 0.469192 3.55544 1.34824C2.23985 2.22729 1.21447 3.47672 0.608967 4.93853C0.00346633 6.40034 -0.154961 8.00887 0.15372 9.56072C0.462403 11.1126 1.22433 12.538 2.34315 13.6569C3.46197 14.7757 4.88743 15.5376 6.43928 15.8463C7.99113 16.155 9.59966 15.9965 11.0615 15.391C12.5233 14.7855 13.7727 13.7602 14.6518 12.4446C15.5308 11.129 16 9.58225 16 8C15.9976 5.87899 15.154 3.84553 13.6543 2.34574C12.1545 0.845963 10.121 0.0023532 8 -3.49691e-07ZM11.592 6.18597C11.6748 6.26855 11.7406 6.36667 11.7855 6.47472C11.8303 6.58277 11.8534 6.69861 11.8534 6.8156C11.8534 6.93259 11.8303 7.04843 11.7855 7.15647C11.7406 7.26452 11.6748 7.36264 11.592 7.44522L8.62902 10.4082C8.54644 10.4911 8.44831 10.5568 8.34026 10.6017C8.23222 10.6465 8.11638 10.6696 7.99939 10.6696C7.8824 10.6696 7.76656 10.6465 7.65851 10.6017C7.55047 10.5568 7.45234 10.4911 7.36976 10.4082L4.4068 7.44522C4.23981 7.27824 4.146 7.05175 4.146 6.8156C4.146 6.57944 4.23981 6.35295 4.4068 6.18597C4.57378 6.01898 4.80027 5.92516 5.03643 5.92516C5.27258 5.92516 5.49907 6.01898 5.66606 6.18597L8.00013 8.51856L10.3342 6.18374C10.4169 6.10124 10.5151 6.03585 10.623 5.99131C10.731 5.94677 10.8467 5.92395 10.9636 5.92415C11.0804 5.92436 11.196 5.94759 11.3038 5.99251C11.4117 6.03744 11.5096 6.10317 11.592 6.18597Z" fill="#D4D4D8"/>
</svg>
