<svg width="16" height="16" viewBox="0 0 16 16" fill="none" xmlns="http://www.w3.org/2000/svg">
<path fill-rule="evenodd" clip-rule="evenodd" d="M16 8C16 9.58225 15.5308 11.129 14.6518 12.4446C13.7727 13.7602 12.5233 14.7855 11.0615 15.391C9.59966 15.9965 7.99113 16.155 6.43928 15.8463C4.88743 15.5376 3.46197 14.7757 2.34315 13.6569C1.22433 12.538 0.462403 11.1126 0.153722 9.56072C-0.154959 8.00887 0.0034647 6.40034 0.608966 4.93853C1.21447 3.47672 2.23985 2.22729 3.55544 1.34824C4.87103 0.469193 6.41775 0 8 0C10.121 0.00235367 12.1545 0.845963 13.6543 2.34574C15.154 3.84552 15.9976 5.87899 16 8ZM9.81403 4.40802C9.73145 4.32515 9.63333 4.2594 9.52528 4.21454C9.41723 4.16967 9.30139 4.14658 9.1844 4.14658C9.06741 4.14658 8.95157 4.16967 8.84353 4.21454C8.73548 4.2594 8.63736 4.32515 8.55478 4.40802L5.59181 7.37098C5.50895 7.45356 5.44319 7.55169 5.39833 7.65974C5.35347 7.76778 5.33037 7.88362 5.33037 8.00061C5.33037 8.1176 5.35347 8.23344 5.39833 8.34149C5.44319 8.44953 5.50895 8.54766 5.59181 8.63024L8.55477 11.5932C8.72176 11.7602 8.94825 11.854 9.1844 11.854C9.42056 11.854 9.64705 11.7602 9.81403 11.5932C9.98102 11.4262 10.0748 11.1997 10.0748 10.9636C10.0748 10.7274 9.98102 10.5009 9.81403 10.3339L7.48144 7.99987L9.81626 5.6658C9.89876 5.5831 9.96415 5.48495 10.0087 5.37696C10.0532 5.26897 10.0761 5.15326 10.0758 5.03645C10.0756 4.91963 10.0524 4.80401 10.0075 4.69618C9.96256 4.58835 9.89683 4.49043 9.81403 4.40802Z" fill="#D4D4D8"/>
</svg>
