<svg width="16" height="16" viewBox="0 0 16 16" fill="none" xmlns="http://www.w3.org/2000/svg">
<g opacity="0.9">
<path d="M2.4694 9.96866L7.4694 4.96865C7.53908 4.89873 7.62187 4.84326 7.71304 4.8054C7.8042 4.76755 7.90194 4.74806 8.00065 4.74806C8.09936 4.74806 8.1971 4.76755 8.28827 4.8054C8.37943 4.84326 8.46222 4.89873 8.5319 4.96865L13.5319 9.96866C13.6728 10.1096 13.752 10.3006 13.752 10.4999C13.752 10.6992 13.6728 10.8903 13.5319 11.0312C13.391 11.1721 13.1999 11.2512 13.0007 11.2512C12.8014 11.2512 12.6103 11.1721 12.4694 11.0312L8.00003 6.56178L3.53065 11.0318C3.38976 11.1727 3.19866 11.2518 2.9994 11.2518C2.80015 11.2518 2.60905 11.1727 2.46815 11.0318C2.32726 10.8909 2.2481 10.6998 2.2481 10.5005C2.2481 10.3013 2.32726 10.1102 2.46815 9.96928L2.4694 9.96866Z" fill="#D4D4D8"/>
</g>
</svg>
