<svg width="16" height="16" viewBox="0 0 16 16" fill="none" xmlns="http://www.w3.org/2000/svg">
<path fill-rule="evenodd" clip-rule="evenodd" d="M8 16C9.58225 16 11.129 15.5308 12.4446 14.6518C13.7602 13.7727 14.7855 12.5233 15.391 11.0615C15.9965 9.59966 16.155 7.99113 15.8463 6.43928C15.5376 4.88743 14.7757 3.46197 13.6569 2.34315C12.538 1.22433 11.1126 0.462403 9.56072 0.153722C8.00887 -0.154959 6.40034 0.0034647 4.93853 0.608966C3.47672 1.21447 2.22729 2.23985 1.34824 3.55544C0.469193 4.87103 0 6.41775 0 8C0.00235367 10.121 0.845963 12.1545 2.34574 13.6543C3.84552 15.154 5.87899 15.9976 8 16ZM4.40802 9.81403C4.32515 9.73145 4.2594 9.63333 4.21454 9.52528C4.16967 9.41723 4.14658 9.30139 4.14658 9.1844C4.14658 9.06741 4.16967 8.95157 4.21454 8.84353C4.2594 8.73548 4.32515 8.63736 4.40802 8.55478L7.37098 5.59181C7.45356 5.50895 7.55169 5.44319 7.65974 5.39833C7.76778 5.35347 7.88362 5.33037 8.00061 5.33037C8.1176 5.33037 8.23344 5.35347 8.34149 5.39833C8.44953 5.44319 8.54766 5.50895 8.63024 5.59181L11.5932 8.55477C11.7602 8.72176 11.854 8.94825 11.854 9.1844C11.854 9.42056 11.7602 9.64705 11.5932 9.81403C11.4262 9.98102 11.1997 10.0748 10.9636 10.0748C10.7274 10.0748 10.5009 9.98102 10.3339 9.81403L7.99987 7.48144L5.6658 9.81626C5.5831 9.89876 5.48495 9.96415 5.37696 10.0087C5.26897 10.0532 5.15326 10.0761 5.03645 10.0758C4.91963 10.0756 4.80401 10.0524 4.69618 10.0075C4.58835 9.96256 4.49043 9.89683 4.40802 9.81403Z" fill="#D4D4D8"/>
</svg>
