<svg width="16" height="16" viewBox="0 0 16 16" fill="none" xmlns="http://www.w3.org/2000/svg">
<path fill-rule="evenodd" clip-rule="evenodd" d="M0 8C0 9.58225 0.469192 11.129 1.34824 12.4446C2.22729 13.7602 3.47672 14.7855 4.93853 15.391C6.40034 15.9965 8.00887 16.155 9.56072 15.8463C11.1126 15.5376 12.538 14.7757 13.6569 13.6569C14.7757 12.538 15.5376 11.1126 15.8463 9.56072C16.155 8.00887 15.9965 6.40034 15.391 4.93853C14.7855 3.47672 13.7602 2.22729 12.4446 1.34824C11.129 0.469193 9.58225 0 8 0C5.87899 0.00235367 3.84553 0.845963 2.34574 2.34574C0.845963 3.84552 0.00235346 5.87899 0 8ZM6.18597 4.40802C6.26855 4.32515 6.36667 4.2594 6.47472 4.21454C6.58277 4.16967 6.69861 4.14658 6.8156 4.14658C6.93259 4.14658 7.04843 4.16967 7.15647 4.21454C7.26452 4.2594 7.36264 4.32515 7.44522 4.40802L10.4082 7.37098C10.4911 7.45356 10.5568 7.55169 10.6017 7.65974C10.6465 7.76778 10.6696 7.88362 10.6696 8.00061C10.6696 8.1176 10.6465 8.23344 10.6017 8.34149C10.5568 8.44953 10.4911 8.54766 10.4082 8.63024L7.44523 11.5932C7.27824 11.7602 7.05175 11.854 6.8156 11.854C6.57944 11.854 6.35295 11.7602 6.18597 11.5932C6.01898 11.4262 5.92517 11.1997 5.92517 10.9636C5.92517 10.7274 6.01898 10.5009 6.18597 10.3339L8.51856 7.99987L6.18374 5.6658C6.10124 5.5831 6.03585 5.48495 5.99131 5.37696C5.94677 5.26897 5.92395 5.15326 5.92415 5.03645C5.92436 4.91963 5.94759 4.80401 5.99251 4.69618C6.03744 4.58835 6.10317 4.49043 6.18597 4.40802Z" fill="#D4D4D8"/>
</svg>
