<?xml version="1.0" encoding="UTF-8"?>
<svg id="Layer_2" data-name="Layer 2" xmlns="http://www.w3.org/2000/svg" viewBox="0 0 59.64 59.64">
  <defs>
    <style>
      .cls-1 {
        stroke-width: 0px;
      }
    </style>
  </defs>
  <g id="Layer_1-2" data-name="Layer 1">
    <path class="cls-1" d="m12.81,27.64c0-1.79,1.51-3.27,3.27-3.27.88,0,1.76.36,2.39,1.06l9.08,9.93,13.11-18.25c.64-.88,1.63-1.33,2.66-1.33,1.73,0,3.27,1.33,3.27,3.24,0,.67-.18,1.36-.61,1.94l-15.47,21.52c-.54.79-1.48,1.33-2.45,1.33-1.12,0-2-.3-2.63-1.03l-11.78-12.93c-.58-.61-.85-1.42-.85-2.21ZM0,29.82c0,16.44,13.38,29.82,29.82,29.82s29.82-13.38,29.82-29.82S46.26,0,29.82,0,0,13.38,0,29.82Z"/>
  </g>
</svg>