<svg id="Layer_2" data-name="Layer 2" xmlns="http://www.w3.org/2000/svg" viewBox="0 0 59.64 59.64">
  <g id="Layer_1-2" data-name="Layer 1">
    <g>
      <circle fill= "#fff" cx="29.82" cy="29.82" r="26.25"/>
      <path class="cls-1" d="m47.35,29.82c0,.64.51,1.18,1.18,1.18h4.87c.64,0,1.18-.54,1.18-1.18s-.54-1.18-1.18-1.18h-4.87c-.67,0-1.18.51-1.18,1.18Zm-2.36-8.78c.21.39.64.61,1.03.61.21,0,.42-.06.61-.15l4.21-2.42c.58-.33.76-1.06.42-1.63s-1.06-.76-1.6-.42l-4.21,2.42c-.58.33-.79,1.06-.45,1.6Zm0,17.53c-.33.58-.12,1.3.45,1.63l4.21,2.42c.18.12.39.15.58.15.42,0,.82-.21,1.03-.58.33-.58.15-1.3-.42-1.63l-4.21-2.42c-.58-.33-1.3-.15-1.63.42Zm-6.84-25.55c-.33.58-.12,1.3.42,1.63.21.09.39.15.61.15.39,0,.82-.21,1.03-.61l2.42-4.21c.33-.58.15-1.3-.42-1.6-.58-.33-1.3-.15-1.63.42l-2.42,4.21Zm0,33.6l2.42,4.21c.21.36.64.58,1.03.58.21,0,.42-.03.61-.15.58-.33.76-1.06.42-1.63l-2.42-4.21c-.33-.54-1.06-.76-1.63-.42-.54.33-.76,1.06-.42,1.63ZM17.01,9.99l2.42,4.21c.21.39.61.61,1.03.61.21,0,.39-.06.61-.15.54-.33.76-1.06.42-1.63l-2.42-4.21c-.33-.58-1.06-.76-1.63-.42-.58.3-.76,1.03-.42,1.6Zm0,39.63c-.33.58-.15,1.3.42,1.63.18.12.39.15.61.15.39,0,.82-.21,1.03-.58l2.42-4.21c.33-.58.12-1.3-.42-1.63-.58-.33-1.3-.12-1.63.42l-2.42,4.21Zm-2.18-23.61c-.24.94.33,1.94,1.27,2.18l11.99,3.12v22.31c0,.97.76,1.79,1.76,1.79s1.82-.76,1.82-1.76v-23.76c0-.91-.73-1.73-1.63-1.79l-13.02-3.36c-.94-.21-1.94.3-2.18,1.27Zm-6.45-8.57c-.33.58-.15,1.3.42,1.63l4.21,2.42c.18.09.39.15.61.15.39,0,.82-.21,1.03-.61.33-.54.12-1.27-.45-1.6l-4.21-2.42c-.54-.33-1.27-.15-1.6.42Zm0,24.76c.21.36.61.58,1.03.58.18,0,.39-.03.58-.15l4.21-2.42c.58-.33.79-1.06.45-1.63s-1.06-.76-1.63-.42l-4.21,2.42c-.58.33-.76,1.06-.42,1.63Zm-3.33-12.38c0,.64.54,1.18,1.18,1.18h4.87c.67,0,1.18-.54,1.18-1.18s-.51-1.18-1.18-1.18h-4.87c-.64,0-1.18.51-1.18,1.18Zm-1.48,0C3.57,15.32,15.32,3.57,29.82,3.57s26.25,11.75,26.25,26.25-11.75,26.25-26.25,26.25S3.57,44.32,3.57,29.82Zm-3.57,0c0,16.44,13.38,29.82,29.82,29.82s29.82-13.38,29.82-29.82S46.26,0,29.82,0,0,13.38,0,29.82ZM29.82,12.29c.67,0,1.18-.51,1.18-1.18v-4.87c0-.64-.51-1.18-1.18-1.18s-1.18.54-1.18,1.18v4.87c0,.67.51,1.18,1.18,1.18Z"/>
    </g>
  </g>
</svg>