<svg width="24" height="24" viewBox="0 0 24 24" fill="none" xmlns="http://www.w3.org/2000/svg">
<g clip-path="url(#clip0_322_6261)">
<path d="M11.9911 0C5.38085 0 0 5.38085 0 11.9911C0 18.6013 5.38085 23.9822 11.9911 23.9822C18.6013 23.9822 23.9822 18.6013 23.9822 11.9911C23.9822 5.38085 18.6192 0 11.9911 0ZM14.0223 12.5256L17.3363 15.8396C17.5501 16.0535 17.657 16.3207 17.657 16.588C17.657 17.1759 17.1759 17.657 16.5702 17.657C16.2851 17.657 16.0178 17.5501 15.8218 17.3363L12.5078 14.0401C12.3653 13.8975 12.1871 13.8263 12.0089 13.8263C11.8129 13.8263 11.6347 13.8975 11.4922 14.0401L8.17817 17.3363C7.98218 17.5501 7.6971 17.657 7.42984 17.657C6.84187 17.657 6.3608 17.1759 6.3608 16.588C6.3608 16.3029 6.44989 16.0356 6.6637 15.8396L9.97773 12.5256C10.1203 12.3831 10.1915 12.2049 10.1915 12.0089C10.1915 11.8307 10.1203 11.6347 9.97773 11.51L6.6637 8.19599C6.44989 7.98218 6.3608 7.71492 6.3608 7.42984C6.3608 6.84187 6.82405 6.3608 7.42984 6.3608C7.71492 6.3608 7.98218 6.46771 8.17817 6.68151L11.4922 9.99555C11.6347 10.1381 11.8129 10.2094 12.0089 10.2094C12.2049 10.2094 12.3831 10.1381 12.5078 9.99555L15.8218 6.68151C16.0356 6.46771 16.3029 6.3608 16.5702 6.3608C17.2116 6.3608 17.657 6.87751 17.657 7.42984C17.657 7.71492 17.5323 7.98218 17.3363 8.19599L14.0223 11.51C13.8797 11.6526 13.8085 11.8307 13.8085 12.0089C13.8085 12.1871 13.8797 12.3831 14.0223 12.5256Z" fill="#A1A1AA"/>
</g>
<defs>
<clipPath id="clip0_322_6261">
<rect width="24" height="24" fill="white"/>
</clipPath>
</defs>
</svg>
