<?xml version="1.0" encoding="UTF-8"?>
<svg id="Layer_2" data-name="Layer 2" xmlns="http://www.w3.org/2000/svg" viewBox="0 0 52.49 52.49">
  <defs>
    <style>
      .cls-1 {
        stroke-width: 0px;
      }
    </style>
  </defs>
  <g id="Layer_1-2" data-name="Layer 1">
    <path class="cls-1" d="m26.25,0C11.75,0,0,11.75,0,26.25s11.75,26.25,26.25,26.25,26.25-11.75,26.25-26.25S40.75,0,26.25,0Zm10.64,29.31c-.7,0-1.33-.27-1.82-.82l-5.78-6.54v16.29c0,1.33-1.09,2.42-2.42,2.42s-2.42-1.09-2.42-2.42v-16.29l-5.78,6.54c-.48.54-1.12.82-1.82.82-1.33,0-2.42-1.09-2.42-2.42,0-.58.18-1.15.61-1.6l9.84-11.14c.48-.54,1.12-1.03,2-1.03s1.51.48,2,1.03l9.84,11.14c.42.45.61,1.03.61,1.6,0,1.33-1.09,2.42-2.42,2.42Z"/>
  </g>
</svg>