<svg width="24" height="24" viewBox="0 0 24 24" fill="none" xmlns="http://www.w3.org/2000/svg">
<g clip-path="url(#clip0_348_4870)">
<path d="M14.5896 17.1653C11.6148 18.2481 8.31677 16.7079 7.23501 13.7358C6.15325 10.7637 7.6887 7.46127 10.6635 6.37852C12.0954 5.85734 13.6444 5.91891 15.0267 6.55C15.1365 6.59894 15.2456 6.65428 15.3492 6.7116C15.5203 6.8026 15.6165 6.99134 15.5917 7.18429C15.5669 7.37724 15.4235 7.53061 15.2353 7.57767C15.0967 7.6097 14.9801 7.64296 14.8745 7.68138C13.2802 8.26167 12.4555 10.0302 13.0358 11.6245C13.6161 13.2188 15.3846 14.0435 16.9789 13.4632C17.0845 13.4248 17.1952 13.3753 17.3219 13.3108C17.4964 13.2258 17.7048 13.2511 17.8479 13.383C17.9909 13.5148 18.0375 13.7186 17.9659 13.901C17.3585 15.4157 16.1271 16.6057 14.5896 17.1653Z" fill="#A1A1AA"/>
</g>
<defs>
<clipPath id="clip0_348_4870">
<rect width="11.6692" height="13" fill="white" transform="translate(4.29395 7.88757) rotate(-20)"/>
</clipPath>
</defs>
</svg>
