<svg width="16" height="16" viewBox="0 0 16 16" fill="none" xmlns="http://www.w3.org/2000/svg">
<g clip-path="url(#clip0_470_1595)">
<path d="M8 0C3.58 0 0 3.58 0 8C0 12.42 3.58 16 8 16C12.42 16 16 12.42 16 8C16 3.58 12.42 0 8 0ZM11.305 8.8C11.075 8.8 10.865 8.71 10.705 8.53L8.795 6.37V11.745C8.795 12.185 8.435 12.545 7.995 12.545C7.555 12.545 7.195 12.185 7.195 11.745V6.37L5.285 8.53C5.125 8.71 4.915 8.8 4.685 8.8C4.245 8.8 3.885 8.44 3.885 8C3.885 7.81 3.945 7.62 4.085 7.47L7.33 3.795C7.49 3.615 7.7 3.455 7.99 3.455C8.28 3.455 8.49 3.615 8.65 3.795L11.895 7.47C12.035 7.62 12.095 7.81 12.095 8C12.095 8.44 11.735 8.8 11.295 8.8H11.305Z" fill="black"/>
</g>
<defs>
<clipPath id="clip0_470_1595">
<rect width="16" height="16" fill="white"/>
</clipPath>
</defs>
</svg>
