<svg width="16" height="16" viewBox="0 0 16 16" fill="none" xmlns="http://www.w3.org/2000/svg">
<g clip-path="url(#clip0_494_2181)">
<path d="M8 16C12.4183 16 16 12.4183 16 8C16 3.58172 12.4183 0 8 0C3.58172 0 0 3.58172 0 8C0 12.4183 3.58172 16 8 16Z" fill="#FFFF55"/>
<path d="M7.2437 6.65862C7.35638 6.34205 7.42345 6.00134 7.42345 5.64453C7.42345 5.32797 7.68367 5.06774 8.00024 5.06774C8.31681 5.06774 8.57703 5.32797 8.57703 5.64453C8.57703 6.00134 8.64142 6.34205 8.75678 6.65057C8.54484 6.49497 8.28461 6.39839 8.00024 6.39839C7.71587 6.39839 7.45564 6.49497 7.2437 6.65862ZM6.94323 10.5567C6.94323 11.0369 7.65685 11.1737 8.51801 11.1737C9.00628 11.1737 9.5321 11.0932 9.97207 10.8652C10.3289 10.6935 10.8413 10.3608 10.8413 10.004C10.8413 9.7438 10.6133 9.52381 10.3611 9.52381C10.2403 9.52381 10.1169 9.5721 10.0204 9.66868C9.63136 10.0577 9.10286 10.2213 8.52606 10.2213C8.04585 10.2213 7.54417 10.0657 7.42076 10.0657C7.12029 10.0657 6.94055 10.2696 6.94055 10.554L6.94323 10.5567ZM3.03713 3.00469C4.30339 1.73843 6.05792 0.957747 8.00024 0.957747C9.94256 0.957747 11.6944 1.73843 12.9634 3.00469C12.5502 2.78471 12.07 2.65594 11.5656 2.65594C10.2511 2.65594 9.13773 3.50905 8.738 4.68679C8.52606 4.53119 8.27388 4.43461 8.00024 4.43461C7.7266 4.43461 7.47174 4.53119 7.26248 4.68679C6.86543 3.50905 5.74404 2.65594 4.43485 2.65594C3.93049 2.65594 3.45296 2.78471 3.03713 3.00469ZM0.000241357 8C0.000241357 12.4105 3.58978 16 8.00024 16C12.4107 16 16.0002 12.4105 16.0002 8C16.0002 6.90275 15.7803 5.85647 15.3752 4.89873H15.52C15.6998 4.89873 15.8446 4.7619 15.8446 4.58216C15.8446 4.40241 15.6998 4.26559 15.52 4.26559H15.072C13.7253 1.73038 11.0613 0 8.00024 0C4.93921 0 2.27522 1.73038 0.925795 4.26291H0.477773C0.298028 4.26291 0.153159 4.39973 0.153159 4.57948C0.153159 4.75922 0.298028 4.89604 0.477773 4.89604H0.622642C0.217545 5.85379 -0.00244141 6.90275 -0.00244141 7.99732L0.000241357 8ZM4.43485 8.63313C5.3926 8.63313 6.24571 8.17706 6.79031 7.47954C6.78227 7.52783 6.78227 7.56808 6.78227 7.61636C6.78227 7.87659 6.98616 8.09658 7.26248 8.09658C7.52271 8.09658 7.7427 7.87659 7.7427 7.61636C7.7427 7.4715 7.85537 7.35614 8.00292 7.35614C8.15048 7.35614 8.2712 7.46881 8.2712 7.61636C8.2712 7.87659 8.48314 8.09658 8.75141 8.09658C9.01969 8.09658 9.23163 7.87659 9.23163 7.61636C9.23163 7.57612 9.23163 7.53588 9.22358 7.49564C9.77623 8.18511 10.6213 8.63313 11.571 8.63313C13.2209 8.63313 14.5596 7.2837 14.5596 5.64453C14.5596 5.56405 14.5596 5.47284 14.5515 5.39235C14.8681 6.19718 15.0479 7.0825 15.0479 8C15.0479 11.89 11.8956 15.0423 8.00561 15.0423C4.1156 15.0423 0.957988 11.89 0.957988 8C0.957988 7.0825 1.13773 6.19718 1.4543 5.39235C1.44625 5.47284 1.44625 5.56405 1.44625 5.64453C1.44625 7.29443 2.79568 8.63313 4.43485 8.63313Z" fill="black"/>
</g>
<defs>
<clipPath id="clip0_494_2181">
<rect width="16" height="16" fill="white"/>
</clipPath>
</defs>
</svg>
