<svg width="64" height="64" viewBox="0 0 64 64" fill="none" xmlns="http://www.w3.org/2000/svg">
<g clip-path="url(#clip0_497_2200)">
<path d="M36.2924 27.1925C36.2924 23.9088 38.9215 21.2797 42.173 21.2797C45.4245 21.2797 48.0537 23.9088 48.0537 27.1925C48.0537 30.4762 45.4245 33.1375 42.173 33.1375C38.9215 33.1375 36.2924 30.444 36.2924 27.1925ZM13.7143 27.1925C13.7143 23.9088 16.3434 21.2797 19.5949 21.2797C22.8464 21.2797 25.4755 23.9088 25.4755 27.1925C25.4755 30.4762 22.8464 33.1375 19.5949 33.1375C16.3434 33.1375 13.7143 30.444 13.7143 27.1925ZM32 64C49.6419 64 64 49.6419 64 32C64 14.3581 49.6419 0 32 0C14.3581 0 0 14.3581 0 32C0 49.6419 14.3581 64 32 64Z" fill="#FFFF55"/>
<path d="M36.2924 27.1926C36.2924 23.9089 38.9215 21.2798 42.173 21.2798C45.4245 21.2798 48.0536 23.9089 48.0536 27.1926C48.0536 30.4763 45.4245 33.1376 42.173 33.1376C38.9215 33.1376 36.2924 30.4441 36.2924 27.1926ZM19.5949 33.1376C16.3433 33.1376 13.7142 30.4441 13.7142 27.1926C13.7142 23.9411 16.3433 21.2798 19.5949 21.2798C22.8464 21.2798 25.4755 23.9089 25.4755 27.1926C25.4755 30.4763 22.8464 33.1376 19.5949 33.1376Z" fill="white"/>
<path d="M39.1791 27.1925C39.1791 28.8451 40.5097 30.2186 42.173 30.2186C43.8364 30.2186 45.167 28.8558 45.167 27.1925C45.167 25.5292 43.8364 24.1985 42.173 24.1985C40.5097 24.1985 39.1791 25.5292 39.1791 27.1925ZM36.2924 27.1925C36.2924 24.8853 37.5909 22.9001 39.4795 21.9343H44.8773C46.7659 22.9108 48.0644 24.8853 48.0644 27.1925C48.0644 30.444 45.4353 33.1375 42.1838 33.1375C38.9323 33.1375 36.3032 30.444 36.3032 27.1925H36.2924ZM33.5667 20.0134C33.5667 21.0865 34.4467 21.9343 35.4876 21.9343H35.552C34.4145 23.3615 33.7277 25.218 33.7277 27.1925C33.7277 31.839 37.5265 35.7022 42.173 35.7022C46.8196 35.7022 50.6184 31.839 50.6184 27.1925C50.6184 25.1751 49.9316 23.3615 48.7941 21.9343C51.7881 21.7411 53.6016 19.6593 53.6016 16.44C53.6016 15.1093 52.7539 14.2616 51.6808 14.2616C50.6076 14.2616 49.7599 15.1093 49.7599 16.1824C49.7599 17.6419 49.4702 18.1033 48.3327 18.1033H35.4661C34.4252 18.1033 33.5453 18.9832 33.5453 20.0241L33.5667 20.0134ZM17.556 42.4306C17.556 43.4715 18.4038 44.3514 19.4769 44.3514H44.5875C45.6284 44.3514 46.4762 43.4715 46.4762 42.4306C46.4762 41.3897 45.6284 40.5097 44.5875 40.5097H19.4769C18.4038 40.5097 17.556 41.3575 17.556 42.4306ZM16.6117 27.1925C16.6117 28.8451 17.9423 30.2186 19.6056 30.2186C21.2689 30.2186 22.5996 28.8558 22.5996 27.1925C22.5996 25.5292 21.2689 24.1985 19.6056 24.1985C17.9423 24.1985 16.6117 25.5292 16.6117 27.1925ZM13.725 27.1925C13.725 24.8853 15.0235 22.9001 16.9121 21.9343H22.3099C24.1985 22.9108 25.497 24.8853 25.497 27.1925C25.497 30.444 22.8679 33.1375 19.6164 33.1375C16.3649 33.1375 13.7357 30.444 13.7357 27.1925H13.725ZM3.85245 32C3.83099 16.44 16.44 3.83099 32 3.83099C47.56 3.83099 60.169 16.44 60.169 32C60.169 47.56 47.56 60.169 32 60.169C16.44 60.169 3.83099 47.56 3.83099 32H3.85245ZM0.0214621 32C0.0214621 49.6419 14.3796 64 32.0215 64C49.6633 64 64.0215 49.6419 64.0215 32C64.0215 14.3581 49.6419 0 32 0C14.3581 0 0 14.3581 0 32H0.0214621ZM19.6056 35.7022C24.2522 35.7022 28.051 31.839 28.051 27.1925C28.051 25.1751 27.3642 23.3615 26.2267 21.9343C29.2207 21.7411 31.0342 19.6593 31.0342 16.44C31.0342 15.1093 30.1865 14.2616 29.1133 14.2616C28.0402 14.2616 27.1925 15.1093 27.1925 16.1824C27.1925 17.6419 26.9028 18.1033 25.7653 18.1033H12.8987C11.8578 18.1033 10.9779 18.9832 10.9779 20.0241C10.9779 21.0651 11.8578 21.945 12.8987 21.945H12.9631C11.8256 23.3722 11.1388 25.2287 11.1388 27.2032C11.1388 31.8498 14.9376 35.7129 19.5842 35.7129L19.6056 35.7022Z" fill="black"/>
</g>
<defs>
<clipPath id="clip0_497_2200">
<rect width="64" height="64" fill="white"/>
</clipPath>
</defs>
</svg>
