<svg width="16" height="16" viewBox="0 0 16 16" fill="none" xmlns="http://www.w3.org/2000/svg">
<g clip-path="url(#clip0_470_1602)">
<path d="M8 0C3.58 0 0 3.58 0 8C0 12.42 3.58 16 8 16C12.42 16 16 12.42 16 8C16 3.58 12.42 0 8 0ZM9.325 8.335L11.5 10.505C11.635 10.64 11.71 10.815 11.71 11C11.71 11.385 11.39 11.705 11 11.705C10.815 11.705 10.64 11.635 10.505 11.495L8.33 9.33C8.24 9.24 8.12 9.195 8.005 9.195C7.875 9.195 7.755 9.245 7.67 9.33L5.495 11.495C5.365 11.63 5.185 11.705 5 11.705C4.61 11.705 4.295 11.395 4.295 11C4.295 10.815 4.36 10.64 4.495 10.505L6.67 8.335C6.76 8.245 6.805 8.125 6.805 8C6.805 7.88 6.755 7.76 6.67 7.67L4.495 5.495C4.36 5.35 4.295 5.175 4.295 4.99C4.295 4.6 4.6 4.285 5 4.285C5.185 4.285 5.365 4.355 5.495 4.495L7.67 6.665C7.765 6.755 7.885 6.8 8.005 6.8C8.125 6.8 8.245 6.75 8.33 6.665L10.505 4.495C10.64 4.36 10.815 4.285 11 4.285C11.415 4.285 11.71 4.63 11.71 4.99C11.71 5.18 11.63 5.355 11.5 5.495L9.325 7.67C9.235 7.76 9.19 7.88 9.19 8C9.19 8.12 9.24 8.24 9.325 8.335Z" fill="black"/>
</g>
<defs>
<clipPath id="clip0_470_1602">
<rect width="16" height="16" fill="white"/>
</clipPath>
</defs>
</svg>
