<?xml version="1.0" encoding="UTF-8"?>
<svg id="Layer_2" data-name="Layer 2" xmlns="http://www.w3.org/2000/svg" viewBox="0 0 20.88 20.88">
  <defs>
    <style>
      .cls-1 {
        stroke-width: 0px;
      }
    </style>
  </defs>
  <g id="Layer_1-2" data-name="Layer 1">
    <path class="cls-1" d="m1.65,1.64c.41-.41.94-.69,1.56-.71L18.05,0c.73-.04,1.52.06,2.14.69s.73,1.41.69,2.14l-.92,14.83c-.02.62-.3,1.16-.71,1.56-.94.94-2.48.94-3.43,0-.49-.49-.75-1.13-.71-1.86l.54-8.71-11.52,11.52c-.94.94-2.48.94-3.43,0s-.94-2.48,0-3.43L12.22,5.23l-8.71.54c-.73.04-1.37-.21-1.86-.71-.94-.94-.94-2.48,0-3.43Z"/>
  </g>
</svg>