<svg width="14" height="11" viewBox="0 0 14 11" fill="none" xmlns="http://www.w3.org/2000/svg">
<g clip-path="url(#clip0_494_1979)">
<path d="M8.47005 3.79005C8.47005 2.76005 9.30005 1.93005 10.33 1.93005C11.36 1.93005 12.19 2.76005 12.19 3.79005C12.19 4.82005 11.36 5.65005 10.33 5.65005C9.30005 5.65005 8.47005 4.82005 8.47005 3.79005ZM0.550049 7.05005H5.71005V0.550049H0.550049V7.05005ZM7.75005 7.05005H12.92V0.550049H7.75005V7.05005Z" fill="#55FF55"/>
<path d="M8.47002 3.78993C8.47002 2.75993 9.30002 1.92993 10.33 1.92993C11.36 1.92993 12.19 2.75993 12.19 3.78993C12.19 4.81993 11.36 5.64993 10.33 5.64993C9.30002 5.64993 8.47002 4.81993 8.47002 3.78993ZM7.45002 10.1599H13.16V7.32993H7.45002V10.1599ZM0.27002 7.32993V10.1599H5.98002V7.32993H0.27002Z" fill="#00BF3A"/>
<path d="M7.19 7.61011H6.25V10.1001H7.19V7.61011Z" fill="#CBCCBE"/>
<path d="M7.45002 10.1701H13.16V7.34008H7.45002V10.1701ZM0.27002 7.33008V10.1601H5.98002V7.33008H0.27002Z" fill="#007403"/>
<path d="M7.19 0.550049H6.25V7.06005H7.19V0.550049Z" fill="white"/>
<path d="M10.65 3.45C10.65 3.2 10.86 2.99 11.11 2.99C11.36 2.99 11.57 3.2 11.57 3.45C11.57 3.7 11.36 3.91 11.11 3.91C10.86 3.91 10.65 3.7 10.65 3.45ZM9.52 4.41C9.52 4.26 9.64 4.14 9.79 4.14C9.94 4.14 10.04 4.26 10.07 4.37C10.1 4.45 10.16 4.52 10.34 4.52C10.52 4.52 10.57 4.44 10.6 4.37C10.63 4.3 10.69 4.14 10.87 4.14C11.02 4.14 11.14 4.26 11.14 4.41C11.14 4.77 10.78 5.06 10.33 5.06C9.88 5.06 9.52 4.77 9.52 4.41ZM9.08 3.45C9.08 3.2 9.29 2.99 9.54 2.99C9.79 2.99 10 3.2 10 3.45C10 3.7 9.79 3.91 9.54 3.91C9.29 3.91 9.08 3.7 9.08 3.45ZM8.48 3.8C8.48 2.77 9.31 1.94 10.34 1.94C11.37 1.94 12.2 2.77 12.2 3.8C12.2 4.83 11.37 5.66 10.34 5.66C9.31 5.66 8.48 4.83 8.48 3.8ZM7.93 3.8C7.93 5.13 9.01 6.2 10.34 6.2C11.67 6.2 12.74 5.13 12.74 3.8C12.74 2.47 11.67 1.39 10.34 1.39C9.01 1.39 7.93 2.47 7.93 3.8ZM7.75 7.05V0.55H12.92V7.05H7.75ZM7.75 8.08V7.6H12.92V8.08H7.75ZM7.75 9.09V8.63H12.92V9.09H7.75ZM7.75 10.1V9.64H12.92V10.1H7.75ZM6.26 7.06V0.55H7.2V7.06H6.26ZM6.26 10.1V7.61H7.2V10.1H6.26ZM0.55 7.05V0.55H5.71V7.05H0.55ZM0.55 8.08V7.6H5.71V8.08H0.55ZM0.55 9.09V8.63H5.71V9.09H0.55ZM0.55 10.1V9.64H5.71V10.1H0.55ZM0 10.37C0 10.52 0.12 10.64 0.27 10.64H13.19C13.34 10.64 13.46 10.52 13.46 10.37V0.27C13.46 0.11 13.34 0 13.19 0H0.27C0.12 0 0 0.12 0 0.27V10.37ZM2.9 3.44L3.52 3.58C4.2 3.73 4.61 4.01 4.61 4.69C4.61 5.37 4.12 5.78 3.48 5.87V6.16C3.48 6.37 3.34 6.5 3.15 6.5C2.96 6.5 2.82 6.36 2.82 6.16V5.88C2.16 5.81 1.51 5.45 1.51 4.88C1.51 4.69 1.65 4.54 1.83 4.54C1.93 4.54 2.04 4.58 2.14 4.75C2.3 5.03 2.65 5.23 3.17 5.23C3.63 5.23 3.89 5.05 3.89 4.74C3.89 4.47 3.71 4.33 3.34 4.25L2.67 4.11C1.97 3.97 1.61 3.65 1.61 3C1.61 2.35 2.07 1.93 2.81 1.84V1.57C2.81 1.36 2.95 1.22 3.14 1.22C3.33 1.22 3.47 1.36 3.47 1.57V1.86C4.05 1.96 4.6 2.29 4.6 2.79C4.6 2.98 4.49 3.13 4.29 3.13C4.17 3.13 4.04 3.08 3.95 2.94C3.8 2.69 3.46 2.5 3 2.5C2.58 2.5 2.32 2.66 2.32 2.94C2.32 3.25 2.52 3.34 2.88 3.43L2.9 3.44Z" fill="black"/>
</g>
<defs>
<clipPath id="clip0_494_1979">
<rect width="13.47" height="10.64" fill="white"/>
</clipPath>
</defs>
</svg>
