<svg width="13" height="16" viewBox="0 0 13 16" fill="none" xmlns="http://www.w3.org/2000/svg">
<g clip-path="url(#clip0_494_2189)">
<path d="M3.67916 16C3.41597 16 3.20977 15.7857 3.20977 15.5225C3.20977 15.4411 3.23419 15.357 3.27489 15.2837L6.64202 9.50992H0.477531C0.214346 9.50992 0 9.29557 0 9.03239C0 8.90215 0.0569781 8.77734 0.157368 8.67967L9.23317 0.113956C9.32271 0.0325589 9.43938 0 9.56147 0C9.85722 0 10.039 0.206207 10.039 0.485671C10.039 0.575208 10.0227 0.675598 9.96574 0.756995L5.89859 6.49008H12.3534C12.6166 6.49008 12.8391 6.68815 12.8391 6.96761C12.8391 7.08971 12.7902 7.22266 12.6926 7.31219L4.03459 15.8698C3.94506 15.9593 3.81211 16 3.68187 16H3.67916Z" fill="#F4F4F5"/>
<path d="M1.43802 8.64168H7.40987C7.64863 8.64168 7.87926 8.82347 7.87926 9.11107C7.87926 9.21689 7.85484 9.301 7.78158 9.41496L5.34238 13.4387L11.4445 7.36103H4.9788C4.69934 7.36103 4.50127 7.18738 4.50127 6.89164C4.50127 6.73427 4.56639 6.63659 4.65864 6.52264L7.11413 3.2776L1.43802 8.64168ZM3.67916 16C3.41597 16 3.20977 15.7857 3.20977 15.5225C3.20977 15.4411 3.23419 15.357 3.27489 15.2837L6.64202 9.50992H0.477531C0.214346 9.50992 0 9.29557 0 9.03239C0 8.90215 0.0569781 8.77734 0.157368 8.67967L9.23317 0.113956C9.32271 0.0325589 9.43938 0 9.56147 0C9.85722 0 10.039 0.206207 10.039 0.485671C10.039 0.575208 10.0227 0.675598 9.96574 0.756995L5.89859 6.49008H12.3534C12.6166 6.49008 12.8391 6.68815 12.8391 6.96761C12.8391 7.08971 12.7902 7.22266 12.6926 7.31219L4.03459 15.8698C3.94506 15.9593 3.81211 16 3.68187 16H3.67916Z" fill="#A1A1AA"/>
</g>
<defs>
<clipPath id="clip0_494_2189">
<rect width="12.8391" height="16" fill="white"/>
</clipPath>
</defs>
</svg>
