<svg width="16" height="16" viewBox="0 0 16 16" fill="none" xmlns="http://www.w3.org/2000/svg">
<g clip-path="url(#clip0_470_1604)">
<path d="M8 0C3.58 0 0 3.58 0 8C0 12.42 3.58 16 8 16C12.42 16 16 12.42 16 8C16 3.58 12.42 0 8 0ZM11.975 7.565L6.49 12.985C6.435 13.04 6.35 13.07 6.265 13.07C6.1 13.07 5.97 12.935 5.97 12.77C5.97 12.72 5.985 12.665 6.01 12.62L8.145 8.96H4.235C4.07 8.96 3.935 8.825 3.935 8.66C3.935 8.575 3.97 8.5 4.035 8.435L9.785 3.01C9.84 2.96 9.915 2.935 9.995 2.935C10.18 2.935 10.295 3.065 10.295 3.24C10.295 3.295 10.285 3.36 10.25 3.41L7.675 7.04H11.765C11.93 7.04 12.07 7.165 12.07 7.34C12.07 7.42 12.04 7.5 11.975 7.56V7.565Z" fill="black"/>
</g>
<defs>
<clipPath id="clip0_470_1604">
<rect width="16" height="16" fill="white"/>
</clipPath>
</defs>
</svg>
