<svg width="97" height="97" viewBox="0 0 97 97" fill="none" xmlns="http://www.w3.org/2000/svg">
<path fill-rule="evenodd" clip-rule="evenodd" d="M51.081 45.1422C51.081 45.1422 51.7404 17.1686 62.1013 6.82395C70.4374 -1.49921 83.3198 -2.13176 90.8744 5.41114C98.4293 12.954 97.7955 25.8158 89.4594 34.1392C79.0985 44.4838 51.081 45.1422 51.081 45.1422ZM45.07 45.1422C45.07 45.1422 44.4106 17.1686 34.0496 6.82399C25.7133 -1.49917 12.8311 -2.13172 5.27632 5.41114C-2.27841 12.954 -1.64485 25.8158 6.69144 34.1392C17.0523 44.4838 45.07 45.1422 45.07 45.1422ZM34.0481 89.4622C44.409 79.1176 45.0684 51.1441 45.0684 51.1441C45.0684 51.1441 17.0508 51.8025 6.68995 62.1471C-1.64632 70.4701 -2.27988 83.3323 5.27487 90.875C12.8296 98.418 25.7118 97.7852 34.0481 89.4622ZM51.0838 51.1441C51.0838 51.1441 51.7432 79.1176 62.1041 89.4622C70.4406 97.7852 83.3226 98.418 90.8776 90.875C98.4321 83.3323 97.7987 70.4701 89.4622 62.1471C79.1013 51.8025 51.0838 51.1441 51.0838 51.1441Z" fill="white"/>
</svg>
