<svg width="27" height="16" viewBox="0 0 27 16" fill="none" xmlns="http://www.w3.org/2000/svg">
<g clip-path="url(#clip0_364_6103)">
<path d="M0 3.38897C0 1.40166 1.41337 0 3.45925 0H8.8121C10.8697 0 12.2714 1.40166 12.2714 3.38897C12.2714 5.37628 10.8697 6.79356 8.8121 6.79356H3.45925C1.41337 6.79356 0 5.3958 0 3.38897ZM1.31967 3.58028C1.55393 3.58028 1.70229 3.4163 1.74524 3.15471C1.84285 2.37384 2.32308 1.85066 3.11957 1.74134C3.35383 1.69839 3.52953 1.52269 3.51781 1.31576C3.51781 1.09712 3.3265 0.917521 3.06491 0.917521C3.01025 0.917521 2.91264 0.917521 2.84627 0.933138C1.84285 1.11274 1.10493 1.90922 0.937042 2.93607C0.921425 3.01806 0.921425 3.08834 0.921425 3.15471C0.921425 3.44363 1.15569 3.58028 1.31967 3.58028Z" fill="#18181B"/>
<path d="M14.1494 3.38897C14.1494 1.39776 15.5628 0 17.6087 0H22.9615C25.0191 0 26.4208 1.40166 26.4208 3.38897C26.4208 5.37628 25.0191 6.79356 22.9615 6.79356H17.6087C15.5628 6.79356 14.1494 5.3919 14.1494 3.38897ZM15.4691 3.58028C15.7033 3.58028 15.8517 3.4163 15.8947 3.15471C15.9923 2.37384 16.4725 1.85066 17.269 1.74134C17.5032 1.69839 17.6789 1.52269 17.6672 1.31576C17.6672 1.09712 17.4759 0.917521 17.2143 0.917521C17.1597 0.917521 17.0621 0.917521 16.9957 0.933138C15.9923 1.11274 15.2543 1.90922 15.0865 2.93607C15.0708 3.01806 15.0708 3.08834 15.0708 3.15471C15.0708 3.44363 15.3051 3.58028 15.4691 3.58028Z" fill="#18181B"/>
<path d="M0 12.5955C0 10.6043 1.41337 9.20654 3.45925 9.20654H8.8121C10.8697 9.20654 12.2714 10.6082 12.2714 12.5955C12.2714 14.5828 10.8697 16.0001 8.8121 16.0001H3.45925C1.41337 16.0001 0 14.5984 0 12.5955ZM1.31967 12.7868C1.55393 12.7868 1.70229 12.6228 1.74524 12.3613C1.84285 11.5804 2.32308 11.0572 3.11957 10.9479C3.35383 10.9049 3.52953 10.7292 3.51781 10.5223C3.51781 10.3037 3.3265 10.1241 3.06491 10.1241C3.01025 10.1241 2.91264 10.1241 2.84627 10.1397C1.84285 10.3193 1.10493 11.1158 0.937042 12.1426C0.921425 12.2246 0.921425 12.2949 0.921425 12.3613C0.921425 12.6502 1.15569 12.7868 1.31967 12.7868Z" fill="#18181B"/>
<path d="M14.1494 12.5955C14.1494 10.6043 15.5628 9.20654 17.6087 9.20654H22.9615C25.0191 9.20654 26.4208 10.6082 26.4208 12.5955C26.4208 14.5828 25.0191 16.0001 22.9615 16.0001H17.6087C15.5628 16.0001 14.1494 14.5984 14.1494 12.5955ZM15.4691 12.7868C15.7033 12.7868 15.8517 12.6228 15.8947 12.3613C15.9923 11.5804 16.4725 11.0572 17.269 10.9479C17.5032 10.9049 17.6789 10.7292 17.6672 10.5223C17.6672 10.3037 17.4759 10.1241 17.2143 10.1241C17.1597 10.1241 17.0621 10.1241 16.9957 10.1397C15.9923 10.3193 15.2543 11.1158 15.0865 12.1426C15.0708 12.2246 15.0708 12.2949 15.0708 12.3613C15.0708 12.6502 15.3051 12.7868 15.4691 12.7868Z" fill="#18181B"/>
</g>
<defs>
<clipPath id="clip0_364_6103">
<rect width="26.4207" height="16" fill="white"/>
</clipPath>
</defs>
</svg>
