<?xml version="1.0" encoding="UTF-8"?>
<svg id="Layer_2" data-name="Layer 2" xmlns="http://www.w3.org/2000/svg" viewBox="0 0 20.54 19.81">
  <defs>
    <style>
      .cls-1 {
        fill: #009906;
      }

      .cls-1, .cls-2, .cls-3 {
        stroke: #000;
      }

      .cls-1, .cls-2, .cls-4 {
        stroke-width: 1.24px;
      }

      .cls-1, .cls-4 {
        stroke-linecap: round;
        stroke-linejoin: round;
      }

      .cls-2, .cls-3 {
        stroke-miterlimit: 10;
      }

      .cls-2, .cls-3, .cls-4 {
        fill: none;
      }

      .cls-3 {
        stroke-width: 1.24px;
      }

      .cls-4 {
        stroke: #33ad38;
      }

      .cls-5 {
        fill: #dc0000;
      }

      .cls-5, .cls-6 {
        stroke-width: 0px;
      }

      .cls-6 {
        fill: red;
      }
    </style>
  </defs>
  <g id="Layer_1-2" data-name="Layer 1">
    <g>
      <path class="cls-1" d="M4.44,15.09S.6,13.04.87,7.16c0,0,1.47-.78.48-2.08,0,0,1.39-.59.43-2.05,0,0,2.37.11,2.51-2.14,0,0,.22,1.71,1.54,1.6,0,0-.48,1.15.86,1.22,0,0-.4,1.41,1.18,1.08,0,0-.8,1.8.66,2.5,0,0,.65,6.01-2.88,7.73l-1.21.07Z"/>
      <path class="cls-4" d="M3.82,5.38s-.5,3.35,0,5.79"/>
      <path class="cls-1" d="M6.13,15.19s1.11-4.21,6.89-5.31c0,0,1.1,1.25,2.14,0,0,0,.9,1.21,2.09-.06,0,0,.44,2.33,2.66,1.95,0,0-1.61.61-1.2,1.87,0,0-1.23-.2-.99,1.12,0,0-1.47-.06-.78,1.4,0,0-1.94-.37-2.28,1.22,0,0-5.7,2.02-8.19-1.02l-.35-1.16Z"/>
      <path class="cls-4" d="M9.57,15.52s4.23-.71,5.49-1.55"/>
      <path class="cls-1" d="M4.36,14.51s-1.87-5.34,3.57-10.74c0,0,2.09.55,2.3-1.57,0,0,1.85.65,2.22-1.59,0,0,2.17,2.19,4.29.16,0,0-1.3,1.83.06,2.9,0,0-1.47.68-.26,1.92,0,0-1.63,1,.18,2.08,0,0-2.36,1.02-1.57,2.98,0,0-4.68,6.33-9.57,4.86l-1.22-1Z"/>
      <path class="cls-4" d="M8.43,10.78s.55-2.73,3.69-5.03"/>
      <g>
        <circle class="cls-6" cx="7.23" cy="11.97" r="2.76"/>
        <path class="cls-5" d="M5.54,9.95s-.11,1.62,1.37,2.59,1.58.96,3.01.66c0,0-1.25,2.23-3.63,1.04s-1.59-3.7-.75-4.29Z"/>
        <circle class="cls-2" cx="7.23" cy="11.97" r="2.76"/>
      </g>
      <g>
        <circle class="cls-6" cx="3.38" cy="14.45" r="2.76"/>
        <path class="cls-5" d="M3.16,11.83s-1.64,1.48-.99,3.12,1.52,2.05,2.71,2.05c0,0-2.3,1.11-3.57-1.23s.82-3.94,1.85-3.94Z"/>
        <circle class="cls-3" cx="3.38" cy="14.45" r="2.76"/>
      </g>
      <g>
        <circle class="cls-6" cx="7.23" cy="16.43" r="2.76"/>
        <path class="cls-5" d="M4.89,15.22s.37,2.18,2.11,2.5,2.55-.18,3.19-1.19c0,0-.29,2.54-2.95,2.36s-2.89-2.8-2.34-3.67Z"/>
        <circle class="cls-3" cx="7.23" cy="16.43" r="2.76"/>
      </g>
    </g>
  </g>
</svg>