<svg width="32" height="32" viewBox="0 0 32 32" fill="none" xmlns="http://www.w3.org/2000/svg">
<path d="M29.4954 12.8537L25.2033 7.99691C23.8671 6.49126 22.4734 5.70062 21.0242 5.70062C18.7995 5.70062 17.2727 7.12257 16.8501 8.87932H15.1509C14.7283 7.12257 13.2015 5.70062 10.9768 5.70062C9.52763 5.70062 8.13393 6.49126 6.7977 7.99691L2.50565 12.8537C1.80879 13.6444 1 14.9997 1 16.2986C1 17.5976 1.8098 18.9529 2.50565 19.7436L6.7977 24.6004C8.13393 26.106 9.52763 26.8967 10.9768 26.8967C13.1874 26.8967 14.7081 25.4929 15.1418 23.7523H16.8582C17.2919 25.4929 18.8126 26.8967 21.0232 26.8967C22.4724 26.8967 23.8661 26.106 25.2023 24.6004L29.4944 19.7436C30.1912 18.9529 31 17.5976 31 16.2986C31 14.9997 30.1902 13.6444 29.4944 12.8537H29.4954Z" fill="#EEEEEE" stroke="black" stroke-linecap="round" stroke-linejoin="round"/>
<path d="M15.7912 15.3054C15.7912 16.5982 14.7434 17.646 13.4506 17.646C12.1577 17.646 11.1099 16.5982 11.1099 15.3054C11.1099 14.0125 12.1577 13.6061 13.4506 13.6061C14.7434 13.6061 15.7912 14.0125 15.7912 15.3054Z" fill="url(#paint0_linear_683_2978)" stroke="black" stroke-linecap="round" stroke-linejoin="round"/>
<path d="M16.7302 15.3054C16.7302 16.5982 17.778 17.646 19.0708 17.646C20.3637 17.646 21.4115 16.5982 21.4115 15.3054C21.4115 14.0125 20.3637 13.6061 19.0708 13.6061C17.778 13.6061 16.7302 14.0125 16.7302 15.3054Z" fill="url(#paint1_linear_683_2978)" stroke="black" stroke-linecap="round" stroke-linejoin="round"/>
<path d="M11.0243 14.9051H9.9765" stroke="black" stroke-linecap="round" stroke-linejoin="round"/>
<path d="M16.8472 18.5074H15.7994" stroke="black" stroke-width="0.70593" stroke-linecap="round" stroke-linejoin="round"/>
<path d="M22.67 14.9051H21.6222" stroke="black" stroke-linecap="round" stroke-linejoin="round"/>
<path d="M16.721 14.9051H15.6743" stroke="black" stroke-width="0.70593" stroke-linecap="round" stroke-linejoin="round"/>
<path d="M16.721 15.366H15.6743" stroke="black" stroke-width="0.70593" stroke-linecap="round" stroke-linejoin="round"/>
<path d="M12.0488 16.1303C11.8511 16.1303 11.6797 15.9962 11.6302 15.8056C11.4517 15.1087 11.6565 14.6862 11.8592 14.4542C12.1355 14.1396 12.5812 13.9732 13.15 13.9732C13.2741 13.9732 13.4052 13.9813 13.5383 13.9974C13.6532 14.0115 13.7551 14.069 13.8267 14.1598C13.8983 14.2505 13.9296 14.3635 13.9154 14.4784C13.8892 14.6953 13.7047 14.8586 13.4858 14.8586C13.4687 14.8586 13.4515 14.8586 13.4344 14.8556C13.3325 14.8435 13.2347 14.8365 13.144 14.8365C12.8455 14.8365 12.6135 14.905 12.5086 15.024C12.3886 15.1602 12.4199 15.4073 12.4673 15.5908C12.4955 15.7027 12.4794 15.8187 12.4209 15.9185C12.3624 16.0184 12.2686 16.088 12.1567 16.1172C12.1214 16.1263 12.0851 16.1313 12.0488 16.1313V16.1303Z" fill="white"/>
<path d="M13.151 14.0236C13.273 14.0236 13.4021 14.0316 13.5332 14.0478C13.6341 14.0599 13.7248 14.1113 13.7874 14.191C13.8499 14.2716 13.8781 14.3715 13.866 14.4723C13.8428 14.6639 13.6795 14.8081 13.4868 14.8081C13.4717 14.8081 13.4566 14.8081 13.4415 14.8051C13.3376 14.792 13.2377 14.786 13.145 14.786C12.8313 14.786 12.5863 14.8606 12.4723 14.9907C12.3644 15.1137 12.3473 15.3194 12.4199 15.6028C12.4451 15.7016 12.431 15.8045 12.3785 15.8922C12.3271 15.98 12.2434 16.0425 12.1446 16.0677C12.1133 16.0758 12.082 16.0798 12.0498 16.0798C11.8753 16.0798 11.724 15.9618 11.6807 15.7924C11.5072 15.1167 11.7039 14.7093 11.8985 14.4864C12.1647 14.1829 12.5984 14.0225 13.151 14.0225M13.151 13.9217C12.5732 13.9217 12.1093 14.0941 11.8229 14.4199C11.6121 14.6609 11.3983 15.0986 11.5828 15.8166C11.6383 16.0344 11.835 16.1797 12.0498 16.1797C12.0891 16.1797 12.1294 16.1746 12.1698 16.1645C12.4279 16.098 12.5832 15.8358 12.5177 15.5776C12.4733 15.4062 12.4431 15.1762 12.549 15.0562C12.6276 14.9665 12.8212 14.8858 13.146 14.8858C13.2317 14.8858 13.3265 14.8918 13.4304 14.9039C13.4495 14.906 13.4687 14.907 13.4878 14.907C13.7289 14.907 13.9376 14.7275 13.9669 14.4824C13.9991 14.2182 13.8106 13.9772 13.5463 13.9449C13.4092 13.9288 13.2781 13.9197 13.152 13.9197L13.151 13.9217Z" fill="#000054"/>
<path d="M17.7173 16.1303C17.5197 16.1303 17.3482 15.9962 17.2988 15.8056C17.1203 15.1087 17.325 14.6862 17.5277 14.4542C17.8041 14.1396 18.2498 13.9732 18.8186 13.9732C18.9426 13.9732 19.0737 13.9813 19.2069 13.9974C19.3218 14.0115 19.4237 14.069 19.4953 14.1598C19.5669 14.2505 19.5981 14.3635 19.584 14.4784C19.5578 14.6953 19.3733 14.8586 19.1544 14.8586C19.1373 14.8586 19.1201 14.8586 19.103 14.8556C19.0011 14.8435 18.9033 14.8365 18.8125 14.8365C18.514 14.8365 18.2831 14.905 18.1782 15.024C18.0824 15.1329 18.0683 15.3246 18.1369 15.5908C18.1661 15.7027 18.149 15.8187 18.0905 15.9185C18.032 16.0184 17.9382 16.088 17.8263 16.1172C17.791 16.1263 17.7547 16.1313 17.7184 16.1313L17.7173 16.1303Z" fill="white"/>
<path d="M18.8187 14.0236C18.9407 14.0236 19.0698 14.0316 19.2009 14.0478C19.3017 14.0599 19.3925 14.1113 19.455 14.191C19.5175 14.2716 19.5458 14.3715 19.5337 14.4723C19.5105 14.6639 19.3471 14.8081 19.1545 14.8081C19.1393 14.8081 19.1242 14.8081 19.1091 14.8051C19.0052 14.792 18.9054 14.786 18.8116 14.786C18.499 14.786 18.2539 14.8606 18.1389 14.9907C18.031 15.1137 18.0139 15.3194 18.0865 15.6028C18.1117 15.7016 18.0976 15.8045 18.0452 15.8922C17.9927 15.98 17.91 16.0425 17.8112 16.0677C17.7799 16.0758 17.7477 16.0798 17.7164 16.0798C17.5419 16.0798 17.3907 15.9618 17.3473 15.7924C17.1738 15.1167 17.3705 14.7093 17.5651 14.4864C17.8314 14.1829 18.265 14.0225 18.8176 14.0225M18.8176 13.9217C18.2398 13.9217 17.7759 14.0941 17.4895 14.4199C17.2787 14.6609 17.0649 15.0986 17.2495 15.8166C17.3049 16.0344 17.5016 16.1797 17.7164 16.1797C17.7557 16.1797 17.7961 16.1746 17.8364 16.1645C18.0946 16.098 18.2499 15.8358 18.1843 15.5776C18.14 15.4062 18.1097 15.1762 18.2156 15.0562C18.2942 14.9665 18.4879 14.8858 18.8126 14.8858C18.8983 14.8858 18.9931 14.8918 19.098 14.9039C19.1172 14.906 19.1363 14.907 19.1555 14.907C19.3965 14.907 19.6053 14.7275 19.6345 14.4824C19.6668 14.2182 19.4782 13.9772 19.214 13.9449C19.0768 13.9288 18.9457 13.9197 18.8197 13.9197L18.8176 13.9217Z" fill="#000054"/>
<path d="M17.5883 8.87842H14.4136Z" fill="#FFB3FF"/>
<path d="M17.5883 8.87842H14.4136" stroke="black" stroke-linecap="round" stroke-linejoin="round"/>
<path d="M14.5468 23.7535H17.4542Z" fill="#FFB3FF"/>
<path d="M14.5468 23.7535H17.4542" stroke="black" stroke-linecap="round" stroke-linejoin="round"/>
<g style="mix-blend-mode:screen">
<path d="M7.85671 9.60968L7.68628 9.86482" stroke="white" stroke-linecap="round" stroke-linejoin="round"/>
</g>
<g style="mix-blend-mode:screen">
<path d="M20.4665 7.57959C20.4665 7.57959 19.6173 7.65926 19.3834 8.32788" stroke="white" stroke-linecap="round" stroke-linejoin="round"/>
</g>
<g style="mix-blend-mode:screen">
<path d="M10.2478 7.67428C10.2478 7.67428 9.52871 7.63596 9.02448 8.38021" stroke="white" stroke-linecap="round" stroke-linejoin="round"/>
</g>
<defs>
<linearGradient id="paint0_linear_683_2978" x1="13.4506" y1="13.6061" x2="13.4506" y2="17.646" gradientUnits="userSpaceOnUse">
<stop/>
<stop offset="0.19" stop-color="#000003"/>
<stop offset="0.33" stop-color="#00000C"/>
<stop offset="0.46" stop-color="#00001D"/>
<stop offset="0.58" stop-color="#000034"/>
<stop offset="0.7" stop-color="#000051"/>
<stop offset="0.81" stop-color="#000076"/>
<stop offset="0.91" stop-color="#0000A1"/>
<stop offset="1" stop-color="#0000CB"/>
</linearGradient>
<linearGradient id="paint1_linear_683_2978" x1="19.0708" y1="13.6061" x2="19.0708" y2="17.646" gradientUnits="userSpaceOnUse">
<stop/>
<stop offset="0.19" stop-color="#000003"/>
<stop offset="0.33" stop-color="#00000C"/>
<stop offset="0.46" stop-color="#00001D"/>
<stop offset="0.58" stop-color="#000034"/>
<stop offset="0.7" stop-color="#000051"/>
<stop offset="0.81" stop-color="#000076"/>
<stop offset="0.91" stop-color="#0000A1"/>
<stop offset="1" stop-color="#0000CB"/>
</linearGradient>
</defs>
</svg>
