<svg width="32" height="32" viewBox="0 0 32 32" fill="none" xmlns="http://www.w3.org/2000/svg">
<path d="M20.6363 2C20.0074 2 19.4414 2.2121 18.9993 2.61426C18.992 2.62161 18.9836 2.62896 18.9762 2.63526L4.97429 15.8518C4.96274 15.8634 4.95119 15.8739 4.93964 15.8854C4.46713 16.3579 4.20673 16.9732 4.20673 17.6179C4.20673 18.9494 5.29034 20.033 6.62176 20.033H13.2138L9.49145 26.415C9.48515 26.4255 9.47991 26.4349 9.47466 26.4454C9.2699 26.814 9.16175 27.2235 9.16175 27.6288C9.16175 28.9602 10.2391 30.0438 11.5642 30.0438C12.232 30.0438 12.8452 29.7981 13.2936 29.3529L26.6309 16.1679C27.1034 15.7195 27.3732 15.0863 27.3732 14.4259C27.3732 13.7654 27.1097 13.1375 26.6309 12.6808C26.1773 12.2482 25.5787 12.0109 24.9456 12.0109H18.237L22.6293 5.81786C22.6293 5.81786 22.6335 5.81261 22.6356 5.80946C22.9086 5.41885 23.0535 4.94109 23.0535 4.42764C23.0535 3.04372 22.015 2 20.6384 2H20.6363Z" fill="#FFFF55" stroke="black" stroke-linecap="round" stroke-linejoin="round"/>
<path d="M22.855 12.0108H16.4698Z" fill="#EEEEEE"/>
<path d="M22.855 12.0108H16.4698" stroke="black" stroke-linecap="round" stroke-linejoin="round"/>
<path d="M8.99268 20.0341H15.0124Z" fill="#EEEEEE"/>
<path d="M8.99268 20.0341H15.0124" stroke="black" stroke-linecap="round" stroke-linejoin="round"/>
<path d="M19.5529 18.2526C20.9044 18.2526 22 17.157 22 15.8055C22 14.454 20.9044 13.3585 19.5529 13.3585C18.2015 13.3585 17.1059 14.454 17.1059 15.8055C17.1059 17.157 18.2015 18.2526 19.5529 18.2526Z" fill="white" stroke="black" stroke-linecap="round" stroke-linejoin="round"/>
<path d="M18.8083 16.2929C19.0466 16.2929 19.2398 16.0997 19.2398 15.8614C19.2398 15.623 19.0466 15.4298 18.8083 15.4298C18.5699 15.4298 18.3767 15.623 18.3767 15.8614C18.3767 16.0997 18.5699 16.2929 18.8083 16.2929Z" fill="black"/>
<path d="M14.63 18.2526C15.9815 18.2526 17.0771 17.157 17.0771 15.8055C17.0771 14.454 15.9815 13.3585 14.63 13.3585C13.2786 13.3585 12.183 14.454 12.183 15.8055C12.183 17.157 13.2786 18.2526 14.63 18.2526Z" fill="white" stroke="black" stroke-linecap="round" stroke-linejoin="round"/>
<path d="M15.5175 16.2929C15.7558 16.2929 15.9491 16.0997 15.9491 15.8614C15.9491 15.623 15.7558 15.4298 15.5175 15.4298C15.2792 15.4298 15.0859 15.623 15.0859 15.8614C15.0859 16.0997 15.2792 16.2929 15.5175 16.2929Z" fill="black"/>
<path d="M19.349 4.05908L18.8366 4.57149" stroke="white" stroke-linecap="round" stroke-linejoin="round"/>
<path d="M17.9504 5.3642L16.7859 6.48246" stroke="white" stroke-linecap="round" stroke-linejoin="round"/>
<path d="M11.0822 26.3362L10.6811 26.9399" stroke="white" stroke-linecap="round" stroke-linejoin="round"/>
</svg>
