<svg width="38" height="38" viewBox="0 0 38 38" fill="none" xmlns="http://www.w3.org/2000/svg">
<g clip-path="url(#clip0_841_5033)">
<path d="M12.9435 16.7721V16.6977L12.9621 16.226C13.0738 14.3458 13.8433 12.5835 15.196 11.2307L22.4315 4.03868C23.896 2.57422 25.8321 1.78613 27.9171 1.78613C32.1802 1.78613 35.6365 5.2053 35.6365 9.46839C35.6365 11.5534 34.8485 13.4895 33.384 14.9539L25.9251 22.4128C26.0368 21.8295 26.0927 21.2276 26.0927 20.6257L26.0741 20.154L32.1429 14.0852C33.3095 12.9 33.9859 11.3238 33.9859 9.65455C33.9859 6.19816 31.1873 3.43676 27.7309 3.43676C26.0616 3.43676 24.4793 4.11315 23.3189 5.27976L16.4433 12.0809C15.2581 13.2475 14.6189 14.8609 14.6189 16.5115C14.6189 19.9493 17.3431 22.7107 20.7809 22.7665C20.5575 23.2754 20.2348 23.7408 19.8625 24.1193L19.6205 24.3613C16.0896 23.8711 13.3468 21.0538 12.9869 17.5044C12.9683 17.2251 12.9497 17.0141 12.9497 16.7721H12.9435ZM1.78001 27.8735C1.78001 25.8071 2.56809 23.8525 4.03256 22.388L11.268 15.1525C11.3425 15.0967 11.417 15.0222 11.4914 14.9477C11.3797 15.531 11.3239 16.1143 11.3239 16.6977V17.0141L11.3425 17.1631L5.27364 23.2505C4.10703 24.4171 3.43064 26.0305 3.43064 27.6626C3.43064 31.1376 6.22926 33.899 9.70428 33.899C11.3735 33.899 12.9745 33.2226 14.1349 32.056L20.9732 25.2363C22.1212 24.0883 22.7976 22.419 22.7976 20.7622C22.7976 17.3802 20.0921 14.6189 16.5984 14.6002C16.8218 14.0728 17.1445 13.6074 17.5541 13.1916L17.7402 13.0055L17.7961 12.9682C21.5938 13.4771 24.4669 16.7411 24.4669 20.6132C24.4669 22.6983 23.6788 24.6343 22.2143 26.0988L14.9788 33.2908C13.533 34.7367 11.5783 35.5434 9.49329 35.5434C5.2302 35.5434 1.7738 32.1242 1.7738 27.8611L1.78001 27.8735Z" fill="#CBCCBE"/>
<path d="M19.1427 11.6278L24.4421 6.40291C25.3232 5.52174 26.4712 5.05014 27.7309 5.05014C30.3061 5.05014 32.3725 7.07929 32.3725 9.65453C32.3725 10.9142 31.8823 12.0374 31.0198 12.9248L25.7762 18.1869C24.9137 15.0098 22.4129 12.478 19.1427 11.6278ZM16.2323 16.5115V16.2508C16.4185 16.2322 16.5923 16.2322 16.7226 16.2322C19.1861 16.2322 21.1966 18.28 21.1966 20.7808C21.1966 20.9111 21.1966 21.0228 21.178 21.1593H20.8802C18.3049 21.1593 16.2386 19.0929 16.2386 16.5177L16.2323 16.5115ZM12.9435 16.7721V16.6976C12.9435 16.5487 12.9435 16.3812 12.9621 16.226C13.0738 14.3458 13.8433 12.5835 15.196 11.2307L22.4315 4.03866C23.896 2.57419 25.8321 1.78611 27.9171 1.78611C32.1802 1.78611 35.6366 5.20527 35.6366 9.46836C35.6366 11.5534 34.8485 13.4894 33.384 14.9539L26.1485 22.1894L25.9251 22.4128C26.0368 21.8295 26.0927 21.2276 26.0927 20.6256C26.0927 20.4767 26.0927 20.3278 26.0741 20.154L32.1429 14.0852C33.3095 12.8999 33.9859 11.3238 33.9859 9.65453C33.9859 6.19813 31.1873 3.43674 27.7309 3.43674C26.0617 3.43674 24.4793 4.11312 23.3189 5.27973L16.4433 12.0808C15.2581 13.2474 14.6189 14.8608 14.6189 16.5115C14.6189 19.9492 17.3431 22.7106 20.7809 22.7665C20.5575 23.2753 20.2348 23.7407 19.8625 24.1193L19.6205 24.3613C16.0896 23.871 13.3468 21.0538 12.9869 17.5043C12.9683 17.2251 12.9497 17.0141 12.9497 16.7721H12.9435ZM5.05646 27.6687C5.05646 26.4277 5.52807 25.2424 6.40924 24.3799L11.6528 19.155C12.5153 22.3507 15.0347 24.8639 18.2305 25.7327L12.9869 30.939C12.1244 31.7829 10.9764 32.2917 9.7167 32.2917C7.14147 32.2917 5.05646 30.244 5.05646 27.6687ZM1.78623 27.8735C1.78623 25.8071 2.57431 23.8524 4.03878 22.388L11.2743 15.1525C11.3487 15.0966 11.4232 15.0222 11.4976 14.9477C11.3859 15.531 11.3301 16.1143 11.3301 16.6976V17.0141L11.3487 17.163L5.27986 23.2505C4.11325 24.4171 3.43686 26.0305 3.43686 27.6625C3.43686 31.1375 6.23548 33.8989 9.7105 33.8989C11.3797 33.8989 12.9807 33.2225 14.1411 32.0559L20.9795 25.2362C22.1275 24.0882 22.8038 22.419 22.8038 20.7621C22.8038 17.3802 20.0983 14.6188 16.6047 14.6002C16.8281 14.0728 17.1507 13.6074 17.5603 13.1916L17.7465 13.0054L17.8023 12.9682C21.6 13.477 24.4731 16.7411 24.4731 20.6132C24.4731 22.6982 23.685 24.6343 22.2205 26.0988L14.9851 33.2908C13.5392 34.7367 11.5845 35.5434 9.49951 35.5434C5.23642 35.5434 1.78002 32.1242 1.78002 27.8611L1.78623 27.8735ZM16.1206 34.4326L23.3561 27.2406C24.0325 26.5642 24.5972 25.7947 25.0254 24.9694C25.8507 24.5536 26.6015 23.9952 27.2779 23.3188L34.5134 16.0833C36.2819 14.3148 37.2562 11.9691 37.2562 9.46836C37.2562 4.29928 33.0862 0.166504 27.9171 0.166504C25.4163 0.166504 23.0707 1.14075 21.3021 2.90928L14.0667 10.1013C13.4089 10.7591 12.8628 11.4913 12.4347 12.298C11.5721 12.8069 10.8026 13.3715 10.1449 14.0293L2.9094 21.2648C1.15949 23.0147 0.166626 25.3976 0.166626 27.8797C0.166626 33.0488 4.33664 37.1816 9.50572 37.1816C12.0065 37.1816 14.3707 36.1887 16.1206 34.4388V34.4326Z" fill="#AFAFAF"/>
</g>
<defs>
<clipPath id="clip0_841_5033">
<rect width="37.0833" height="37.0089" fill="white" transform="translate(0.166626 0.166504)"/>
</clipPath>
</defs>
</svg>
