<svg width="36" height="25" viewBox="0 0 36 25" fill="none" xmlns="http://www.w3.org/2000/svg">
<g clip-path="url(#clip0_508_2204)">
<path d="M8.06 21.66L1.66 14.42C0.92 13.58 0 12.1 0 10.48C0 8.85999 0.93 7.37999 1.66 6.53999L5.27 2.45999C6.65 0.90999 8.23 -0.0100098 9.97 -0.0100098C11.35 -0.0100098 12.53 0.47999 13.42 1.28999C14.43 2.21999 15.06 3.53999 15.14 4.96999H17.27C17.35 2.34999 19.39 -0.0100098 22.46 -0.0100098C24.2 -0.0100098 25.78 0.90999 27.16 2.45999L33.83 10.02C34.68 10.98 35.62 12.33 35.62 13.94C35.62 15.43 34.66 16.79 33.96 17.58L30.35 21.66C28.97 23.21 27.39 24.13 25.65 24.13C24.02 24.13 21.82 23.2 20.91 20.75C19.88 20.45 19.14 19.98 18.35 19.06C18.27 21.83 16.23 24.14 13.16 24.14C11.26 24.14 9.49 23.29 8.07 21.67L8.06 21.66ZM2.85 13.38L6.46 17.46C7.58 18.72 8.75 19.39 9.97 19.39C12.18 19.39 13.58 17.71 13.58 15.88C13.58 14.73 12.87 14.19 11.98 13.57C11.77 13.43 11.62 13.17 11.62 12.91C11.62 12.48 11.97 12.12 12.39 12.12C12.56 12.12 12.75 12.18 12.98 12.33C13.66 12.74 14.55 13.64 14.89 14.42H17.55C17.9 13.65 18.78 12.74 19.46 12.33C19.68 12.19 19.87 12.12 20.05 12.12C20.48 12.12 20.82 12.48 20.82 12.91C20.82 13.18 20.66 13.43 20.46 13.57C19.57 14.19 18.86 14.72 18.86 15.88C18.86 17.71 20.25 19.39 22.47 19.39C23.69 19.39 24.86 18.73 25.98 17.46L29.59 13.38C30.18 12.72 30.85 11.58 30.85 10.49C30.85 9.39999 30.17 8.25999 29.59 7.59999L25.98 3.51999C24.86 2.25999 23.69 1.58999 22.47 1.58999C20.26 1.58999 18.86 3.26999 18.86 5.09999C18.86 6.24999 19.57 6.78999 20.46 7.40999C20.67 7.54999 20.82 7.80999 20.82 8.06999C20.82 8.49999 20.47 8.85999 20.05 8.85999C19.88 8.85999 19.69 8.79999 19.46 8.64999C18.78 8.23999 17.89 7.33999 17.55 6.55999H14.89C14.54 7.32999 13.66 8.23999 12.98 8.64999C12.76 8.78999 12.57 8.85999 12.39 8.85999C11.96 8.85999 11.62 8.49999 11.62 8.06999C11.62 7.79999 11.78 7.54999 11.98 7.40999C12.87 6.78999 13.58 6.25999 13.58 5.09999C13.58 3.26999 12.19 1.58999 9.97 1.58999C8.75 1.58999 7.58 2.24999 6.46 3.51999L2.85 7.59999C2.26 8.25999 1.59 9.39999 1.59 10.49C1.59 11.58 2.27 12.72 2.85 13.38ZM5.87 5.99999L7.53 4.14999C7.88 3.76999 8.4 3.70999 8.73 4.01999C9.08 4.29999 9.01 4.82999 8.73 5.15999L7.07 7.03999C6.74 7.39999 6.2 7.43999 5.87 7.14999C5.52 6.84999 5.59 6.30999 5.87 5.99999ZM21.59 2.95999C21.7 2.90999 21.83 2.89999 21.94 2.87999C22.46 2.84999 22.84 3.17999 22.86 3.66999C22.88 4.02999 22.62 4.36999 22.26 4.43999C22.05 4.46999 21.99 4.57999 21.96 4.76999C21.93 5.11999 21.61 5.38999 21.23 5.39999C20.76 5.41999 20.41 5.06999 20.39 4.58999C20.39 3.81999 20.91 3.17999 21.59 2.94999V2.95999Z" fill="#C9AAF8"/>
</g>
<defs>
<clipPath id="clip0_508_2204">
<rect width="35.61" height="24.13" fill="white"/>
</clipPath>
</defs>
</svg>
