<svg width="32" height="32" viewBox="0 0 32 32" fill="none" xmlns="http://www.w3.org/2000/svg">
<path d="M15.6467 23.5226C22.2791 23.5226 30.31 21.0277 30.31 16.2613C30.31 11.4949 22.3122 9 15.6467 9C9.65666 9 1 11.1815 1 16.2613C1 21.0277 8.99777 23.5226 15.6467 23.5226Z" fill="black" stroke="black" stroke-linecap="round" stroke-linejoin="round"/>
<path d="M1.5224 16.0399C1.5224 11.6655 10.1139 9.50574 15.5805 9.50574C17.551 9.50574 19.4677 9.70227 21.2603 10.0767C24.8816 10.8442 29.6563 12.9688 29.6563 16.0399C29.6563 16.647 29.497 17.2004 29.1774 17.7362C27.9351 14.1294 20.1959 12.9336 15.6509 12.9336C10.1129 12.9336 3.08326 14.4511 2.08923 17.8966C1.71686 17.3256 1.52136 16.7184 1.52136 16.0399H1.5224Z" fill="#CBCCBE"/>
<mask id="mask0_683_2977" style="mask-type:luminance" maskUnits="userSpaceOnUse" x="1" y="9" width="29" height="14">
<path d="M15.6478 22.963C22.0257 22.963 29.7463 20.6564 29.7463 16.2489C29.7463 11.8414 22.0557 9.53479 15.6478 9.53479C9.88738 9.53479 1.56482 11.5518 1.56482 16.2489C1.56482 20.6564 9.25537 22.963 15.6478 22.963Z" fill="white"/>
</mask>
<g mask="url(#mask0_683_2977)">
<path d="M20.4502 24.526C23.0808 24.526 25.2132 22.3935 25.2132 19.763C25.2132 17.1325 23.0808 15 20.4502 15C17.8197 15 15.6873 17.1325 15.6873 19.763C15.6873 22.3935 17.8197 24.526 20.4502 24.526Z" fill="white" stroke="black" stroke-linecap="round" stroke-linejoin="round"/>
<path d="M20.6746 20.0464C21.3105 20.0464 21.8259 19.5309 21.8259 18.8951C21.8259 18.2592 21.3105 17.7437 20.6746 17.7437C20.0387 17.7437 19.5233 18.2592 19.5233 18.8951C19.5233 19.5309 20.0387 20.0464 20.6746 20.0464Z" fill="black"/>
<path d="M10.8525 24.526C13.4831 24.526 15.6155 22.3935 15.6155 19.763C15.6155 17.1325 13.4831 15 10.8525 15C8.222 15 6.08954 17.1325 6.08954 19.763C6.08954 22.3935 8.222 24.526 10.8525 24.526Z" fill="white" stroke="black" stroke-linecap="round" stroke-linejoin="round"/>
<path d="M11.0897 20.3824C11.7256 20.3824 12.241 19.8669 12.241 19.231C12.241 18.5952 11.7256 18.0797 11.0897 18.0797C10.4538 18.0797 9.93835 18.5952 9.93835 19.231C9.93835 19.8669 10.4538 20.3824 11.0897 20.3824Z" fill="black"/>
</g>
</svg>
