<svg width="24" height="24" viewBox="0 0 24 24" fill="none" xmlns="http://www.w3.org/2000/svg">
<rect width="24" height="24" rx="12" fill="#FAFAFA"/>
<g clip-path="url(#clip0_905_124)">
<path d="M7.99195 18.9242C6.76593 18.2079 5.79477 17.2341 5.07579 16.008C4.35949 14.782 4 13.446 4 12C4 10.554 4.35949 9.21797 5.07579 7.99195C5.79209 6.76593 6.76593 5.79477 7.99195 5.07579C9.21797 4.35949 10.554 4 12 4C13.446 4 14.782 4.35949 16.008 5.07579C17.2341 5.79209 18.2052 6.76593 18.9242 7.99195C19.6405 9.21797 20 10.554 20 12C20 13.446 19.6405 14.782 18.9242 16.008C18.2079 17.2341 17.2341 18.2052 16.008 18.9242C14.782 19.6405 13.446 20 12 20C10.554 20 9.21797 19.6405 7.99195 18.9242ZM7.76928 11.5225C7.80148 10.5164 7.91683 9.58015 8.11804 8.72166H5.77062C5.30382 9.60429 5.04091 10.5379 4.97384 11.5225H7.7666H7.76928ZM5.77062 15.2837H8.11804C7.91683 14.4225 7.80148 13.4889 7.76928 12.4829H4.97384C5.03823 13.4675 5.30382 14.4011 5.77062 15.2837ZM8.38632 7.76392C8.54997 7.27029 8.72435 6.84105 8.91482 6.47351C9.11066 6.07914 9.33333 5.71429 9.5882 5.38431C8.94433 5.61771 8.34876 5.93696 7.80416 6.34205C7.25956 6.74715 6.78471 7.222 6.37961 7.76392H8.38632ZM7.80684 17.6633C8.35144 18.0684 8.94433 18.3877 9.59088 18.6211C9.34675 18.3072 9.1214 17.945 8.91751 17.5319C8.72703 17.1643 8.55265 16.7324 8.389 16.2414H6.38229C6.78739 16.7834 7.26224 17.2555 7.80684 17.6633ZM11.5225 11.5225V8.72166H9.11066C8.88799 9.59356 8.7619 10.5272 8.72971 11.5225H11.5225ZM9.11066 15.2837H11.5225V12.4829H8.72971C8.7619 13.4836 8.89068 14.4199 9.11066 15.2837ZM9.76794 17.1107C9.98525 17.556 10.2455 17.945 10.5486 18.283C10.8518 18.6211 11.1764 18.8491 11.5225 18.9698V16.2414H9.39504C9.51844 16.5768 9.64453 16.8665 9.76794 17.1107ZM11.5225 7.76392V5.03018C11.1764 5.14822 10.8518 5.37894 10.5513 5.71697C10.2508 6.055 9.99061 6.44668 9.76794 6.88934C9.6338 7.1603 9.5104 7.45003 9.40309 7.75855H11.5225V7.76392ZM14.6076 7.76392C14.4842 7.42857 14.3581 7.13883 14.2347 6.8947C14.0174 6.45205 13.7572 6.06036 13.4541 5.72233C13.1509 5.38431 12.8263 5.15627 12.4802 5.03555V7.76392H14.6076ZM15.273 11.5252C15.2408 10.5245 15.112 9.59088 14.892 8.72435H12.4802V11.5252H15.273ZM14.892 15.2864C15.1147 14.4145 15.2408 13.4809 15.273 12.4856H12.4802V15.2864H14.892ZM13.4514 18.2884C13.7518 17.9504 14.0121 17.5587 14.2347 17.116C14.3689 16.8451 14.4923 16.5553 14.5996 16.2468H12.4802V18.9752C12.8263 18.8571 13.1509 18.6264 13.4514 18.2884ZM15.0879 6.47619C15.2783 6.84373 15.4527 7.27565 15.6164 7.7666H17.6231C17.218 7.22468 16.7431 6.75252 16.1985 6.34474C15.6539 5.93696 15.061 5.62039 14.4145 5.38699C14.6586 5.70087 14.884 6.06304 15.0879 6.47619ZM16.1958 17.6687C16.7404 17.2636 17.2153 16.7887 17.6204 16.2468H15.6137C15.45 16.7404 15.2757 17.1697 15.0852 17.5372C14.8893 17.9262 14.6667 18.2911 14.4118 18.6264C15.0557 18.393 15.6512 18.0738 16.1958 17.6687ZM16.2334 11.5278H19.0262C18.9618 10.5433 18.6962 9.60966 18.2294 8.72703H15.882C16.0832 9.5882 16.1985 10.5218 16.2307 11.5278H16.2334ZM18.2321 15.2891C18.6989 14.4064 18.9618 13.4728 19.0288 12.4883H16.2361C16.2039 13.4943 16.0858 14.4306 15.8873 15.2891H18.2347H18.2321Z" fill="#18181B"/>
</g>
<defs>
<clipPath id="clip0_905_124">
<rect width="16" height="16" fill="white" transform="translate(4 4)"/>
</clipPath>
</defs>
</svg>
