<svg width="97" height="96" viewBox="0 0 97 96" fill="none" xmlns="http://www.w3.org/2000/svg">
<path d="M75.2838 54.5267C71.1057 54.5267 68.3203 51.6577 68.3203 47.3404V21.6033C68.3203 17.2859 71.1057 14.417 75.2838 14.417H86.7318C90.9656 14.417 93.751 17.2302 93.751 21.4919C93.751 26.0599 91.1606 27.4805 85.729 27.4805C84.1414 27.4805 82.5537 27.2577 81.6624 26.9513C81.3003 26.8399 80.8824 26.7284 80.6039 26.7284C79.8518 26.7284 79.2391 27.3134 79.2391 28.0933C79.2391 28.8453 79.7961 29.291 80.2975 29.4581C81.5509 29.8759 83.64 30.2659 85.729 30.2659C87.6231 30.2659 89.6007 29.9316 90.687 29.6253C91.8012 30.4052 92.9154 32.0764 92.9154 34.4718C92.9154 36.8673 91.8012 38.5385 90.687 39.3184C89.6007 39.012 87.6231 38.6778 85.729 38.6778C83.64 38.6778 81.5509 39.0677 80.2975 39.4856C79.7961 39.6527 79.2391 40.0983 79.2391 40.8504C79.2391 41.6303 79.8518 42.2152 80.6039 42.2152C80.8824 42.2152 81.3003 42.1038 81.6624 41.9924C82.5537 41.686 84.1414 41.4632 85.729 41.4632C91.1606 41.4632 93.751 42.8837 93.751 47.4518C93.751 51.7134 90.9656 54.5267 86.7318 54.5267H75.2838Z" fill="#B5CEFF"/>
<path d="M43.6946 54.9445C39.4608 54.9445 36.7311 52.0198 36.7311 47.7582V21.6033C36.7311 17.3417 39.4608 14.417 43.6946 14.417H50.491C60.7412 14.417 66.507 19.7371 66.507 28.5111C66.507 37.2015 60.797 42.6052 50.6581 42.6052C48.8198 42.6052 47.3992 42.4381 46.4243 42.1038C46.0622 41.9924 45.6444 41.881 45.3659 41.881C44.6138 41.881 44.001 42.4659 44.001 43.2458C44.001 43.9979 44.5581 44.4436 45.0595 44.6107C46.5079 45.0842 48.4298 45.3627 50.6581 45.3627V47.7582C50.6581 52.0198 47.9006 54.9445 43.6946 54.9445ZM49.7946 31.8257C49.7946 32.6892 50.2125 33.3298 51.1873 33.3298C52.1622 33.3298 52.58 32.6892 52.58 31.8257V25.5864C52.58 24.723 52.1622 24.0823 51.1873 24.0823C50.2125 24.0823 49.7946 24.723 49.7946 25.5864V31.8257Z" fill="#B5CEFF"/>
<path d="M9.57353 54.9453C5.61827 54.9453 3 52.3549 3 47.7868C3 47.0069 3.05571 44.8065 3.16712 43.4416L4.33699 28.8183C5.1169 18.958 10.4092 14 18.5425 14C26.6759 14 31.9681 18.958 32.748 28.8183L33.9179 43.4416C34.0293 44.8065 34.085 47.0069 34.085 47.7868C34.085 52.3549 31.4667 54.9453 27.5115 54.9453C23.6398 54.9453 21.4393 53.0791 20.353 48.1211C20.1302 47.1462 20.0188 46.1992 19.9352 44.5558C20.8822 44.5558 21.885 44.3887 22.4421 44.2772C23.3334 44.1101 23.8905 43.7202 23.8905 42.801C23.8905 42.0211 23.4727 41.5197 22.5535 41.5197C22.3306 41.5197 22.0243 41.5476 21.4393 41.6033C20.5201 41.6868 19.3503 41.7425 18.5425 41.7425C17.7347 41.7425 16.5649 41.6868 15.6457 41.6033C15.0608 41.5476 14.7544 41.5197 14.5315 41.5197C13.6124 41.5197 13.1945 42.0211 13.1945 42.801C13.1945 43.7202 13.7516 44.1101 14.643 44.2772C15.2 44.3887 16.2028 44.5558 17.1498 44.5558C17.0662 46.1992 16.9548 47.1462 16.732 48.1211C15.6457 53.0791 13.4452 54.9453 9.57353 54.9453ZM13.1945 31.4923C13.1945 32.3 13.6124 32.8014 14.5315 32.8014C14.7544 32.8014 15.0608 32.7736 15.6457 32.7179C16.5649 32.6343 17.7347 32.5786 18.5425 32.5786C19.3503 32.5786 20.5201 32.6343 21.4393 32.7179C22.0243 32.7736 22.3306 32.8014 22.5535 32.8014C23.4727 32.8014 23.8905 32.3 23.8905 31.4923C23.8905 30.5731 23.3334 30.211 22.4421 30.0439C21.885 29.9325 20.8822 29.7932 19.9352 29.7932V26.9521C19.9352 26.0886 19.5174 25.448 18.5425 25.448C17.5676 25.448 17.1498 26.0886 17.1498 26.9521V29.7932C16.2028 29.7932 15.2 29.9325 14.643 30.0439C13.7516 30.211 13.1945 30.5731 13.1945 31.4923Z" fill="#B5CEFF"/>
<path d="M79.4928 83.9453C77.265 83.9453 75.5215 82.2616 75.5215 79.8637V64.0644C75.5215 61.0031 77.6363 58.9453 80.4937 58.9453C83.1574 58.9453 84.1583 60.561 85.2237 63.197L86.9188 67.3807C87.3708 68.5031 88.1618 69.6766 88.6623 70.2038C88.8237 70.3739 89.0336 70.4929 89.2596 70.4929C89.6793 70.4929 90.0345 70.1358 90.0345 69.6766C90.0345 69.4045 89.9215 69.1834 89.7439 68.9623C89.4049 68.5542 88.8076 67.6528 88.4201 66.7174L85.9018 60.578C86.6928 59.5065 87.5484 58.9453 89.308 58.9453C92.0524 58.9453 93.5215 61.0031 93.5215 64.0644V79.8637C93.5215 82.2616 91.778 83.9453 89.534 83.9453C86.7574 83.9453 85.8695 82.2957 84.9331 79.8637L82.56 73.6902C82.0919 72.4487 81.4139 71.4453 80.8488 70.8501C80.6551 70.646 80.4614 70.561 80.2192 70.561C79.7995 70.561 79.4444 70.9351 79.4444 71.3773C79.4444 71.6154 79.5574 71.8705 79.7349 72.0576C80.1547 72.5167 80.6874 73.3331 81.0748 74.3535L83.5287 80.68C83.2219 82.4827 81.8659 83.9453 79.4928 83.9453Z" fill="#B5CEFF"/>
<path d="M68.5215 83.9453C66.0787 83.9453 64.5215 82.0235 64.5215 79.2344V63.6392C64.5215 60.8501 66.0787 58.9453 68.5215 58.9453C70.9642 58.9453 72.5215 60.8501 72.5215 63.6392V79.2344C72.5215 82.0235 70.9642 83.9453 68.5215 83.9453Z" fill="#B5CEFF"/>
<path d="M47.5394 83.9453C45.1218 83.9453 43.5215 82.3637 43.5215 79.5746C43.5215 79.0984 43.5555 77.7548 43.6236 76.9215L44.3387 67.9929C44.8154 61.9725 48.0502 58.9453 53.0215 58.9453C57.9928 58.9453 61.2276 61.9725 61.7043 67.9929L62.4193 76.9215C62.4874 77.7548 62.5215 79.0984 62.5215 79.5746C62.5215 82.3637 60.9211 83.9453 58.5036 83.9453C56.1371 83.9453 54.7921 82.8059 54.1281 79.7786C53.9919 79.1834 53.9238 78.6052 53.8727 77.6018C54.4516 77.6018 55.0645 77.4997 55.405 77.4317C55.9498 77.3297 56.2903 77.0916 56.2903 76.5303C56.2903 76.0542 56.0349 75.748 55.4731 75.748C55.3369 75.748 55.1496 75.765 54.7921 75.7991C54.2303 75.8501 53.5152 75.8841 53.0215 75.8841C52.5278 75.8841 51.8127 75.8501 51.2509 75.7991C50.8933 75.765 50.7061 75.748 50.5699 75.748C50.008 75.748 49.7527 76.0542 49.7527 76.5303C49.7527 77.0916 50.0932 77.3297 50.638 77.4317C50.9785 77.4997 51.5914 77.6018 52.1702 77.6018C52.1192 78.6052 52.0511 79.1834 51.9149 79.7786C51.2509 82.8059 49.9059 83.9453 47.5394 83.9453ZM49.7527 69.6256C49.7527 70.1188 50.008 70.4249 50.5699 70.4249C50.7061 70.4249 50.8933 70.4079 51.2509 70.3739C51.8127 70.3229 52.5278 70.2889 53.0215 70.2889C53.5152 70.2889 54.2303 70.3229 54.7921 70.3739C55.1496 70.4079 55.3369 70.4249 55.4731 70.4249C56.0349 70.4249 56.2903 70.1188 56.2903 69.6256C56.2903 69.0644 55.9498 68.8433 55.405 68.7412C55.0645 68.6732 54.4516 68.5882 53.8727 68.5882V66.8535C53.8727 66.3263 53.6174 65.9351 53.0215 65.9351C52.4256 65.9351 52.1702 66.3263 52.1702 66.8535V68.5882C51.5914 68.5882 50.9785 68.6732 50.638 68.7412C50.0932 68.8433 49.7527 69.0644 49.7527 69.6256Z" fill="#B5CEFF"/>
<path d="M27.7554 83.9453C25.1661 83.9453 23.5215 82.0406 23.5215 79.2514V63.6392C23.5215 60.8501 25.1661 58.9453 27.7554 58.9453C30.4147 58.9453 32.1467 60.8501 32.1467 63.6392V66.7344C31.5519 66.7344 30.922 66.8195 30.5721 66.8875C30.0123 66.9895 29.6624 67.2106 29.6624 67.7718C29.6624 68.265 29.9248 68.5712 30.5021 68.5712C30.6421 68.5712 30.8346 68.5542 31.202 68.5201C31.7793 68.4691 32.5141 68.4351 33.0215 68.4351C33.5289 68.4351 34.2637 68.4691 34.841 68.5201C35.2084 68.5542 35.4009 68.5712 35.5408 68.5712C36.1182 68.5712 36.3806 68.265 36.3806 67.7718C36.3806 67.2106 36.0307 66.9895 35.4708 66.8875C35.1209 66.8195 34.4911 66.7344 33.8963 66.7344V63.6392C33.8963 60.8501 35.6283 58.9453 38.2876 58.9453C40.8769 58.9453 42.5215 60.8501 42.5215 63.6392V79.2514C42.5215 82.0406 40.8769 83.9453 38.2876 83.9453C35.6283 83.9453 33.8963 82.0406 33.8963 79.2514V76.1562C34.4911 76.1562 35.1209 76.0712 35.4708 76.0031C36.0307 75.9011 36.3806 75.68 36.3806 75.1188C36.3806 74.6256 36.1182 74.3195 35.5408 74.3195C35.4009 74.3195 35.2084 74.3365 34.841 74.3705C34.2637 74.4215 33.5289 74.4555 33.0215 74.4555C32.5141 74.4555 31.7793 74.4215 31.202 74.3705C30.8346 74.3365 30.6421 74.3195 30.5021 74.3195C29.9248 74.3195 29.6624 74.6256 29.6624 75.1188C29.6624 75.68 30.0123 75.9011 30.5721 76.0031C30.922 76.0712 31.5519 76.1562 32.1467 76.1562V79.2514C32.1467 82.0406 30.4147 83.9453 27.7554 83.9453Z" fill="#B5CEFF"/>
<path d="M12.663 83.9453C6.40215 83.9453 3.52148 79.6886 3.52148 71.4453C3.52148 63.2021 6.40215 58.9453 12.663 58.9453C17.8749 58.9453 21.5215 61.9014 21.5215 66.0906C21.5215 68.8946 19.6898 70.6345 16.7759 70.6345C15.6935 70.6345 14.3448 70.6345 13.5289 69.621V66.1075C13.5289 65.5838 13.2791 65.1953 12.6963 65.1953C12.1135 65.1953 11.8638 65.5838 11.8638 66.1075V76.9014C11.8638 77.425 12.1135 77.8136 12.6963 77.8136C13.2791 77.8136 13.5289 77.425 13.5289 76.9014V73.3372C14.3448 72.3237 15.6935 72.3237 16.7759 72.3237C19.6898 72.3237 21.5215 74.0467 21.5215 76.8338C21.5215 81.0061 17.9082 83.9453 12.663 83.9453Z" fill="#B5CEFF"/>
</svg>
