<svg width="38" height="38" viewBox="0 0 38 38" fill="none" xmlns="http://www.w3.org/2000/svg">
<g clip-path="url(#clip0_841_5032)">
<path d="M18.7084 36.4964C28.2103 36.4964 35.9132 28.7936 35.9132 19.2916C35.9132 9.78966 28.2103 2.08679 18.7084 2.08679C9.2064 2.08679 1.50354 9.78966 1.50354 19.2916C1.50354 28.7936 9.2064 36.4964 18.7084 36.4964Z" fill="#00C7FF" fill-opacity="0.15"/>
<path d="M27.7055 11.6872H33.1462C34.1846 13.6458 34.8374 15.847 34.9929 18.1787H28.5201C28.4455 15.9216 28.1843 13.7205 27.7118 11.6872H27.7055ZM27.7055 26.8961C28.1781 24.8629 28.4392 22.6617 28.5139 20.4047H34.9867C34.8374 22.7364 34.1783 24.9437 33.1399 26.8961H27.6993H27.7055ZM24.2982 3.9522C27.2889 5.04654 29.8694 6.9803 31.7347 9.46744H27.0838C26.7231 8.39175 26.3314 7.39689 25.8588 6.47665C25.4049 5.57506 24.8826 4.70456 24.2982 3.9522ZM24.2982 34.6373C24.8826 33.8663 25.4111 33.0207 25.8588 32.1129C26.3314 31.1927 26.7231 30.1916 27.0838 29.1221H31.7347C29.8694 31.6093 27.2952 33.543 24.2982 34.6373ZM19.8151 9.46744V3.13766C21.5063 3.72214 22.9613 5.55019 23.8816 7.44664C24.1987 8.08708 24.4847 8.76482 24.7458 9.46123H19.8151V9.46744ZM19.8151 18.1849V11.6934H25.4049C25.9334 13.764 26.2133 15.9838 26.2879 18.1849H19.8151ZM19.8151 26.9023V20.4109H26.2879C26.2133 22.5934 25.9272 24.8131 25.4049 26.9023H19.8151ZM19.8151 35.4457V29.1221H24.7272C24.4847 29.8185 24.1987 30.4963 23.8816 31.1367C22.9613 32.9834 21.5312 34.8612 19.8151 35.4457ZM12.6832 9.46744C12.9257 8.77104 13.2117 8.0933 13.5288 7.45286C14.4491 5.60615 15.8792 3.72836 17.5953 3.14388V9.46744H12.6832ZM12.6645 29.1221H17.5953V35.4457C15.904 34.8612 14.4491 33.0331 13.5288 31.1367C13.2117 30.4963 12.9257 29.8185 12.6645 29.1221ZM11.1225 18.1849C11.1971 16.0024 11.4831 13.7826 12.0054 11.6934H17.5953V18.1849H11.1225ZM11.1225 20.4047H17.5953V26.8961H12.0054C11.4769 24.8256 11.1971 22.6058 11.1225 20.4047ZM5.68187 9.46744C7.54723 6.9803 10.1214 5.04654 13.1184 3.9522C12.534 4.70456 12.0054 5.55019 11.5577 6.47665C11.0852 7.39689 10.6935 8.39797 10.3328 9.46744H5.68187ZM5.68187 29.1221H10.3328C10.6935 30.1978 11.0852 31.1927 11.5577 32.1129C12.0117 33.0145 12.534 33.885 13.1184 34.6373C10.1276 33.543 7.54723 31.6093 5.68187 29.1221ZM2.42371 18.1787C2.57294 15.847 3.23203 13.6396 4.27042 11.6872H9.71105C9.23849 13.7205 8.97734 15.9216 8.90272 18.1787H2.42371ZM2.42371 20.3984H8.8965C8.97112 22.6555 9.23227 24.8567 9.70483 26.8899H4.27042C3.23203 24.9313 2.57916 22.7301 2.42371 20.3984ZM18.7083 37.8271C28.9305 37.8271 37.25 29.5076 37.25 19.2854C37.25 9.06328 28.9305 0.75 18.7083 0.75C8.48612 0.75 0.166626 9.0695 0.166626 19.2917C0.166626 29.5138 8.48612 37.8333 18.7083 37.8333V37.8271Z" fill="#00C7FF"/>
</g>
<defs>
<clipPath id="clip0_841_5032">
<rect width="37.0833" height="37.0833" fill="white" transform="translate(0.166626 0.75)"/>
</clipPath>
</defs>
</svg>
