<svg width="96" height="96" viewBox="0 0 96 96" fill="none" xmlns="http://www.w3.org/2000/svg">
<path d="M38.7235 95.788L51.2513 81.7118C51.4632 81.4998 51.3211 81.1482 50.9695 81.1482H37.175C37.0692 81.131 36.971 81.0824 36.8932 81.0086L25.2108 67.9173C25.141 67.7776 25.0687 67.6355 25.141 67.4933L44.7056 33.9222C44.7755 33.7826 44.7755 33.6405 44.7056 33.5731L36.6115 19.634C36.4718 19.4246 36.1202 19.4246 35.9781 19.634L7.05253 69.3286C7.01804 69.3935 7 69.4659 7 69.5393C7 69.6128 7.01804 69.6852 7.05253 69.75L30.2753 95.8578C30.3451 95.9302 30.4149 96 30.557 96H38.4393C38.5091 95.9302 38.6537 95.8603 38.7235 95.788Z" fill="white"/>
<path d="M47.3086 0.211331L39.1447 14.1455C39.0748 14.2876 39.0748 14.4272 39.1447 14.4971L47.5904 28.9972L69.9728 67.4233C70.0426 67.5655 70.0426 67.7076 69.903 67.8473L58.0784 81.0782L45.4783 95.2966C45.2689 95.5086 45.4085 95.8602 45.7601 95.8602H64.6241C64.7301 95.8421 64.8283 95.7926 64.9058 95.718L88.1311 69.6077C88.2009 69.4656 88.2707 69.326 88.2009 69.1838L47.8722 0.211331C47.8024 -0.0704437 47.4483 -0.0704437 47.3086 0.211331Z" fill="white"/>
</svg>
