<svg width="38" height="38" viewBox="0 0 38 38" fill="none" xmlns="http://www.w3.org/2000/svg">
<g clip-path="url(#clip0_841_5031)">
<path d="M22.5683 15.8844L18.2407 14.9268C16.0022 14.4356 15.3805 14.0625 15.3805 12.819C15.3805 11.7619 16.3567 11.0469 18.7132 11.0469C21.4242 11.0469 23.0036 12.1785 24.0792 13.3599C25.0181 14.3734 26.1311 15.1134 27.2628 15.1134C28.8794 15.1134 30.4277 13.6832 30.4277 11.5754C30.4277 9.90279 29.1468 7.83224 27.2068 6.58867C26.0752 5.87361 24.701 5.19586 22.9352 4.79792V3.55435C22.9352 1.70764 21.4677 0.333496 19.6024 0.333496C17.737 0.333496 16.2696 1.68899 16.2696 3.55435V4.61139C11.3264 5.4508 8.29831 8.6903 8.29831 13.2293C8.29831 18.1228 11.1772 20.5913 16.2447 21.6421L20.6283 22.5437C22.8295 22.9976 23.358 23.3707 23.358 24.6143C23.358 26.0444 22.3818 26.7221 19.6708 26.7221C16.5619 26.7221 14.7214 25.7086 13.8384 24.179C13.1234 22.9727 12.2404 22.1644 10.773 22.1644C9.13773 22.1644 7.58948 23.6132 7.58948 25.5158C7.58948 27.4185 8.66517 29.4704 10.4683 30.8445C12.0104 31.9575 13.913 32.7845 16.2634 33.1576V33.9286C16.2634 36.0738 17.6375 37.4106 19.5962 37.4106C21.5548 37.4106 22.9289 36.0738 22.9289 33.9286V33.027C27.5426 31.97 30.3842 28.774 30.3842 24.2536C30.3842 19.3042 27.3934 16.9476 22.5745 15.8782L22.5683 15.8844Z" fill="#00BF3A"/>
<path d="M9.84034 25.5221C9.84034 24.9376 10.1761 24.4277 10.7606 24.4277C11.1772 24.4277 11.5129 24.7075 11.8736 25.3107C13.1358 27.4558 15.8655 28.9792 19.6646 28.9792C23.2398 28.9792 25.6151 27.3999 25.6151 24.6143C25.6151 22.0898 23.843 20.9084 21.076 20.3239L16.6924 19.4223C12.3461 18.5394 10.5554 16.9725 10.5554 13.2293C10.5554 9.20017 13.3037 6.84982 18.5205 6.63841V3.96473C18.5205 3.17506 18.8376 2.59058 19.5962 2.59058C20.3547 2.59058 20.6719 3.17506 20.6719 3.96473V6.69437C23.0595 6.95552 24.6451 7.63327 26.0006 8.50377C27.3747 9.3867 28.2203 10.537 28.2203 11.6687C28.2203 12.4583 27.8411 12.8563 27.2628 12.8563C26.8275 12.8563 26.3612 12.477 25.7394 11.8179C24.4772 10.4251 22.2201 8.78979 18.7195 8.78979C15.4613 8.78979 13.1296 10.4437 13.1296 12.819C13.1296 15.418 15.0323 16.5248 17.7619 17.1466L22.0895 18.1041C26.2679 19.0244 28.1333 20.5167 28.1333 24.2598C28.1333 28.289 25.5715 30.6394 20.6781 31.1119V33.6923C20.6781 34.6126 20.3796 35.1597 19.6024 35.1597C18.8252 35.1597 18.5267 34.6312 18.5267 33.6923V31.1492C15.5173 30.9813 13.5213 30.2476 11.7865 29.0414C10.487 28.0279 9.84656 26.7656 9.84656 25.5221H9.84034ZM22.5621 15.8844L18.2345 14.9268C15.996 14.4356 15.3742 14.0625 15.3742 12.819C15.3742 11.7619 16.3504 11.0469 18.707 11.0469C21.418 11.0469 22.9973 12.1785 24.073 13.3599C25.0119 14.3734 26.1249 15.1134 27.2566 15.1134C28.8732 15.1134 30.4215 13.6832 30.4215 11.5754C30.4215 9.90279 29.1406 7.83224 27.2006 6.58867C26.069 5.87361 24.6948 5.19586 22.9289 4.79792V3.55435C22.9289 1.70764 21.4615 0.333496 19.5962 0.333496C17.7308 0.333496 16.2634 1.68899 16.2634 3.55435V4.61139C11.3264 5.4508 8.29831 8.6903 8.29831 13.2293C8.29831 18.1228 11.1772 20.5913 16.2447 21.6421L20.6283 22.5437C22.8295 22.9976 23.358 23.3707 23.358 24.6143C23.358 26.0444 22.3818 26.7221 19.6708 26.7221C16.5619 26.7221 14.7214 25.7086 13.8384 24.179C13.1234 22.9727 12.2404 22.1644 10.773 22.1644C9.13773 22.1644 7.58948 23.6132 7.58948 25.5158C7.58948 27.4185 8.66517 29.4704 10.4683 30.8445C12.0104 31.9575 13.913 32.7845 16.2634 33.1576V33.9286C16.2634 36.0738 17.6375 37.4106 19.5962 37.4106C21.5548 37.4106 22.9289 36.0738 22.9289 33.9286V33.027C27.5426 31.97 30.3842 28.774 30.3842 24.2536C30.3842 19.3042 27.3934 16.9476 22.5745 15.8782L22.5621 15.8844Z" fill="#00AB34"/>
</g>
<defs>
<clipPath id="clip0_841_5031">
<rect width="22.832" height="37.0833" fill="white" transform="translate(7.58325 0.333374)"/>
</clipPath>
</defs>
</svg>
