<svg width="96" height="96" viewBox="0 0 96 96" fill="none" xmlns="http://www.w3.org/2000/svg">
<path d="M49.4943 2.55439e-05C47.2755 -0.00408122 45.0835 0.487053 43.0777 1.43777C41.0719 2.38848 39.3026 3.77491 37.8981 5.49642L8.47423 41.3203C6.64569 43.5142 5.48195 46.1872 5.12048 49.0227C4.75901 51.8586 5.21491 54.7386 6.43432 57.3232C7.65374 59.9075 9.5857 62.088 12.002 63.6074C14.4184 65.1264 17.2181 65.921 20.0704 65.8966H31.562V80.8733C31.5309 83.9856 32.468 87.0301 34.2432 89.584C36.0184 92.1379 38.5434 94.0742 41.4672 95.1235C44.3913 96.1725 47.5686 96.2829 50.5578 95.4387C53.5471 94.5945 56.1995 92.8381 58.1466 90.4131L87.5257 54.5296C89.3543 52.3354 90.5181 49.6627 90.8795 46.8269C91.241 43.991 90.785 41.111 89.5656 38.5267C88.3463 35.9424 86.4142 33.7616 83.9981 32.2426C81.5816 30.7232 78.782 29.9288 75.9295 29.953H64.438V14.9765C64.438 11.0045 62.8635 7.19517 60.0611 4.38653C57.2586 1.5779 53.4577 2.55439e-05 49.4943 2.55439e-05ZM75.9295 41.9341C76.5157 41.9114 77.0955 42.0618 77.5968 42.367C78.0981 42.672 78.4988 43.1184 78.7488 43.6499C78.9988 44.1818 79.0876 44.7754 79.0033 45.3571C78.9193 45.9389 78.6661 46.4829 78.2756 46.9213L48.9116 82.7603C48.4834 83.3005 47.8821 83.6758 47.2097 83.8233C46.5373 83.9705 45.8345 83.8806 45.2205 83.569C44.6965 83.3011 44.2588 82.8905 43.9573 82.3846C43.6559 81.8787 43.5033 81.2976 43.517 80.7085V57.944C43.517 56.8755 43.0933 55.8509 42.3395 55.0954C41.5856 54.3398 40.5632 53.9155 39.4971 53.9155H20.0704C19.4844 53.9382 18.9046 53.7878 18.4032 53.4826C17.9019 53.1776 17.5012 52.7315 17.2511 52.1997C17.0009 51.6682 16.9124 51.0742 16.9966 50.4928C17.0807 49.911 17.3338 49.3667 17.7243 48.9283L47.0884 13.0895C47.4671 12.5732 48.0009 12.1923 48.6117 12.0026C49.2225 11.8129 49.8777 11.8245 50.4812 12.0356C51.085 12.2468 51.6051 12.6464 51.9653 13.1757C52.3258 13.7051 52.5071 14.3362 52.4832 14.9765V37.9056C52.4832 38.9741 52.9066 39.9987 53.6604 40.7542C54.4143 41.5098 55.4367 41.9341 56.5028 41.9341H75.9295Z" fill="white"/>
</svg>
