<svg width="96" height="96" viewBox="0 0 96 96" fill="none" xmlns="http://www.w3.org/2000/svg">
<path d="M83.2349 62.2161H13.0127V69.9189H83.2349V62.2161Z" fill="#BAE573"/>
<path d="M24.89 80.9416L22.6146 86.9873H13L19.7386 69.9197L21.6238 71.1297C24.89 73.221 26.2448 77.3115 24.8769 80.9285L24.89 80.9416Z" fill="#BAE573"/>
<path d="M83.2342 86.9868H73.2424L71.0065 81.1559C69.5774 77.4294 71.0285 73.2206 74.4525 71.1773L76.5306 69.9324L83.2299 87V86.9868H83.2342Z" fill="#BAE573"/>
<path d="M76.5317 69.9233H66.7944L63.8788 62.2201L47.9551 20.0307H47.7973L31.9265 62.2158L29.0372 69.919H19.7471L22.7809 62.2158L39.8005 19.1101H47.6L43.7946 9H52.6375L73.5108 62.2158L76.536 69.919L76.5317 69.9233Z" fill="#BAE573"/>
</svg>
