<svg width="96" height="97" viewBox="0 0 96 97" fill="none" xmlns="http://www.w3.org/2000/svg">
<path d="M19.4701 76.4123C13.7492 76.4123 9.06199 75.0795 5.40834 72.4135C1.80278 69.7002 0 65.8443 0 60.8457C0 59.7984 0.120185 58.5131 0.360557 56.9898C0.98552 53.5624 1.87489 49.4447 3.02867 44.6367C6.29773 31.5456 14.7347 25 28.3398 25C32.0414 25 35.3586 25.6189 38.2911 26.8566C41.2237 28.0467 43.5311 29.8556 45.2138 32.2834C46.8963 34.6636 47.7376 37.5199 47.7376 40.8521C47.7376 41.8518 47.6176 43.1133 47.3772 44.6367C46.6559 48.8734 45.7906 52.9912 44.7812 56.9898C43.0984 63.5117 40.19 68.391 36.0557 71.6282C31.9211 74.8175 26.3928 76.4123 19.4701 76.4123ZM20.4796 66.1299C23.1718 66.1299 25.4553 65.3443 27.3303 63.7734C29.2531 62.2025 30.6232 59.7984 31.4404 56.5615C32.5463 52.0866 33.3874 48.1832 33.9645 44.8509C34.1568 43.8512 34.2529 42.8277 34.2529 41.7804C34.2529 37.4484 31.9692 35.2825 27.4023 35.2825C24.7101 35.2825 22.4026 36.0679 20.4796 37.6389C18.6047 39.2098 17.2586 41.6138 16.4414 44.8509C15.576 48.0403 14.7107 51.9439 13.8454 56.5615C13.6531 57.5134 13.5569 58.5131 13.5569 59.5604C13.5569 63.94 15.8645 66.1299 20.4796 66.1299Z" fill="#FEF2F2"/>
<path d="M48.4064 75.9842C47.8774 75.9842 47.4689 75.8176 47.1805 75.4844C46.9401 75.1035 46.8679 74.6752 46.9641 74.1991L56.9154 27.7852C57.0116 27.2615 57.2761 26.8331 57.7087 26.4999C58.1413 26.1666 58.5981 26 59.0789 26H78.2603C83.5966 26 87.8751 27.0949 91.0961 29.2847C94.3652 31.4745 95.9998 34.6401 95.9998 38.7817C95.9998 39.9718 95.8556 41.2095 95.5672 42.4948C94.3652 47.9692 91.9375 52.0155 88.2839 54.6339C84.6783 57.2521 79.7266 58.561 73.4288 58.561H63.6939L60.3768 74.1991C60.2806 74.7227 60.0161 75.151 59.5835 75.4844C59.1508 75.8176 58.6943 75.9842 58.2133 75.9842H48.4064ZM73.9337 48.7071C75.9529 48.7071 77.7076 48.1597 79.1978 47.0648C80.7363 45.9699 81.7458 44.3989 82.2265 42.352C82.3707 41.5427 82.4429 40.8287 82.4429 40.2098C82.4429 38.8293 82.0342 37.782 81.217 37.0679C80.3998 36.3063 79.0055 35.9254 77.0346 35.9254H68.3811L65.6409 48.7071H73.9337Z" fill="#FEF2F2"/>
</svg>
