<?xml version="1.0" encoding="UTF-8"?>
<svg id="Layer_2" data-name="Layer 2" xmlns="http://www.w3.org/2000/svg" viewBox="0 0 35.61 24.13">
  <defs>
    <style>
      .cls-1 {
        fill: #242327;
        stroke-width: 0px;
      }
    </style>
  </defs>
  <g id="Layer_1-2" data-name="Layer 1">
    <path class="cls-1" d="m8.06,21.66L1.66,14.42c-.74-.84-1.66-2.32-1.66-3.94s.93-3.1,1.66-3.94l3.61-4.08c1.38-1.55,2.96-2.47,4.7-2.47,1.38,0,2.56.49,3.45,1.3,1.01.93,1.64,2.25,1.72,3.68h2.13c.08-2.62,2.12-4.98,5.19-4.98,1.74,0,3.32.92,4.7,2.47l6.67,7.56c.85.96,1.79,2.31,1.79,3.92,0,1.49-.96,2.85-1.66,3.64l-3.61,4.08c-1.38,1.55-2.96,2.47-4.7,2.47-1.63,0-3.83-.93-4.74-3.38-1.03-.3-1.77-.77-2.56-1.69-.08,2.77-2.12,5.08-5.19,5.08-1.9,0-3.67-.85-5.09-2.47ZM2.85,13.38l3.61,4.08c1.12,1.26,2.29,1.93,3.51,1.93,2.21,0,3.61-1.68,3.61-3.51,0-1.15-.71-1.69-1.6-2.31-.21-.14-.36-.4-.36-.66,0-.43.35-.79.77-.79.17,0,.36.06.59.21.68.41,1.57,1.31,1.91,2.09h2.66c.35-.77,1.23-1.68,1.91-2.09.22-.14.41-.21.59-.21.43,0,.77.36.77.79,0,.27-.16.52-.36.66-.89.62-1.6,1.15-1.6,2.31,0,1.83,1.39,3.51,3.61,3.51,1.22,0,2.39-.66,3.51-1.93l3.61-4.08c.59-.66,1.26-1.8,1.26-2.89s-.68-2.23-1.26-2.89l-3.61-4.08c-1.12-1.26-2.29-1.93-3.51-1.93-2.21,0-3.61,1.68-3.61,3.51,0,1.15.71,1.69,1.6,2.31.21.14.36.4.36.66,0,.43-.35.79-.77.79-.17,0-.36-.06-.59-.21-.68-.41-1.57-1.31-1.91-2.09h-2.66c-.35.77-1.23,1.68-1.91,2.09-.22.14-.41.21-.59.21-.43,0-.77-.36-.77-.79,0-.27.16-.52.36-.66.89-.62,1.6-1.15,1.6-2.31,0-1.83-1.39-3.51-3.61-3.51-1.22,0-2.39.66-3.51,1.93l-3.61,4.08c-.59.66-1.26,1.8-1.26,2.89s.68,2.23,1.26,2.89Zm3.02-7.38l1.66-1.85c.35-.38.87-.44,1.2-.13.35.28.28.81,0,1.14l-1.66,1.88c-.33.36-.87.4-1.2.11-.35-.3-.28-.84,0-1.15Zm15.72-3.04c.11-.05.24-.06.35-.08.52-.03.9.3.92.79.02.36-.24.7-.6.77-.21.03-.27.14-.3.33-.03.35-.35.62-.73.63-.47.02-.82-.33-.84-.81,0-.77.52-1.41,1.2-1.64Z"/>
  </g>
</svg>