<svg width="12" height="14" viewBox="0 0 12 14" fill="none" xmlns="http://www.w3.org/2000/svg">
<g clip-path="url(#clip0_47_1288)">
<path d="M11.3999 5.58169C10.9719 5.19371 10.7291 4.75757 10.0928 4.70534C9.67771 4.67888 9.22936 4.70262 8.6969 4.69516C8.5687 4.69516 8.45542 4.69516 8.37267 4.69516C8.24312 4.69448 8.19224 4.69313 8.20581 4.65311C8.40455 4.33974 9.2999 3.11067 9.56647 2.72404C9.67568 2.57617 9.75504 2.42966 9.8093 2.24177C9.91037 1.89991 9.85678 1.49565 9.66007 1.19923C9.53052 0.997779 9.33856 0.850589 9.1717 0.681694C9.01095 0.520938 8.8685 0.338477 8.67655 0.212992C8.29399 -0.0400117 7.73982 -0.0664652 7.32199 0.13024C6.59893 0.590124 2.09302 5.03567 0.726256 6.26067C0.440016 6.51842 0.277225 6.68257 0.15988 7.03324C-0.0293641 7.63964 0.372865 8.20941 0.825965 8.58247C1.01724 8.76696 1.178 8.98809 1.40998 9.12443C1.75116 9.32724 2.06928 9.3191 2.4437 9.3157C2.75504 9.3157 3.21221 9.3157 3.50252 9.3157C3.61715 9.31706 3.8342 9.30485 3.80707 9.35437C3.58052 9.80136 3.15252 10.4776 2.8812 10.9612C2.71569 11.2631 2.56511 11.4388 2.48304 11.7542C2.30533 12.3728 2.72723 12.9303 3.1654 13.3197C3.375 13.5266 3.57306 13.7579 3.84438 13.8847C4.27509 14.1079 4.89573 13.9871 5.23217 13.6805C5.63847 13.2973 9.04486 9.9126 10.708 8.27859C11.1021 7.88925 11.3836 7.61183 11.4793 7.51687C11.56 7.43886 11.6278 7.35204 11.695 7.24284C12.0456 6.7158 11.8957 5.97782 11.4087 5.58983L11.3992 5.58101L11.3999 5.58169Z" fill="black"/>
<path d="M3.5907 12.3891C3.4001 12.3891 3.25156 12.2337 3.25156 12.0438C3.25156 11.9848 3.26919 11.9244 3.29836 11.8709L5.63034 7.87163C5.67578 7.79362 5.61948 7.69595 5.52927 7.69595H1.29332C1.15698 7.69595 1.02607 7.62337 0.965704 7.50128C0.895161 7.35748 0.932467 7.20351 1.04371 7.09566L7.60689 0.901471C7.67132 0.842459 7.75611 0.819397 7.84429 0.819397C8.05795 0.819397 8.18954 0.968622 8.18954 1.17075C8.18954 1.23519 8.17801 1.30777 8.13663 1.36678L5.31696 5.34159C5.26609 5.41349 5.31696 5.51252 5.40514 5.51252H9.86357C10.0542 5.51252 10.2149 5.65564 10.2149 5.85777C10.2149 5.94595 10.1797 6.04227 10.1091 6.1067L3.84846 12.2948C3.78402 12.3599 3.6877 12.3891 3.59342 12.3891H3.59138H3.5907Z" fill="#C4FF96"/>
</g>
<defs>
<clipPath id="clip0_47_1288">
<rect width="11.7752" height="14" fill="white" transform="translate(0.112396)"/>
</clipPath>
</defs>
</svg>
