<svg width="39" height="38" viewBox="0 0 39 38" fill="none" xmlns="http://www.w3.org/2000/svg">
<g clip-path="url(#clip0_841_5034)">
<path d="M1.09375 7.67915V32.0669C1.09375 32.952 1.74206 33.6003 2.62714 33.6003H29.952C30.8371 33.6003 31.1979 33.0027 31.4177 32.422L38.0756 14.1792C38.4702 13.1701 37.6133 12.285 36.6099 12.285H31.2824V10.0638C31.2824 9.17872 30.6341 8.53041 29.7491 8.53041H15.926V7.67915C15.926 6.79406 15.2776 6.14575 14.3926 6.14575H2.62714C1.74206 6.14575 1.09375 6.79406 1.09375 7.67915Z" fill="#CBCCBE"/>
<path d="M3.60243 31.5594L9.88258 14.3369H35.8432L29.563 31.5594H3.60243ZM1.09375 32.0724C1.09375 32.9575 1.74206 33.6058 2.62714 33.6058H29.952C30.8371 33.6058 31.1979 33.0082 31.4177 32.4276L38.0756 14.1847C38.4702 13.1756 37.6133 12.2905 36.6099 12.2905H31.2824V10.0693C31.2824 9.18425 30.6341 8.53593 29.7491 8.53593H15.926V7.68468C15.926 6.79959 15.2776 6.15128 14.3926 6.15128H2.62714C1.74206 6.14564 1.09375 6.79395 1.09375 7.67904V32.0668V32.0724ZM8.02221 13.4687L3.14015 26.8465V8.19205H13.8739V9.38719C13.8739 10.0524 14.4038 10.5823 15.0691 10.5823H29.236V12.2905H9.48796C8.60287 12.2905 8.24207 12.8881 8.02221 13.4687Z" fill="#AFAFAF"/>
</g>
<defs>
<clipPath id="clip0_841_5034">
<rect width="37.0833" height="27.4602" fill="white" transform="translate(1.09375 6.14575)"/>
</clipPath>
</defs>
</svg>
