<svg width="24" height="24" viewBox="0 0 24 24" fill="none" xmlns="http://www.w3.org/2000/svg">
<rect width="24" height="24" rx="12" fill="#FAFAFA"/>
<g clip-path="url(#clip0_905_121)">
<path d="M3 11.0225C3 10.7237 3.09356 10.4792 3.27767 10.286C3.46479 10.0929 3.72133 9.9782 4.0503 9.93293L5.61368 9.74882C5.69215 9.54057 5.78873 9.31422 5.89738 9.06371L4.91952 7.82025C4.70523 7.55164 4.5996 7.28605 4.5996 7.02649C4.5996 6.78202 4.68712 6.57377 4.86519 6.3957L6.3169 4.94399C6.53722 4.72367 6.79074 4.61502 7.0835 4.61502C7.32797 4.61502 7.57545 4.71462 7.83199 4.91683L9.07545 5.90375C9.37425 5.76492 9.6006 5.66532 9.75151 5.611L9.93561 4.03856C9.97183 3.70355 10.0835 3.44701 10.2676 3.26593C10.4547 3.08484 10.7052 2.99731 11.0221 2.99731H12.9779C13.2948 2.99731 13.5453 3.08786 13.7324 3.26593C13.9195 3.44701 14.0282 3.70355 14.0644 4.03856L14.2485 5.611C14.3994 5.66532 14.6258 5.7619 14.9245 5.90375L16.168 4.91683C16.4245 4.71462 16.672 4.61502 16.9165 4.61502C17.2093 4.61502 17.4658 4.72367 17.6831 4.94399L19.1348 6.3957C19.3099 6.57377 19.4004 6.78202 19.4004 7.02649C19.4004 7.28907 19.2948 7.55466 19.0805 7.82025L18.1026 9.06371C18.2113 9.31422 18.3078 9.54057 18.3863 9.74882L19.9497 9.93293C20.2787 9.97518 20.5352 10.0929 20.7223 10.286C20.9095 10.4792 21 10.7237 21 11.0225V12.9782C21 13.277 20.9064 13.5215 20.7223 13.7146C20.5352 13.9078 20.2787 14.0225 19.9497 14.0677L18.3954 14.2518C18.3531 14.3726 18.2565 14.6019 18.1026 14.937L19.0805 16.1804C19.2948 16.449 19.4004 16.7146 19.4004 16.9742C19.4004 17.2186 19.3129 17.4269 19.1348 17.605L17.6831 19.0567C17.4628 19.277 17.2093 19.3856 16.9165 19.3856C16.672 19.3856 16.4245 19.286 16.168 19.0838L14.9245 18.0969C14.6258 18.2357 14.3994 18.3353 14.2485 18.3897L14.0644 19.9621C14.0282 20.2971 13.9165 20.5537 13.7264 20.7347C13.5362 20.9158 13.2887 21.0034 12.9779 21.0034H11.0221C10.7113 21.0034 10.4608 20.9128 10.2736 20.7347C10.0835 20.5537 9.97183 20.2971 9.93561 19.9621L9.75151 18.3897C9.6006 18.3353 9.37425 18.2388 9.07545 18.0969L7.83199 19.0838C7.57545 19.286 7.32495 19.3856 7.0835 19.3856C6.79074 19.3856 6.53421 19.277 6.3169 19.0567L4.86519 17.605C4.68712 17.4299 4.5996 17.2186 4.5996 16.9742C4.5996 16.7116 4.70523 16.446 4.91952 16.1804L5.89738 14.937C5.74648 14.6019 5.64688 14.3726 5.60463 14.2518L4.0503 14.0677C3.72133 14.0255 3.46479 13.9078 3.27767 13.7146C3.09054 13.5215 3 13.277 3 12.9782L3 11.0225ZM4.20724 12.9963L6.07243 13.2166C6.18109 13.2287 6.27767 13.271 6.35916 13.3434C6.44064 13.4158 6.49799 13.5064 6.52817 13.609C6.61871 13.938 6.77867 14.3122 7.00201 14.7317C7.04427 14.8102 7.06539 14.8947 7.06539 14.9883C7.06539 15.115 7.02616 15.2297 6.94769 15.3263L5.80684 16.7871C5.77062 16.8293 5.75252 16.8716 5.75252 16.9138C5.75252 16.95 5.77062 16.9862 5.80684 17.0225L7.00503 18.2207C7.02918 18.2448 7.05634 18.2569 7.08652 18.2569C7.12274 18.2569 7.15594 18.2448 7.18612 18.2207L8.6831 17.0406C8.79175 16.9621 8.90342 16.9229 9.01207 16.9229C9.10262 16.9229 9.19316 16.947 9.27767 16.9953C9.59457 17.1794 9.9658 17.3333 10.3913 17.4601C10.5 17.4842 10.5905 17.5386 10.66 17.6201C10.7294 17.7015 10.7716 17.7981 10.7837 17.9068L11.004 19.7991C11.0221 19.8836 11.0734 19.9259 11.1579 19.9259H12.839C12.9235 19.9259 12.9748 19.8836 12.993 19.7991L13.2133 17.9068C13.2254 17.7981 13.2676 17.7015 13.337 17.6201C13.4064 17.5386 13.497 17.4842 13.6056 17.4601C14.0312 17.3333 14.4024 17.1764 14.7193 16.9953C14.8038 16.947 14.8944 16.9229 14.9849 16.9229C15.0936 16.9229 15.2052 16.9621 15.3139 17.0406L16.8109 18.2207C16.841 18.2448 16.8742 18.2569 16.9105 18.2569C16.9467 18.2569 16.9738 18.2448 16.992 18.2207L18.1901 17.0225C18.2264 16.9862 18.2445 16.95 18.2445 16.9138C18.2445 16.8716 18.2264 16.8293 18.1901 16.7871L17.0493 15.3263C16.9708 15.2297 16.9316 15.115 16.9316 14.9883C16.9316 14.8977 16.9527 14.8132 16.995 14.7317C17.2213 14.3122 17.3783 13.938 17.4688 13.609C17.499 13.5064 17.5563 13.4158 17.6378 13.3434C17.7193 13.271 17.8159 13.2287 17.9245 13.2166L19.7897 12.9963C19.8803 12.9782 19.9256 12.9299 19.9256 12.8514V11.1522C19.9256 11.0677 19.8833 11.0164 19.7988 10.9983L17.9155 10.778C17.8068 10.7659 17.7103 10.7237 17.6288 10.6543C17.5473 10.5848 17.4899 10.4973 17.4598 10.3947C17.3632 10.0355 17.2062 9.6613 16.995 9.27196C16.9527 9.19349 16.9316 9.10898 16.9316 9.01542C16.9316 8.88866 16.9708 8.77397 17.0493 8.6774L18.1901 7.21663C18.2264 7.16834 18.2445 7.12609 18.2445 7.08987C18.2445 7.05365 18.2264 7.01744 18.1901 6.98122L16.992 5.78303C16.9618 5.75285 16.9346 5.73776 16.9105 5.73776C16.8863 5.73776 16.8531 5.75285 16.8109 5.78303L15.3139 6.96311C15.2052 7.04158 15.0936 7.08082 14.9849 7.08082C14.8944 7.08082 14.8038 7.05667 14.7193 7.00838C14.4024 6.82428 14.0312 6.67035 13.6056 6.54359C13.497 6.51341 13.4064 6.45607 13.337 6.37458C13.2676 6.29309 13.2254 6.19953 13.2133 6.09691L12.993 4.20456C12.9748 4.12005 12.9235 4.0778 12.839 4.0778H11.1579C11.0734 4.0778 11.0221 4.12005 11.004 4.20456L10.7837 6.09691C10.7716 6.19953 10.7294 6.29309 10.66 6.37458C10.5905 6.45607 10.5 6.51341 10.3913 6.54359C9.9658 6.67035 9.59457 6.82729 9.27767 7.00838C9.19316 7.05667 9.10262 7.08082 9.01207 7.08082C8.90342 7.08082 8.79175 7.04158 8.6831 6.96311L7.18612 5.78303C7.14386 5.75285 7.11066 5.73776 7.08652 5.73776C7.06237 5.73776 7.03521 5.75285 7.00503 5.78303L5.80684 6.98122C5.77062 7.01744 5.75252 7.05365 5.75252 7.08987C5.75252 7.12609 5.77062 7.16834 5.80684 7.21663L6.94769 8.6774C7.02616 8.77397 7.06539 8.88866 7.06539 9.01542C7.06539 9.10597 7.04427 9.19349 7.00201 9.27196C6.79376 9.6613 6.63984 10.0355 6.53722 10.3947C6.50704 10.4973 6.4497 10.5848 6.36821 10.6543C6.28672 10.7237 6.19014 10.7659 6.08149 10.778L4.19819 10.9983C4.11368 11.0164 4.07143 11.0677 4.07143 11.1522V12.8514C4.07143 12.9299 4.1167 12.9782 4.20724 12.9963ZM10.0865 10.8897C10.2857 10.5516 10.5513 10.283 10.8893 10.0869C11.2274 9.88766 11.5956 9.79108 11.9909 9.79108C12.3863 9.79108 12.7545 9.89068 13.0956 10.0869C13.4366 10.286 13.7052 10.5516 13.9044 10.8897C14.1036 11.2277 14.2002 11.5959 14.2002 11.9913C14.2002 12.3867 14.1006 12.7549 13.9044 13.0959C13.7052 13.437 13.4366 13.7056 13.0956 13.9048C12.7545 14.104 12.3863 14.2005 11.9909 14.2005C11.5956 14.2005 11.2274 14.1009 10.8893 13.9048C10.5513 13.7056 10.2827 13.437 10.0865 13.0959C9.88732 12.7549 9.79074 12.3867 9.79074 11.9913C9.79074 11.5959 9.89034 11.2277 10.0865 10.8897ZM11.0131 12.5617C11.1157 12.7368 11.2545 12.8726 11.4296 12.9782C11.6046 13.0808 11.7918 13.1321 11.9909 13.1321C12.3078 13.1321 12.5765 13.0205 12.7998 12.8001C13.0231 12.5798 13.1318 12.3082 13.1318 11.9913C13.1318 11.7891 13.0805 11.6019 12.9779 11.4299C12.8753 11.2549 12.7364 11.119 12.5614 11.0134C12.3863 10.9108 12.1962 10.8595 11.9909 10.8595C11.7857 10.8595 11.6016 10.9108 11.4296 11.0134C11.2545 11.116 11.1187 11.2549 11.0131 11.4299C10.9105 11.605 10.8592 11.7921 10.8592 11.9913C10.8592 12.1905 10.9105 12.3897 11.0131 12.5617Z" fill="#18181B"/>
</g>
<defs>
<clipPath id="clip0_905_121">
<rect width="18" height="18" fill="white" transform="translate(3 3)"/>
</clipPath>
</defs>
</svg>
