<svg width="40" height="40" viewBox="0 0 40 40" fill="none" xmlns="http://www.w3.org/2000/svg">
<rect width="40" height="40" rx="20" fill="#F3ABAB"/>
<path d="M15.148 27C14.6337 27 14.1813 26.8861 13.7906 26.6582C13.4065 26.4303 13.1103 26.1146 12.902 25.7109C12.6936 25.3008 12.5895 24.8288 12.5895 24.2949V15.4863C12.5895 14.9525 12.6936 14.4837 12.902 14.0801C13.1103 13.6699 13.4065 13.3542 13.7906 13.1328C14.1813 12.9049 14.6337 12.791 15.148 12.791C15.6624 12.791 16.1116 12.9049 16.4957 13.1328C16.8863 13.3542 17.1858 13.6699 17.3941 14.0801C17.6025 14.4837 17.7066 14.9525 17.7066 15.4863V21.2285C17.4072 21.2285 17.0979 21.2546 16.7789 21.3066C16.4664 21.3522 16.1962 21.4141 15.9684 21.4922C15.8642 21.5247 15.7763 21.5833 15.7047 21.668C15.6331 21.7461 15.5973 21.847 15.5973 21.9707C15.5973 22.1074 15.6428 22.2214 15.734 22.3125C15.8316 22.4036 15.9456 22.4492 16.0758 22.4492C16.1539 22.4492 16.2776 22.4232 16.4469 22.3711C16.8115 22.2539 17.3388 22.1953 18.0289 22.1953C18.8948 22.1953 19.5914 22.3841 20.1188 22.7617C20.6461 23.1393 20.9098 23.7383 20.9098 24.5586C20.9098 25.0469 20.8154 25.4766 20.6266 25.8477C20.4378 26.2122 20.1708 26.4954 19.8258 26.6973C19.4872 26.8991 19.0966 27 18.6539 27H15.148ZM13.4293 15.0078C13.4293 15.1771 13.4781 15.304 13.5758 15.3887C13.6799 15.4733 13.7906 15.5156 13.9078 15.5156C14.051 15.5156 14.165 15.4733 14.2496 15.3887C14.3342 15.2975 14.3896 15.1836 14.4156 15.0469C14.4677 14.7995 14.6207 14.653 14.8746 14.6074C15.0048 14.5814 15.1122 14.5228 15.1969 14.4316C15.2815 14.3405 15.3238 14.2363 15.3238 14.1191C15.3238 13.9824 15.275 13.8652 15.1773 13.7676C15.0862 13.6699 14.9658 13.6211 14.816 13.6211C14.7574 13.6211 14.6826 13.6276 14.5914 13.6406C14.3115 13.6992 14.0641 13.8424 13.8492 14.0703C13.6409 14.2982 13.5074 14.5423 13.4488 14.8027C13.4358 14.8939 13.4293 14.9622 13.4293 15.0078ZM24.8422 27.1465C24.3279 27.1465 23.8754 27.0326 23.4848 26.8047C23.1007 26.5768 22.8044 26.2611 22.5961 25.8574C22.3878 25.4473 22.2836 24.9753 22.2836 24.4414V21.2773C22.7068 21.2578 23.1332 21.1211 23.5629 20.8672C23.9926 20.6133 24.3474 20.2715 24.6273 19.8418C24.9073 19.4056 25.0473 18.9303 25.0473 18.416C25.0473 18.084 24.9691 17.7617 24.8129 17.4492C24.6632 17.1302 24.4613 16.8438 24.2074 16.5898C24.0967 16.4792 23.973 16.4238 23.8363 16.4238C23.7061 16.4238 23.5922 16.4694 23.4945 16.5605C23.4034 16.6517 23.3578 16.7656 23.3578 16.9023C23.3578 17.0391 23.4197 17.1693 23.5434 17.293C23.7191 17.4753 23.8493 17.6641 23.934 17.8594C24.0251 18.0547 24.0707 18.2402 24.0707 18.416C24.0707 18.7676 23.9796 19.0898 23.7973 19.3828C23.615 19.6758 23.3546 19.9102 23.016 20.0859C22.684 20.2552 22.2934 20.3398 21.8441 20.3398C21.3103 20.3398 20.8773 20.2194 20.5453 19.9785C20.2198 19.7311 19.9887 19.4316 19.852 19.0801C19.7152 18.722 19.6469 18.3639 19.6469 18.0059C19.6469 17.5241 19.7738 17.0456 20.0277 16.5703C20.2816 16.0951 20.7146 15.4961 21.3266 14.7734C21.8734 14.1354 22.4138 13.6471 22.9477 13.3086C23.4815 12.9635 24.087 12.791 24.7641 12.791C25.2784 12.791 25.7341 12.9049 26.1312 13.1328C26.5284 13.3607 26.8376 13.6797 27.059 14.0898C27.2868 14.4935 27.4008 14.959 27.4008 15.4863V24.4414C27.4008 24.9753 27.2966 25.4473 27.0883 25.8574C26.8799 26.2611 26.5805 26.5768 26.1898 26.8047C25.8057 27.0326 25.3565 27.1465 24.8422 27.1465ZM21.9516 15.2617C21.8539 15.3789 21.8051 15.5026 21.8051 15.6328C21.8051 15.7695 21.8572 15.89 21.9613 15.9941C22.0395 16.0723 22.1404 16.1113 22.2641 16.1113C22.4268 16.1113 22.5668 16.043 22.684 15.9062C23.1202 15.3724 23.5629 14.985 24.0121 14.7441C24.1033 14.6986 24.1749 14.6367 24.227 14.5586C24.279 14.474 24.3051 14.3861 24.3051 14.2949C24.3051 14.1908 24.2758 14.0996 24.2172 14.0215C24.113 13.8913 23.9828 13.8262 23.8266 13.8262C23.7029 13.8262 23.5857 13.8587 23.475 13.9238C22.9737 14.1973 22.4659 14.6432 21.9516 15.2617Z" fill="white"/>
</svg>
