<svg width="40" height="40" viewBox="0 0 40 40" fill="none" xmlns="http://www.w3.org/2000/svg">
<rect width="40" height="40" rx="20" fill="#C4ABF3"/>
<path d="M13.5664 27C13.0521 27 12.5996 26.8861 12.209 26.6582C11.8249 26.4303 11.5286 26.1146 11.3203 25.7109C11.112 25.3008 11.0078 24.8288 11.0078 24.2949V15.4863C11.0078 14.9525 11.112 14.4837 11.3203 14.0801C11.5286 13.6699 11.8249 13.3542 12.209 13.1328C12.5996 12.9049 13.0521 12.791 13.5664 12.791C14.0807 12.791 14.5299 12.9049 14.9141 13.1328C15.3047 13.3542 15.6042 13.6699 15.8125 14.0801C16.0208 14.4837 16.125 14.9525 16.125 15.4863V21.2285C15.8255 21.2285 15.5163 21.2546 15.1973 21.3066C14.8848 21.3522 14.6146 21.4141 14.3867 21.4922C14.2826 21.5247 14.1947 21.5833 14.123 21.668C14.0514 21.7461 14.0156 21.847 14.0156 21.9707C14.0156 22.1074 14.0612 22.2214 14.1523 22.3125C14.25 22.4036 14.3639 22.4492 14.4941 22.4492C14.5723 22.4492 14.696 22.4232 14.8652 22.3711C15.2298 22.2539 15.7572 22.1953 16.4473 22.1953C17.3132 22.1953 18.0098 22.3841 18.5371 22.7617C19.0645 23.1393 19.3281 23.7383 19.3281 24.5586C19.3281 25.0469 19.2337 25.4766 19.0449 25.8477C18.8561 26.2122 18.5892 26.4954 18.2441 26.6973C17.9056 26.8991 17.515 27 17.0723 27H13.5664ZM11.8477 15.0078C11.8477 15.1771 11.8965 15.304 11.9941 15.3887C12.0983 15.4733 12.209 15.5156 12.3262 15.5156C12.4694 15.5156 12.5833 15.4733 12.668 15.3887C12.7526 15.2975 12.8079 15.1836 12.834 15.0469C12.8861 14.7995 13.0391 14.653 13.293 14.6074C13.4232 14.5814 13.5306 14.5228 13.6152 14.4316C13.6999 14.3405 13.7422 14.2363 13.7422 14.1191C13.7422 13.9824 13.6934 13.8652 13.5957 13.7676C13.5046 13.6699 13.3841 13.6211 13.2344 13.6211C13.1758 13.6211 13.1009 13.6276 13.0098 13.6406C12.7298 13.6992 12.4824 13.8424 12.2676 14.0703C12.0592 14.2982 11.9258 14.5423 11.8672 14.8027C11.8542 14.8939 11.8477 14.9622 11.8477 15.0078ZM22.3848 27C21.9876 27 21.6328 26.8991 21.3203 26.6973C21.0078 26.4889 20.7637 26.1992 20.5879 25.8281C20.4121 25.457 20.3242 25.0339 20.3242 24.5586C20.3242 23.7188 20.8809 22.638 21.9941 21.3164C22.3783 21.4076 22.7396 21.4531 23.0781 21.4531C23.6706 21.4531 24.2012 21.3327 24.6699 21.0918C25.1387 20.8509 25.5065 20.5091 25.7734 20.0664C26.0404 19.6237 26.1738 19.1094 26.1738 18.5234C26.1738 18.1784 26.0924 17.8366 25.9297 17.498C25.7669 17.153 25.5944 16.9089 25.4121 16.7656C25.3014 16.681 25.1875 16.6387 25.0703 16.6387C24.9401 16.6387 24.8262 16.6875 24.7285 16.7852C24.6374 16.8763 24.5918 16.987 24.5918 17.1172C24.5918 17.2018 24.6243 17.2897 24.6895 17.3809C24.7546 17.4655 24.7904 17.5143 24.7969 17.5273C25.0638 17.918 25.1973 18.2467 25.1973 18.5137C25.1973 19.1517 25.0085 19.64 24.6309 19.9785C24.2598 20.3105 23.7389 20.4766 23.0684 20.4766C22.4954 20.4766 21.9844 20.3496 21.5352 20.0957C21.0859 19.8353 20.7344 19.474 20.4805 19.0117C20.2331 18.5495 20.1094 18.0221 20.1094 17.4297C20.1094 16.4922 20.3112 15.6719 20.7148 14.9688C21.1185 14.2591 21.6882 13.7122 22.4238 13.3281C23.166 12.9375 24.0254 12.7422 25.002 12.7422C25.9655 12.7422 26.8118 12.9408 27.541 13.3379C28.2767 13.7285 28.8398 14.2428 29.2305 14.8809C29.6211 15.5124 29.8164 16.1764 29.8164 16.873C29.8164 17.4329 29.748 17.9408 29.6113 18.3965C29.4746 18.8457 29.2793 19.2852 29.0254 19.7148C28.778 20.138 28.3939 20.7402 27.873 21.5215L27.6289 21.8828C27.1927 22.5404 26.7467 23.0124 26.291 23.2988C26.1217 23.403 26.0371 23.5462 26.0371 23.7285C26.0371 23.8587 26.0859 23.9694 26.1836 24.0605C26.2812 24.1517 26.3952 24.1973 26.5254 24.1973C26.6035 24.1973 26.6719 24.1842 26.7305 24.1582C26.7956 24.1257 26.877 24.0801 26.9746 24.0215C27.1634 23.9108 27.4141 23.6895 27.7266 23.3574C28.0456 23.0189 28.319 22.651 28.5469 22.2539C29.0938 22.3841 29.5202 22.6608 29.8262 23.084C30.1322 23.5072 30.2852 24.0052 30.2852 24.5781C30.2852 25.0469 30.1875 25.4668 29.9922 25.8379C29.7969 26.2025 29.5234 26.4889 29.1719 26.6973C28.8268 26.8991 28.4329 27 27.9902 27H22.3848ZM21.1738 15.9551C21.1738 16.0918 21.2194 16.2057 21.3105 16.2969C21.4082 16.3815 21.5221 16.4238 21.6523 16.4238C21.776 16.4238 21.8737 16.388 21.9453 16.3164C22.0234 16.2448 22.0918 16.1471 22.1504 16.0234C22.4499 15.3398 22.9935 14.8939 23.7812 14.6855C23.918 14.6465 24.0254 14.5879 24.1035 14.5098C24.1882 14.4251 24.2305 14.321 24.2305 14.1973C24.2305 14.054 24.1849 13.9434 24.0938 13.8652C24.0026 13.7806 23.8822 13.735 23.7324 13.7285C23.5957 13.7285 23.4655 13.748 23.3418 13.7871C22.9056 13.9303 22.4987 14.1582 22.1211 14.4707C21.75 14.7767 21.4701 15.1348 21.2812 15.5449C21.2096 15.7077 21.1738 15.8444 21.1738 15.9551Z" fill="white"/>
</svg>
