<svg width="40" height="40" viewBox="0 0 40 40" fill="none" xmlns="http://www.w3.org/2000/svg">
<rect width="40" height="40" rx="20" fill="#1C4ADD"/>
<path d="M13.1641 27C12.6497 27 12.1973 26.8861 11.8066 26.6582C11.4225 26.4303 11.1263 26.1146 10.918 25.7109C10.7096 25.3008 10.6055 24.8288 10.6055 24.2949V15.4863C10.6055 14.9525 10.7096 14.4837 10.918 14.0801C11.1263 13.6699 11.4225 13.3542 11.8066 13.1328C12.1973 12.9049 12.6497 12.791 13.1641 12.791C13.6784 12.791 14.1276 12.9049 14.5117 13.1328C14.9023 13.3542 15.2018 13.6699 15.4102 14.0801C15.6185 14.4837 15.7227 14.9525 15.7227 15.4863V21.2285C15.4232 21.2285 15.1139 21.2546 14.7949 21.3066C14.4824 21.3522 14.2122 21.4141 13.9844 21.4922C13.8802 21.5247 13.7923 21.5833 13.7207 21.668C13.6491 21.7461 13.6133 21.847 13.6133 21.9707C13.6133 22.1074 13.6589 22.2214 13.75 22.3125C13.8477 22.4036 13.9616 22.4492 14.0918 22.4492C14.1699 22.4492 14.2936 22.4232 14.4629 22.3711C14.8275 22.2539 15.3548 22.1953 16.0449 22.1953C16.9108 22.1953 17.6074 22.3841 18.1348 22.7617C18.6621 23.1393 18.9258 23.7383 18.9258 24.5586C18.9258 25.0469 18.8314 25.4766 18.6426 25.8477C18.4538 26.2122 18.1868 26.4954 17.8418 26.6973C17.5033 26.8991 17.1126 27 16.6699 27H13.1641ZM11.4453 15.0078C11.4453 15.1771 11.4941 15.304 11.5918 15.3887C11.696 15.4733 11.8066 15.5156 11.9238 15.5156C12.0671 15.5156 12.181 15.4733 12.2656 15.3887C12.3503 15.2975 12.4056 15.1836 12.4316 15.0469C12.4837 14.7995 12.6367 14.653 12.8906 14.6074C13.0208 14.5814 13.1283 14.5228 13.2129 14.4316C13.2975 14.3405 13.3398 14.2363 13.3398 14.1191C13.3398 13.9824 13.291 13.8652 13.1934 13.7676C13.1022 13.6699 12.9818 13.6211 12.832 13.6211C12.7734 13.6211 12.6986 13.6276 12.6074 13.6406C12.3275 13.6992 12.0801 13.8424 11.8652 14.0703C11.6569 14.2982 11.5234 14.5423 11.4648 14.8027C11.4518 14.8939 11.4453 14.9622 11.4453 15.0078ZM24.502 27.1953C23.5254 27.1953 22.666 27.026 21.9238 26.6875C21.1882 26.3424 20.6185 25.8607 20.2148 25.2422C19.8112 24.6172 19.6094 23.8945 19.6094 23.0742C19.6094 22.5208 19.7233 22.0293 19.9512 21.5996C20.179 21.1634 20.498 20.8249 20.9082 20.584C21.3184 20.3431 21.7871 20.2227 22.3145 20.2227C22.985 20.2227 23.5059 20.3919 23.877 20.7305C24.2546 21.0625 24.4434 21.5475 24.4434 22.1855C24.4434 22.3548 24.401 22.5339 24.3164 22.7227C24.2318 22.9115 24.1406 23.0612 24.043 23.1719C23.9062 23.3216 23.8379 23.4551 23.8379 23.5723C23.8379 23.7025 23.8835 23.8164 23.9746 23.9141C24.0723 24.0117 24.1862 24.0605 24.3164 24.0605C24.4336 24.0605 24.5475 24.0182 24.6582 23.9336C24.8405 23.7904 25.013 23.5495 25.1758 23.2109C25.3385 22.8659 25.4199 22.5208 25.4199 22.1758C25.4199 21.5898 25.2865 21.0755 25.0195 20.6328C24.7526 20.1901 24.3848 19.8483 23.916 19.6074C23.4473 19.3665 22.9167 19.2461 22.3242 19.2461C22.0247 19.2461 21.6797 19.2884 21.2891 19.373V19.3438C21.2891 19.1615 21.3477 18.9824 21.4648 18.8066C21.5885 18.6243 21.7741 18.4648 22.0215 18.3281C22.2754 18.1849 22.5846 18.084 22.9492 18.0254C23.2943 17.9733 23.584 17.918 23.8184 17.8594C24.0527 17.7943 24.2806 17.7064 24.502 17.5957C24.5996 17.5436 24.6745 17.4785 24.7266 17.4004C24.7852 17.3158 24.8145 17.2246 24.8145 17.127C24.8145 16.9967 24.7656 16.8861 24.668 16.7949C24.5768 16.6973 24.4661 16.6484 24.3359 16.6484C24.2904 16.6484 24.235 16.6582 24.1699 16.6777C24.1113 16.6973 24.0658 16.7168 24.0332 16.7363C23.8509 16.834 23.6198 16.9154 23.3398 16.9805C23.0599 17.0391 22.7865 17.0684 22.5195 17.0684H21.4551C20.8757 17.0684 20.4134 16.9154 20.0684 16.6094C19.7298 16.3034 19.5605 15.8867 19.5605 15.3594C19.5605 14.8906 19.6582 14.474 19.8535 14.1094C20.0488 13.7383 20.319 13.4518 20.6641 13.25C21.0156 13.0417 21.4128 12.9375 21.8555 12.9375H26.8359C27.7409 12.9375 28.4147 13.1328 28.8574 13.5234C29.3066 13.9141 29.5312 14.5065 29.5312 15.3008C29.5312 15.9583 29.1471 16.8079 28.3789 17.8496C28.099 18.2272 27.8743 18.5104 27.7051 18.6992C27.5358 18.8815 27.3079 19.0866 27.0215 19.3145C26.8717 19.4316 26.7969 19.5684 26.7969 19.7246C26.7969 19.8548 26.8424 19.9688 26.9336 20.0664C27.0247 20.1576 27.1354 20.2031 27.2656 20.2031C27.3958 20.2031 27.5358 20.1478 27.6855 20.0371C27.9525 19.8223 28.1966 19.5911 28.418 19.3438C28.724 19.7279 28.9681 20.1934 29.1504 20.7402C29.3327 21.2871 29.4238 21.8535 29.4238 22.4395C29.4238 23.2598 29.222 24.0345 28.8184 24.7637C28.4212 25.4928 27.8483 26.082 27.0996 26.5312C26.3574 26.974 25.4915 27.1953 24.502 27.1953ZM20.3516 15.1152C20.3516 15.2845 20.4004 15.4115 20.498 15.4961C20.6022 15.5807 20.7129 15.623 20.8301 15.623C20.9733 15.623 21.0872 15.5807 21.1719 15.4961C21.2565 15.4049 21.3118 15.291 21.3379 15.1543C21.39 14.9069 21.543 14.7604 21.7969 14.7148C21.9271 14.6888 22.0345 14.6302 22.1191 14.5391C22.2038 14.4479 22.2461 14.3438 22.2461 14.2266C22.2461 14.0898 22.1973 13.9727 22.0996 13.875C22.0085 13.7773 21.888 13.7285 21.7383 13.7285C21.6797 13.7285 21.6048 13.735 21.5137 13.748C21.2337 13.8066 20.9863 13.9499 20.7715 14.1777C20.5632 14.4056 20.4297 14.6497 20.3711 14.9102C20.3581 15.0013 20.3516 15.0697 20.3516 15.1152Z" fill="white"/>
</svg>
