<svg width="24" height="24" viewBox="0 0 24 24" fill="none" xmlns="http://www.w3.org/2000/svg">
<g clip-path="url(#clip0_348_4866)">
<path d="M17.3309 11.9927C17.3309 11.4875 17.6404 11.1692 18.1339 11.1692H19.1765C19.6729 11.1692 20 11.4962 20 11.9927C20 12.4891 19.6729 12.8337 19.1765 12.8337H18.1339C17.6375 12.8337 17.3309 12.5154 17.3309 11.9927ZM15.5174 7.65321C15.5174 7.41375 15.5787 7.2473 15.7569 7.06917L16.5074 6.33619C16.6651 6.15805 16.8344 6.09673 17.0739 6.09673C17.3133 6.09673 17.471 6.15805 17.6492 6.34495C17.8448 6.53184 17.9062 6.68954 17.9062 6.92899C17.9062 7.16845 17.8448 7.33491 17.6667 7.51304L16.9337 8.23726C16.7556 8.41539 16.5891 8.47672 16.3497 8.47672C16.1102 8.47672 15.9438 8.41539 15.7569 8.2285C15.57 8.0416 15.5174 7.88391 15.5174 7.65321ZM15.5174 16.3526C15.5174 16.1131 15.5875 15.9379 15.7744 15.7598C15.9438 15.5816 16.1102 15.5203 16.3497 15.5203C16.5891 15.5203 16.7556 15.5816 16.9337 15.7598L17.6667 16.4928C17.8448 16.6709 17.9062 16.8373 17.9062 17.0768C17.9062 17.3163 17.8448 17.474 17.6667 17.6521C17.471 17.839 17.3046 17.9091 17.0651 17.9091C16.8257 17.9091 16.668 17.8477 16.5074 17.6696L15.7569 16.9366C15.5787 16.7585 15.5174 16.592 15.5174 16.3526ZM11.1692 5.86603V4.82351C11.1692 4.32707 11.4962 4 11.9927 4C12.4891 4 12.8249 4.31831 12.8249 4.82351V5.86603C12.8249 6.36247 12.5066 6.68077 11.9927 6.68077C11.4787 6.68077 11.1692 6.36247 11.1692 5.86603ZM11.1692 19.1794V18.1369C11.1692 17.6404 11.4875 17.3338 11.9927 17.3338C12.4979 17.3338 12.8249 17.6433 12.8249 18.1369V19.1794C12.8249 19.6846 12.5066 20.0029 11.9927 20.0029C11.4787 20.0029 11.1692 19.6758 11.1692 19.1794ZM9.46376 12.0014C9.46376 13.4061 10.5968 14.5391 12.0014 14.5391C13.4061 14.5391 14.5391 13.4061 14.5391 12.0014C14.5391 10.5968 13.4061 9.46376 12.0014 9.46376C10.5968 9.46376 9.46376 10.5968 9.46376 12.0014ZM8.30442 12.0014C8.30442 9.90763 9.90471 8.30735 11.9985 8.30735C14.0923 8.30735 15.7014 9.90763 15.7014 12.0014C15.7014 14.0952 14.1011 15.6955 11.9985 15.6955C9.89595 15.6955 8.30442 14.0952 8.30442 12.0014ZM6.09381 6.92607C6.09381 6.68662 6.15513 6.52892 6.35079 6.34203C6.52892 6.15513 6.69538 6.09381 6.92607 6.09381C7.15677 6.09381 7.32323 6.16389 7.50136 6.34203L8.2431 7.06625C8.42123 7.24438 8.48256 7.41083 8.48256 7.65029C8.48256 7.88975 8.42123 8.04744 8.2431 8.22558C8.0562 8.41247 7.88975 8.4738 7.65029 8.4738C7.41083 8.4738 7.24438 8.41247 7.06625 8.2431L6.33327 7.51012C6.15513 7.33199 6.09381 7.16553 6.09381 6.92607ZM6.09381 17.0739C6.09381 16.8344 6.15513 16.668 6.33327 16.4898L7.06625 15.7569C7.24438 15.5787 7.41083 15.5174 7.65029 15.5174C7.88975 15.5174 8.0562 15.5787 8.22558 15.7569C8.41247 15.935 8.48256 16.1102 8.48256 16.3497C8.48256 16.5891 8.42123 16.7556 8.2431 16.9337L7.50136 17.6579C7.32323 17.8361 7.15677 17.9062 6.93484 17.9062C6.69538 17.9062 6.52892 17.8361 6.33327 17.6492C6.15513 17.471 6.09381 17.3046 6.09381 17.0739ZM4 11.9927C4 11.4962 4.32707 11.1692 4.82351 11.1692H5.86603C6.36247 11.1692 6.66909 11.4875 6.66909 11.9927C6.66909 12.4979 6.35955 12.8337 5.86603 12.8337H4.82351C4.32707 12.8337 4 12.5066 4 11.9927Z" fill="black"/>
</g>
<defs>
<clipPath id="clip0_348_4866">
<rect width="16" height="16" fill="white" transform="translate(4 4)"/>
</clipPath>
</defs>
</svg>
