<svg width="27" height="17" viewBox="0 0 27 17" fill="none" xmlns="http://www.w3.org/2000/svg">
<path d="M3.38897 -1.48137e-07C1.40166 -6.12685e-08 2.36626e-07 1.41337 3.26054e-07 3.45925L5.60035e-07 12.8121C6.49975e-07 14.8697 1.40166 16.2714 3.38897 16.2714C5.37628 16.2714 6.79356 14.8697 6.79356 12.8121L6.79356 3.45925C6.79356 1.41337 5.3958 -2.35858e-07 3.38897 -1.48137e-07ZM3.58028 1.31967C3.58028 1.55393 3.4163 1.70229 3.15471 1.74524C2.37384 1.84285 1.85066 2.32308 1.74134 3.11957C1.69839 3.35383 1.52269 3.52953 1.31576 3.51781C1.09712 3.51781 0.917521 3.3265 0.917521 3.06491C0.917521 3.01025 0.917521 2.91264 0.933138 2.84627C1.11274 1.84285 1.90922 1.10493 2.93607 0.937042C3.01806 0.921425 3.08834 0.921425 3.15471 0.921425C3.44363 0.921425 3.58028 1.15569 3.58028 1.31967Z" fill="#A1A1AA"/>
<path d="M13.389 -1.48137e-07C11.4017 -6.12685e-08 10 1.41337 10 3.45925L10 12.8121C10 14.8697 11.4017 16.2714 13.389 16.2714C15.3763 16.2714 16.7936 14.8697 16.7936 12.8121L16.7936 3.45925C16.7936 1.41337 15.3958 -2.35858e-07 13.389 -1.48137e-07ZM13.5803 1.31967C13.5803 1.55393 13.4163 1.70229 13.1547 1.74524C12.3738 1.84285 11.8507 2.32308 11.7413 3.11957C11.6984 3.35383 11.5227 3.52953 11.3158 3.51781C11.0971 3.51781 10.9175 3.3265 10.9175 3.06491C10.9175 3.01025 10.9175 2.91264 10.9331 2.84627C11.1127 1.84285 11.9092 1.10493 12.9361 0.937042C13.0181 0.921425 13.0883 0.921425 13.1547 0.921425C13.4436 0.921425 13.5803 1.15569 13.5803 1.31967Z" fill="#A1A1AA"/>
<path d="M23.389 -1.48137e-07C21.4017 -6.12685e-08 20 1.41337 20 3.45925L20 12.8121C20 14.8697 21.4017 16.2714 23.389 16.2714C25.3763 16.2714 26.7936 14.8697 26.7936 12.8121L26.7936 3.45925C26.7936 1.41337 25.3958 -2.35858e-07 23.389 -1.48137e-07ZM23.5803 1.31967C23.5803 1.55393 23.4163 1.70229 23.1547 1.74524C22.3738 1.84285 21.8507 2.32308 21.7413 3.11957C21.6984 3.35383 21.5227 3.52953 21.3158 3.51781C21.0971 3.51781 20.9175 3.3265 20.9175 3.06491C20.9175 3.01025 20.9175 2.91264 20.9331 2.84627C21.1127 1.84285 21.9092 1.10493 22.9361 0.937042C23.0181 0.921425 23.0883 0.921425 23.1547 0.921425C23.4436 0.921425 23.5803 1.15569 23.5803 1.31967Z" fill="#A1A1AA"/>
</svg>
