<svg width="108" height="32" viewBox="0 0 108 32" fill="none" xmlns="http://www.w3.org/2000/svg">
<g clip-path="url(#clip0_31_727)">
<path d="M14.8641 8.51462e-06C14.1229 -0.00136041 13.3906 0.162351 12.7205 0.479255C12.0505 0.79616 11.4594 1.2583 10.9902 1.83214L1.16063 13.7734C0.549773 14.5047 0.161005 15.3957 0.0402489 16.3409C-0.0805074 17.2862 0.071794 18.2462 0.479162 19.1077C0.886528 19.9692 1.53194 20.696 2.33916 21.2025C3.14638 21.7088 4.08166 21.9737 5.03455 21.9655H8.87353V26.9578C8.86312 27.9952 9.17618 29.01 9.76922 29.8613C10.3623 30.7126 11.2058 31.3581 12.1825 31.7078C13.1594 32.0575 14.2208 32.0943 15.2194 31.8129C16.218 31.5315 17.1041 30.946 17.7546 30.1377L27.5692 18.1765C28.1801 17.4451 28.5689 16.5542 28.6896 15.609C28.8103 14.6637 28.658 13.7037 28.2507 12.8422C27.8433 11.9808 27.1979 11.2539 26.3907 10.7475C25.5835 10.2411 24.6482 9.97626 23.6953 9.98434H19.8563V4.99218C19.8563 3.66817 19.3303 2.39839 18.3941 1.46218C17.4579 0.525968 16.1882 8.51462e-06 14.8641 8.51462e-06ZM23.6953 13.978C23.8911 13.9705 24.0848 14.0206 24.2523 14.1223C24.4197 14.224 24.5536 14.3728 24.6371 14.55C24.7206 14.7273 24.7503 14.9251 24.7221 15.119C24.6941 15.313 24.6095 15.4943 24.479 15.6404L14.6694 27.5868C14.5264 27.7668 14.3255 27.8919 14.1009 27.9411C13.8763 27.9902 13.6415 27.9602 13.4364 27.8563C13.2613 27.767 13.1151 27.6302 13.0144 27.4615C12.9137 27.2929 12.8627 27.0992 12.8673 26.9028V19.3147C12.8673 18.9585 12.7258 18.617 12.4739 18.3651C12.2221 18.1133 11.8805 17.9718 11.5244 17.9718H5.03455C4.83876 17.9794 4.64507 17.9293 4.47758 17.8275C4.3101 17.7259 4.17625 17.5772 4.09269 17.3999C4.00913 17.2227 3.97956 17.0247 4.00768 16.8309C4.03579 16.637 4.12033 16.4556 4.25078 16.3094L14.0604 4.36317C14.1869 4.19107 14.3652 4.06409 14.5693 4.00086C14.7733 3.93763 14.9922 3.94149 15.1938 4.01188C15.3955 4.08226 15.5693 4.21547 15.6896 4.3919C15.81 4.56835 15.8706 4.77874 15.8626 4.99218V12.6352C15.8626 12.9914 16.0041 13.3329 16.2559 13.5847C16.5077 13.8366 16.8493 13.978 17.2054 13.978H23.6953Z" fill="white"/>
<path d="M48.2958 2.15472H53.3162V22.6378H48.2958V14.7391H40.9326V22.6378H35.9124V2.15472H40.9326V10.0869H48.2958V2.15472ZM68.6785 14.2705V5.90326H73.6988V21.7676C73.6988 27.0892 69.8833 30.3357 64.8296 30.3357C63.0557 30.3357 61.2818 30.1683 59.575 29.5994V24.4451C61.0141 25.2149 62.9553 25.4827 64.5618 25.4827C66.3691 25.4827 67.8084 24.9471 68.4777 23.2067C68.6116 22.7382 68.6785 22.2362 68.6785 21.7341V20.9644C67.5405 22.2362 66.0679 22.8051 64.3945 22.8051C59.6418 22.8051 56.6297 18.7219 56.6297 14.2705V5.90326H61.65V14.2705C61.65 16.5464 62.5536 18.153 64.9969 18.153C67.3732 18.153 68.6785 16.5798 68.6785 14.2705ZM82.0661 14.2705C82.0661 16.7472 83.3045 18.153 85.8146 18.153C86.5175 18.153 87.1534 18.0525 87.6554 17.8182C88.5926 17.4501 89.2285 16.7472 89.5631 15.7766C89.6971 15.308 89.764 14.8061 89.764 14.2705C89.764 13.735 89.6971 13.233 89.5631 12.7644C89.195 11.7268 88.6261 11.1579 87.6554 10.6894C87.1534 10.4885 86.5175 10.3881 85.8146 10.3881C83.3045 10.3881 82.0661 11.7938 82.0661 14.2705ZM82.0661 20.9644V29.3316H77.0458V14.2705C77.0458 8.91547 80.8278 5.73591 85.8816 5.73591C91.0358 5.73591 94.7844 9.11628 94.7844 14.237C94.7844 18.9896 91.2031 22.8051 86.4506 22.8051C85.4799 22.8051 84.6432 22.6378 83.9404 22.303C83.2041 22.0019 82.5681 21.5333 82.0661 20.9644ZM102.148 14.2705V22.6378H97.1272V14.304C97.1272 8.74813 101.21 5.73591 106.365 5.73591C106.532 5.73591 106.766 5.73591 107.001 5.76938C107.235 5.80285 107.503 5.86979 107.737 5.90326V10.7563C107.569 10.7228 107.369 10.6894 107.134 10.6559C106.9 10.6224 106.7 10.5889 106.532 10.5889C105.695 10.5889 105.026 10.6894 104.457 10.8566C103.52 11.1914 102.683 11.8273 102.382 12.8314C102.214 13.2664 102.148 13.7685 102.148 14.2705Z" fill="white"/>
</g>
<defs>
<clipPath id="clip0_31_727">
<rect width="107.84" height="32" fill="white"/>
</clipPath>
</defs>
</svg>
