<svg width="107" height="32" viewBox="0 0 107 32" fill="none" xmlns="http://www.w3.org/2000/svg">
<path d="M57.1291 16C57.1291 22.6274 52.0122 28 45.7003 28C39.3884 28 34.2715 22.6274 34.2715 16C34.2715 9.37256 39.3884 4 45.7003 4C52.0122 4 57.1291 9.37256 57.1291 16Z" fill="#DFFE00"/>
<path d="M23.0415 4L18.3902 17.737V21.7674H16.8651V17.737L12.2138 4H4.71387V28H9.75043V16.0406L7.73788 9.21808L9.17115 8.68312L15.7119 27.9994H19.5435L26.0841 8.68312L27.5174 9.21808L25.5049 16.0406V28H30.5414V4H23.0415ZM78.38 6.72862C77.153 5.76845 75.7163 5.07363 74.0703 4.64418C72.4239 4.21473 70.6855 4 68.856 4H61.3015V28H69.5346C71.2346 28 72.8595 27.7402 74.4091 27.2204C75.9585 26.7006 77.3255 25.9382 78.5091 24.9322C79.6925 23.9269 80.6343 22.6837 81.3339 21.2038C82.0331 19.7238 82.3827 18.0122 82.3827 16.068C82.3827 13.8762 82.0219 12.012 81.3019 10.4747C80.5803 8.93808 79.6065 7.69001 78.3795 6.72922L78.38 6.72862ZM76.5238 19.237C76.1043 20.1753 75.528 20.9317 74.7966 21.5082C74.0645 22.0846 73.1988 22.497 72.1979 22.7459C71.1974 22.9948 70.1162 23.1186 68.9536 23.1186H66.3386V8.88136H69.3091C70.3631 8.88136 71.3694 9.02288 72.3274 9.30536C73.2848 9.5884 74.1191 10.0118 74.8297 10.5766C75.5396 11.1415 76.1049 11.8595 76.5244 12.7294C76.9444 13.5993 77.1542 14.6222 77.1542 15.7972C77.1542 17.1533 76.9444 18.3001 76.5244 19.2383L76.5238 19.237ZM91.0347 23.1186V18.2373H100.947V13.3558H91.0347V8.88136H102.108V4H85.9987V28H102.108V23.1186H91.0347Z" fill="#DFFE00"/>
</svg>
