<svg width="64" height="64" viewBox="0 0 64 64" fill="none" xmlns="http://www.w3.org/2000/svg">
<path fill-rule="evenodd" clip-rule="evenodd" d="M31.5732 1H31.4284C23.7813 1.01808 16.7953 3.8966 11.4513 8.63864C11.0726 8.97465 11.3124 9.59133 11.8151 9.59133H51.1864C51.6893 9.59133 51.9289 8.97465 51.5505 8.63864C46.2064 3.8966 39.2202 1.01808 31.5732 1ZM18.6855 39.925C19.0656 39.925 19.417 40.124 19.6352 40.44C22.2542 44.2359 26.5918 46.7176 31.4997 46.7176C36.4073 46.7176 40.745 44.2359 43.3641 40.44C43.5824 40.124 43.9335 39.925 44.3136 39.925H60.0894C60.5463 39.925 60.8795 40.3655 60.7497 40.8111C57.0148 53.6398 45.3323 63 31.4995 63C17.6664 63 5.98428 53.6398 2.24918 40.8111C2.11949 40.3655 2.45271 39.925 2.90973 39.925H18.6855ZM42.9869 23.0335C43.2656 23.402 43.6905 23.6333 44.1478 23.6333H59.9588C60.4201 23.6333 60.7543 23.1857 60.6166 22.7382C59.4218 18.8531 57.4948 15.2966 55.0003 12.2356C54.7929 11.9808 54.4827 11.837 54.1569 11.837H8.8439C8.5184 11.837 8.20824 11.9808 8.00057 12.2356C5.506 15.2966 3.57926 18.8531 2.38444 22.7382C2.24682 23.1857 2.58083 23.6333 3.04212 23.6333H18.8531C19.3106 23.6333 19.7353 23.402 20.0141 23.0335C22.6615 19.5343 26.8219 17.2792 31.5004 17.2792C36.1791 17.2792 40.3395 19.5343 42.9869 23.0335ZM45.0939 37.0883C44.9907 37.3733 45.1934 37.6829 45.4923 37.6829H60.91C61.2457 37.6829 61.5349 37.4392 61.5896 37.1025C61.8595 35.4437 62 33.7407 62 32.0045C62 30.1108 61.833 28.2567 61.513 26.4567C61.4539 26.1244 61.167 25.8864 60.8351 25.8864H45.3261C45.0214 25.8864 44.818 26.2073 44.9324 26.4942C45.6086 28.196 45.981 30.0559 45.981 32.0041C45.981 33.7909 45.6677 35.504 45.0939 37.0883ZM17.5078 37.6829C17.8064 37.6829 18.0093 37.3733 17.9062 37.0883C17.3323 35.504 17.0189 33.7909 17.0189 32.0041C17.0189 30.0559 17.3913 28.196 18.0677 26.4942C18.1818 26.2073 17.9786 25.8864 17.6741 25.8864H2.165C1.83289 25.8864 1.54608 26.1244 1.48703 26.4567C1.16706 28.2567 1 30.1108 1 32.0045C1 33.7407 1.14044 35.4437 1.4104 37.1025C1.46523 37.4392 1.7542 37.6829 2.09012 37.6829H17.5078Z" fill="white"/>
</svg>
