<svg width="120" height="21" viewBox="0 0 120 21" fill="none" xmlns="http://www.w3.org/2000/svg">
<path d="M107.707 20.2051C105.82 20.2051 104.344 18.8516 104.344 16.9238V4.22266C104.344 1.76172 106.135 0.107422 108.555 0.107422C110.811 0.107422 111.658 1.40625 112.561 3.52539L113.996 6.88867C114.379 7.79102 115.049 8.73438 115.473 9.1582C115.609 9.29492 115.787 9.39062 115.979 9.39062C116.334 9.39062 116.635 9.10352 116.635 8.73438C116.635 8.51562 116.539 8.33789 116.389 8.16016C116.102 7.83203 115.596 7.10742 115.268 6.35547L113.135 1.41992C113.805 0.558594 114.529 0.107422 116.02 0.107422C118.344 0.107422 119.588 1.76172 119.588 4.22266V16.9238C119.588 18.8516 118.111 20.2051 116.211 20.2051C113.859 20.2051 113.107 18.8789 112.314 16.9238L110.305 11.9609C109.908 10.9629 109.334 10.1562 108.855 9.67773C108.691 9.51367 108.527 9.44531 108.322 9.44531C107.967 9.44531 107.666 9.74609 107.666 10.1016C107.666 10.293 107.762 10.498 107.912 10.6484C108.268 11.0176 108.719 11.6738 109.047 12.4941L111.125 17.5801C110.865 19.0293 109.717 20.2051 107.707 20.2051Z" fill="#0250E8"/>
<path d="M99.1211 20.2051C96.9336 20.2051 95.5391 18.6602 95.5391 16.418V3.88086C95.5391 1.63867 96.9336 0.107422 99.1211 0.107422C101.309 0.107422 102.703 1.63867 102.703 3.88086V16.418C102.703 18.6602 101.309 20.2051 99.1211 20.2051Z" fill="#0250E8"/>
<path d="M82.209 20.2051C80.2676 20.2051 78.9824 18.9336 78.9824 16.6914C78.9824 16.3086 79.0098 15.2285 79.0645 14.5586L79.6387 7.38086C80.0215 2.54102 82.6191 0.107422 86.6113 0.107422C90.6035 0.107422 93.2012 2.54102 93.584 7.38086L94.1582 14.5586C94.2129 15.2285 94.2402 16.3086 94.2402 16.6914C94.2402 18.9336 92.9551 20.2051 91.0137 20.2051C89.1133 20.2051 88.0332 19.2891 87.5 16.8555C87.3906 16.377 87.3359 15.9121 87.2949 15.1055C87.7598 15.1055 88.252 15.0234 88.5254 14.9688C88.9629 14.8867 89.2363 14.6953 89.2363 14.2441C89.2363 13.8613 89.0312 13.6152 88.5801 13.6152C88.4707 13.6152 88.3203 13.6289 88.0332 13.6562C87.582 13.6973 87.0078 13.7246 86.6113 13.7246C86.2148 13.7246 85.6406 13.6973 85.1895 13.6562C84.9023 13.6289 84.752 13.6152 84.6426 13.6152C84.1914 13.6152 83.9863 13.8613 83.9863 14.2441C83.9863 14.6953 84.2598 14.8867 84.6973 14.9688C84.9707 15.0234 85.4629 15.1055 85.9277 15.1055C85.8867 15.9121 85.832 16.377 85.7227 16.8555C85.1895 19.2891 84.1094 20.2051 82.209 20.2051ZM83.9863 8.69336C83.9863 9.08984 84.1914 9.33594 84.6426 9.33594C84.752 9.33594 84.9023 9.32227 85.1895 9.29492C85.6406 9.25391 86.2148 9.22656 86.6113 9.22656C87.0078 9.22656 87.582 9.25391 88.0332 9.29492C88.3203 9.32227 88.4707 9.33594 88.5801 9.33594C89.0312 9.33594 89.2363 9.08984 89.2363 8.69336C89.2363 8.24219 88.9629 8.06445 88.5254 7.98242C88.252 7.92773 87.7598 7.85938 87.2949 7.85938V6.46484C87.2949 6.04102 87.0898 5.72656 86.6113 5.72656C86.1328 5.72656 85.9277 6.04102 85.9277 6.46484V7.85938C85.4629 7.85938 84.9707 7.92773 84.6973 7.98242C84.2598 8.06445 83.9863 8.24219 83.9863 8.69336Z" fill="#0250E8"/>
<path d="M66.1445 20.2051C64.1211 20.2051 62.8359 18.6738 62.8359 16.4316V3.88086C62.8359 1.63867 64.1211 0.107422 66.1445 0.107422C68.2227 0.107422 69.5762 1.63867 69.5762 3.88086V6.36914C69.1113 6.36914 68.6191 6.4375 68.3457 6.49219C67.9082 6.57422 67.6348 6.75195 67.6348 7.20312C67.6348 7.59961 67.8398 7.8457 68.291 7.8457C68.4004 7.8457 68.5508 7.83203 68.8379 7.80469C69.2891 7.76367 69.8633 7.73633 70.2598 7.73633C70.6562 7.73633 71.2305 7.76367 71.6816 7.80469C71.9688 7.83203 72.1191 7.8457 72.2285 7.8457C72.6797 7.8457 72.8848 7.59961 72.8848 7.20312C72.8848 6.75195 72.6113 6.57422 72.1738 6.49219C71.9004 6.4375 71.4082 6.36914 70.9434 6.36914V3.88086C70.9434 1.63867 72.2969 0.107422 74.375 0.107422C76.3984 0.107422 77.6836 1.63867 77.6836 3.88086V16.4316C77.6836 18.6738 76.3984 20.2051 74.375 20.2051C72.2969 20.2051 70.9434 18.6738 70.9434 16.4316V13.9434C71.4082 13.9434 71.9004 13.875 72.1738 13.8203C72.6113 13.7383 72.8848 13.5605 72.8848 13.1094C72.8848 12.7129 72.6797 12.4668 72.2285 12.4668C72.1191 12.4668 71.9688 12.4805 71.6816 12.5078C71.2305 12.5488 70.6562 12.5762 70.2598 12.5762C69.8633 12.5762 69.2891 12.5488 68.8379 12.5078C68.5508 12.4805 68.4004 12.4668 68.291 12.4668C67.8398 12.4668 67.6348 12.7129 67.6348 13.1094C67.6348 13.5605 67.9082 13.7383 68.3457 13.8203C68.6191 13.875 69.1113 13.9434 69.5762 13.9434V16.4316C69.5762 18.6738 68.2227 20.2051 66.1445 20.2051Z" fill="#0250E8"/>
<path d="M53.9766 20.2734C48.8359 20.2734 46.4707 16.8281 46.4707 10.1562C46.4707 3.48438 48.8359 0.0390625 53.9766 0.0390625C58.2559 0.0390625 61.25 2.43164 61.25 5.82227C61.25 8.0918 59.7461 9.5 57.3535 9.5C56.4648 9.5 55.3574 9.5 54.6875 8.67969V5.83594C54.6875 5.41211 54.4824 5.09766 54.0039 5.09766C53.5254 5.09766 53.3203 5.41211 53.3203 5.83594V14.5723C53.3203 14.9961 53.5254 15.3105 54.0039 15.3105C54.4824 15.3105 54.6875 14.9961 54.6875 14.5723V11.6875C55.3574 10.8672 56.4648 10.8672 57.3535 10.8672C59.7461 10.8672 61.25 12.2617 61.25 14.5176C61.25 17.8945 58.2832 20.2734 53.9766 20.2734Z" fill="#0250E8"/>
<path d="M36.4492 20C34.3984 20 33.0312 18.5918 33.0312 16.4727V3.83984C33.0312 1.7207 34.3984 0.3125 36.4492 0.3125H42.0684C44.1465 0.3125 45.5137 1.69336 45.5137 3.78516C45.5137 6.02734 44.2422 6.72461 41.5762 6.72461C40.7969 6.72461 40.0176 6.61523 39.5801 6.46484C39.4023 6.41016 39.1973 6.35547 39.0605 6.35547C38.6914 6.35547 38.3906 6.64258 38.3906 7.02539C38.3906 7.39453 38.6641 7.61328 38.9102 7.69531C39.5254 7.90039 40.5508 8.0918 41.5762 8.0918C42.5059 8.0918 43.4766 7.92773 44.0098 7.77734C44.5566 8.16016 45.1035 8.98047 45.1035 10.1562C45.1035 11.332 44.5566 12.1523 44.0098 12.5352C43.4766 12.3848 42.5059 12.2207 41.5762 12.2207C40.5508 12.2207 39.5254 12.4121 38.9102 12.6172C38.6641 12.6992 38.3906 12.918 38.3906 13.2871C38.3906 13.6699 38.6914 13.957 39.0605 13.957C39.1973 13.957 39.4023 13.9023 39.5801 13.8477C40.0176 13.6973 40.7969 13.5879 41.5762 13.5879C44.2422 13.5879 45.5137 14.2852 45.5137 16.5273C45.5137 18.6191 44.1465 20 42.0684 20H36.4492Z" fill="#0250E8"/>
<path d="M20.4531 20.2051C18.375 20.2051 17.0352 18.7695 17.0352 16.6777V3.83984C17.0352 1.74805 18.375 0.3125 20.4531 0.3125H23.7891C28.8203 0.3125 31.6504 2.92383 31.6504 7.23047C31.6504 11.4961 28.8477 14.1484 23.8711 14.1484C22.9688 14.1484 22.2715 14.0664 21.793 13.9023C21.6152 13.8477 21.4102 13.793 21.2734 13.793C20.9043 13.793 20.6035 14.0801 20.6035 14.4629C20.6035 14.832 20.877 15.0508 21.123 15.1328C21.834 15.3652 22.7773 15.502 23.8711 15.502V16.6777C23.8711 18.7695 22.5176 20.2051 20.4531 20.2051ZM23.4473 8.85742C23.4473 9.28125 23.6523 9.5957 24.1309 9.5957C24.6094 9.5957 24.8145 9.28125 24.8145 8.85742V5.79492C24.8145 5.37109 24.6094 5.05664 24.1309 5.05664C23.6523 5.05664 23.4473 5.37109 23.4473 5.79492V8.85742Z" fill="#0250E8"/>
<path d="M3.70508 20.2051C1.76367 20.2051 0.478516 18.9336 0.478516 16.6914C0.478516 16.3086 0.505859 15.2285 0.560547 14.5586L1.13477 7.38086C1.51758 2.54102 4.11523 0.107422 8.10742 0.107422C12.0996 0.107422 14.6973 2.54102 15.0801 7.38086L15.6543 14.5586C15.709 15.2285 15.7363 16.3086 15.7363 16.6914C15.7363 18.9336 14.4512 20.2051 12.5098 20.2051C10.6094 20.2051 9.5293 19.2891 8.99609 16.8555C8.88672 16.377 8.83203 15.9121 8.79102 15.1055C9.25586 15.1055 9.74805 15.0234 10.0215 14.9688C10.459 14.8867 10.7324 14.6953 10.7324 14.2441C10.7324 13.8613 10.5273 13.6152 10.0762 13.6152C9.9668 13.6152 9.81641 13.6289 9.5293 13.6562C9.07812 13.6973 8.50391 13.7246 8.10742 13.7246C7.71094 13.7246 7.13672 13.6973 6.68555 13.6562C6.39844 13.6289 6.24805 13.6152 6.13867 13.6152C5.6875 13.6152 5.48242 13.8613 5.48242 14.2441C5.48242 14.6953 5.75586 14.8867 6.19336 14.9688C6.4668 15.0234 6.95898 15.1055 7.42383 15.1055C7.38281 15.9121 7.32812 16.377 7.21875 16.8555C6.68555 19.2891 5.60547 20.2051 3.70508 20.2051ZM5.48242 8.69336C5.48242 9.08984 5.6875 9.33594 6.13867 9.33594C6.24805 9.33594 6.39844 9.32227 6.68555 9.29492C7.13672 9.25391 7.71094 9.22656 8.10742 9.22656C8.50391 9.22656 9.07812 9.25391 9.5293 9.29492C9.81641 9.32227 9.9668 9.33594 10.0762 9.33594C10.5273 9.33594 10.7324 9.08984 10.7324 8.69336C10.7324 8.24219 10.459 8.06445 10.0215 7.98242C9.74805 7.92773 9.25586 7.85938 8.79102 7.85938V6.46484C8.79102 6.04102 8.58594 5.72656 8.10742 5.72656C7.62891 5.72656 7.42383 6.04102 7.42383 6.46484V7.85938C6.95898 7.85938 6.4668 7.92773 6.19336 7.98242C5.75586 8.06445 5.48242 8.24219 5.48242 8.69336Z" fill="#0250E8"/>
</svg>
