<svg width="94" height="32" viewBox="0 0 94 32" fill="none" xmlns="http://www.w3.org/2000/svg">
<path d="M13.7939 2.90479L2.66992 28.9586H5.42299L8.36257 21.9611L8.84281 20.8226H22.3927L22.8729 21.9611L25.8125 28.9586H28.5655L17.4416 2.90479H13.7939ZM15.6166 4.76506L21.4489 18.5858H9.78545L15.6166 4.76506Z" fill="#71717A"/>
<path d="M55.2881 26.7991L49.1498 11.3169H46.6201L53.6888 28.9576H56.8886L63.9572 11.3169H61.4275L55.2881 26.7991Z" fill="#71717A"/>
<path d="M73.4654 10.9438C68.1814 10.9438 64.6846 14.9258 64.6846 20.1368C64.6846 25.3478 68.2194 29.3298 73.4654 29.3298C78.7113 29.3298 82.245 25.3478 82.245 20.1368C82.245 14.9258 78.7481 10.9438 73.4654 10.9438ZM73.4654 27.1712C69.8188 27.1712 67.2143 24.2685 67.2143 20.1368C67.2143 16.0051 69.8188 13.1024 73.4654 13.1024C77.1108 13.1024 79.7153 16.0051 79.7153 20.1368C79.7153 24.2685 77.1108 27.1712 73.4654 27.1712Z" fill="#71717A"/>
<path d="M43.2433 13.3951C42.5698 12.6265 41.759 12.0254 40.8107 11.593C39.8614 11.1606 38.7747 10.9438 37.5495 10.9438C36.3478 10.9438 35.2488 11.1785 34.2526 11.6466C33.2552 12.1147 32.4085 12.7638 31.7117 13.5929C31.0147 14.4219 30.4742 15.395 30.09 16.5123C29.7046 17.6296 29.5137 18.8374 29.5137 20.1357C29.5137 21.434 29.7058 22.6418 30.09 23.759C30.4742 24.8763 31.0326 25.8506 31.7653 26.6796C32.4979 27.5086 33.3814 28.1578 34.4145 28.6259C35.4476 29.0951 36.6136 29.3287 37.9102 29.3287C38.9679 29.3287 39.886 29.1846 40.6678 28.8962C41.4485 28.608 42.1275 28.236 42.7038 27.779C43.2801 27.3231 43.7671 26.8293 44.1636 26.3008C44.5601 25.7724 44.8895 25.255 45.1553 24.7501L42.9562 23.7411C42.7642 24.102 42.5296 24.4797 42.2537 24.8763C41.9778 25.273 41.6417 25.6338 41.2452 25.9578C40.8487 26.283 40.3797 26.5534 39.8391 26.769C39.2986 26.9846 38.6552 27.0941 37.9102 27.0941C36.1568 27.0941 34.7864 26.5299 33.8024 25.3992C32.8174 24.2696 32.2645 22.7446 32.145 20.8206H45.2994V19.4866C45.2994 18.2854 45.1252 17.1615 44.7767 16.1157C44.4272 15.0722 43.9157 14.165 43.2433 13.3951ZM32.2165 18.5871C32.4566 16.9291 33.0452 15.613 33.9822 14.6398C34.9193 13.6666 36.1087 13.1795 37.5495 13.1795C39.1354 13.1795 40.3484 13.679 41.1894 14.6755C42.0293 15.6733 42.5106 16.9771 42.6313 18.5871H32.2165Z" fill="#71717A"/>
<path d="M88.4978 7.66012C88.4746 7.77966 88.4378 7.88692 88.3866 7.98189C88.3226 8.10035 88.2322 8.20867 88.113 8.30811C87.9986 8.40203 87.8802 8.47011 87.7602 8.51147C87.6394 8.55283 87.4858 8.57291 87.3018 8.57291C87.0562 8.57291 86.8354 8.52267 86.6386 8.42211C86.4418 8.32155 86.297 8.17291 86.2026 7.97631C86.1002 8.15619 85.957 8.30035 85.773 8.40643C85.589 8.51259 85.3594 8.56619 85.085 8.56619C84.905 8.56619 84.7434 8.53827 84.5994 8.48355C84.4562 8.42883 84.333 8.34947 84.2306 8.24667C84.149 8.16515 84.0842 8.06907 84.037 7.96066C83.9906 7.85228 83.9658 7.72827 83.9658 7.58861C83.9658 7.44895 83.993 7.32269 84.0466 7.20761C84.1002 7.09253 84.1722 6.99533 84.265 6.916C84.357 6.83556 84.4642 6.773 84.5842 6.7283C84.705 6.68361 84.8314 6.66015 84.9634 6.66015C85.1306 6.65568 85.297 6.65344 85.461 6.65121C85.6258 6.64898 85.7922 6.64786 85.9594 6.64786V6.31603C85.9594 6.10709 85.8994 5.95403 85.777 5.85794C85.6554 5.76185 85.4978 5.71381 85.3018 5.71381C85.105 5.71381 84.9418 5.75739 84.8122 5.84565C84.6842 5.93392 84.6138 6.07581 84.6002 6.27357L84.0978 6.18307C84.113 6.04452 84.1514 5.92386 84.2106 5.81884C84.2818 5.69147 84.3746 5.58868 84.4866 5.50824C84.5994 5.42891 84.7274 5.36969 84.8706 5.33282C85.0146 5.29595 85.1594 5.27808 85.3074 5.27808C85.3978 5.27808 85.489 5.28701 85.5842 5.306C85.6794 5.325 85.7706 5.35181 85.861 5.38868C85.9506 5.42556 86.0346 5.4736 86.1106 5.53281C86.1858 5.59203 86.2498 5.6613 86.3034 5.7384C86.4058 5.59538 86.5346 5.48477 86.6898 5.40656C86.845 5.32835 87.0394 5.28924 87.2738 5.28924C87.541 5.28924 87.7546 5.33729 87.9162 5.43337C88.0778 5.52946 88.2146 5.66353 88.325 5.8356C88.4186 5.97972 88.4826 6.13615 88.5162 6.30597C88.5482 6.4758 88.565 6.67579 88.565 6.90595V7.06572L86.4634 7.07243V7.097C86.4634 7.22884 86.4778 7.35621 86.5058 7.48135C86.5346 7.60648 86.5818 7.71709 86.6474 7.81318C86.713 7.90927 86.7978 7.98748 86.9058 8.04667C87.013 8.10595 87.1434 8.13611 87.2994 8.13611C87.4506 8.13611 87.5946 8.09139 87.7298 8.00091C87.865 7.91039 87.9554 7.76737 88.0002 7.57073L88.4978 7.66012ZM85.0826 7.04784C84.9226 7.04784 84.7842 7.09365 84.6682 7.18639C84.5514 7.27912 84.493 7.41096 84.493 7.58302C84.493 7.75508 84.549 7.88692 84.6618 7.97966C84.7746 8.07243 84.913 8.11819 85.0762 8.11819C85.1946 8.11819 85.3114 8.10035 85.4258 8.06571C85.541 8.03107 85.6386 7.97296 85.7202 7.89028C85.8386 7.77184 85.9114 7.65006 85.9346 7.52716C85.9594 7.40426 85.9714 7.2713 85.9714 7.12717V7.04114L85.0826 7.04784ZM88.0338 6.66015C88.029 6.51714 88.0122 6.38641 87.981 6.27022C87.9506 6.1529 87.9002 6.05235 87.8298 5.96632C87.7722 5.89258 87.6986 5.83224 87.609 5.78532C87.5186 5.7384 87.405 5.71493 87.265 5.71493C87.1466 5.71493 87.0442 5.73504 86.9578 5.77638C86.8722 5.81772 86.7962 5.87247 86.7298 5.94285C86.6442 6.03336 86.5794 6.1395 86.537 6.2624C86.4946 6.3853 86.4722 6.51825 86.4722 6.66238H88.0338V6.66015Z" fill="#71717A"/>
<path d="M86.2635 11.1796C83.9179 11.1796 82.0107 9.2713 82.0107 6.92501C82.0107 4.57872 83.9179 2.67041 86.2635 2.67041C88.6091 2.67041 90.5179 4.57872 90.5179 6.92501C90.5179 9.2713 88.6091 11.1796 86.2635 11.1796ZM86.2635 3.14079C84.1779 3.14079 82.4803 4.83793 82.4803 6.92501C82.4803 9.0121 84.1771 10.7092 86.2635 10.7092C88.3499 10.7092 90.0459 9.0121 90.0459 6.92501C90.0459 4.83793 88.3499 3.14079 86.2635 3.14079Z" fill="#71717A"/>
</svg>
