<svg width="155" height="42" viewBox="0 0 155 42" fill="none" xmlns="http://www.w3.org/2000/svg">
<path d="M20.8739 40.319C10.1615 40.319 1.44684 31.6343 1.44684 20.9589C1.44684 10.2834 10.1615 1.59875 20.8739 1.59875C31.5863 1.59875 40.301 10.2834 40.301 20.9589C40.301 31.6343 31.5863 40.319 20.8739 40.319Z" stroke="#FF0000" stroke-width="0.5" stroke-linecap="round" stroke-linejoin="round"/>
<path d="M22.0861 38.6815C16.6577 38.6815 12.1932 36.0306 9.10429 33.4093C4.57605 29.5652 1.95209 24.9489 1.92661 24.9024L1.83533 24.7395L7.59275 24.9362L7.61823 24.9511C7.67342 24.987 13.1994 28.4757 16.9825 26.9503C19.2732 26.0258 21.0819 23.2903 20.8548 21.0985C20.6934 19.5541 19.5555 18.5153 17.6513 18.1768C12.208 17.2057 9.61592 21.2508 9.59044 21.291L9.47793 21.4708L8.94294 20.102L9.06607 20.0766C9.07881 20.0745 10.4842 19.7318 11.3355 16.1733C12.1804 12.6339 10.0469 11.9907 9.95559 11.9653L9.87279 11.9421L9.93011 11.1212C11.3037 7.64099 9.33144 4.74892 9.31234 4.7193L9.44184 4.61564C17.6873 -0.186837 25.9944 -0.214341 33.5733 4.58813C37.8532 7.30037 40.4878 14.8489 39.7023 22.1457C39.2331 26.4997 37.1187 34.2915 28.2256 37.5538C26.0709 38.343 24.0201 38.6794 22.0903 38.6794L22.0861 38.6815Z" stroke="#FF0000" stroke-width="0.5" stroke-linecap="round" stroke-linejoin="round"/>
<path fill-rule="evenodd" clip-rule="evenodd" d="M33.3844 5.49576L33.0171 5.6227C32.8834 5.66925 32.8452 5.8385 32.9492 5.93582C33.5415 6.48588 34.9172 8.21223 33.9788 11.7665C32.8876 15.9025 30.2233 14.3751 29.8497 14.1381C29.8157 14.1169 29.7754 14.1043 29.7351 14.1106C29.5015 14.1381 28.733 14.4237 28.0473 16.9138C28.0473 16.918 28.0452 16.9223 28.0431 16.9286C28.0134 17.0661 27.5336 19.2262 25.8034 19.0993C25.7354 19.095 25.6675 19.1225 25.6314 19.1796C25.3024 19.6705 23.7866 22.1204 23.5785 25.8227V25.8164C23.6061 25.7698 23.7611 25.4885 24.0477 25.133H24.0498C24.4956 24.5745 25.2684 23.851 26.3638 23.6161C26.6462 23.5505 26.9498 23.523 27.2788 23.5378C29.7478 23.6563 29.9834 28.518 26.6334 29.8064C24.2642 30.7162 23.5998 28.7529 23.4129 27.5279V27.5216C23.3599 27.1831 23.3471 26.9017 23.3429 26.7536C23.3429 26.6838 23.3004 26.6203 23.2389 26.5907L22.8886 26.4341C22.8886 26.4341 22.8673 26.4257 22.861 26.4574C22.8588 26.4638 22.8355 26.5378 22.8185 26.5801C22.6444 27.054 21.8759 28.3509 18.7 28.4017C15.3733 28.4524 15.0294 26.3918 14.9976 25.8037C14.9933 25.7148 14.9254 25.6429 14.8362 25.6302C14.1994 25.5456 11.7049 25.0717 8.38674 22.626C8.36551 22.6112 8.34003 22.5985 8.31456 22.5943L7.6989 22.4631C7.60549 22.4441 7.51208 22.4948 7.48236 22.5858C7.28493 23.1697 6.48882 25.1796 4.85628 25.3954C3.05815 25.6323 2.25992 25.0336 2.00517 24.7734C1.9436 24.7099 1.84807 24.6951 1.77377 24.7395L1.0923 25.1415C1.01587 25.1859 0.981908 25.2769 1.00951 25.3594C1.52114 26.908 6.4591 40.6237 20.8739 40.9918C36.1527 41.3853 40.7255 27.5618 40.9845 21.473C41.2435 15.4159 38.2268 9.59162 33.5712 5.53596C33.5203 5.49153 33.4481 5.47672 33.3844 5.5V5.49576ZM13.5837 34.6639C13.658 32.7112 15.2905 32.8487 15.643 35.0744C15.9932 37.3 13.5285 36.2464 13.5837 34.6639ZM31.2699 29.8086C30.0769 28.408 32.2316 27.4031 32.9471 28.0103C33.9364 28.8438 32.4673 31.2091 31.2699 29.8086ZM38.1377 18.5026C36.9616 18.5026 36.5922 16.9159 38.1377 16.5097C39.2543 16.2199 39.3138 18.5026 38.1377 18.5026Z" stroke="#FF0000" stroke-width="0.5" stroke-linecap="round" stroke-linejoin="round"/>
<path d="M1.10932 19.8587L1.10082 19.5964C1.10082 19.5964 1.09658 19.5097 1.09445 19.351C1.07747 17.65 1.47871 8.91458 11.0107 3.67206C13.5222 2.29055 16.2395 1.45065 19.0885 1.1735L19.1713 1.16504L19.1989 1.24543C19.2945 1.52893 19.804 2.46403 22.2942 2.62271C24.8608 2.78773 26.1176 1.95417 26.4424 1.69395L26.4827 1.66221L26.5316 1.67279C29.7521 2.40057 31.8623 3.59378 32.0894 3.71649L32.255 3.81169L32.7093 5.07049L32.4779 4.96894C32.4142 4.94144 26.0136 2.19535 19.6214 4.56697L19.5874 4.57966L18.9612 4.38079L18.9527 4.31521C18.9442 4.26232 18.7234 2.99717 16.1822 3.12623C14.2801 3.22355 8.78376 4.91816 7.74352 11.1508C7.67133 11.5782 7.94095 11.7791 8.33794 11.6035C8.63515 11.4724 9.0279 11.265 9.5098 10.9731L9.52254 10.9646L9.565 10.9223L9.63718 10.9456L10.1297 11.1656L10.0236 11.2735C10.0002 11.2968 7.79022 13.6219 8.21056 17.0809L8.22755 17.2248L8.08531 17.1994C8.04497 17.1909 4.11328 16.5076 1.28977 19.6641L1.11356 19.8608L1.10932 19.8587Z" stroke="#FF0000" stroke-width="0.5" stroke-linecap="round" stroke-linejoin="round"/>
<path opacity="0.5" d="M33.2358 21.6676C33.1042 21.6676 32.998 21.6168 32.9322 21.5195C32.7836 21.3016 32.8664 20.8975 33.1806 20.3221C33.5097 19.7191 34.1466 19.3002 34.4947 19.4589C34.6667 19.5372 34.8195 19.7657 34.5775 20.4109C34.3079 21.1239 33.705 21.6147 33.3016 21.6634C33.2804 21.6655 33.257 21.6676 33.2358 21.6676Z" stroke="#FF0000" stroke-width="0.5" stroke-linecap="round" stroke-linejoin="round"/>
<path opacity="0.5" d="M20.8512 33.6478C20.4138 33.6478 20.0466 33.5632 19.8704 33.3516C19.5816 33.0046 19.8258 32.444 20.5943 31.6845C21.125 31.1598 21.8022 30.9842 22.4476 31.2C23.0102 31.3883 23.4645 31.8601 23.5303 32.3192C23.5707 32.6048 23.4581 32.8544 23.214 33.0237C22.7533 33.341 21.6791 33.6457 20.849 33.6457L20.8512 33.6478Z" stroke="#FF0000" stroke-width="0.5" stroke-linecap="round" stroke-linejoin="round"/>
<path d="M38.5192 16.5309C38.5003 16.5351 38.4814 16.5393 38.4625 16.5456C38.4814 16.5414 38.5024 16.5351 38.5192 16.5309Z" fill="#FF0000" stroke="#FF0000" stroke-width="0.5" stroke-linecap="round" stroke-linejoin="round"/>
<path d="M15.3924 13.8779C15.074 13.8779 14.8468 13.7404 14.7365 13.4759C14.3628 12.5789 14.6409 11.5655 15.505 10.7002C16.3669 9.83493 17.5961 9.34411 18.2457 9.60644C18.4537 9.69107 18.7021 9.88994 18.7064 10.3617C18.7212 11.9125 16.8488 13.6071 15.6642 13.8483C15.5686 13.8673 15.4774 13.8779 15.3924 13.8779Z" stroke="#FF0000" stroke-width="0.5" stroke-linecap="round" stroke-linejoin="round"/>
<path d="M14.3373 10.0211C14.3055 10.0211 14.2758 10.0211 14.246 10.0169C13.9361 9.9894 13.7004 9.82861 13.6155 9.58743C13.5455 9.39068 13.5221 8.97178 14.1463 8.37306C14.4859 8.04726 15.2099 7.89281 15.5729 8.17419C15.7278 8.29478 15.9359 8.59309 15.5665 9.24047C15.2353 9.82227 14.7173 10.0211 14.3373 10.0211Z" stroke="#FF0000" stroke-width="0.5" stroke-linecap="round" stroke-linejoin="round"/>
<path d="M25.8819 18.6782C25.8118 18.6782 25.7588 18.6507 25.7269 18.6296C25.3448 18.3588 25.4573 16.9752 25.5401 16.5288C25.6335 16.0231 26.0326 15.9766 26.3829 15.9364C26.6037 15.911 26.833 15.8835 27.0155 15.7587C27.5187 15.4159 27.8201 15.0986 27.8223 15.0965L27.9836 14.9251L28.0048 15.1599C28.0048 15.1832 28.1874 17.4258 26.0454 18.6338C25.9817 18.6698 25.9265 18.6825 25.8798 18.6825L25.8819 18.6782Z" stroke="#FF0000" stroke-width="0.5" stroke-linecap="round" stroke-linejoin="round"/>
<path d="M25.366 12.5345C25.3172 12.5345 25.2705 12.5302 25.2238 12.5239C24.5848 12.4223 24.3152 11.6692 24.3045 11.6374L24.3003 11.6248C24.209 11.2122 24.3385 9.4245 24.7143 8.91251C25.4382 7.9224 26.9412 8.09377 27.0049 8.10223L27.0325 8.10858C27.0559 8.11915 27.6291 8.35822 27.8074 9.01195C27.9815 9.65087 27.7161 10.4379 27.0155 11.3518C26.4148 12.1367 25.8607 12.5345 25.366 12.5345Z" stroke="#FF0000" stroke-width="0.5" stroke-linecap="round" stroke-linejoin="round"/>
<path d="M61.6788 33C54.3305 33 48.2283 29.1198 48.2283 21C48.2283 12.8802 54.3305 9 61.6788 9C69.0272 9 75.5151 12.6462 75.5151 21C75.5151 29.3538 69.2645 33 61.6788 33ZM61.9459 28.022C67.0722 28.022 69.7393 25.9484 69.7393 21C69.7393 16.0516 67.0722 13.978 61.9459 13.978C56.8195 13.978 54.0041 15.9033 54.0041 21C54.0041 26.0967 56.6415 28.022 61.9459 28.022Z" fill="white"/>
<path d="M83.7205 16.289V20.3473H93.5282C95.1865 20.3473 96.0469 18.8374 96.0469 17.3242C96.0469 15.811 95.2161 14.3901 93.5282 14.3901H78.2381L79.7183 9.5011H93.5843C98.9777 9.5011 101.823 13.589 101.823 17.5912C101.823 20.6143 100.194 23.6341 96.7853 24.7615L102.505 32.4956H96.0469L91.0392 25.2363H83.7205V32.4956H78.2381V17.7692L83.7205 16.289Z" fill="white"/>
<path d="M110.269 16.289V18.5703H120.373C122.032 18.5703 122.892 17.5022 122.892 16.4374C122.892 15.3725 122.061 14.3934 120.373 14.3934H104.787L106.267 9.50439H120.429C125.853 9.50439 128.668 12.8538 128.668 16.1407C128.668 17.8879 127.718 19.6681 125.823 20.8813C128.104 22.1538 129.261 24.1121 129.261 26.067C129.261 29.2978 126.565 32.4956 121.023 32.4956H104.787V17.7692L110.269 16.289ZM110.269 27.6066H120.967C122.625 27.6066 123.486 26.5385 123.486 25.4736C123.486 24.4088 122.655 23.4297 120.967 23.4297H110.269V27.6066Z" fill="white"/>
<path d="M130.118 32.4955L131.599 27.6065H146.295C147.954 27.6065 148.814 26.5383 148.814 25.4735C148.814 24.4087 147.983 23.4295 146.295 23.4295H134.562V18.5702H145.702C147.36 18.5702 148.221 17.5021 148.221 16.4372C148.221 15.3724 147.39 14.3933 145.702 14.3933H130.115L131.595 9.50427H145.758C151.181 9.50427 153.996 12.8537 153.996 16.1405C153.996 17.8878 153.047 19.668 151.151 20.8812C153.433 22.1537 154.59 24.112 154.59 26.0669C154.59 29.2977 151.893 32.4955 146.351 32.4955H130.115H130.118Z" fill="#FF0000"/>
</svg>
