<svg width="57" height="40" viewBox="0 0 57 40" fill="none" xmlns="http://www.w3.org/2000/svg">
<path d="M19.06 29.97L12.66 22.73C11.92 21.89 11 20.41 11 18.79C11 17.17 11.93 15.69 12.66 14.85L16.27 10.77C17.65 9.22005 19.23 8.30005 20.97 8.30005C22.35 8.30005 23.53 8.79005 24.42 9.60005C25.43 10.53 26.06 11.85 26.14 13.28H28.27C28.35 10.66 30.39 8.30005 33.46 8.30005C35.2 8.30005 36.78 9.22005 38.16 10.77L44.83 18.33C45.68 19.29 46.62 20.64 46.62 22.25C46.62 23.74 45.66 25.1 44.96 25.89L41.35 29.97C39.97 31.52 38.39 32.44 36.65 32.44C35.02 32.44 32.82 31.51 31.91 29.06C30.88 28.76 30.14 28.29 29.35 27.37C29.27 30.14 27.23 32.4501 24.16 32.4501C22.26 32.4501 20.49 31.6 19.07 29.98L19.06 29.97ZM13.84 21.68L17.45 25.76C18.57 27.02 19.74 27.69 20.96 27.69C23.17 27.69 24.57 26.01 24.57 24.18C24.57 23.03 23.86 22.49 22.97 21.87C22.76 21.73 22.61 21.47 22.61 21.21C22.61 20.78 22.96 20.42 23.38 20.42C23.55 20.42 23.74 20.48 23.97 20.63C24.65 21.04 25.54 21.94 25.88 22.72H28.54C28.89 21.95 29.77 21.04 30.45 20.63C30.67 20.49 30.86 20.42 31.04 20.42C31.47 20.42 31.81 20.78 31.81 21.21C31.81 21.48 31.65 21.73 31.45 21.87C30.56 22.49 29.85 23.02 29.85 24.18C29.85 26.01 31.24 27.69 33.46 27.69C34.68 27.69 35.85 27.03 36.97 25.76L40.58 21.68C41.17 21.02 41.84 19.88 41.84 18.79C41.84 17.7 41.16 16.56 40.58 15.9L36.97 11.82C35.85 10.56 34.68 9.89005 33.46 9.89005C31.25 9.89005 29.85 11.57 29.85 13.4C29.85 14.55 30.56 15.09 31.45 15.71C31.66 15.85 31.81 16.11 31.81 16.37C31.81 16.8 31.46 17.16 31.04 17.16C30.87 17.16 30.68 17.1 30.45 16.95C29.77 16.54 28.88 15.64 28.54 14.86H25.88C25.53 15.63 24.65 16.54 23.97 16.95C23.75 17.09 23.56 17.16 23.38 17.16C22.95 17.16 22.61 16.8 22.61 16.37C22.61 16.1 22.77 15.85 22.97 15.71C23.86 15.09 24.57 14.56 24.57 13.4C24.57 11.57 23.18 9.89005 20.96 9.89005C19.74 9.89005 18.57 10.55 17.45 11.82L13.84 15.9C13.25 16.56 12.58 17.7 12.58 18.79C12.58 19.88 13.26 21.02 13.84 21.68ZM16.86 14.3L18.52 12.45C18.87 12.07 19.39 12.01 19.72 12.32C20.07 12.6 20 13.13 19.72 13.46L18.06 15.34C17.73 15.7 17.19 15.74 16.86 15.45C16.51 15.15 16.58 14.61 16.86 14.3ZM32.58 11.26C32.69 11.21 32.82 11.2 32.93 11.18C33.45 11.15 33.83 11.48 33.85 11.97C33.87 12.33 33.61 12.67 33.25 12.74C33.04 12.77 32.98 12.88 32.95 13.07C32.92 13.42 32.6 13.69 32.22 13.7C31.75 13.72 31.4 13.37 31.38 12.89C31.38 12.12 31.9 11.48 32.58 11.25V11.26Z" fill="#242327"/>
</svg>
