<svg width="123" height="42" viewBox="0 0 123 42" fill="none" xmlns="http://www.w3.org/2000/svg">
<path d="M52.8981 27.2986V22.7807C52.8981 21.9188 52.6881 21.6621 51.9429 21.6621H47.4716V27.2971H45.166V13.79H51.9662C53.8752 13.79 55.2723 15.1171 55.2723 16.9342V18.4013C55.2723 19.5417 54.7604 20.1717 54.3637 20.5202C54.7823 20.8236 55.2723 21.4288 55.2723 22.4759V27.2957H52.8966L52.8981 27.2986ZM52.8981 16.7723C52.8981 16.2838 52.4796 15.8405 52.0829 15.8405H47.4716V19.4265H51.8262C52.6881 19.4265 52.8966 19.1932 52.8966 18.378V16.7709L52.8981 16.7723Z" fill="#494949"/>
<path d="M65.7982 27.2986H61.7455C59.8365 27.2986 58.4395 25.9715 58.4395 24.1544V16.9357C58.4395 15.1186 59.8365 13.7915 61.7455 13.7915H65.7982C67.7072 13.7915 69.1042 15.1186 69.1042 16.9357V24.1544C69.1042 25.9715 67.7072 27.2986 65.7982 27.2986ZM66.7767 16.819C66.7767 16.3538 66.3815 15.9571 65.9615 15.9571H61.5836C61.1651 15.9571 60.7684 16.3523 60.7684 16.819V24.2711C60.7684 24.7363 61.1636 25.133 61.5836 25.133H65.9615C66.3801 25.133 66.7767 24.7378 66.7767 24.2711V16.819Z" fill="#494949"/>
<path d="M72.2725 27.2986V13.7915H74.6948V25.133H80.7498V27.2986H72.2739H72.2725Z" fill="#494949"/>
<path d="M83.4502 27.2986V13.7915H85.8725V25.133H91.9275V27.2986H83.4517H83.4502Z" fill="#494949"/>
<path d="M101.522 27.2986H97.9359C96.027 27.2986 94.6299 25.9715 94.6299 24.1544V13.7915H97.0522V24.2711C97.0522 24.7363 97.4474 25.133 97.8674 25.133H101.593C102.013 25.133 102.409 24.7378 102.409 24.2711V13.7915H104.831V24.1544C104.831 25.9715 103.434 27.2986 101.525 27.2986H101.522Z" fill="#494949"/>
<path d="M116.983 19.1246L115.144 20.6617L117.029 22.0355C117.845 22.6407 118.101 23.2225 118.101 24.3878V27.2986H115.702V24.5744C115.702 23.8759 115.679 23.8059 115.284 23.5259L112.862 21.7788L110.789 23.5259C110.417 23.8292 110.371 23.9211 110.371 24.6678V27.2986H107.995V24.5744C107.995 23.4107 108.158 22.804 109.044 22.0588L110.976 20.4517L109.09 19.0546C108.392 18.5661 107.997 17.9842 107.997 16.7723V13.7915H110.372V16.7023C110.372 17.1675 110.396 17.2609 110.699 17.4942L113.261 19.3346L115.287 17.5875C115.635 17.2842 115.729 17.1223 115.729 16.7023V13.7915H118.128V16.8423C118.128 18.0294 117.686 18.5428 116.986 19.1246H116.983Z" fill="#494949"/>
<path d="M21 39.5923C31.2682 39.5923 39.5923 31.2682 39.5923 21C39.5923 10.7318 31.2682 2.40771 21 2.40771C10.7318 2.40771 2.40771 10.7318 2.40771 21C2.40771 31.2682 10.7318 39.5923 21 39.5923Z" fill="#DBEF88"/>
<path d="M12.7881 11.3999H13.5566L31.9885 28.2962V30.6003H12.7881V11.3999Z" fill="black"/>
<path d="M27.3234 22.5474C27.8513 21.5062 28.1488 20.3278 28.1488 19.0795C28.1488 14.8372 24.7101 11.3999 20.4692 11.3999C18.9832 11.3999 17.5963 11.8228 16.4209 12.5534L27.3234 22.5474Z" fill="black"/>
</svg>
