<svg width="33" height="32" viewBox="0 0 33 32" fill="none" xmlns="http://www.w3.org/2000/svg">
<path fill-rule="evenodd" clip-rule="evenodd" d="M16.3529 0.0195312H16.2769C12.2653 0.0288519 8.60052 1.51273 5.79709 3.95726C5.59845 4.13047 5.72425 4.44837 5.98796 4.44837H26.6418C26.9056 4.44837 27.0313 4.13047 26.8328 3.95726C24.0293 1.51273 20.3644 0.0288525 16.3529 0.0195312ZM9.59212 20.0854C9.79151 20.0854 9.97582 20.188 10.0903 20.3509C11.4642 22.3077 13.7397 23.587 16.3143 23.587C18.8888 23.587 21.1643 22.3077 22.5383 20.3509C22.6528 20.188 22.837 20.0854 23.0364 20.0854H31.3122C31.5519 20.0854 31.7267 20.3125 31.6586 20.5422C29.6993 27.1554 23.5708 31.9806 16.3142 31.9806C9.05751 31.9806 2.92916 27.1554 0.96976 20.5422C0.901728 20.3125 1.07653 20.0854 1.31628 20.0854H9.59212ZM22.3404 11.3778C22.4866 11.5678 22.7095 11.687 22.9494 11.687H31.2437C31.4857 11.687 31.661 11.4563 31.5888 11.2256C30.962 9.22282 29.9511 7.38947 28.6425 5.81151C28.5337 5.68016 28.371 5.606 28.2001 5.606H4.42929C4.25854 5.606 4.09583 5.68016 3.98689 5.81149C2.67826 7.38945 1.66751 9.22282 1.04072 11.2256C0.968521 11.4563 1.14374 11.687 1.38573 11.687H9.68004C9.92002 11.687 10.1428 11.5678 10.2891 11.3778C11.6779 9.57399 13.8604 8.41146 16.3147 8.41146C18.7691 8.41146 20.9516 9.57399 22.3404 11.3778ZM23.4457 18.6231C23.3916 18.77 23.4979 18.9296 23.6547 18.9296H31.7427C31.9188 18.9296 32.0705 18.804 32.0992 18.6304C32.2408 17.7753 32.3145 16.8974 32.3145 16.0024C32.3145 15.0262 32.2269 14.0704 32.059 13.1425C32.028 12.9712 31.8775 12.8485 31.7034 12.8485H23.5675C23.4077 12.8485 23.301 13.0139 23.361 13.1618C23.7157 14.0391 23.9111 14.9979 23.9111 16.0022C23.9111 16.9233 23.7467 17.8064 23.4457 18.6231ZM8.97427 18.9296C9.13093 18.9296 9.23739 18.77 9.18327 18.6231C8.88222 17.8064 8.71784 16.9233 8.71784 16.0022C8.71784 14.9979 8.9132 14.0391 9.26803 13.1618C9.32787 13.0139 9.22127 12.8485 9.06151 12.8485H0.925604C0.751382 12.8485 0.600919 12.9712 0.569943 13.1425C0.402093 14.0704 0.314453 15.0262 0.314453 16.0024C0.314453 16.8974 0.388126 17.7753 0.529746 18.6304C0.55851 18.804 0.710099 18.9296 0.886322 18.9296H8.97427Z" fill="url(#paint0_linear_489_1828)"/>
<defs>
<linearGradient id="paint0_linear_489_1828" x1="16.3145" y1="12.8486" x2="16.3145" y2="18.9296" gradientUnits="userSpaceOnUse">
<stop stop-color="#8C79ED"/>
<stop offset="1" stop-color="#8045D3"/>
</linearGradient>
</defs>
</svg>
