<svg width="96" height="96" viewBox="0 0 96 96" fill="none" xmlns="http://www.w3.org/2000/svg">
<rect width="96" height="96" fill="#BE3145"/>
<path d="M49.0425 15C47.4945 14.9972 45.9652 15.3348 44.5658 15.9885C43.1664 16.6421 41.9321 17.5953 40.9521 18.7788L20.4239 43.4077C19.1482 44.916 18.3362 46.7537 18.0841 48.7031C17.8319 50.6528 18.1499 52.6328 19.0007 54.4097C19.8514 56.1864 21.1993 57.6855 22.8851 58.7301C24.571 59.7744 26.5242 60.3207 28.5143 60.3039H36.5317V70.6004C36.5099 72.7401 37.1637 74.8332 38.4022 76.589C39.6407 78.3448 41.4023 79.676 43.4422 80.3974C45.4823 81.1186 47.699 81.1945 49.7845 80.6141C51.8701 80.0338 53.7206 78.8262 55.079 77.159L75.576 52.4891C76.8518 50.9806 77.6638 49.1431 77.916 47.1935C78.1681 45.2438 77.85 43.2638 76.9993 41.4871C76.1485 39.7104 74.8006 38.2111 73.1149 37.1668C71.429 36.1222 69.4758 35.576 67.4857 35.5927H59.4684V25.2964C59.4684 22.5656 58.3699 19.9467 56.4147 18.0157C54.4595 16.0848 51.8077 15 49.0425 15ZM67.4857 43.8297C67.8947 43.8141 68.2992 43.9175 68.6489 44.1273C68.9987 44.337 69.2783 44.6439 69.4527 45.0093C69.6271 45.375 69.689 45.7831 69.6302 46.183C69.5716 46.583 69.395 46.957 69.1225 47.2584L48.636 71.8977C48.3372 72.2691 47.9178 72.5271 47.4486 72.6286C46.9795 72.7298 46.4892 72.6679 46.0608 72.4537C45.6952 72.2695 45.3898 71.9873 45.1795 71.6394C44.9693 71.2916 44.8628 70.8921 44.8724 70.4871V54.8365C44.8724 54.1019 44.5767 53.3975 44.0508 52.8781C43.5248 52.3586 42.8116 52.0669 42.0677 52.0669H28.5143C28.1054 52.0825 27.7009 51.9791 27.3511 51.7693C27.0013 51.5596 26.7218 51.2529 26.5473 50.8873C26.3728 50.5219 26.311 50.1135 26.3697 49.7138C26.4284 49.3138 26.605 48.9396 26.8774 48.6382L47.364 23.999C47.6282 23.6441 48.0006 23.3822 48.4268 23.2518C48.8529 23.1214 49.3101 23.1293 49.7311 23.2745C50.1523 23.4197 50.5152 23.6944 50.7665 24.0583C51.018 24.4222 51.1445 24.8562 51.1278 25.2964V41.0601C51.1278 41.7947 51.4232 42.4991 51.9491 43.0185C52.4751 43.538 53.1884 43.8297 53.9322 43.8297H67.4857Z" fill="white"/>
</svg>
