<svg width="90" height="90" viewBox="0 0 90 90" fill="none" xmlns="http://www.w3.org/2000/svg">
<rect width="90" height="90" fill="url(#paint0_linear_12_5098)"/>
<path fill-rule="evenodd" clip-rule="evenodd" d="M45.5732 14H45.4284C37.7813 14.0181 30.7953 16.8966 25.4513 21.6386C25.0726 21.9746 25.3124 22.5913 25.8151 22.5913H65.1864C65.6893 22.5913 65.9289 21.9746 65.5505 21.6386C60.2064 16.8966 53.2202 14.0181 45.5732 14ZM32.6855 52.925C33.0656 52.925 33.417 53.124 33.6352 53.44C36.2542 57.2359 40.5918 59.7176 45.4997 59.7176C50.4073 59.7176 54.745 57.2359 57.3641 53.44C57.5824 53.124 57.9335 52.925 58.3136 52.925H74.0894C74.5463 52.925 74.8795 53.3655 74.7497 53.8111C71.0148 66.6398 59.3323 76 45.4995 76C31.6664 76 19.9843 66.6398 16.2492 53.8111C16.1195 53.3655 16.4527 52.925 16.9097 52.925H32.6855ZM56.9869 36.0335C57.2656 36.402 57.6905 36.6333 58.1478 36.6333H73.9588C74.4201 36.6333 74.7543 36.1857 74.6166 35.7382C73.4218 31.8531 71.4948 28.2966 69.0003 25.2356C68.7929 24.9808 68.4827 24.837 68.1569 24.837H22.8439C22.5184 24.837 22.2082 24.9808 22.0006 25.2356C19.506 28.2966 17.5793 31.8531 16.3844 35.7382C16.2468 36.1857 16.5808 36.6333 17.0421 36.6333H32.8531C33.3106 36.6333 33.7353 36.402 34.0141 36.0335C36.6615 32.5343 40.8219 30.2792 45.5004 30.2792C50.1791 30.2792 54.3395 32.5343 56.9869 36.0335ZM59.0939 50.0883C58.9907 50.3733 59.1934 50.6829 59.4923 50.6829H74.91C75.2457 50.6829 75.5349 50.4392 75.5896 50.1025C75.8595 48.4437 76 46.7407 76 45.0045C76 43.1108 75.833 41.2567 75.513 39.4567C75.4539 39.1244 75.167 38.8864 74.8351 38.8864H59.3261C59.0214 38.8864 58.818 39.2073 58.9324 39.4942C59.6086 41.196 59.981 43.0559 59.981 45.0041C59.981 46.7909 59.6677 48.504 59.0939 50.0883ZM31.5078 50.6829C31.8064 50.6829 32.0093 50.3733 31.9062 50.0883C31.3323 48.504 31.0189 46.7909 31.0189 45.0041C31.0189 43.0559 31.3913 41.196 32.0677 39.4942C32.1818 39.2073 31.9786 38.8864 31.6741 38.8864H16.165C15.8329 38.8864 15.5461 39.1244 15.487 39.4567C15.1671 41.2567 15 43.1108 15 45.0045C15 46.7407 15.1404 48.4437 15.4104 50.1025C15.4652 50.4392 15.7542 50.6829 16.0901 50.6829H31.5078Z" fill="white"/>
<defs>
<linearGradient id="paint0_linear_12_5098" x1="45" y1="0" x2="45" y2="90" gradientUnits="userSpaceOnUse">
<stop stop-color="#8C79ED"/>
<stop offset="1" stop-color="#6B53E5"/>
</linearGradient>
</defs>
</svg>
