<svg width="96" height="96" viewBox="0 0 96 96" fill="none" xmlns="http://www.w3.org/2000/svg">
<rect width="96" height="96" fill="black"/>
<path d="M11.9818 54.515C11.9697 54.5082 11.9697 54.4953 11.9818 54.4886L23.09 48.2357C23.0993 48.2307 23.1127 48.2307 23.122 48.2359L48.1722 62.4129C48.1814 62.4183 48.195 62.4183 48.2042 62.4129L72.8061 48.3558C72.8153 48.3506 72.8288 48.3504 72.838 48.3556L83.8895 54.4886C83.9017 54.4956 83.9019 54.5082 83.8899 54.5152L48.2864 74.9959C48.2771 75.0011 48.2636 75.0011 48.2542 74.9959L11.9818 54.515Z" fill="url(#paint0_linear_27_1348)"/>
<path d="M11.9077 41.1454C11.8953 41.1385 11.8956 41.1254 11.9083 41.1186L48.1799 22.0036C48.1891 21.9988 48.2017 21.9988 48.2109 22.0037L83.8139 41.1188C83.8263 41.1254 83.8267 41.1383 83.8146 41.1454L48.2115 61.6259C48.2021 61.6312 48.1887 61.6312 48.1793 61.6259L11.9077 41.1454Z" fill="url(#paint1_linear_27_1348)"/>
<defs>
<linearGradient id="paint0_linear_27_1348" x1="29.9392" y1="42.169" x2="64.2629" y2="76.6721" gradientUnits="userSpaceOnUse">
<stop stop-color="#DD75A6"/>
<stop offset="1" stop-color="#F2B05B"/>
</linearGradient>
<linearGradient id="paint1_linear_27_1348" x1="29.939" y1="28.8413" x2="52.7228" y2="62.3121" gradientUnits="userSpaceOnUse">
<stop stop-color="#6F73F6"/>
<stop offset="1" stop-color="#D975A9"/>
</linearGradient>
</defs>
</svg>
