<svg width="50" height="32" viewBox="0 0 50 32" fill="none" xmlns="http://www.w3.org/2000/svg">
<g clip-path="url(#clip0_81_3033)">
<path d="M37.8314 0C33.1331 0 29.0668 2.02672 26.4026 5.2971C26.1465 5.61216 26.0949 6.04514 26.2589 6.41732C26.8853 7.85076 27.2243 9.47766 27.2243 11.2593C27.2243 15.3736 25.6545 19.1746 22.8024 21.9604C22.2146 22.5352 21.5827 23.0548 20.912 23.521C20.6614 23.6942 20.5011 23.9687 20.4643 24.2708L19.9466 28.4938C19.6868 30.5831 20.8789 32 22.9166 32C24.9544 32 26.4929 30.5831 26.7508 28.4938L27.1248 23.6223C29.0336 24.9968 31.7236 25.9088 34.655 25.9088C42.9977 25.9088 49.3726 19.4823 49.3726 11.0548C49.3726 4.49194 44.8807 0 37.8351 0L37.8314 0ZM35.9539 15.3201C34.7047 15.3201 33.8848 14.4873 33.8848 13.2916C33.8848 11.7789 35.0548 10.5905 36.5325 10.5905C37.7817 10.5905 38.6016 11.4307 38.6016 12.6191C38.6016 14.1317 37.4316 15.3201 35.9539 15.3201Z" fill="#EFF6FF"/>
<path d="M0 14.8374C0 6.40811 6.3731 0 14.7342 0C21.7817 0 26.2718 4.49194 26.2718 11.0548C26.2718 19.4841 19.8987 25.9088 11.5541 25.9088C4.49194 25.9088 0 21.4187 0 14.8374ZM12.8567 15.3201C14.3344 15.3201 15.5044 14.1317 15.5044 12.6191C15.5044 11.4307 14.6845 10.5905 13.4353 10.5905C11.9576 10.5905 10.7877 11.7789 10.7877 13.2916C10.7877 14.4873 11.6076 15.3201 12.8567 15.3201Z" fill="#EFF6FF"/>
</g>
<defs>
<clipPath id="clip0_81_3033">
<rect width="49.3708" height="32" fill="white"/>
</clipPath>
</defs>
</svg>
