<svg width="174" height="24" viewBox="0 0 174 24" fill="none" xmlns="http://www.w3.org/2000/svg">
<g clip-path="url(#clip0_81_2963)">
<path d="M8.78593 23.2C6.20439 23.2 4.08925 22.5985 2.44054 21.3955C0.813511 20.1711 0 18.4311 0 16.1755C0 15.7029 0.0542341 15.1229 0.162703 14.4355C0.44472 12.8889 0.846053 11.0307 1.3667 8.86111C2.84187 2.95371 6.64911 0 12.7884 0C14.4588 0 15.9557 0.27926 17.279 0.837779C18.6023 1.37482 19.6436 2.19111 20.4029 3.28666C21.1621 4.36074 21.5418 5.64963 21.5418 7.15334C21.5418 7.60445 21.4876 8.17371 21.3791 8.86111C21.0537 10.773 20.6632 12.6311 20.2077 14.4355C19.4483 17.3785 18.1359 19.5803 16.2703 21.0411C14.4045 22.4803 11.9098 23.2 8.78593 23.2ZM9.2415 18.56C10.4563 18.56 11.4868 18.2055 12.3329 17.4966C13.2006 16.7878 13.8188 15.7029 14.1876 14.2422C14.6866 12.2229 15.0662 10.4615 15.3266 8.95778C15.4134 8.50666 15.4568 8.04481 15.4568 7.57223C15.4568 5.6174 14.4262 4.64 12.3654 4.64C11.1505 4.64 10.1092 4.99445 9.2415 5.70334C8.39544 6.41223 7.78802 7.49703 7.41923 8.95778C7.02874 10.397 6.63826 12.1585 6.24777 14.2422C6.16099 14.6718 6.11761 15.1229 6.11761 15.5955C6.11761 17.5718 7.15891 18.56 9.2415 18.56Z" fill="#FF0420"/>
<path d="M24.8437 22.8778C24.6049 22.8778 24.4206 22.8026 24.2904 22.6523C24.182 22.4804 24.1494 22.2871 24.1928 22.0723L28.6834 1.12782C28.7268 0.891524 28.8461 0.698191 29.0413 0.547822C29.2366 0.397451 29.4427 0.322266 29.6596 0.322266H38.3153C40.7234 0.322266 42.6541 0.816339 44.1075 1.80449C45.5827 2.79264 46.3204 4.22116 46.3204 6.09004C46.3204 6.62708 46.2553 7.18559 46.1251 7.76559C45.5827 10.236 44.4872 12.0618 42.8385 13.2434C41.2115 14.4249 38.977 15.0155 36.1351 15.0155H31.7422L30.2453 22.0723C30.2019 22.3086 30.0826 22.5018 29.8873 22.6523C29.6921 22.8026 29.4861 22.8778 29.2691 22.8778H24.8437ZM36.3629 10.5689C37.2741 10.5689 38.0659 10.3219 38.7384 9.82782C39.4326 9.33375 39.8882 8.62485 40.1051 7.70115C40.1702 7.33596 40.2027 7.01375 40.2027 6.73448C40.2027 6.11153 40.0183 5.63893 39.6495 5.31671C39.2808 4.97301 38.6516 4.80116 37.7622 4.80116H33.8573L32.6208 10.5689H36.3629Z" fill="#FF0420"/>
<path d="M53.6522 22.8778C53.4136 22.8778 53.2292 22.8026 53.099 22.6523C52.9688 22.4804 52.9255 22.2871 52.9688 22.0723L56.5809 5.38115H50.7886C50.55 5.38115 50.3656 5.30596 50.2354 5.1556C50.127 4.98375 50.0945 4.79041 50.1379 4.57559L50.8863 1.12782C50.9297 0.891524 51.0489 0.698191 51.2442 0.547822C51.4394 0.397451 51.6455 0.322266 51.8624 0.322266H69.3693C69.6079 0.322266 69.7922 0.397451 69.9225 0.547822C70.0092 0.676711 70.0526 0.805598 70.0526 0.934487C70.0526 0.998932 70.0417 1.06338 70.02 1.12782L69.2716 4.57559C69.2282 4.8119 69.109 5.00523 68.9136 5.1556C68.7401 5.30596 68.5341 5.38115 68.2955 5.38115H62.5357L58.9237 22.0723C58.8803 22.3086 58.7611 22.5018 58.5658 22.6523C58.3705 22.8026 58.1645 22.8778 57.9476 22.8778H53.6522Z" fill="#FF0420"/>
<path d="M70.8827 22.8778C70.6441 22.8778 70.4598 22.8026 70.3296 22.6523C70.1994 22.4804 70.156 22.2871 70.1994 22.0723L74.7226 1.12782C74.7659 0.891524 74.8853 0.698191 75.0805 0.547822C75.2758 0.397451 75.4818 0.322266 75.6988 0.322266H80.0917C80.3303 0.322266 80.5148 0.397451 80.6449 0.547822C80.7317 0.676711 80.7751 0.805598 80.7751 0.934487C80.7751 0.998932 80.7642 1.06338 80.7425 1.12782L76.2519 22.0723C76.2085 22.3086 76.0893 22.5018 75.894 22.6523C75.6988 22.8026 75.4927 22.8778 75.2758 22.8778H70.8827Z" fill="#FF0420"/>
<path d="M83.2734 22.8778C83.0347 22.8778 82.8503 22.8026 82.7202 22.6523C82.59 22.5018 82.5466 22.3086 82.59 22.0723L87.0806 1.12782C87.124 0.891524 87.2432 0.698191 87.4385 0.547822C87.6338 0.397451 87.8507 0.322266 88.0893 0.322266H91.6037C92.1244 0.322266 92.4606 0.558561 92.6124 1.03115L96.1593 11.1812L104.067 1.03115C104.175 0.859303 104.327 0.698191 104.522 0.547822C104.739 0.397451 105 0.322266 105.303 0.322266H108.85C109.089 0.322266 109.273 0.397451 109.403 0.547822C109.49 0.676711 109.534 0.805598 109.534 0.934487C109.534 0.998932 109.523 1.06338 109.501 1.12782L105.01 22.0723C104.967 22.3086 104.848 22.5018 104.652 22.6523C104.457 22.8026 104.251 22.8778 104.034 22.8778H100.097C99.8581 22.8778 99.6738 22.8026 99.5435 22.6523C99.4351 22.4804 99.4026 22.2871 99.446 22.0723L101.984 10.1823L97.0054 16.7234C96.7885 16.9597 96.5824 17.1423 96.3872 17.2712C96.1919 17.4 95.9641 17.4645 95.7038 17.4645H94.0117C93.5562 17.4645 93.2416 17.2175 93.0681 16.7234L90.7577 9.89227L88.1544 22.0723C88.111 22.3086 87.9917 22.5018 87.7964 22.6523C87.6012 22.8026 87.3951 22.8778 87.1782 22.8778H83.2734Z" fill="#FF0420"/>
<path d="M111.996 22.8778C111.757 22.8778 111.573 22.8026 111.443 22.6523C111.313 22.4804 111.269 22.2871 111.313 22.0723L115.836 1.12782C115.879 0.891524 115.999 0.698191 116.194 0.547822C116.389 0.397451 116.595 0.322266 116.812 0.322266H121.205C121.444 0.322266 121.628 0.397451 121.758 0.547822C121.845 0.676711 121.888 0.805598 121.888 0.934487C121.888 0.998932 121.878 1.06338 121.856 1.12782L117.365 22.0723C117.322 22.3086 117.203 22.5018 117.007 22.6523C116.812 22.8026 116.606 22.8778 116.389 22.8778H111.996Z" fill="#FF0420"/>
<path d="M132.425 23.2C130.515 23.2 128.877 22.9422 127.511 22.4266C126.165 21.9111 125.146 21.2237 124.452 20.3645C123.779 19.5052 123.443 18.5492 123.443 17.4966C123.443 17.3248 123.465 17.0671 123.508 16.7234C123.552 16.53 123.639 16.3689 123.769 16.24C123.921 16.1111 124.093 16.0466 124.289 16.0466H128.454C128.715 16.0466 128.91 16.0897 129.04 16.1755C129.192 16.2615 129.344 16.4118 129.496 16.6266C129.647 17.1852 129.994 17.6471 130.537 18.0122C131.101 18.3774 131.871 18.56 132.847 18.56C134.083 18.56 135.082 18.3666 135.841 17.98C136.601 17.5934 137.056 17.0671 137.207 16.4011C137.229 16.3152 137.24 16.1863 137.24 16.0145C137.24 15.4774 136.904 15.0585 136.232 14.7578C135.559 14.4355 134.322 14.0597 132.522 13.63C130.418 13.1789 128.823 12.5022 127.738 11.6C126.654 10.6763 126.112 9.47334 126.112 7.99111C126.112 7.47555 126.177 6.94926 126.307 6.41223C126.741 4.41445 127.815 2.84629 129.528 1.70778C131.263 0.56926 133.498 0 136.232 0C137.88 0 139.345 0.29 140.625 0.87C141.904 1.45 142.891 2.19111 143.586 3.09334C144.302 3.97408 144.659 4.85482 144.659 5.73556C144.659 5.99334 144.649 6.17592 144.627 6.28334C144.584 6.47666 144.486 6.63778 144.334 6.76666C144.204 6.89556 144.041 6.96 143.846 6.96H139.485C139.009 6.96 138.683 6.7774 138.51 6.41223C138.488 5.91815 138.227 5.49926 137.728 5.15556C137.229 4.81185 136.578 4.64 135.776 4.64C134.821 4.64 134.03 4.81185 133.4 5.15556C132.793 5.49926 132.413 6.00408 132.262 6.67C132.24 6.7774 132.228 6.91703 132.228 7.08889C132.228 7.60445 132.532 8.03408 133.14 8.37778C133.769 8.7 134.865 9.03297 136.427 9.37666C138.857 9.84926 140.625 10.5259 141.731 11.4067C142.859 12.2874 143.422 13.4582 143.422 14.9189C143.422 15.4129 143.358 15.95 143.228 16.53C142.751 18.7211 141.59 20.386 139.745 21.5245C137.924 22.6415 135.483 23.2 132.425 23.2Z" fill="#FF0420"/>
<path d="M147.74 22.8778C147.501 22.8778 147.317 22.8026 147.187 22.6523C147.057 22.5018 147.013 22.3086 147.057 22.0723L151.547 1.12782C151.59 0.891524 151.709 0.698191 151.906 0.547822C152.1 0.397451 152.317 0.322266 152.556 0.322266H156.07C156.591 0.322266 156.927 0.558561 157.079 1.03115L160.626 11.1812L168.533 1.03115C168.642 0.859303 168.794 0.698191 168.989 0.547822C169.206 0.397451 169.466 0.322266 169.77 0.322266H173.317C173.556 0.322266 173.74 0.397451 173.87 0.547822C173.957 0.676711 174 0.805598 174 0.934487C174 0.998932 173.99 1.06338 173.968 1.12782L169.477 22.0723C169.433 22.3086 169.314 22.5018 169.119 22.6523C168.924 22.8026 168.717 22.8778 168.5 22.8778H164.563C164.324 22.8778 164.14 22.8026 164.01 22.6523C163.901 22.4804 163.869 22.2871 163.913 22.0723L166.451 10.1823L161.472 16.7234C161.255 16.9597 161.049 17.1423 160.854 17.2712C160.659 17.4 160.43 17.4645 160.171 17.4645H158.478C158.022 17.4645 157.708 17.2175 157.535 16.7234L155.224 9.89227L152.621 22.0723C152.577 22.3086 152.458 22.5018 152.263 22.6523C152.068 22.8026 151.861 22.8778 151.645 22.8778H147.74Z" fill="#FF0420"/>
</g>
<defs>
<clipPath id="clip0_81_2963">
<rect width="174" height="23.2" fill="white"/>
</clipPath>
</defs>
</svg>
