<svg width="96" height="52" viewBox="0 0 96 52" fill="none" xmlns="http://www.w3.org/2000/svg">
<path d="M19.4701 51.4123C13.7492 51.4123 9.06199 50.0795 5.40834 47.4135C1.80278 44.7002 0 40.8443 0 35.8457C0 34.7984 0.120185 33.5131 0.360557 31.9898C0.98552 28.5624 1.87489 24.4447 3.02867 19.6367C6.29773 6.54556 14.7347 0 28.3398 0C32.0414 0 35.3586 0.618853 38.2911 1.85656C41.2237 3.04667 43.5311 4.85561 45.2138 7.2834C46.8963 9.66361 47.7376 12.5199 47.7376 15.8521C47.7376 16.8518 47.6176 18.1133 47.3772 19.6367C46.6559 23.8734 45.7906 27.9912 44.7812 31.9898C43.0984 38.5117 40.19 43.391 36.0557 46.6282C31.9211 49.8175 26.3928 51.4123 19.4701 51.4123ZM20.4796 41.1299C23.1718 41.1299 25.4553 40.3443 27.3303 38.7734C29.2531 37.2025 30.6232 34.7984 31.4404 31.5615C32.5463 27.0866 33.3874 23.1832 33.9645 19.8509C34.1568 18.8512 34.2529 17.8277 34.2529 16.7804C34.2529 12.4484 31.9692 10.2825 27.4023 10.2825C24.7101 10.2825 22.4026 11.0679 20.4796 12.6389C18.6047 14.2098 17.2586 16.6138 16.4414 19.8509C15.576 23.0403 14.7107 26.9439 13.8454 31.5615C13.6531 32.5134 13.5569 33.5131 13.5569 34.5604C13.5569 38.94 15.8645 41.1299 20.4796 41.1299Z" fill="#FEF2F2"/>
<path d="M48.4065 50.6983C47.8775 50.6983 47.469 50.5317 47.1806 50.1985C46.9402 49.8176 46.868 49.3893 46.9642 48.9132L56.9155 2.49926C57.0117 1.97562 57.2762 1.54718 57.7088 1.21395C58.1414 0.880726 58.5982 0.714111 59.079 0.714111H78.2604C83.5967 0.714111 87.8752 1.809 91.0962 3.9988C94.3653 6.18858 95.9999 9.35424 95.9999 13.4958C95.9999 14.6859 95.8557 15.9236 95.5673 17.2089C94.3653 22.6833 91.9376 26.7296 88.284 29.348C84.6784 31.9662 79.7267 33.2751 73.4289 33.2751H63.694L60.3769 48.9132C60.2807 49.4368 60.0162 49.8651 59.5836 50.1985C59.1509 50.5317 58.6944 50.6983 58.2134 50.6983H48.4065ZM73.9338 23.4212C75.953 23.4212 77.7077 22.8738 79.1979 21.7789C80.7364 20.684 81.7459 19.113 82.2266 17.0661C82.3708 16.2568 82.443 15.5428 82.443 14.9239C82.443 13.5434 82.0343 12.4961 81.2171 11.782C80.3999 11.0204 79.0056 10.6395 77.0347 10.6395H68.3812L65.641 23.4212H73.9338Z" fill="#FEF2F2"/>
</svg>
