<svg width="32" height="32" viewBox="0 0 32 32" fill="none" xmlns="http://www.w3.org/2000/svg">
<g opacity="0.8">
<path opacity="0.4" d="M20.4369 19.2544L22.7582 14.9722H20.5283L18.207 19.2544H20.4369Z" fill="white"/>
<path opacity="0.7" d="M13.0312 19.4813L14.3655 21.9429L15.4037 23.8579L16.5186 21.801L14.1462 17.4246L13.0312 19.4813Z" fill="white"/>
<path d="M16.7503 21.6587H24.0004L21.7215 17.4541L20.5918 19.5383L17.8987 19.5364L16.6536 17.2817H14.3779L16.7503 21.6587Z" fill="white"/>
<path opacity="0.4" d="M16.7501 21.9426L15.6348 23.9999H22.8849L24.0001 21.9426H16.7501Z" fill="white"/>
<path opacity="0.7" d="M18.1599 14.8305L16.8843 17.1401L17.9745 19.1141L20.2966 14.8304L16.6715 8.14258L14.3926 12.3471H16.7885L18.1599 14.8305Z" fill="white"/>
<path d="M22.7585 14.6882L19.1333 8L16.9033 8L20.5296 14.6882H22.7585Z" fill="white"/>
<path d="M17.772 14.6882L16.6359 12.6309H11.8564L12.9716 14.6882H17.772Z" fill="white"/>
<path opacity="0.7" d="M11.6252 12.7729L8 19.4607L9.11415 21.5162L12.7394 14.8284L11.6252 12.7729Z" fill="white"/>
<path opacity="0.4" d="M14.0692 16.998H16.6535L17.7721 14.9724H12.9719L9.3457 21.659H13.9035L12.7233 19.4815L14.0692 16.998Z" fill="white"/>
</g>
</svg>
