<svg width="14" height="14" viewBox="0 0 14 14" fill="none" xmlns="http://www.w3.org/2000/svg">
<g clip-path="url(#clip0_494_1957)">
<path d="M5.04 4.06489H8.41L6.79 6.23489L5.04 4.06489ZM5.04 8.44489H8.41L6.78 10.6149L5.04 8.44489ZM0 6.99489C0 10.7049 3.02 13.7249 6.73 13.7249C10.44 13.7249 13.46 10.7049 13.46 6.99489C13.46 3.28489 10.45 0.264893 6.73 0.264893C3.01 0.264893 0 3.28489 0 6.99489Z" fill="#83BBFF"/>
<path d="M4.08998 8.56487L6.30998 11.3249C6.57998 11.6649 7.01998 11.6549 7.28998 11.3149L9.34998 8.56487C9.65998 8.14487 9.39998 7.62487 8.87998 7.62487H4.54998C4.01998 7.62487 3.75998 8.15487 4.08998 8.56487ZM8.87998 3.24487H4.54998C4.01998 3.24487 3.75998 3.77487 4.08998 4.18487L6.30998 6.94487C6.57998 7.28487 7.02998 7.27487 7.28998 6.93487L9.34998 4.18487C9.65998 3.76487 9.39998 3.24487 8.87998 3.24487Z" fill="white"/>
<path d="M5.04 4.06489H8.41L6.79 6.23489L5.04 4.06489ZM5.04 8.44489H8.41L6.78 10.6149L5.04 8.44489ZM4.09 4.19489L6.31 6.95489C6.58 7.29489 7.03 7.28489 7.29 6.94489L9.35 4.19489C9.66 3.77489 9.4 3.25489 8.88 3.25489H4.55C4.02 3.25489 3.76 3.78489 4.09 4.19489ZM4.09 8.57489L6.31 11.3349C6.58 11.6749 7.02 11.6649 7.29 11.3249L9.35 8.57489C9.66 8.15489 9.4 7.63489 8.88 7.63489H4.55C4.02 7.63489 3.76 8.16489 4.09 8.57489ZM0.81 7.00489C0.81 3.72489 3.46 1.07489 6.73 1.07489C10 1.07489 12.66 3.72489 12.66 7.00489C12.66 10.2849 10.01 12.9349 6.73 12.9349C3.45 12.9349 0.81 10.2749 0.81 6.99489V7.00489ZM0 7.00489C0 10.7149 3.02 13.7349 6.73 13.7349C10.44 13.7349 13.46 10.7149 13.46 7.00489C13.46 3.29489 10.45 0.264893 6.73 0.264893C3.01 0.264893 0 3.28489 0 6.99489V7.00489Z" fill="black"/>
</g>
<defs>
<clipPath id="clip0_494_1957">
<rect width="13.47" height="13.47" fill="white" transform="translate(0 0.264893)"/>
</clipPath>
</defs>
</svg>
