<svg width="144" height="40" viewBox="0 0 144 40" fill="none" xmlns="http://www.w3.org/2000/svg">
<path d="M25.5416 31C25.5416 31 25.4977 31 25.4788 31C22.7663 30.9812 20.2108 29.9137 18.2831 27.9798C15.8343 25.531 15.445 22.8499 15.5455 21.029C15.6711 18.7686 16.6318 16.5835 18.1827 15.0326C19.6457 13.5696 21.4791 12.6843 23.3377 12.5524C25.3909 12.4017 27.306 13.1489 28.8757 14.7186C31.8331 17.676 31.199 21.4999 29.1018 23.5971C26.5714 26.1275 23.6516 25.5059 22.0066 23.8671C21.2782 23.1387 20.8198 22.2283 20.7068 21.299C20.5875 20.2881 20.8952 19.3588 21.567 18.6807C21.881 18.3667 22.2514 18.1909 22.6407 18.1658C23.0489 18.1407 23.4633 18.3039 23.7772 18.6179C24.4679 19.3086 24.1351 20.1437 23.953 20.5895C23.9216 20.6648 23.8902 20.7402 23.8651 20.8218C23.7772 21.0604 24.0284 21.3806 24.2544 21.6067C24.7944 22.1467 25.5793 22.605 26.8414 21.3367C27.419 20.759 27.7393 20.0558 27.7455 19.34C27.7518 18.53 27.3625 17.7137 26.6153 16.9665C24.7819 15.1331 22.4649 15.2461 20.4305 17.2805C19.3882 18.3228 18.7415 19.7481 18.6599 21.186C18.5657 22.8373 19.2124 24.4071 20.531 25.7257C21.9061 27.1008 23.6705 27.8605 25.4977 27.8731C27.3562 27.8856 29.1897 27.0945 30.6339 25.6503C34.2819 22.0022 34.1815 16.9979 30.389 13.1991C26.1946 9.00479 20.6503 9.13037 16.2613 13.5131C12.5316 17.2428 12.0984 22.919 15.1939 27.3205C15.8595 28.2561 15.602 29.0786 15.1437 29.5433C14.8171 29.8698 14.4153 30.0268 14.0134 30.033C13.6053 30.033 13.2223 29.8572 12.9021 29.5307C9.98863 26.6173 7.74076 17.5253 14.0134 11.2527C16.5564 8.70968 19.7461 7.20901 22.9924 7.02064C26.5462 6.81343 29.8867 8.16969 32.6494 10.9387C35.1735 13.4629 36.4858 16.5019 36.4482 19.7167C36.4105 22.7369 35.1484 25.644 32.9006 27.8982C30.9038 29.8949 28.2918 30.9937 25.5479 30.9937L25.5416 31Z" fill="#242327"/>
<path d="M122.482 26.2637C121.428 26.2637 120.502 26.0557 119.705 25.6396C118.908 25.2236 118.29 24.6318 117.851 23.8643C117.417 23.0967 117.2 22.2002 117.2 21.1748C117.2 20.1846 117.411 19.3027 117.833 18.5293C118.255 17.7559 118.844 17.1523 119.6 16.7188C120.355 16.2852 121.214 16.0684 122.175 16.0684C123.101 16.0684 123.921 16.2588 124.636 16.6396C125.356 17.0205 125.913 17.5508 126.306 18.2305C126.698 18.9043 126.895 19.6689 126.895 20.5244C126.895 21.0342 126.783 21.4092 126.561 21.6494C126.338 21.8838 125.992 22.001 125.523 22.001H119.837C119.931 22.5752 120.227 23.0293 120.725 23.3633C121.223 23.6914 121.85 23.8555 122.605 23.8555C123.033 23.8555 123.405 23.7998 123.722 23.6885C124.038 23.5713 124.319 23.3955 124.565 23.1611C124.771 23.0264 124.958 22.9268 125.128 22.8623C125.298 22.792 125.482 22.7568 125.682 22.7568C126.01 22.7568 126.256 22.8477 126.42 23.0293C126.584 23.2109 126.666 23.4658 126.666 23.7939C126.666 23.9404 126.634 24.0928 126.569 24.251C126.505 24.4092 126.42 24.5615 126.314 24.708C125.969 25.1943 125.444 25.5752 124.741 25.8506C124.044 26.126 123.291 26.2637 122.482 26.2637ZM124.293 19.9795C124.217 19.4053 123.982 18.957 123.59 18.6348C123.197 18.3066 122.69 18.1426 122.069 18.1426C121.448 18.1426 120.938 18.3066 120.54 18.6348C120.147 18.9629 119.913 19.4111 119.837 19.9795H124.293Z" fill="#242327"/>
<path d="M111.073 28.373C109.819 28.373 108.764 28.1387 107.909 27.6699C107.598 27.5 107.346 27.2891 107.153 27.0371C106.965 26.791 106.872 26.5303 106.872 26.2549C106.872 25.9502 106.962 25.6865 107.144 25.4639C107.332 25.2412 107.569 25.1299 107.856 25.1299C107.973 25.1299 108.111 25.1533 108.269 25.2002C108.433 25.2471 108.591 25.3057 108.744 25.376C109.025 25.5459 109.385 25.6895 109.825 25.8066C110.264 25.9238 110.745 25.9824 111.266 25.9824C111.706 25.9824 112.104 25.9062 112.461 25.7539C112.825 25.6016 113.112 25.373 113.323 25.0684C113.54 24.7637 113.648 24.3916 113.648 23.9521V23.873C113.308 24.2012 112.904 24.4531 112.435 24.6289C111.972 24.8047 111.457 24.8926 110.888 24.8926C110.033 24.8926 109.259 24.7051 108.568 24.3301C107.882 23.9492 107.343 23.4248 106.951 22.7568C106.564 22.083 106.371 21.3242 106.371 20.4805C106.371 19.6367 106.564 18.8809 106.951 18.2129C107.343 17.5391 107.882 17.0146 108.568 16.6396C109.259 16.2588 110.033 16.0684 110.888 16.0684C111.433 16.0684 111.943 16.1738 112.417 16.3848C112.892 16.5898 113.305 16.8887 113.657 17.2812C113.704 16.9297 113.844 16.6484 114.079 16.4375C114.319 16.2266 114.615 16.1211 114.966 16.1211C115.347 16.1211 115.661 16.25 115.907 16.5078C116.153 16.7598 116.276 17.0879 116.276 17.4922V24.2686C116.276 25.124 116.065 25.8594 115.643 26.4746C115.227 27.0898 114.626 27.5586 113.841 27.8809C113.062 28.209 112.139 28.373 111.073 28.373ZM108.999 20.5332C108.999 20.9551 109.098 21.333 109.297 21.667C109.502 21.9951 109.781 22.2529 110.132 22.4404C110.49 22.6221 110.888 22.7129 111.328 22.7129C111.785 22.7129 112.189 22.6191 112.541 22.4316C112.898 22.2441 113.173 21.9863 113.367 21.6582C113.56 21.3242 113.657 20.9492 113.657 20.5332C113.657 20.1289 113.56 19.7627 113.367 19.4346C113.173 19.1006 112.898 18.8398 112.541 18.6523C112.189 18.459 111.785 18.3623 111.328 18.3623C110.894 18.3623 110.499 18.4561 110.141 18.6436C109.79 18.8252 109.511 19.0801 109.306 19.4082C109.101 19.7363 108.999 20.1113 108.999 20.5332Z" fill="#242327"/>
<path d="M99.839 26.2637C98.9484 26.2637 98.1456 26.0527 97.4308 25.6309C96.7159 25.2031 96.1534 24.6025 95.7433 23.8291C95.339 23.0557 95.1368 22.168 95.1368 21.166C95.1368 20.1641 95.339 19.2764 95.7433 18.5029C96.1534 17.7295 96.7159 17.1318 97.4308 16.71C98.1456 16.2822 98.9484 16.0684 99.839 16.0684C100.437 16.0684 100.982 16.165 101.474 16.3584C101.972 16.5518 102.391 16.833 102.731 17.2021V14.5039C102.731 14.0996 102.851 13.7715 103.091 13.5195C103.337 13.2617 103.653 13.1328 104.04 13.1328C104.433 13.1328 104.749 13.2617 104.989 13.5195C105.235 13.7715 105.359 14.0996 105.359 14.5039V24.8398C105.359 25.2441 105.235 25.5752 104.989 25.833C104.749 26.085 104.433 26.2109 104.04 26.2109C103.706 26.2109 103.425 26.1172 103.196 25.9297C102.968 25.7363 102.821 25.4814 102.757 25.165C102.411 25.54 101.998 25.8184 101.518 26C101.037 26.1758 100.478 26.2637 99.839 26.2637ZM97.8439 21.166C97.8439 21.6992 97.9493 22.168 98.1603 22.5723C98.3771 22.9766 98.67 23.29 99.0392 23.5127C99.4142 23.7354 99.8361 23.8467 100.305 23.8467C100.785 23.8467 101.213 23.7324 101.588 23.5039C101.963 23.2695 102.253 22.9502 102.458 22.5459C102.669 22.1357 102.775 21.6758 102.775 21.166C102.775 20.6562 102.669 20.1992 102.458 19.7949C102.253 19.3848 101.963 19.0654 101.588 18.8369C101.213 18.6025 100.785 18.4854 100.305 18.4854C99.8361 18.4854 99.4142 18.5967 99.0392 18.8193C98.67 19.042 98.3771 19.3555 98.1603 19.7598C97.9493 20.1641 97.8439 20.6328 97.8439 21.166Z" fill="#242327"/>
<path d="M92.8766 26.2109C92.4899 26.2109 92.1735 26.082 91.9274 25.8242C91.6813 25.5664 91.5582 25.2383 91.5582 24.8398V17.4922C91.5582 17.0879 91.6813 16.7598 91.9274 16.5078C92.1735 16.25 92.4899 16.1211 92.8766 16.1211C93.2574 16.1211 93.5709 16.25 93.817 16.5078C94.0631 16.7598 94.1862 17.0879 94.1862 17.4922V24.8398C94.1862 25.2441 94.0631 25.5752 93.817 25.833C93.5709 26.085 93.2574 26.2109 92.8766 26.2109ZM91.4176 13.5811C91.4176 13.3115 91.4791 13.0684 91.6022 12.8516C91.7252 12.6289 91.8981 12.4561 92.1207 12.333C92.3434 12.2041 92.5953 12.1396 92.8766 12.1396C93.1637 12.1396 93.4156 12.2041 93.6324 12.333C93.8551 12.4561 94.028 12.6289 94.151 12.8516C94.274 13.0684 94.3356 13.3115 94.3356 13.5811C94.3356 13.8506 94.274 14.0967 94.151 14.3193C94.028 14.5361 93.8551 14.709 93.6324 14.8379C93.4156 14.9609 93.1637 15.0225 92.8766 15.0225C92.5953 15.0225 92.3434 14.9609 92.1207 14.8379C91.8981 14.709 91.7252 14.5361 91.6022 14.3193C91.4791 14.0967 91.4176 13.8506 91.4176 13.5811Z" fill="#242327"/>
<path d="M85.8967 24.8398C85.8967 25.2441 85.7737 25.5752 85.5276 25.833C85.2874 26.085 84.9739 26.2109 84.5872 26.2109C84.2004 26.2109 83.884 26.082 83.6379 25.8242C83.3918 25.5664 83.2688 25.2383 83.2688 24.8398V17.4922C83.2688 17.0879 83.3918 16.7598 83.6379 16.5078C83.884 16.25 84.2004 16.1211 84.5872 16.1211C84.9211 16.1211 85.2024 16.2207 85.4309 16.4199C85.6653 16.6133 85.8118 16.874 85.8704 17.2021C86.1516 16.833 86.5002 16.5518 86.9163 16.3584C87.3323 16.165 87.7864 16.0684 88.2786 16.0684C88.6477 16.0684 88.9846 16.127 89.2893 16.2441C89.594 16.3555 89.8489 16.5107 90.054 16.71C90.2825 16.915 90.4553 17.1523 90.5725 17.4219C90.6897 17.6914 90.7483 17.9756 90.7483 18.2744C90.7483 18.7197 90.6282 19.0771 90.3879 19.3467C90.1536 19.6162 89.8225 19.751 89.3948 19.751C89.1838 19.751 88.9875 19.6953 88.8059 19.584C88.6301 19.4727 88.4807 19.335 88.3577 19.1709C88.053 18.79 87.7102 18.5996 87.3293 18.5996C87.0774 18.5996 86.843 18.6787 86.6262 18.8369C86.4094 18.9951 86.2336 19.2412 86.0989 19.5752C85.9641 19.9092 85.8967 20.3252 85.8967 20.8232V24.8398Z" fill="#242327"/>
<path d="M77.5193 26.2637C76.8865 26.2637 76.3269 26.1758 75.8406 26C75.3601 25.8184 74.947 25.54 74.6013 25.165C74.5369 25.4814 74.3904 25.7363 74.1619 25.9297C73.9333 26.1172 73.6521 26.2109 73.3181 26.2109C72.9255 26.2109 72.6062 26.085 72.3601 25.833C72.1199 25.5752 71.9998 25.2441 71.9998 24.8398V14.5039C71.9998 14.0996 72.1199 13.7715 72.3601 13.5195C72.6062 13.2617 72.9255 13.1328 73.3181 13.1328C73.7048 13.1328 74.0183 13.2617 74.2585 13.5195C74.5046 13.7715 74.6277 14.0996 74.6277 14.5039V17.2109C74.9675 16.8418 75.3835 16.5605 75.8757 16.3672C76.3738 16.168 76.9216 16.0684 77.5193 16.0684C78.4099 16.0684 79.2126 16.2822 79.9275 16.71C80.6423 17.1318 81.2019 17.7295 81.6062 18.5029C82.0164 19.2764 82.2214 20.1641 82.2214 21.166C82.2214 22.168 82.0164 23.0557 81.6062 23.8291C81.2019 24.6025 80.6423 25.2031 79.9275 25.6309C79.2126 26.0527 78.4099 26.2637 77.5193 26.2637ZM74.5837 21.166C74.5837 21.6758 74.6863 22.1357 74.8914 22.5459C75.1023 22.9502 75.3953 23.2695 75.7703 23.5039C76.1453 23.7324 76.573 23.8467 77.0535 23.8467C77.5222 23.8467 77.9441 23.7354 78.3191 23.5127C78.6941 23.29 78.9871 22.9766 79.198 22.5723C79.4148 22.168 79.5232 21.6992 79.5232 21.166C79.5232 20.6328 79.4148 20.1641 79.198 19.7598C78.9871 19.3555 78.6941 19.042 78.3191 18.8193C77.9441 18.5967 77.5222 18.4854 77.0535 18.4854C76.573 18.4854 76.1453 18.6025 75.7703 18.8369C75.3953 19.0654 75.1023 19.3848 74.8914 19.7949C74.6863 20.1992 74.5837 20.6562 74.5837 21.166Z" fill="#242327"/>
<path d="M68.8519 26.2109C68.4594 26.2109 68.14 26.085 67.8939 25.833C67.6537 25.5752 67.5336 25.2441 67.5336 24.8398V14.5039C67.5336 14.0996 67.6537 13.7715 67.8939 13.5195C68.14 13.2617 68.4594 13.1328 68.8519 13.1328C69.2386 13.1328 69.5521 13.2617 69.7924 13.5195C70.0385 13.7715 70.1615 14.0996 70.1615 14.5039V24.8398C70.1615 25.2441 70.0385 25.5752 69.7924 25.833C69.5521 26.085 69.2386 26.2109 68.8519 26.2109Z" fill="#242327"/>
<path d="M64.3856 26.2109C63.993 26.2109 63.6737 26.085 63.4276 25.833C63.1874 25.5752 63.0673 25.2441 63.0673 24.8398V14.5039C63.0673 14.0996 63.1874 13.7715 63.4276 13.5195C63.6737 13.2617 63.993 13.1328 64.3856 13.1328C64.7723 13.1328 65.0858 13.2617 65.326 13.5195C65.5721 13.7715 65.6952 14.0996 65.6952 14.5039V24.8398C65.6952 25.2441 65.5721 25.5752 65.326 25.833C65.0858 26.085 64.7723 26.2109 64.3856 26.2109Z" fill="#242327"/>
<path d="M56.8433 26.2637C55.8413 26.2637 54.9448 26.0527 54.1538 25.6309C53.3687 25.209 52.7534 24.6143 52.3081 23.8467C51.8628 23.0732 51.6401 22.1797 51.6401 21.166C51.6401 20.1523 51.8628 19.2617 52.3081 18.4941C52.7534 17.7207 53.3687 17.123 54.1538 16.7012C54.9448 16.2793 55.8413 16.0684 56.8433 16.0684C57.8511 16.0684 58.7476 16.2793 59.5327 16.7012C60.3237 17.123 60.9419 17.7207 61.3872 18.4941C61.8325 19.2617 62.0552 20.1523 62.0552 21.166C62.0552 22.1797 61.8325 23.0732 61.3872 23.8467C60.9419 24.6143 60.3237 25.209 59.5327 25.6309C58.7476 26.0527 57.8511 26.2637 56.8433 26.2637ZM54.3472 21.166C54.3472 21.6875 54.4526 22.1533 54.6636 22.5635C54.8804 22.9678 55.1763 23.2842 55.5513 23.5127C55.9321 23.7354 56.3628 23.8467 56.8433 23.8467C57.3296 23.8467 57.7603 23.7354 58.1353 23.5127C58.5161 23.2842 58.812 22.9678 59.0229 22.5635C59.2397 22.1533 59.3481 21.6875 59.3481 21.166C59.3481 20.6445 59.2397 20.1816 59.0229 19.7773C58.812 19.3672 58.5161 19.0508 58.1353 18.8281C57.7603 18.5996 57.3296 18.4854 56.8433 18.4854C56.3628 18.4854 55.9321 18.5996 55.5513 18.8281C55.1763 19.0508 54.8804 19.3672 54.6636 19.7773C54.4526 20.1816 54.3472 20.6445 54.3472 21.166Z" fill="#242327"/>
<path d="M42.1816 26.2109C41.7656 26.2109 41.4287 26.0791 41.1709 25.8154C40.9189 25.5459 40.793 25.2002 40.793 24.7783V14.7764C40.793 14.3486 40.9189 14.0029 41.1709 13.7393C41.4287 13.4756 41.7656 13.3438 42.1816 13.3438H46.2686C47.165 13.3438 47.9678 13.5195 48.6768 13.8711C49.3916 14.2227 49.9482 14.7178 50.3467 15.3564C50.751 15.9893 50.9531 16.7129 50.9531 17.5273C50.9531 18.3301 50.7598 19.0479 50.373 19.6807C49.9863 20.3076 49.4502 20.7969 48.7646 21.1484L50.6807 23.9434C50.9326 24.3008 51.0586 24.6611 51.0586 25.0244C51.0586 25.2295 50.9941 25.4229 50.8652 25.6045C50.7422 25.7861 50.5752 25.9297 50.3643 26.0352C50.1592 26.1465 49.9395 26.2021 49.7051 26.2021C49.4648 26.2021 49.2451 26.1494 49.0459 26.0439C48.8525 25.9385 48.6914 25.7891 48.5625 25.5957L45.9521 21.7109H43.5791V24.7783C43.5791 25.2002 43.4502 25.5459 43.1924 25.8154C42.9404 26.0791 42.6035 26.2109 42.1816 26.2109ZM46.374 19.0742C46.8721 19.0742 47.2764 18.9336 47.5869 18.6523C47.8975 18.3652 48.0527 17.9902 48.0527 17.5273C48.0527 17.0645 47.8975 16.6924 47.5869 16.4111C47.2764 16.1299 46.8721 15.9893 46.374 15.9893H43.5791V19.0742H46.374Z" fill="#242327"/>
</svg>
