<svg width="40" height="40" viewBox="0 0 40 40" fill="none" xmlns="http://www.w3.org/2000/svg">
<path d="M22.5416 32C22.5416 32 22.4977 32 22.4788 32C19.7663 31.9812 17.2108 30.9137 15.2831 28.9798C12.8343 26.531 12.445 23.8499 12.5455 22.029C12.6711 19.7686 13.6318 17.5835 15.1827 16.0326C16.6457 14.5696 18.4791 13.6843 20.3377 13.5524C22.3909 13.4017 24.306 14.1489 25.8757 15.7186C28.8331 18.676 28.199 22.4999 26.1018 24.5971C23.5714 27.1275 20.6516 26.5059 19.0066 24.8671C18.2782 24.1387 17.8198 23.2283 17.7068 22.299C17.5875 21.2881 17.8952 20.3588 18.567 19.6807C18.881 19.3667 19.2514 19.1909 19.6407 19.1658C20.0489 19.1407 20.4633 19.3039 20.7772 19.6179C21.4679 20.3086 21.1351 21.1437 20.953 21.5895C20.9216 21.6648 20.8902 21.7402 20.8651 21.8218C20.7772 22.0604 21.0284 22.3806 21.2544 22.6067C21.7944 23.1467 22.5793 23.605 23.8414 22.3367C24.419 21.759 24.7393 21.0558 24.7455 20.34C24.7518 19.53 24.3625 18.7137 23.6153 17.9665C21.7819 16.1331 19.4649 16.2461 17.4305 18.2805C16.3882 19.3228 15.7415 20.7481 15.6599 22.186C15.5657 23.8373 16.2124 25.4071 17.531 26.7257C18.9061 28.1008 20.6705 28.8605 22.4977 28.8731C24.3562 28.8856 26.1897 28.0945 27.6339 26.6503C31.2819 23.0022 31.1815 17.9979 27.389 14.1991C23.1946 10.0048 17.6503 10.1304 13.2613 14.5131C9.53161 18.2428 9.09836 23.919 12.1939 28.3205C12.8595 29.2561 12.602 30.0786 12.1437 30.5433C11.8171 30.8698 11.4153 31.0268 11.0134 31.033C10.6053 31.033 10.2223 30.8572 9.90207 30.5307C6.98863 27.6173 4.74076 18.5253 11.0134 12.2527C13.5564 9.70968 16.7461 8.20901 19.9924 8.02064C23.5462 7.81343 26.8867 9.16969 29.6494 11.9387C32.1735 14.4629 33.4858 17.5019 33.4482 20.7167C33.4105 23.7369 32.1484 26.644 29.9006 28.8982C27.9038 30.8949 25.2918 31.9937 22.5479 31.9937L22.5416 32Z" fill="#242327"/>
</svg>
