<?xml version="1.0" encoding="UTF-8"?>
<svg id="Layer_2" data-name="Layer 2" xmlns="http://www.w3.org/2000/svg" viewBox="0 0 18.39 20.62">
  <defs>
    <style>
      .cls-1 {
        stroke-width: 1.09px;
      }

      .cls-1, .cls-2 {
        fill: none;
        stroke: #000;
        stroke-miterlimit: 10;
      }

      .cls-3 {
        opacity: .1;
      }

      .cls-3, .cls-4, .cls-5, .cls-6, .cls-7, .cls-8 {
        stroke-width: 0px;
      }

      .cls-2 {
        stroke-width: 1.24px;
      }

      .cls-4 {
        fill: #dff;
      }

      .cls-5 {
        fill: #dc0000;
      }

      .cls-6 {
        fill: #fff;
      }

      .cls-7 {
        fill: #ff3e00;
      }

      .cls-8 {
        fill: red;
      }
    </style>
  </defs>
  <g id="Layer_1-2" data-name="Layer 1">
    <g>
      <path class="cls-8" d="M2.16,18.82l14.32-5.78-6.02-6.84c-1.15-1.31-2.92-1.89-4.62-1.52h0c-2.22.48-3.8,2.46-3.78,4.74l.1,9.41Z"/>
      <path class="cls-7" d="M6.95,4.88s1.32-.41,2.48.7,4.84,5.46,4.84,5.46l-.74.1s-3.83-4.57-4.49-5.18-2.03-.67-2.03-.67l-.06-.41Z"/>
      <path class="cls-5" d="M5.59,5.11s-3.15,3.36-.87,8.73l-2.7,1.71s-.37-6.56.32-7.43.91-2.88,3.25-3.02Z"/>
      <path class="cls-1" d="M2.16,18.82l14.32-5.78-6.02-6.84c-1.15-1.31-2.92-1.89-4.62-1.52h0c-2.22.48-3.8,2.46-3.78,4.74l.1,9.41Z"/>
      <circle class="cls-6" cx="4.18" cy="3.46" r="2.91"/>
      <path class="cls-6" d="M3.72,19.61c2.62-1.51,7.42-3.87,12.11-4.18,1.2-.08,2.07-1.19,1.86-2.38h0c-.18-1.03-1.11-1.77-2.15-1.69-2.82.22-8.46,1.12-13.94,4.75-.8.53-1.13,1.54-.79,2.44h0c.44,1.17,1.83,1.67,2.91,1.05Z"/>
      <path class="cls-4" d="M3.57,1.01s-2.01,3.95,1.94,4.64c0,0-.53.8-2.01.43s-2.13-.3-2.08-1.69.11-3.57,2.15-3.38Z"/>
      <circle class="cls-1" cx="4.18" cy="3.46" r="2.91"/>
      <path class="cls-4" d="M5.36,13.91s-2.83,1.6-2.79,3.25,3.04,1.51,3.04,1.51c0,0-2.01,1.39-2.65,1.39s-1.6.43-1.97-.96-.27-2.72.43-2.85,3.94-2.33,3.94-2.33Z"/>
      <path class="cls-3" d="M15.68,15.59s-7.24.67-12.53,4.42c0,0,.1.85,1.9.27s10.06-3.49,10.55-3.82.07-.87.07-.87Z"/>
      <path class="cls-2" d="M3.47,19.76c2.61-1.53,7.72-4.11,12.66-4.35,1.05-.05,1.8-1.04,1.62-2.07l-.09-.53c-.16-.9-.96-1.52-1.87-1.46-2.76.18-8.66,1.04-14.36,4.89-.69.47-.98,1.34-.69,2.12l.19.5c.39,1.02,1.6,1.45,2.54.9Z"/>
    </g>
  </g>
</svg>