<svg width="63" height="60" viewBox="0 0 63 60" fill="none" xmlns="http://www.w3.org/2000/svg">
<g clip-path="url(#clip0_613_322)">
<path d="M7.14 24.98L21.04 34.91C21.55 35.27 21.83 35.82 21.83 36.39C21.83 36.57 21.8 36.75 21.59 37.39L16.47 53.1L29.91 43.2C30.49 42.78 30.85 42.69 31.21 42.69C31.57 42.69 31.94 42.78 32.48 43.2L45.95 53.1L40.8 37.3C40.62 36.76 40.59 36.57 40.59 36.39C40.59 35.81 40.86 35.27 41.38 34.91L55.28 24.98H38.11C37.32 24.98 36.66 24.47 36.41 23.71L31.2 7.73L25.99 23.71C25.75 24.47 25.05 24.98 24.26 24.98H7.14ZM49.4 59.64C49.04 59.64 48.67 59.52 47.77 58.85L31.21 46.74L14.08 59.3C13.78 59.54 13.38 59.63 12.99 59.63C11.96 59.63 11.2 58.81 11.2 57.81C11.2 57.63 11.23 57.42 11.29 57.2L17.83 37.04L1.03 24.82C0.27 24.28 0 23.7 0 23.12C0 22.18 0.85 21.36 1.85 21.36H22.95L29.46 1.27C29.7 0.48 30.43 0 31.22 0C32.01 0 32.7 0.51 32.95 1.27L39.49 21.37H60.56C61.56 21.37 62.44 22.19 62.44 23.13C62.44 23.71 62.14 24.25 61.65 24.61L44.61 37.05L51.15 57.21C51.21 57.42 51.24 57.63 51.24 57.82C51.24 58.76 50.54 59.64 49.42 59.64H49.4Z" fill="#FFFF55"/>
<path d="M24.2799 24.98H7.13989L21.0399 34.91C21.5499 35.27 21.8299 35.82 21.8299 36.39C21.8299 36.57 21.7999 36.75 21.5899 37.39L16.4699 53.1L29.9099 43.2C30.4899 42.78 30.8499 42.69 31.2099 42.69C31.5699 42.69 31.9399 42.78 32.4799 43.2L45.9499 53.1L40.7999 37.3C40.6199 36.76 40.5899 36.57 40.5899 36.39C40.5899 35.81 40.8599 35.27 41.3799 34.91L55.2799 24.98H38.1099C37.3199 24.98 36.6599 24.47 36.4099 23.71L31.1999 7.72998L25.9899 23.71C25.7499 24.47 25.0499 24.98 24.2599 24.98H24.2799Z" fill="#FFD200"/>
<path d="M33.3 30.21C33.3 28.97 34.33 27.94 35.57 27.94C36.81 27.94 37.81 28.97 37.81 30.21C37.81 31.45 36.81 32.48 35.57 32.48C34.33 32.48 33.3 31.45 33.3 30.21ZM27.58 35.6C27.58 34.96 28.12 34.42 28.76 34.42C29.4 34.42 29.94 34.96 29.94 35.6C29.94 35.93 30.52 36.42 31.36 36.42C32.2 36.42 32.78 35.94 32.78 35.6C32.78 34.96 33.32 34.42 33.96 34.42C34.6 34.42 35.17 34.96 35.17 35.6C35.17 37.39 33.44 38.78 31.36 38.78C29.39 38.78 27.58 37.48 27.58 35.6ZM24.31 30.21C24.31 28.97 25.34 27.94 26.58 27.94C27.82 27.94 28.82 28.97 28.82 30.21C28.82 31.45 27.82 32.48 26.58 32.48C25.34 32.48 24.31 31.45 24.31 30.21ZM7.14 24.97L21.04 34.9C21.55 35.26 21.83 35.81 21.83 36.38C21.83 36.56 21.8 36.74 21.59 37.38L16.47 53.09L29.91 43.19C30.49 42.77 30.85 42.68 31.21 42.68C31.57 42.68 31.94 42.77 32.48 43.19L45.95 53.09L40.8 37.29C40.62 36.75 40.59 36.56 40.59 36.38C40.59 35.8 40.86 35.26 41.38 34.9L55.28 24.97H38.11C37.32 24.97 36.66 24.46 36.41 23.7L31.2 7.72L25.99 23.7C25.75 24.46 25.05 24.97 24.26 24.97H7.14ZM49.4 59.63C49.04 59.63 48.67 59.51 47.77 58.84L31.21 46.73L14.08 59.29C13.78 59.53 13.38 59.62 12.99 59.62C11.96 59.62 11.2 58.8 11.2 57.8C11.2 57.62 11.23 57.41 11.29 57.19L17.83 37.03L1.03 24.82C0.27 24.28 0 23.7 0 23.12C0 22.18 0.85 21.36 1.85 21.36H22.95L29.46 1.27C29.7 0.48 30.43 0 31.22 0C32.01 0 32.7 0.51 32.95 1.27L39.49 21.37H60.56C61.56 21.37 62.44 22.19 62.44 23.13C62.44 23.71 62.14 24.25 61.65 24.61L44.61 37.05L51.15 57.21C51.21 57.42 51.24 57.63 51.24 57.82C51.24 58.76 50.54 59.64 49.42 59.64L49.4 59.63Z" fill="black"/>
</g>
<defs>
<clipPath id="clip0_613_322">
<rect width="62.42" height="59.64" fill="white"/>
</clipPath>
</defs>
</svg>
