<svg width="256" height="256" viewBox="0 0 256 256" fill="none" xmlns="http://www.w3.org/2000/svg">
<g clip-path="url(#clip0_182_10)">
<path d="M59.9838 195.564L15.3143 144.903C10.1494 139.025 3.72815 128.669 3.72815 117.333C3.72815 105.997 10.2192 95.6408 15.3143 89.763L40.5107 61.2135C50.1425 50.3676 61.1703 43.9299 73.3148 43.9299C82.9467 43.9299 91.1826 47.3587 97.3944 53.0266C104.444 59.5342 108.841 68.7708 109.399 78.7771H124.266C124.824 60.4438 139.063 43.9299 160.49 43.9299C172.635 43.9299 183.662 50.3676 193.294 61.2135L239.848 114.114C245.781 120.832 252.342 130.278 252.342 141.544C252.342 151.97 245.641 161.487 240.756 167.014L215.559 195.564C205.927 206.41 194.9 212.848 182.755 212.848C171.378 212.848 156.023 206.34 149.672 189.196C142.483 187.097 137.318 183.808 131.804 177.371C131.246 196.753 117.007 212.918 95.5797 212.918C82.3185 212.918 69.9646 206.97 60.0536 195.634L59.9838 195.564ZM23.62 137.625L48.8164 166.175C56.6335 174.992 64.7997 179.68 73.3148 179.68C88.7397 179.68 98.5112 167.924 98.5112 155.119C98.5112 147.072 93.5557 143.293 87.3438 138.955C85.8781 137.975 84.8311 136.156 84.8311 134.337C84.8311 131.328 87.274 128.809 90.2054 128.809C91.392 128.809 92.7181 129.228 94.3234 130.278C99.0695 133.147 105.281 139.445 107.654 144.903H126.22C128.663 139.515 134.805 133.147 139.551 130.278C141.087 129.298 142.413 128.809 143.669 128.809C146.67 128.809 149.044 131.328 149.044 134.337C149.044 136.226 147.927 137.975 146.531 138.955C140.319 143.293 135.363 147.002 135.363 155.119C135.363 167.924 145.065 179.68 160.56 179.68C169.075 179.68 177.241 175.061 185.058 166.175L210.255 137.625C214.373 133.007 219.049 125.03 219.049 117.403C219.049 109.776 214.303 101.799 210.255 97.1803L185.058 68.6308C177.241 59.8141 169.075 55.1258 160.56 55.1258C145.135 55.1258 135.363 66.8815 135.363 79.6867C135.363 87.7338 140.319 91.5124 146.531 95.8508C147.997 96.8304 149.044 98.6497 149.044 100.469C149.044 103.478 146.601 105.997 143.669 105.997C142.483 105.997 141.157 105.577 139.551 104.528C134.805 101.659 128.593 95.3609 126.22 89.903H107.654C105.212 95.291 99.0695 101.659 94.3234 104.528C92.7879 105.507 91.4618 105.997 90.2054 105.997C87.2042 105.997 84.8311 103.478 84.8311 100.469C84.8311 98.5797 85.9479 96.8304 87.3438 95.8508C93.5557 91.5124 98.5112 87.8037 98.5112 79.6867C98.5112 66.8815 88.8095 55.1258 73.3148 55.1258C64.7997 55.1258 56.6335 59.7441 48.8164 68.6308L23.62 97.1803C19.5021 101.799 14.8257 109.776 14.8257 117.403C14.8257 125.03 19.5719 133.007 23.62 137.625ZM44.6984 85.9844L56.2846 73.0392C58.7274 70.3802 62.3568 69.9603 64.6601 72.1295C67.103 74.0888 66.6144 77.7974 64.6601 80.1066L53.074 93.2617C50.7707 95.7808 47.0017 96.0607 44.6984 94.0314C42.2556 91.9322 42.7441 88.1536 44.6984 85.9844ZM154.418 64.7123C155.186 64.3624 156.093 64.2924 156.861 64.1525C160.49 63.9425 163.142 66.2517 163.282 69.6804C163.421 72.1995 161.607 74.5786 159.094 75.0684C157.628 75.2784 157.21 76.0481 157 77.3776C156.791 79.8267 154.557 81.716 151.905 81.786C148.625 81.9259 146.182 79.4768 146.042 76.118C146.042 70.73 149.672 66.2517 154.418 64.6423V64.7123Z" fill="#FAFAFA"/>
</g>
<defs>
<clipPath id="clip0_182_10">
<rect width="248.544" height="168.848" fill="white" transform="translate(3.72815 44)"/>
</clipPath>
</defs>
</svg>
