<svg width="14" height="14" viewBox="0 0 14 14" fill="none" xmlns="http://www.w3.org/2000/svg">
<path d="M6.99995 2.86572C7.19255 2.86572 7.38183 2.92549 7.53126 3.06828L11.2305 6.33584C11.4098 6.49523 11.5725 6.70775 11.5725 6.99997C11.5725 7.29219 11.4131 7.5014 11.2305 7.66411L7.53126 10.9317C7.38183 11.0711 7.18923 11.1342 6.99995 11.1342C6.5583 11.1342 6.19634 10.7723 6.19634 10.3306C6.19634 10.0982 6.286 9.88897 6.46864 9.72625L8.64037 7.8069H3.23097C2.78932 7.8069 2.42737 7.44494 2.42737 7.00329C2.42737 6.56164 2.78932 6.19969 3.23097 6.19969H8.64037L6.46864 4.28033C6.28932 4.12094 6.19634 3.90842 6.19634 3.67597C6.19634 3.23432 6.5583 2.87236 6.99995 2.87236V2.86572Z" fill="#27272A"/>
</svg>
