<svg width="14" height="14" viewBox="0 0 14 14" fill="none" xmlns="http://www.w3.org/2000/svg">
<g clip-path="url(#clip0_494_1969)">
<path d="M6.73005 12.66C10.0051 12.66 12.66 10.0051 12.66 6.73005C12.66 3.455 10.0051 0.800049 6.73005 0.800049C3.455 0.800049 0.800049 3.455 0.800049 6.73005C0.800049 10.0051 3.455 12.66 6.73005 12.66Z" fill="white"/>
<path d="M10.69 6.73C10.69 6.87 10.81 7 10.96 7H12.06C12.2 7 12.33 6.88 12.33 6.73C12.33 6.58 12.21 6.46 12.06 6.46H10.96C10.81 6.46 10.69 6.58 10.69 6.73ZM10.16 4.75C10.21 4.84 10.3 4.89 10.39 4.89C10.44 4.89 10.49 4.88 10.53 4.86L11.48 4.31C11.61 4.23 11.65 4.07 11.58 3.94C11.51 3.81 11.34 3.77 11.22 3.84L10.27 4.39C10.14 4.47 10.09 4.63 10.17 4.75H10.16ZM10.16 8.71C10.08 8.84 10.13 9 10.26 9.08L11.21 9.63C11.21 9.63 11.3 9.66 11.34 9.66C11.44 9.66 11.52 9.61 11.57 9.53C11.65 9.4 11.6 9.24 11.47 9.16L10.52 8.61C10.39 8.53 10.23 8.58 10.15 8.71H10.16ZM8.62 2.94C8.54 3.07 8.59 3.23 8.72 3.31C8.77 3.33 8.81 3.34 8.86 3.34C8.95 3.34 9.04 3.29 9.09 3.2L9.64 2.25C9.72 2.12 9.67 1.96 9.54 1.89C9.41 1.81 9.25 1.86 9.17 1.99L8.62 2.94ZM8.62 10.53L9.17 11.48C9.22 11.56 9.31 11.61 9.4 11.61C9.45 11.61 9.5 11.61 9.54 11.58C9.67 11.5 9.71 11.34 9.64 11.21L9.09 10.26C9.01 10.14 8.85 10.09 8.72 10.16C8.6 10.24 8.55 10.4 8.62 10.53ZM3.84 2.26L4.39 3.21C4.44 3.3 4.53 3.35 4.62 3.35C4.67 3.35 4.71 3.34 4.76 3.32C4.88 3.24 4.93 3.08 4.86 2.95L4.31 2C4.23 1.87 4.07 1.83 3.94 1.9C3.81 1.97 3.77 2.13 3.84 2.26ZM3.84 11.21C3.76 11.34 3.81 11.5 3.94 11.58C3.98 11.61 4.03 11.61 4.08 11.61C4.17 11.61 4.26 11.56 4.31 11.48L4.86 10.53C4.94 10.4 4.89 10.24 4.76 10.16C4.63 10.08 4.47 10.13 4.39 10.26L3.84 11.21ZM3.35 5.88C3.3 6.09 3.43 6.32 3.64 6.37L6.35 7.07V12.11C6.35 12.33 6.52 12.51 6.75 12.51C6.98 12.51 7.16 12.34 7.16 12.11V6.74C7.16 6.53 7 6.35 6.79 6.34L3.85 5.58C3.64 5.53 3.41 5.65 3.36 5.87L3.35 5.88ZM1.89 3.95C1.81 4.08 1.86 4.24 1.99 4.32L2.94 4.87C2.94 4.87 3.03 4.9 3.08 4.9C3.17 4.9 3.26 4.85 3.31 4.76C3.39 4.64 3.34 4.47 3.21 4.4L2.26 3.85C2.14 3.77 1.97 3.82 1.9 3.95H1.89ZM1.89 9.54C1.94 9.62 2.03 9.67 2.12 9.67C2.16 9.67 2.21 9.67 2.25 9.64L3.2 9.09C3.33 9.01 3.38 8.85 3.3 8.72C3.22 8.59 3.06 8.55 2.93 8.62L1.98 9.17C1.85 9.25 1.81 9.41 1.88 9.54H1.89ZM1.14 6.74C1.14 6.88 1.26 7.01 1.41 7.01H2.51C2.66 7.01 2.78 6.89 2.78 6.74C2.78 6.59 2.66 6.47 2.51 6.47H1.41C1.27 6.47 1.14 6.59 1.14 6.74ZM0.81 6.74C0.81 3.46 3.46 0.81 6.73 0.81C10 0.81 12.66 3.46 12.66 6.74C12.66 10.02 10.01 12.67 6.73 12.67C3.45 12.67 0.81 10.01 0.81 6.73V6.74ZM0 6.74C0 10.45 3.02 13.47 6.73 13.47C10.44 13.47 13.46 10.45 13.46 6.74C13.46 3.03 10.45 0 6.73 0C3.01 0 0 3.02 0 6.73L0 6.74ZM6.73 2.78C6.88 2.78 7 2.66 7 2.51V1.41C7 1.27 6.88 1.14 6.73 1.14C6.58 1.14 6.46 1.26 6.46 1.41V2.51C6.46 2.66 6.58 2.78 6.73 2.78Z" fill="black"/>
</g>
<defs>
<clipPath id="clip0_494_1969">
<rect width="13.47" height="13.47" fill="white"/>
</clipPath>
</defs>
</svg>
