<svg width="96" height="96" viewBox="0 0 96 96" fill="none" xmlns="http://www.w3.org/2000/svg">
<path d="M33.387 12.1729C32.2828 12.0025 32.2358 11.9849 32.7585 11.9086C33.757 11.7559 36.1063 11.9614 37.7274 12.3432C41.5098 13.2359 44.9515 15.5265 48.6282 19.5968L49.6032 20.6774L51.0011 20.4543C56.8861 19.5145 62.8652 20.2604 67.8751 22.5569C69.2554 23.1912 71.4285 24.4481 71.6928 24.7712C71.7868 24.8769 71.9454 25.5347 72.0452 26.2454C72.4211 28.7004 72.239 30.574 71.4814 31.9777C71.0702 32.7413 71.0467 32.9821 71.3228 33.6399C71.4548 33.9108 71.6602 34.1392 71.9156 34.2991C72.171 34.459 72.4663 34.544 72.7676 34.5444C74.0128 34.5444 75.3519 32.5474 75.9686 29.7635L76.2153 28.6534L76.7027 29.2055C79.3869 32.2244 81.4895 36.3357 81.8478 39.2606L81.9418 40.0242L81.4954 39.3311C80.8465 38.2696 79.9748 37.3618 78.9405 36.6705C77.1432 35.49 75.2403 35.0847 70.2127 34.8204C65.6668 34.5855 63.0942 34.1978 60.5452 33.3697C56.2048 31.9601 54.02 30.0924 48.8632 23.3733C46.5726 20.3838 45.163 18.7334 43.7534 17.406C40.5524 14.3812 37.4102 12.7954 33.387 12.1787V12.1729Z" fill="#18181B"/>
<path d="M72.7262 18.8391C72.8378 16.8422 73.108 15.5207 73.6601 14.3166C73.7811 14.0124 73.9326 13.7211 74.1123 13.4474C74.1417 13.4474 74.0477 13.7998 73.9009 14.2285C73.5015 15.4032 73.431 17.0007 73.713 18.8626C74.0654 21.2237 74.2592 21.5643 76.7671 24.1133C77.9476 25.3115 79.3161 26.8151 79.8153 27.467L80.7198 28.6417L79.8153 27.8018C78.7112 26.774 76.1739 24.7653 75.61 24.4775C75.2341 24.2895 75.1754 24.2895 74.9464 24.5186C74.729 24.73 74.6879 25.0472 74.6527 26.5508C74.6116 28.8942 74.2885 30.3978 73.5133 31.8955C73.0963 32.7178 73.0316 32.5416 73.4075 31.6195C73.6895 30.9381 73.7188 30.6327 73.7188 28.3656C73.7188 23.8138 73.1667 22.7155 69.9775 20.8478C69.0155 20.2922 68.0277 19.7826 67.0174 19.3207C66.5195 19.1206 66.0367 18.8851 65.5725 18.6159C65.6606 18.5278 68.7735 19.4323 70.0245 19.908C71.8922 20.6246 72.1976 20.7127 72.4267 20.6305C72.5735 20.5717 72.6499 20.1312 72.7204 18.8391H72.7262ZM35.5305 26.633C33.2927 23.5671 31.9008 18.8626 32.2062 15.3445L32.2943 14.2579L32.8052 14.346C33.7685 14.5222 35.4189 15.133 36.1942 15.6029C38.3144 16.8833 39.2365 18.5689 40.1704 22.9034C40.4464 24.1721 40.8047 25.6052 40.9692 26.0985C41.2335 26.8797 42.2437 28.7063 43.0601 29.8927C43.6474 30.7502 43.2598 31.1555 41.9559 31.038C39.9648 30.8618 37.269 29.0117 35.5305 26.633ZM70.001 49.4626C59.523 45.2749 55.8346 41.6335 55.8346 35.4958C55.8346 34.5914 55.8639 33.8513 55.905 33.8513C55.9403 33.8513 56.3455 34.145 56.8037 34.515C58.9298 36.2065 61.3085 36.9289 67.8984 37.8863C71.7748 38.4501 73.9479 38.9024 75.9624 39.5661C82.3644 41.6746 86.3171 45.9504 87.2627 51.7826C87.5329 53.4741 87.3802 56.6457 86.9279 58.3196C86.5755 59.6411 85.5066 62.0198 85.2247 62.1138C85.1424 62.1431 85.0661 61.8436 85.0485 61.4325C84.9428 59.2476 83.8268 57.1156 81.9591 55.518C79.833 53.7032 76.9785 52.2524 70.001 49.4626ZM62.6476 51.207C62.5245 50.4632 62.3558 49.7276 62.1425 49.0045L61.8723 48.2116L62.3716 48.7696C63.0587 49.5331 63.605 50.5139 64.0631 51.8237C64.4155 52.8222 64.4507 53.1158 64.4507 54.7369C64.4507 56.3285 64.4037 56.6633 64.0748 57.5561C63.6235 58.88 62.867 60.0791 61.8665 61.0566C59.9518 62.9948 57.4908 64.0637 53.9375 64.5101C53.3208 64.5864 51.5235 64.7156 49.9436 64.7979C45.9556 65.0034 43.3302 65.4322 40.975 66.2545C40.7615 66.3483 40.5326 66.402 40.2996 66.413C40.2056 66.3191 41.8149 65.3676 43.1364 64.7333C45.0041 63.8346 46.866 63.3472 51.036 62.66C53.0917 62.3193 55.2237 61.9023 55.7641 61.7379C60.8621 60.1873 63.4875 56.1758 62.6476 51.207Z" fill="#18181B"/>
<path d="M67.4522 59.6881C66.0602 56.7162 65.7372 53.8441 66.5007 51.1659C66.583 50.8722 66.7122 50.6432 66.7944 50.6432C66.8707 50.6432 67.2055 50.8194 67.5227 51.0367C68.1688 51.4654 69.4491 52.1878 72.8792 54.0438C77.1549 56.3638 79.5982 58.1551 81.2545 60.2108C82.7052 62.0022 83.6039 64.052 84.0385 66.5422C84.2852 67.9518 84.1383 71.3584 83.7742 72.7797C82.623 77.2669 79.9565 80.7909 76.1389 82.8466C75.5809 83.1461 75.0817 83.3928 75.0229 83.3928C74.9701 83.3928 75.1756 82.8818 75.4752 82.2534C76.7614 79.5869 76.9083 76.9968 75.9392 74.113C75.3401 72.3451 74.1302 70.1896 71.6869 66.5422C68.8442 62.3135 68.1511 61.1799 67.4522 59.6881ZM28.0892 75.7399C31.9832 72.4743 36.8169 70.1602 41.2278 69.4437C43.4997 69.1524 45.8042 69.2417 48.0467 69.708C50.8659 70.4245 53.3915 72.0338 54.7012 73.9426C55.9816 75.8162 56.5337 77.4431 57.1093 81.0729C57.3325 82.5001 57.5791 83.939 57.6496 84.2621C58.0784 86.1415 58.9183 87.6451 59.952 88.3969C61.5965 89.5951 64.4392 89.6714 67.229 88.5907C67.5188 88.4571 67.8249 88.3624 68.1394 88.3088C68.2392 88.4086 66.8355 89.3425 65.8488 89.8359C64.6781 90.4584 63.3686 90.7736 62.0429 90.7521C59.488 90.7521 57.3677 89.46 55.594 86.8287C54.9435 85.7147 54.3628 84.5613 53.8555 83.3752C51.9877 79.1405 51.0656 77.8543 48.8984 76.4388C47.0072 75.2054 44.5697 74.9881 42.7372 75.8808C40.3292 77.0555 39.6596 80.1096 41.3864 82.0478C42.193 82.8807 43.2484 83.4289 44.3935 83.6101C44.8484 83.6725 45.3113 83.6363 45.7509 83.5039C46.1905 83.3716 46.5965 83.1463 46.9413 82.8432C47.2862 82.5402 47.5618 82.1665 47.7495 81.7475C47.9372 81.3286 48.0325 80.8741 48.0291 80.415C48.0291 79.1405 47.5358 78.4181 46.2965 77.8543C44.5991 77.0966 42.7842 77.9835 42.7901 79.5634C42.7901 80.2388 43.0897 80.6617 43.771 80.973C44.2056 81.1668 44.2173 81.1786 43.8591 81.1081C42.3085 80.7851 41.9444 78.9232 43.1895 77.6898C44.6931 76.2097 47.7942 76.8617 48.8573 78.888C49.3036 79.7396 49.3565 81.4311 48.9688 82.4531C48.0878 84.7437 45.5506 85.9477 42.9663 85.2899C41.2043 84.8435 40.4936 84.3619 38.3734 82.1947C34.6908 78.424 33.2636 77.6898 27.9541 76.8676L26.9321 76.709L28.0892 75.7399Z" fill="#18181B"/>
<path fill-rule="evenodd" clip-rule="evenodd" d="M10.8098 8.25536C23.1085 23.0914 31.5837 29.2114 32.5234 30.5035C33.2987 31.5725 33.0051 32.5357 31.6777 33.2875C30.7337 33.7617 29.7062 34.047 28.6529 34.1274C27.7895 34.1274 27.49 33.7984 27.49 33.7984C26.9908 33.3286 26.7089 33.4108 24.1422 28.8825C21.9601 25.4863 19.7516 22.1071 17.5171 18.7451C17.3291 18.5689 17.335 18.5689 23.7839 30.0395C24.8235 32.43 23.9895 33.3051 23.9895 33.6457C23.9895 34.3388 23.7957 34.7029 22.9382 35.6603C21.5051 37.2461 20.8649 39.0316 20.4009 42.7259C19.884 46.8666 18.4275 49.7915 14.3866 54.8015C12.0255 57.7322 11.6379 58.2667 11.0388 59.4531C10.287 60.9391 10.0815 61.7731 9.99924 63.6467C9.91114 65.6377 10.0815 66.9181 10.6923 68.8152C11.2209 70.4832 11.7847 71.5757 13.2119 73.7723C14.4453 75.6694 15.1501 77.079 15.1501 77.6311C15.1501 78.0657 15.2324 78.0657 17.1471 77.6369C21.7048 76.615 25.4108 74.8178 27.4959 72.6035C28.788 71.235 29.0875 70.4832 29.0993 68.6096C29.1052 67.388 29.0641 67.1296 28.7293 66.4248C28.1889 65.2795 27.2022 64.3221 25.0291 62.842C22.1746 60.9038 20.953 59.3474 20.6241 57.2037C20.3422 55.4417 20.6652 54.2024 22.2392 50.9192C23.872 47.5127 24.2773 46.062 24.5533 42.6378C24.7295 40.4236 24.9703 39.5484 25.6105 38.8436C26.2801 38.1153 26.8792 37.8687 28.5355 37.6455C31.2313 37.2755 32.9404 36.5883 34.35 35.2961C34.9151 34.8298 35.3709 34.2452 35.6855 33.5836C36.0001 32.9219 36.1657 32.1993 36.1708 31.4667L36.2295 30.2333L35.5423 29.4463C33.0697 26.5801 9.15348 6 9.00077 6C8.97141 6 9.78193 7.01609 10.8098 8.25536ZM16.5421 65.902C16.8116 65.4262 16.8917 64.8662 16.7665 64.3338C16.6413 63.8015 16.32 63.3359 15.8667 63.03C14.9857 62.4427 13.6055 62.7246 13.6055 63.4822C13.6055 63.7172 13.7347 63.8875 14.0283 64.0343C14.5217 64.2869 14.5569 64.5688 14.1693 65.1503C13.7758 65.7317 13.811 66.2427 14.2574 66.5951C14.9798 67.1531 16.0018 66.8477 16.5421 65.902ZM37.9269 38.2974C36.6641 38.6792 35.4366 40.0124 35.049 41.4103C34.8199 42.2619 34.955 43.7596 35.3015 44.2177C35.8654 44.9636 36.4057 45.1575 37.8799 45.1516C40.7578 45.134 43.2599 43.9064 43.5535 42.3676C43.7885 41.1107 42.6902 39.3722 41.1749 38.6028C40.1455 38.1849 39.0161 38.0787 37.9269 38.2974ZM41.2982 40.911C41.7387 40.2826 41.5449 39.6072 40.7872 39.149C39.3541 38.2739 37.1751 38.9963 37.1751 40.3472C37.1751 41.0226 38.3087 41.7568 39.3482 41.7568C40.0413 41.7568 40.9928 41.3457 41.2982 40.911Z" fill="#18181B"/>
</svg>
