<svg width="30" height="32" viewBox="0 0 30 32" fill="none" xmlns="http://www.w3.org/2000/svg">
<g clip-path="url(#clip0_475_1812)">
<path d="M8.8577 3.3088C8.45663 3.24693 8.43956 3.24053 8.62943 3.2128C8.9921 3.15733 9.84543 3.232 10.4342 3.37066C11.8081 3.69493 13.0582 4.52693 14.3937 6.00533L14.7478 6.39786L15.2556 6.3168C17.3932 5.97546 19.5649 6.2464 21.3846 7.08053C21.886 7.31093 22.6753 7.76746 22.7713 7.8848C22.8054 7.9232 22.863 8.16213 22.8993 8.42026C23.0358 9.312 22.9697 9.99253 22.6945 10.5024C22.5452 10.7797 22.5366 10.8672 22.6369 11.1061C22.6848 11.2045 22.7594 11.2875 22.8522 11.3456C22.945 11.4037 23.0522 11.4345 23.1617 11.4347C23.614 11.4347 24.1004 10.7093 24.3244 9.69813L24.414 9.29493L24.591 9.49546C25.566 10.592 26.3297 12.0853 26.4598 13.1477L26.494 13.4251L26.3318 13.1733C26.0962 12.7878 25.7795 12.458 25.4038 12.2069C24.751 11.7781 24.0598 11.6309 22.2337 11.5349C20.5825 11.4496 19.6481 11.3088 18.7222 11.008C17.1457 10.496 16.3521 9.8176 14.479 7.37706C13.647 6.2912 13.135 5.69173 12.623 5.2096C11.4604 4.11093 10.319 3.53493 8.8577 3.31093V3.3088Z" fill="#EB79F7"/>
<path d="M23.1466 5.73014C23.1872 5.0048 23.2853 4.5248 23.4858 4.08747C23.5298 3.97694 23.5848 3.87116 23.6501 3.77174C23.6608 3.77174 23.6266 3.89974 23.5733 4.05547C23.4282 4.48214 23.4026 5.0624 23.505 5.73867C23.633 6.59627 23.7034 6.72 24.6144 7.64587C25.0432 8.08107 25.5402 8.6272 25.7216 8.864L26.0501 9.29067L25.7216 8.9856C25.3205 8.61227 24.3989 7.88267 24.1941 7.77814C24.0576 7.70987 24.0362 7.70987 23.953 7.79307C23.8741 7.86987 23.8592 7.98507 23.8464 8.5312C23.8314 9.3824 23.7141 9.92854 23.4325 10.4725C23.281 10.7712 23.2576 10.7072 23.3941 10.3723C23.4965 10.1248 23.5072 10.0139 23.5072 9.1904C23.5072 7.53707 23.3066 7.13814 22.1482 6.45974C21.7988 6.25792 21.44 6.07282 21.073 5.90507C20.8922 5.83238 20.7168 5.74683 20.5482 5.64907C20.5802 5.61707 21.7109 5.9456 22.1653 6.1184C22.8437 6.37867 22.9546 6.41067 23.0378 6.3808C23.0912 6.35947 23.1189 6.19947 23.1445 5.73014H23.1466ZM9.63624 8.56107C8.82344 7.44747 8.31784 5.73867 8.42878 4.4608L8.46078 4.06614L8.64638 4.09814C8.99624 4.16214 9.59571 4.384 9.87731 4.55467C10.6474 5.01974 10.9824 5.632 11.3216 7.2064C11.4218 7.6672 11.552 8.18774 11.6117 8.36694C11.7077 8.65067 12.0746 9.31414 12.3712 9.74507C12.5845 10.0565 12.4437 10.2037 11.9701 10.1611C11.2469 10.0971 10.2677 9.42507 9.63624 8.56107ZM22.1568 16.8533C18.3509 15.3323 17.0112 14.0096 17.0112 11.7803C17.0112 11.4517 17.0218 11.1829 17.0368 11.1829C17.0496 11.1829 17.1968 11.2896 17.3632 11.424C18.1354 12.0384 18.9994 12.3008 21.393 12.6485C22.801 12.8533 23.5904 13.0176 24.3221 13.2587C26.6474 14.0245 28.0832 15.5776 28.4266 17.696C28.5248 18.3104 28.4693 19.4624 28.305 20.0704C28.177 20.5504 27.7888 21.4144 27.6864 21.4485C27.6565 21.4592 27.6288 21.3504 27.6224 21.2011C27.584 20.4075 27.1786 19.6331 26.5002 19.0528C25.728 18.3936 24.6912 17.8667 22.1568 16.8533ZM19.4858 17.4869C19.4411 17.2168 19.3799 16.9496 19.3024 16.6869L19.2042 16.3989L19.3856 16.6016C19.6352 16.8789 19.8336 17.2352 20 17.7109C20.128 18.0736 20.1408 18.1803 20.1408 18.7691C20.1408 19.3472 20.1237 19.4688 20.0042 19.7931C19.8403 20.2739 19.5655 20.7095 19.2021 21.0645C18.5066 21.7685 17.6128 22.1568 16.3221 22.3189C16.0981 22.3467 15.4453 22.3936 14.8714 22.4235C13.4229 22.4981 12.4693 22.6539 11.6138 22.9525C11.5363 22.9866 11.4531 23.0061 11.3685 23.0101C11.3344 22.976 11.9189 22.6304 12.3989 22.4C13.0773 22.0736 13.7536 21.8965 15.2682 21.6469C16.0149 21.5232 16.7893 21.3717 16.9856 21.312C18.8373 20.7488 19.7909 19.2917 19.4858 17.4869Z" fill="#EB79F7"/>
<path d="M21.2311 20.5675C20.7255 19.488 20.6081 18.4448 20.8855 17.472C20.9153 17.3653 20.9623 17.2821 20.9921 17.2821C21.0199 17.2821 21.1415 17.3461 21.2567 17.4251C21.4913 17.5808 21.9564 17.8432 23.2023 18.5173C24.7553 19.36 25.6428 20.0107 26.2444 20.7573C26.7713 21.408 27.0977 22.1525 27.2556 23.0571C27.3452 23.5691 27.2919 24.8064 27.1596 25.3227C26.7415 26.9525 25.7729 28.2325 24.3863 28.9792C24.1836 29.088 24.0023 29.1776 23.9809 29.1776C23.9617 29.1776 24.0364 28.992 24.1452 28.7637C24.6124 27.7952 24.6657 26.8544 24.3137 25.8069C24.0961 25.1648 23.6567 24.3819 22.7692 23.0571C21.7367 21.5211 21.4849 21.1093 21.2311 20.5675ZM6.93345 26.3979C8.34785 25.2117 10.1036 24.3712 11.7057 24.1109C12.5309 24.0051 13.368 24.0376 14.1825 24.2069C15.2065 24.4672 16.1239 25.0517 16.5996 25.7451C17.0647 26.4256 17.2652 27.0165 17.4743 28.3349C17.5553 28.8533 17.6449 29.376 17.6705 29.4933C17.8263 30.176 18.1313 30.7221 18.5068 30.9952C19.1041 31.4304 20.1367 31.4581 21.15 31.0656C21.2552 31.0171 21.3664 30.9827 21.4807 30.9632C21.5169 30.9995 21.0071 31.3387 20.6487 31.5179C20.2234 31.744 19.7478 31.8585 19.2663 31.8507C18.3383 31.8507 17.5681 31.3813 16.9239 30.4256C16.6876 30.021 16.4767 29.602 16.2924 29.1712C15.614 27.6331 15.2791 27.1659 14.4919 26.6517C13.8049 26.2037 12.9196 26.1248 12.254 26.4491C11.3793 26.8757 11.1361 27.9851 11.7633 28.6891C12.0563 28.9916 12.4396 29.1907 12.8556 29.2565C13.0208 29.2792 13.1889 29.266 13.3486 29.218C13.5083 29.1699 13.6557 29.0881 13.781 28.978C13.9063 28.8679 14.0064 28.7322 14.0745 28.58C14.1427 28.4278 14.1774 28.2627 14.1761 28.096C14.1761 27.6331 13.9969 27.3707 13.5468 27.1659C12.9303 26.8907 12.2711 27.2128 12.2732 27.7867C12.2732 28.032 12.382 28.1856 12.6295 28.2987C12.7873 28.3691 12.7916 28.3733 12.6615 28.3477C12.0983 28.2304 11.966 27.5541 12.4183 27.1061C12.9644 26.5685 14.0908 26.8053 14.4769 27.5413C14.6391 27.8507 14.6583 28.4651 14.5175 28.8363C14.1975 29.6683 13.2759 30.1056 12.3372 29.8667C11.6972 29.7045 11.4391 29.5296 10.6689 28.7424C9.33132 27.3728 8.81292 27.1061 6.88438 26.8075L6.51318 26.7499L6.93345 26.3979Z" fill="#EB79F7"/>
<path fill-rule="evenodd" clip-rule="evenodd" d="M0.657103 1.88587C5.1243 7.27467 8.2027 9.4976 8.54404 9.96693C8.82564 10.3552 8.71897 10.7051 8.23684 10.9781C7.89397 11.1504 7.52076 11.254 7.13817 11.2832C6.82457 11.2832 6.71577 11.1637 6.71577 11.1637C6.53444 10.9931 6.43204 11.0229 5.49977 9.37813C4.70717 8.14455 3.90501 6.91714 3.09337 5.696C3.0251 5.632 3.02724 5.632 5.36964 9.7984C5.74724 10.6667 5.4443 10.9845 5.4443 11.1083C5.4443 11.36 5.3739 11.4923 5.06244 11.84C4.5419 12.416 4.30937 13.0645 4.14084 14.4064C3.9531 15.9104 3.42404 16.9728 1.9563 18.7925C1.0987 19.8571 0.957903 20.0512 0.740303 20.4821C0.467237 21.0219 0.39257 21.3248 0.362703 22.0053C0.330703 22.7285 0.39257 23.1936 0.614437 23.8827C0.806437 24.4885 1.01124 24.8853 1.52964 25.6832C1.97764 26.3723 2.23364 26.8843 2.23364 27.0848C2.23364 27.2427 2.2635 27.2427 2.95897 27.0869C4.61444 26.7157 5.96057 26.0629 6.7179 25.2587C7.18724 24.7616 7.29604 24.4885 7.3003 23.808C7.30244 23.3643 7.2875 23.2704 7.1659 23.0144C6.96964 22.5984 6.61124 22.2507 5.8219 21.7131C4.7851 21.0091 4.34137 20.4437 4.2219 19.6651C4.1195 19.0251 4.23684 18.5749 4.80857 17.3824C5.40164 16.1451 5.54884 15.6181 5.6491 14.3744C5.7131 13.5701 5.80057 13.2523 6.0331 12.9963C6.2763 12.7317 6.4939 12.6421 7.0955 12.5611C8.0747 12.4267 8.6955 12.1771 9.2075 11.7077C9.41273 11.5383 9.57831 11.326 9.69258 11.0857C9.80684 10.8454 9.86701 10.5829 9.86884 10.3168L9.89017 9.8688L9.64057 9.58293C8.74244 8.54187 0.0555035 1.06667 3.67998e-05 1.06667C-0.0106299 1.06667 0.28377 1.43573 0.657103 1.88587ZM2.73924 22.8245C2.83711 22.6517 2.86621 22.4483 2.82074 22.2549C2.77526 22.0616 2.65856 21.8924 2.4939 21.7813C2.1739 21.568 1.67257 21.6704 1.67257 21.9456C1.67257 22.0309 1.7195 22.0928 1.82617 22.1461C2.00537 22.2379 2.01817 22.3403 1.87737 22.5515C1.73444 22.7627 1.74724 22.9483 1.90937 23.0763C2.17177 23.2789 2.54297 23.168 2.73924 22.8245ZM10.5067 12.7979C10.048 12.9365 9.60217 13.4208 9.46137 13.9285C9.37817 14.2379 9.42724 14.7819 9.5531 14.9483C9.7579 15.2192 9.95417 15.2896 10.4896 15.2875C11.535 15.2811 12.4438 14.8352 12.5504 14.2763C12.6358 13.8197 12.2368 13.1883 11.6864 12.9088C11.3126 12.757 10.9023 12.7184 10.5067 12.7979ZM11.7312 13.7472C11.8912 13.5189 11.8208 13.2736 11.5456 13.1072C11.0251 12.7893 10.2336 13.0517 10.2336 13.5424C10.2336 13.7877 10.6454 14.0544 11.023 14.0544C11.2747 14.0544 11.6203 13.9051 11.7312 13.7472Z" fill="#EB79F7"/>
</g>
<defs>
<clipPath id="clip0_475_1812">
<rect width="29.8667" height="32" fill="white"/>
</clipPath>
</defs>
</svg>
