<svg id="Layer_2" data-name="Layer 2" xmlns="http://www.w3.org/2000/svg" viewBox="0 0 35.3 56.64">
  <g id="Layer_1-2" data-name="Layer 1">
    <g>
      <path  fill="#cbccbe" d="m.51,46.92c0,1.42.54,2.82,1.6,4.09,3.27,3.88,9.32,5.63,15.5,5.63s12.29-1.76,15.56-5.63c1.06-1.27,1.6-2.66,1.6-4.09v-4.81h-2.42c-.58,4.72-9.66,6.9-14.71,6.9-6.39,0-14.2-2.39-14.74-6.84l-2.39-.06v4.81Zm16.74-27.03c9.96,0,18.04-2.82,18.04-7.24v-4.96c0-1.21-.58-2.36-1.67-3.39-.94-.88-2.27-1.67-3.91-2.3-3.24-1.3-7.54-2-12.08-2S8.81.7,5.57,2c-1.67.64-2.97,1.42-3.91,2.3-1.09,1.03-1.67,2.18-1.67,3.39v4.96c0,3.75,9.26,7.24,17.26,7.24Z"/>
      <path fill= "#ff9400" d="m2.94,39.11c.33-3.24,3.57-5.06,7.3-6.84,2.09-1,3.84-1.97,3.84-3.57,0-1.76-1.67-3-3.78-4.69-2.18-1.79-4.09-3.69-5.24-5.87l.51.21c3.24,1.3,7.54,2,12.08,2s8.84-.7,12.08-2l.51-.21c-1.15,2.18-3.06,4.09-5.24,5.87-2.12,1.7-3.78,2.94-3.78,4.69,0,1.6,1.76,2.57,3.84,3.57,3.72,1.79,6.96,3.6,7.3,6.84-1.06-.64-2.36-1.36-3.91-2.18-4.57-2.36-8.2-3.57-10.81-3.57s-6.24,1.21-10.81,3.57c-1.54.82-2.85,1.54-3.91,2.18Zm-.03,7.81v-.33c3.51,3.39,9.11,4.81,14.74,4.81s11.2-1.42,14.74-4.78v.3c0,.85-.33,1.73-1.03,2.54-3,3.48-8.66,4.81-13.68,4.81s-10.75-1.33-13.74-4.81c-.7-.82-1.03-1.7-1.03-2.54ZM2.36,7.69c0-1.18,1.54-2.48,4.09-3.48,2.97-1.18,6.93-1.85,11.2-1.85s8.23.67,11.2,1.85c2.54,1,4.09,2.3,4.09,3.48s-1.54,2.51-4.09,3.51c-2.97,1.18-6.96,1.82-11.2,1.82s-8.23-.64-11.2-1.82c-2.54-1-4.09-2.33-4.09-3.51Zm0,4.96v-.97c.85.64,1.94,1.21,3.21,1.73,3.24,1.27,7.54,2,12.08,2s8.84-.73,12.08-2c1.27-.51,2.36-1.09,3.21-1.73v.97c0,1.18-1.54,2.48-4.09,3.48-2.97,1.18-6.96,1.85-11.2,1.85s-8.23-.67-11.2-1.85c-2.54-1-4.09-2.3-4.09-3.48Zm15.26,43.99c6.18,0,12.29-1.76,15.56-5.63,1.06-1.27,1.6-2.66,1.6-4.09v-7.27c0-4.72-3.84-7.21-8.69-9.54-1.82-.88-2.48-1.15-2.48-1.54,0-.54.79-1.15,2.91-2.85,2.69-2.15,6.02-5.03,6.93-9.54l.18-.15c1.09-1,1.67-2.18,1.67-3.39v-4.96c0-1.21-.58-2.36-1.67-3.39-.94-.88-2.27-1.67-3.91-2.3-3.24-1.3-7.54-2-12.08-2S8.81.7,5.57,2c-1.67.64-2.97,1.42-3.91,2.3-1.09,1.03-1.67,2.18-1.67,3.39v4.96c0,1.21.58,2.39,1.67,3.39l.18.15c.91,4.51,4.24,7.39,6.93,9.54,2.12,1.7,2.91,2.3,2.91,2.85,0,.39-.67.67-2.48,1.54-4.84,2.33-8.69,4.81-8.69,9.54v7.27c0,1.42.54,2.82,1.6,4.09,3.27,3.88,9.32,5.63,15.5,5.63Z"/>
      <path fill="#fff" d="m2.94,39.11c.33-3.24,3.57-5.06,7.3-6.84,2.09-1,3.84-1.97,3.84-3.57,0-1.76-1.67-3-3.78-4.69-2.18-1.79-4.09-3.69-5.24-5.87l.51.21c3.24,1.3,7.54,2,12.08,2s8.84-.7,12.08-2l.51-.21c-1.15,2.18-3.06,4.09-5.24,5.87-2.12,1.7-3.78,2.94-3.78,4.69,0,1.6,1.76,2.57,3.84,3.57,3.72,1.79,6.96,3.6,7.3,6.84-1.06-.64-2.36-1.36-3.91-2.18-4.57-2.36-8.2-3.57-10.81-3.57s-6.24,1.21-10.81,3.57c-1.54.82-2.85,1.54-3.91,2.18Z"/>
      <path  d="m2.94,39.11c.33-3.24,3.57-5.06,7.3-6.84,2.09-1,3.84-1.97,3.84-3.57,0-1.76-1.67-3-3.78-4.69-2.18-1.79-4.09-3.69-5.24-5.87l.51.21c3.24,1.3,7.54,2,12.08,2s8.84-.7,12.08-2l.51-.21c-1.15,2.18-3.06,4.09-5.24,5.87-2.12,1.7-3.78,2.94-3.78,4.69,0,1.6,1.76,2.57,3.84,3.57,3.72,1.79,6.96,3.6,7.3,6.84-1.06-.64-2.36-1.36-3.91-2.18-4.57-2.36-8.2-3.57-10.81-3.57s-6.24,1.21-10.81,3.57c-1.54.82-2.85,1.54-3.91,2.18Zm-.03,3.06v-.24c1-.61,2.88-1.76,5.06-2.91,3.63-1.82,7.3-3.27,9.69-3.27s6.05,1.45,9.69,3.27c2.18,1.15,4.06,2.27,5.06,2.91-.06.79-.36,1.54-1,2.3-2.94,3.42-8.57,4.78-13.74,4.78-6.39,0-14.2-2.39-14.74-6.84Zm0,4.75v-.33c3.51,3.39,9.11,4.81,14.74,4.81s11.2-1.42,14.74-4.78v.3c0,.85-.33,1.73-1.03,2.54-3,3.48-8.66,4.81-13.68,4.81s-10.75-1.33-13.74-4.81c-.7-.82-1.03-1.7-1.03-2.54ZM2.36,7.69c0-1.18,1.54-2.48,4.09-3.48,2.97-1.18,6.93-1.85,11.2-1.85s8.23.67,11.2,1.85c2.54,1,4.09,2.3,4.09,3.48s-1.54,2.51-4.09,3.51c-2.97,1.18-6.96,1.82-11.2,1.82s-8.23-.64-11.2-1.82c-2.54-1-4.09-2.33-4.09-3.51Zm0,4.96v-.97c.85.64,1.94,1.21,3.21,1.73,3.24,1.27,7.54,2,12.08,2s8.84-.73,12.08-2c1.27-.51,2.36-1.09,3.21-1.73v.97c0,1.18-1.54,2.48-4.09,3.48-2.97,1.18-6.96,1.85-11.2,1.85s-8.23-.67-11.2-1.85c-2.54-1-4.09-2.3-4.09-3.48Zm15.26,43.99c6.18,0,12.29-1.76,15.56-5.63,1.06-1.27,1.6-2.66,1.6-4.09v-7.27c0-4.72-3.84-7.21-8.69-9.54-1.82-.88-2.48-1.15-2.48-1.54,0-.54.79-1.15,2.91-2.85,2.69-2.15,6.02-5.03,6.93-9.54l.18-.15c1.09-1,1.67-2.18,1.67-3.39v-4.96c0-1.21-.58-2.36-1.67-3.39-.94-.88-2.27-1.67-3.91-2.3-3.24-1.3-7.54-2-12.08-2S8.81.7,5.57,2c-1.67.64-2.97,1.42-3.91,2.3-1.09,1.03-1.67,2.18-1.67,3.39v4.96c0,1.21.58,2.39,1.67,3.39l.18.15c.91,4.51,4.24,7.39,6.93,9.54,2.12,1.7,2.91,2.3,2.91,2.85,0,.39-.67.67-2.48,1.54-4.84,2.33-8.69,4.81-8.69,9.54v7.27c0,1.42.54,2.82,1.6,4.09,3.27,3.88,9.32,5.63,15.5,5.63Z"/>
    </g>
  </g>
</svg>