<svg width="16" height="16" viewBox="0 0 16 16" fill="none" xmlns="http://www.w3.org/2000/svg">
<g clip-path="url(#clip0_470_1598)">
<path d="M8 16C12.42 16 16 12.42 16 8C16 3.58 12.42 0 8 0C3.58 0 0 3.58 0 8C0 12.42 3.58 16 8 16ZM4.695 7.2C4.925 7.2 5.135 7.29 5.295 7.47L7.205 9.63L7.205 4.255C7.205 3.815 7.565 3.455 8.005 3.455C8.445 3.455 8.805 3.815 8.805 4.255L8.805 9.63L10.715 7.47C10.875 7.29 11.085 7.2 11.315 7.2C11.755 7.2 12.115 7.56 12.115 8C12.115 8.19 12.055 8.38 11.915 8.53L8.67 12.205C8.51 12.385 8.3 12.545 8.01 12.545C7.72 12.545 7.51 12.385 7.35 12.205L4.105 8.53C3.965 8.38 3.905 8.19 3.905 8C3.905 7.56 4.265 7.2 4.705 7.2H4.695Z" fill="black"/>
</g>
<defs>
<clipPath id="clip0_470_1598">
<rect width="16" height="16" fill="white"/>
</clipPath>
</defs>
</svg>
