<svg width="100" height="100" viewBox="0 0 100 100" fill="none" xmlns="http://www.w3.org/2000/svg">
<path d="M50 98C76.5097 98 98 76.5097 98 50C98 23.4903 76.5097 2 50 2C23.4903 2 2 23.4903 2 50C2 76.5097 23.4903 98 50 98Z" fill="white"/>
<path fill-rule="evenodd" clip-rule="evenodd" d="M50 3.2471C24.1791 3.2471 3.24711 24.1791 3.24711 50C3.24711 75.8209 24.1791 96.7529 50 96.7529C75.8209 96.7529 96.7529 75.8209 96.7529 50C96.7529 24.1791 75.8209 3.2471 50 3.2471ZM0.75293 50C0.75293 22.8016 22.8016 0.75293 50 0.75293C77.1984 0.75293 99.2471 22.8016 99.2471 50C99.2471 77.1984 77.1984 99.2471 50 99.2471C22.8016 99.2471 0.75293 77.1984 0.75293 50Z" fill="black"/>
<path d="M56.5125 27.658H27.5547V56.6157H56.5125V27.658Z" fill="black"/>
<path fill-rule="evenodd" clip-rule="evenodd" d="M26.3076 26.4109H57.7596V57.8629H26.3076V26.4109ZM28.8018 28.9051V55.3687H55.2654V28.9051H28.8018Z" fill="black"/>
<path d="M72.4451 43.384H43.4873V72.3418H72.4451V43.384Z" fill="black"/>
<path fill-rule="evenodd" clip-rule="evenodd" d="M42.2402 42.137H73.6922V73.5889H42.2402V42.137ZM44.7344 44.6311V71.0948H71.198V44.6311H44.7344Z" fill="black"/>
<path d="M56.5123 43.384H43.4375V56.4588H56.5123V43.384Z" fill="white"/>
<path fill-rule="evenodd" clip-rule="evenodd" d="M42.1904 42.137H57.7594V57.7059H42.1904V42.137ZM44.6846 44.6311V55.2117H55.2652V44.6311H44.6846Z" fill="black"/>
</svg>
