<svg width="218" height="32" viewBox="0 0 218 32" fill="none" xmlns="http://www.w3.org/2000/svg">
<g clip-path="url(#clip0_489_1789)">
<path d="M42.3922 22.8727C42.2718 22.8727 42.1648 22.8459 42.0712 22.7923C41.9774 22.7522 41.9307 22.692 41.9307 22.6117C41.9307 22.411 42.0979 22.2773 42.4323 22.2104C42.9408 22.1033 43.302 21.9561 43.5161 21.7689C43.7302 21.5815 43.8372 21.2671 43.8372 20.8256V11.9954C43.8372 11.487 43.7502 11.1124 43.5763 10.8716C43.4157 10.6308 43.0946 10.4569 42.613 10.3498C42.4257 10.3097 42.2919 10.2562 42.2116 10.1892C42.1313 10.109 42.0912 10.0287 42.0912 9.94844C42.0912 9.8548 42.1313 9.7879 42.2116 9.74773C42.3053 9.69426 42.4257 9.66746 42.5728 9.66746C42.894 9.66746 43.1882 9.67414 43.4559 9.68751C43.7368 9.68751 44.0044 9.69426 44.2586 9.70763C44.5128 9.721 44.7737 9.72768 45.0413 9.72768C45.3356 9.72768 45.6099 9.71431 45.8641 9.68751C46.1317 9.66078 46.3993 9.63404 46.6669 9.60724C46.9478 9.58051 47.2689 9.56714 47.6301 9.56714C49.2223 9.56714 50.4932 9.90159 51.4432 10.5705C52.3931 11.2395 52.868 12.1626 52.868 13.34C52.868 14.1695 52.6941 14.9388 52.3463 15.6479C52.0118 16.3436 51.49 16.9055 50.7809 17.3337C50.0852 17.7618 49.2022 17.9758 48.1318 17.9758C47.7974 17.9758 47.5432 17.9291 47.3692 17.8354C47.1953 17.7284 47.1083 17.6147 47.1083 17.4942C47.1083 17.414 47.1485 17.3471 47.2288 17.2935C47.3224 17.2267 47.4027 17.1932 47.4696 17.1932C47.59 17.1932 47.7037 17.2066 47.8108 17.2334C47.9311 17.2467 48.1051 17.2534 48.3326 17.2534C48.9613 17.2534 49.4363 16.9323 49.7574 16.2901C50.0919 15.6479 50.2591 14.7916 50.2591 13.7213C50.2591 12.5439 50.0183 11.6877 49.5367 11.1526C49.0684 10.604 48.4329 10.3297 47.6301 10.3297C47.2555 10.3297 46.9612 10.41 46.7471 10.5705C46.5464 10.7177 46.4461 10.9585 46.4461 11.293L46.426 20.7052C46.426 21.1468 46.5331 21.4812 46.7471 21.7086C46.9746 21.9227 47.3559 22.0899 47.891 22.2104C48.0649 22.2371 48.1921 22.284 48.2723 22.3509C48.3526 22.4043 48.3928 22.4846 48.3928 22.5917C48.3928 22.6853 48.3526 22.7522 48.2723 22.7923C48.2054 22.8325 48.0984 22.8525 47.9513 22.8525C47.6435 22.8525 47.3291 22.8392 47.008 22.8124C46.6869 22.7991 46.3725 22.7856 46.0648 22.7723C45.7705 22.7589 45.4895 22.7522 45.2219 22.7522C44.9276 22.7522 44.6198 22.7589 44.2987 22.7723C43.991 22.7856 43.6766 22.8058 43.3555 22.8325C43.0344 22.8592 42.7133 22.8727 42.3922 22.8727Z" fill="black"/>
<path d="M59.8493 23.1938C59.7423 23.1938 59.6887 23.1336 59.6887 23.0132C59.6887 22.866 59.7021 22.6587 59.7289 22.391C59.769 22.1235 59.7891 21.9094 59.7891 21.7489C59.7891 21.7087 59.7824 21.6753 59.769 21.6485C59.769 21.6084 59.769 21.5816 59.769 21.5682C59.3543 22.0231 58.8659 22.391 58.304 22.672C57.7554 22.953 57.1735 23.0934 56.5581 23.0934C56.1299 23.0934 55.7419 22.9797 55.3941 22.7523C55.0596 22.5248 54.792 22.2105 54.5913 21.809C54.404 21.4077 54.3104 20.9394 54.3104 20.4043V16.5511C54.3104 16.2433 54.2502 16.0025 54.1297 15.8286C54.0093 15.6413 53.7953 15.5008 53.4876 15.4071C53.4073 15.3938 53.3337 15.3604 53.2668 15.3068C53.2133 15.2533 53.1865 15.173 53.1865 15.066C53.1865 14.9589 53.2133 14.8787 53.2668 14.8252C53.3337 14.7717 53.4073 14.7382 53.4876 14.7248C54.0227 14.6981 54.4843 14.6512 54.8723 14.5843C55.2602 14.5041 55.675 14.4104 56.1165 14.3034C56.17 14.2766 56.2236 14.2566 56.2771 14.2432C56.3306 14.2298 56.3841 14.2231 56.4376 14.2231C56.6115 14.2231 56.6918 14.3168 56.6784 14.5041C56.6383 14.8118 56.6049 15.0727 56.5781 15.2868C56.5513 15.4874 56.538 15.7417 56.538 16.0494V19.9226C56.538 20.2437 56.5982 20.5313 56.7186 20.7856C56.839 21.0398 57.0062 21.2405 57.2203 21.3876C57.4344 21.5348 57.6685 21.6151 57.9227 21.6284C58.1769 21.6284 58.411 21.6017 58.6251 21.5482C58.8526 21.4946 59.0733 21.3743 59.2874 21.1869C59.3944 21.1067 59.5148 20.9595 59.6486 20.7454C59.7824 20.518 59.8493 20.2236 59.8493 19.8624V16.4909C59.8493 16.2366 59.7891 16.036 59.6687 15.8888C59.5616 15.7283 59.4144 15.6079 59.2272 15.5276C59.0533 15.4473 58.8726 15.4071 58.6853 15.4071C58.5382 15.3938 58.4244 15.3604 58.3441 15.3068C58.2639 15.2533 58.2238 15.1463 58.2238 14.9857C58.2238 14.8519 58.2705 14.7583 58.3642 14.7048C58.4579 14.6512 58.5649 14.6245 58.6853 14.6245C59.274 14.5843 59.749 14.5509 60.1102 14.5242C60.4714 14.4974 60.7724 14.464 61.0133 14.4238C61.2675 14.3837 61.515 14.3301 61.7558 14.2632C61.7959 14.2499 61.8361 14.2432 61.8762 14.2432C61.9297 14.2298 61.9698 14.2231 61.9967 14.2231C62.1839 14.2231 62.2776 14.2967 62.2776 14.4439C62.2776 14.484 62.2709 14.5309 62.2575 14.5843C62.2575 14.6245 62.2441 14.6713 62.2174 14.7248C62.204 14.765 62.1839 14.8787 62.1572 15.066C62.1438 15.2533 62.1237 15.4473 62.097 15.648C62.0836 15.8487 62.0769 16.0025 62.0769 16.1096V20.7655C62.0769 21.0866 62.1103 21.3074 62.1772 21.4277C62.2575 21.5482 62.3445 21.6084 62.4382 21.6084C62.5184 21.6084 62.6321 21.6084 62.7793 21.6084C62.9398 21.595 63.0536 21.5883 63.1205 21.5883C63.2275 21.5883 63.3145 21.6151 63.3814 21.6686C63.4483 21.7221 63.4817 21.809 63.4817 21.9295C63.4817 22.0499 63.4549 22.1435 63.4014 22.2105C63.3613 22.2639 63.281 22.2974 63.1606 22.3108C62.5585 22.3643 62.0234 22.4713 61.5551 22.6319C61.0869 22.779 60.6788 22.9262 60.331 23.0734C60.2507 23.1002 60.1637 23.1269 60.07 23.1536C59.9898 23.1804 59.9162 23.1938 59.8493 23.1938Z" fill="black"/>
<path d="M68.478 23.0733C68.1169 23.0733 67.7759 23.0399 67.4548 22.973C67.1471 22.9195 66.8594 22.8526 66.5918 22.7723C66.351 22.7054 66.1369 22.6519 65.9496 22.6118C65.7757 22.5582 65.6352 22.5315 65.5282 22.5315C65.4212 22.5315 65.3141 22.5582 65.2071 22.6118C65.1001 22.6653 65.0064 22.7255 64.9261 22.7924C64.8191 22.8726 64.7322 22.9128 64.6652 22.9128C64.5716 22.9128 64.4913 22.8861 64.4244 22.8325C64.3575 22.7924 64.324 22.7389 64.324 22.672C64.324 22.5516 64.3575 22.3241 64.4244 21.9897C64.4913 21.6551 64.5181 21.2739 64.5047 20.8458L64.4645 11.6543C64.4645 11.2931 64.3976 10.9854 64.2639 10.7311C64.1435 10.4636 63.9294 10.2896 63.6217 10.2093C63.5681 10.1826 63.5147 10.1492 63.4611 10.109C63.4076 10.0555 63.3809 9.9819 63.3809 9.88826C63.3809 9.80799 63.4009 9.74777 63.4411 9.70767C63.4945 9.6675 63.5481 9.64077 63.6016 9.6274C63.8558 9.57387 64.1635 9.48691 64.5248 9.36647C64.886 9.2461 65.2338 9.12566 65.5683 9.00522C65.9028 8.87149 66.157 8.77778 66.3309 8.72431C66.4379 8.67078 66.5182 8.64404 66.5717 8.64404C66.6386 8.64404 66.6855 8.66409 66.7122 8.70419C66.739 8.74436 66.7524 8.79122 66.7524 8.84468C66.7524 8.92495 66.739 9.11898 66.7122 9.42669C66.6855 9.72104 66.6721 10.0421 66.6721 10.39V14.6245C66.6721 14.8252 66.6855 14.979 66.7122 15.086C66.739 15.1797 66.7858 15.2265 66.8527 15.2265C67.2674 14.9188 67.7156 14.678 68.1972 14.504C68.6792 14.3301 69.1275 14.2432 69.542 14.2432C70.2374 14.2432 70.8598 14.4238 71.408 14.785C71.9569 15.1463 72.3916 15.6346 72.713 16.2501C73.0472 16.8521 73.2146 17.5478 73.2146 18.3371C73.2146 19.2603 73.0141 20.0831 72.6124 20.8056C72.2114 21.5147 71.6558 22.0699 70.9469 22.4713C70.2374 22.8726 69.4151 23.0733 68.478 23.0733ZM68.8595 22.2907C69.2747 22.2907 69.6223 22.1368 69.9032 21.8291C70.1975 21.508 70.425 21.0866 70.5857 20.5648C70.7457 20.043 70.8261 19.461 70.8261 18.8188C70.8261 18.297 70.7457 17.7619 70.5857 17.2133C70.4386 16.6648 70.1975 16.2032 69.8627 15.8286C69.5285 15.454 69.0937 15.2667 68.5584 15.2667C68.2242 15.2667 67.8829 15.3202 67.5351 15.4272C67.1872 15.5342 66.8996 15.6881 66.6721 15.8888V20.043C66.6721 20.4845 66.7725 20.8792 66.9732 21.2271C67.1872 21.5615 67.4615 21.8224 67.7959 22.0097C68.1304 22.1971 68.4848 22.2907 68.8595 22.2907Z" fill="black"/>
<path d="M73.6071 22.8526C73.5004 22.8526 73.4066 22.8325 73.3262 22.7924C73.2459 22.7523 73.2061 22.692 73.2061 22.6118C73.2061 22.5048 73.2459 22.4245 73.3262 22.371C73.4201 22.3174 73.5335 22.2639 73.6672 22.2104C73.8683 22.1435 74.0486 22.0699 74.2093 21.9897C74.3834 21.9094 74.4699 21.7287 74.4699 21.4478V11.6543C74.4699 11.2797 74.4098 10.9653 74.2896 10.7111C74.1823 10.4435 73.9615 10.2762 73.6273 10.2093C73.4936 10.1826 73.4268 10.0823 73.4268 9.90831C73.4268 9.74777 73.4869 9.65414 73.6071 9.6274C73.9419 9.5605 74.2828 9.46686 74.6305 9.34642C74.9917 9.22598 75.3266 9.10561 75.6344 8.98517C75.9551 8.8648 76.2231 8.7711 76.4371 8.70419C76.5303 8.66409 76.5971 8.64404 76.6376 8.64404C76.7045 8.64404 76.751 8.67078 76.778 8.72431C76.805 8.76441 76.8179 8.80458 76.8179 8.84468C76.8179 8.95176 76.7983 9.15908 76.7578 9.46686C76.718 9.76114 76.6977 10.1626 76.6977 10.6709V21.4277C76.6977 21.7087 76.778 21.8893 76.9387 21.9696C77.0994 22.0499 77.2796 22.1235 77.4802 22.1903C77.6145 22.2438 77.7212 22.2974 77.8015 22.3509C77.8953 22.4044 77.9419 22.4847 77.9419 22.5917C77.9419 22.672 77.9021 22.7322 77.8218 22.7723C77.7414 22.8125 77.6476 22.8325 77.5409 22.8325C77.2864 22.8325 77.0521 22.8192 76.8381 22.7924C76.6241 22.779 76.4101 22.7723 76.1961 22.7723C75.9956 22.7589 75.7748 22.7523 75.5338 22.7523C75.3063 22.7523 75.0923 22.7589 74.8918 22.7723C74.7041 22.7857 74.5104 22.7991 74.3099 22.8125C74.1087 22.8392 73.8744 22.8526 73.6071 22.8526Z" fill="black"/>
<path d="M78.4745 22.8526C78.3671 22.8526 78.28 22.8325 78.2132 22.7924C78.1464 22.7389 78.1133 22.672 78.1133 22.5917C78.1133 22.4847 78.1531 22.4044 78.2334 22.3509C78.3138 22.2974 78.4076 22.2572 78.5143 22.2305C78.8356 22.1502 79.0631 22.0633 79.1968 21.9696C79.344 21.8759 79.4176 21.7154 79.4176 21.4879V17.133C79.4176 16.7049 79.3507 16.3838 79.2171 16.1698C79.0827 15.9557 78.8559 15.8219 78.5345 15.7684C78.4677 15.755 78.4144 15.7216 78.3739 15.668C78.334 15.6011 78.3138 15.5276 78.3138 15.4473C78.3138 15.2599 78.3874 15.1596 78.5345 15.1463C79.1766 15.0125 79.7322 14.8319 80.2 14.6044C80.6821 14.3636 81.05 14.1763 81.3038 14.0425C81.4915 13.9488 81.6117 13.902 81.665 13.902C81.8122 13.902 81.8858 13.9689 81.8858 14.1027C81.8723 14.29 81.8459 14.5509 81.8054 14.8853C81.7656 15.2065 81.7251 15.5543 81.6853 15.9289C81.6583 16.2902 81.6454 16.6314 81.6454 16.9524V21.4679C81.6454 21.6686 81.719 21.8224 81.8662 21.9295C82.0134 22.0365 82.247 22.1368 82.5683 22.2305C82.6756 22.2706 82.7688 22.3174 82.8491 22.371C82.9295 22.4111 82.97 22.4847 82.97 22.5917C82.97 22.7523 82.8559 22.8325 82.6284 22.8325C82.3745 22.8325 82.1268 22.8259 81.8858 22.8125C81.6583 22.7991 81.4314 22.7857 81.2039 22.7723C80.9899 22.759 80.7624 22.7523 80.5214 22.7523C80.2939 22.7523 80.0731 22.759 79.8591 22.7723C79.6451 22.7857 79.4243 22.7991 79.1968 22.8125C78.9828 22.8392 78.7418 22.8526 78.4745 22.8526ZM80.4809 12.738C80.0934 12.738 79.7653 12.6042 79.4979 12.3367C79.2299 12.0691 79.0962 11.748 79.0962 11.3734C79.0962 10.9586 79.2299 10.6174 79.4979 10.3498C79.7653 10.0823 80.0934 9.94849 80.4809 9.94849C80.8826 9.94849 81.2167 10.0823 81.4848 10.3498C81.7521 10.6174 81.8858 10.9586 81.8858 11.3734C81.8858 11.748 81.7521 12.0691 81.4848 12.3367C81.2167 12.6042 80.8826 12.738 80.4809 12.738Z" fill="black"/>
<path d="M86.9289 23.0733C86.2329 23.0733 85.6043 22.8928 85.042 22.5315C84.4803 22.1703 84.032 21.6753 83.6978 21.0464C83.3765 20.4042 83.2158 19.6884 83.2158 18.8991C83.2158 18.0294 83.4163 17.2468 83.818 16.5511C84.219 15.8419 84.7476 15.2801 85.4032 14.8653C86.0722 14.4506 86.8148 14.2432 87.631 14.2432C88.6477 14.2432 89.5037 14.5642 90.1998 15.2065C90.3335 15.3268 90.4003 15.4473 90.4003 15.5677C90.4003 15.6614 90.347 15.7817 90.2396 15.9289C90.133 16.0761 90.006 16.2032 89.8589 16.3102C89.7117 16.4173 89.5841 16.4707 89.4774 16.4707C89.3701 16.4707 89.2702 16.4373 89.1763 16.3704C89.0825 16.3035 88.9886 16.2299 88.8955 16.1497C88.5606 15.8821 88.213 15.6547 87.8518 15.4673C87.4906 15.2801 87.1827 15.1864 86.9289 15.1864C86.38 15.1864 85.952 15.4272 85.6442 15.9089C85.3363 16.3905 85.1824 17.113 85.1824 18.0763C85.1824 18.7319 85.2965 19.3004 85.524 19.7821C85.7515 20.2638 86.0722 20.6384 86.4874 20.9059C86.9019 21.1735 87.3832 21.3073 87.9321 21.3073C88.3331 21.3073 88.6747 21.2471 88.9556 21.1267C89.2499 20.9929 89.5578 20.7855 89.8784 20.5046C89.9324 20.4645 89.979 20.431 90.0189 20.4042C90.0729 20.3641 90.1262 20.344 90.1795 20.344C90.3267 20.344 90.4003 20.451 90.4003 20.6651C90.4003 20.7186 90.3868 20.7989 90.3605 20.9059C90.3335 20.9996 90.2801 21.1066 90.1998 21.2271C90.0526 21.4946 89.8116 21.7756 89.4774 22.0699C89.1561 22.3643 88.7814 22.6051 88.3534 22.7924C87.9254 22.9797 87.4501 23.0733 86.9289 23.0733Z" fill="black"/>
<path d="M101.896 23.0733C100.946 23.0733 100.049 22.9127 99.2062 22.5917C98.3637 22.2706 97.6143 21.8224 96.9588 21.247C96.3167 20.6584 95.8084 19.9627 95.4337 19.1599C95.0725 18.3572 94.8916 17.4742 94.8916 16.5108C94.8916 15.5609 95.0725 14.6646 95.4337 13.8216C95.8084 12.9788 96.3296 12.2362 96.9986 11.5941C97.6676 10.9385 98.4568 10.4234 99.3669 10.0487C100.29 9.66075 101.307 9.4668 102.418 9.4668C102.672 9.4668 102.986 9.49353 103.361 9.54707C103.735 9.58717 104.123 9.6407 104.525 9.70761C104.926 9.77451 105.294 9.8481 105.628 9.92837C105.976 10.0086 106.244 10.0889 106.431 10.1692C106.525 10.2093 106.599 10.2628 106.652 10.3297C106.705 10.3833 106.739 10.4635 106.752 10.5705C106.819 11.012 106.873 11.4335 106.913 11.8349C106.953 12.2362 106.973 12.5841 106.973 12.8784C106.973 12.9854 106.94 13.0791 106.873 13.1594C106.819 13.2397 106.746 13.2798 106.652 13.2798C106.505 13.2798 106.397 13.233 106.331 13.1393C106.264 13.0323 106.204 12.9185 106.15 12.7982C106.043 12.5574 105.923 12.3232 105.789 12.0957C105.655 11.8549 105.488 11.6275 105.287 11.4134C105.153 11.2797 104.966 11.1392 104.725 10.992C104.498 10.8315 104.203 10.6976 103.842 10.5906C103.481 10.4836 103.039 10.43 102.518 10.43C101.782 10.43 101.119 10.5839 100.531 10.8916C99.9421 11.186 99.4472 11.6007 99.0455 12.1359C98.6445 12.671 98.3367 13.2798 98.1227 13.9621C97.9087 14.6311 97.8013 15.3335 97.8013 16.0693C97.8013 16.9925 97.9087 17.8287 98.1227 18.5779C98.3367 19.3138 98.6378 19.9493 99.0259 20.4845C99.4135 21.0062 99.8752 21.4076 100.411 21.6886C100.946 21.9695 101.547 22.11 102.216 22.11C102.699 22.11 103.073 22.0431 103.341 21.9093C103.621 21.7622 103.822 21.635 103.943 21.528C104.09 21.4076 104.21 21.227 104.304 20.9861C104.398 20.7453 104.451 20.4644 104.465 20.1433C104.465 20.0229 104.465 19.869 104.465 19.6817C104.477 19.4944 104.484 19.3071 104.484 19.1198C104.498 18.9325 104.504 18.7786 104.504 18.6582C104.504 18.5111 104.477 18.3839 104.424 18.2769C104.384 18.1565 104.297 18.0628 104.164 17.9959C104.043 17.9023 103.889 17.822 103.702 17.7551C103.515 17.6749 103.32 17.6213 103.12 17.5945C102.933 17.5544 102.779 17.5277 102.658 17.5143C102.565 17.5009 102.464 17.4608 102.357 17.3939C102.25 17.3136 102.197 17.2199 102.197 17.1129C102.197 17.0059 102.244 16.9256 102.337 16.8721C102.444 16.8186 102.538 16.7918 102.618 16.7918C102.926 16.7918 103.24 16.7985 103.561 16.8119C103.895 16.8252 104.224 16.8386 104.545 16.852C104.879 16.8654 105.2 16.8721 105.508 16.8721C105.882 16.8721 106.25 16.8587 106.611 16.8319C106.986 16.8052 107.368 16.7918 107.756 16.7918C107.836 16.7918 107.916 16.8186 107.997 16.8721C108.09 16.9122 108.137 16.9925 108.137 17.1129C108.137 17.2199 108.09 17.3069 107.997 17.3738C107.903 17.4407 107.816 17.4808 107.735 17.4942C107.374 17.5878 107.127 17.7083 106.993 17.8555C106.873 18.0026 106.792 18.21 106.752 18.4776C106.699 18.7719 106.659 19.0328 106.632 19.2603C106.618 19.4877 106.611 19.7285 106.611 19.9827V20.6048C106.611 20.6717 106.632 20.7319 106.672 20.7855C106.726 20.8389 106.779 20.8992 106.832 20.9661C106.886 21.033 106.933 21.0999 106.973 21.1668C107.027 21.2337 107.053 21.3006 107.053 21.3675C107.053 21.4478 107.027 21.5347 106.973 21.6283C106.933 21.7086 106.839 21.7622 106.692 21.7889C106.599 21.8023 106.418 21.8758 106.15 22.0096C105.882 22.1435 105.541 22.2973 105.127 22.4712C104.725 22.6318 104.251 22.7722 103.702 22.8927C103.166 23.0131 102.565 23.0733 101.896 23.0733Z" fill="black"/>
<path d="M112.826 23.0734C112.037 23.0734 111.328 22.8995 110.699 22.5516C110.07 22.1903 109.568 21.6953 109.194 21.0666C108.82 20.4377 108.632 19.7286 108.632 18.9392C108.632 18.3238 108.753 17.7351 108.993 17.1732C109.234 16.6113 109.562 16.1096 109.977 15.6681C110.391 15.2266 110.88 14.8787 111.442 14.6245C112.003 14.3569 112.606 14.2231 113.248 14.2231C114.064 14.2231 114.793 14.4171 115.436 14.8051C116.091 15.1797 116.613 15.6814 117 16.3102C117.389 16.9391 117.582 17.6281 117.582 18.3773C117.582 19.2068 117.402 19.9828 117.041 20.7053C116.693 21.4144 116.165 21.9897 115.455 22.4312C114.76 22.8593 113.883 23.0734 112.826 23.0734ZM113.228 22.2907C113.562 22.2907 113.856 22.2238 114.111 22.09C114.378 21.9562 114.592 21.7489 114.753 21.4679C114.914 21.1869 115.02 20.819 115.074 20.3641C115.141 19.8959 115.174 19.3941 115.174 18.859C115.174 18.1499 115.08 17.5077 114.893 16.9324C114.706 16.3571 114.445 15.8955 114.111 15.5476C113.776 15.1998 113.382 15.0258 112.927 15.0258C112.672 15.0258 112.438 15.0727 112.224 15.1663C112.024 15.2466 111.837 15.3871 111.662 15.5878C111.421 15.8687 111.255 16.2568 111.161 16.7518C111.08 17.2334 111.04 17.7953 111.04 18.4376C111.04 19.0797 111.134 19.6951 111.321 20.2838C111.522 20.8725 111.783 21.3541 112.104 21.7288C112.438 22.1034 112.813 22.2907 113.228 22.2907Z" fill="black"/>
<path d="M122.259 23.0734C121.469 23.0734 120.76 22.8995 120.132 22.5516C119.502 22.1903 119.001 21.6953 118.626 21.0666C118.251 20.4377 118.064 19.7286 118.064 18.9392C118.064 18.3238 118.185 17.7351 118.426 17.1732C118.667 16.6113 118.994 16.1096 119.409 15.6681C119.824 15.2266 120.312 14.8787 120.874 14.6245C121.436 14.3569 122.038 14.2231 122.68 14.2231C123.496 14.2231 124.225 14.4171 124.867 14.8051C125.523 15.1797 126.045 15.6814 126.433 16.3102C126.821 16.9391 127.015 17.6281 127.015 18.3773C127.015 19.2068 126.834 19.9828 126.473 20.7053C126.125 21.4144 125.597 21.9897 124.888 22.4312C124.192 22.8593 123.315 23.0734 122.259 23.0734ZM122.66 22.2907C122.995 22.2907 123.289 22.2238 123.543 22.09C123.811 21.9562 124.025 21.7489 124.185 21.4679C124.346 21.1869 124.453 20.819 124.506 20.3641C124.573 19.8959 124.607 19.3941 124.607 18.859C124.607 18.1499 124.513 17.5077 124.325 16.9324C124.138 16.3571 123.878 15.8955 123.543 15.5476C123.209 15.1998 122.814 15.0258 122.359 15.0258C122.105 15.0258 121.871 15.0727 121.657 15.1663C121.456 15.2466 121.269 15.3871 121.095 15.5878C120.854 15.8687 120.687 16.2568 120.593 16.7518C120.512 17.2334 120.473 17.7953 120.473 18.4376C120.473 19.0797 120.566 19.6951 120.753 20.2838C120.954 20.8725 121.215 21.3541 121.537 21.7288C121.871 22.1034 122.245 22.2907 122.66 22.2907Z" fill="black"/>
<path d="M134.139 23.1737C134.099 23.1737 134.039 23.1336 133.958 23.0533C133.891 22.9864 133.858 22.9329 133.858 22.8928C133.885 22.7054 133.905 22.5115 133.918 22.3107C133.945 22.0967 133.965 21.9161 133.978 21.7689V21.6485C133.724 22.0231 133.363 22.3576 132.895 22.6519C132.44 22.9329 131.918 23.0733 131.329 23.0733C130.58 23.0733 129.918 22.8861 129.343 22.5115C128.767 22.1235 128.312 21.615 127.978 20.9862C127.657 20.344 127.496 19.655 127.496 18.9191C127.496 18.0495 127.691 17.2668 128.078 16.5711C128.48 15.862 129.035 15.3068 129.744 14.9054C130.453 14.4907 131.276 14.2833 132.212 14.2833C132.44 14.2833 132.667 14.3034 132.895 14.3435C133.135 14.3703 133.343 14.4104 133.517 14.4639C133.677 14.504 133.764 14.5241 133.778 14.5241C133.845 14.5241 133.878 14.4104 133.878 14.1829V11.6543C133.878 11.1459 133.811 10.7914 133.677 10.5906C133.544 10.39 133.33 10.2629 133.035 10.2093C132.888 10.1692 132.815 10.0689 132.815 9.90831C132.815 9.76114 132.881 9.6675 133.015 9.6274C133.537 9.50696 134.025 9.37316 134.48 9.22598C134.949 9.06544 135.33 8.91827 135.624 8.78447C135.758 8.731 135.851 8.69751 135.905 8.68414C135.972 8.65741 136.012 8.64404 136.025 8.64404C136.159 8.64404 136.226 8.71088 136.226 8.84468C136.226 8.84468 136.219 8.92495 136.206 9.08549C136.193 9.2461 136.173 9.46686 136.146 9.74777C136.133 10.0154 136.119 10.3231 136.106 10.6709L136.046 20.4443C136.046 20.8992 136.079 21.2271 136.146 21.4277C136.213 21.6284 136.326 21.7287 136.487 21.7287C136.554 21.7287 136.641 21.7287 136.748 21.7287C136.855 21.7154 137.042 21.6953 137.31 21.6686C137.511 21.6551 137.611 21.7221 137.611 21.8692C137.611 21.9763 137.571 22.0833 137.49 22.1903C137.424 22.284 137.357 22.3308 137.29 22.3308C136.835 22.3843 136.373 22.4713 135.905 22.5917C135.437 22.7121 134.962 22.866 134.48 23.0533C134.386 23.0934 134.313 23.1202 134.259 23.1336C134.219 23.1603 134.179 23.1737 134.139 23.1737ZM132.253 21.809C132.507 21.809 132.788 21.7489 133.095 21.6284C133.403 21.4946 133.664 21.314 133.878 21.0866V16.9123C133.878 16.6314 133.785 16.3571 133.597 16.0894C133.41 15.8085 133.162 15.5811 132.854 15.4071C132.547 15.2198 132.219 15.1262 131.871 15.1262C131.55 15.1262 131.236 15.2466 130.928 15.4874C130.62 15.7148 130.359 16.0694 130.145 16.5511C129.945 17.0327 129.844 17.6481 129.844 18.3974C129.844 19.0128 129.918 19.5413 130.065 19.9828C130.226 20.4109 130.426 20.7587 130.667 21.0264C130.908 21.294 131.169 21.4946 131.45 21.6284C131.731 21.7489 131.998 21.809 132.253 21.809Z" fill="black"/>
<path d="M140.303 23.0734C139.875 23.0734 139.46 23.0132 139.059 22.8928C138.67 22.7857 138.316 22.6185 137.995 22.391C137.902 22.2038 137.828 21.9094 137.775 21.508C137.734 21.1067 137.714 20.712 137.714 20.324C137.714 20.1635 137.828 20.0831 138.055 20.0831C138.149 20.0831 138.229 20.1099 138.296 20.1635C138.363 20.2169 138.41 20.2772 138.437 20.3441C138.664 20.9327 138.952 21.4077 139.3 21.7689C139.647 22.1167 140.042 22.2907 140.484 22.2907C140.859 22.2907 141.153 22.177 141.367 21.9495C141.581 21.7087 141.688 21.4344 141.688 21.1267C141.688 20.7655 141.554 20.4645 141.287 20.2236C141.032 19.9828 140.678 19.7353 140.223 19.4811C139.808 19.2536 139.433 19.0128 139.099 18.7586C138.778 18.5045 138.523 18.2168 138.336 17.8957C138.149 17.5612 138.055 17.1732 138.055 16.7317C138.055 16.2366 138.182 15.8019 138.437 15.4273C138.691 15.0526 139.045 14.7583 139.5 14.5442C139.969 14.3301 140.503 14.2231 141.106 14.2231C141.534 14.2231 141.915 14.2699 142.25 14.3636C142.598 14.4573 142.839 14.5509 142.972 14.6445C143.079 14.7784 143.166 15.0258 143.233 15.3871C143.3 15.735 143.333 16.1029 143.333 16.4909C143.333 16.6113 143.233 16.6715 143.032 16.6715C142.939 16.6715 142.845 16.6447 142.752 16.5912C142.658 16.5377 142.598 16.4842 142.571 16.4307C142.397 15.9356 142.176 15.561 141.908 15.3068C141.641 15.0526 141.333 14.9255 140.985 14.9255C140.678 14.9255 140.397 15.0258 140.142 15.2266C139.902 15.4138 139.781 15.6814 139.781 16.0293C139.781 16.3102 139.895 16.5645 140.123 16.7919C140.363 17.0194 140.705 17.2535 141.146 17.4943C141.989 17.9492 142.598 18.384 142.972 18.7987C143.347 19.2002 143.534 19.742 143.534 20.4243C143.534 21.2405 143.253 21.8893 142.691 22.371C142.129 22.8392 141.333 23.0734 140.303 23.0734Z" fill="black"/>
<path d="M160.979 23.1535C160.818 23.1535 160.55 23.0532 160.176 22.8525C159.802 22.6519 159.42 22.304 159.032 21.8089C158.804 21.5548 158.524 21.247 158.189 20.8858C157.868 20.5112 157.507 20.1031 157.105 19.6616C156.718 19.2201 156.309 18.7585 155.881 18.2768C155.453 17.7952 155.025 17.3136 154.597 16.8319C154.182 16.3503 153.774 15.8887 153.373 15.4472C152.972 15.0057 152.604 14.6043 152.269 14.2431C151.935 13.8685 151.654 13.5474 151.426 13.2798C151.372 13.2129 151.312 13.1594 151.245 13.1192C151.192 13.0657 151.145 13.039 151.105 13.039C151.052 13.039 151.011 13.0858 150.985 13.1795C150.958 13.2731 150.944 13.3601 150.944 13.4403C150.944 14.0558 150.944 14.7849 150.944 15.6278C150.958 16.4707 150.964 17.327 150.964 18.1966C150.964 19.0662 150.964 19.869 150.964 20.6048C150.964 21.0196 151.085 21.3607 151.326 21.6283C151.567 21.896 151.948 22.0899 152.469 22.2103C152.63 22.2371 152.764 22.2839 152.871 22.3508C152.991 22.4043 153.051 22.4846 153.051 22.5916C153.051 22.6853 152.998 22.7522 152.891 22.7923C152.784 22.8325 152.664 22.8525 152.53 22.8525C152.169 22.8525 151.881 22.8458 151.667 22.8325C151.453 22.8191 151.259 22.8057 151.085 22.7923C150.911 22.7789 150.69 22.7722 150.422 22.7722C150.142 22.7722 149.888 22.7789 149.66 22.7923C149.446 22.8057 149.252 22.8191 149.078 22.8325C148.904 22.8592 148.737 22.8726 148.576 22.8726C148.442 22.8726 148.322 22.8458 148.215 22.7923C148.108 22.7522 148.055 22.692 148.055 22.6117C148.055 22.5047 148.101 22.4244 148.195 22.3709C148.302 22.304 148.442 22.2438 148.616 22.1902C148.964 22.0832 149.219 21.8892 149.379 21.6083C149.553 21.3139 149.66 20.9661 149.7 20.5647C149.753 20.0563 149.807 19.394 149.861 18.5779C149.914 17.7484 149.961 16.8186 150.001 15.7883C150.054 14.7582 150.081 13.6946 150.081 12.5975C150.081 11.9018 149.9 11.4 149.539 11.0923C149.192 10.7846 148.75 10.5371 148.215 10.3498C148.122 10.323 148.001 10.2695 147.854 10.1892C147.706 10.1089 147.633 10.0086 147.633 9.88819C147.633 9.76782 147.687 9.68748 147.793 9.64738C147.901 9.60721 148.014 9.58716 148.134 9.58716C148.416 9.58716 148.697 9.59384 148.978 9.60721C149.258 9.62064 149.539 9.63401 149.82 9.64738C150.115 9.64738 150.416 9.65406 150.723 9.66743C151.045 9.6808 151.386 9.68748 151.747 9.68748C151.868 9.68748 151.954 9.71428 152.008 9.76775C152.075 9.80792 152.135 9.86814 152.188 9.94841C152.402 10.2026 152.677 10.5237 153.011 10.9117C153.346 11.2863 153.707 11.7077 154.095 12.176C154.497 12.6309 154.911 13.1126 155.339 13.621C155.781 14.1293 156.215 14.6378 156.644 15.1462C157.086 15.6546 157.507 16.1429 157.908 16.6112C158.31 17.066 158.671 17.4875 158.992 17.8755C159.326 18.2501 159.6 18.5578 159.814 18.7986C159.868 18.8522 159.929 18.9191 159.995 18.9993C160.076 19.0796 160.143 19.1198 160.196 19.1198C160.303 19.1198 160.363 19.006 160.377 18.7786C160.377 18.4308 160.377 17.9893 160.377 17.4541C160.377 16.9055 160.377 16.3034 160.377 15.6479C160.39 14.979 160.39 14.2966 160.377 13.6009C160.377 12.9052 160.37 12.2362 160.357 11.594C160.343 11.2595 160.203 10.9987 159.935 10.8113C159.681 10.6107 159.36 10.4702 158.972 10.3899C158.811 10.3498 158.657 10.303 158.51 10.2494C158.376 10.1825 158.31 10.0889 158.31 9.96846C158.31 9.87482 158.376 9.80792 158.51 9.76775C158.657 9.72765 158.791 9.7076 158.912 9.7076C159.179 9.7076 159.4 9.7076 159.574 9.7076C159.761 9.7076 159.935 9.71428 160.096 9.72765C160.256 9.72765 160.423 9.72765 160.598 9.72765C160.892 9.72765 161.132 9.72765 161.32 9.72765C161.507 9.71428 161.708 9.70091 161.922 9.68748C162.15 9.67411 162.444 9.66743 162.805 9.66743C162.965 9.66743 163.093 9.69423 163.186 9.7477C163.293 9.78787 163.347 9.84809 163.347 9.92836C163.347 10.129 163.153 10.2695 162.765 10.3498C162.297 10.4434 161.962 10.5705 161.761 10.7311C161.574 10.8916 161.474 11.1592 161.46 11.5338C161.46 11.8683 161.454 12.2964 161.44 12.8182C161.44 13.34 161.433 13.9086 161.42 14.5241C161.407 15.1395 161.387 15.7683 161.36 16.4105C161.346 17.0527 161.333 17.6815 161.32 18.297C161.32 18.9124 161.32 19.4676 161.32 19.9627C161.32 20.2837 161.333 20.6115 161.36 20.946C161.387 21.2805 161.414 21.5815 161.44 21.8491C161.481 22.1033 161.5 22.2839 161.5 22.3909C161.5 22.6853 161.454 22.886 161.36 22.993C161.267 23.1001 161.139 23.1535 160.979 23.1535Z" fill="black"/>
<path d="M166.861 23.0733C166.125 23.0733 165.477 22.8861 164.914 22.5115C164.353 22.1368 163.911 21.6217 163.59 20.9661C163.269 20.2972 163.108 19.5413 163.108 18.6984C163.108 17.8823 163.295 17.1397 163.67 16.4707C164.058 15.7884 164.573 15.2466 165.215 14.8452C165.857 14.4439 166.56 14.2432 167.322 14.2432C167.885 14.2432 168.386 14.3636 168.828 14.6044C169.269 14.8319 169.617 15.1529 169.872 15.5677C170.139 15.9691 170.273 16.424 170.273 16.9324C170.273 17.414 170.065 17.6548 169.651 17.6548H165.577C165.39 17.6548 165.249 17.7083 165.155 17.8154C165.075 17.9091 165.035 18.0896 165.035 18.3573C165.035 18.9191 165.155 19.4276 165.396 19.8825C165.65 20.3373 165.985 20.6986 166.4 20.9661C166.814 21.2337 167.289 21.3676 167.825 21.3676C168.212 21.3676 168.567 21.294 168.888 21.1468C169.222 20.9862 169.537 20.7722 169.831 20.5046C169.884 20.4645 169.932 20.431 169.972 20.4042C170.012 20.3641 170.052 20.344 170.092 20.344C170.226 20.344 170.293 20.4243 170.293 20.5848C170.293 20.7722 170.213 20.9996 170.052 21.2672C169.891 21.5749 169.658 21.8692 169.35 22.1502C169.055 22.4312 168.694 22.6519 168.266 22.8125C167.838 22.9864 167.37 23.0733 166.861 23.0733ZM165.577 16.8722H167.002C167.349 16.8722 167.61 16.8655 167.784 16.8521C167.958 16.8387 168.125 16.8119 168.286 16.7718C168.353 16.7584 168.4 16.7049 168.426 16.6112C168.453 16.5042 168.467 16.3838 168.467 16.2501C168.467 15.8888 168.326 15.5878 168.045 15.347C167.777 15.0927 167.443 14.9657 167.042 14.9657C166.761 14.9657 166.487 15.0526 166.219 15.2265C165.951 15.3871 165.731 15.5945 165.556 15.8486C165.383 16.1029 165.303 16.3637 165.316 16.6314C165.316 16.7919 165.403 16.8722 165.577 16.8722Z" fill="black"/>
<path d="M174.391 23.0733C173.588 23.0733 172.979 22.8592 172.565 22.4311C172.15 22.003 171.943 21.3809 171.943 20.5648V15.9289C171.943 15.8219 171.896 15.7416 171.802 15.6881C171.722 15.6345 171.555 15.6011 171.3 15.5877H171.08C170.999 15.5877 170.932 15.5275 170.879 15.4071C170.826 15.2733 170.799 15.1462 170.799 15.0258C170.799 14.999 170.806 14.9656 170.819 14.9255C170.845 14.8719 170.879 14.8385 170.919 14.8251C171.227 14.6913 171.541 14.5107 171.863 14.2832C172.183 14.0424 172.485 13.8016 172.765 13.5608C173.046 13.3066 173.281 13.0926 173.468 12.9186C173.561 12.8517 173.635 12.7915 173.689 12.738C173.756 12.6844 173.829 12.6577 173.91 12.6577C174.016 12.6577 174.097 12.6844 174.15 12.738C174.218 12.7781 174.237 12.8651 174.211 12.9988L174.09 14.1026C174.076 14.2632 174.11 14.3703 174.191 14.4237C174.284 14.4773 174.411 14.504 174.572 14.504H176.94C176.98 14.504 177.02 14.5508 177.06 14.6445C177.1 14.7381 177.121 14.8318 177.121 14.9255C177.121 15.0994 177.094 15.2599 177.04 15.4071C177 15.5543 176.946 15.6278 176.879 15.6278H174.973C174.665 15.6278 174.451 15.6613 174.331 15.7282C174.224 15.7951 174.17 15.9356 174.17 16.1496V20.0028C174.17 20.5915 174.284 21.0397 174.512 21.3474C174.739 21.6417 175.06 21.7889 175.475 21.7889C175.849 21.7889 176.131 21.7555 176.318 21.6886C176.518 21.6217 176.699 21.5414 176.86 21.4478C176.9 21.421 176.934 21.4076 176.96 21.4076C177.027 21.4076 177.074 21.4478 177.1 21.5281C177.141 21.6083 177.16 21.6953 177.16 21.7889C177.16 21.8558 177.027 21.9963 176.759 22.2104C176.505 22.4245 176.164 22.6184 175.736 22.7923C175.321 22.9797 174.873 23.0733 174.391 23.0733Z" fill="black"/>
<path d="M181.404 23.3542C181.35 23.3542 181.297 23.3341 181.243 23.294C181.19 23.2672 181.156 23.2271 181.143 23.1735L178.273 16.1295C178.166 15.8485 178.019 15.6144 177.831 15.4271C177.658 15.2264 177.457 15.0926 177.23 15.0257C177.109 14.9722 177.009 14.9187 176.929 14.8651C176.862 14.8116 176.828 14.7246 176.828 14.6043C176.828 14.5106 176.881 14.4571 176.989 14.4437C177.109 14.4169 177.21 14.4036 177.29 14.4036C177.544 14.4036 177.758 14.4102 177.932 14.4236C178.119 14.437 178.293 14.4571 178.454 14.4838C178.628 14.4972 178.835 14.5039 179.076 14.5039C179.33 14.5039 179.551 14.4972 179.738 14.4838C179.926 14.4571 180.113 14.437 180.3 14.4236C180.501 14.4102 180.735 14.4036 181.002 14.4036C181.083 14.4036 181.176 14.4169 181.283 14.4437C181.39 14.4705 181.444 14.5374 181.444 14.6444C181.444 14.7514 181.397 14.8317 181.303 14.8852C181.21 14.9254 181.11 14.9655 181.002 15.0056C180.855 15.0592 180.748 15.1528 180.682 15.2866C180.614 15.407 180.581 15.5809 180.581 15.8084C180.581 16.0225 180.621 16.2365 180.701 16.4506L182.006 19.8823C182.006 19.909 182.026 19.9224 182.066 19.9224C182.106 19.9224 182.126 19.909 182.126 19.8823L183.471 16.6914C183.511 16.5844 183.538 16.4707 183.551 16.3502C183.578 16.2298 183.591 16.1094 183.591 15.989C183.591 15.7883 183.504 15.601 183.33 15.4271C183.17 15.2531 182.976 15.1194 182.748 15.0257C182.628 14.9856 182.527 14.9387 182.447 14.8852C182.367 14.8183 182.327 14.7313 182.327 14.6243C182.327 14.5307 182.38 14.4705 182.488 14.4437C182.608 14.4169 182.722 14.4036 182.828 14.4036C183.109 14.4036 183.391 14.4236 183.672 14.4638C183.966 14.4905 184.247 14.5039 184.514 14.5039C184.875 14.5039 185.197 14.4905 185.478 14.4638C185.772 14.4236 186.08 14.4036 186.401 14.4036C186.481 14.4036 186.575 14.4236 186.682 14.4638C186.789 14.4905 186.843 14.5507 186.843 14.6444C186.843 14.7514 186.795 14.8317 186.702 14.8852C186.608 14.9254 186.508 14.9722 186.401 15.0257C186.254 15.0792 186.12 15.1528 185.999 15.2464C185.893 15.3401 185.839 15.4872 185.839 15.688C185.839 15.8218 185.852 15.9556 185.879 16.0893C185.919 16.2231 185.96 16.3435 185.999 16.4506L187.304 19.8221C187.331 19.9024 187.358 19.9425 187.384 19.9425C187.425 19.9425 187.458 19.909 187.485 19.8421L188.729 16.7315C188.782 16.6111 188.823 16.4774 188.849 16.3302C188.876 16.1696 188.883 16.0358 188.869 15.9288C188.869 15.7013 188.809 15.514 188.688 15.3669C188.568 15.2063 188.421 15.0993 188.248 15.0458C188.14 15.0056 188.04 14.9588 187.946 14.9053C187.853 14.8518 187.806 14.7715 187.806 14.6645C187.806 14.5708 187.859 14.5106 187.966 14.4838C188.073 14.4437 188.167 14.4236 188.248 14.4236C188.595 14.437 188.856 14.4571 189.03 14.4838C189.203 14.4972 189.418 14.5039 189.672 14.5039C189.846 14.5039 189.98 14.4972 190.074 14.4838C190.18 14.4705 190.294 14.4638 190.415 14.4638C190.548 14.4504 190.716 14.437 190.916 14.4236C191.01 14.4236 191.111 14.437 191.217 14.4638C191.325 14.4905 191.378 14.5507 191.378 14.6444C191.378 14.7514 191.338 14.8384 191.257 14.9053C191.19 14.9588 191.097 15.0056 190.976 15.0458C190.749 15.1261 190.535 15.2866 190.334 15.5274C190.147 15.7549 189.987 16.0225 189.853 16.3302L187.043 23.1735C187.003 23.2806 186.909 23.3341 186.762 23.3341C186.655 23.3341 186.568 23.2806 186.501 23.1735L184.133 17.6146C184.12 17.5477 184.093 17.5142 184.053 17.5142C184.026 17.5142 183.999 17.5477 183.973 17.6146L181.685 23.1735C181.632 23.294 181.538 23.3542 181.404 23.3542Z" fill="black"/>
<path d="M195.13 23.0734C194.341 23.0734 193.631 22.8995 193.003 22.5516C192.374 22.1903 191.872 21.6953 191.497 21.0666C191.123 20.4377 190.936 19.7286 190.936 18.9392C190.936 18.3238 191.056 17.7351 191.297 17.1732C191.538 16.6113 191.865 16.1096 192.28 15.6681C192.695 15.2266 193.183 14.8787 193.745 14.6245C194.307 14.3569 194.909 14.2231 195.551 14.2231C196.367 14.2231 197.097 14.4171 197.739 14.8051C198.394 15.1797 198.916 15.6814 199.304 16.3102C199.692 16.9391 199.886 17.6281 199.886 18.3773C199.886 19.2068 199.706 19.9828 199.344 20.7053C198.996 21.4144 198.468 21.9897 197.759 22.4312C197.063 22.8593 196.187 23.0734 195.13 23.0734ZM195.531 22.2907C195.866 22.2907 196.16 22.2238 196.414 22.09C196.682 21.9562 196.896 21.7489 197.057 21.4679C197.217 21.1869 197.324 20.819 197.377 20.3641C197.444 19.8959 197.478 19.3941 197.478 18.859C197.478 18.1499 197.384 17.5077 197.197 16.9324C197.009 16.3571 196.749 15.8955 196.414 15.5476C196.08 15.1998 195.685 15.0258 195.231 15.0258C194.976 15.0258 194.742 15.0727 194.528 15.1663C194.327 15.2466 194.14 15.3871 193.966 15.5878C193.725 15.8687 193.558 16.2568 193.464 16.7518C193.384 17.2334 193.344 17.7953 193.344 18.4376C193.344 19.0797 193.437 19.6951 193.624 20.2838C193.826 20.8725 194.086 21.3541 194.408 21.7288C194.742 22.1034 195.116 22.2907 195.531 22.2907Z" fill="black"/>
<path d="M200.709 22.8526C200.602 22.8526 200.509 22.8325 200.428 22.7923C200.348 22.7389 200.308 22.672 200.308 22.5917C200.308 22.4846 200.348 22.4044 200.428 22.3509C200.522 22.2973 200.636 22.2505 200.769 22.2104C201.05 22.1301 201.245 22.0364 201.351 21.9294C201.472 21.809 201.532 21.6484 201.532 21.4478V16.9324C201.532 16.6246 201.485 16.3704 201.392 16.1698C201.312 15.9557 201.131 15.8152 200.85 15.7483C200.796 15.7216 200.742 15.6881 200.689 15.648C200.636 15.5944 200.609 15.5208 200.609 15.4272C200.609 15.2532 200.682 15.1462 200.829 15.1061C201.231 14.9991 201.666 14.8586 202.134 14.6847C202.602 14.4973 202.997 14.3167 203.318 14.1428C203.385 14.1026 203.458 14.0625 203.539 14.0224C203.619 13.9822 203.679 13.9622 203.72 13.9622C203.826 13.9622 203.88 14.0291 203.88 14.1629C203.88 14.2164 203.874 14.3368 203.86 14.5241C203.86 14.7114 203.853 14.9188 203.84 15.1462C203.84 15.3603 203.833 15.5543 203.82 15.7282C203.82 15.8085 203.84 15.8486 203.88 15.8486C204.094 15.5677 204.335 15.3068 204.603 15.066C204.87 14.8251 205.151 14.6244 205.445 14.4639C205.753 14.3034 206.061 14.2231 206.369 14.2231C206.757 14.2231 207.044 14.3034 207.232 14.4639C207.432 14.6244 207.533 14.8251 207.533 15.066C207.533 15.2532 207.479 15.4539 207.372 15.668C207.278 15.8821 207.151 16.0694 206.99 16.2299C206.843 16.3771 206.677 16.4507 206.489 16.4507C206.382 16.4507 206.268 16.4306 206.148 16.3904C206.027 16.337 205.907 16.2768 205.787 16.2099C205.666 16.1563 205.539 16.1029 205.405 16.0493C205.285 15.9958 205.171 15.969 205.064 15.969C204.73 15.969 204.428 16.0962 204.161 16.3503C203.894 16.5912 203.759 17.0728 203.759 17.7953V21.3274C203.759 21.5682 203.847 21.7555 204.021 21.8892C204.194 22.0097 204.462 22.1234 204.823 22.2304C204.971 22.2706 205.077 22.3174 205.144 22.3709C205.224 22.411 205.265 22.4846 205.265 22.5917C205.265 22.7656 205.144 22.8526 204.904 22.8526C204.502 22.8526 204.121 22.8325 203.759 22.7923C203.412 22.7656 203.064 22.7522 202.716 22.7522C202.489 22.7522 202.268 22.7589 202.054 22.7723C201.853 22.7857 201.646 22.7991 201.432 22.8125C201.218 22.8392 200.977 22.8526 200.709 22.8526Z" fill="black"/>
<path d="M207.768 22.8526C207.486 22.8526 207.346 22.7656 207.346 22.5917C207.346 22.4847 207.386 22.4111 207.467 22.371C207.56 22.3174 207.674 22.2639 207.807 22.2104C208.008 22.1435 208.189 22.0699 208.35 21.9897C208.523 21.896 208.61 21.7087 208.61 21.4277V11.6543C208.61 11.2396 208.55 10.9118 208.43 10.6709C208.323 10.4301 208.102 10.2762 207.768 10.2093C207.633 10.1826 207.566 10.0823 207.566 9.90831C207.566 9.74777 207.627 9.65414 207.747 9.6274C208.095 9.5605 208.443 9.46686 208.791 9.34642C209.139 9.22598 209.466 9.10561 209.774 8.98517C210.082 8.8648 210.336 8.7711 210.537 8.70419C210.644 8.66409 210.724 8.64404 210.778 8.64404C210.845 8.64404 210.891 8.66409 210.918 8.70419C210.945 8.74436 210.958 8.7979 210.958 8.8648C210.958 8.98517 210.938 9.19925 210.898 9.50696C210.858 9.80131 210.831 10.1893 210.818 10.6709L210.838 17.8756C210.838 18.0227 210.885 18.0963 210.978 18.0963C211.032 18.0963 211.099 18.0763 211.179 18.0361C211.273 17.996 211.36 17.9358 211.44 17.8555C211.949 17.414 212.39 16.9858 212.765 16.5711C213.152 16.1563 213.414 15.8553 213.547 15.668C213.614 15.5878 213.661 15.5209 213.688 15.4673C213.715 15.4138 213.727 15.367 213.727 15.3268C213.727 15.2599 213.674 15.1998 213.567 15.1463C213.46 15.0794 213.313 15.0325 213.126 15.0058C212.965 14.9657 212.885 14.8853 212.885 14.765C212.885 14.6713 212.932 14.6044 213.025 14.5642C213.119 14.5241 213.219 14.504 213.326 14.504H214.31C214.537 14.504 214.818 14.4907 215.153 14.4639C215.5 14.4371 215.828 14.4104 216.136 14.3837C216.457 14.3435 216.698 14.3168 216.859 14.3034C217.019 14.3034 217.1 14.377 217.1 14.5241C217.1 14.6178 217.052 14.6981 216.959 14.765C216.879 14.8319 216.765 14.8853 216.618 14.9255C216.377 14.979 216.116 15.0727 215.835 15.2065C215.567 15.3268 215.293 15.4673 215.012 15.6279C214.838 15.7216 214.617 15.8688 214.35 16.0694C214.083 16.2701 213.801 16.4909 213.507 16.7317C213.226 16.9591 212.965 17.1866 212.724 17.414C212.657 17.4809 212.624 17.5478 212.624 17.6147C212.624 17.6548 212.63 17.6883 212.644 17.715C212.671 17.7418 212.697 17.7753 212.724 17.8154C213.059 18.2301 213.387 18.6449 213.708 19.0596C214.042 19.4744 214.363 19.8624 214.671 20.2236C214.978 20.5848 215.253 20.9059 215.494 21.1869C215.721 21.4143 215.989 21.6284 216.296 21.8291C216.618 22.0164 216.879 22.1435 217.079 22.2104C217.213 22.2639 217.34 22.3174 217.461 22.371C217.594 22.4111 217.661 22.4847 217.661 22.5917C217.661 22.7656 217.521 22.8526 217.24 22.8526C216.517 22.8526 215.788 22.8392 215.052 22.8125C214.33 22.7991 213.634 22.7924 212.965 22.7924C212.711 22.7924 212.584 22.7121 212.584 22.5516C212.584 22.4579 212.618 22.3843 212.684 22.3308C212.765 22.2639 212.865 22.2104 212.986 22.1703C213.106 22.1302 213.2 22.0833 213.266 22.0298C213.333 21.9629 213.373 21.8893 213.387 21.809C213.387 21.7555 213.366 21.702 213.326 21.6485C213.286 21.5816 213.233 21.5013 213.166 21.4077L211.079 18.7184C211.025 18.6515 210.978 18.6181 210.938 18.6181C210.871 18.6315 210.838 18.685 210.838 18.7787C210.825 18.966 210.818 19.1666 210.818 19.3807C210.818 19.5948 210.818 19.8089 210.818 20.0229C210.818 20.2504 210.818 20.4845 210.818 20.7253C210.818 20.9661 210.825 21.2003 210.838 21.4277C210.838 21.6686 210.891 21.8425 210.999 21.9495C211.105 22.0566 211.259 22.1435 211.46 22.2104C211.567 22.2505 211.668 22.2974 211.761 22.3509C211.855 22.391 211.901 22.4646 211.901 22.5717C211.901 22.6653 211.855 22.7389 211.761 22.7924C211.668 22.8325 211.581 22.8526 211.5 22.8526C211.246 22.8526 211.025 22.8392 210.838 22.8125C210.65 22.7991 210.47 22.7857 210.296 22.7723C210.122 22.7589 209.914 22.7523 209.674 22.7523C209.447 22.7523 209.239 22.7589 209.052 22.7723C208.865 22.7857 208.67 22.7991 208.47 22.8125C208.269 22.8392 208.035 22.8526 207.768 22.8526Z" fill="black"/>
<path d="M16.6484 31.59C25.2589 31.59 32.2391 24.6097 32.2391 15.9992C32.2391 7.38867 25.2589 0.408447 16.6484 0.408447C8.03783 0.408447 1.05762 7.38867 1.05762 15.9992C1.05762 24.6097 8.03783 31.59 16.6484 31.59Z" fill="white" stroke="black" stroke-width="1.01493"/>
<path d="M18.7631 8.74219H9.35742V18.1479H18.7631V8.74219Z" fill="black" stroke="black" stroke-width="1.01493"/>
<path d="M23.9389 13.8501H14.5332V23.2558H23.9389V13.8501Z" fill="black" stroke="black" stroke-width="1.01493"/>
<path d="M18.7634 13.8501H14.5166V18.0969H18.7634V13.8501Z" fill="white" stroke="black" stroke-width="1.01493"/>
</g>
<defs>
<clipPath id="clip0_489_1789">
<rect width="217.114" height="32" fill="white" transform="translate(0.599609)"/>
</clipPath>
</defs>
</svg>
