<svg width="122" height="24" viewBox="0 0 122 24" fill="none" xmlns="http://www.w3.org/2000/svg">
<g clip-path="url(#clip0_6001_869)">
<path fill-rule="evenodd" clip-rule="evenodd" d="M9.25894 1.99349C9.25894 0.893489 10.1537 0 11.2601 0C12.3665 0 13.2614 0.891382 13.2614 1.99349V13.6868C13.2614 14.7868 12.3665 15.6803 11.2601 15.6803C10.1559 15.6803 9.25894 14.7889 9.25894 13.6868V1.99349ZM4.81313e-05 1.99361C4.81313e-05 0.8915 0.896993 0.000117188 2.00126 0.000117188C3.10763 0.000117188 4.00458 0.8915 4.00246 1.99361V19.9974H13.6868C14.7868 19.9974 15.6803 20.8923 15.6803 21.9986C15.6803 23.105 14.7889 23.9998 13.6868 23.9998H2.0242C2.01656 23.9999 2.00891 24 2.00126 24C1.98919 24 1.97715 23.9999 1.96513 23.9997C1.43553 23.9922 0.955492 23.7774 0.602448 23.4322C0.232853 23.0723 0.00253541 22.571 6.81543e-05 22.0155C2.20208e-05 22.0099 -2.44468e-10 22.0042 0 21.9986C2.06377e-10 21.9939 1.60613e-05 21.9892 4.81313e-05 21.9846V1.99361ZM20.5198 0C19.4134 0 18.5186 0.893489 18.5186 1.99349V13.6868C18.5186 14.7889 19.4155 15.6803 20.5198 15.6803C21.6261 15.6803 22.521 14.7868 22.521 13.6868V1.99349C22.521 0.891382 21.6261 0 20.5198 0Z" fill="url(#paint0_linear_6001_869)"/>
<path d="M109.935 20.7612V18.8428L115.87 12.6938C116.504 12.0257 117.027 11.4405 117.438 10.9381C117.854 10.43 118.166 9.94752 118.371 9.49078C118.577 9.03404 118.68 8.54871 118.68 8.03489C118.68 7.45252 118.543 6.95009 118.269 6.52761C117.994 6.09936 117.62 5.77108 117.147 5.54269C116.673 5.30863 116.139 5.19159 115.545 5.19159C114.917 5.19159 114.369 5.32006 113.901 5.57699C113.432 5.83388 113.073 6.19645 112.821 6.66463C112.57 7.1328 112.445 7.68087 112.445 8.30893H109.918C109.918 7.24128 110.164 6.30777 110.655 5.50844C111.146 4.70915 111.819 4.08967 112.676 3.65004C113.532 3.2047 114.506 2.98203 115.596 2.98203C116.698 2.98203 117.669 3.20185 118.508 3.64147C119.353 4.07539 120.013 4.66918 120.487 5.42282C120.96 6.17075 121.197 7.01572 121.197 7.95779C121.197 8.60867 121.074 9.24528 120.829 9.86758C120.589 10.4899 120.17 11.1836 119.57 11.9487C118.971 12.708 118.137 13.6301 117.069 14.7149L113.584 18.3632V18.4917H121.48V20.7612H109.935Z" fill="white"/>
<path d="M98.0095 20.7612V3.22188H100.656V18.4832H108.603V20.7612H98.0095Z" fill="white"/>
<path d="M91.5281 3.22188V20.7612H87.8797V3.22188H91.5281Z" fill="white"/>
<path d="M79.0883 21.0097C78.2487 21.0097 77.5008 20.8641 76.8445 20.5729C76.1878 20.276 75.6681 19.8393 75.2858 19.2626C74.9088 18.6802 74.7203 17.9552 74.7203 17.0873C74.7203 16.3565 74.8547 15.7428 75.123 15.2461C75.3914 14.7493 75.7566 14.3496 76.2192 14.0471C76.6817 13.7445 77.2071 13.5161 77.7949 13.3619C78.3888 13.2078 79.011 13.0993 79.6621 13.0365C80.427 12.9566 81.0436 12.8823 81.5118 12.8138C81.9801 12.7396 82.3195 12.6311 82.5307 12.4884C82.7424 12.3456 82.848 12.1344 82.848 11.8546V11.8032C82.848 11.2609 82.6765 10.8412 82.334 10.5443C81.9971 10.2474 81.5175 10.099 80.8953 10.099C80.2385 10.099 79.7162 10.2446 79.3278 10.5358C78.9399 10.8213 78.6829 11.1809 78.5572 11.6149L75.1828 11.3408C75.3543 10.5415 75.6912 9.85065 76.1934 9.26828C76.6957 8.68019 77.3441 8.22916 78.1374 7.91516C78.9369 7.59543 79.8619 7.43555 80.9123 7.43555C81.6432 7.43555 82.3427 7.52121 83.0103 7.69248C83.6841 7.86375 84.281 8.12924 84.8003 8.48893C85.3257 8.84863 85.7398 9.31108 86.0422 9.87635C86.345 10.4359 86.496 11.1067 86.496 11.8889V20.7614H83.0361V18.9372H82.9335C82.7223 19.3483 82.4396 19.7108 82.0857 20.0248C81.7318 20.3331 81.3063 20.5758 80.8097 20.7528C80.3127 20.9241 79.7389 21.0097 79.0883 21.0097ZM80.1329 18.4919C80.6697 18.4919 81.1435 18.3862 81.5546 18.175C81.9657 17.958 82.2881 17.6668 82.5225 17.3014C82.7564 16.936 82.8733 16.5221 82.8733 16.0596V14.6637C82.7594 14.7379 82.6023 14.8064 82.4025 14.8692C82.2083 14.9263 81.9884 14.9805 81.7431 15.0319C81.4974 15.0776 81.2522 15.1204 81.0065 15.1604C80.7609 15.1947 80.5383 15.2261 80.3385 15.2546C79.9104 15.3174 79.5364 15.4173 79.2166 15.5544C78.8967 15.6914 78.6484 15.8769 78.4717 16.111C78.2945 16.3394 78.206 16.6249 78.206 16.9674C78.206 17.4641 78.3857 17.8438 78.7457 18.1065C79.111 18.3634 79.5735 18.4919 80.1329 18.4919Z" fill="white"/>
<path d="M74.4074 7.60682V10.3473H66.4857V7.60682H74.4074ZM68.2843 4.45519H71.9323V16.7191C71.9323 17.0559 71.9838 17.3185 72.0868 17.507C72.1894 17.6897 72.3321 17.8181 72.5149 17.8923C72.7034 17.9665 72.9203 18.0037 73.1659 18.0037C73.337 18.0037 73.5085 17.9894 73.6795 17.9609C73.851 17.9266 73.9824 17.9009 74.0736 17.8838L74.6474 20.5986C74.4646 20.6557 74.2075 20.7213 73.8768 20.7956C73.5456 20.8755 73.1428 20.924 72.6689 20.9412C71.7897 20.9754 71.019 20.8584 70.3566 20.59C69.7003 20.3217 69.1894 19.9049 68.8237 19.3397C68.4585 18.7744 68.2787 18.0607 68.2843 17.1986V4.45519Z" fill="white"/>
<path d="M60.439 21.0183C59.0858 21.0183 57.9211 20.7442 56.945 20.1961C55.9745 19.6423 55.2266 18.8601 54.7012 17.8495C54.1758 16.8333 53.9131 15.6314 53.9131 14.244C53.9131 12.8909 54.1758 11.7034 54.7012 10.6814C55.2266 9.65939 55.9658 8.86289 56.9193 8.29196C57.8784 7.72102 59.0033 7.43555 60.2937 7.43555C61.1616 7.43555 61.9693 7.57545 62.7172 7.8552C63.4708 8.12924 64.1275 8.54317 64.687 9.097C65.2521 9.65079 65.6919 10.3474 66.0057 11.1867C66.3198 12.0202 66.4769 12.9965 66.4769 14.1156V15.1176H55.3693V12.8567H63.0427C63.0427 12.3314 62.9284 11.8661 62.7002 11.4607C62.4715 11.0553 62.1547 10.7385 61.7494 10.5101C61.3497 10.276 60.8845 10.1589 60.3534 10.1589C59.7997 10.1589 59.3088 10.2874 58.8803 10.5443C58.4579 10.7955 58.1267 11.1353 57.8871 11.5635C57.6471 11.9859 57.5245 12.457 57.5188 12.9765V15.1262C57.5188 15.777 57.6388 16.3394 57.8784 16.8133C58.1241 17.2872 58.4692 17.6526 58.9147 17.9095C59.3598 18.1664 59.8883 18.2949 60.4992 18.2949C60.9046 18.2949 61.2755 18.2378 61.6123 18.1236C61.9492 18.0094 62.2377 17.8381 62.4772 17.6098C62.7172 17.3814 62.9001 17.1016 63.0253 16.7705L66.3997 16.9931C66.2286 17.8039 65.8774 18.5118 65.3463 19.117C64.8209 19.7165 64.1415 20.1847 63.3081 20.5215C62.4803 20.8527 61.5238 21.0183 60.439 21.0183Z" fill="white"/>
<path d="M33.8921 3.22188H38.4654L43.2955 15.0061H43.501L48.3312 3.22188H52.9043V20.7612H49.3073V9.34525H49.162L44.623 20.6756H42.1736L37.6346 9.3024H37.489V20.7612H33.8921V3.22188Z" fill="white"/>
</g>
<defs>
<linearGradient id="paint0_linear_6001_869" x1="-1.20198e-07" y1="12" x2="22.5209" y2="1.66527e-05" gradientUnits="userSpaceOnUse">
<stop stop-color="#4400E2"/>
<stop offset="0.421875" stop-color="#F94E6C"/>
<stop offset="1" stop-color="#FFCB00"/>
</linearGradient>
<clipPath id="clip0_6001_869">
<rect width="121.745" height="24" fill="white"/>
</clipPath>
</defs>
</svg>
