<svg width="96" height="96" viewBox="0 0 96 96" fill="none" xmlns="http://www.w3.org/2000/svg">
<rect width="96" height="96" fill="#F5F5F5"/>
<g clip-path="url(#clip0_6001_864)">
<mask id="mask0_6001_864" style="mask-type:luminance" maskUnits="userSpaceOnUse" x="22" y="20" width="53" height="56">
<path d="M74.7442 20H22V76H74.7442V20Z" fill="white"/>
</mask>
<g mask="url(#mask0_6001_864)">
<path fill-rule="evenodd" clip-rule="evenodd" d="M43.6939 24.6097C43.6939 22.0385 45.7855 19.9499 48.3717 19.9499C50.9579 19.9499 53.0496 22.0335 53.0496 24.6097V51.9431C53.0496 54.5142 50.9579 56.6028 48.3717 56.6028C45.7905 56.6028 43.6939 54.5191 43.6939 51.9431V24.6097ZM22.0505 24.6098C22.0505 22.0336 24.1472 19.95 26.7284 19.95C29.3146 19.95 31.4112 22.0336 31.4063 24.6098V66.6939H54.0437C56.6149 66.6939 58.7035 68.7858 58.7035 71.3719C58.7035 73.958 56.6197 76.0498 54.0437 76.0498H26.7862C26.7669 76.0498 26.7477 76.0501 26.7284 76.0501C26.6937 76.0501 26.6591 76.0498 26.6245 76.0488C25.4182 76.027 24.3231 75.5448 23.507 74.7693C22.6101 73.9205 22.0505 72.7211 22.0505 71.3901V24.6098ZM70.0158 19.9499C67.4297 19.9499 65.3378 22.0385 65.3378 24.6097V51.943C65.3378 54.5191 67.4346 56.6028 70.0158 56.6028C72.6019 56.6028 74.6937 54.5142 74.6937 51.943V24.6097C74.6937 22.0335 72.6019 19.9499 70.0158 19.9499Z" fill="url(#paint0_linear_6001_864)"/>
</g>
</g>
<defs>
<linearGradient id="paint0_linear_6001_864" x1="22.0505" y1="48" x2="74.6937" y2="19.9498" gradientUnits="userSpaceOnUse">
<stop stop-color="#4400E2"/>
<stop offset="0.421875" stop-color="#F94E6C"/>
<stop offset="1" stop-color="#FFCB00"/>
</linearGradient>
<clipPath id="clip0_6001_864">
<rect width="52.7442" height="56" fill="white" transform="translate(22 20)"/>
</clipPath>
</defs>
</svg>
