<svg width="96" height="96" viewBox="0 0 96 96" fill="none" xmlns="http://www.w3.org/2000/svg">
<path d="M84.8796 66.6034L25.1925 31.349L46.4177 18.4633V28.6435L48.5374 29.7034L83.3734 49.3667V26.6912L47.6449 7L12 27.6395L71.0734 62.5313L49.7088 76.198V64.8463L47.7843 63.7864L12.1673 42.868V68.1374L17.7177 71.317H17.7456L48.5095 89L84.8796 66.5755V66.6034ZM21.0367 52.1279L46.083 66.8265V83.5891L21.0367 69.1973V52.1279ZM79.6081 43.2306L50.4619 26.7748V12.5224L79.6081 28.5878V43.2027V43.2306ZM46.4177 11.7415V14.2238L21.6503 29.2571L18.9449 27.6673L46.4177 11.7415ZM74.6156 64.5952L78.102 66.6592L49.7367 84.1469V80.4932L74.6156 64.5952ZM15.9605 66.2687V49.1435L17.7177 50.1755V67.2728L15.9605 66.2687Z" fill="#E0EAFF"/>
</svg>
