<svg width="96" height="96" viewBox="0 0 96 96" fill="none" xmlns="http://www.w3.org/2000/svg">
<path d="M24 12V24H36V12H24Z" fill="white" fill-opacity="0.5"/>
<path d="M12 12V24H24V12H12Z" fill="white" fill-opacity="0.5"/>
<path d="M24 24V36H36V24H24Z" fill="white"/>
<path d="M36 24V36H48V24H36Z" fill="white"/>
<path d="M48 24V36H60V24H48Z" fill="white"/>
<path d="M60 24V36H72V24H60Z" fill="white"/>
<path d="M24 36V48H36V36H24Z" fill="white"/>
<path d="M60 36V48H72V36H60Z" fill="white"/>
<path d="M24 48V60H36V48H24Z" fill="white"/>
<path d="M60 48V60H72V48H60Z" fill="white"/>
<path d="M24 60V72H36V60H24Z" fill="white"/>
<path d="M60 60V72H72V60H60Z" fill="white"/>
<path d="M48 60V72H60V60H48Z" fill="white"/>
<path d="M36 60V72H48V60H36Z" fill="white"/>
<path d="M12 24V36H24V24H12Z" fill="white" fill-opacity="0.5"/>
<path d="M48 12V24H60V12H48Z" fill="white" fill-opacity="0.5"/>
<path d="M60 12V24H72V12H60Z" fill="white" fill-opacity="0.5"/>
<path d="M72 12V24H84V12H72Z" fill="white" fill-opacity="0.5"/>
<path d="M36 12V24H48V12H36Z" fill="white" fill-opacity="0.5"/>
<path d="M24 96V84H36V96H24Z" fill="white" fill-opacity="0.25"/>
<path d="M24 12V0H36V12H24Z" fill="white" fill-opacity="0.25"/>
<path d="M48 96V84H60V96H48Z" fill="white" fill-opacity="0.25"/>
<path d="M48 12V0H60V12H48Z" fill="white" fill-opacity="0.25"/>
<path d="M48 84V72H60V84H48Z" fill="white" fill-opacity="0.5"/>
<path d="M60 84V72H72V84H60Z" fill="white" fill-opacity="0.5"/>
<path d="M36 96V84H48V96H36Z" fill="white" fill-opacity="0.25"/>
<path d="M36 12V0H48V12H36Z" fill="white" fill-opacity="0.25"/>
<path d="M60 96V84H72V96H60Z" fill="white" fill-opacity="0.25"/>
<path d="M60 12V0H72V12H60Z" fill="white" fill-opacity="0.25"/>
<path d="M36 84V72H48V84H36Z" fill="white" fill-opacity="0.5"/>
<path d="M24 84V72H36V84H24Z" fill="white" fill-opacity="0.5"/>
<path d="M0 36H12V48H0V36Z" fill="white" fill-opacity="0.25"/>
<path d="M0 24H12V36H0V24Z" fill="white" fill-opacity="0.25"/>
<path d="M12 48H24V60H12V48Z" fill="white" fill-opacity="0.5"/>
<path d="M12 60H24V72H12V60Z" fill="white" fill-opacity="0.5"/>
<path d="M12 72H24V84H12V72Z" fill="white" fill-opacity="0.5"/>
<path d="M0 48H12V60H0V48Z" fill="white" fill-opacity="0.25"/>
<path d="M0 60H12V72H0V60Z" fill="white" fill-opacity="0.25"/>
<path d="M12 36H24V48H12V36Z" fill="white" fill-opacity="0.5"/>
<path d="M96 24H84V36H96V24Z" fill="white" fill-opacity="0.25"/>
<path d="M96 48H84V60H96V48Z" fill="white" fill-opacity="0.25"/>
<path d="M84 24H72V36H84V24Z" fill="white" fill-opacity="0.5"/>
<path d="M84 48H72V60H84V48Z" fill="white" fill-opacity="0.5"/>
<path d="M84 60H72V72H84V60Z" fill="white" fill-opacity="0.5"/>
<path d="M84 72H72V84H84V72Z" fill="white" fill-opacity="0.5"/>
<path d="M96 36H84V48H96V36Z" fill="white" fill-opacity="0.25"/>
<path d="M96 60H84V72H96V60Z" fill="white" fill-opacity="0.25"/>
<path d="M84 36H72V48H84V36Z" fill="white" fill-opacity="0.5"/>
</svg>
