<svg width="96" height="96" viewBox="0 0 96 96" fill="none" xmlns="http://www.w3.org/2000/svg">
<g clip-path="url(#clip0_2_133)">
<path d="M89.9325 47.997C89.9325 39.4687 87.3703 31.5335 82.9813 24.9029L96 11.8851L84.2921 0.17792L71.309 13.1602C64.6425 8.68252 56.6237 6.06709 48.0059 6.06709C39.4771 6.06709 31.5413 8.62915 24.9104 13.0179L11.8858 0L0.177931 11.7072L13.161 24.6894C8.68306 31.3555 6.06747 39.3738 6.06747 47.9911C6.06747 56.5194 8.62968 64.4547 13.0187 71.0852L0 84.109L11.7079 95.8162L24.691 82.8339C31.3575 87.3115 39.3762 89.927 47.9941 89.927C56.5229 89.927 64.4587 87.3649 71.0896 82.9762L84.1142 96L95.8221 84.2928L82.839 71.3106C87.3169 64.6326 89.9325 56.6143 89.9325 47.997ZM22.6329 47.997C22.6329 34.0065 34.0146 22.6256 48.0059 22.6256C61.9973 22.6256 73.379 34.0065 73.379 47.997C73.379 61.9875 61.9973 73.3685 48.0059 73.3685C34.0146 73.3685 22.6329 61.9875 22.6329 47.997Z" fill="white"/>
</g>
<defs>
<clipPath id="clip0_2_133">
<rect width="96" height="96" fill="white"/>
</clipPath>
</defs>
</svg>
