<svg width="40" height="40" viewBox="0 0 40 40" fill="none" xmlns="http://www.w3.org/2000/svg">
<path d="M37.4696 19.9988C37.4696 16.4453 36.4021 13.1389 34.5734 10.3762L39.9975 4.95212L35.1195 0.0741334L29.7103 5.48341C26.9327 3.61772 23.5918 2.52795 20.0012 2.52795C16.4478 2.52795 13.1414 3.59548 10.3787 5.42411L4.95212 0L0.0741334 4.87799L5.48341 10.2873C3.61772 13.0648 2.52795 16.4058 2.52795 19.9963C2.52795 23.5498 3.59548 26.8561 5.42411 29.6188L0 35.0454L4.87799 39.9234L10.2873 34.5141C13.0648 36.3798 16.4058 37.4696 19.9963 37.4696C23.5498 37.4696 26.8561 36.4021 29.6188 34.5734L35.0454 40L39.9234 35.122L34.5141 29.7127C36.3798 26.9303 37.4696 23.5893 37.4696 19.9988ZM9.42979 19.9988C9.42979 14.1694 14.1719 9.42732 20.0012 9.42732C25.8306 9.42732 30.5727 14.1694 30.5727 19.9988C30.5727 25.8281 25.8306 30.5702 20.0012 30.5702C14.1719 30.5702 9.42979 25.8281 9.42979 19.9988Z" fill="white"/>
</svg>
