<svg width="96" height="96" viewBox="0 0 96 96" fill="none" xmlns="http://www.w3.org/2000/svg">
<rect width="96" height="96" fill="black"/>
<path d="M72.4606 47.9983C72.4606 43.0234 70.966 38.3945 68.4058 34.5267L76 26.933L69.1704 20.1038L61.5969 27.6768C57.7081 25.0648 53.0305 23.5391 48.0035 23.5391C43.0283 23.5391 38.3991 25.0337 34.5311 27.5937L26.9334 20L20.1038 26.8292L27.6773 34.4022C25.0651 38.2907 23.5394 42.9681 23.5394 47.9948C23.5394 52.9697 25.034 57.5986 27.5942 61.4664L20 69.0636L26.8296 75.8928L34.4031 68.3198C38.2919 70.9317 42.9695 72.4574 47.9965 72.4574C52.9717 72.4574 57.6009 70.9629 61.4689 68.4028L69.0666 76L75.8962 69.1708L68.3227 61.5978C70.9349 57.7024 72.4606 53.025 72.4606 47.9983ZM33.2025 47.9983C33.2025 39.8372 39.8418 33.1982 48.0035 33.1982C56.1651 33.1982 62.8044 39.8372 62.8044 47.9983C62.8044 56.1594 56.1651 62.7983 48.0035 62.7983C39.8418 62.7983 33.2025 56.1594 33.2025 47.9983Z" fill="white"/>
</svg>
