<svg width="142" height="24" viewBox="0 0 142 24" fill="none" xmlns="http://www.w3.org/2000/svg">
<g clip-path="url(#clip0_489_1757)">
<path d="M37.7793 23.4374H37.7247L29.7713 3.07471H24.75V23.7174H27.5673L27.4567 3.35471H27.5113L35.4607 23.7174H40.4553V3.07471H37.6927L37.7767 23.4374H37.7793Z" fill="#BAE573"/>
<path d="M53.4557 5.19334C56.4384 5.19334 58.5611 7.20134 59.2011 10.604H61.9891C61.2904 5.72268 58.1384 2.79468 53.4517 2.79468C47.7317 2.79468 44.3584 6.72668 44.3584 13.396C44.3584 20.0653 47.7357 23.9973 53.4517 23.9973C58.1077 23.9973 61.2904 21.0147 61.9891 16.048H59.2011C58.5611 19.5347 56.4677 21.5987 53.4557 21.5987C49.6344 21.5987 47.3464 18.556 47.3464 13.396C47.3464 8.23601 49.6344 5.19334 53.4557 5.19334Z" fill="#BAE573"/>
<path d="M68.5178 3.07471H65.5898V23.7174H68.5178V3.07471Z" fill="#BAE573"/>
<path d="M76.4671 14.26H86.2591V11.9174H76.4671V5.38804H87.2338V3.07471H73.5391V23.7174H87.5418V21.4H76.4671V14.26Z" fill="#BAE573"/>
<path d="M104.249 23.4374H104.195L96.2469 3.07471H91.2256V23.7174H94.0429L93.9283 3.35471H93.9869L101.935 23.7174H106.925V3.07471H104.167L104.249 23.4374Z" fill="#BAE573"/>
<path d="M109.939 5.38804H116.188V23.7174H119.116V5.38804H125.366V3.07471H109.939V5.38804Z" fill="#BAE573"/>
<path d="M134.091 13.5134C134.955 13.2747 135.768 13.1307 137.017 12.6494C138.629 12.0494 140.612 10.74 140.612 8.17338C140.612 5.06538 137.753 2.80005 133.877 2.80005C130.001 2.80005 127.143 5.06938 127.143 8.17338V8.23605C127.187 11.8414 131.755 11.8627 133.547 11.7374C132.679 12.0027 131.737 12.2667 130.769 12.6054C129.071 13.2014 126.492 14.8347 126.492 17.9054C126.492 21.576 129.836 24 133.877 24C137.919 24 141.263 21.8881 141.263 18.2174C141.263 13.7894 135.907 13.484 134.093 13.516L134.091 13.512V13.5134ZM131.64 10.7174C131.64 10.7174 131.625 10.7067 131.621 10.7027C130.852 10.1214 130.396 9.24938 130.396 8.28938C130.396 6.55338 131.757 5.21072 133.876 5.21072C135.995 5.21072 137.385 6.55338 137.385 8.28938C137.385 8.92938 137.176 9.53205 136.804 10.036C136.492 10.4587 136.057 10.76 135.595 10.9814C135.553 11 135.513 11.0214 135.469 11.04C134.223 11.6107 132.763 11.5254 131.64 10.716V10.7174ZM133.876 21.572C131.525 21.572 129.745 19.9027 129.745 17.724C129.745 16.308 130.477 15.168 131.617 14.528C131.691 14.488 131.764 14.4507 131.835 14.4147C133.177 13.712 134.755 13.7227 136.071 14.4734C136.127 14.5067 136.156 14.5254 136.156 14.5254C137.304 15.1654 138.036 16.3094 138.036 17.7254C138.036 19.9067 136.252 21.5734 133.875 21.5734L133.876 21.572Z" fill="#BAE573"/>
<path d="M21.9595 16.1841H0.603516V18.5267H21.9595V16.1841Z" fill="#BAE573"/>
<path d="M4.21561 21.8789L3.52361 23.7175H0.599609L2.64894 18.5269L3.22228 18.8949C4.21561 19.5309 4.62761 20.7749 4.21161 21.8749L4.21561 21.8789Z" fill="#BAE573"/>
<path d="M21.9591 23.7174H18.9204L18.2404 21.9441C17.8058 20.8108 18.2471 19.5308 19.2884 18.9094L19.9204 18.5308L21.9578 23.7214V23.7174H21.9591Z" fill="#BAE573"/>
<path d="M19.9207 18.528H16.9594L16.0727 16.1853L11.23 3.35467H11.182L6.35537 16.184L5.4767 18.5267H2.65137L3.57403 16.184L8.75003 3.07467H11.122L9.9647 0H12.654L19.002 16.184L19.922 18.5267L19.9207 18.528Z" fill="#BAE573"/>
</g>
<defs>
<clipPath id="clip0_489_1757">
<rect width="141" height="24" fill="white" transform="translate(0.599609)"/>
</clipPath>
</defs>
</svg>
