<svg width="1280" height="832" viewBox="0 0 1280 832" fill="none" xmlns="http://www.w3.org/2000/svg">
<g clip-path="url(#clip0_224_124)">
<path d="M1264 0H16C10.3995 0 7.59921 0 5.46009 1.08993C3.57847 2.04867 2.04867 3.57847 1.08993 5.46009C0 7.59921 0 10.3995 0 16V816C0 821.601 0 824.401 1.08993 826.54C2.04867 828.422 3.57847 829.951 5.46009 830.91C7.59921 832 10.3995 832 16 832H1264C1269.6 832 1272.4 832 1274.54 830.91C1276.42 829.951 1277.95 828.422 1278.91 826.54C1280 824.401 1280 821.601 1280 816V16C1280 10.3995 1280 7.59921 1278.91 5.46009C1277.95 3.57847 1276.42 2.04867 1274.54 1.08993C1272.4 0 1269.6 0 1264 0Z" fill="#11011E"/>
<path d="M1227.49 7.23047H52.5542C46.9536 7.23047 44.1534 7.23047 42.0142 8.3204C40.1326 9.27914 38.6028 10.8089 37.6441 12.6906C36.5542 14.8297 36.5542 17.6299 36.5542 23.2305V775.291C36.5542 780.891 36.5542 783.692 37.6441 785.831C38.6028 787.712 40.1326 789.242 42.0142 790.201C44.1534 791.291 46.9536 791.291 52.5541 791.291H1227.49C1233.09 791.291 1235.89 791.291 1238.03 790.201C1239.91 789.242 1241.44 787.712 1242.4 785.831C1243.49 783.692 1243.49 780.891 1243.49 775.291V23.2305C1243.49 17.6299 1243.49 14.8297 1242.4 12.6906C1241.44 10.8089 1239.91 9.27914 1238.03 8.3204C1235.89 7.23047 1233.09 7.23047 1227.49 7.23047Z" fill="#130121"/>
<path d="M1190.89 14.4609H89.068C83.4675 14.4609 80.6672 14.4609 78.5281 15.5509C76.6465 16.5096 75.1167 18.0394 74.1579 19.921C73.068 22.0601 73.068 24.8604 73.068 30.4609V734.582C73.068 740.182 73.068 742.983 74.1579 745.122C75.1167 747.003 76.6465 748.533 78.5281 749.492C80.6672 750.582 83.4675 750.582 89.068 750.582H1190.89C1196.49 750.582 1199.29 750.582 1201.43 749.492C1203.31 748.533 1204.84 747.003 1205.8 745.122C1206.89 742.983 1206.89 740.182 1206.89 734.582V30.4609C1206.89 24.8604 1206.89 22.0601 1205.8 19.921C1204.84 18.0394 1203.31 16.5096 1201.43 15.5509C1199.29 14.4609 1196.49 14.4609 1190.89 14.4609Z" fill="#150124"/>
<path d="M1154.38 21.6904H125.622C120.022 21.6904 117.221 21.6904 115.082 22.7804C113.201 23.7391 111.671 25.2689 110.712 27.1505C109.622 29.2896 109.622 32.0899 109.622 37.6904V693.872C109.622 699.472 109.622 702.273 110.712 704.412C111.671 706.293 113.201 707.823 115.082 708.782C117.221 709.872 120.022 709.872 125.622 709.872H1154.38C1159.98 709.872 1162.78 709.872 1164.92 708.782C1166.8 707.823 1168.33 706.293 1169.29 704.412C1170.38 702.273 1170.38 699.472 1170.38 693.872V37.6904C1170.38 32.0899 1170.38 29.2896 1169.29 27.1505C1168.33 25.2689 1166.8 23.7391 1164.92 22.7804C1162.78 21.6904 1159.98 21.6904 1154.38 21.6904Z" fill="#170227"/>
<path d="M1117.86 28.9209H162.176C156.576 28.9209 153.776 28.9209 151.636 30.0108C149.755 30.9696 148.225 32.4994 147.266 34.381C146.176 36.5201 146.176 39.3204 146.176 44.9209V653.163C146.176 658.763 146.176 661.563 147.266 663.703C148.225 665.584 149.755 667.114 151.636 668.073C153.776 669.163 156.576 669.163 162.176 669.163H1117.86C1123.46 669.163 1126.26 669.163 1128.4 668.073C1130.29 667.114 1131.82 665.584 1132.77 663.703C1133.86 661.563 1133.86 658.763 1133.86 653.163V44.9209C1133.86 39.3204 1133.86 36.5201 1132.77 34.381C1131.82 32.4994 1130.29 30.9696 1128.4 30.0108C1126.26 28.9209 1123.46 28.9209 1117.86 28.9209Z" fill="#19022A"/>
<path d="M1081.31 36.1514H198.69C193.09 36.1514 190.289 36.1514 188.15 37.2413C186.269 38.2 184.739 39.7298 183.78 41.6115C182.69 43.7506 182.69 46.5508 182.69 52.1514V612.454C182.69 618.054 182.69 620.854 183.78 622.993C184.739 624.875 186.269 626.405 188.15 627.364C190.289 628.454 193.09 628.454 198.69 628.454H1081.31C1086.91 628.454 1089.71 628.454 1091.85 627.364C1093.73 626.405 1095.26 624.875 1096.22 622.993C1097.31 620.854 1097.31 618.054 1097.31 612.454V52.1514C1097.31 46.5508 1097.31 43.7506 1096.22 41.6115C1095.26 39.7298 1093.73 38.2 1091.85 37.2413C1089.71 36.1514 1086.91 36.1514 1081.31 36.1514Z" fill="#1A022E"/>
<path d="M1044.76 43.3818H235.244C229.644 43.3818 226.844 43.3818 224.704 44.4718C222.823 45.4305 221.293 46.9603 220.334 48.8419C219.244 50.981 219.244 53.7813 219.244 59.3818V571.745C219.244 577.345 219.244 580.145 220.334 582.284C221.293 584.166 222.823 585.696 224.704 586.655C226.844 587.745 229.644 587.745 235.244 587.745H1044.76C1050.36 587.745 1053.16 587.745 1055.3 586.655C1057.18 585.696 1058.71 584.166 1059.67 582.284C1060.76 580.145 1060.76 577.345 1060.76 571.745V59.3818C1060.76 53.7813 1060.76 50.981 1059.67 48.8419C1058.71 46.9603 1057.18 45.4305 1055.3 44.4718C1053.16 43.3818 1050.36 43.3818 1044.76 43.3818Z" fill="#1C0231"/>
<path d="M1008.2 50.6113H271.758C266.158 50.6113 263.357 50.6113 261.218 51.7013C259.337 52.66 257.807 54.1898 256.848 56.0714C255.758 58.2105 255.758 61.0108 255.758 66.6114V531.034C255.758 536.635 255.758 539.435 256.848 541.574C257.807 543.456 259.337 544.986 261.218 545.945C263.357 547.034 266.158 547.034 271.758 547.034H1008.2C1013.8 547.034 1016.6 547.034 1018.74 545.945C1020.62 544.986 1022.15 543.456 1023.11 541.574C1024.2 539.435 1024.2 536.635 1024.2 531.034V66.6113C1024.2 61.0108 1024.2 58.2105 1023.11 56.0714C1022.15 54.1898 1020.62 52.66 1018.74 51.7013C1016.6 50.6113 1013.8 50.6113 1008.2 50.6113Z" fill="#1E0234"/>
<path d="M971.688 57.8418H308.312C302.712 57.8418 299.912 57.8418 297.772 58.9317C295.891 59.8905 294.361 61.4203 293.402 63.3019C292.312 65.441 292.312 68.2413 292.312 73.8418V490.325C292.312 495.926 292.312 498.726 293.402 500.865C294.361 502.747 295.891 504.277 297.772 505.235C299.912 506.325 302.712 506.325 308.312 506.325H971.688C977.288 506.325 980.088 506.325 982.228 505.235C984.109 504.277 985.639 502.747 986.598 500.865C987.688 498.726 987.688 495.926 987.688 490.325V73.8418C987.688 68.2413 987.688 65.441 986.598 63.3019C985.639 61.4203 984.109 59.8905 982.228 58.9317C980.088 57.8418 977.288 57.8418 971.688 57.8418Z" fill="#200237"/>
<path d="M935.133 65.0723H344.866C339.266 65.0723 336.466 65.0723 334.327 66.1622C332.445 67.1209 330.915 68.6507 329.956 70.5324C328.866 72.6715 328.866 75.4717 328.866 81.0723V449.616C328.866 455.217 328.866 458.017 329.956 460.156C330.915 462.038 332.445 463.568 334.327 464.526C336.466 465.616 339.266 465.616 344.866 465.616H935.133C940.734 465.616 943.534 465.616 945.673 464.526C947.555 463.568 949.085 462.038 950.044 460.156C951.133 458.017 951.133 455.217 951.133 449.616V81.0723C951.133 75.4717 951.133 72.6715 950.044 70.5324C949.085 68.6507 947.555 67.1209 945.673 66.1622C943.534 65.0723 940.734 65.0723 935.133 65.0723Z" fill="#22033A"/>
<path d="M898.579 72.3281H381.38C375.78 72.3281 372.98 72.3281 370.84 73.4181C368.959 74.3768 367.429 75.9066 366.47 77.7882C365.38 79.9273 365.38 82.7276 365.38 88.3281V408.933C365.38 414.533 365.38 417.333 366.47 419.473C367.429 421.354 368.959 422.884 370.84 423.843C372.98 424.933 375.78 424.933 381.38 424.933H898.579C904.18 424.933 906.98 424.933 909.119 423.843C911.001 422.884 912.531 421.354 913.489 419.473C914.579 417.333 914.579 414.533 914.579 408.933V88.3281C914.579 82.7276 914.579 79.9273 913.489 77.7882C912.531 75.9066 911.001 74.3768 909.119 73.4181C906.98 72.3281 904.18 72.3281 898.579 72.3281Z" fill="#24033D"/>
<path d="M862.065 79.5586H417.935C412.334 79.5586 409.534 79.5586 407.395 80.6485C405.513 81.6073 403.983 83.1371 403.024 85.0187C401.935 87.1578 401.935 89.9581 401.935 95.5586V368.224C401.935 373.824 401.935 376.624 403.024 378.763C403.983 380.645 405.513 382.175 407.395 383.134C409.534 384.224 412.334 384.224 417.935 384.224H862.065C867.666 384.224 870.466 384.224 872.605 383.134C874.487 382.175 876.017 380.645 876.976 378.763C878.065 376.624 878.065 373.824 878.065 368.224V95.5586C878.065 89.9581 878.065 87.1578 876.976 85.0187C876.017 83.1371 874.487 81.6073 872.605 80.6485C870.466 79.5586 867.666 79.5586 862.065 79.5586Z" fill="#260340"/>
<path d="M825.552 86.7891H454.489C448.888 86.7891 446.088 86.7891 443.949 87.879C442.067 88.8377 440.537 90.3675 439.579 92.2492C438.489 94.3883 438.489 97.1885 438.489 102.789V327.514C438.489 333.115 438.489 335.915 439.579 338.054C440.537 339.936 442.067 341.466 443.949 342.425C446.088 343.514 448.888 343.514 454.489 343.514H825.552C831.152 343.514 833.952 343.514 836.092 342.425C837.973 341.466 839.503 339.936 840.462 338.054C841.552 335.915 841.552 333.115 841.552 327.515V102.789C841.552 97.1885 841.552 94.3883 840.462 92.2492C839.503 90.3675 837.973 88.8377 836.092 87.879C833.952 86.7891 831.152 86.7891 825.552 86.7891Z" fill="#280343"/>
<path d="M788.957 94.0195H491.003C485.402 94.0195 482.602 94.0195 480.463 95.1095C478.581 96.0682 477.051 97.598 476.092 99.4796C475.003 101.619 475.003 104.419 475.003 110.02V286.805C475.003 292.406 475.003 295.206 476.092 297.345C477.051 299.227 478.581 300.757 480.463 301.715C482.602 302.805 485.402 302.805 491.002 302.805H788.957C794.558 302.805 797.358 302.805 799.497 301.715C801.379 300.757 802.908 299.227 803.867 297.345C804.957 295.206 804.957 292.406 804.957 286.805V110.02C804.957 104.419 804.957 101.619 803.867 99.4796C802.908 97.598 801.379 96.0682 799.497 95.1095C797.358 94.0195 794.558 94.0195 788.957 94.0195Z" fill="#290347"/>
<path d="M752.443 101.249H527.557C521.956 101.249 519.156 101.249 517.017 102.339C515.135 103.298 513.605 104.827 512.647 106.709C511.557 108.848 511.557 111.649 511.557 117.249V246.095C511.557 251.696 511.557 254.496 512.647 256.635C513.605 258.517 515.135 260.047 517.017 261.005C519.156 262.095 521.956 262.095 527.557 262.095H752.443C758.044 262.095 760.844 262.095 762.983 261.005C764.865 260.047 766.395 258.517 767.353 256.635C768.443 254.496 768.443 251.696 768.443 246.095V117.249C768.443 111.648 768.443 108.848 767.353 106.709C766.395 104.827 764.865 103.298 762.983 102.339C760.844 101.249 758.044 101.249 752.443 101.249Z" fill="#2B034A"/>
<path d="M715.93 108.479H564.111C558.51 108.479 555.71 108.479 553.571 109.569C551.689 110.528 550.16 112.058 549.201 113.94C548.111 116.079 548.111 118.879 548.111 124.479V205.386C548.111 210.987 548.111 213.787 549.201 215.926C550.16 217.808 551.689 219.338 553.571 220.296C555.71 221.386 558.51 221.386 564.111 221.386H715.929C721.53 221.386 724.33 221.386 726.469 220.296C728.351 219.338 729.881 217.808 730.84 215.926C731.929 213.787 731.929 210.987 731.929 205.386V124.479C731.929 118.879 731.929 116.079 730.84 113.94C729.881 112.058 728.351 110.528 726.469 109.569C724.33 108.479 721.53 108.479 715.93 108.479Z" fill="#2D044D"/>
<path d="M679.375 115.71H600.625C595.024 115.71 592.224 115.71 590.085 116.8C588.203 117.759 586.673 119.288 585.715 121.17C584.625 123.309 584.625 126.109 584.625 131.71V164.677C584.625 170.278 584.625 173.078 585.715 175.217C586.673 177.099 588.203 178.629 590.085 179.587C592.224 180.677 595.024 180.677 600.625 180.677H679.375C684.976 180.677 687.776 180.677 689.915 179.587C691.797 178.629 693.327 177.099 694.285 175.217C695.375 173.078 695.375 170.278 695.375 164.677V131.71C695.375 126.109 695.375 123.309 694.285 121.17C693.327 119.288 691.797 117.759 689.915 116.8C687.776 115.71 684.976 115.71 679.375 115.71Z" fill="#2F0450"/>
<path d="M650.307 122.94H629.693C624.991 122.94 621.179 126.752 621.179 131.454C621.179 136.156 624.991 139.968 629.693 139.968H650.307C655.009 139.968 658.821 136.156 658.821 131.454C658.821 126.752 655.009 122.94 650.307 122.94Z" fill="#310453"/>
</g>
<defs>
<clipPath id="clip0_224_124">
<rect width="1280" height="832" fill="white"/>
</clipPath>
</defs>
</svg>
