<svg width="318" height="318" viewBox="0 0 318 318" fill="none" xmlns="http://www.w3.org/2000/svg">
<g clip-path="url(#clip0_216_452)">
<path d="M317.6 0H0V317.6H317.6V0Z" fill="#310453"/>
<path d="M309.62 3.23047H7.98999V302.71H309.62V3.23047Z" fill="#3A0D5D"/>
<path d="M301.62 6.4502H15.97V287.81H301.62V6.4502Z" fill="#441667"/>
<path d="M293.64 9.67969H23.96V272.92H293.64V9.67969Z" fill="#4D1F70"/>
<path d="M285.65 12.9102H31.95V258.04H285.65V12.9102Z" fill="#56287A"/>
<path d="M277.67 16.1396H39.94V243.15H277.67V16.1396Z" fill="#603184"/>
<path d="M269.67 19.3604H47.92V228.25H269.67V19.3604Z" fill="#693A8E"/>
<path d="M261.69 22.5898H55.91V213.36H261.69V22.5898Z" fill="#724397"/>
<path d="M253.71 25.8203H63.9V198.47H253.71V25.8203Z" fill="#7C4CA1"/>
<path d="M245.71 29.0498H71.88V183.58H245.71V29.0498Z" fill="#8556AB"/>
<path d="M237.73 32.2695H79.87V168.68H237.73V32.2695Z" fill="#8F5FB5"/>
<path d="M229.74 35.5H87.86V153.8H229.74V35.5Z" fill="#9868BE"/>
<path d="M221.76 38.7305H95.85V138.91H221.76V38.7305Z" fill="#A171C8"/>
<path d="M213.76 41.96H103.83V124.02H213.76V41.96Z" fill="#AB7AD2"/>
<path d="M205.78 45.1797H111.82V109.12H205.78V45.1797Z" fill="#B483DC"/>
<path d="M197.8 48.4102H119.81V94.2302H197.8V48.4102Z" fill="#BD8CE5"/>
<path d="M189.8 51.6396H127.79V79.3396H189.8V51.6396Z" fill="#C795EF"/>
<path d="M181.82 54.8701H135.78V64.4501H181.82V54.8701Z" fill="#D09EF9"/>
</g>
<defs>
<clipPath id="clip0_216_452">
<rect width="317.6" height="317.6" fill="white"/>
</clipPath>
</defs>
</svg>
