<svg width="318" height="318" viewBox="0 0 318 318" fill="none" xmlns="http://www.w3.org/2000/svg">
<g clip-path="url(#clip0_216_398)">
<path d="M317.6 0H0V317.6H317.6V0Z" fill="#310453"/>
<path d="M3.17002 1.12012H314.42C314.57 1.12012 314.69 155.23 314.69 155.38C314.69 155.53 314.57 309.64 314.42 309.64H3.17002C3.02002 309.64 2.90002 155.53 2.90002 155.38C2.90002 155.23 3.02002 1.12012 3.17002 1.12012Z" fill="#360958"/>
<path d="M6.35006 2.23047H311.25C311.55 2.23047 311.79 151.65 311.79 151.95C311.79 152.25 311.55 301.67 311.25 301.67H6.35006C6.05006 301.67 5.81006 152.25 5.81006 151.95C5.81006 151.65 6.05006 2.23047 6.35006 2.23047Z" fill="#3B0D5D"/>
<path d="M9.51996 3.34961H308.08C308.53 3.34961 308.89 148.08 308.89 148.53C308.89 148.98 308.53 293.71 308.08 293.71H9.51996C9.06996 293.71 8.70996 148.98 8.70996 148.53C8.70996 148.08 9.06996 3.34961 9.51996 3.34961Z" fill="#3F1262"/>
<path d="M12.7 4.46973H304.91C305.51 4.46973 306 144.51 306 145.11C306 145.71 305.51 285.75 304.91 285.75H12.7C12.1 285.75 11.61 145.71 11.61 145.11C11.61 144.51 12.1 4.46973 12.7 4.46973Z" fill="#441767"/>
<path d="M15.87 5.58008H301.73C302.48 5.58008 303.09 140.93 303.09 141.68C303.09 142.43 302.48 277.78 301.73 277.78H15.87C15.12 277.78 14.51 142.43 14.51 141.68C14.51 140.93 15.12 5.58008 15.87 5.58008Z" fill="#491B6C"/>
<path d="M19.04 6.7002H298.55C299.45 6.7002 300.18 137.36 300.18 138.25C300.18 139.15 299.45 269.81 298.55 269.81H19.04C18.14 269.81 17.41 139.15 17.41 138.26C17.41 137.36 18.14 6.7002 19.04 6.7002Z" fill="#4E2071"/>
<path d="M22.2199 7.80957H295.39C296.44 7.80957 297.29 133.78 297.29 134.82C297.29 135.87 296.44 261.83 295.39 261.83H22.2199C21.1699 261.83 20.3199 135.86 20.3199 134.82C20.3199 133.77 21.1699 7.80957 22.2199 7.80957Z" fill="#532576"/>
<path d="M25.39 8.92969H292.21C293.41 8.92969 294.38 130.2 294.38 131.4C294.38 132.6 293.41 253.87 292.21 253.87H25.39C24.19 253.87 23.22 132.6 23.22 131.4C23.22 130.2 24.19 8.92969 25.39 8.92969Z" fill="#58297B"/>
<path d="M28.56 10.0498H289.03C290.38 10.0498 291.47 126.63 291.47 127.98C291.47 129.33 290.38 245.91 289.03 245.91H28.56C27.21 245.91 26.12 129.33 26.12 127.98C26.12 126.63 27.21 10.0498 28.56 10.0498Z" fill="#5C2E80"/>
<path d="M31.74 11.1602H285.86C287.36 11.1602 288.57 123.05 288.57 124.55C288.57 126.05 287.36 237.94 285.86 237.94H31.74C30.24 237.94 29.03 126.05 29.03 124.55C29.03 123.05 30.24 11.1602 31.74 11.1602Z" fill="#613385"/>
<path d="M34.9101 12.2803H282.69C284.34 12.2803 285.67 119.48 285.67 121.13C285.67 122.78 284.33 229.98 282.69 229.98H34.9101C33.2601 229.98 31.9301 122.78 31.9301 121.13C31.9301 119.48 33.2701 12.2803 34.9101 12.2803Z" fill="#66378A"/>
<path d="M38.09 13.4004H279.52C281.32 13.4004 282.78 115.91 282.78 117.71C282.78 119.51 281.32 222.02 279.52 222.02H38.09C36.29 222.02 34.83 119.51 34.83 117.71C34.83 115.91 36.29 13.4004 38.09 13.4004Z" fill="#6B3C8F"/>
<path d="M41.26 14.5098H276.34C278.29 14.5098 279.87 112.33 279.87 114.28C279.87 116.23 278.29 214.05 276.34 214.05H41.26C39.31 214.05 37.73 116.23 37.73 114.28C37.73 112.33 39.31 14.5098 41.26 14.5098Z" fill="#704194"/>
<path d="M44.43 15.6299H273.16C275.26 15.6299 276.96 108.76 276.96 110.86C276.96 112.96 275.26 206.09 273.16 206.09H44.43C42.33 206.09 40.63 112.96 40.63 110.86C40.63 108.76 42.33 15.6299 44.43 15.6299Z" fill="#744599"/>
<path d="M47.61 16.75H270C272.25 16.75 274.07 105.19 274.07 107.44C274.07 109.69 272.25 198.13 270 198.13H47.61C45.36 198.13 43.54 109.69 43.54 107.44C43.54 105.19 45.36 16.75 47.61 16.75Z" fill="#794A9E"/>
<path d="M50.7799 17.8604H266.82C269.22 17.8604 271.16 101.61 271.16 104.01C271.16 106.41 269.22 190.16 266.82 190.16H50.7799C48.3799 190.16 46.4399 106.41 46.4399 104.01C46.4399 101.61 48.3799 17.8604 50.7799 17.8604Z" fill="#7E4FA3"/>
<path d="M53.95 18.9805H263.64C266.19 18.9805 268.25 98.0405 268.25 100.59C268.25 103.14 266.19 182.2 263.64 182.2H53.95C51.4 182.2 49.34 103.14 49.34 100.59C49.34 98.0405 51.4 18.9805 53.95 18.9805Z" fill="#8353A9"/>
<path d="M57.13 20.0898H260.47C263.17 20.0898 265.35 94.4598 265.35 97.1498C265.35 99.8498 263.16 174.21 260.47 174.21H57.13C54.43 174.21 52.25 99.8398 52.25 97.1498C52.25 94.4498 54.44 20.0898 57.13 20.0898Z" fill="#8858AE"/>
<path d="M60.3 21.21H257.3C260.15 21.21 262.45 90.89 262.45 93.73C262.45 96.58 260.14 166.25 257.3 166.25H60.3C57.45 166.25 55.15 96.57 55.15 93.73C55.15 90.88 57.46 21.21 60.3 21.21Z" fill="#8D5DB3"/>
<path d="M63.48 22.3301H254.13C257.13 22.3301 259.56 87.3201 259.56 90.3101C259.56 93.3101 257.13 158.29 254.13 158.29H63.48C60.48 158.29 58.05 93.3001 58.05 90.3101C58.05 87.3101 60.48 22.3301 63.48 22.3301Z" fill="#9161B8"/>
<path d="M66.65 23.4404H250.95C254.1 23.4404 256.65 83.7404 256.65 86.8804C256.65 90.0304 254.1 150.32 250.95 150.32H66.65C63.5 150.32 60.95 90.0204 60.95 86.8804C60.95 83.7304 63.5 23.4404 66.65 23.4404Z" fill="#9666BD"/>
<path d="M69.82 24.5596H247.77C251.07 24.5596 253.74 80.1696 253.74 83.4596C253.74 86.7596 251.07 142.36 247.77 142.36H69.82C66.52 142.36 63.85 86.7496 63.85 83.4596C63.85 80.1596 66.52 24.5596 69.82 24.5596Z" fill="#9B6BC2"/>
<path d="M73 25.6797H244.61C248.06 25.6797 250.85 76.5897 250.85 80.0397C250.85 83.4897 248.06 134.4 244.61 134.4H73C69.55 134.4 66.76 83.4897 66.76 80.0397C66.76 76.5897 69.55 25.6797 73 25.6797Z" fill="#A06FC7"/>
<path d="M76.17 26.79H241.43C245.03 26.79 247.94 73.01 247.94 76.61C247.94 80.21 245.03 126.43 241.43 126.43H76.17C72.57 126.43 69.66 80.21 69.66 76.61C69.66 73.01 72.57 26.79 76.17 26.79Z" fill="#A574CC"/>
<path d="M79.3401 27.9102H238.25C242 27.9102 245.03 69.4402 245.03 73.1902C245.03 76.9402 241.99 118.47 238.25 118.47H79.3401C75.5901 118.47 72.5601 76.9402 72.5601 73.1902C72.5601 69.4402 75.6001 27.9102 79.3401 27.9102Z" fill="#A979D1"/>
<path d="M82.52 29.0195H235.08C238.98 29.0195 242.13 65.8595 242.13 69.7595C242.13 73.6595 238.97 110.5 235.08 110.5H82.52C78.62 110.5 75.47 73.6595 75.47 69.7595C75.47 65.8595 78.63 29.0195 82.52 29.0195Z" fill="#AE7DD6"/>
<path d="M85.69 30.1396H231.91C235.96 30.1396 239.23 62.2896 239.23 66.3396C239.23 70.3896 235.95 102.54 231.91 102.54H85.69C81.64 102.54 78.37 70.3896 78.37 66.3396C78.37 62.2896 81.65 30.1396 85.69 30.1396Z" fill="#B382DB"/>
<path d="M88.87 31.2598H228.74C232.94 31.2598 236.34 58.7198 236.34 62.9198C236.34 67.1198 232.94 94.5798 228.74 94.5798H88.87C84.67 94.5798 81.27 67.1198 81.27 62.9198C81.27 58.7198 84.67 31.2598 88.87 31.2598Z" fill="#B887E0"/>
<path d="M92.04 32.3701H225.56C229.9 32.3701 233.43 55.1401 233.43 59.4901C233.43 63.8301 229.91 86.6101 225.56 86.6101H92.04C87.7 86.6101 84.17 63.8401 84.17 59.4901C84.17 55.1501 87.69 32.3701 92.04 32.3701Z" fill="#BD8BE5"/>
<path d="M95.2099 33.4902H222.38C226.87 33.4902 230.52 51.5702 230.52 56.0602C230.52 60.5502 226.88 78.6302 222.38 78.6302H95.2099C90.7199 78.6302 87.0699 60.5502 87.0699 56.0602C87.0699 51.5702 90.7099 33.4902 95.2099 33.4902Z" fill="#C290EA"/>
<path d="M98.39 34.6104H219.22C223.86 34.6104 227.63 48.0004 227.63 52.6404C227.63 57.2804 223.86 70.6703 219.22 70.6703H98.39C93.75 70.6703 89.98 57.2804 89.98 52.6404C89.98 48.0004 93.75 34.6104 98.39 34.6104Z" fill="#C695EF"/>
<path d="M101.56 35.7197H216.04C220.83 35.7197 224.72 44.4197 224.72 49.2097C224.72 53.9997 220.83 62.6997 216.04 62.6997H101.56C96.77 62.6997 92.88 53.9997 92.88 49.2097C92.88 44.4197 96.77 35.7197 101.56 35.7197Z" fill="#CB99F4"/>
<path d="M212.87 36.8398H104.73C99.7871 36.8398 95.78 40.8469 95.78 45.7898C95.78 50.7328 99.7871 54.7398 104.73 54.7398H212.87C217.813 54.7398 221.82 50.7328 221.82 45.7898C221.82 40.8469 217.813 36.8398 212.87 36.8398Z" fill="#D09EF9"/>
</g>
<defs>
<clipPath id="clip0_216_398">
<rect width="317.6" height="317.6" fill="white"/>
</clipPath>
</defs>
</svg>
