<svg width="1512" height="1512" viewBox="0 0 1512 1512" fill="none" xmlns="http://www.w3.org/2000/svg">

<g id="bg" clip-path="url(#clip0_3_1030)">
<rect width="1512" height="1512" fill="#162A4A" />
<rect width="1512" height="1512" fill="#162A4A" opacity="0.2" filter="url(#displacementFilter)"/>
<g id="glow vector" style="mix-blend-mode:color-dodge" filter="url(#filter0_ddddf_3_1030)">
<path d="M756.56 1016C415.27 1016 122.66 1224.38 -1 1520.85L1512.2 1516.27C1387.44 1222.24 1096.09 1016 756.56 1016Z" fill="#162B4D" fill-opacity="0.01" shape-rendering="crispEdges"/>
</g>
<g id="Ellipse 1" style="mix-blend-mode:multiply" opacity="0.7">
<ellipse cx="756" cy="926.5" rx="1161" ry="1357.5" fill="url(#paint0_radial_3_1030)"/>
</g>
<g id="Group 7" style="mix-blend-mode:color-dodge" opacity="0.45" filter="url(#filter1_f_3_1030)">
<path id="Vector" d="M756.56 1006.83C415.27 1006.83 122.66 1215.21 -1 1511.68L1512.2 1507.1C1387.44 1213.07 1096.09 1006.83 756.56 1006.83Z" fill="#162B4D"/>
<g id="Group">
<path id="Vector_2" d="M354.91 1173.83C344.24 1205.39 193.53 1302.31 124.62 1380.11C71.2099 1440.41 35.1699 1491.62 21.6499 1511.61L78.0799 1511.44C82.7599 1499.13 98.5899 1471.35 151.73 1417.01C230.42 1336.54 392.69 1218.73 418.03 1176.5C443.37 1134.27 453.15 1095.14 406.92 1098.26C396.48 1098.96 388.25 1098.46 381.75 1097.27C348.8 1114.22 317.15 1133.34 286.98 1154.44C296.37 1153.39 308.2 1151.4 319.35 1147.61C342.91 1139.61 365.59 1142.28 354.92 1173.84L354.91 1173.83Z" fill="#3C72C6"/>
<path id="Vector_3" d="M535.4 1116.03C518.95 1169.38 386.47 1259.18 291.78 1349.43C228.96 1409.3 181.8 1474.26 157.16 1511.2L215.14 1511.02C213.67 1491.64 217.88 1465.08 242.88 1440.56C289.56 1394.77 398.48 1283.63 488.28 1234.72C572.72 1188.74 665.81 1061.58 586.05 1024.57C566.22 1028.76 546.65 1033.67 527.38 1039.26C535.47 1052.39 546.74 1079.23 535.4 1116.01V1116.03Z" fill="#3C72C6"/>
<path id="Vector_4" d="M680.77 1030.45C680.77 1058.01 647.87 1152.71 574.07 1221.17C500.27 1289.63 394.91 1351.87 338.89 1403C291.06 1446.65 257.82 1497.1 249.13 1510.92L298.28 1510.77C304.07 1493.75 320.84 1454.15 358.01 1427.89C406.47 1393.66 550.06 1286.96 592.74 1224.28C635.42 1161.6 698.1 1094.91 718.55 1069.57C731 1054.14 738.18 1026.35 741.89 1006.97C719.03 1007.37 696.4 1008.7 674.04 1010.93C677.76 1014.17 680.76 1020.01 680.76 1030.45H680.77Z" fill="#3C72C6"/>
<path id="Vector_5" d="M785.63 998.05C785.39 998.01 785.25 998 785.25 998L785.63 998.05Z" fill="#3C72C6"/>
<path id="Vector_6" d="M801.25 1056.68C787.02 1112.7 685.66 1251.4 625.2 1305.64C569.08 1355.98 432.17 1446.53 397.15 1510.47L468.47 1510.25C475.88 1493.37 495.95 1461.73 549.18 1427.44C627.87 1376.76 733.68 1245.17 753.24 1212.27C772.8 1179.37 817.7 1142.03 833.26 1102.91C848.82 1063.79 827.93 1052.67 841.26 1034C848.59 1023.73 859.14 1017.64 867.16 1014.23C844.94 1011.24 822.44 1009.12 799.7 1007.94C804.84 1015.99 807.89 1030.51 801.25 1056.67V1056.68Z" fill="#3C72C6"/>
<path id="Vector_7" d="M986.14 1071.69C963.76 1095.93 916.21 1078.22 891.04 1114.58C865.87 1150.94 864 1273.08 798.74 1317.83C743.2 1355.92 625.56 1458.81 591.73 1509.89L686.6 1509.6C679.64 1492.61 679.88 1473.25 699.92 1455.82C750.27 1412 764.25 1422.26 808.07 1374.71C851.89 1327.16 878.93 1188.24 923.68 1157.47C968.43 1126.7 992.67 1096.87 1036.49 1111.78C1080.31 1126.7 1123.2 1136.02 1197.79 1257.23C1272.38 1378.44 1310.6 1366.32 1354.43 1418.53C1374.54 1442.49 1392.88 1477.04 1406.84 1507.43L1480.5 1507.21C1468.39 1488.17 1449.59 1461.9 1425.29 1438.11C1380.54 1394.29 1270.52 1342.08 1258.4 1249.78C1251.96 1200.74 1245.52 1179.07 1247.05 1169.53C1172.14 1113.59 1087.36 1070.15 995.79 1042.28C996.92 1051.38 995.18 1061.92 986.15 1071.7L986.14 1071.69Z" fill="#3C72C6"/>
<path id="Vector_8" d="M1199.65 1420.39C1129.02 1376.34 1104.55 1359.03 1066.44 1360.6C1039.94 1361.69 1014.68 1372.01 994.41 1389.11C966.19 1412.91 923.03 1455.49 900.08 1508.96L1288.31 1507.79C1269.87 1479.42 1241.61 1446.58 1199.64 1420.39H1199.65Z" fill="#3C72C6"/>
</g>
</g>
</g>
<defs>
  <filter id="displacementFilter" x="-20%" y="-20%" width="140%" height="140%" filterUnits="objectBoundingBox" primitiveUnits="userSpaceOnUse" color-interpolation-filters="linearRGB">
	<feTurbulence type="turbulence" baseFrequency="32" numOctaves="8"  stitchTiles="stitch" x="0%" y="0%" width="100%" height="100%" result="turbulence"/>
	<feColorMatrix type="matrix"
    values="0   1   0   0   0
            0   1   0   0   0
            0   1   0   0   0
            0   0   0   1   0"
    x="0%" y="0%" width="100%" height="100%" in="turbulence" result="colormatrix"/>
	<feBlend mode="overlay" x="0%" y="0%" width="100%" height="100%" in="SourceGraphic" in2="colormatrix" result="blend2"/>
</filter>
<filter id="filter0_ddddf_3_1030" x="-251" y="766" width="2013.2" height="1004.85" filterUnits="userSpaceOnUse" color-interpolation-filters="sRGB">
<feFlood flood-opacity="0" result="BackgroundImageFix"/>
<feColorMatrix in="SourceAlpha" type="matrix" values="0 0 0 0 0 0 0 0 0 0 0 0 0 0 0 0 0 0 127 0" result="hardAlpha"/>
<feOffset/>
<feGaussianBlur stdDeviation="125"/>
<feComposite in2="hardAlpha" operator="out"/>
<feColorMatrix type="matrix" values="0 0 0 0 0.839216 0 0 0 0 0.192157 0 0 0 0 0.72549 0 0 0 1 0"/>
<feBlend mode="normal" in2="BackgroundImageFix" result="effect1_dropShadow_3_1030"/>
<feColorMatrix in="SourceAlpha" type="matrix" values="0 0 0 0 0 0 0 0 0 0 0 0 0 0 0 0 0 0 127 0" result="hardAlpha"/>
<feOffset/>
<feGaussianBlur stdDeviation="65"/>
<feComposite in2="hardAlpha" operator="out"/>
<feColorMatrix type="matrix" values="0 0 0 0 0.839216 0 0 0 0 0.192157 0 0 0 0 0.72549 0 0 0 1 0"/>
<feBlend mode="normal" in2="effect1_dropShadow_3_1030" result="effect2_dropShadow_3_1030"/>
<feColorMatrix in="SourceAlpha" type="matrix" values="0 0 0 0 0 0 0 0 0 0 0 0 0 0 0 0 0 0 127 0" result="hardAlpha"/>
<feOffset/>
<feGaussianBlur stdDeviation="22"/>
<feComposite in2="hardAlpha" operator="out"/>
<feColorMatrix type="matrix" values="0 0 0 0 0.509804 0 0 0 0 0.658824 0 0 0 0 0.894118 0 0 0 1 0"/>
<feBlend mode="normal" in2="effect2_dropShadow_3_1030" result="effect3_dropShadow_3_1030"/>
<feColorMatrix in="SourceAlpha" type="matrix" values="0 0 0 0 0 0 0 0 0 0 0 0 0 0 0 0 0 0 127 0" result="hardAlpha"/>
<feOffset/>
<feGaussianBlur stdDeviation="12"/>
<feComposite in2="hardAlpha" operator="out"/>
<feColorMatrix type="matrix" values="0 0 0 0 1 0 0 0 0 1 0 0 0 0 1 0 0 0 0.4 0"/>
<feBlend mode="normal" in2="effect3_dropShadow_3_1030" result="effect4_dropShadow_3_1030"/>
<feBlend mode="normal" in="SourceGraphic" in2="effect4_dropShadow_3_1030" result="shape"/>
<feGaussianBlur stdDeviation="12" result="effect5_foregroundBlur_3_1030"/>
</filter>
<filter id="filter1_f_3_1030" x="-25" y="974" width="1561.2" height="561.68" filterUnits="userSpaceOnUse" color-interpolation-filters="sRGB">
<feFlood flood-opacity="0" result="BackgroundImageFix"/>
<feBlend mode="normal" in="SourceGraphic" in2="BackgroundImageFix" result="shape"/>
<feGaussianBlur stdDeviation="12" result="effect1_foregroundBlur_3_1030"/>
</filter>
<radialGradient id="paint0_radial_3_1030" cx="0" cy="0" r="1" gradientUnits="userSpaceOnUse" gradientTransform="translate(756 926.5) rotate(90) scale(1323.1 2086.38)">
<stop stop-opacity="0"/>
<stop offset="1"/>
</radialGradient>
<clipPath id="clip0_3_1030">
<rect width="1512" height="1512" fill="white"/>
</clipPath>
</defs>
</svg>
