<svg width="687" height="106" viewBox="0 0 687 106" fill="none" xmlns="http://www.w3.org/2000/svg">
<g clip-path="url(#clip0_216_342)">
<path d="M226.251 58.6261H187.384V86.9344H171.784V18.1729H187.384V46.2579H226.251V18.1729H241.851V86.9344H226.251V58.6261Z" fill="#D09EF9"/>
<path d="M244.003 91.7564V90.7741H258.796V91.4438C258.796 94.3015 261.082 95.8642 264.624 95.8642C268.165 95.8642 270.721 94.3015 272.424 90.149L275.383 82.4691H265.341L244.541 38.8457H260.813L276.683 74.2088H278.566L292.059 38.8457H308.332L286.635 90.2383C282.197 101.356 275.876 105.955 264.445 105.955C252.117 105.955 244.047 100.865 244.047 91.7118L244.003 91.7564Z" fill="#D09EF9"/>
<path d="M309.901 38.8908H324.605L321.467 51.9733H323.26C326.891 42.1503 334.288 37.1494 345.674 37.1494C355.716 37.1494 363.426 40.7661 367.775 47.0618C370.644 51.1696 372.123 56.5723 372.123 62.9573C372.123 69.3423 370.644 74.6557 367.775 78.7636C363.426 85.0593 355.761 88.676 345.674 88.676C334.333 88.676 326.936 83.6751 323.26 73.852H321.467L324.605 86.9346V104.616H309.901V38.8908ZM326.936 71.9767C329.491 75.5934 334.243 77.692 340.653 77.692C347.064 77.692 351.905 75.638 354.461 71.9767C356.119 69.6102 357.016 66.574 357.016 62.9573C357.016 59.3407 356.119 56.1705 354.461 53.804C351.905 50.1873 347.154 48.2227 340.653 48.2227C334.153 48.2227 329.491 50.1873 326.936 53.804C325.277 56.1705 324.381 59.2067 324.381 62.9573C324.381 66.708 325.277 69.6549 326.936 71.9767Z" fill="#D09EF9"/>
<path d="M376.651 78.0045C373.871 74.0753 372.392 69.0744 372.392 63.0913C372.392 57.1081 374.185 51.884 376.92 47.9548C381.761 40.9893 390.817 37.1494 402.158 37.1494C420.717 37.1494 431.073 46.4813 431.073 62.5108V66.3508H386.961C387.275 69.1191 388.037 71.4409 389.337 73.3162C391.713 76.7543 396.331 78.7189 402.741 78.6296C409.645 78.6296 414.262 76.3524 416.369 72.2446H431.163C428.787 82.0677 418.028 88.7652 402.965 88.7652C390.548 88.7652 381.358 85.0146 376.651 78.0492V78.0045ZM416.504 57.6439C416.01 50.8571 411.259 47.0171 402.203 47.0171C396.465 47.1064 391.758 48.9818 389.293 52.5091C388.306 53.8933 387.634 55.6347 387.32 57.5993H416.504V57.6439Z" fill="#D09EF9"/>
<path d="M435.242 38.8905H449.856L446.315 53.7144H448.108C451.873 42.016 457.88 37.1045 467.922 37.1045C479.578 37.1045 485.181 43.5788 485.181 54.9646V64.118H470.208V58.626C470.208 52.0624 467.563 48.8922 460.929 48.8922C453.846 48.8922 449.991 53.7144 449.991 62.332V86.8897H435.287V38.8459L435.242 38.8905Z" fill="#D09EF9"/>
<path d="M488.185 18.1729H502.889V86.9344H488.185V18.1729Z" fill="#D09EF9"/>
<path d="M512.258 84.077C509.882 81.7105 508.627 78.585 508.627 74.745C508.627 70.9051 509.792 67.6903 512.258 65.2345C515.306 62.1983 520.237 60.323 527.051 59.9211L547.448 58.8495V56.3044C547.448 50.7231 543.503 47.553 535.031 47.553C523.017 47.553 522.613 54.6077 522.613 55.8133V55.9919H507.64V55.8133C507.73 53.6701 508.313 37.1494 535.344 37.1494C553.5 37.1494 562.287 44.1149 562.287 56.7063V86.9792H547.807L550.855 73.7181H549.062C546.283 83.8537 538.527 88.7652 526.558 88.7652C520.058 88.7652 515.216 87.1132 512.258 84.1663V84.077ZM525.079 77.2901C526.244 78.451 528.441 79.1654 531.669 79.1654C543.189 79.1654 547.269 71.3963 547.448 66.8866L531.489 68.0475C528.62 68.36 526.468 69.1191 525.168 70.4139C524.182 71.307 523.779 72.4679 523.779 73.9413C523.779 75.3255 524.182 76.3971 525.079 77.2901Z" fill="#D09EF9"/>
<path d="M569.369 38.8908H584.073L580.935 52.5538H582.728C586.18 42.061 593.173 37.1494 603.753 37.1494C618.053 37.1494 625.36 44.5167 625.36 58.3583V86.9346H610.657V60.323C610.657 52.8663 606.622 48.7139 598.508 48.7139C589.542 48.7139 584.118 54.2059 584.118 63.1359V86.8899H569.414V38.8461L569.369 38.8908Z" fill="#D09EF9"/>
<path d="M632.488 78.0045C629.709 74.0753 628.23 69.0744 628.23 63.0913C628.23 57.1081 630.023 51.884 632.757 47.9548C637.599 40.9893 646.654 37.1494 657.996 37.1494C676.555 37.1494 686.91 46.4813 686.91 62.5108V66.3508H642.799C643.113 69.1191 643.875 71.4409 645.175 73.3162C647.551 76.7543 652.168 78.7189 658.579 78.6296C665.482 78.6296 670.1 76.3524 672.207 72.2446H687C684.624 82.0677 673.865 88.7652 658.803 88.7652C646.385 88.7652 637.195 85.0146 632.488 78.0492V78.0045ZM672.341 57.6439C671.848 50.8571 667.096 47.0171 658.041 47.0171C652.303 47.1064 647.596 48.9818 645.13 52.5091C644.144 53.8933 643.471 55.6347 643.158 57.5993H672.341V57.6439Z" fill="#D09EF9"/>
<path d="M34.0698 103.142H0L50.1185 51.1247L20.1281 0H52.5392L82.1262 51.1693L34.1146 103.187L34.0698 103.142Z" fill="#D09EF9"/>
<path d="M94.2299 103.142H58.4118L108.844 51.1247L78.5399 0H110.951L140.538 51.1693L94.2299 103.187V103.142Z" fill="#D09EF9"/>
<path d="M118.796 62.4662H67.9155L72.2191 40.3643H123.1L118.796 62.4662Z" fill="#D09EF9"/>
</g>
<defs>
<clipPath id="clip0_216_342">
<rect width="687" height="106" fill="white"/>
</clipPath>
</defs>
</svg>
