<svg width="687" height="106" viewBox="0 0 687 106" fill="none" xmlns="http://www.w3.org/2000/svg">
<path d="M221.251 55.6261H182.384V83.9344H166.784V15.1729H182.384V43.2579H221.251V15.1729H236.851V83.9344H221.251V55.6261Z" fill="#D09EF9"/>
<path d="M239.003 88.7564V87.7741H253.796V88.4438C253.796 91.3015 256.082 92.8642 259.624 92.8642C263.165 92.8642 265.721 91.3015 267.424 87.149L270.383 79.4691H260.341L239.541 35.8457H255.813L271.683 71.2088H273.566L287.059 35.8457H303.332L281.635 87.2383C277.197 98.3562 270.876 102.955 259.445 102.955C247.117 102.955 239.047 97.8651 239.047 88.7118L239.003 88.7564Z" fill="#D09EF9"/>
<path d="M304.901 35.8908H319.605L316.467 48.9733H318.26C321.891 39.1503 329.288 34.1494 340.674 34.1494C350.716 34.1494 358.426 37.7661 362.775 44.0618C365.644 48.1696 367.123 53.5723 367.123 59.9573C367.123 66.3423 365.644 71.6557 362.775 75.7636C358.426 82.0593 350.761 85.676 340.674 85.676C329.333 85.676 321.936 80.6751 318.26 70.852H316.467L319.605 83.9346V101.616H304.901V35.8908ZM321.936 68.9767C324.491 72.5934 329.243 74.692 335.653 74.692C342.064 74.692 346.905 72.6381 349.461 68.9767C351.119 66.6102 352.016 63.574 352.016 59.9573C352.016 56.3407 351.119 53.1705 349.461 50.804C346.905 47.1873 342.154 45.2227 335.653 45.2227C329.153 45.2227 324.491 47.1873 321.936 50.804C320.277 53.1705 319.381 56.2067 319.381 59.9573C319.381 63.708 320.277 66.6549 321.936 68.9767Z" fill="#D09EF9"/>
<path d="M371.651 75.0045C368.871 71.0753 367.392 66.0744 367.392 60.0913C367.392 54.1081 369.185 48.884 371.92 44.9548C376.761 37.9893 385.817 34.1494 397.158 34.1494C415.717 34.1494 426.073 43.4813 426.073 59.5108V63.3508H381.961C382.275 66.1191 383.037 68.4409 384.337 70.3162C386.713 73.7543 391.331 75.7189 397.741 75.6296C404.645 75.6296 409.262 73.3524 411.369 69.2446H426.163C423.787 79.0677 413.028 85.7652 397.965 85.7652C385.548 85.7652 376.358 82.0146 371.651 75.0492V75.0045ZM411.504 54.6439C411.01 47.8571 406.259 44.0171 397.203 44.0171C391.465 44.1064 386.758 45.9818 384.293 49.5091C383.306 50.8933 382.634 52.6347 382.32 54.5993H411.504V54.6439Z" fill="#D09EF9"/>
<path d="M430.242 35.8905H444.856L441.315 50.7144H443.108C446.873 39.016 452.88 34.1045 462.922 34.1045C474.578 34.1045 480.181 40.5788 480.181 51.9646V61.118H465.208V55.626C465.208 49.0624 462.563 45.8922 455.929 45.8922C448.846 45.8922 444.991 50.7144 444.991 59.332V83.8897H430.287V35.8459L430.242 35.8905Z" fill="#D09EF9"/>
<path d="M483.185 15.1729H497.889V83.9344H483.185V15.1729Z" fill="#D09EF9"/>
<path d="M507.258 81.077C504.882 78.7105 503.627 75.585 503.627 71.745C503.627 67.9051 504.792 64.6903 507.258 62.2345C510.306 59.1983 515.237 57.323 522.051 56.9211L542.448 55.8495V53.3044C542.448 47.7231 538.503 44.553 530.031 44.553C518.017 44.553 517.613 51.6077 517.613 52.8133V52.9919H502.64V52.8133C502.73 50.6701 503.313 34.1494 530.344 34.1494C548.5 34.1494 557.287 41.1149 557.287 53.7063V83.9792H542.807L545.855 70.7181H544.062C541.283 80.8537 533.527 85.7652 521.558 85.7652C515.058 85.7652 510.216 84.1132 507.258 81.1663V81.077ZM520.079 74.2901C521.244 75.451 523.441 76.1654 526.669 76.1654C538.189 76.1654 542.269 68.3963 542.448 63.8866L526.489 65.0475C523.62 65.36 521.468 66.1191 520.168 67.4139C519.182 68.307 518.779 69.4679 518.779 70.9413C518.779 72.3255 519.182 73.3971 520.079 74.2901Z" fill="#D09EF9"/>
<path d="M564.369 35.8908H579.073L575.935 49.5538H577.728C581.18 39.061 588.173 34.1494 598.753 34.1494C613.053 34.1494 620.36 41.5167 620.36 55.3583V83.9346H605.657V57.323C605.657 49.8664 601.622 45.7139 593.508 45.7139C584.542 45.7139 579.118 51.2059 579.118 60.1359V83.8899H564.414V35.8461L564.369 35.8908Z" fill="#D09EF9"/>
<path d="M627.488 75.0045C624.709 71.0753 623.23 66.0744 623.23 60.0913C623.23 54.1081 625.023 48.884 627.757 44.9548C632.599 37.9893 641.654 34.1494 652.996 34.1494C671.555 34.1494 681.91 43.4813 681.91 59.5108V63.3508H637.799C638.113 66.1191 638.875 68.4409 640.175 70.3162C642.551 73.7543 647.168 75.7189 653.579 75.6296C660.482 75.6296 665.1 73.3524 667.207 69.2446H682C679.624 79.0677 668.865 85.7652 653.803 85.7652C641.385 85.7652 632.195 82.0146 627.488 75.0492V75.0045ZM667.341 54.6439C666.848 47.8571 662.096 44.0171 653.041 44.0171C647.303 44.1064 642.596 45.9818 640.13 49.5091C639.144 50.8933 638.471 52.6347 638.158 54.5993H667.341V54.6439Z" fill="#D09EF9"/>
<path fill-rule="evenodd" clip-rule="evenodd" d="M34.0698 103.142H0L52.1185 51.1247L22.1281 0H54.5392L77.8785 40.3643H108.806L85.1281 0H117.539L147.126 51.1693L97.1147 103.187L97.0698 103.142H63L103.755 62.4662H73.265L34.1147 103.187L34.0698 103.142Z" fill="#D09EF9"/>
</svg>
