<svg width="131" height="32" viewBox="0 0 131 32" fill="none" xmlns="http://www.w3.org/2000/svg"><path d="M20.7482 0h6.5212c.8897 0 1.6857.5159 1.9963 1.2937l5.724 14.3362a.4661.4661 0 0 1 .0014.3432l-.032.0824-.0004.0008-5.6998 14.6349C28.9529 31.4769 28.1527 32 27.2567 32h-6.5202c-.3667 0-.6237-.3377-.5028-.6607l5.8773-15.7094L20.248.6675C20.121.3433 20.3783 0 20.7482 0ZM3.7253 0h6.5212c.8897 0 1.6857.5159 1.9962 1.2937l5.724 14.3362a.4661.4661 0 0 1 .0015.3432l-.0321.0824-.0003.0008-5.6999 14.6349C11.9299 31.4769 11.1297 32 10.2338 32H3.7135c-.3666 0-.6236-.3377-.5028-.6607L9.088 15.6299 3.2251.6675C3.0981.3433 3.3553 0 3.7253 0Z" fill="#fff"/><path d="M25.1733 12.574h-9.2057v6.9352h9.2057l1.5042-3.5667-1.5042-3.3685Z" fill="#fff"/><path d="M17.5677 0h6.5212c.8897 0 1.6857.5159 1.9963 1.2937L31.8091 15.63a.4656.4656 0 0 1 .0015.3432l-.0321.0824-.0003.0008-5.6999 14.6349C25.7723 31.4769 24.9721 32 24.0762 32h-6.5203c-.3666 0-.6236-.3377-.5028-.6607l5.8773-15.7094L17.0675.6675C16.9405.3433 17.1977 0 17.5677 0ZM.5448 0H7.066c.8897 0 1.6856.5159 1.9962 1.2937l5.724 14.3362a.4661.4661 0 0 1 .0014.3432l-.032.0824-.0004.0008-5.6998 14.6349C8.7494 31.4769 7.9492 32 7.0532 32H.533c-.3667 0-.6237-.3377-.5028-.6607l5.8773-15.7094L.0445.6675C-.0824.3433.1749 0 .5449 0Z" fill="#fff"/><path d="M21.9928 12.574H12.787v6.9352h9.2058l1.5042-3.5667-1.5042-3.3685ZM45.0791 22.8148V8.9121h2.8235v5.4444h5.4719V8.9121h2.8235v13.9027h-2.8235v-6.1249h-5.4719v6.1249h-2.8235ZM58.3334 26.0815V24.001h.9347c.9866 0 1.4799-.4538 1.4799-1.3612 0-.4407-.2531-1.3416-.7594-2.7027l-2.6872-7.0972h2.7846l1.4799 4.4916.6426 2.1778h.0389c.1818-.8426.3765-1.5685.5842-2.1778l1.402-4.4916h2.6678l-3.4856 10.2277c-.3895 1.1408-.8308 1.925-1.3241 2.3528-.4804.4407-1.2138.6611-2.2005.6611h-1.5578ZM67.7985 26.0815V12.8399h2.5509v1.2444h.0584c.74-1.0111 1.7201-1.5166 2.9404-1.5166 1.3112 0 2.3627.4861 3.1546 1.4583s1.1878 2.2426 1.1878 3.8111c0 1.6074-.3959 2.8907-1.1878 3.85-.7919.9463-1.8369 1.4194-3.1351 1.4194s-2.2588-.4731-2.882-1.4194h-.0389v4.3944h-2.6483Zm5.0045-5.1722c.675 0 1.2073-.2657 1.5967-.7972.4025-.5315.6037-1.2639.6037-2.1972 0-.9982-.1882-1.7824-.5647-2.3528-.3765-.5704-.9542-.8556-1.7331-.8556-.7919 0-1.376.2982-1.7525.8945-.3765.5833-.5647 1.3546-.5647 2.3139 0 .9203.2077 1.6527.6231 2.1972.4154.5315 1.0126.7972 1.7915.7972ZM83.6159 23.1065c-1.6097 0-2.8754-.4926-3.7971-1.4778-.9217-.9981-1.3826-2.2685-1.3826-3.8111 0-1.4907.4609-2.7351 1.3826-3.7333.9217-1.0111 2.103-1.5166 3.544-1.5166 1.5708 0 2.7846.5444 3.6414 1.6333.8568 1.0889 1.2852 2.5472 1.2852 4.375h-7.2439c.1039.7907.37 1.4064.7984 1.8472.4284.4278 1.0126.6417 1.7526.6417.9736 0 1.6162-.4084 1.9278-1.225h2.6093c-.1947.9333-.688 1.7111-1.4799 2.3333-.7919.6222-1.8045.9333-3.0378.9333Zm-.2142-8.4972c-1.2852 0-2.0576.713-2.3172 2.1389h4.4398c-.039-.6352-.2532-1.1472-.6426-1.5361-.3895-.4019-.8828-.6028-1.48-.6028ZM92.066 12.8399v1.5944h.0584c.3116-.5833.6556-1.0111 1.0321-1.2833.3764-.2852.8503-.4278 1.4215-.4278.2726 0 .4803.0259.6231.0778v2.3139h-.0584c-.8958-.0908-1.6163.1037-2.1615.5833-.5452.4796-.8178 1.2315-.8178 2.2555v4.8611h-2.6483v-9.9749h2.5509ZM96.3809 22.8148V8.9121h2.6482v13.9027h-2.6482ZM107.062 22.8148c-.129-.1685-.233-.5379-.311-1.1083h-.039c-.286.4278-.649.7583-1.091.9917-.441.2333-1.058.35-1.849.35-1.052 0-1.896-.2658-2.532-.7972-.636-.5315-.954-1.2834-.954-2.2556 0-1.0111.35-1.75 1.051-2.2167.701-.4796 1.688-.8101 2.96-.9916.935-.1296 1.571-.2593 1.909-.3889.337-.1426.506-.3889.506-.7389 0-.363-.143-.6481-.429-.8555-.285-.2204-.701-.3306-1.246-.3306-1.207 0-1.85.4667-1.928 1.4h-2.356c.039-.9463.422-1.7306 1.149-2.3528.727-.6222 1.779-.9333 3.155-.9333 2.804 0 4.206 1.225 4.206 3.675v5.075c0 .7518.117 1.212.35 1.3805v.0972h-2.551Zm-2.648-1.6138c.727 0 1.298-.188 1.714-.5639.428-.376.642-.8232.642-1.3417v-1.4972c-.285.1685-.902.363-1.85.5833-.753.1685-1.285.363-1.596.5834-.312.2074-.468.5314-.468.9722 0 .8426.52 1.2639 1.558 1.2639ZM113.536 12.8399v1.3611h.059c.688-1.0889 1.674-1.6333 2.96-1.6333 1.025 0 1.856.35 2.492 1.05.636.687.954 1.5814.954 2.6833v6.5138h-2.648v-6.1249c0-.5445-.156-.9852-.467-1.3223-.299-.337-.721-.5055-1.266-.5055-.584 0-1.071.2139-1.461.6417-.376.4277-.564.9787-.564 1.6527v5.6583h-2.649v-9.9749h2.59ZM126.326 23.1065c-1.609 0-2.875-.4926-3.797-1.4778-.921-.9981-1.382-2.2685-1.382-3.8111 0-1.4907.461-2.7351 1.382-3.7333.922-1.0111 2.103-1.5166 3.544-1.5166 1.571 0 2.785.5444 3.642 1.6333.856 1.0889 1.285 2.5472 1.285 4.375h-7.244c.104.7907.37 1.4064.798 1.8472.429.4278 1.013.6417 1.753.6417.974 0 1.616-.4084 1.928-1.225h2.609c-.195.9333-.688 1.7111-1.48 2.3333-.792.6222-1.804.9333-3.038.9333Zm-.214-8.4972c-1.285 0-2.057.713-2.317 2.1389h4.44c-.039-.6352-.253-1.1472-.643-1.5361-.389-.4019-.883-.6028-1.48-.6028Z" fill="#fff"/></svg>