<svg width="96" height="96" viewBox="0 0 96 96" fill="none" xmlns="http://www.w3.org/2000/svg">
<g clip-path="url(#clip0_6001_865)">
<path d="M0 0C26.511 0 48 21.489 48 48C21.489 48 0 26.511 0 0ZM96 96C69.489 96 48 74.511 48 48C74.511 48 96 69.489 96 96ZM48 48C48 41.6348 50.5286 35.5303 55.0294 31.0294C59.5303 26.5286 65.6348 24 72 24C72 30.3652 69.4714 36.4697 64.9706 40.9706C60.4697 45.4714 54.3652 48 48 48ZM48 48C48 54.3652 45.4714 60.4697 40.9706 64.9706C36.4697 69.4714 30.3652 72 24 72C24 65.6348 26.5286 59.5303 31.0294 55.0294C35.5303 50.5286 41.6348 48 48 48Z" fill="#EBF5ED"/>
</g>
<defs>
<clipPath id="clip0_6001_865">
<rect width="96" height="96" fill="white"/>
</clipPath>
</defs>
</svg>
