<svg width="32" height="32" viewBox="0 0 32 32" fill="none" xmlns="http://www.w3.org/2000/svg">
<g clip-path="url(#clip0_596_6925)">
<path d="M16.1436 1.98277C16.2196 1.98277 16.2956 2.00378 16.3637 2.04054L28.0898 8.82922C28.226 8.908 28.3098 9.05507 28.3098 9.21001V22.7847C28.3098 22.9423 28.226 23.0867 28.0898 23.1655L16.3637 29.9542C16.2982 29.9936 16.2196 30.012 16.1436 30.012C16.0677 30.012 15.9917 29.991 15.9236 29.9542L4.1975 23.1708C4.06131 23.092 3.97749 22.9449 3.97749 22.79V9.21264C3.97749 9.05507 4.06131 8.91063 4.1975 8.83184L15.9236 2.04317C15.9917 2.00378 16.0677 1.98277 16.1436 1.98277ZM16.1436 0C15.7272 0 15.3081 0.107673 14.9336 0.325646L3.21007 7.11169C2.46098 7.54501 2 8.346 2 9.21264V22.7874C2 23.654 2.46098 24.455 3.21007 24.8883L14.9362 31.677C15.3107 31.8923 15.7272 32.0026 16.1463 32.0026C16.5653 32.0026 16.9818 31.895 17.3563 31.677L29.0825 24.8883C29.8316 24.455 30.2925 23.654 30.2925 22.7874V9.21264C30.2925 8.346 29.8316 7.54501 29.0825 7.11169L17.3537 0.325646C16.9792 0.107673 16.5601 0 16.1436 0Z" fill="#E57410"/>
<path d="M13.1551 9.04712H11.6229C11.5076 9.04712 11.4055 9.11803 11.3662 9.22833L6.43948 22.7689C6.40805 22.8582 6.47353 22.9527 6.56782 22.9527H8.10005C8.2153 22.9527 8.31744 22.8818 8.35673 22.7715L13.2834 9.22833C13.3149 9.14166 13.2494 9.04712 13.1551 9.04712Z" fill="#E57410"/>
<path d="M15.1378 14.2969C15.0933 14.1761 14.9257 14.1761 14.8812 14.2969L14.0849 16.4871C14.064 16.5475 14.064 16.6132 14.0849 16.6762L16.3034 22.7742C16.3427 22.8819 16.4448 22.9554 16.5601 22.9554H18.0923C18.1866 22.9554 18.2521 22.8609 18.2206 22.7716L15.1378 14.2969Z" fill="#E57410"/>
<path d="M15.8319 9.04712H14.2997C14.1844 9.04712 14.0823 9.11803 14.043 9.22833L9.11893 22.7689C9.0875 22.8582 9.15298 22.9527 9.24727 22.9527H10.7795C10.8947 22.9527 10.9969 22.8818 11.0362 22.7715L15.9629 9.22833C15.9943 9.14166 15.9288 9.04712 15.8319 9.04712Z" fill="#E57410"/>
<path d="M16.4762 10.615C16.4317 10.4942 16.2641 10.4942 16.2195 10.615L15.4233 12.8053C15.4024 12.8657 15.4024 12.9313 15.4233 12.9943L18.9828 22.7742C19.0221 22.8819 19.1242 22.9554 19.2395 22.9554H20.7717C20.866 22.9554 20.9315 22.8609 20.9 22.7716L16.4762 10.615Z" fill="#E57410"/>
<path d="M25.7194 9.04712H24.1872C24.0719 9.04712 23.9698 9.11803 23.9305 9.22833L20.3736 19.0082C20.3527 19.0686 20.3527 19.1343 20.3736 19.1973L21.1699 21.3875C21.2144 21.5083 21.382 21.5083 21.4265 21.3875L25.8477 9.23358C25.8818 9.14166 25.8137 9.04712 25.7194 9.04712Z" fill="#E57410"/>
<path d="M19.8315 17.703C19.876 17.8238 20.0436 17.8238 20.0882 17.703L23.171 9.23095C23.2024 9.14166 23.1369 9.04712 23.0426 9.04712H21.5104C21.3951 9.04712 21.293 9.11803 21.2537 9.22833L19.0352 15.3263C19.0143 15.3867 19.0143 15.4524 19.0352 15.5154L19.8315 17.703Z" fill="#E57410"/>
</g>
<defs>
<clipPath id="clip0_596_6925">
<rect width="32" height="32" fill="white"/>
</clipPath>
</defs>
</svg>
