<svg width="15" height="16" viewBox="0 0 15 16" fill="none" xmlns="http://www.w3.org/2000/svg">
<path fill-rule="evenodd" clip-rule="evenodd" d="M14.4512 5.40475C14.4512 4.76944 14.1123 4.1824 13.5621 3.86474L8.60693 1.00386C8.05674 0.686213 7.37887 0.686213 6.82868 1.00386L1.8735 3.86474C1.32331 4.18239 0.984375 4.76944 0.984375 5.40475V11.1265C0.984375 11.7618 1.32331 12.3489 1.8735 12.6665L6.82868 15.5274C7.37888 15.845 8.05674 15.845 8.60693 15.5274L13.5621 12.6665C14.1123 12.3489 14.4512 11.7618 14.4512 11.1265V5.40475ZM6.20586 4.70898C5.87035 4.70898 5.56033 4.88798 5.39258 5.17853L3.88174 7.79538C3.71399 8.08594 3.71399 8.44392 3.88174 8.73448L5.39258 11.3513C5.56033 11.6419 5.87035 11.8209 6.20586 11.8209H9.22754C9.56304 11.8209 9.87306 11.6419 10.0408 11.3513L11.5517 8.73448C11.7194 8.44392 11.7194 8.08594 11.5517 7.79538L10.0408 5.17853C9.87306 4.88798 9.56304 4.70898 9.22754 4.70898H6.20586Z" fill="black"/>
</svg>
