<svg width="180" height="180" viewBox="0 0 180 180" fill="none" xmlns="http://www.w3.org/2000/svg">
<g clip-path="url(#clip0_125_26)">
<g clip-path="url(#clip1_125_26)">
<path d="M171.9 127.092L152.411 111.934C149.138 109.39 144.375 110.444 142.449 114.114C137.666 123.215 130.17 130.714 121.581 135.831L101.154 115.404C100.056 114.306 98.5654 113.687 97.0103 113.687C95.4551 113.687 93.9647 114.306 92.8661 115.404L71.1348 137.135C54.237 128.184 42.6969 110.418 42.6969 90C42.6969 60.6077 66.6107 36.6939 96.0029 36.6939C113.778 36.6939 130.809 44.4345 142.066 63.0377C144.084 66.3719 148.523 67.2585 151.665 64.9552L170.578 51.0941C173.385 49.0382 174.13 45.1591 172.28 42.2107C155.871 16.026 127.183 0 96 0C46.3728 0 6 40.3728 6 90C6 139.627 46.3728 180 96 180C112.966 180 129.495 175.249 143.807 166.266C156.011 158.603 166.205 148.131 173.535 135.725C175.237 132.844 174.542 129.145 171.9 127.092ZM83.1197 141.727L97.0073 127.84L110.17 141.003C105.481 142.505 100.686 143.309 96.0029 143.309C91.5613 143.309 87.2492 142.758 83.1197 141.73V141.727ZM95.5965 76.2007C95.5759 76.6396 95.5729 82.4715 110.188 92.4329C121.092 99.8671 115.985 114.677 113.752 119.545C112.36 115.451 110.362 111.588 107.826 108.085C104.076 102.904 99.9115 99.5726 97.0044 97.6021C93.947 99.4754 88.931 103.122 84.9076 109.39C82.4717 113.186 81.1316 116.8 80.3657 119.545L80.3569 119.531C75.9093 107.572 77.4851 101.599 79.7826 98.3532C81.5851 95.8054 84.8604 92.2856 84.8604 92.2856C87.7204 89.4404 90.7395 86.6717 93.6437 81.043C95.4286 77.5821 95.5847 76.3775 95.5965 76.1978V76.2007Z" fill="black"/>
<path d="M84.8605 92.2886C84.8605 92.2886 81.5882 95.8084 79.7826 98.3562C77.4852 101.602 75.9123 107.575 80.357 119.534C55.0205 97.3547 81.111 74.7193 80.5897 76.4423C78.6516 82.8486 84.8576 92.2886 84.8576 92.2886H84.8605ZM91.04 85.3198C91.9266 84.0621 92.7984 82.6512 93.6319 81.0342C95.5818 77.2553 95.5877 76.1625 95.5877 76.1625C95.5877 76.1625 94.9721 82.0592 110.176 92.4241C121.08 99.8583 115.973 114.668 113.74 119.537C113.74 119.537 126.609 111.331 124.783 97.4696C122.588 80.7956 113.566 82.3007 106.863 69.9506C100.61 58.4311 111.29 49.2032 111.29 49.2032C111.29 49.2032 96.9927 48.4344 90.448 63.4648C83.5498 79.3023 91.037 85.3227 91.037 85.3227L91.04 85.3198Z" fill="#FF6D01"/>
</g>
</g>
<defs>
<clipPath id="clip0_125_26">
<rect width="180" height="180" fill="white"/>
</clipPath>
<clipPath id="clip1_125_26">
<rect width="168.463" height="180" fill="white" transform="translate(6)"/>
</clipPath>
</defs>
</svg>
