<svg width="96" height="96" viewBox="0 0 96 96" fill="none" xmlns="http://www.w3.org/2000/svg">
<rect width="96" height="96" rx="48" fill="url(#paint0_linear_263_1962)"/>
<path d="M31.2674 64.4123C27.5495 64.4123 24.5033 63.5461 22.1288 61.8135C19.7856 60.0502 18.614 57.5443 18.614 54.2957C18.614 53.6151 18.6921 52.7798 18.8483 51.7898C19.2545 49.5624 19.8325 46.8863 20.5823 43.7617C22.7068 35.2539 28.19 31 37.0317 31C39.4374 31 41.5932 31.4022 43.499 32.2066C45.4048 32.98 46.9044 34.1556 47.998 35.7334C49.0914 37.2803 49.6382 39.1365 49.6382 41.3021C49.6382 41.9518 49.5602 42.7717 49.404 43.7617C48.9352 46.5151 48.3729 49.1912 47.7168 51.7898C46.6232 56.0283 44.7331 59.1993 42.0462 61.3031C39.3592 63.3759 35.7664 64.4123 31.2674 64.4123ZM31.9235 57.7299C33.6731 57.7299 35.1571 57.2193 36.3757 56.1984C37.6253 55.1775 38.5157 53.6151 39.0468 51.5115C39.7655 48.6033 40.3121 46.0665 40.6872 43.9009C40.8122 43.2512 40.8746 42.586 40.8746 41.9054C40.8746 39.0901 39.3905 37.6825 36.4224 37.6825C34.6729 37.6825 33.1732 38.1929 31.9235 39.2139C30.705 40.2348 29.8302 41.7971 29.2991 43.9009C28.7367 45.9737 28.1743 48.5106 27.612 51.5115C27.487 52.1301 27.4245 52.7798 27.4245 53.4604C27.4245 56.3067 28.9242 57.7299 31.9235 57.7299Z" fill="#FEF2F2"/>
<path d="M48.4555 63.9483C48.1117 63.9483 47.8462 63.84 47.6588 63.6235C47.5026 63.3759 47.4556 63.0976 47.5181 62.7882L53.9854 32.6243C54.0479 32.2839 54.2198 32.0055 54.5009 31.789C54.7821 31.5724 55.079 31.4641 55.3914 31.4641H67.8572C71.3252 31.4641 74.1058 32.1757 76.1991 33.5988C78.3236 35.0219 79.3859 37.0792 79.3859 39.7708C79.3859 40.5442 79.2922 41.3486 79.1048 42.1839C78.3236 45.7417 76.7459 48.3713 74.3714 50.073C72.0282 51.7745 68.8101 52.6252 64.7173 52.6252H58.3906L56.2349 62.7882C56.1724 63.1285 56.0005 63.4068 55.7193 63.6235C55.4382 63.84 55.1415 63.9483 54.8289 63.9483H48.4555ZM65.0454 46.2212C66.3576 46.2212 67.498 45.8654 68.4664 45.1539C69.4663 44.4423 70.1224 43.4214 70.4348 42.0911C70.5285 41.5651 70.5754 41.1011 70.5754 40.6989C70.5754 39.8017 70.3098 39.1211 69.7787 38.657C69.2476 38.162 68.3415 37.9145 67.0606 37.9145H61.4368L59.656 46.2212H65.0454Z" fill="#FEF2F2"/>
<defs>
<linearGradient id="paint0_linear_263_1962" x1="-31" y1="-55" x2="91" y2="108" gradientUnits="userSpaceOnUse">
<stop stop-color="#FF5959"/>
<stop offset="1" stop-color="#CE2929"/>
</linearGradient>
</defs>
</svg>
