<svg width="32" height="32" viewBox="0 0 32 32" fill="none" xmlns="http://www.w3.org/2000/svg">
<g clip-path="url(#clip0_113_3051)">
<path d="M16 32C19.1645 32 22.2579 31.0616 24.8891 29.3035C27.5203 27.5454 29.5711 25.0466 30.7821 22.1229C31.9931 19.1993 32.3099 15.9823 31.6926 12.8786C31.0752 9.77486 29.5513 6.92394 27.3137 4.6863C25.0761 2.44866 22.2251 0.924806 19.1214 0.307443C16.0177 -0.309921 12.8007 0.00693274 9.87706 1.21793C6.95345 2.42894 4.45459 4.4797 2.69649 7.11088C0.938384 9.74207 0 12.8355 0 16C0 20.2435 1.68571 24.3131 4.68629 27.3137C7.68687 30.3143 11.7565 32 16 32Z" fill="#FF0420"/>
<path d="M9.58585 22.4597C8.19942 22.4597 7.06347 22.1367 6.17802 21.4906C5.30421 20.833 4.86731 19.8986 4.86731 18.6872C4.86731 18.4334 4.89644 18.1219 4.95469 17.7527C5.10615 16.9221 5.32169 15.9241 5.60131 14.7589C6.39356 11.5863 8.43826 10 11.7354 10C12.6325 10 13.4364 10.15 14.1471 10.4499C14.8578 10.7384 15.417 11.1768 15.8248 11.7651C16.2326 12.342 16.4365 13.0342 16.4365 13.8417C16.4365 14.084 16.4074 14.3897 16.3491 14.7589C16.1743 15.7857 15.9646 16.7836 15.72 17.7527C15.3122 19.3333 14.6073 20.5158 13.6054 21.3003C12.6034 22.0732 11.2636 22.4597 9.58585 22.4597ZM9.83052 19.9678C10.483 19.9678 11.0364 19.7774 11.4908 19.3967C11.9568 19.016 12.2888 18.4334 12.4869 17.6489C12.7549 16.5644 12.9587 15.6184 13.0986 14.8108C13.1452 14.5686 13.1685 14.3205 13.1685 14.0667C13.1685 13.0169 12.615 12.4919 11.5082 12.4919C10.8558 12.4919 10.2965 12.6823 9.83052 13.063C9.37614 13.4437 9.04992 14.0263 8.85186 14.8108C8.64214 15.5838 8.43243 16.5298 8.22272 17.6489C8.17611 17.8796 8.15281 18.1219 8.15281 18.3757C8.15281 19.4371 8.71205 19.9678 9.83052 19.9678Z" fill="#FEF2F2"/>
<path d="M16.5986 22.2867C16.4703 22.2867 16.3713 22.2463 16.3014 22.1656C16.2432 22.0733 16.2257 21.9695 16.249 21.8541L18.6607 10.6057C18.684 10.4788 18.7481 10.375 18.8529 10.2942C18.9578 10.2135 19.0685 10.1731 19.185 10.1731H23.8336C25.1269 10.1731 26.1637 10.4384 26.9443 10.9691C27.7366 11.4998 28.1328 12.267 28.1328 13.2707C28.1328 13.5591 28.0978 13.8591 28.0279 14.1706C27.7366 15.4973 27.1483 16.4779 26.2628 17.1125C25.389 17.747 24.1889 18.0642 22.6627 18.0642H20.3034L19.4995 21.8541C19.4762 21.981 19.4121 22.0848 19.3073 22.1656C19.2024 22.2463 19.0918 22.2867 18.9752 22.2867H16.5986ZM22.785 15.6761C23.2744 15.6761 23.6997 15.5435 24.0608 15.2781C24.4337 15.0128 24.6783 14.6321 24.7948 14.136C24.8297 13.9398 24.8473 13.7668 24.8473 13.6168C24.8473 13.2823 24.7482 13.0284 24.5502 12.8554C24.3521 12.6708 24.0142 12.5785 23.5366 12.5785H21.4394L20.7753 15.6761H22.785Z" fill="#FEF2F2"/>
</g>
<defs>
<clipPath id="clip0_113_3051">
<rect width="32" height="32" fill="white"/>
</clipPath>
</defs>
</svg>
