<svg width="96" height="95" viewBox="0 0 96 95" fill="none" xmlns="http://www.w3.org/2000/svg">
<path fill-rule="evenodd" clip-rule="evenodd" d="M22.098 81.567C11.721 73.817 5.003 61.443 5.003 47.5C5.003 24.028 24.043 5 47.528 5C66.912 5 88.079 16.577 93.198 34.307C87.479 14.494 69.2 0 47.529 0C21.28 0 0 21.267 0 47.5C0 73.734 21.28 95 47.528 95C73.778 95 95.057 73.734 95.057 47.5V45H92.445L92.097 44.995C90.1818 44.9598 88.2684 44.8601 86.36 44.696C82.794 44.386 78.727 43.782 75.957 42.676C71.501 40.897 68.985 38.539 66.11 35.78L65.944 35.62C63.064 32.856 59.828 29.75 54.221 27.113C48.698 24.515 42.59 24.932 38.101 25.855C36.1932 26.2499 34.3161 26.7806 32.484 27.443C31.79 27.694 31.234 27.918 30.844 28.082C28.585 29.032 26.393 30.157 24.176 31.2C24.176 31.2 28.526 32.392 30.676 33.058C31.2521 33.2424 31.8212 33.4482 32.382 33.675C33.81 34.2482 35.1824 34.9512 36.482 35.775C38.802 37.265 40.726 39.141 41.515 41.444C36.59 42.091 31.97 44.252 28.515 46.283C26.7658 47.3132 25.077 48.4427 23.457 49.666C22.846 50.129 22.361 50.516 22.027 50.792C21.745 51.024 17.297 54.942 17.297 54.942C17.297 54.942 23.035 55.552 25.867 56.122C27.75 56.502 30.289 57.112 32.938 58.035C35.599 58.963 38.288 60.179 40.518 61.735C42.754 63.295 44.391 65.097 45.198 67.161C47.552 73.171 45.243 79.025 40.607 82.318C36.027 85.572 29.062 86.346 22.098 81.567ZM38.315 89C40.1672 88.3997 41.9172 87.5209 43.505 86.394C49.814 81.912 53.133 73.704 49.858 65.339C48.571 62.053 46.112 59.539 43.382 57.635C40.647 55.727 37.499 54.33 34.587 53.315C32.8181 52.7024 31.0203 52.1768 29.2 51.74C29.8078 51.3432 30.4246 50.9604 31.05 50.592C34.901 48.329 39.75 46.25 44.4 46.25C51.41 46.25 56.63 48.4 61.614 50.706C62.067 50.916 62.522 51.129 62.979 51.343C67.433 53.432 72.11 55.625 77.545 55.625C82.815 55.625 86.921 54.135 89.75 52.595C87.232 73.666 69.29 90 47.528 90C44.365 90 41.282 89.655 38.315 89ZM84.345 49.525C82.472 50.164 80.201 50.625 77.546 50.625C73.283 50.625 69.62 48.918 64.969 46.751L63.717 46.169C59.061 44.014 53.674 41.73 46.661 41.316C45.721 36.676 42.201 33.506 39.188 31.569C38.8582 31.3573 38.5238 31.1529 38.185 30.956C38.485 30.886 38.795 30.816 39.109 30.752C43.159 29.919 47.996 29.711 52.091 31.637C56.952 33.923 59.694 36.555 62.547 39.293L62.645 39.387C65.58 42.204 68.685 45.157 74.101 47.319C77.111 48.52 81.005 49.166 84.345 49.525Z" fill="white"/>
</svg>
