<svg width="96" height="96" viewBox="0 0 96 96" fill="none" xmlns="http://www.w3.org/2000/svg">
<path fill-rule="evenodd" clip-rule="evenodd" d="M96 48C96 21.4904 74.5096 0 48 0C21.4903 0 0 21.4904 0 48C0 59.9503 4.36707 70.8806 11.5924 79.282L38.9247 53.9595C39.5482 53.3818 39.2125 52.3391 38.3691 52.2336L23.3071 50.3509C22.1629 50.2079 22.1293 48.5618 23.2667 48.3722L35.9125 46.2646C36.6437 46.1427 36.9927 45.2955 36.5596 44.6939L23.407 26.4265C22.7358 25.4942 23.9091 24.3509 24.8237 25.046L43.1179 38.9496C43.7315 39.416 44.6198 39.0422 44.7153 38.2775L46.197 26.4236C46.3389 25.2893 47.9657 25.2422 48.1728 26.3665L50.2139 37.4468C50.3469 38.1686 51.1861 38.506 51.7817 38.0772L70.5149 24.5893C71.435 23.9268 72.5732 25.065 71.9107 25.9852L58.4695 44.6534C58.0294 45.2647 58.3975 46.1246 59.1435 46.2283L70.3909 47.7904C71.4801 47.9417 71.5627 49.4843 70.4958 49.751L58.9773 52.6307C58.2792 52.8052 57.9884 53.6377 58.426 54.2089L71.7318 71.5804C72.4222 72.4818 71.3145 73.6539 70.3756 73.0154L51.7395 60.3428C51.1497 59.9418 50.3416 60.2695 50.1978 60.9681L48.146 70.9337C47.9203 72.0298 46.3392 71.9842 46.1771 70.8768L44.3022 58.0649C44.1806 57.2342 43.1512 56.9141 42.58 57.5293L17.2234 84.8363C25.5557 91.8053 36.288 96 48 96C74.5096 96 96 74.5096 96 48Z" fill="url(#paint0_linear_57_78)"/>
<defs>
<linearGradient id="paint0_linear_57_78" x1="-2.09815e-06" y1="48" x2="96" y2="48" gradientUnits="userSpaceOnUse">
<stop stop-color="#3B30D3"/>
<stop offset="1" stop-color="#AB66FF"/>
</linearGradient>
</defs>
</svg>
