<?xml version="1.0" encoding="UTF-8"?>
<svg width="512px" height="512px" viewBox="0 0 512 512" version="1.1" xmlns="http://www.w3.org/2000/svg" xmlns:xlink="http://www.w3.org/1999/xlink">
    <title>chng-dark-512x512 (1)</title>
    <g id="Page-1" stroke="none" stroke-width="1" fill="none" fill-rule="evenodd">
        <g id="chng-dark-512x512-(1)" fill-rule="nonzero">
            <rect id="bg" fill="#242732" x="0" y="0" width="512" height="512"></rect>
            <path d="M233.405962,139.946667 L149.046079,225.189318 C126.325285,247.808505 126.67107,284.691797 149.046079,307.660421 C171.428858,330.26783 207.926659,330.26783 230.305552,307.660421 L258.543365,279.116507 L292.966455,313.569444 L264.736413,342.097653 C249.929822,356.711195 232.026707,366.456174 213.090122,370.629789 C194.153537,374.803404 185.205865,374.803404 166.265395,370.629789 C147.324925,366.456174 129.421809,356.711195 114.619104,342.097653 C73.2958543,300.345798 73.2958543,232.154504 114.619104,190.39087 L164.88614,139.946667 L233.405962,139.946667 Z M397.634407,172.648098 C438.619642,214.050516 438.619642,282.257515 397.634407,324.00937 L351.505135,370.629789 L282.989199,370.629789 L363.211317,289.56036 C385.594096,266.937247 385.594096,229.704517 363.211317,207.097109 L362.535627,206.425319 C340.099994,184.480184 304.107026,184.704114 281.959614,207.097109 L253.721801,235.629245 L219.287055,201.176308 L247.520983,172.648098 C288.840347,130.896243 356.318928,130.896243 397.634407,172.648098 Z M330.497726,240.855097 C339.795068,250.588297 339.795068,265.896788 330.497726,275.641766 L311.910811,294.436776 L277.476065,259.983839 L296.416535,240.855097 C305.706107,231.45563 321.208153,231.45563 330.497726,240.855097 Z M200.350471,220.320755 L234.785217,254.761912 L215.848632,273.556922 C206.547404,283.301901 191.053128,283.301901 181.759671,273.556922 C172.116543,264.157454 172.462328,248.503453 181.759671,239.103985 L200.350471,220.320755 Z" id="symbol" fill="#FFFFFF"></path>
        </g>
    </g>
</svg>