<svg width="96" height="96" viewBox="0 0 96 96" fill="none" xmlns="http://www.w3.org/2000/svg">
<path fill-rule="evenodd" clip-rule="evenodd" d="M87.9492 72.288C93.1341 66.3187 95.9925 58.6799 96 50.7732C95.9964 47.6867 95.5604 44.616 94.7048 41.6505C89.3764 22.9335 68.8613 12.9683 50.7542 20.2866C47.664 21.5346 44.8977 23.317 42.2225 25.2818C38.9908 27.6835 35.3065 28.4002 31.3456 27.6835C28.29 27.1333 25.5614 25.8382 22.9396 24.3104C21.6014 23.5362 20.5861 22.3067 20.0789 20.8461C19.9695 20.5249 19.8792 20.1973 19.8086 19.8653C19.4187 18.1002 18.559 16.4732 17.3203 15.1566C16.0816 13.84 14.51 12.8827 12.7719 12.386C11.0338 11.8893 9.1937 11.8716 7.44637 12.335C5.69904 12.7983 4.10944 13.7253 2.84576 15.0179C1.2129 16.6946 0.218577 18.8901 0.0353644 21.2234C-0.565063 28.4222 6.58663 33.9078 13.3862 31.4275C14.3213 31.0686 15.3239 30.9197 16.323 30.9915C17.322 31.0632 18.293 31.3537 19.1673 31.8425C21.0912 32.8358 22.9113 34.0178 24.6026 35.3727C28.7679 38.7898 30.8143 43.0777 30.3334 48.535C30.027 52.3913 30.4537 56.2707 31.5908 59.9682C33.8121 67.5549 38.693 74.0869 45.3389 78.3674C51.9848 82.6479 59.9507 84.3902 67.7768 83.2749C75.6035 82.158 82.7654 78.2573 87.9492 72.288ZM49.217 41.7071C47.7024 43.9721 46.7697 46.5756 46.5015 49.2871C46.2334 51.9986 46.6381 54.7344 47.6797 57.2522C48.7213 59.77 50.3678 61.9921 52.4732 63.7216C54.5786 65.4511 57.0781 66.6348 59.7502 67.1677C62.4224 67.7006 65.1847 67.5663 67.7925 66.7768C70.4003 65.9872 72.7732 64.5668 74.701 62.6412C76.6288 60.7156 78.052 58.3444 78.8445 55.7374C79.637 53.1305 79.7745 50.3683 79.2446 47.6956C78.6073 44.4806 77.0307 41.5268 74.7144 39.2078C72.3981 36.8889 69.4461 35.3089 66.2318 34.6679C63.0175 34.0268 59.6853 34.3535 56.6566 35.6065C53.6279 36.8594 51.0389 38.9825 49.217 41.7071Z" fill="white"/>
</svg>
