<svg width="96" height="96" viewBox="0 0 96 96" fill="none" xmlns="http://www.w3.org/2000/svg">
<path fill-rule="evenodd" clip-rule="evenodd" d="M24.0935 90.1716H7.95166C4.55987 90.1716 2.8843 90.1716 1.86254 89.518C0.759286 88.803 0.0848876 87.6185 0.00312678 86.3113C-0.0580653 85.1062 0.779596 83.6355 2.45518 80.6943L42.3115 10.4687C44.0074 7.48659 44.8656 5.99566 45.9486 5.44412C47.1133 4.85196 48.5027 4.85196 49.6674 5.44412C50.7504 5.99566 51.6086 7.48659 53.3045 10.4687L61.4981 24.7663L61.54 24.8392C63.3716 28.0385 64.3005 29.6608 64.706 31.3635C65.1554 33.2222 65.1554 35.1829 64.706 37.0416C64.2975 38.7574 63.3778 40.3915 61.5184 43.6391L40.583 80.6331L40.5287 80.728C38.6847 83.9535 37.7504 85.5881 36.4553 86.822C35.0456 88.17 33.3497 89.1502 31.4903 89.7018C29.7944 90.1716 27.8941 90.1716 24.0935 90.1716ZM64.8572 90.1734H87.9873C91.3996 90.1734 93.1158 90.1734 94.1376 89.4995C95.2408 88.7845 95.9356 87.5794 95.997 86.2722C96.0561 85.1069 95.2365 83.6931 93.6303 80.923C93.5756 80.8285 93.5198 80.7326 93.4632 80.6349L81.8778 60.8227L81.7459 60.5998C80.1179 57.8475 79.2957 56.4578 78.2408 55.9207C77.0761 55.3283 75.7072 55.3283 74.5425 55.9207C73.4799 56.472 72.6216 57.9223 70.9257 60.843L59.3813 80.6552L59.3417 80.7236C57.6517 83.6397 56.8071 85.0969 56.868 86.2928C56.9498 87.5999 57.6239 88.8051 58.7274 89.5198C59.7286 90.1734 61.4448 90.1734 64.8572 90.1734Z" fill="white"/>
</svg>
