<svg width="96" height="96" viewBox="0 0 96 96" fill="none" xmlns="http://www.w3.org/2000/svg">
<path d="M57.5809 48.038H56.955L59.2274 47.5316C58.9663 47.6583 57.7072 48.038 57.5809 48.038ZM60.1064 47.5316H59.4732L60.1064 47.1591C59.4732 47.1591 58.9663 47.1591 58.4599 46.9061C55.6886 47.4049 52.7902 47.5316 50.1457 48.038C50.019 48.038 49.7655 48.2915 49.7655 48.2915C49.7655 48.4182 49.7655 48.4182 49.8923 48.5373C51.1514 48.5373 52.4177 48.7907 53.8036 48.7907C54.936 48.7907 56.1951 48.4182 57.3351 48.2915C56.3218 49.0437 52.7902 48.9175 51.4048 48.9175C50.8979 48.9175 50.5254 49.0437 50.1457 49.1704C50.3915 49.9303 51.2781 50.1838 51.5311 50.936C54.3028 53.7072 56.8283 57.618 58.8401 60.8957C58.8401 61.2759 58.9663 61.909 59.2274 62.1548V62.6613C59.2274 62.9147 59.6 63.2944 59.8529 63.414H59.9797C59.9797 63.5402 59.8529 63.6669 59.8529 63.7937C59.8529 64.3001 60.9853 64.6803 60.9853 65.06C60.9853 65.1795 60.9853 65.3134 60.8586 65.3134C59.7262 65.1795 59.4732 64.5535 58.9663 63.6669C57.8339 62.9147 57.581 61.2759 56.1951 60.6427C55.9416 59.637 55.3085 59.7638 54.9359 58.7504L53.8036 56.2327C54.3028 56.3594 54.6825 56.7391 54.6825 57.2383C55.4352 59.0039 56.7015 60.1435 57.5809 61.7751C57.9606 61.909 57.9606 62.4083 58.4599 62.5345C57.7072 60.3969 56.4485 57.618 54.4295 56.2327C54.4295 55.8525 54.3028 55.3461 53.8036 55.3461C53.5429 55.3461 53.5429 55.8525 53.6768 55.9792C53.1704 55.227 52.9169 54.4671 52.1571 53.9607L52.2838 53.7072C52.2838 53.0812 51.9113 52.5748 51.4048 52.4481C51.1514 51.5691 50.1457 52.4481 49.6388 51.4424C49.2591 50.5563 48.1267 50.3105 47.3668 50.3105C45.102 53.7072 36.7802 61.6556 35.6401 65.06C34.8879 65.1795 34.381 65.6859 33.6288 65.6859C33.502 65.6859 32.9956 65.6859 32.9956 65.4325C32.9956 65.1795 33.502 64.9261 33.6288 64.5535C34.8879 62.5345 46.1077 50.8093 46.1077 49.2972C46.1077 48.9175 45.2283 48.6712 44.8486 48.6712C44.4684 48.5373 43.9696 48.4182 43.5818 48.4182C42.4494 48.4182 41.4437 48.6712 40.3113 48.6712C37.6668 48.6712 34.8879 49.1704 32.1162 49.1704C31.6098 49.1704 31.8632 48.6712 31.483 48.2915C32.362 48.1648 33.1219 47.5316 34.0085 47.5316C34.2543 47.5316 34.7612 47.6583 35.1409 47.9118C35.9008 47.9118 36.6535 48.038 37.4057 48.038C40.1846 48.038 44.0887 47.9118 46.7332 47.2781C46.8676 47.1591 46.9943 47.1591 46.9943 47.0252C46.9943 46.9061 46.3607 46.7794 46.4874 46.3992C46.4874 45.8928 43.5818 43.375 43.5818 42.6151C43.7162 42.6151 43.7161 42.4884 43.7161 42.4884C43.7161 41.103 39.298 35.9331 38.1656 34.6739V34.5472C38.1656 33.7873 37.5324 33.4148 37.5324 32.7817C37.5324 32.5287 37.9126 32.2752 38.1656 32.2752C38.5457 32.2752 38.7992 32.7816 39.045 33.0351C38.9259 33.1618 38.7992 33.2885 38.7992 33.4148C38.7992 34.0408 41.5704 37.5719 41.8162 37.5719C41.9506 37.5719 41.9506 37.1917 42.0773 37.1917C44.9753 38.9573 45.7352 42.2426 47.6198 44.7604C49.5121 44.7604 53.6768 34.5472 56.0684 33.6683H56.3218C54.1761 36.8192 51.7845 39.8439 50.019 43.2483L50.2648 43.5017C51.4048 42.9948 51.1514 41.7362 51.6506 41.356C51.9113 40.9763 53.1704 40.2236 53.1704 39.8439C53.1704 39.5904 56.3218 35.6796 56.955 34.2942C57.5809 33.6683 57.9606 32.9084 58.5938 32.1561L57.7072 32.4019C57.9607 31.3963 60.1064 30.1371 61.1121 30.2639C59.9797 32.2752 57.8339 33.4148 56.955 35.5529C55.8149 37.9516 54.5563 39.3374 52.917 41.356V41.4827C52.917 41.8624 52.1571 42.2426 52.1571 42.6151C51.4048 43.8738 49.0057 45.2668 49.0057 47.0252C49.3858 47.1591 49.8923 47.1591 50.2648 47.1591C53.5429 47.1591 56.955 46.3992 60.2254 46.3992C61.3655 46.3992 63.0044 46.2725 64.01 46.7794C62.7514 47.2781 61.3655 47.4049 60.1064 47.5316Z" fill="#FBFDFD" stroke="#FBFDFD" stroke-width="3.91068" stroke-miterlimit="10"/>
<path d="M67.4746 67.6552C67.7725 66.7017 68.0336 65.6812 68.2942 64.6382C68.5472 64.303 68.8083 63.9754 69.0541 63.6325C69.0541 65.1972 68.2273 66.4037 67.4746 67.6552ZM59.7266 79.8946C59.5999 80.5277 59.1006 80.6544 58.5942 80.7812C59.0781 79.4178 59.7041 78.1367 60.3153 76.8703C61.5371 76.4084 62.6322 75.3582 63.8019 74.7323C62.55 76.5351 61.2014 78.2706 59.7266 79.8946ZM66.4914 66.9628C65.7239 68.5863 64.7851 70.3743 63.6302 72.587C62.6618 72.9892 62.1851 73.9949 61.5146 74.7098C61.6414 74.3373 61.7676 73.9499 61.9914 73.7189C63.0789 71.216 64.7775 69.0932 66.4914 66.9628ZM52.4104 85.3179C51.5238 86.9568 47.9999 88.9753 46.3611 88.9753C44.5955 88.9753 43.0829 87.3365 41.3174 87.2102C40.9372 85.9511 39.5518 86.5766 38.6724 85.9511C36.5267 84.4313 33.6215 81.4071 32.3624 79.1423C30.2243 75.1048 28.3315 69.8158 27.1991 65.5248C26.6927 63.7592 26.6927 53.5461 26.6927 51.408C26.6927 43.8393 26.4393 37.9172 29.5907 30.9817C29.5907 29.4695 31.1033 28.5906 31.1033 27.451V26.9518C31.9899 25.9384 31.9898 24.2996 33.1222 23.4206C34.2546 19.7633 37.659 17.4908 39.4251 14.0864C40.8105 13.4609 41.1983 11.5686 42.4569 10.6897C45.221 8.91649 48.1266 6.39871 51.6582 6.39871C52.0308 6.65216 52.4104 6.90561 52.9173 6.90561C53.1703 6.90561 53.2894 6.77889 53.5505 6.77889L54.0498 6.39871C54.5562 6.52544 55.1822 7.03186 55.4428 6.14573C57.7076 6.65216 60.859 5.51975 62.252 8.03754C67.169 11.189 65.6493 17.871 67.6683 22.4078C68.0484 26.4453 68.4281 30.4752 68.5472 34.6395C68.6739 40.3087 69.4266 45.9851 69.4266 51.7805C69.4266 56.4588 69.1063 59.4534 68.3239 62.2098C67.8246 63.1782 67.2957 64.1169 66.7817 65.1523C65.4035 65.9045 65.1428 67.9235 63.6302 68.4227C62.6695 70.2552 61.4998 72.8476 60.1584 75.4625C60.1364 75.4625 60.1216 75.4845 60.0991 75.4845C59.9428 75.3506 59.9055 75.1641 59.8084 75.0077C59.466 75.4175 59.1379 75.8274 58.7429 76.1999C58.9366 76.4682 59.1231 76.7513 59.3541 76.9669C57.3499 80.6693 55.0181 84.1559 52.4104 85.3179ZM43.2097 90.9867C39.3055 90.9867 34.8878 89.6013 32.623 86.3236C30.8575 84.0588 28.4583 81.9136 27.3187 79.1423C26.1863 77.8832 22.4012 62.7535 22.4012 60.4816C22.4012 60.3548 22.4012 59.8484 22.7891 59.8484C24.294 59.8484 27.0729 67.9235 27.3187 69.0559C28.4583 72.84 30.5963 76.8703 32.3624 80.4015C33.3752 82.1665 34.7611 83.4257 35.7744 85.1912C37.0336 85.5709 37.659 86.9568 39.0449 87.2102C39.6781 88.3422 40.9372 88.4689 41.6899 89.3555C42.1963 89.3555 43.5894 89.728 43.5894 90.3612C43.5894 90.6146 43.5894 90.9867 43.2097 90.9867ZM73.2189 52.6671C72.5852 53.1735 71.4528 53.9262 71.5795 54.9391V55.3116C70.5662 56.8314 70.44 58.5893 69.4266 60.1014C69.3296 60.2654 69.2626 60.4366 69.1732 60.6006C70.7302 52.0937 71.1998 42.3349 71.1998 36.7847C71.1998 31.6153 69.4267 26.5721 68.9351 21.4021C68.6739 17.3717 68.5472 12.9545 65.9027 9.67637C63.2505 6.65216 59.5999 4.38735 55.4428 4.38735C54.8096 4.38735 54.1837 4.38735 53.5505 4.5069C53.0436 4.13437 52.4104 4 51.7845 4C49.8922 4 48.3724 5.39303 46.6069 5.39303C46.1153 5.39303 45.6084 5.2663 45.221 5.14005L44.5955 5.77321L46.8675 5.89994C46.9942 6.14574 47.24 6.39871 47.24 6.65216C47.24 7.40439 45.1019 7.15858 44.8485 8.41772C40.8105 10.563 36.5267 15.7253 34.1279 19.5098C32.7421 21.7818 31.483 24.553 30.2243 26.9518C30.0976 27.0708 29.211 28.9631 28.9652 28.9631C28.9652 29.8497 28.7041 30.6096 28.585 31.3618C27.5793 32.3675 28.2053 34.2598 27.1991 35.2726C25.6794 40.0552 24.4203 45.9851 24.4203 50.9015C24.4203 51.2817 24.1673 51.408 23.7871 51.5347C23.668 50.3951 23.2878 49.136 23.4146 47.8773V47.1175C23.9215 35.7719 24.1673 26.1919 30.8575 16.3589C35.8935 8.91649 42.323 7.78457 44.2153 5.51976C43.8428 5.51976 43.5894 5.39303 43.2097 5.39303C42.1963 5.39303 41.1983 5.89994 40.6914 6.77889C33.502 9.16995 29.9708 15.7253 26.9462 22.0353C26.4393 22.7875 25.8138 23.2939 25.6794 24.2996C25.1801 26.5721 24.8004 28.7173 23.9215 30.9817C23.668 31.8683 23.1616 33.2541 23.1616 34.1331C23.1616 34.8929 23.5413 35.6452 23.5413 36.405C23.5413 37.4107 23.4146 38.2973 23.1616 39.303C21.7758 46.238 21.3956 53.7995 21.3956 60.8613C21.3956 66.5305 23.9215 71.5737 25.6794 76.7436C27.5793 82.2933 31.6097 86.8301 35.8935 90.6146L39.0449 91.121C39.8048 91.7465 40.6914 92 41.6899 92C43.0829 92 44.4688 91.4936 45.8542 91.6203H46.3611C48.1266 90.4879 51.1513 89.728 52.5372 88.2159C52.9169 87.9696 53.1703 87.0835 53.6772 87.0835C53.7963 87.0835 53.923 87.0835 54.0498 87.2102C56.7019 84.3123 59.98 81.9136 62.3711 78.8889C63.6302 77.3768 64.3901 75.4845 65.5225 73.8457C65.9027 73.3392 65.9027 72.587 66.5359 72.2068C68.0484 68.4227 74.0978 56.3249 74.0978 53.0468V52.6671H73.2189Z" stroke="#FBFDFD" stroke-width="3.91068" stroke-miterlimit="10"/>
</svg>
