<svg width="96" height="96" viewBox="0 0 96 96" fill="none" xmlns="http://www.w3.org/2000/svg">
<path d="M47.7477 86.638C26.323 86.638 8.89362 69.2686 8.89362 47.9177C8.89362 26.5668 26.323 9.19751 47.7477 9.19751C69.1725 9.19751 86.6019 26.5668 86.6019 47.9177C86.6019 69.2686 69.1725 86.638 47.7477 86.638Z" stroke="#FF0000" stroke-linecap="round" stroke-linejoin="round"/>
<path d="M50.1722 83.363C39.3154 83.363 30.3863 78.0612 24.2086 72.8187C15.1521 65.1305 9.90418 55.8979 9.85323 55.8048L9.67065 55.479L21.1855 55.8725L21.2365 55.9021C21.3468 55.974 32.3989 62.9514 39.9651 59.9006C44.5464 58.0516 48.1639 52.5806 47.7096 48.197C47.3869 45.1082 45.1111 43.0306 41.3025 42.3536C30.4161 40.4115 25.2318 48.5016 25.1809 48.582L24.9559 48.9417L23.8859 46.2041L24.1321 46.1533C24.1576 46.1491 26.9684 45.4636 28.671 38.3466C30.3609 31.2677 26.0937 29.9814 25.9112 29.9307L25.7456 29.8841L25.8602 28.2424C28.6073 21.282 24.6629 15.4978 24.6247 15.4386L24.8837 15.2313C41.3747 5.62633 57.9889 5.57132 73.1467 15.1763C81.7064 20.6007 86.9755 35.6979 85.4046 50.2915C84.4662 58.9994 80.2373 74.5831 62.4513 81.1077C58.1417 82.686 54.0402 83.3587 50.1807 83.3587L50.1722 83.363Z" stroke="#FF0000" stroke-linecap="round" stroke-linejoin="round"/>
<path fill-rule="evenodd" clip-rule="evenodd" d="M72.7688 16.9915L72.0343 17.2454C71.7668 17.3385 71.6903 17.677 71.8984 17.8716C73.083 18.9718 75.8343 22.4245 73.9576 29.533C71.7753 37.8051 66.4467 34.7501 65.6994 34.2762C65.6315 34.2339 65.5508 34.2085 65.4701 34.2212C65.0031 34.2762 63.4661 34.8474 62.0946 39.8276C62.0946 39.8361 62.0904 39.8445 62.0861 39.8572C62.0267 40.1323 61.0671 44.4524 57.6067 44.1985C57.4709 44.19 57.335 44.2451 57.2628 44.3593C56.6047 45.3409 53.5731 50.2407 53.157 57.6454V57.6327C53.2122 57.5397 53.5222 56.9769 54.0954 56.2661H54.0996C54.9913 55.149 56.5368 53.7019 58.7276 53.2322C59.2924 53.1011 59.8995 53.0461 60.5576 53.0757C65.4956 53.3126 65.9669 63.0361 59.2669 65.6129C54.5285 67.4323 53.1995 63.5057 52.8259 61.0558V61.0431C52.7197 60.3661 52.6942 59.8034 52.6858 59.5072C52.6858 59.3676 52.6008 59.2406 52.4777 59.1814L51.7771 58.8683C51.7771 58.8683 51.7347 58.8513 51.7219 58.9148C51.7177 58.9275 51.671 59.0756 51.637 59.1602C51.2889 60.108 49.7518 62.7018 43.4 62.8033C36.7467 62.9049 36.0589 58.7836 35.9952 57.6074C35.9867 57.4296 35.8508 57.2858 35.6725 57.2604C34.3987 57.0911 29.4098 56.1433 22.7735 51.252C22.731 51.2224 22.6801 51.197 22.6291 51.1885L21.3978 50.9262C21.211 50.8881 21.0242 50.9897 20.9647 51.1716C20.5699 52.3394 18.9776 56.3591 15.7126 56.7907C12.1163 57.2646 10.5198 56.0672 10.0103 55.5467C9.8872 55.4198 9.69614 55.3902 9.54753 55.479L8.1846 56.283C8.03175 56.3718 7.96382 56.5538 8.01901 56.7188C9.04227 59.8161 18.9182 87.2473 47.7478 87.9835C78.3054 88.7706 87.4511 61.1235 87.9691 48.946C88.4871 36.8319 82.4537 25.1832 73.1424 17.0719C73.0405 16.9831 72.8962 16.9534 72.7688 17V16.9915ZM33.1674 75.3279C33.316 71.4224 36.5811 71.6974 37.2859 76.1487C37.9865 80.6 33.057 78.4928 33.1674 75.3279ZM68.5399 65.6171C66.1537 62.816 70.4633 60.8062 71.8941 62.0206C73.8727 63.6877 70.9346 68.4182 68.5399 65.6171ZM82.2753 43.0053C79.9231 43.0053 79.1843 39.8318 82.2753 39.0194C84.5087 38.4398 84.6276 43.0053 82.2753 43.0053Z" stroke="#FF0000" stroke-linecap="round" stroke-linejoin="round"/>
<path d="M8.21863 45.7175L8.20165 45.1928C8.20165 45.1928 8.19316 45.0193 8.18891 44.702C8.15494 41.3 8.95741 23.8292 28.0215 13.3441C33.0443 10.5811 38.4791 8.9013 44.1771 8.347L44.3426 8.33008L44.3978 8.49087C44.5889 9.05785 45.6079 10.9281 50.5883 11.2454C55.7216 11.5755 58.2352 9.90834 58.8848 9.38789L58.9655 9.32442L59.0631 9.34558C65.5041 10.8011 69.7246 13.1876 70.1789 13.433L70.5101 13.6234L71.4187 16.141L70.9559 15.9379C70.8285 15.8829 58.0271 10.3907 45.2428 15.1339L45.1748 15.1593L43.9223 14.7616L43.9053 14.6304C43.8883 14.5246 43.4468 11.9943 38.3644 12.2525C34.5601 12.4471 23.5675 15.8363 21.487 28.3016C21.3427 29.1563 21.8819 29.5583 22.6759 29.2071C23.2703 28.9448 24.0558 28.5301 25.0196 27.9462L25.0451 27.9293L25.13 27.8446L25.2744 27.8912L26.2594 28.3312L26.0471 28.547C26.0004 28.5936 21.5804 33.2437 22.4211 40.1618L22.4551 40.4495L22.1706 40.3988C22.0899 40.3818 14.2266 39.0151 8.57953 45.3282L8.22712 45.7217L8.21863 45.7175Z" stroke="#FF0000" stroke-linecap="round" stroke-linejoin="round"/>
<path opacity="0.5" d="M72.4716 49.3352C72.2084 49.3352 71.9961 49.2337 71.8645 49.039C71.5673 48.6032 71.7328 47.7951 72.3612 46.6442C73.0194 45.4382 74.2931 44.6005 74.9894 44.9178C75.3334 45.0744 75.6391 45.5313 75.155 46.8219C74.6158 48.2478 73.41 49.2295 72.6033 49.3268C72.5608 49.331 72.5141 49.3352 72.4716 49.3352Z" stroke="#FF0000" stroke-linecap="round" stroke-linejoin="round"/>
<path opacity="0.5" d="M47.7023 73.2956C46.8277 73.2956 46.0931 73.1263 45.7407 72.7032C45.1633 72.0093 45.6516 70.888 47.1886 69.369C48.2501 68.3196 49.6045 67.9684 50.8952 68.4C52.0204 68.7766 52.929 69.7202 53.0606 70.6383C53.1413 71.2096 52.9163 71.7088 52.428 72.0473C51.5066 72.682 49.3582 73.2913 47.6981 73.2913L47.7023 73.2956Z" stroke="#FF0000" stroke-linecap="round" stroke-linejoin="round"/>
<path d="M83.0384 39.0618C83.0006 39.0702 82.9628 39.0786 82.9249 39.0912C82.9628 39.0828 83.0048 39.0702 83.0384 39.0618Z" fill="#FF0000" stroke="#FF0000" stroke-linecap="round" stroke-linejoin="round"/>
<path d="M36.7849 33.7558C36.148 33.7558 35.6937 33.4808 35.4729 32.9519C34.7256 31.1578 35.2818 29.131 37.0099 27.4004C38.7338 25.6699 41.1921 24.6882 42.4914 25.2129C42.9075 25.3821 43.4042 25.7799 43.4127 26.7234C43.4424 29.825 39.6976 33.2142 37.3284 33.6966C37.1373 33.7346 36.9547 33.7558 36.7849 33.7558Z" stroke="#FF0000" stroke-linecap="round" stroke-linejoin="round"/>
<path d="M34.6747 26.0423C34.611 26.0423 34.5516 26.0423 34.4921 26.0338C33.8722 25.9788 33.4009 25.6572 33.2311 25.1749C33.091 24.7814 33.0443 23.9436 34.2926 22.7461C34.9719 22.0945 36.4198 21.7856 37.1458 22.3484C37.4558 22.5896 37.8719 23.1862 37.1331 24.4809C36.4707 25.6445 35.4347 26.0423 34.6747 26.0423Z" stroke="#FF0000" stroke-linecap="round" stroke-linejoin="round"/>
<path d="M57.7638 43.3565C57.6237 43.3565 57.5176 43.3015 57.4539 43.2591C56.6896 42.7175 56.9147 39.9503 57.0803 39.0575C57.2671 38.0462 58.0653 37.9532 58.7659 37.8728C59.2074 37.822 59.666 37.767 60.0311 37.5173C61.0374 36.8319 61.6403 36.1972 61.6446 36.193L61.9673 35.8502L62.0097 36.3199C62.0097 36.3664 62.3749 40.8516 58.0908 43.2676C57.9634 43.3395 57.853 43.3649 57.7596 43.3649L57.7638 43.3565Z" stroke="#FF0000" stroke-linecap="round" stroke-linejoin="round"/>
<path d="M56.732 31.0689C56.6344 31.0689 56.541 31.0605 56.4476 31.0478C55.1696 30.8447 54.6303 29.3384 54.6091 29.2749L54.6006 29.2495C54.418 28.4244 54.677 24.849 55.4286 23.825C56.8764 21.8448 59.8825 22.1875 60.0099 22.2045L60.0651 22.2172C60.1118 22.2383 61.2582 22.7164 61.6148 24.0239C61.963 25.3017 61.4322 26.8758 60.0311 28.7037C58.8295 30.2735 57.7213 31.0689 56.732 31.0689Z" stroke="#FF0000" stroke-linecap="round" stroke-linejoin="round"/>
</svg>
