<svg width="124" height="34" viewBox="0 0 124 34" fill="none" xmlns="http://www.w3.org/2000/svg">
<path d="M16.8991 32.4552C8.32917 32.4552 1.35742 25.5075 1.35742 16.9671C1.35742 8.42672 8.32917 1.479 16.8991 1.479C25.469 1.479 32.4407 8.42672 32.4407 16.9671C32.4407 25.5075 25.469 32.4552 16.8991 32.4552Z" stroke="#FF0000" stroke-width="0.5" stroke-linecap="round" stroke-linejoin="round"/>
<path d="M17.8688 31.1452C13.5261 31.1452 9.95449 29.0245 7.48338 26.9275C3.86079 23.8522 1.76162 20.1591 1.74124 20.1219L1.66821 19.9916L6.27415 20.149L6.29453 20.1608C6.33869 20.1896 10.7595 22.9806 13.786 21.7603C15.6185 21.0206 17.0655 18.8322 16.8838 17.0788C16.7547 15.8433 15.8444 15.0123 14.321 14.7415C9.96638 13.9646 7.89268 17.2007 7.8723 17.2328L7.78229 17.3767L7.35431 16.2816L7.45281 16.2613C7.463 16.2596 8.58731 15.9854 9.26835 13.1387C9.9443 10.3071 8.23745 9.79257 8.16442 9.77226L8.09818 9.75365L8.14404 9.09696C9.24288 6.31279 7.6651 3.99914 7.64982 3.97544L7.75342 3.89251C14.3498 0.05053 20.9955 0.0285273 27.0586 3.87051C30.4825 6.0403 32.5902 12.0791 31.9618 17.9166C31.5864 21.3998 29.8949 27.6332 22.7805 30.2431C21.0566 30.8744 19.416 31.1435 17.8722 31.1435L17.8688 31.1452Z" stroke="#FF0000" stroke-width="0.5" stroke-linecap="round" stroke-linejoin="round"/>
<path fill-rule="evenodd" clip-rule="evenodd" d="M26.9075 4.5966L26.6137 4.69815C26.5067 4.73538 26.4761 4.87078 26.5594 4.94864C27.0332 5.38869 28.1337 6.76977 27.3831 9.61318C26.5101 12.922 24.3787 11.7 24.0798 11.5105C24.0526 11.4935 24.0203 11.4834 23.988 11.4885C23.8012 11.5105 23.1864 11.739 22.6379 13.731C22.6379 13.7344 22.6362 13.7378 22.6345 13.7429C22.6107 13.8529 22.2269 15.5809 20.8427 15.4794C20.7883 15.476 20.734 15.498 20.7051 15.5437C20.4419 15.9364 19.2293 17.8963 19.0628 20.8582V20.8531C19.0849 20.8159 19.2089 20.5907 19.4382 20.3064H19.4399C19.7965 19.8596 20.4147 19.2808 21.2911 19.0929C21.5169 19.0404 21.7598 19.0184 22.0231 19.0303C23.9982 19.125 24.1868 23.0144 21.5068 24.0451C19.6114 24.7729 19.0798 23.2023 18.9303 22.2223V22.2172C18.8879 21.9464 18.8777 21.7213 18.8743 21.6029C18.8743 21.547 18.8403 21.4962 18.7911 21.4725L18.5109 21.3473C18.5109 21.3473 18.4939 21.3405 18.4888 21.3659C18.4871 21.371 18.4684 21.4302 18.4548 21.4641C18.3155 21.8432 17.7007 22.8807 15.16 22.9213C12.4987 22.9619 12.2235 21.3134 12.1981 20.8429C12.1947 20.7718 12.1403 20.7143 12.069 20.7041C11.5595 20.6364 9.56392 20.2573 6.90939 18.3008C6.89241 18.2889 6.87203 18.2788 6.85165 18.2754L6.35912 18.1705C6.28439 18.1552 6.20967 18.1959 6.18589 18.2686C6.02794 18.7358 5.39106 20.3436 4.08502 20.5163C2.64652 20.7058 2.00794 20.2269 1.80413 20.0187C1.75488 19.9679 1.67845 19.9561 1.61901 19.9916L1.07384 20.3132C1.0127 20.3487 0.985526 20.4215 1.0076 20.4875C1.41691 21.7264 5.36728 32.6989 16.8991 32.9934C29.1222 33.3082 32.7804 22.2494 32.9876 17.3784C33.1948 12.5327 30.7815 7.87328 27.057 4.62876C27.0162 4.59321 26.9585 4.58137 26.9075 4.59998V4.5966ZM11.067 27.9311C11.1264 26.369 12.4324 26.479 12.7144 28.2595C12.9946 30.04 11.0228 29.1971 11.067 27.9311ZM25.216 24.0468C24.2615 22.9264 25.9853 22.1225 26.5577 22.6082C27.3491 23.2751 26.1738 25.1673 25.216 24.0468ZM30.7101 15.0021C29.7692 15.0021 29.4737 13.7327 30.7101 13.4078C31.6035 13.1759 31.651 15.0021 30.7101 15.0021Z" stroke="#FF0000" stroke-width="0.5" stroke-linecap="round" stroke-linejoin="round"/>
<path d="M1.08745 16.087L1.08066 15.8771C1.08066 15.8771 1.07726 15.8077 1.07556 15.6808C1.06198 14.32 1.38297 7.33166 9.00858 3.13763C11.0177 2.03243 13.1916 1.36051 15.4708 1.13879L15.5371 1.13202L15.5591 1.19633C15.6356 1.42313 16.0432 2.17122 18.0353 2.29815C20.0886 2.43017 21.0941 1.76332 21.3539 1.55514L21.3862 1.52976L21.4253 1.53822C24.0017 2.12044 25.6898 3.07501 25.8716 3.17318L26.004 3.24934L26.3675 4.25638L26.1823 4.17514C26.1314 4.15314 21.0109 1.95627 15.8971 3.85356L15.8699 3.86372L15.3689 3.70462L15.3621 3.65216C15.3553 3.60984 15.1787 2.59773 13.1458 2.70097C11.624 2.77882 7.22701 4.13452 6.39481 9.12063C6.33707 9.46252 6.55276 9.6233 6.87035 9.48283C7.10812 9.37789 7.42232 9.21203 7.80784 8.97846L7.81803 8.97169L7.852 8.93784L7.90975 8.95646L8.30376 9.13248L8.21885 9.2188C8.20016 9.23741 6.43218 11.0975 6.76845 13.8647L6.78204 13.9798L6.66825 13.9595C6.63598 13.9527 3.49062 13.406 1.23181 15.9313L1.09085 16.0887L1.08745 16.087Z" stroke="#FF0000" stroke-width="0.5" stroke-linecap="round" stroke-linejoin="round"/>
<path opacity="0.5" d="M26.7887 17.5341C26.6834 17.5341 26.5984 17.4935 26.5458 17.4156C26.4269 17.2413 26.4931 16.918 26.7445 16.4577C27.0077 15.9753 27.5172 15.6402 27.7958 15.7671C27.9333 15.8298 28.0556 16.0126 27.862 16.5288C27.6463 17.0991 27.164 17.4918 26.8413 17.5307C26.8243 17.5324 26.8056 17.5341 26.7887 17.5341Z" stroke="#FF0000" stroke-width="0.5" stroke-linecap="round" stroke-linejoin="round"/>
<path opacity="0.5" d="M16.881 27.1182C16.5311 27.1182 16.2373 27.0505 16.0963 26.8813C15.8653 26.6037 16.0607 26.1552 16.6755 25.5476C17.1 25.1278 17.6418 24.9874 18.1581 25.16C18.6082 25.3106 18.9716 25.6881 19.0243 26.0553C19.0566 26.2838 18.9665 26.4835 18.7712 26.6189C18.4027 26.8728 17.5433 27.1165 16.8793 27.1165L16.881 27.1182Z" stroke="#FF0000" stroke-width="0.5" stroke-linecap="round" stroke-linejoin="round"/>
<path d="M31.0154 13.4247C31.0002 13.428 30.9851 13.4314 30.97 13.4365C30.9851 13.4331 31.0019 13.428 31.0154 13.4247Z" fill="#FF0000" stroke="#FF0000" stroke-width="0.5" stroke-linecap="round" stroke-linejoin="round"/>
<path d="M12.514 11.3023C12.2592 11.3023 12.0775 11.1923 11.9892 10.9807C11.6903 10.2631 11.9127 9.45241 12.604 8.76018C13.2935 8.06794 14.2768 7.67528 14.7965 7.88515C14.963 7.95285 15.1617 8.11195 15.1651 8.48938C15.177 9.72998 13.679 11.0857 12.7313 11.2786C12.6549 11.2939 12.5819 11.3023 12.514 11.3023Z" stroke="#FF0000" stroke-width="0.5" stroke-linecap="round" stroke-linejoin="round"/>
<path d="M11.6699 8.21693C11.6444 8.21693 11.6207 8.21693 11.5969 8.21355C11.3489 8.19155 11.1604 8.06292 11.0925 7.86997C11.0364 7.71257 11.0177 7.37745 11.5171 6.89847C11.7888 6.63783 12.3679 6.51428 12.6583 6.73938C12.7823 6.83585 12.9488 7.07449 12.6533 7.5924C12.3883 8.05784 11.9739 8.21693 11.6699 8.21693Z" stroke="#FF0000" stroke-width="0.5" stroke-linecap="round" stroke-linejoin="round"/>
<path d="M20.9055 15.1426C20.8495 15.1426 20.807 15.1206 20.7815 15.1036C20.4758 14.887 20.5658 13.7801 20.6321 13.423C20.7068 13.0185 21.0261 12.9812 21.3063 12.9491C21.483 12.9288 21.6664 12.9068 21.8124 12.8069C22.2149 12.5327 22.4561 12.2789 22.4578 12.2772L22.5869 12.1401L22.6039 12.3279C22.6039 12.3466 22.7499 14.1406 21.0363 15.107C20.9853 15.1358 20.9412 15.146 20.9038 15.146L20.9055 15.1426Z" stroke="#FF0000" stroke-width="0.5" stroke-linecap="round" stroke-linejoin="round"/>
<path d="M20.4928 10.2276C20.4538 10.2276 20.4164 10.2242 20.3791 10.2191C19.8678 10.1379 19.6522 9.53533 19.6437 9.50994L19.6403 9.49979C19.5672 9.16975 19.6708 7.73958 19.9714 7.33C20.5506 6.53791 21.753 6.675 21.804 6.68177L21.8261 6.68685C21.8447 6.69531 22.3033 6.88656 22.446 7.40955C22.5852 7.92068 22.3729 8.55029 21.8125 9.28146C21.3318 9.90937 20.8886 10.2276 20.4928 10.2276Z" stroke="#FF0000" stroke-width="0.5" stroke-linecap="round" stroke-linejoin="round"/>
<path d="M49.543 26.6C43.6644 26.6 38.7826 23.4958 38.7826 17C38.7826 10.5042 43.6644 7.40002 49.543 7.40002C55.4217 7.40002 60.612 10.3169 60.612 17C60.612 23.6831 55.6116 26.6 49.543 26.6ZM49.7567 22.6176C53.8578 22.6176 55.9914 20.9587 55.9914 17C55.9914 13.0413 53.8578 11.3824 49.7567 11.3824C45.6556 11.3824 43.4033 12.9227 43.4033 17C43.4033 21.0774 45.5131 22.6176 49.7567 22.6176Z" fill="white"/>
<path d="M67.1765 13.2312V16.4778H75.0226C76.3492 16.4778 77.0376 15.2699 77.0376 14.0594C77.0376 12.8488 76.3729 11.7121 75.0226 11.7121H62.7905L63.9747 7.8009H75.0674C79.3822 7.8009 81.6582 11.0712 81.6582 14.273C81.6582 16.6915 80.3554 19.1073 77.6283 20.0093L82.2042 26.1965H77.0376L73.0314 20.389H67.1765V26.1965H62.7905V14.4154L67.1765 13.2312Z" fill="white"/>
<path d="M88.4152 13.2312V15.0563H96.4987C97.8253 15.0563 98.5137 14.2018 98.5137 13.3499C98.5137 12.498 97.8491 11.7147 96.4987 11.7147H84.0293L85.2135 7.80353H96.5436C100.882 7.80353 103.134 10.4831 103.134 13.1125C103.134 14.5103 102.375 15.9345 100.858 16.9051C102.683 17.9231 103.609 19.4897 103.609 21.0536C103.609 23.6382 101.452 26.1965 97.0183 26.1965H84.0293V14.4154L88.4152 13.2312ZM88.4152 22.2853H96.9735C98.3001 22.2853 98.9884 21.4308 98.9884 20.5789C98.9884 19.727 98.3238 18.9437 96.9735 18.9437H88.4152V22.2853Z" fill="white"/>
<path d="M104.295 26.1964L105.479 22.2852H117.236C118.563 22.2852 119.251 21.4307 119.251 20.5788C119.251 19.727 118.587 18.9437 117.236 18.9437H107.85V15.0562H116.762C118.088 15.0562 118.777 14.2017 118.777 13.3498C118.777 12.498 118.112 11.7147 116.762 11.7147H104.292L105.476 7.80347H116.806C121.145 7.80347 123.397 10.483 123.397 13.1125C123.397 14.5103 122.638 15.9345 121.121 16.905C122.946 17.923 123.872 19.4896 123.872 21.0536C123.872 23.6382 121.715 26.1964 117.281 26.1964H104.292H104.295Z" fill="#FF0000"/>
</svg>
