<svg width="48" height="48" viewBox="0 0 48 48" fill="none" xmlns="http://www.w3.org/2000/svg">
<rect width="48" height="48" fill="black"/>
<path d="M23.8739 43.319C13.1615 43.319 4.44684 34.6343 4.44684 23.9589C4.44684 13.2834 13.1615 4.59875 23.8739 4.59875C34.5863 4.59875 43.301 13.2834 43.301 23.9589C43.301 34.6343 34.5863 43.319 23.8739 43.319Z" stroke="#FF0000" stroke-linecap="round" stroke-linejoin="round"/>
<path d="M25.0861 41.6815C19.6577 41.6815 15.1932 39.0306 12.1043 36.4093C7.57605 32.5652 4.95209 27.9489 4.92661 27.9024L4.83533 27.7395L10.5928 27.9362L10.6182 27.9511C10.6734 27.987 16.1994 31.4757 19.9825 29.9503C22.2732 29.0258 24.0819 26.2903 23.8548 24.0985C23.6934 22.5541 22.5555 21.5153 20.6513 21.1768C15.208 20.2057 12.6159 24.2508 12.5904 24.291L12.4779 24.4708L11.9429 23.102L12.0661 23.0766C12.0788 23.0745 13.4842 22.7318 14.3355 19.1733C15.1804 15.6339 13.0469 14.9907 12.9556 14.9653L12.8728 14.9421L12.9301 14.1212C14.3037 10.641 12.3314 7.74892 12.3123 7.7193L12.4418 7.61564C20.6873 2.81316 28.9944 2.78566 36.5733 7.58813C40.8532 10.3004 43.4878 17.8489 42.7023 25.1457C42.2331 29.4997 40.1187 37.2915 31.2256 40.5538C29.0709 41.343 27.0201 41.6794 25.0903 41.6794L25.0861 41.6815Z" stroke="#FF0000" stroke-linecap="round" stroke-linejoin="round"/>
<path fill-rule="evenodd" clip-rule="evenodd" d="M36.3844 8.49576L36.0171 8.6227C35.8834 8.66925 35.8452 8.8385 35.9492 8.93582C36.5415 9.48588 37.9172 11.2122 36.9788 14.7665C35.8876 18.9025 33.2233 17.3751 32.8497 17.1381C32.8157 17.1169 32.7754 17.1043 32.7351 17.1106C32.5015 17.1381 31.733 17.4237 31.0473 19.9138C31.0473 19.918 31.0452 19.9223 31.0431 19.9286C31.0134 20.0661 30.5336 22.2262 28.8034 22.0993C28.7354 22.095 28.6675 22.1225 28.6314 22.1796C28.3024 22.6705 26.7866 25.1204 26.5785 28.8227V28.8164C26.6061 28.7698 26.7611 28.4885 27.0477 28.133H27.0498C27.4956 27.5745 28.2684 26.851 29.3638 26.6161C29.6462 26.5505 29.9498 26.523 30.2788 26.5378C32.7478 26.6563 32.9834 31.518 29.6334 32.8064C27.2642 33.7162 26.5998 31.7529 26.4129 30.5279V30.5216C26.3599 30.1831 26.3471 29.9017 26.3429 29.7536C26.3429 29.6838 26.3004 29.6203 26.2389 29.5907L25.8886 29.4341C25.8886 29.4341 25.8673 29.4257 25.861 29.4574C25.8588 29.4638 25.8355 29.5378 25.8185 29.5801C25.6444 30.054 24.8759 31.3509 21.7 31.4017C18.3733 31.4524 18.0294 29.3918 17.9976 28.8037C17.9933 28.7148 17.9254 28.6429 17.8362 28.6302C17.1994 28.5456 14.7049 28.0717 11.3867 25.626C11.3655 25.6112 11.34 25.5985 11.3146 25.5943L10.6989 25.4631C10.6055 25.4441 10.5121 25.4948 10.4824 25.5858C10.2849 26.1697 9.48882 28.1796 7.85628 28.3954C6.05815 28.6323 5.25992 28.0336 5.00517 27.7734C4.9436 27.7099 4.84807 27.6951 4.77377 27.7395L4.0923 28.1415C4.01587 28.1859 3.98191 28.2769 4.00951 28.3594C4.52114 29.908 9.4591 43.6237 23.8739 43.9918C39.1527 44.3853 43.7255 30.5618 43.9845 24.473C44.2435 18.4159 41.2268 12.5916 36.5712 8.53596C36.5203 8.49153 36.4481 8.47672 36.3844 8.5V8.49576ZM16.5837 37.6639C16.658 35.7112 18.2905 35.8487 18.643 38.0744C18.9932 40.3 16.5285 39.2464 16.5837 37.6639ZM34.2699 32.8086C33.0769 31.408 35.2316 30.4031 35.9471 31.0103C36.9364 31.8438 35.4673 34.2091 34.2699 32.8086ZM41.1377 21.5026C39.9616 21.5026 39.5922 19.9159 41.1377 19.5097C42.2543 19.2199 42.3138 21.5026 41.1377 21.5026Z" stroke="#FF0000" stroke-linecap="round" stroke-linejoin="round"/>
<path d="M4.10932 22.8587L4.10082 22.5964C4.10082 22.5964 4.09658 22.5097 4.09445 22.351C4.07747 20.65 4.47871 11.9146 14.0107 6.67206C16.5222 5.29055 19.2395 4.45065 22.0885 4.1735L22.1713 4.16504L22.1989 4.24543C22.2945 4.52893 22.804 5.46403 25.2942 5.62271C27.8608 5.78773 29.1176 4.95417 29.4424 4.69395L29.4827 4.66221L29.5316 4.67279C32.7521 5.40057 34.8623 6.59378 35.0894 6.71649L35.255 6.81169L35.7093 8.07049L35.4779 7.96894C35.4142 7.94144 29.0136 5.19535 22.6214 7.56697L22.5874 7.57966L21.9612 7.38079L21.9527 7.31521C21.9442 7.26232 21.7234 5.99717 19.1822 6.12623C17.2801 6.22355 11.7838 7.91816 10.7435 14.1508C10.6713 14.5782 10.9409 14.7791 11.3379 14.6035C11.6352 14.4724 12.0279 14.265 12.5098 13.9731L12.5225 13.9646L12.565 13.9223L12.6372 13.9456L13.1297 14.1656L13.0236 14.2735C13.0002 14.2968 10.7902 16.6219 11.2106 20.0809L11.2275 20.2248L11.0853 20.1994C11.045 20.1909 7.11328 19.5076 4.28977 22.6641L4.11356 22.8608L4.10932 22.8587Z" stroke="#FF0000" stroke-linecap="round" stroke-linejoin="round"/>
<path opacity="0.5" d="M36.2358 24.6676C36.1042 24.6676 35.998 24.6168 35.9322 24.5195C35.7836 24.3016 35.8664 23.8975 36.1806 23.3221C36.5097 22.7191 37.1466 22.3002 37.4947 22.4589C37.6667 22.5372 37.8195 22.7657 37.5775 23.4109C37.3079 24.1239 36.705 24.6147 36.3016 24.6634C36.2804 24.6655 36.257 24.6676 36.2358 24.6676Z" stroke="#FF0000" stroke-linecap="round" stroke-linejoin="round"/>
<path opacity="0.5" d="M23.8512 36.6478C23.4138 36.6478 23.0466 36.5632 22.8704 36.3516C22.5816 36.0046 22.8258 35.444 23.5943 34.6845C24.125 34.1598 24.8022 33.9842 25.4476 34.2C26.0102 34.3883 26.4645 34.8601 26.5303 35.3192C26.5707 35.6048 26.4581 35.8544 26.214 36.0237C25.7533 36.341 24.6791 36.6457 23.849 36.6457L23.8512 36.6478Z" stroke="#FF0000" stroke-linecap="round" stroke-linejoin="round"/>
<path d="M41.5193 19.5309C41.5004 19.5351 41.4814 19.5393 41.4625 19.5456C41.4814 19.5414 41.5025 19.5351 41.5193 19.5309Z" fill="#FF0000" stroke="#FF0000" stroke-linecap="round" stroke-linejoin="round"/>
<path d="M18.3924 16.8779C18.074 16.8779 17.8468 16.7404 17.7365 16.4759C17.3628 15.5789 17.6409 14.5655 18.505 13.7002C19.3669 12.8349 20.5961 12.3441 21.2457 12.6064C21.4537 12.6911 21.7021 12.8899 21.7064 13.3617C21.7212 14.9125 19.8488 16.6071 18.6642 16.8483C18.5686 16.8673 18.4774 16.8779 18.3924 16.8779Z" stroke="#FF0000" stroke-linecap="round" stroke-linejoin="round"/>
<path d="M17.3373 13.0211C17.3055 13.0211 17.2758 13.0211 17.246 13.0169C16.9361 12.9894 16.7004 12.8286 16.6155 12.5874C16.5455 12.3907 16.5221 11.9718 17.1463 11.3731C17.4859 11.0473 18.2099 10.8928 18.5729 11.1742C18.7278 11.2948 18.9359 11.5931 18.5665 12.2405C18.2353 12.8223 17.7173 13.0211 17.3373 13.0211Z" stroke="#FF0000" stroke-linecap="round" stroke-linejoin="round"/>
<path d="M28.8819 21.6782C28.8118 21.6782 28.7588 21.6507 28.7269 21.6296C28.3448 21.3588 28.4573 19.9752 28.5401 19.5288C28.6335 19.0231 29.0326 18.9766 29.3829 18.9364C29.6037 18.911 29.833 18.8835 30.0155 18.7587C30.5187 18.4159 30.8201 18.0986 30.8223 18.0965L30.9836 17.9251L31.0048 18.1599C31.0048 18.1832 31.1874 20.4258 29.0454 21.6338C28.9817 21.6698 28.9265 21.6825 28.8798 21.6825L28.8819 21.6782Z" stroke="#FF0000" stroke-linecap="round" stroke-linejoin="round"/>
<path d="M28.366 15.5345C28.3172 15.5345 28.2705 15.5302 28.2238 15.5239C27.5848 15.4223 27.3152 14.6692 27.3045 14.6374L27.3003 14.6248C27.209 14.2122 27.3385 12.4245 27.7143 11.9125C28.4382 10.9224 29.9412 11.0938 30.0049 11.1022L30.0325 11.1086C30.0559 11.1192 30.6291 11.3582 30.8074 12.0119C30.9815 12.6509 30.7161 13.4379 30.0155 14.3518C29.4148 15.1367 28.8607 15.5345 28.366 15.5345Z" stroke="#FF0000" stroke-linecap="round" stroke-linejoin="round"/>
</svg>
