<svg width="172" height="172" viewBox="0 0 172 172" fill="none" xmlns="http://www.w3.org/2000/svg">
<path d="M62.3238 19.1108C60.3382 19.1095 58.3737 19.5183 56.5535 20.3116C54.7333 21.1049 53.0965 22.2657 51.7458 23.7211C48.2607 27.4759 44.0377 30.4704 39.3414 32.5171C34.6452 34.5638 29.5768 35.6185 24.4539 35.6153H15.8689C23.9162 24.5631 34.4666 15.5739 46.6563 9.38355C58.846 3.19317 72.3285 -0.0223925 86 0.000117372C99.6715 -0.0223925 113.154 3.19317 125.344 9.38355C137.533 15.5739 148.084 24.5631 156.131 35.6153H148.716C143.537 35.6181 138.41 34.5877 133.633 32.5846C128.857 30.5814 124.529 27.6457 120.901 23.9492C119.397 22.4163 117.603 21.1987 115.623 20.3679C113.643 19.5371 111.517 19.1097 109.37 19.1108H62.3238ZM166.283 53.8585H139.978C137.83 53.8594 135.704 53.432 133.723 52.6012C131.742 51.7704 129.947 50.5529 128.443 49.0201C124.815 45.3232 120.487 42.3873 115.711 40.3841C110.935 38.3809 105.807 37.3508 100.627 37.354H71.0659C65.9425 37.3511 60.8737 38.406 56.1769 40.4527C51.4801 42.4993 47.2564 45.4937 43.7703 49.2481C42.4196 50.7036 40.7828 51.8643 38.9626 52.6577C37.1424 53.451 35.1779 53.8598 33.1923 53.8585H5.71713C2.78479 61.0888 0.861047 68.6881 0 76.4428H33.1923C38.3158 76.4466 43.3849 75.392 48.0818 73.3453C52.7788 71.2986 57.0024 68.3038 60.4879 64.5486C61.8386 63.0932 63.4754 61.9324 65.2956 61.1391C67.1158 60.3458 69.0803 59.937 71.0659 59.9383H100.627C102.775 59.9374 104.902 60.3648 106.882 61.1956C108.863 62.0264 110.658 63.2438 112.163 64.7767C115.79 68.4735 120.119 71.4095 124.895 73.4127C129.671 75.4159 134.799 76.446 139.978 76.4428H172C171.139 68.6881 169.215 61.0888 166.283 53.8585ZM172 95.5572H139.978C134.799 95.554 129.671 96.5841 124.895 98.5873C120.119 100.591 115.79 103.526 112.163 107.223C110.658 108.756 108.863 109.974 106.882 110.804C104.902 111.635 102.775 112.063 100.627 112.062H71.0659C69.0803 112.063 67.1158 111.654 65.2956 110.861C63.4754 110.068 61.8386 108.907 60.4879 107.451C57.0024 103.696 52.7788 100.701 48.0818 98.6547C43.3849 96.608 38.3158 95.5534 33.1923 95.5572H0C0.86058 103.312 2.78434 110.911 5.71713 118.142H33.1923C37.2118 118.142 41.0482 119.813 43.7703 122.752C47.2558 126.507 51.4794 129.502 56.1764 131.549C60.8733 133.595 65.9424 134.65 71.0659 134.646H100.627C111.105 134.646 121.137 130.44 128.443 122.98C129.947 121.447 131.742 120.23 133.723 119.399C135.704 118.568 137.83 118.141 139.978 118.142H166.283C169.216 110.911 171.139 103.312 172 95.5572ZM156.131 136.385H148.716C143.537 136.382 138.41 137.412 133.633 139.415C128.857 141.419 124.529 144.354 120.901 148.051C119.397 149.584 117.603 150.801 115.623 151.632C113.643 152.463 111.517 152.89 109.37 152.889H62.3238C60.3382 152.891 58.3737 152.482 56.5535 151.688C54.7333 150.895 53.0965 149.734 51.7458 148.279C48.2607 144.524 44.0377 141.53 39.3414 139.483C34.6452 137.436 29.5768 136.381 24.4539 136.385H15.8689C23.9162 147.437 34.4666 156.426 46.6563 162.616C58.846 168.807 72.3285 172.022 86 172C99.6715 172.022 113.154 168.807 125.344 162.616C137.533 156.426 148.084 147.437 156.131 136.385ZM85.9963 102.504C95.1684 102.504 102.605 95.116 102.605 86C102.605 76.884 95.1684 69.4955 85.9963 69.4955C76.8242 69.4955 69.3908 76.884 69.3908 86C69.3908 95.116 76.8242 102.504 85.9963 102.504Z" fill="#1C122C"/>
</svg>
