<svg width="96" height="96" viewBox="0 0 96 96" fill="none" xmlns="http://www.w3.org/2000/svg">
<path d="M1.10847 56.3309C1.09259 56.3221 1.09259 56.3054 1.10847 56.2966L15.6108 48.156C15.6229 48.1495 15.6405 48.1495 15.6526 48.1563L48.357 66.6131C48.369 66.6202 48.3868 66.6202 48.3988 66.6131L80.518 48.3124C80.53 48.3056 80.5475 48.3053 80.5595 48.3121L94.9879 56.2966C95.0038 56.3057 95.0041 56.3221 94.9885 56.3312L48.5062 82.9948C48.4939 83.0016 48.4763 83.0016 48.464 82.9948L1.10847 56.3309Z" fill="url(#paint0_linear_27_1344)"/>
<path d="M1.01192 38.9252C0.995699 38.9161 0.996096 38.8991 1.01273 38.8903L48.3673 14.0046C48.3793 13.9984 48.3958 13.9985 48.4077 14.0048L94.8895 38.8906C94.9057 38.8991 94.9062 38.9158 94.8903 38.9252L48.4086 65.5885C48.3963 65.5953 48.3787 65.5953 48.3665 65.5885L1.01192 38.9252Z" fill="url(#paint1_linear_27_1344)"/>
<defs>
<linearGradient id="paint0_linear_27_1344" x1="24.5528" y1="40.2578" x2="69.2375" y2="85.3028" gradientUnits="userSpaceOnUse">
<stop stop-color="#DD75A6"/>
<stop offset="1" stop-color="#F2B05B"/>
</linearGradient>
<linearGradient id="paint1_linear_27_1344" x1="24.5528" y1="22.9065" x2="54.184" y2="66.5594" gradientUnits="userSpaceOnUse">
<stop stop-color="#6F73F6"/>
<stop offset="1" stop-color="#D975A9"/>
</linearGradient>
</defs>
</svg>
