<svg width="138" height="28" viewBox="0 0 138 28" fill="none" xmlns="http://www.w3.org/2000/svg">
<path d="M37.5114 3.3291H45.0683C47.0015 3.3291 48.6124 3.97345 49.9012 5.26215C51.2095 6.55086 51.8637 8.15197 51.8637 10.0655C51.8637 11.9595 51.2095 13.5606 49.9012 14.8688C48.6124 16.1576 47.0015 16.8019 45.0683 16.8019H40.8798V23.8312H37.5114V3.3291ZM40.8798 13.6387H45.0683C46.0642 13.6387 46.8843 13.3068 47.5287 12.6429C48.1731 11.9595 48.4953 11.1004 48.4953 10.0655C48.4953 9.03063 48.1731 8.18126 47.5287 7.51739C46.8843 6.83398 46.0642 6.49228 45.0683 6.49228H40.8798V13.6387ZM65.1524 11.2663V9.18684H68.3157V23.8312H65.1524V21.7224C63.9612 23.3821 62.2526 24.2119 60.0265 24.2119C58.0153 24.2119 56.2969 23.47 54.8714 21.986C53.446 20.502 52.7332 18.6764 52.7332 16.509C52.7332 14.3417 53.446 12.516 54.8714 11.032C56.2969 9.54807 58.0153 8.80609 60.0265 8.80609C62.2526 8.80609 63.9612 9.62617 65.1524 11.2663ZM57.2147 19.8772C58.0934 20.7559 59.1966 21.1952 60.5245 21.1952C61.8523 21.1952 62.9556 20.7559 63.8343 19.8772C64.713 18.979 65.1524 17.8563 65.1524 16.509C65.1524 15.1617 64.713 14.0488 63.8343 13.1701C62.9556 12.2719 61.8523 11.8228 60.5245 11.8228C59.1966 11.8228 58.0934 12.2719 57.2147 13.1701C56.3359 14.0488 55.8966 15.1617 55.8966 16.509C55.8966 17.8368 56.3359 18.9595 57.2147 19.8772ZM75.1663 9.18684V11.6471C75.9669 9.83119 77.4705 8.92324 79.677 8.92324V12.35C78.4859 12.2719 77.4314 12.5648 76.5137 13.2287C75.6154 13.873 75.1663 14.947 75.1663 16.4504V23.8312H72.0029V9.18684H75.1663ZM92.9269 11.2663V9.18684H96.0902V23.8312H92.9269V21.7224C91.7357 23.3821 90.0271 24.2119 87.801 24.2119C85.7898 24.2119 84.0714 23.47 82.6459 21.986C81.2204 20.502 80.5077 18.6764 80.5077 16.509C80.5077 14.3417 81.2204 12.516 82.6459 11.032C84.0714 9.54807 85.7898 8.80609 87.801 8.80609C90.0271 8.80609 91.7357 9.62617 92.9269 11.2663ZM84.9891 19.8772C85.8679 20.7559 86.9711 21.1952 88.299 21.1952C89.6268 21.1952 90.7301 20.7559 91.6088 19.8772C92.4875 18.979 92.9269 17.8563 92.9269 16.509C92.9269 15.1617 92.4875 14.0488 91.6088 13.1701C90.7301 12.2719 89.6268 11.8228 88.299 11.8228C86.9711 11.8228 85.8679 12.2719 84.9891 13.1701C84.1104 14.0488 83.6711 15.1617 83.6711 16.509C83.6711 17.8368 84.1104 18.9595 84.9891 19.8772ZM102.94 23.8312H99.777V2.45044H102.94V23.8312ZM109.777 23.8312H106.613V2.45044H109.777V23.8312ZM127.597 17.8563H115.94C116.174 18.9497 116.701 19.7991 117.521 20.4044C118.361 21.0097 119.396 21.3124 120.626 21.3124C122.286 21.3124 123.545 20.7071 124.404 19.4965L127.011 21.0195C125.586 23.1478 123.448 24.2119 120.597 24.2119C118.234 24.2119 116.311 23.4895 114.826 22.0446C113.362 20.5801 112.63 18.735 112.63 16.509C112.63 14.3417 113.352 12.516 114.797 11.032C116.223 9.54807 118.078 8.80609 120.362 8.80609C122.491 8.80609 124.248 9.55783 125.635 11.0613C127.021 12.5648 127.714 14.3905 127.714 16.5383C127.714 16.9288 127.675 17.3682 127.597 17.8563ZM115.91 15.2789H124.522C124.307 14.1269 123.819 13.2384 123.057 12.6136C122.315 11.9888 121.407 11.6764 120.333 11.6764C119.161 11.6764 118.185 11.9986 117.404 12.6429C116.623 13.2873 116.125 14.1659 115.91 15.2789ZM133.661 23.8312H130.498V2.45044H133.661V23.8312Z" fill="white"/>
<path d="M0.0448829 16.9977C0.0393199 16.9946 0.0393197 16.9889 0.0448819 16.9859L5.12338 14.1862C5.12763 14.184 5.13376 14.184 5.138 14.1863L16.5906 20.5338C16.5948 20.5362 16.601 20.5362 16.6052 20.5338L27.8529 14.24C27.8571 14.2377 27.8632 14.2376 27.8674 14.2399L32.92 16.9859C32.9256 16.989 32.9257 16.9946 32.9202 16.9978L16.6428 26.1676C16.6385 26.1699 16.6324 26.1699 16.6281 26.1676L0.0448829 16.9977Z" fill="url(#paint0_linear_11_951)"/>
<path d="M0.0110699 11.0117C0.00539074 11.0085 0.00552994 11.0027 0.0113556 10.9997L16.5942 2.44129C16.5984 2.43915 16.6042 2.43917 16.6084 2.44134L32.8856 10.9998C32.8912 11.0027 32.8914 11.0084 32.8859 11.0117L16.6087 20.1814C16.6044 20.1837 16.5982 20.1837 16.5939 20.1814L0.0110699 11.0117Z" fill="url(#paint1_linear_11_951)"/>
<defs>
<linearGradient id="paint0_linear_11_951" x1="8.25472" y1="11.47" x2="23.6174" y2="27.2392" gradientUnits="userSpaceOnUse">
<stop stop-color="#DD75A6"/>
<stop offset="1" stop-color="#F2B05B"/>
</linearGradient>
<linearGradient id="paint1_linear_11_951" x1="8.25472" y1="5.50273" x2="18.3759" y2="20.6854" gradientUnits="userSpaceOnUse">
<stop stop-color="#6F73F6"/>
<stop offset="1" stop-color="#D975A9"/>
</linearGradient>
</defs>
</svg>
