<svg width="180" height="180" viewBox="0 0 180 180" fill="none" xmlns="http://www.w3.org/2000/svg">
<g clip-path="url(#clip0_124_2)">
<path fill-rule="evenodd" clip-rule="evenodd" d="M15.9433 100.67L45.2908 133.954L45.3367 134C46.1506 134.931 46.9896 135.806 47.8517 136.626C53.8866 142.363 61.0537 145.355 68.6771 145.355C82.7548 145.355 92.1093 134.735 92.4762 122.001C92.929 122.529 93.3783 123.026 93.827 123.492C96.9679 126.758 100.082 128.563 104.215 129.77C104.476 130.474 104.76 131.151 105.065 131.801C109.639 141.551 118.943 145.309 125.951 145.309C133.93 145.309 141.175 141.079 147.503 133.954L164.057 115.197C167.267 111.565 171.669 105.313 171.669 98.4628C171.669 91.0613 167.358 84.855 163.461 80.4416L132.875 45.6863C126.75 38.7889 119.765 34.6052 112.088 34.344C111.929 34.3386 111.77 34.3349 111.61 34.3329C111.515 34.3317 111.419 34.3311 111.323 34.3311C97.2452 34.3311 87.8906 45.1806 87.5238 57.2254H77.7566C77.3897 50.6513 74.5008 44.5829 69.8694 40.3075C65.7883 36.5837 60.3773 34.3311 54.0492 34.3311C46.0704 34.3311 38.8252 38.5605 32.4971 45.6863L15.9433 64.4431C12.5958 68.3048 8.33124 75.1088 8.33124 82.5563C8.33124 83.0218 8.34772 83.4848 8.37944 83.9446C8.85535 90.8429 12.762 97.0492 15.9433 100.67Z" fill="white"/>
<path fill-rule="evenodd" clip-rule="evenodd" d="M39.2111 139.656L9.68956 106.174L9.68488 106.169C5.88501 101.845 0.719523 93.9625 0.0679622 84.5182C0.0234441 83.8729 0 83.2186 0 82.5565C0 72.1879 5.74756 63.4859 9.64796 58.9863L9.67225 58.9583L26.2592 40.164L26.2677 40.1544C33.5322 31.9742 42.8657 26 54.0492 26C62.4544 26 69.8683 29.0286 75.4848 34.1533L75.5027 34.1696L75.5205 34.186C78.4206 36.8632 80.7996 40.0468 82.5644 43.562C87.584 33.4548 97.8769 26 111.323 26C111.454 26 111.585 26.0008 111.716 26.0025C111.935 26.0053 112.153 26.0104 112.371 26.0178C123.11 26.3831 132.075 32.239 139.104 40.1544L139.117 40.1684L169.705 74.9268C169.706 74.9282 169.708 74.9296 169.709 74.931C173.91 79.6882 180 87.8761 180 98.463C180 108.539 173.767 116.791 170.299 120.714L153.741 139.476L153.732 139.486C146.468 147.666 137.134 153.64 125.951 153.64C116.613 153.64 104.414 148.826 98.0499 136.414C97.8316 136.322 97.6151 136.228 97.4001 136.131C92.3739 146.369 82.1123 153.686 68.6772 153.686C58.724 153.686 49.5491 149.735 42.1114 142.664L47.8517 136.626C53.8866 142.363 61.0537 145.355 68.6772 145.355C78.977 145.355 86.7486 139.67 90.3216 131.632C91.2371 129.572 91.877 127.358 92.2131 125.045C92.3581 124.047 92.4465 123.031 92.4762 122.001C92.929 122.53 93.3783 123.026 93.827 123.493C95.8404 125.586 97.8431 127.079 100.11 128.2C101.379 128.827 102.732 129.337 104.215 129.77C104.476 130.474 104.76 131.151 105.065 131.801C109.639 141.551 118.943 145.309 125.951 145.309C133.93 145.309 141.175 141.08 147.503 133.954L164.057 115.197C167.267 111.565 171.669 105.313 171.669 98.463C171.669 91.0614 167.358 84.8551 163.461 80.4417L132.875 45.6864C126.75 38.7891 119.765 34.6053 112.088 34.3442C111.929 34.3388 111.77 34.3351 111.61 34.333C111.515 34.3318 111.419 34.3312 111.323 34.3312C97.2452 34.3312 87.8906 45.1807 87.5238 57.2256H77.7566C77.3897 50.6515 74.5008 44.5831 69.8694 40.3076C65.7883 36.5839 60.3773 34.3312 54.0492 34.3312C46.0704 34.3312 38.8252 38.5607 32.4971 45.6864L15.9432 64.4433C12.5958 68.305 8.33121 75.1089 8.33121 82.5565C8.33121 83.0219 8.34769 83.4849 8.37942 83.9448C8.85533 90.843 12.762 97.0493 15.9432 100.67L45.2908 133.954L45.3367 134C46.1506 134.931 46.9896 135.806 47.8517 136.626L42.1114 142.664C41.1257 141.727 40.1727 140.737 39.2535 139.698L39.2111 139.656Z" fill="white"/>
<g clip-path="url(#clip1_124_2)">
<path d="M45.2908 133.908L15.9433 100.624C12.55 96.7619 8.33124 89.958 8.33124 82.5104C8.33124 75.0629 12.5958 68.2589 15.9433 64.3972L32.4971 45.6404C38.8252 38.5146 46.0704 34.2852 54.0493 34.2852C60.3773 34.2852 65.7883 36.5378 69.8694 40.2616C74.5008 44.537 77.3897 50.6054 77.7566 57.1795H87.5238C87.8907 45.1347 97.2452 34.2852 111.323 34.2852C119.302 34.2852 126.547 38.5146 132.875 45.6404L163.461 80.3957C167.358 84.8091 171.669 91.0153 171.669 98.4169C171.669 105.267 167.267 111.519 164.057 115.151L147.503 133.908C141.175 141.034 133.93 145.263 125.951 145.263C118.476 145.263 108.388 140.988 104.215 129.724C99.4921 128.345 96.0988 126.184 92.4762 121.955C92.1094 134.689 82.7548 145.309 68.6772 145.309C59.9646 145.309 51.8482 141.401 45.3367 133.954L45.2908 133.908Z" fill="white"/>
</g>
<g clip-path="url(#clip2_124_2)">
<path d="M45.2908 133.908L15.9433 100.624C12.55 96.7619 8.33124 89.958 8.33124 82.5104C8.33124 75.0629 12.5958 68.2589 15.9433 64.3972L32.4971 45.6404C38.8252 38.5146 46.0704 34.2852 54.0493 34.2852C60.3773 34.2852 65.7883 36.5378 69.8694 40.2616C74.5008 44.537 77.3897 50.6054 77.7566 57.1795H87.5238C87.8907 45.1347 97.2452 34.2852 111.323 34.2852C119.302 34.2852 126.547 38.5146 132.875 45.6404L163.461 80.3957C167.358 84.8091 171.669 91.0153 171.669 98.4169C171.669 105.267 167.267 111.519 164.057 115.151L147.503 133.908C141.175 141.034 133.93 145.263 125.951 145.263C118.476 145.263 108.388 140.988 104.215 129.724C99.4921 128.345 96.0988 126.184 92.4762 121.955C92.1094 134.689 82.7548 145.309 68.6772 145.309C59.9646 145.309 51.8482 141.401 45.3367 133.954L45.2908 133.908ZM21.4001 95.8425L37.9539 114.599C43.0898 120.392 48.4549 123.472 54.0493 123.472C64.1833 123.472 70.6031 115.749 70.6031 107.336C70.6031 102.049 67.3474 99.5663 63.2662 96.716C62.3033 96.0723 61.6154 94.877 61.6154 93.6818C61.6154 91.7049 63.2204 90.0499 65.1463 90.0499C65.9259 90.0499 66.7971 90.3258 67.8518 91.0154C70.97 92.9002 75.0511 97.0378 76.6102 100.624H88.8078C90.4127 97.0837 94.448 92.9002 97.5662 91.0154C98.575 90.3717 99.4463 90.0499 100.272 90.0499C102.243 90.0499 103.803 91.7049 103.803 93.6818C103.803 94.923 103.069 96.0723 102.152 96.716C98.0706 99.5663 94.8149 102.003 94.8149 107.336C94.8149 115.749 101.189 123.472 111.369 123.472C116.963 123.472 122.328 120.438 127.464 114.599L144.018 95.8425C146.723 92.8083 149.796 87.5674 149.796 82.5564C149.796 77.5454 146.678 72.3045 144.018 69.2703L127.464 50.5135C122.328 44.7209 116.963 41.6408 111.369 41.6408C101.235 41.6408 94.8149 49.3642 94.8149 57.7772C94.8149 63.064 98.0706 65.5465 102.152 68.3968C103.115 69.0404 103.803 70.2357 103.803 71.431C103.803 73.4078 102.198 75.0629 100.272 75.0629C99.4921 75.0629 98.6209 74.787 97.5662 74.0974C94.448 72.2126 90.3669 68.075 88.8078 64.4892H76.6102C75.0053 68.029 70.97 72.2126 67.8518 74.0974C66.843 74.741 65.9717 75.0629 65.1463 75.0629C63.1745 75.0629 61.6154 73.4078 61.6154 71.431C61.6154 70.1898 62.3491 69.0404 63.2662 68.3968C67.3474 65.5465 70.6031 63.11 70.6031 57.7772C70.6031 49.3642 64.2292 41.6408 54.0493 41.6408C48.4549 41.6408 43.0898 44.675 37.9539 50.5135L21.4001 69.2703C18.6946 72.3045 15.6223 77.5454 15.6223 82.5564C15.6223 87.5674 18.7405 92.8083 21.4001 95.8425ZM35.2485 61.9147L42.8605 53.4098C44.4654 51.6628 46.8499 51.387 48.3632 52.8121C49.9681 54.0993 49.6471 56.5359 48.3632 58.053L40.7511 66.6958C39.2379 68.3509 36.7617 68.5347 35.2485 67.2015C33.6435 65.8224 33.9645 63.3398 35.2485 61.9147ZM107.333 47.939C107.838 47.7092 108.434 47.6632 108.938 47.5712C111.323 47.4333 113.065 48.9504 113.157 51.2031C113.249 52.8581 112.057 54.4212 110.406 54.743C109.443 54.8809 109.168 55.3866 109.03 56.2601C108.893 57.8691 107.425 59.1104 105.683 59.1563C103.527 59.2483 101.922 57.6392 101.831 55.4326C101.831 51.8927 104.215 48.9504 107.333 47.893V47.939Z" fill="#242327"/>
</g>
</g>
<defs>
<clipPath id="clip0_124_2">
<rect width="180" height="180" fill="white"/>
</clipPath>
<clipPath id="clip1_124_2">
<rect width="163.292" height="110.932" fill="white" transform="translate(8.33124 34.3311)"/>
</clipPath>
<clipPath id="clip2_124_2">
<rect width="163.292" height="110.932" fill="white" transform="translate(8.33124 34.3311)"/>
</clipPath>
</defs>
</svg>
