<svg width="180" height="180" viewBox="0 0 180 180" fill="none" xmlns="http://www.w3.org/2000/svg">
<g clip-path="url(#clip0_125_109)">
<mask id="mask0_125_109" style="mask-type:luminance" maskUnits="userSpaceOnUse" x="0" y="0" width="180" height="180">
<path d="M180 0H0V180H180V0Z" fill="white"/>
</mask>
<g mask="url(#mask0_125_109)">
<path d="M60.6467 60.6467H158.25C158.25 60.6467 158.25 70.1228 158.25 75.8085C158.25 84.0523 151.143 90.4964 143.089 90.4964C135.034 90.4964 90.0226 90.4964 90.0226 90.4964V180.045C90.0226 180.045 80.5465 180.045 74.8608 180.045C69.1752 180.045 60.6467 172.464 60.6467 164.884C60.6467 157.303 60.6467 60.6467 60.6467 60.6467Z" fill="#FF6B6B"/>
<path d="M0 0H180C180 0 180 10.9893 180 24.5454C180 38.1015 169.011 49.0909 155.454 49.0909H1.41204e-05L0 0Z" fill="white"/>
<path d="M49.0909 0V180C49.0909 180 38.1016 180 24.5455 180C10.9894 180 5.92539e-07 169.011 0 155.454L2.93533e-05 0H49.0909Z" fill="white"/>
</g>
</g>
<defs>
<clipPath id="clip0_125_109">
<rect width="180" height="180" fill="white"/>
</clipPath>
</defs>
</svg>
