<svg width="96" height="96" viewBox="0 0 96 96" fill="none" xmlns="http://www.w3.org/2000/svg">
<g clip-path="url(#clip0_8_209)">
<path d="M88.6944 65.1551V8.54874C88.619 3.81227 84.9352 0 80.3118 0H22.6482C10.2058 0.19254 0.206787 10.6282 0.206787 23.4128C0.206787 27.7256 1.3345 31.4224 3.06365 34.6571C4.52966 37.3526 6.82267 39.8941 9.07808 41.7811C9.71711 42.32 9.41642 42.0891 11.3711 43.3214C14.0776 45.0155 17.16 45.8627 17.16 45.8627L17.1224 79.7111C17.1976 81.3285 17.3479 82.8688 17.7614 84.2936C19.0395 89.0687 22.2722 92.7269 26.6703 94.4981C28.5123 95.2299 30.5797 95.7304 32.7976 95.7691L78.8456 95.9229C88.0175 95.9229 95.4604 88.2986 95.4604 78.8639C95.4979 73.2803 92.7917 68.2744 88.6944 65.1551Z" fill="#FFEEDA"/>
<path d="M89.8212 79.2877C89.6334 85.3334 84.7842 90.1852 78.8449 90.1852L47.1565 90.0697C49.6748 87.0663 51.2159 83.1768 51.2159 78.941C51.2159 72.2793 47.3443 67.6968 47.3443 67.6968H78.8824C84.9345 67.6968 89.8587 72.7411 89.8587 78.941L89.8212 79.2877Z" fill="#EBC28E"/>
<path d="M12.0853 37.0063C8.43904 33.4635 5.88291 28.8811 5.88291 23.4515V22.8739C6.18364 13.5935 13.6265 6.12295 22.6858 5.8534H80.3493C81.8529 5.93042 83.0558 7.00866 83.0558 8.58745V58.5705C84.3712 58.8018 85.0102 58.9944 86.2885 59.4565C87.3036 59.8416 88.6944 60.6501 88.6944 60.6501V8.58745C88.619 3.85099 84.9352 0.0387344 80.3118 0.0387344H22.6482C10.2058 0.23127 0.206787 10.6669 0.206787 23.4515C0.206787 30.8835 3.51473 37.2373 8.92771 41.704C9.30363 42.0124 9.64193 42.3975 10.6193 42.3975C12.3109 42.3975 13.5137 41.011 13.4386 39.5093C13.4009 38.2385 12.8747 37.7764 12.0853 37.0063Z" fill="#101010"/>
<path d="M78.8453 61.8436H33.6244C30.5796 61.882 28.1362 64.3854 28.1362 67.5043V74.1659C28.2114 77.2469 30.7676 79.8653 33.8124 79.8653H37.1578V74.1659H33.8124V67.6585C33.8124 67.6585 34.6393 67.6585 35.6543 67.6585C41.368 67.6585 45.5783 73.0878 45.5783 78.9026C45.5783 84.0628 40.9921 90.6473 33.3236 90.1085C26.5198 89.6463 22.836 83.4464 22.836 78.9026V22.4501C22.836 19.9086 20.8061 17.8292 18.3252 17.8292H13.8143V23.6054H17.1599V78.941C16.9719 90.1856 24.9786 95.8462 33.3236 95.8462L78.8832 96C88.0551 96 95.498 88.3757 95.498 78.941C95.498 69.5067 88.0176 61.8436 78.8453 61.8436ZM89.8216 79.2877C89.6338 85.3334 84.7846 90.1856 78.8453 90.1856L47.1569 90.0697C49.6756 87.0663 51.2168 83.1768 51.2168 78.941C51.2168 72.2793 47.3447 67.6968 47.3447 67.6968H78.8832C84.9349 67.6968 89.8595 72.7415 89.8595 78.941L89.8216 79.2877Z" fill="#101010"/>
<path d="M66.6653 24.6458H32.571V18.8697H66.6653C68.2065 18.8697 69.4848 20.1404 69.4848 21.7578C69.4848 23.3366 68.2444 24.6458 66.6653 24.6458Z" fill="#101010"/>
<path d="M66.6653 51.8313H32.571V46.0548H66.6653C68.2065 46.0548 69.4848 47.3259 69.4848 48.9433C69.4848 50.5219 68.2444 51.8313 66.6653 51.8313Z" fill="#101010"/>
<path d="M72.68 38.2385H32.571V32.4623H72.6421C74.1836 32.4623 75.4615 33.7331 75.4615 35.3504C75.499 36.9292 74.2211 38.2385 72.68 38.2385Z" fill="#101010"/>
</g>
<defs>
<clipPath id="clip0_8_209">
<rect width="96" height="96" fill="white"/>
</clipPath>
</defs>
</svg>
