<svg width="180" height="180" viewBox="0 0 180 180" fill="none" xmlns="http://www.w3.org/2000/svg">
<g clip-path="url(#clip0_125_63)">
<path d="M34.1584 106.326C34.0355 106.326 33.9126 106.331 33.7902 106.343C32.6834 106.447 32.3734 106.823 32.3734 107.984C32.3734 128.65 32.3783 149.322 32.388 170C32.388 172.536 30.5406 174.878 27.578 174.847C19.9575 174.764 12.3348 174.787 4.71422 174.834C1.71217 174.853 0.0145525 173.087 0.0124721 170.156C0.00415039 149.17 0.0103917 128.185 0.0311959 107.2C0.0311959 104.242 1.30857 102.821 4.42504 102.794C10.6892 102.74 16.9533 102.794 23.2175 102.767C24.5281 102.789 25.8064 102.359 26.8374 101.55C28.0732 100.576 28.379 99.205 28.3936 97.8048C28.4476 92.7578 28.4476 87.7113 28.3936 82.6656C28.4004 82.0344 28.2802 81.4083 28.0399 80.8246C27.7996 80.2409 27.4442 79.7115 26.995 79.2681C26.5457 78.8247 26.0118 78.4762 25.425 78.2436C24.8382 78.0109 24.2105 77.8988 23.5795 77.914C17.8396 77.9847 12.0956 77.9472 6.35359 77.9264C5.25056 77.938 4.14843 77.8594 3.05821 77.6914C1.77043 77.4833 0.769745 76.7739 0.422315 75.4195C0.232997 74.6643 0.0249546 73.8863 0.0228742 73.1186C-0.00209087 63.3739 -0.00209087 53.6292 0.0228742 43.8845C0.0228742 42.5198 0.147699 41.0843 1.36891 40.1668C1.91398 39.7507 2.61716 39.3804 3.27873 39.3347C5.55471 39.1724 7.84109 39.1266 10.1254 39.0996C13.1524 39.0642 16.1794 39.1141 19.2085 39.0808C20.8728 39.0621 22.5247 38.9976 24.1765 38.8728C25.4851 38.7688 26.49 37.9657 27.4886 37.1939C28.7056 36.2536 29.9143 35.3049 31.1418 34.3791C32.4961 33.3576 32.7853 31.9055 32.7874 30.3493C32.7957 23.459 32.7957 16.5686 32.7874 9.67827C32.7874 7.74556 34.2146 6.31839 36.1743 6.31631H56.4272C96.3713 6.24974 139.195 6.07914 179.172 6.01465C179.279 6.01438 179.386 6.03527 179.485 6.07613C179.584 6.11699 179.674 6.17702 179.75 6.25278C179.826 6.32853 179.886 6.41853 179.927 6.51761C179.968 6.61669 179.99 6.7229 179.99 6.83018V8.87315C179.989 9.08927 179.903 9.29638 179.75 9.4492C179.597 9.60203 179.39 9.68812 179.174 9.68867H156.828C155.988 9.68197 155.155 9.84427 154.379 10.1659C153.603 10.4876 152.899 10.962 152.31 11.561C145.6 18.2746 138.901 25.0089 132.146 31.687C130.139 33.6738 127.985 35.515 125.851 37.3687C124.426 38.6065 122.657 39.0725 120.818 39.0746C99.3789 39.0954 77.9408 39.103 56.5042 39.0975C50.1839 39.0975 43.8636 39.1932 37.5432 39.318C35.7957 39.3534 34.0065 39.5781 33.0766 41.4255C32.8249 41.9248 32.7271 42.5052 32.5898 43.0544C32.5658 43.2618 32.5658 43.4712 32.5898 43.6786L32.3817 66.0847C32.3588 68.1651 30.3845 69.9876 28.1585 69.9896C21.2328 69.9896 14.307 69.9896 7.38132 70.0021C6.76689 70.008 6.15473 70.0777 5.55471 70.2102C4.40424 70.4577 3.74058 71.1734 3.77595 72.0368C3.81505 72.5857 4.05068 73.1022 4.43965 73.4916C4.82862 73.881 5.34489 74.1171 5.89382 74.1567C6.2038 74.1858 6.51794 74.1567 6.83417 74.1567L164.193 74.1234C166.498 74.0943 168.587 76.2226 168.562 78.4465C168.481 86.3813 168.531 94.316 168.531 102.251C168.531 104.666 166.866 106.314 164.451 106.314L34.1584 106.326Z" fill="white"/>
</g>
<defs>
<clipPath id="clip0_125_63">
<rect width="180" height="168.847" fill="white" transform="translate(0 6)"/>
</clipPath>
</defs>
</svg>
