<svg width="152" height="153" viewBox="0 0 152 153" fill="none" xmlns="http://www.w3.org/2000/svg">
<path d="M151.038 66.943C148.61 65.1045 146.083 63.4 143.469 61.8372C142.356 61.137 141.324 60.315 140.393 59.3865C138.44 57.4462 135.172 54.0765 134.113 51.996C133.436 50.7195 133.717 48.2687 134.241 45.9967C135.167 41.9895 134.474 37.7787 132.313 34.2792L128.905 28.7522C127.34 26.2297 126.081 23.5305 125.152 20.7107C123.984 17.0845 121.941 13.8012 119.204 11.1505C113.677 5.75099 98.3857 3.09624 85.6852 2.67499C84.8975 2.43974 84.096 2.25224 83.2857 2.11324C77.631 1.14324 71.5935 -0.439514 66.1815 0.594236C58.14 2.10049 50.022 4.61499 43.946 10.8057C42.6697 12.0822 40.819 12.6565 39.5042 13.8437C36.9512 16.205 33.3645 16.205 31.0415 18.8217C29.6885 20.3407 29.063 25.3315 25.5017 27.2332C19.6047 30.386 15.2905 33.8707 13.8225 35.645C12.7375 36.9852 11.908 38.5425 10.8485 39.9082C9.78899 41.274 4.70874 43.6737 3.18999 45.1545C2.06274 46.4032 1.24474 47.8995 0.801241 49.5222C0.357991 51.145 0.301742 52.8492 0.636992 54.4977C0.726492 54.8935 0.790242 55.2125 0.841242 55.468C1.42849 57.6377 2.99849 61.5565 2.64099 63.3562C2.20699 65.4877 -3.26876 81.3665 9.02299 85.5915C10.1477 85.928 11.1345 86.6172 11.8377 87.5572C12.541 88.4972 12.9235 89.6382 12.929 90.8122C13.1945 92.9315 13.8067 94.993 14.7417 96.9135C15.5585 98.4695 16.763 99.7885 18.239 100.743C19.813 102.239 21.3002 103.825 22.6937 105.491C27.0335 113.52 25.8082 117.54 34.1815 120.259C36.3182 120.964 38.369 121.906 40.2955 123.067C42.6437 124.484 45.1612 125.599 47.7882 126.386L48.12 126.501C49.958 122.033 51.8345 117.808 53.698 113.813C38.7382 98.4962 42.6697 81.2772 44.112 76.682C44.1537 76.5457 44.229 76.422 44.3305 76.3222C44.432 76.2222 44.557 76.1495 44.694 76.1102C44.831 76.0707 44.9755 76.0662 45.1147 76.0972C45.2537 76.128 45.383 76.193 45.4907 76.2865C48.6307 79.0435 58.255 88.9612 57.0677 106.92C60.361 100.321 63.5775 94.5265 66.5135 89.574C62.9797 83.7695 61.0927 77.1127 61.0545 70.3172C61.0162 63.522 62.8282 56.8442 66.2962 51.0005C66.373 50.8762 66.4802 50.774 66.6075 50.703C66.7347 50.632 66.8782 50.5947 67.024 50.5947C67.1697 50.5947 67.3132 50.632 67.4405 50.703C67.5677 50.774 67.6747 50.8762 67.7515 51.0005C69.9597 54.268 75.9335 65.041 72.2317 80.3582C74.9122 76.248 77.095 73.2102 78.5245 71.3082C82.354 45.7797 101.653 37.4065 106.721 35.6322C106.857 35.584 107.003 35.5712 107.145 35.5945C107.287 35.618 107.421 35.677 107.535 35.7662C107.648 35.8555 107.737 35.9717 107.793 36.1045C107.85 36.2375 107.871 36.3822 107.857 36.5257C107.051 44.3002 104.206 51.7237 99.6087 58.0447C95.0115 64.3657 88.8255 69.3597 81.6772 72.521C78.984 76.0567 76.393 79.7837 73.9167 83.6002C82.4687 76.9245 94.4417 73.7847 104.398 76.197C104.537 76.229 104.667 76.295 104.774 76.3892C104.882 76.4832 104.965 76.6027 105.016 76.7367C105.066 76.8705 105.083 77.015 105.064 77.1567C105.045 77.2987 104.992 77.434 104.908 77.55C102.049 81.3792 90.6632 94.1435 69.1682 91.195C65.5432 97.3092 62.2245 103.487 59.276 109.41C68.5427 102.402 82.073 99.7215 92.5652 103.244C92.7055 103.289 92.832 103.369 92.9335 103.476C93.035 103.582 93.108 103.713 93.1462 103.855C93.1842 103.997 93.186 104.147 93.1515 104.29C93.117 104.433 93.047 104.565 92.9482 104.674C89.6932 108.184 77.146 119.698 56.5062 115.128C54.566 119.213 51.6812 125.939 50.2772 129.258C49.7922 130.407 49.3455 131.556 49.0007 132.73C48.0817 135.436 46.8562 138.818 45.3885 142.188C45.1845 142.67 45.0815 143.188 45.086 143.712C45.0902 144.235 45.2017 144.751 45.4135 145.23C45.625 145.708 45.9325 146.138 46.3167 146.493C46.701 146.848 47.154 147.121 47.6477 147.294C63.9272 153.112 81.6052 153.767 98.271 149.17C98.8215 149.013 99.33 148.734 99.7585 148.354C100.187 147.974 100.525 147.503 100.747 146.975L101.436 145.366C101.436 145.366 108.635 128.658 109.695 121.37C109.997 119.074 110.711 116.852 111.801 114.809C112.363 113.787 113.175 112.925 114.162 112.304C115.149 111.683 116.278 111.324 117.443 111.26C122.931 110.967 134.611 110.201 138.861 108.848C144.503 107.061 142.052 96.773 141.759 95.6625C141.465 94.552 144.477 91.9737 145.09 90.4802C145.703 88.9867 143.571 88.4507 142.69 86.8042C141.81 85.1575 144.873 83.9577 145.243 82.4642C145.613 80.9707 144.248 79.3242 143.661 78.2137C143.27 77.4072 143.003 76.5467 142.869 75.661C142.869 75.661 146.992 72.6357 149.251 70.734C151.51 68.832 151.038 67.2492 151.038 66.9047" fill="black"/>
</svg>
