<svg width="180" height="180" viewBox="0 0 180 180" fill="none" xmlns="http://www.w3.org/2000/svg">
<path opacity="0.5" d="M146.629 20H160.787C163.02 20 164.831 21.811 164.831 24.0449V62.4719C164.831 64.7059 163.02 66.5169 160.787 66.5169H146.629V20Z" fill="white"/>
<rect x="46.5168" y="66.5168" width="46.5169" height="46.5169" rx="4.04494" fill="white"/>
<rect y="113.034" width="46.5169" height="46.5169" rx="4.04494" fill="white"/>
<rect x="93.0337" y="113.034" width="46.5169" height="46.5169" rx="4.04494" fill="white"/>
<path opacity="0.5" d="M146.629 113.034H160.787C163.02 113.034 164.831 114.845 164.831 117.079V155.506C164.831 157.74 163.02 159.551 160.787 159.551H146.629V113.034Z" fill="white"/>
<path opacity="0.3" d="M170.899 113.034H175.955C178.189 113.034 180 114.845 180 117.079V155.506C180 157.74 178.189 159.551 175.955 159.551H170.899V113.034Z" fill="white"/>
<rect y="20" width="46.5169" height="46.5169" rx="4.04494" fill="white"/>
<rect x="93.0337" y="20" width="46.5169" height="46.5169" rx="4.04494" fill="white"/>
<path opacity="0.3" d="M170.899 20H175.955C178.189 20 180 21.811 180 24.0449V62.4719C180 64.7059 178.189 66.5169 175.955 66.5169H170.899V20Z" fill="white"/>
</svg>
