<svg width="180" height="180" viewBox="0 0 180 180" fill="none" xmlns="http://www.w3.org/2000/svg">
<g clip-path="url(#clip0_72_157)">
<path d="M80.5848 0H34.8502C33.2761 0 32 1.27602 32 2.84998V48.5845C32 50.1586 33.2761 51.4345 34.8502 51.4345H80.5848C82.1589 51.4345 83.4348 50.1586 83.4348 48.5845V2.84998C83.4348 1.27602 82.1589 0 80.5848 0Z" fill="white"/>
<path d="M32.0183 131.411V177.145C32.0183 178.719 33.294 179.995 34.868 179.995H80.6027C82.1767 179.995 83.4526 178.719 83.4526 177.145V131.411C83.4526 129.837 82.1767 128.561 80.6027 128.561H34.868C33.294 128.561 32.0183 129.837 32.0183 131.411Z" fill="white"/>
<path d="M32 67.1378V112.872C32 114.447 33.2761 115.722 34.8502 115.722H80.5848C82.1589 115.722 83.4348 114.447 83.4348 112.872V67.1378C83.4348 65.5638 82.1589 64.2878 80.5848 64.2878H34.8502C33.2761 64.2878 32 65.5638 32 67.1378Z" fill="white"/>
<path d="M96.2878 131.415V177.15C96.2878 178.724 97.5638 180 99.1378 180H144.872C146.447 180 147.722 178.724 147.722 177.15V131.415C147.722 129.841 146.447 128.565 144.872 128.565H99.1378C97.5638 128.565 96.2878 129.841 96.2878 131.415Z" fill="white"/>
<path d="M96.2878 67.1229V112.858C96.2878 114.432 97.5638 115.708 99.1378 115.708H144.872C146.447 115.708 147.722 114.432 147.722 112.858V67.1229C147.722 65.5489 146.447 64.2729 144.872 64.2729H99.1378C97.5638 64.2729 96.2878 65.5489 96.2878 67.1229Z" fill="white"/>
</g>
<defs>
<clipPath id="clip0_72_157">
<rect width="180" height="180" fill="white"/>
</clipPath>
</defs>
</svg>
