<svg width="28" height="26" viewBox="0 0 28 26" fill="none" xmlns="http://www.w3.org/2000/svg">
<path d="M26.931 20.8367L22.2171 14.4323C21.705 13.7364 20.9468 13.3195 20.1392 13.2276C19.9554 13.2063 19.7913 13.0996 19.6994 12.9387C19.6058 12.7779 19.5959 12.5826 19.6698 12.4119C19.9931 11.6667 20.0128 10.8017 19.6649 10.0106L16.4758 2.72645C16.0031 1.64482 14.9346 0.947266 13.7545 0.947266C12.5744 0.947266 11.5059 1.64647 11.0332 2.72645L7.84412 10.0106C7.49781 10.8017 7.51586 11.6667 7.8392 12.4119C7.91306 12.5826 7.90157 12.7779 7.80966 12.9387C7.7161 13.0996 7.55361 13.2063 7.36978 13.2276C6.56225 13.3195 5.80397 13.7364 5.29188 14.4323L0.57802 20.8367C-0.12118 21.7871 -0.191758 23.0607 0.397475 24.0833C0.988348 25.1042 2.12742 25.6803 3.29932 25.5506L11.2023 24.6709C12.0607 24.5757 12.8009 24.1276 13.2834 23.4743C13.3934 23.325 13.569 23.2363 13.7545 23.2363C13.94 23.2363 14.114 23.325 14.2256 23.4743C14.7081 24.1276 15.4483 24.5757 16.3068 24.6709L24.2097 25.5506C25.3816 25.6819 26.5207 25.1058 27.1115 24.0833C27.7008 23.0607 27.6302 21.7871 26.931 20.8367ZM9.90562 10.9248L13.0996 3.63246C13.2145 3.37149 13.4722 3.20243 13.7561 3.20243C14.0401 3.20243 14.2978 3.37149 14.4127 3.63246L17.6067 10.9248C17.7068 11.1546 17.6855 11.4205 17.5476 11.6306C17.4097 11.8407 17.1766 11.9671 16.9239 11.9671H10.5868C10.3356 11.9671 10.1009 11.8407 9.96306 11.6306C9.82519 11.4205 9.80385 11.1546 9.90397 10.9248H9.90562ZM11.5453 22.0267C11.432 22.2516 11.2121 22.4026 10.9626 22.4305L3.05148 23.3102C2.76917 23.3414 2.49343 23.2035 2.35064 22.9573C2.20784 22.7111 2.2259 22.4042 2.39495 22.1744L7.11374 15.7634C7.2631 15.5615 7.50273 15.4467 7.75385 15.4614C8.00498 15.4746 8.23148 15.6141 8.35786 15.8324L8.36278 15.8406L11.5223 21.3127L11.5272 21.3209C11.6536 21.5392 11.6602 21.8051 11.5469 22.0283L11.5453 22.0267ZM14.4045 19.5516C14.2699 19.783 14.0237 19.9274 13.7545 19.9274C13.487 19.9274 13.2391 19.7847 13.1045 19.5532L10.677 15.3498C10.5424 15.1184 10.5424 14.8312 10.677 14.5997C10.8116 14.3683 11.0578 14.2239 11.327 14.2239H16.1804C16.4479 14.2239 16.6957 14.365 16.8303 14.5981C16.9649 14.8312 16.9649 15.1167 16.8303 15.3482L14.4045 19.5516ZM25.16 22.9573C25.0172 23.2035 24.7431 23.343 24.4592 23.3118L16.548 22.4321C16.2985 22.4042 16.0786 22.2532 15.9654 22.0283C15.8521 21.8035 15.8587 21.5376 15.9851 21.3209L15.99 21.3127L19.1495 15.8406L19.1544 15.8324C19.2808 15.6141 19.5073 15.4746 19.7584 15.4614C20.0096 15.4483 20.2492 15.5615 20.3986 15.7634L25.1173 22.1744C25.2864 22.4042 25.3028 22.7111 25.1617 22.9573H25.16Z" fill="white"/>
</svg>
