<svg width="134" height="40" viewBox="0 0 134 40" fill="none" xmlns="http://www.w3.org/2000/svg">
<path d="M71.4114 20C71.4114 28.2842 65.0152 35 57.1254 35C49.2355 35 42.8394 28.2842 42.8394 20C42.8394 11.7157 49.2355 5 57.1254 5C65.0152 5 71.4114 11.7157 71.4114 20Z" fill="#18181B"/>
<path d="M28.8019 5L22.9877 22.1712V27.2093H21.0814V22.1712L15.2672 5H5.89233V35H12.188V20.0507L9.67235 11.5226L11.4639 10.8539L19.6399 34.9992H24.4294L32.6051 10.8539L34.3967 11.5226L31.8811 20.0507V35H38.1767V5H28.8019ZM97.975 8.41078C96.4412 7.21056 94.6454 6.34204 92.5879 5.80522C90.5299 5.26841 88.3569 5 86.07 5H76.6269V35H86.9183C89.0433 35 91.0744 34.6752 93.0114 34.0255C94.9481 33.3757 96.6569 32.4227 98.1364 31.1652C99.6156 29.9086 100.793 28.3546 101.667 26.5047C102.541 24.6547 102.978 22.5153 102.978 20.085C102.978 17.3453 102.527 15.015 101.627 13.0934C100.725 11.1726 99.5087 9.61176 97.975 8.41078ZM95.6548 24.0462C95.1304 25.2191 94.41 26.1646 93.4958 26.8853C92.5806 27.6058 91.4985 28.1212 90.2474 28.4324C88.9968 28.7435 87.6453 28.8983 86.192 28.8983H82.9232V11.1017H86.6364C87.9539 11.1017 89.2117 11.2786 90.4092 11.6317C91.606 11.9855 92.6489 12.5147 93.5371 13.2207C94.4245 13.9269 95.1311 14.8244 95.6555 15.9117C96.1805 16.9991 96.4427 18.2778 96.4427 19.7465C96.4427 21.4416 96.1805 22.8751 95.6555 24.0479L95.6548 24.0462ZM113.793 28.8983V22.7966H126.184V16.6947H113.793V11.1017H127.635V5H107.498V35H127.635V28.8983H113.793Z" fill="#18181B"/>
</svg>
