<svg width="97" height="42" viewBox="0 0 97 42" fill="none" xmlns="http://www.w3.org/2000/svg">
<path d="M6.43941 17.7944C5.81242 18.0346 5.81242 18.5415 5.36386 18.8699L5.4822 18.9317C5.7223 18.6916 6.49937 18.363 6.49937 18.0028C6.49937 17.9445 6.46933 17.8545 6.43941 17.7944ZM6.26098 16.5389C6.31924 16.4806 6.34929 16.3888 6.34929 16.3006C6.34929 16.1222 6.26098 15.942 6.26098 15.7337C5.84246 14.925 5.60225 13.9996 5.06539 13.2227C4.70513 13.1326 4.94534 12.8342 4.6769 12.714C4.55674 12.2073 4.25827 11.817 3.86798 11.5186C3.77967 11.3102 3.48131 10.8017 3.27114 10.7134V10.8616C3.45127 10.98 3.51124 11.1619 3.60136 11.3102C4.37843 12.564 5.27374 13.7913 5.75234 15.1951C5.90072 15.7337 6.1992 16.3888 6.1992 16.9574C6.1992 17.1976 6.17097 17.406 6.05081 17.6161C6.05081 17.6744 6.11089 17.7362 6.17097 17.7044C6.31925 17.526 6.34929 17.3176 6.34929 17.0776C6.34929 16.8991 6.31924 16.719 6.26098 16.5389ZM3.12094 10.5032L3.06268 10.5332L3.12094 10.5633V10.5032ZM2.79254 9.75628C2.49407 9.57786 2.58407 9.30772 2.19559 9.00925C2.16555 8.97932 2.19559 8.91924 2.19559 8.85916C2.19559 8.76915 2.07555 8.76915 2.01717 8.76915V8.8892C2.01717 9.33776 2.52411 9.72624 2.73428 10.1448C2.88436 10.2047 2.73428 10.3531 3.03264 10.3531C3.03264 10.1448 2.85251 9.96464 2.79254 9.75628ZM3.98814 4.34737C3.83975 4.34737 3.30107 4.55584 3.18284 4.67588C2.37391 4.91428 1.59865 6.05149 1.59865 6.88672C1.59865 7.51541 1.86708 8.11224 1.95539 8.73911C2.22563 9.15763 2.37391 9.57786 2.79254 9.90456H2.85251C2.70242 9.30772 2.25568 8.76915 2.25568 8.14228C2.07555 7.93393 1.89712 7.60371 1.89712 7.33528C1.89712 6.82664 2.13733 6.34985 2.34568 5.93145C2.70242 5.6612 2.70242 5.27272 3.03264 5.00428L3.36115 4.94432C3.5695 4.73596 3.98814 4.55584 4.10818 4.34737H3.98814ZM7.54669 5.81128C7.45657 5.81128 7.36475 5.75302 7.36475 5.63297C6.70954 4.94432 6.1992 4.31744 5.15369 4.31744C4.37843 4.31744 3.80971 4.82416 3.12094 5.0944C2.58407 5.6612 2.07555 6.40823 2.07555 7.24516C2.07555 7.63364 2.19559 7.99219 2.40395 8.29237C2.49407 8.91924 2.94263 9.45781 2.97267 10.0847C3.09272 10.1748 3.60136 10.7716 3.68966 10.9217C3.98814 11.4903 4.01818 11.3402 4.5267 11.7588C5.15369 12.2955 4.94534 13.2826 5.75234 13.9696C6.08085 14.6866 6.70954 15.4053 6.70954 16.2105C6.70954 16.3888 6.64776 16.5389 6.64776 16.719C6.64776 17.0475 6.76781 17.3759 6.76781 17.7044C6.76781 17.8846 6.73777 18.0647 6.64776 18.1847C5.4822 18.8999 5.2437 19.2001 3.75144 19.2001C2.25567 19.2001 1.98724 17.9445 1 17.2276V17.1676C1 17.0776 1.12005 16.9874 1.12005 16.8692C1.12005 16.8073 1.06008 16.749 1 16.749L1.06008 16.659C1.38848 16.8692 1.56861 17.2276 1.86708 17.4961H2.07555C2.46584 18.3931 2.82258 18.8999 3.92987 18.8999C4.40666 18.8999 4.85522 18.7816 5.27374 18.5714C5.96251 18.273 5.69237 17.8545 5.96251 17.3176V17.1075C6.05081 15.4936 3.53958 11.8471 2.34568 10.6516C2.1956 10.2631 1.77707 9.99638 1.71881 9.57786C1.50864 9.21771 1.38848 9.00925 1.38848 8.5608C1.38848 7.93393 1.23839 7.2752 1.23839 6.61829C1.44856 6.25985 1.4786 5.81129 1.77707 5.51293C2.73428 4.58758 3.53958 3.98893 4.97526 3.98893C5.75234 3.98893 7.69497 4.58758 7.69497 5.6612C7.69497 5.72128 7.60496 5.81128 7.54669 5.81128Z" fill="#0B0B0A"/>
<path d="M6.43941 17.7944C5.81242 18.0346 5.81242 18.5415 5.36386 18.8699L5.4822 18.9317C5.7223 18.6916 6.49937 18.363 6.49937 18.0028C6.49937 17.9445 6.46933 17.8545 6.43941 17.7944ZM6.26098 16.5389C6.31925 16.4806 6.34929 16.3888 6.34929 16.3006C6.34929 16.1222 6.26098 15.942 6.26098 15.7337C5.84246 14.925 5.60225 13.9996 5.06539 13.2227C4.70513 13.1326 4.94534 12.8342 4.6769 12.714C4.55674 12.2073 4.25827 11.817 3.86798 11.5186C3.77967 11.3102 3.48131 10.8017 3.27114 10.7134V10.8616C3.45127 10.98 3.51124 11.1619 3.60136 11.3102C4.37843 12.564 5.27374 13.7913 5.75234 15.1951C5.90072 15.7337 6.1992 16.3888 6.1992 16.9574C6.1992 17.1976 6.17097 17.406 6.05081 17.6161C6.05081 17.6744 6.11089 17.7362 6.17097 17.7044C6.31925 17.526 6.34929 17.3176 6.34929 17.0776C6.34929 16.8991 6.31925 16.719 6.26098 16.5389ZM3.12094 10.5032L3.06268 10.5332L3.12094 10.5633V10.5032ZM2.79254 9.75628C2.49407 9.57786 2.58407 9.30772 2.19559 9.00925C2.16555 8.97932 2.19559 8.91924 2.19559 8.85916C2.19559 8.76915 2.07555 8.76915 2.01717 8.76915V8.8892C2.01717 9.33776 2.52411 9.72624 2.73428 10.1448C2.88436 10.2047 2.73428 10.3531 3.03264 10.3531C3.03264 10.1448 2.85251 9.96464 2.79254 9.75628ZM3.98814 4.34737C3.83975 4.34737 3.30107 4.55584 3.18284 4.67588C2.37391 4.91428 1.59865 6.05149 1.59865 6.88672C1.59865 7.51541 1.86708 8.11224 1.95539 8.73911C2.22563 9.15763 2.37391 9.57786 2.79254 9.90456H2.85251C2.70242 9.30772 2.25568 8.76915 2.25568 8.14228C2.07555 7.93393 1.89712 7.60371 1.89712 7.33528C1.89712 6.82664 2.13733 6.34985 2.34568 5.93145C2.70242 5.6612 2.70242 5.27272 3.03264 5.00428L3.36115 4.94432C3.5695 4.73596 3.98814 4.55584 4.10818 4.34737H3.98814ZM7.54669 5.81128C7.45657 5.81128 7.36475 5.75302 7.36475 5.63297C6.70954 4.94432 6.1992 4.31744 5.15369 4.31744C4.37843 4.31744 3.80971 4.82416 3.12094 5.0944C2.58407 5.6612 2.07555 6.40823 2.07555 7.24516C2.07555 7.63364 2.19559 7.99219 2.40395 8.29237C2.49407 8.91924 2.94263 9.45781 2.97267 10.0847C3.09272 10.1748 3.60136 10.7716 3.68966 10.9217C3.98814 11.4903 4.01818 11.3402 4.5267 11.7588C5.15369 12.2955 4.94534 13.2826 5.75234 13.9696C6.08085 14.6866 6.70954 15.4053 6.70954 16.2105C6.70954 16.3888 6.64776 16.5389 6.64776 16.719C6.64776 17.0475 6.76781 17.3759 6.76781 17.7044C6.76781 17.8846 6.73777 18.0647 6.64776 18.1847C5.4822 18.8999 5.2437 19.2001 3.75144 19.2001C2.25567 19.2001 1.98724 17.9445 1 17.2276V17.1676C1 17.0776 1.12005 16.9874 1.12005 16.8692C1.12005 16.8073 1.06008 16.749 1 16.749L1.06008 16.659C1.38848 16.8692 1.56861 17.2276 1.86708 17.4961H2.07555C2.46584 18.3931 2.82258 18.8999 3.92987 18.8999C4.40666 18.8999 4.85522 18.7816 5.27374 18.5714C5.96251 18.273 5.69237 17.8545 5.96251 17.3176V17.1075C6.05081 15.4936 3.53958 11.8471 2.34568 10.6516C2.1956 10.2631 1.77707 9.99638 1.71881 9.57786C1.50864 9.21771 1.38848 9.00925 1.38848 8.5608C1.38848 7.93393 1.23839 7.2752 1.23839 6.61829C1.44856 6.25985 1.4786 5.81129 1.77707 5.51293C2.73428 4.58758 3.53958 3.98893 4.97526 3.98893C5.75234 3.98893 7.69497 4.58758 7.69497 5.6612C7.69497 5.72128 7.60496 5.81128 7.54669 5.81128Z" stroke="#0B0B0A" stroke-width="0.849765" stroke-miterlimit="10"/>
<path d="M16.6971 16.4203C16.2785 16.7487 15.7117 16.9288 15.3832 17.3774H15.6216C16.0401 17.0472 16.577 16.9589 16.8472 16.4803L16.6971 16.4203ZM13.1421 17.2572C12.3049 14.9264 12.245 11.2816 12.0048 8.77053C11.9146 7.93349 11.8564 7.00825 11.5862 6.19944C11.528 5.96104 11.4661 5.63264 11.3478 5.39425C11.2577 5.48256 11.2878 5.63264 11.2577 5.75269C11.4961 8.32197 11.4661 10.9214 11.6762 13.5207C11.7063 13.8209 11.6462 13.5207 11.6462 13.8492C11.6462 14.0893 11.7664 14.2094 11.7664 14.4478C11.7664 14.5078 11.7964 14.5679 11.8564 14.5978C11.9447 15.1065 12.5134 17.3774 13.1102 17.3774C13.1703 17.3774 13.1703 17.3455 13.1703 17.2873L13.1421 17.2572ZM18.7898 15.1965C18.5815 15.8816 17.8627 16.2419 17.5942 16.8688C17.6243 17.2572 17.6243 17.6158 17.6243 18.0043C17.6243 18.7212 17.5942 19.4398 17.5041 20.1869C17.4442 20.7236 17.5943 21.6208 16.9956 21.9191C16.8773 21.7708 16.8172 21.5889 16.8172 21.4106C16.7871 20.0968 16.8472 18.7512 16.8472 17.4073H16.7571C16.4586 17.4073 15.7117 18.0043 14.7844 18.0043C14.1876 18.0043 13.5888 17.8559 12.992 17.7641C12.6935 17.4073 12.245 17.4657 11.9765 17.0188C11.4078 16.1218 11.528 14.6862 11.3178 13.6708C11.3778 13.6125 11.3778 13.5825 11.3778 13.5207C11.3778 13.4024 11.3478 13.3124 11.3178 13.2222C11.1394 12.9838 11.2295 12.6837 11.1676 12.4171C11.2295 12.3853 11.2295 12.3553 11.2295 12.297C11.2295 12.2069 11.1676 12.1186 11.1676 12.0268L11.2295 11.8785C11.1394 11.0414 11.0476 8.14195 10.8392 7.63513C11.0476 7.57505 10.8992 7.30661 11.0476 7.21661C10.9893 6.9764 10.9292 6.70808 10.9292 6.43964C10.9292 6.28956 10.9593 6.14117 10.9893 5.99108C10.9893 5.8427 10.8992 5.69261 10.8992 5.51248C10.8992 5.33247 11.0193 5.034 11.2577 5.034C13.1102 5.034 12.1548 16.3002 14.0975 17.4657C15.143 17.3774 15.9218 16.5704 16.8172 16.0918L16.9055 15.8816C16.9055 15.1648 16.8773 14.4478 16.7571 13.7609C16.8172 13.6125 16.8172 13.4925 16.8172 13.3424C16.8172 12.6837 16.6389 12.0268 16.6389 11.3399C16.6389 9.876 16.9956 8.14195 16.9372 6.82631C17.0556 6.43965 16.9956 6.02112 16.9956 5.63264C16.9956 5.45252 16.9956 5.27409 17.0874 5.09408H17.4141C17.3859 5.24416 17.5642 5.21412 17.5642 5.33247C17.5642 6.61796 17.4141 7.90356 17.4141 9.21909C17.4141 9.66765 17.4442 10.1144 17.4442 10.5929C17.4442 11.7884 17.7143 12.9838 17.7143 14.2094C17.7143 14.5379 17.7426 14.8663 17.8044 15.1965C18.5515 14.9864 18.4896 13.8492 19.2684 13.8492C19.3267 13.911 19.3568 13.9993 19.3568 14.0593C19.3568 14.4778 18.7298 14.8362 18.7898 15.1965Z" fill="#0B0B0A" stroke="#0B0B0A" stroke-width="0.849765" stroke-miterlimit="10"/>
<path d="M28.8862 13.8501V14.0003C29.9035 13.4616 30.7406 13.3116 31.1273 12.0578C30.292 12.5646 29.6633 13.2833 28.8862 13.8501ZM25.718 29.3597V29.2114C25.718 28.913 25.5397 28.6427 25.5397 28.3444C25.5397 28.2543 25.5679 28.166 25.5996 28.0741C25.5996 28.0159 25.5397 27.9559 25.4796 27.9559H25.4195V29.0313C25.4195 29.9284 25.4495 30.7954 25.5679 31.6624H25.6597C25.8081 30.9737 25.718 30.2868 25.8081 29.6L25.718 29.3597ZM29.3648 6.70897C28.1392 6.70897 26.9136 7.03567 25.6597 7.09757C25.5679 7.12749 25.3896 7.18576 25.3896 7.30592C25.3896 7.84449 25.4495 8.38305 25.4495 8.91992C25.4495 10.9224 25.2694 12.893 25.2995 14.8673V15.2558L25.3312 15.3441L25.5096 15.3741C26.1984 15.3741 27.3022 14.3588 27.7207 14.3588C29.1847 13.3734 32.443 11.2208 32.443 9.27836C32.443 7.27588 31.1574 6.70897 29.3648 6.70897ZM25.1494 24.161L25.0911 24.2493C25.121 24.2793 25.121 24.2793 25.1494 24.2793C25.1494 24.2793 25.1811 24.2793 25.2112 24.2493C25.1811 24.2493 25.1494 24.191 25.1494 24.161ZM25.0911 23.5625V23.9226H25.1494V23.7425C25.1494 23.7126 25.121 23.5942 25.0911 23.5625ZM24.9709 17.705H24.9409V17.7951H25.001C24.9709 17.7651 24.9709 17.705 24.9709 17.705ZM24.9127 21.8301C24.9409 21.9802 24.9127 22.2787 25.0611 22.3369L25.0911 22.2468C25.031 22.0685 25.1494 21.8902 24.9127 21.8301ZM24.9409 23.1757H24.8509L24.9409 23.234V23.1757ZM24.7926 21.5299L24.7626 21.5617C24.7626 21.5299 24.7626 21.4416 24.7926 21.4416C24.8209 21.4416 24.8209 21.4999 24.8209 21.5299H24.7926ZM24.6125 11.9095H24.6725V11.9978L24.6125 11.9095ZM24.6125 11.1625H24.6425L24.6725 11.3992L24.6125 11.1625ZM24.5224 9.72692C24.5224 9.6368 24.4641 9.54849 24.4641 9.45849C24.4641 9.42845 24.4942 9.36837 24.4942 9.33844C24.5224 9.39841 24.5524 9.48672 24.5524 9.57854C24.5524 9.60676 24.5224 9.66684 24.5224 9.72692ZM24.4641 9.03997C24.4341 8.97989 24.4341 8.91992 24.4341 8.85984C24.4341 8.76983 24.4641 8.64967 24.5224 8.59141L24.4641 9.03997ZM24.5224 8.53144L24.4341 8.23297H24.5224L24.5524 8.47136L24.5224 8.53144ZM31.5158 12.1461C31.0973 13.075 30.0818 14.0003 29.0946 14.2987C28.828 14.3888 28.646 14.6571 28.3477 14.5972C27.9008 15.0157 27.2139 15.0457 26.7635 15.4942C26.3149 15.6425 25.9882 15.8826 25.4796 15.8527L25.3312 16.0327C25.3312 16.928 25.4195 17.7951 25.4195 18.6622C25.4195 19.2308 25.3312 19.7676 25.3312 20.3061C25.3312 22.8154 25.4195 25.4448 25.8681 27.9259C25.9882 28.6128 26.0483 29.3315 26.0483 30.0484C26.0483 31.0038 25.9582 32.0191 25.6597 32.9462C25.5996 33.1564 25.6297 33.3046 25.6297 33.5131C25.6297 33.7832 25.5397 33.9615 25.2112 33.9315C25.2112 33.5448 25.1811 33.1263 25.1811 32.7078C25.1811 31.3923 25.2694 30.0784 25.2694 28.7329C25.2694 28.4044 25.1494 26.522 25.2112 26.4019C25.0911 26.2236 25.2412 26.0134 25.001 25.8633L24.9409 25.7433C24.9409 24.9963 24.9709 24.2793 24.9709 23.5324V23.4742L24.9409 23.5942L24.9127 23.9226C24.7326 23.8026 24.8509 23.6224 24.8509 23.4742C24.8509 23.384 24.7626 23.294 24.7025 23.264L24.7626 23.0256L24.9409 23.0839L25.0611 23.0256C25.0911 22.9056 25.1494 22.7854 25.1494 22.6653C25.1494 22.6371 25.0911 22.487 25.0611 22.487C24.9127 22.487 24.9127 22.577 24.9409 22.6954H24.8826C24.8209 22.6954 24.7326 22.6653 24.7025 22.6371C24.7025 22.5453 24.7926 22.487 24.7926 22.3969C24.7926 22.3669 24.7326 22.3086 24.7025 22.2787C24.7326 22.2186 24.7326 22.1585 24.7326 22.0986C24.7326 21.9802 24.7025 21.8602 24.7025 21.74C24.7626 21.8001 24.7926 21.8001 24.8826 21.8001C24.9709 21.8001 25.031 21.62 25.031 21.5299C25.031 21.4416 25.001 21.3515 24.9409 21.2632C24.7626 21.2014 24.7025 21.0231 24.7025 20.8448C24.7326 20.8148 24.7325 20.8148 24.7626 20.8148C24.8509 20.8148 24.9127 20.873 24.9709 20.873C25.001 20.873 25.031 20.8148 25.0611 20.8148C25.0611 20.4545 24.7025 20.7246 24.6125 20.4545C24.7025 20.4245 24.6125 20.2462 24.7025 20.2762C24.7926 20.3061 24.7926 20.5146 24.8826 20.5146H24.9409L25.001 20.3662C24.9127 20.2161 24.8826 20.006 24.7025 19.9159V19.7375C24.6425 19.3509 24.7626 18.9323 24.7626 18.542L24.9127 18.5721C24.9709 18.542 25.001 18.452 25.001 18.3938L24.9409 18.3337L24.7926 18.3938C24.7326 18.3637 24.7626 18.3019 24.7626 18.2736C24.7626 18.2136 24.7326 18.1854 24.7025 18.1854C24.8509 17.9152 24.7025 17.5549 25.0611 17.4066C25.001 17.2283 24.9127 17.0482 24.9127 16.8698C24.9127 16.7497 24.9709 16.6297 25.0611 16.5714C25.031 16.5095 25.031 16.4512 25.001 16.4512V16.6297L25.0611 17.0781L24.9409 16.1811V16.121C24.9709 16.0628 24.8826 16.0028 24.8509 16.0028C24.5842 16.0327 24.3441 16.121 24.0756 16.121C23.8955 16.121 23.7471 16.0911 23.6271 16.0327L23.597 15.9728C23.597 15.8527 23.7171 15.7926 23.7753 15.7043H23.9555C24.254 15.7043 24.5224 15.5542 24.7926 15.5843L24.9127 15.4342C24.9127 13.6118 25.0611 11.6994 25.2412 9.84697C25.0911 9.57854 25.1811 9.27836 25.1811 8.97989C25.1811 8.44132 25.031 7.87453 24.9409 7.36589C24.9127 7.30592 24.8509 7.27588 24.7926 7.27588C24.7326 7.27588 24.6725 7.33596 24.6725 7.39593C24.5224 7.48423 24.5842 7.72444 24.6125 7.87453H24.5524C24.4341 7.78441 24.4942 7.63432 24.4942 7.48423C24.4942 7.39593 24.4023 7.30592 24.314 7.30592C23.7471 7.30592 23.2368 7.66617 22.6699 7.66617C22.5515 7.66617 22.4314 7.63432 22.2813 7.60428C22.3414 7.12749 23.9855 7.06752 24.4023 6.91744C24.5842 6.46888 24.4942 6.02032 24.4942 5.57176C24.4942 4.1397 24.8826 2.58396 24.7025 1.15009C24.7326 1.06008 24.8826 1 25.001 1L25.1494 1.06008C25.121 1.27013 25.0911 1.44856 25.0911 1.65861C25.0911 2.07543 25.1494 2.5257 25.2112 2.9424C25.3312 3.12253 25.3312 3.63117 25.3312 3.86956C25.3312 4.5564 25.2694 5.21513 25.2694 5.90209C25.2694 6.0804 25.2412 6.26053 25.3312 6.43884C25.2694 6.52896 25.3312 6.61897 25.4495 6.67905C26.9136 6.52896 28.3776 6.32049 29.8735 6.35053C30.0818 6.28875 30.322 6.26053 30.5304 6.26053C31.039 6.26053 32.0845 6.82732 32.2346 7.27588C32.5031 7.99276 32.6815 8.83161 32.6815 9.60676C32.6815 11.2808 31.9645 11.1007 31.5158 12.1461Z" fill="#0B0B0A"/>
<path d="M24.9409 25.7433L25.001 25.8633C25.2412 26.0134 25.0911 26.2236 25.2112 26.4019C25.1494 26.522 25.2694 28.4044 25.2694 28.7329C25.2694 30.0784 25.1811 31.3923 25.1811 32.7078C25.1811 33.1263 25.2112 33.5448 25.2112 33.9315C25.5397 33.9615 25.6297 33.7832 25.6297 33.5131C25.6297 33.3046 25.5996 33.1564 25.6597 32.9462C25.9582 32.0191 26.0483 31.0038 26.0483 30.0484C26.0483 29.3315 25.9882 28.6128 25.8681 27.9259C25.4195 25.4448 25.3312 22.8154 25.3312 20.3061C25.3312 19.7676 25.4195 19.2308 25.4195 18.6622C25.4195 17.7951 25.3312 16.928 25.3312 16.0327L25.4796 15.8527C25.9882 15.8826 26.3149 15.6425 26.7635 15.4942C27.2139 15.0457 27.9008 15.0157 28.3477 14.5972C28.646 14.6571 28.828 14.3888 29.0946 14.2987C30.0818 14.0003 31.0973 13.075 31.5158 12.1461C31.9645 11.1007 32.6815 11.2808 32.6815 9.60676C32.6815 8.83161 32.5031 7.99276 32.2346 7.27588C32.0845 6.82732 31.039 6.26053 30.5304 6.26053C30.322 6.26053 30.0818 6.28875 29.8735 6.35053C28.3776 6.32049 26.9136 6.52896 25.4495 6.67905C25.3312 6.61897 25.2694 6.52896 25.3312 6.43884C25.2412 6.26053 25.2694 6.0804 25.2694 5.90209C25.2694 5.21513 25.3312 4.5564 25.3312 3.86956C25.3312 3.63117 25.3312 3.12253 25.2112 2.9424C25.1494 2.5257 25.0911 2.07543 25.0911 1.65861C25.0911 1.44856 25.121 1.27013 25.1494 1.06008L25.001 1C24.8826 1 24.7326 1.06008 24.7025 1.15009C24.8826 2.58396 24.4942 4.1397 24.4942 5.57176C24.4942 6.02032 24.5842 6.46888 24.4023 6.91744C23.9855 7.06753 22.3414 7.12749 22.2813 7.60428C22.4314 7.63432 22.5515 7.66617 22.6699 7.66617C23.2368 7.66617 23.7471 7.30592 24.314 7.30592C24.4023 7.30592 24.4942 7.39593 24.4942 7.48423C24.4942 7.63432 24.4341 7.78441 24.5524 7.87453H24.6125C24.5842 7.72444 24.5224 7.48423 24.6725 7.39593C24.6725 7.33596 24.7326 7.27588 24.7926 7.27588C24.8509 7.27588 24.9127 7.30592 24.9409 7.36589C25.031 7.87453 25.1811 8.44132 25.1811 8.97989C25.1811 9.27836 25.0911 9.57854 25.2412 9.84697C25.0611 11.6994 24.9127 13.6118 24.9127 15.4342L24.7926 15.5843C24.5224 15.5542 24.254 15.7043 23.9555 15.7043H23.7753C23.7171 15.7926 23.597 15.8527 23.597 15.9728L23.6271 16.0327C23.7471 16.0911 23.8955 16.121 24.0756 16.121C24.3441 16.121 24.5842 16.0327 24.8509 16.0028C24.8826 16.0028 24.9709 16.0628 24.9409 16.121V16.1811L25.0611 17.0781L25.001 16.6297V16.4512C25.031 16.4512 25.031 16.5095 25.0611 16.5714C24.9709 16.6297 24.9127 16.7497 24.9127 16.8698C24.9127 17.0482 25.001 17.2283 25.0611 17.4066C24.7025 17.5549 24.8509 17.9152 24.7025 18.1854C24.7326 18.1854 24.7626 18.2136 24.7626 18.2736C24.7626 18.3019 24.7326 18.3637 24.7926 18.3938L24.9409 18.3337L25.001 18.3938C25.001 18.452 24.9709 18.542 24.9127 18.5721L24.7626 18.542C24.7626 18.9323 24.6425 19.3509 24.7025 19.7375V19.9159C24.8826 20.006 24.9127 20.2161 25.001 20.3662L24.9409 20.5146H24.8826C24.7926 20.5146 24.7926 20.3061 24.7025 20.2762C24.6125 20.2462 24.7025 20.4245 24.6125 20.4545C24.7025 20.7246 25.0611 20.4545 25.0611 20.8148C25.031 20.8148 25.001 20.873 24.9709 20.873C24.9127 20.873 24.8509 20.8148 24.7626 20.8148C24.7325 20.8148 24.7326 20.8148 24.7025 20.8448C24.7025 21.0231 24.7626 21.2014 24.9409 21.2632C25.001 21.3515 25.031 21.4416 25.031 21.5299C25.031 21.62 24.9709 21.8001 24.8826 21.8001C24.7926 21.8001 24.7626 21.8001 24.7025 21.74C24.7025 21.8602 24.7326 21.9802 24.7326 22.0986C24.7326 22.1585 24.7326 22.2186 24.7025 22.2787C24.7326 22.3086 24.7926 22.3669 24.7926 22.3969C24.7926 22.487 24.7025 22.5453 24.7025 22.6371C24.7326 22.6653 24.8209 22.6954 24.8826 22.6954H24.9409C24.9127 22.577 24.9127 22.487 25.0611 22.487C25.0911 22.487 25.1494 22.6371 25.1494 22.6653C25.1494 22.7854 25.0911 22.9056 25.0611 23.0256L24.9409 23.0839L24.7626 23.0256L24.7025 23.264C24.7626 23.294 24.8509 23.384 24.8509 23.4742C24.8509 23.6224 24.7326 23.8026 24.9127 23.9226L24.9409 23.5942L24.9709 23.4742V23.5324C24.9709 24.2793 24.9409 24.9963 24.9409 25.7433ZM24.9409 25.7433L25.031 25.8633M28.8862 13.8501V14.0003C29.9035 13.4616 30.7406 13.3116 31.1273 12.0578C30.292 12.5646 29.6633 13.2833 28.8862 13.8501ZM25.718 29.3597V29.2114C25.718 28.913 25.5397 28.6427 25.5397 28.3444C25.5397 28.2543 25.5679 28.166 25.5996 28.0741C25.5996 28.0159 25.5397 27.9559 25.4796 27.9559H25.4195V29.0313C25.4195 29.9284 25.4495 30.7954 25.5679 31.6624H25.6597C25.8081 30.9737 25.718 30.2868 25.8081 29.5998L25.718 29.3597ZM29.3648 6.70897C28.1392 6.70897 26.9136 7.03567 25.6597 7.09757C25.5679 7.12749 25.3896 7.18576 25.3896 7.30592C25.3896 7.84449 25.4495 8.38305 25.4495 8.91992C25.4495 10.9224 25.2694 12.893 25.2995 14.8673V15.2558L25.3312 15.3441L25.5096 15.3741C26.1984 15.3741 27.3022 14.3588 27.7207 14.3588C29.1847 13.3734 32.4431 11.2208 32.4431 9.27836C32.4431 7.27588 31.1574 6.70897 29.3648 6.70897ZM25.1494 24.161L25.0911 24.2493C25.121 24.2793 25.121 24.2793 25.1494 24.2793C25.1494 24.2793 25.1811 24.2793 25.2112 24.2493C25.1811 24.2493 25.1494 24.191 25.1494 24.161ZM25.0911 23.5625V23.9226H25.1494V23.7425C25.1494 23.7126 25.121 23.5942 25.0911 23.5625ZM24.9709 17.705H24.9409V17.7951H25.001C24.9709 17.7651 24.9709 17.705 24.9709 17.705ZM24.9127 21.8301C24.9409 21.9802 24.9127 22.2787 25.0611 22.3369L25.0911 22.2468C25.031 22.0685 25.1494 21.8902 24.9127 21.8301ZM24.9409 23.1757H24.8509L24.9409 23.234V23.1757ZM24.7926 21.5299L24.7626 21.5617C24.7626 21.5299 24.7626 21.4416 24.7926 21.4416C24.8209 21.4416 24.8209 21.4999 24.8209 21.5299H24.7926ZM24.6125 11.9095H24.6725V11.9978L24.6125 11.9095ZM24.6125 11.1625H24.6425L24.6725 11.3992L24.6125 11.1625ZM24.5224 9.72692C24.5224 9.6368 24.4641 9.54849 24.4641 9.45849C24.4641 9.42845 24.4942 9.36837 24.4942 9.33844C24.5224 9.39841 24.5524 9.48672 24.5524 9.57854C24.5524 9.60676 24.5224 9.66684 24.5224 9.72692ZM24.4641 9.03997C24.4341 8.97989 24.4341 8.91992 24.4341 8.85984C24.4341 8.76983 24.4641 8.64967 24.5224 8.59141L24.4641 9.03997ZM24.5224 8.53144L24.4341 8.23297H24.5224L24.5524 8.47136L24.5224 8.53144Z" stroke="#0B0B0A" stroke-width="0.849765" stroke-miterlimit="10"/>
<path d="M42.517 6.23605C42.3368 5.96762 42.2185 5.75926 41.8282 5.75926C41.7699 5.75926 41.6798 5.81753 41.6798 5.90765V5.93758L41.7399 5.90765C42.1584 5.90765 42.2185 6.26609 42.517 6.41436V6.23605ZM42.1584 17.2339C42.0384 17.3239 41.8282 17.2621 41.6798 17.2621C41.5898 17.2621 41.4714 17.2939 41.4714 17.4122C41.4714 17.6524 42.1584 17.5923 42.2767 17.5923C42.3669 17.5606 42.607 17.4439 42.607 17.3239C42.5452 17.2039 42.2767 17.2339 42.1584 17.2339ZM43.0256 7.82001C42.7553 7.60985 42.7553 7.22318 42.6653 7.10313L41.8282 6.23605H41.7699C41.4414 6.23605 40.6626 8.47693 40.5443 8.86541C40.6326 8.95553 40.7526 8.98545 40.8728 8.98545C41.1713 8.98545 41.4414 8.86541 41.7699 8.89545C42.3086 8.7754 42.8754 8.86541 43.4124 8.71713L43.0256 7.82001ZM39.5871 8.86541C39.5871 8.95553 39.6472 9.07376 39.7672 9.04553H39.9156C40.0957 9.04553 40.2458 8.89545 40.2758 8.71713C40.4842 8.09026 40.9328 7.46157 40.9928 6.83289C40.3341 7.19314 39.5871 8.09026 39.5871 8.86541ZM39.6171 9.61244L39.5871 9.64237C39.1686 10.0026 39.2303 9.94084 39.2303 10.4494C39.2303 10.6577 39.1103 10.8679 39.1103 11.0762C39.1103 11.2263 39.2303 11.3165 39.2303 11.4665C39.2303 11.5548 39.1385 11.7049 39.1103 11.765C39.1103 12.1835 39.0485 12.5702 39.0485 12.9887C39.0485 13.3171 39.467 15.0812 39.6772 15.1413C39.6472 14.963 39.6772 14.8129 39.6772 14.6328C39.6772 14.4827 39.6472 14.3343 39.5589 14.246C39.5871 14.156 39.6171 14.0659 39.6171 13.9758C39.6171 13.5874 39.2886 12.6902 39.2886 12.2135C39.2886 11.5548 39.5871 10.4494 39.9156 9.85254V9.8225C39.9156 9.67241 39.7372 9.61244 39.6171 9.61244ZM43.264 17.0538C42.5752 17.5022 42.7854 17.8007 41.7699 17.8007C41.3514 17.8007 40.9328 17.7107 40.5743 17.5606C38.78 15.7682 39.0485 14.6645 38.5115 12.3919L38.6617 12.2135C38.6617 11.9734 38.6017 11.7049 38.6017 11.4665C38.6017 11.4048 38.75 10.928 38.78 10.8679C38.75 10.7196 38.75 10.5695 38.75 10.4211C38.75 10.2393 38.8401 10.0026 38.8701 9.8225C38.75 9.73249 38.6017 9.70245 38.4516 9.70245C38.093 9.70245 37.7646 9.8225 37.4061 9.8225C36.8674 9.8225 36.2405 9.85254 35.6718 9.76253V9.67241C35.6718 9.55406 35.912 9.52232 36.0021 9.52232C36.7491 9.52232 37.5261 9.55406 38.2431 9.34401V9.31397C38.2431 9.2557 38.033 9.28393 38.003 9.28393C37.9447 9.28393 37.9147 9.2557 37.9147 9.22385C38.3633 9.0155 39.1385 9.43402 39.1385 8.74536C39.1385 8.02837 39.9156 7.34153 40.3642 6.83289C40.8428 6.20601 41.2613 5.45909 42.1584 5.45909H42.2767C43.0839 5.81753 42.8455 6.65457 43.4124 7.19314C43.4124 7.49161 43.5625 7.78997 43.5625 8.09026C43.8027 8.38862 43.7107 8.62701 43.8309 8.95553C43.0256 9.28393 41.2312 9.31397 40.2758 9.52232C39.8273 10.3011 39.6171 11.0762 39.6171 11.9433C39.6171 13.4673 40.0356 14.8729 40.3059 16.3668C40.3341 16.4568 40.3341 16.7853 40.5142 16.7553H40.6326C40.8428 16.7553 41.0511 16.9636 41.2012 17.1137C41.3214 17.1137 41.4714 17.1438 41.5898 17.1438C42.1884 17.1438 43.384 16.9054 43.7107 16.3368C44.2494 15.4398 44.5779 14.8129 44.5779 13.7657C44.5779 13.5573 44.5197 12.3336 44.728 12.3336C44.8764 12.3336 44.9382 12.8704 44.9382 12.9605C44.9382 14.5445 44.6397 16.1284 43.264 17.0538Z" fill="#0B0B0A"/>
<path d="M42.517 6.23605C42.3368 5.96762 42.2185 5.75926 41.8282 5.75926C41.7699 5.75926 41.6798 5.81753 41.6798 5.90765V5.93758L41.7399 5.90765C42.1584 5.90765 42.2185 6.26609 42.517 6.41436V6.23605ZM42.1584 17.2339C42.0384 17.3239 41.8282 17.2621 41.6798 17.2621C41.5898 17.2621 41.4714 17.2939 41.4714 17.4122C41.4714 17.6524 42.1584 17.5923 42.2767 17.5923C42.3669 17.5606 42.607 17.4439 42.607 17.3239C42.5452 17.2039 42.2767 17.2339 42.1584 17.2339ZM43.0256 7.82001C42.7553 7.60985 42.7553 7.22318 42.6653 7.10313L41.8282 6.23605H41.7699C41.4414 6.23605 40.6626 8.47693 40.5443 8.86541C40.6326 8.95553 40.7526 8.98545 40.8728 8.98545C41.1713 8.98545 41.4414 8.86541 41.7699 8.89545C42.3086 8.7754 42.8754 8.86541 43.4124 8.71713L43.0256 7.82001ZM39.5871 8.86541C39.5871 8.95553 39.6472 9.07376 39.7672 9.04553H39.9156C40.0957 9.04553 40.2458 8.89545 40.2758 8.71713C40.4842 8.09026 40.9328 7.46157 40.9928 6.83289C40.3341 7.19314 39.5871 8.09026 39.5871 8.86541ZM39.6171 9.61244L39.5871 9.64237C39.1686 10.0026 39.2303 9.94084 39.2303 10.4494C39.2303 10.6577 39.1103 10.8679 39.1103 11.0762C39.1103 11.2263 39.2303 11.3165 39.2303 11.4665C39.2303 11.5548 39.1385 11.7049 39.1103 11.765C39.1103 12.1835 39.0485 12.5702 39.0485 12.9887C39.0485 13.3171 39.467 15.0812 39.6772 15.1413C39.6472 14.963 39.6772 14.8129 39.6772 14.6328C39.6772 14.4827 39.6472 14.3343 39.5589 14.246C39.5871 14.156 39.6171 14.0659 39.6171 13.9758C39.6171 13.5874 39.2886 12.6902 39.2886 12.2135C39.2886 11.5548 39.5871 10.4494 39.9156 9.85254V9.8225C39.9156 9.67241 39.7372 9.61244 39.6171 9.61244ZM43.264 17.0538C42.5752 17.5022 42.7854 17.8007 41.7699 17.8007C41.3514 17.8007 40.9328 17.7107 40.5743 17.5606C38.78 15.7682 39.0485 14.6645 38.5115 12.3919L38.6617 12.2135C38.6617 11.9734 38.6017 11.7049 38.6017 11.4665C38.6017 11.4048 38.75 10.928 38.78 10.8679C38.75 10.7196 38.75 10.5695 38.75 10.4211C38.75 10.2393 38.8401 10.0026 38.8701 9.8225C38.75 9.73249 38.6017 9.70245 38.4516 9.70245C38.093 9.70245 37.7646 9.8225 37.4061 9.8225C36.8674 9.8225 36.2405 9.85254 35.6718 9.76253V9.67241C35.6718 9.55406 35.912 9.52232 36.0021 9.52232C36.7491 9.52232 37.5261 9.55406 38.2431 9.34401V9.31397C38.2431 9.2557 38.033 9.28393 38.003 9.28393C37.9447 9.28393 37.9147 9.2557 37.9147 9.22385C38.3633 9.0155 39.1385 9.43402 39.1385 8.74536C39.1385 8.02837 39.9156 7.34153 40.3642 6.83289C40.8428 6.20601 41.2613 5.45909 42.1584 5.45909H42.2767C43.0839 5.81753 42.8455 6.65457 43.4124 7.19314C43.4124 7.49161 43.5625 7.78997 43.5625 8.09026C43.8027 8.38862 43.7107 8.62701 43.8309 8.95553C43.0256 9.28393 41.2312 9.31397 40.2758 9.52232C39.8273 10.3011 39.6171 11.0762 39.6171 11.9433C39.6171 13.4673 40.0356 14.8729 40.3059 16.3668C40.3341 16.4568 40.3341 16.7853 40.5142 16.7553H40.6326C40.8428 16.7553 41.0511 16.9636 41.2012 17.1137C41.3214 17.1137 41.4714 17.1438 41.5898 17.1438C42.1884 17.1438 43.384 16.9054 43.7107 16.3368C44.2494 15.4398 44.5779 14.8129 44.5779 13.7657C44.5779 13.5573 44.5197 12.3336 44.728 12.3336C44.8764 12.3336 44.9382 12.8704 44.9382 12.9605C44.9382 14.5445 44.6397 16.1284 43.264 17.0538Z" stroke="#0B0B0A" stroke-width="0.849765" stroke-miterlimit="10"/>
<path d="M54.5436 5.87329C54.3353 5.87329 53.6465 5.93326 53.6465 6.23173C53.855 6.23173 54.065 6.14343 54.2735 6.14343C54.6338 6.14343 54.9623 6.11339 55.3207 6.11339C55.0823 5.99334 54.8121 5.87329 54.5436 5.87329ZM50.5083 12.029C50.42 11.8507 50.4783 11.7906 50.4783 11.6106C50.4783 11.5223 50.42 11.4322 50.3582 11.4021L50.2999 11.4322V12.8061C50.2999 13.8832 50.2399 14.9286 50.2399 16.004C50.2399 16.004 50.2699 16.2742 50.2999 16.2742C50.2999 16.1824 50.2999 15.3772 50.33 15.3471C50.3582 15.4672 50.3582 15.5555 50.3582 15.6455C50.5984 15.6755 50.5083 15.4354 50.5083 15.2871C50.5083 15.2271 50.5401 15.167 50.5684 15.1087V14.8386V14.9887C50.5401 15.167 50.5401 15.3471 50.5401 15.5273C50.5401 15.5273 50.5401 15.7056 50.5684 15.7356C50.6884 15.5273 50.6584 15.2871 50.6584 15.0487C50.6584 14.8086 50.6884 14.5401 50.8068 14.3017C50.6884 13.643 50.8068 12.5976 50.5083 12.029ZM50.2999 6.7703C50.2098 6.97865 50.1499 7.18882 50.1499 7.39717C50.1499 7.63738 50.1798 7.87747 50.1798 8.14421C50.1798 8.23421 50.1798 8.32433 50.2699 8.3843C50.2999 8.11417 50.33 7.81569 50.33 7.54726V7.33891C50.33 7.15878 50.33 6.94873 50.2999 6.7703ZM49.7913 9.63986C49.3745 9.93833 49.0743 10.3567 48.8942 10.8353H49.0142C49.2827 10.4451 49.7312 10.1166 49.8814 9.63986H49.7913ZM56.9331 7.84573C56.7547 7.63738 56.7847 7.33891 56.6664 7.12885C56.3662 6.4419 55.2007 6.26347 54.5436 6.26347C52.9596 6.26347 50.4783 8.08594 50.4783 9.81818C50.4783 9.93834 50.5083 10.5652 50.5684 10.6252C50.5684 10.5951 50.5684 10.5652 50.5984 10.5652C50.5984 10.5652 50.6283 10.6552 50.6584 10.8353L50.6283 10.9554L50.7185 11.0437C50.7185 11.7906 51.0752 12.4493 51.0752 13.1662C51.0752 13.523 50.9869 13.9133 50.9869 14.2417C50.9869 14.5401 51.047 14.8386 51.047 15.137C51.047 15.8256 50.5684 18.0065 50.3582 18.7535C50.3582 18.8135 50.33 18.8436 50.2699 18.8436C50.2098 18.8436 50.1798 18.8436 50.1499 18.8135V18.485C50.1798 17.4097 49.9414 16.3024 50.0915 15.2271C49.9096 14.6002 50.0597 11.1921 50.0015 10.1467H49.8514L49.0443 11.0137H48.9842C48.8641 11.0137 48.8359 10.8053 48.7441 10.8053C48.6857 10.8053 48.6257 10.8636 48.5957 10.9237L48.3874 10.9554C48.3573 10.9237 48.3273 10.8936 48.3273 10.8353C48.3273 10.6552 48.5957 10.5069 48.6558 10.3268C48.8359 10.1166 49.2244 9.9983 49.2244 9.63986C50.2098 8.98113 49.8814 8.89294 49.8814 7.66742C49.8814 6.80034 50.1499 5.90333 50.0015 5.03625C50.1499 4.88786 50.0597 4.64947 50.0597 4.46946C50.0597 4.26099 50.2098 4.16917 50.42 4.20102C50.5401 4.52942 50.42 4.88786 50.42 5.21638C50.42 5.3965 50.4482 5.54659 50.5083 5.66494C50.6283 6.26347 50.6884 6.86042 50.7185 7.45907C50.6584 7.5773 50.6283 7.69565 50.6283 7.84573C50.6283 7.96578 50.6884 8.11417 50.7767 8.20417C52.1825 7.21886 52.4527 5.69487 54.692 5.69487C55.8876 5.69487 56.2161 6.05342 56.8749 6.94873C56.9331 7.21886 56.9049 7.45907 57.0249 7.69565L56.9331 7.84573Z" fill="#0B0B0A"/>
<path d="M54.5436 5.87329C54.3353 5.87329 53.6465 5.93326 53.6465 6.23173C53.855 6.23173 54.065 6.14343 54.2735 6.14343C54.6338 6.14343 54.9623 6.11339 55.3207 6.11339C55.0823 5.99334 54.8121 5.87329 54.5436 5.87329ZM50.5083 12.029C50.42 11.8507 50.4783 11.7906 50.4783 11.6106C50.4783 11.5223 50.42 11.4322 50.3582 11.4021L50.2999 11.4322V12.8061C50.2999 13.8832 50.2399 14.9286 50.2399 16.004C50.2399 16.004 50.2699 16.2742 50.2999 16.2742C50.2999 16.1824 50.2999 15.3772 50.33 15.3471C50.3582 15.4672 50.3582 15.5555 50.3582 15.6455C50.5984 15.6755 50.5083 15.4354 50.5083 15.2871C50.5083 15.2271 50.5401 15.167 50.5684 15.1087V14.8386V14.9887C50.5401 15.167 50.5401 15.3471 50.5401 15.5273C50.5401 15.5273 50.5401 15.7056 50.5684 15.7356C50.6884 15.5273 50.6584 15.2871 50.6584 15.0487C50.6584 14.8086 50.6884 14.5401 50.8068 14.3017C50.6884 13.643 50.8068 12.5976 50.5083 12.029ZM50.2999 6.7703C50.2098 6.97865 50.1499 7.18882 50.1499 7.39717C50.1499 7.63738 50.1798 7.87747 50.1798 8.14421C50.1798 8.23421 50.1798 8.32433 50.2699 8.3843C50.2999 8.11417 50.33 7.81569 50.33 7.54726V7.33891C50.33 7.15878 50.33 6.94873 50.2999 6.7703ZM49.7913 9.63986C49.3745 9.93833 49.0743 10.3567 48.8942 10.8353H49.0142C49.2827 10.4451 49.7312 10.1166 49.8814 9.63986H49.7913ZM56.9331 7.84573C56.7547 7.63738 56.7847 7.33891 56.6664 7.12885C56.3662 6.4419 55.2007 6.26347 54.5436 6.26347C52.9596 6.26347 50.4783 8.08594 50.4783 9.81818C50.4783 9.93834 50.5083 10.5652 50.5684 10.6252C50.5684 10.5951 50.5684 10.5652 50.5984 10.5652C50.5984 10.5652 50.6283 10.6552 50.6584 10.8353L50.6283 10.9554L50.7185 11.0437C50.7185 11.7906 51.0752 12.4493 51.0752 13.1662C51.0752 13.523 50.9869 13.9133 50.9869 14.2417C50.9869 14.5401 51.047 14.8386 51.047 15.137C51.047 15.8256 50.5684 18.0065 50.3582 18.7535C50.3582 18.8135 50.33 18.8436 50.2699 18.8436C50.2098 18.8436 50.1798 18.8436 50.1499 18.8135V18.485C50.1798 17.4097 49.9414 16.3024 50.0915 15.2271C49.9096 14.6002 50.0597 11.1921 50.0015 10.1467H49.8514L49.0443 11.0137H48.9842C48.8641 11.0137 48.8359 10.8053 48.7441 10.8053C48.6857 10.8053 48.6257 10.8636 48.5957 10.9237L48.3874 10.9554C48.3573 10.9237 48.3273 10.8936 48.3273 10.8353C48.3273 10.6552 48.5957 10.5069 48.6558 10.3268C48.8359 10.1166 49.2244 9.9983 49.2244 9.63986C50.2098 8.98113 49.8814 8.89294 49.8814 7.66742C49.8814 6.80034 50.1499 5.90333 50.0015 5.03625C50.1499 4.88786 50.0597 4.64947 50.0597 4.46946C50.0597 4.26099 50.2098 4.16917 50.42 4.20102C50.5401 4.52942 50.42 4.88786 50.42 5.21638C50.42 5.3965 50.4482 5.54659 50.5083 5.66494C50.6283 6.26347 50.6884 6.86042 50.7185 7.45907C50.6584 7.5773 50.6283 7.69565 50.6283 7.84573C50.6283 7.96578 50.6884 8.11417 50.7767 8.20417C52.1825 7.21886 52.4527 5.69487 54.692 5.69487C55.8876 5.69487 56.2161 6.05342 56.8749 6.94873C56.9331 7.21886 56.9049 7.45907 57.0249 7.69565L56.9331 7.84573Z" stroke="#0B0B0A" stroke-width="0.849765" stroke-miterlimit="10"/>
<path d="M92.0018 14.1867H91.8534L92.3921 14.0666C92.3302 14.0967 92.0317 14.1867 92.0018 14.1867ZM92.6004 14.0666H92.4503L92.6004 13.9783C92.4503 13.9783 92.3302 13.9783 92.2101 13.9184C91.5532 14.0366 90.8662 14.0666 90.2393 14.1867C90.2092 14.1867 90.1492 14.2468 90.1492 14.2468C90.1492 14.2768 90.1492 14.2768 90.1792 14.305C90.4777 14.305 90.7778 14.3651 91.1064 14.3651C91.3748 14.3651 91.6733 14.2768 91.9435 14.2468C91.7033 14.4251 90.8662 14.3951 90.5378 14.3951C90.4176 14.3951 90.3293 14.4251 90.2393 14.4551C90.2975 14.6352 90.5077 14.6953 90.5677 14.8736C91.2247 15.5306 91.8234 16.4576 92.3003 17.2346C92.3003 17.3247 92.3302 17.4748 92.3921 17.533V17.6531C92.3921 17.7132 92.4804 17.8032 92.5403 17.8315H92.5704C92.5704 17.8614 92.5403 17.8915 92.5403 17.9215C92.5403 18.0416 92.8088 18.1317 92.8088 18.2217C92.8088 18.25 92.8088 18.2818 92.7787 18.2818C92.5103 18.25 92.4503 18.1016 92.3302 17.8915C92.0617 17.7132 92.0018 17.3247 91.6733 17.1746C91.6132 16.9362 91.4631 16.9662 91.3748 16.726L91.1064 16.1292C91.2247 16.1592 91.3147 16.2492 91.3147 16.3676C91.4931 16.7861 91.7933 17.0562 92.0018 17.443C92.0918 17.4748 92.0918 17.5931 92.2101 17.623C92.0317 17.1163 91.7333 16.4576 91.2547 16.1292C91.2547 16.0391 91.2247 15.919 91.1064 15.919C91.0446 15.919 91.0446 16.0391 91.0763 16.0691C90.9563 15.8908 90.8962 15.7107 90.7161 15.5906L90.7461 15.5306C90.7461 15.3822 90.6578 15.2621 90.5378 15.2321C90.4777 15.0237 90.2393 15.2321 90.1191 14.9937C90.0291 14.7836 89.7607 14.7254 89.5806 14.7254C89.0437 15.5306 87.071 17.4147 86.8008 18.2217C86.6225 18.25 86.5023 18.3701 86.324 18.3701C86.2939 18.3701 86.1739 18.3701 86.1739 18.31C86.1739 18.25 86.2939 18.1899 86.324 18.1016C86.6225 17.623 89.2821 14.8436 89.2821 14.4852C89.2821 14.3952 89.0736 14.3368 88.9836 14.3368C88.8935 14.305 88.7752 14.2768 88.6833 14.2768C88.4149 14.2768 88.1765 14.3368 87.9081 14.3368C87.2812 14.3368 86.6225 14.4551 85.9654 14.4551C85.8454 14.4551 85.9055 14.3368 85.8153 14.2468C86.0237 14.2167 86.2038 14.0666 86.414 14.0666C86.4723 14.0666 86.5924 14.0967 86.6824 14.1568C86.8625 14.1568 87.041 14.1867 87.2193 14.1867C87.878 14.1867 88.8035 14.1568 89.4304 14.0066C89.4622 13.9783 89.4922 13.9783 89.4922 13.9466C89.4922 13.9184 89.342 13.8883 89.3721 13.7982C89.3721 13.6782 88.6833 13.0813 88.6833 12.9012C88.7152 12.9012 88.7152 12.8712 88.7152 12.8712C88.7152 12.5428 87.6678 11.3172 87.3994 11.0188V10.9887C87.3994 10.8086 87.2493 10.7203 87.2493 10.5702C87.2493 10.5102 87.3394 10.4502 87.3994 10.4502C87.4895 10.4502 87.5496 10.5702 87.6079 10.6303C87.5797 10.6603 87.5496 10.6904 87.5496 10.7203C87.5496 10.8687 88.2065 11.7057 88.2648 11.7057C88.2966 11.7057 88.2966 11.6156 88.3267 11.6156C89.0136 12.0341 89.1938 12.8129 89.6405 13.4097C90.0891 13.4097 91.0763 10.9887 91.6432 10.7804H91.7033C91.1947 11.5273 90.6278 12.2443 90.2092 13.0513L90.2675 13.1114C90.5377 12.9912 90.4777 12.6928 90.596 12.6027C90.6578 12.5127 90.9563 12.3343 90.9563 12.2443C90.9563 12.1842 91.7033 11.2572 91.8534 10.9288C92.0018 10.7804 92.0918 10.6002 92.2419 10.4219L92.0317 10.4802C92.0918 10.2418 92.6004 9.94333 92.8388 9.97337C92.5704 10.4502 92.0617 10.7203 91.8534 11.2271C91.5831 11.7957 91.2848 12.1242 90.8962 12.6027V12.6328C90.8962 12.7228 90.7161 12.8129 90.7161 12.9012C90.5377 13.1996 89.969 13.5298 89.969 13.9466C90.0591 13.9783 90.1792 13.9783 90.2675 13.9783C91.0446 13.9783 91.8534 13.7982 92.6287 13.7982C92.8989 13.7982 93.2874 13.7682 93.5258 13.8883C93.2274 14.0066 92.8989 14.0366 92.6004 14.0666Z" fill="#0B0B0A" stroke="#0B0B0A" stroke-width="0.849765" stroke-miterlimit="10"/>
<path d="M94.3471 18.8369C94.4177 18.6108 94.4796 18.3689 94.5414 18.1217C94.6013 18.0422 94.6632 17.9646 94.7215 17.8833C94.7215 18.2542 94.5255 18.5402 94.3471 18.8369ZM92.5104 21.7382C92.4804 21.8883 92.362 21.9183 92.242 21.9483C92.3567 21.6252 92.5051 21.3215 92.65 21.0213C92.9396 20.9118 93.1992 20.6629 93.4765 20.5145C93.1797 20.9418 92.86 21.3532 92.5104 21.7382ZM94.114 18.6727C93.9321 19.0576 93.7095 19.4814 93.4358 20.0059C93.2062 20.1013 93.0932 20.3397 92.9343 20.5091C92.9643 20.4208 92.9942 20.329 93.0473 20.2743C93.3051 19.6809 93.7077 19.1777 94.114 18.6727ZM90.7762 23.0238C90.566 23.4123 89.7306 23.8908 89.3422 23.8908C88.9236 23.8908 88.5651 23.5023 88.1466 23.4723C88.0565 23.1739 87.7281 23.3221 87.5196 23.1739C87.0109 22.8136 86.3223 22.0967 86.0238 21.5599C85.517 20.6028 85.0683 19.349 84.7999 18.3319C84.6798 17.9133 84.6798 15.4923 84.6798 14.9855C84.6798 13.1914 84.6198 11.7876 85.3668 10.1435C85.3668 9.78507 85.7253 9.57671 85.7253 9.30658V9.18823C85.9355 8.94803 85.9355 8.55955 86.2039 8.35119C86.4724 7.48423 87.2794 6.94554 87.698 6.13854C88.0264 5.99027 88.1183 5.54171 88.4167 5.33336C89.0719 4.91302 89.7607 4.31619 90.5978 4.31619C90.6862 4.37627 90.7762 4.43635 90.8963 4.43635C90.9563 4.43635 90.9845 4.40631 91.0464 4.40631L91.1648 4.31619C91.2848 4.34623 91.4332 4.46628 91.495 4.25622C92.0318 4.37627 92.7789 4.10783 93.1091 4.70467C94.2746 5.4517 93.9144 7.03567 94.393 8.1111C94.4831 9.06819 94.5731 10.0235 94.6013 11.0106C94.6314 12.3545 94.8098 13.7 94.8098 15.0738C94.8098 16.1828 94.7339 16.8927 94.5484 17.5461C94.4301 17.7756 94.3047 17.9981 94.1828 18.2436C93.8561 18.4219 93.7943 18.9005 93.4358 19.0188C93.208 19.4532 92.9308 20.0677 92.6128 20.6876C92.6076 20.6876 92.6041 20.6928 92.5987 20.6928C92.5617 20.661 92.5528 20.6168 92.5298 20.5798C92.4487 20.6769 92.3709 20.7741 92.2773 20.8624C92.3232 20.926 92.3674 20.9931 92.4221 21.0442C91.947 21.9218 91.3943 22.7483 90.7762 23.0238ZM88.5951 24.3675C87.6697 24.3675 86.6225 24.0391 86.0856 23.2622C85.6671 22.7253 85.0984 22.2168 84.8282 21.5599C84.5598 21.2614 83.6626 17.6749 83.6626 17.1364C83.6626 17.1063 83.6626 16.9863 83.7545 16.9863C84.1112 16.9863 84.77 18.9005 84.8282 19.1689C85.0984 20.0659 85.6052 21.0213 86.0238 21.8583C86.2639 22.2767 86.5924 22.5752 86.8326 22.9937C87.1311 23.0837 87.2794 23.4123 87.6079 23.4723C87.758 23.7407 88.0565 23.7707 88.2349 23.9809C88.3549 23.9809 88.6851 24.0692 88.6851 24.2193C88.6851 24.2793 88.6851 24.3675 88.5951 24.3675ZM95.7087 15.284C95.5585 15.404 95.2901 15.5825 95.3201 15.8226V15.9109C95.0799 16.2711 95.05 16.6878 94.8098 17.0463C94.7868 17.0851 94.7709 17.1257 94.7497 17.1646C95.1188 15.1481 95.2301 12.8348 95.2301 11.5191C95.2301 10.2937 94.8098 9.09823 94.6933 7.87271C94.6314 6.91732 94.6013 5.87022 93.9745 5.09315C93.3458 4.37627 92.4804 3.8394 91.495 3.8394C91.3449 3.8394 91.1965 3.8394 91.0464 3.86774C90.9262 3.77943 90.7762 3.74758 90.6278 3.74758C90.1792 3.74758 89.819 4.0778 89.4004 4.0778C89.2839 4.0778 89.1637 4.04775 89.0719 4.01783L88.9236 4.16792L89.4622 4.19796C89.4923 4.25622 89.5505 4.31619 89.5505 4.37627C89.5505 4.55458 89.0437 4.49632 88.9836 4.79479C88.0264 5.30332 87.0109 6.52702 86.4423 7.42415C86.1138 7.96271 85.8154 8.61963 85.517 9.18823C85.487 9.21646 85.2768 9.66502 85.2185 9.66502C85.2185 9.87519 85.1566 10.0553 85.1284 10.2336C84.89 10.472 85.0384 10.9206 84.7999 11.1607C84.4396 12.2944 84.1412 13.7 84.1412 14.8655C84.1412 14.9556 84.0812 14.9855 83.9911 15.0156C83.9628 14.7454 83.8727 14.4469 83.9028 14.1486V13.9685C84.0229 11.279 84.0812 9.00811 85.6671 6.67723C86.8609 4.91302 88.385 4.6447 88.8335 4.10784C88.7452 4.10784 88.6851 4.0778 88.5951 4.0778C88.3549 4.0778 88.1183 4.19796 87.9982 4.40631C86.2939 4.9731 85.4569 6.52703 84.7399 8.02279C84.6198 8.20111 84.4715 8.32115 84.4396 8.55955C84.3213 9.09823 84.2313 9.60676 84.0229 10.1435C83.9628 10.3537 83.8428 10.6822 83.8428 10.8905C83.8428 11.0707 83.9328 11.249 83.9328 11.4291C83.9328 11.6675 83.9028 11.8777 83.8428 12.1161C83.5143 13.76 83.4242 15.5524 83.4242 17.2264C83.4242 18.5703 84.0229 19.7657 84.4396 20.9913C84.89 22.3068 85.8454 23.3822 86.8609 24.2793L87.6079 24.3994C87.788 24.5477 87.9982 24.6077 88.2349 24.6077C88.5651 24.6077 88.8936 24.4877 89.222 24.5177H89.3422C89.7607 24.2493 90.4777 24.0692 90.8062 23.7107C90.8963 23.6524 90.9563 23.4423 91.0764 23.4423C91.1047 23.4423 91.1347 23.4423 91.1648 23.4723C91.7934 22.7854 92.5705 22.2168 93.1373 21.4998C93.4358 21.1413 93.6159 20.6928 93.8843 20.3043C93.9745 20.1843 93.9745 20.0059 94.1245 19.9158C94.4831 19.0188 95.9171 16.1511 95.9171 15.374V15.284H95.7087Z" fill="#0B0B0A"/>
<path d="M94.3471 18.8369C94.4177 18.6108 94.4796 18.3689 94.5414 18.1217C94.6013 18.0422 94.6632 17.9646 94.7215 17.8833C94.7215 18.2542 94.5255 18.5402 94.3471 18.8369ZM92.5104 21.7382C92.4804 21.8883 92.362 21.9183 92.242 21.9483C92.3567 21.6252 92.5051 21.3215 92.65 21.0213C92.9396 20.9118 93.1992 20.6629 93.4765 20.5145C93.1797 20.9418 92.86 21.3532 92.5104 21.7382ZM94.114 18.6727C93.9321 19.0576 93.7095 19.4814 93.4358 20.0059C93.2062 20.1013 93.0932 20.3397 92.9343 20.5091C92.9643 20.4208 92.9942 20.329 93.0473 20.2743C93.3051 19.6809 93.7077 19.1777 94.114 18.6727ZM90.7762 23.0238C90.566 23.4123 89.7306 23.8908 89.3422 23.8908C88.9236 23.8908 88.5651 23.5023 88.1466 23.4723C88.0565 23.1739 87.7281 23.3221 87.5196 23.1739C87.0109 22.8136 86.3223 22.0967 86.0238 21.5599C85.517 20.6028 85.0683 19.349 84.7999 18.3319C84.6798 17.9133 84.6798 15.4923 84.6798 14.9855C84.6798 13.1914 84.6198 11.7876 85.3668 10.1435C85.3668 9.78507 85.7253 9.57672 85.7253 9.30658V9.18823C85.9355 8.94803 85.9355 8.55955 86.2039 8.35119C86.4724 7.48423 87.2794 6.94554 87.698 6.13854C88.0264 5.99027 88.1183 5.54171 88.4167 5.33336C89.0719 4.91302 89.7607 4.31619 90.5978 4.31619C90.6862 4.37627 90.7762 4.43635 90.8963 4.43635C90.9563 4.43635 90.9845 4.40631 91.0464 4.40631L91.1648 4.31619C91.2848 4.34623 91.4332 4.46628 91.495 4.25622C92.0318 4.37627 92.7789 4.10783 93.1091 4.70467C94.2746 5.4517 93.9144 7.03567 94.393 8.1111C94.4831 9.06819 94.5731 10.0235 94.6013 11.0106C94.6314 12.3545 94.8098 13.7 94.8098 15.0738C94.8098 16.1828 94.7339 16.8927 94.5484 17.5461C94.4301 17.7756 94.3047 17.9981 94.1828 18.2436C93.8561 18.4219 93.7943 18.9005 93.4358 19.0188C93.208 19.4532 92.9308 20.0677 92.6128 20.6876C92.6076 20.6876 92.6041 20.6928 92.5987 20.6928C92.5617 20.661 92.5528 20.6168 92.5298 20.5798C92.4487 20.6769 92.3709 20.7741 92.2773 20.8624C92.3232 20.926 92.3674 20.9931 92.4221 21.0442C91.947 21.9218 91.3943 22.7483 90.7762 23.0238ZM88.5951 24.3675C87.6697 24.3675 86.6225 24.0391 86.0856 23.2622C85.6671 22.7253 85.0984 22.2168 84.8282 21.5599C84.5598 21.2614 83.6626 17.6749 83.6626 17.1364C83.6626 17.1063 83.6626 16.9863 83.7545 16.9863C84.1112 16.9863 84.77 18.9005 84.8282 19.1689C85.0984 20.0659 85.6052 21.0213 86.0238 21.8583C86.2639 22.2767 86.5924 22.5752 86.8326 22.9937C87.1311 23.0837 87.2794 23.4123 87.6079 23.4723C87.758 23.7407 88.0565 23.7707 88.2349 23.9809C88.3549 23.9809 88.6851 24.0692 88.6851 24.2193C88.6851 24.2793 88.6851 24.3675 88.5951 24.3675ZM95.7087 15.284C95.5585 15.404 95.2901 15.5825 95.3201 15.8226V15.9109C95.0799 16.2711 95.05 16.6878 94.8098 17.0463C94.7868 17.0851 94.7709 17.1257 94.7497 17.1646C95.1188 15.1481 95.2301 12.8348 95.2301 11.5191C95.2301 10.2937 94.8098 9.09823 94.6933 7.87271C94.6314 6.91732 94.6013 5.87022 93.9745 5.09315C93.3458 4.37627 92.4804 3.8394 91.495 3.8394C91.3449 3.8394 91.1965 3.8394 91.0464 3.86774C90.9262 3.77943 90.7762 3.74758 90.6278 3.74758C90.1792 3.74758 89.819 4.0778 89.4004 4.0778C89.2839 4.0778 89.1637 4.04775 89.0719 4.01783L88.9236 4.16792L89.4622 4.19796C89.4923 4.25622 89.5505 4.31619 89.5505 4.37627C89.5505 4.55458 89.0437 4.49632 88.9836 4.79479C88.0264 5.30332 87.0109 6.52702 86.4423 7.42415C86.1138 7.96271 85.8154 8.61963 85.517 9.18823C85.487 9.21646 85.2768 9.66502 85.2185 9.66502C85.2185 9.87519 85.1566 10.0553 85.1284 10.2336C84.89 10.472 85.0384 10.9206 84.7999 11.1607C84.4396 12.2944 84.1412 13.7 84.1412 14.8655C84.1412 14.9556 84.0812 14.9855 83.9911 15.0156C83.9628 14.7454 83.8727 14.4469 83.9028 14.1486V13.9685C84.0229 11.279 84.0812 9.00811 85.6671 6.67723C86.8609 4.91302 88.385 4.6447 88.8335 4.10784C88.7452 4.10784 88.6851 4.0778 88.5951 4.0778C88.3549 4.0778 88.1183 4.19796 87.9982 4.40631C86.2939 4.9731 85.4569 6.52703 84.7399 8.02279C84.6198 8.20111 84.4715 8.32115 84.4396 8.55955C84.3213 9.09823 84.2313 9.60676 84.0229 10.1435C83.9628 10.3537 83.8428 10.6822 83.8428 10.8905C83.8428 11.0707 83.9328 11.249 83.9328 11.4291C83.9328 11.6675 83.9028 11.8777 83.8428 12.1161C83.5143 13.76 83.4242 15.5524 83.4242 17.2264C83.4242 18.5703 84.0229 19.7657 84.4396 20.9913C84.89 22.3068 85.8454 23.3822 86.8609 24.2793L87.6079 24.3994C87.788 24.5477 87.9982 24.6077 88.2349 24.6077C88.5651 24.6077 88.8936 24.4877 89.222 24.5177H89.3422C89.7607 24.2493 90.4777 24.0692 90.8062 23.7107C90.8962 23.6524 90.9563 23.4423 91.0764 23.4423C91.1047 23.4423 91.1347 23.4423 91.1648 23.4723C91.7934 22.7854 92.5705 22.2168 93.1373 21.4998C93.4358 21.1413 93.6159 20.6928 93.8843 20.3043C93.9745 20.1843 93.9745 20.0059 94.1245 19.9158C94.4831 19.0188 95.9171 16.1511 95.9171 15.374V15.284H95.7087Z" stroke="#0B0B0A" stroke-width="0.849765" stroke-miterlimit="10"/>
<path d="M89.4889 24.0968C89.4589 24.0968 89.4289 24.1269 89.4289 24.1569H89.4889C89.4889 24.1269 89.4889 24.1269 89.5172 24.1269C89.5172 24.0968 89.5172 24.0968 89.4889 24.0968Z" fill="#0B0B0A"/>
<path d="M89.4907 24.0968V24.1569" stroke="#0B0B0A" stroke-width="0.849765" stroke-miterlimit="10"/>
<path d="M41.554 39.5961C40.9271 39.8344 40.9271 40.3431 40.4784 40.6715L40.5968 40.7316C40.837 40.4914 41.614 40.163 41.614 39.8045C41.614 39.7444 41.584 39.6543 41.554 39.5961ZM41.3757 38.3406C41.4339 38.2805 41.464 38.1905 41.464 38.1022C41.464 37.9221 41.3757 37.742 41.3757 37.5336C40.957 36.7266 40.7169 35.7994 40.1801 35.0243C39.8197 34.9342 40.0599 34.634 39.7915 34.5158C39.6714 34.0071 39.3729 33.6186 38.9827 33.3202C38.8943 33.1118 38.5959 32.6033 38.3857 32.5132V32.6634C38.5658 32.7816 38.6259 32.9617 38.716 33.1118C39.493 34.3656 40.3884 35.5911 40.867 36.995C41.0154 37.5336 41.3138 38.1905 41.3138 38.7591C41.3138 38.9975 41.2855 39.2059 41.1655 39.416C41.1655 39.476 41.2255 39.5361 41.2855 39.506C41.4339 39.3259 41.464 39.1176 41.464 38.8774C41.464 38.699 41.4339 38.5207 41.3757 38.3406ZM38.2356 32.3031L38.1774 32.3332L38.2356 32.3649V32.3031ZM37.9071 31.5561C37.6086 31.3778 37.6987 31.1093 37.3103 30.8092C37.2802 30.7809 37.3103 30.7192 37.3103 30.6609C37.3103 30.5708 37.1901 30.5708 37.1318 30.5708V30.6908C37.1318 31.1376 37.6387 31.5279 37.8488 31.9464C37.9989 32.0046 37.8488 32.1547 38.1473 32.1547C38.1473 31.9464 37.9672 31.7663 37.9071 31.5561ZM39.1027 26.1473C38.9544 26.1473 38.4157 26.3575 38.2974 26.4758C37.4886 26.7159 36.7133 27.8513 36.7133 28.6883C36.7133 29.3152 36.9818 29.9139 37.0701 30.5407C37.3402 30.9592 37.4886 31.3778 37.9071 31.7063H37.9672C37.8171 31.1093 37.3702 30.5708 37.3702 29.9439C37.1901 29.7355 37.0118 29.4053 37.0118 29.1369C37.0118 28.6284 37.2502 28.1498 37.4604 27.7312C37.8171 27.4628 37.8171 27.0743 38.1473 26.806L38.4758 26.7459C38.6842 26.5376 39.1027 26.3575 39.2229 26.1473H39.1027ZM42.6596 27.6112C42.5713 27.6112 42.4794 27.5529 42.4794 27.4329C41.8242 26.7459 41.3138 26.1191 40.2684 26.1191C39.493 26.1191 38.9244 26.6259 38.2356 26.8942C37.6988 27.4628 37.1901 28.2098 37.1901 29.0469C37.1901 29.4354 37.3103 29.7938 37.5186 30.0923C37.6086 30.7192 38.0573 31.2577 38.0872 31.8846C38.2074 31.9746 38.716 32.5733 38.8042 32.7216C39.1027 33.2902 39.1327 33.1402 39.6414 33.5604C40.2684 34.0972 40.0599 35.0826 40.867 35.7712C41.1955 36.4882 41.8242 37.2051 41.8242 38.0121C41.8242 38.1905 41.7624 38.3406 41.7624 38.5207C41.7624 38.8491 41.8825 39.1776 41.8825 39.506C41.8825 39.6862 41.8524 39.8645 41.7624 39.9846C40.5968 40.7015 40.3584 41 38.8661 41C37.3702 41 37.1018 39.7444 36.1146 39.0274V38.9692C36.1146 38.8774 36.2347 38.7891 36.2347 38.669C36.2347 38.609 36.1746 38.5507 36.1146 38.5507L36.1746 38.4588C36.5032 38.669 36.6833 39.0274 36.9818 39.2977H37.1901C37.5804 40.193 37.9371 40.7015 39.0444 40.7015C39.5213 40.7015 39.9699 40.5815 40.3884 40.3713C41.0772 40.0728 40.8069 39.6543 41.0772 39.1176V38.9074C41.1655 37.2934 38.6541 33.6487 37.4604 32.4532C37.3103 32.0664 36.8916 31.7963 36.8334 31.3778C36.6232 31.0175 36.5032 30.8092 36.5032 30.3624C36.5032 29.7355 36.3531 29.0768 36.3531 28.4199C36.5632 28.0598 36.5932 27.6112 36.8916 27.3127C37.8488 26.3875 38.6541 25.7905 40.0899 25.7905C40.867 25.7905 42.8096 26.3875 42.8096 27.4628C42.8096 27.5229 42.7195 27.6112 42.6596 27.6112Z" fill="#0B0B0A"/>
<path d="M41.554 39.5961C40.9271 39.8344 40.9271 40.3431 40.4784 40.6715L40.5968 40.7316C40.837 40.4914 41.614 40.163 41.614 39.8045C41.614 39.7444 41.584 39.6543 41.554 39.5961ZM41.3757 38.3406C41.4339 38.2805 41.464 38.1905 41.464 38.1022C41.464 37.9221 41.3757 37.742 41.3757 37.5336C40.957 36.7266 40.7169 35.7994 40.1801 35.0243C39.8197 34.9342 40.0599 34.634 39.7915 34.5158C39.6714 34.0071 39.3729 33.6186 38.9827 33.3202C38.8943 33.1118 38.5959 32.6033 38.3857 32.5132V32.6634C38.5658 32.7816 38.6259 32.9617 38.716 33.1118C39.493 34.3656 40.3884 35.5911 40.867 36.995C41.0154 37.5336 41.3138 38.1905 41.3138 38.7591C41.3138 38.9975 41.2855 39.2059 41.1655 39.416C41.1655 39.476 41.2255 39.5361 41.2855 39.506C41.4339 39.3259 41.464 39.1176 41.464 38.8774C41.464 38.699 41.4339 38.5207 41.3757 38.3406ZM38.2356 32.3031L38.1774 32.3332L38.2356 32.3649V32.3031ZM37.9071 31.5561C37.6086 31.3778 37.6987 31.1093 37.3103 30.8092C37.2802 30.7809 37.3103 30.7192 37.3103 30.6609C37.3103 30.5708 37.1901 30.5708 37.1318 30.5708V30.6908C37.1318 31.1376 37.6387 31.5279 37.8488 31.9464C37.9989 32.0046 37.8488 32.1547 38.1473 32.1547C38.1473 31.9464 37.9672 31.7663 37.9071 31.5561ZM39.1027 26.1473C38.9544 26.1473 38.4157 26.3575 38.2974 26.4758C37.4886 26.7159 36.7133 27.8513 36.7133 28.6883C36.7133 29.3152 36.9818 29.9139 37.0701 30.5407C37.3402 30.9592 37.4886 31.3778 37.9071 31.7063H37.9672C37.8171 31.1093 37.3702 30.5708 37.3702 29.9439C37.1901 29.7355 37.0118 29.4053 37.0118 29.1369C37.0118 28.6284 37.2502 28.1498 37.4604 27.7312C37.8171 27.4628 37.8171 27.0743 38.1473 26.806L38.4758 26.7459C38.6842 26.5376 39.1027 26.3575 39.2229 26.1473H39.1027ZM42.6596 27.6112C42.5713 27.6112 42.4794 27.5529 42.4794 27.4329C41.8242 26.7459 41.3138 26.1191 40.2684 26.1191C39.493 26.1191 38.9244 26.6259 38.2356 26.8942C37.6988 27.4628 37.1901 28.2098 37.1901 29.0469C37.1901 29.4354 37.3103 29.7938 37.5186 30.0923C37.6086 30.7192 38.0573 31.2577 38.0872 31.8846C38.2074 31.9746 38.716 32.5733 38.8042 32.7216C39.1027 33.2902 39.1327 33.1402 39.6414 33.5604C40.2684 34.0972 40.0599 35.0826 40.867 35.7712C41.1955 36.4882 41.8242 37.2051 41.8242 38.0121C41.8242 38.1905 41.7624 38.3406 41.7624 38.5207C41.7624 38.8491 41.8825 39.1776 41.8825 39.506C41.8825 39.6862 41.8524 39.8645 41.7624 39.9846C40.5968 40.7015 40.3584 41 38.8661 41C37.3702 41 37.1018 39.7444 36.1146 39.0274V38.9692C36.1146 38.8774 36.2347 38.7891 36.2347 38.669C36.2347 38.609 36.1746 38.5507 36.1146 38.5507L36.1746 38.4588C36.5032 38.669 36.6833 39.0274 36.9818 39.2977H37.1901C37.5804 40.193 37.9371 40.7015 39.0444 40.7015C39.5213 40.7015 39.9699 40.5815 40.3884 40.3713C41.0772 40.0728 40.8069 39.6543 41.0772 39.1176V38.9074C41.1655 37.2934 38.6541 33.6487 37.4604 32.4532C37.3103 32.0664 36.8916 31.7963 36.8334 31.3778C36.6232 31.0175 36.5032 30.8092 36.5032 30.3624C36.5032 29.7355 36.3531 29.0768 36.3531 28.4199C36.5632 28.0598 36.5932 27.6112 36.8916 27.3127C37.8488 26.3875 38.6541 25.7905 40.0899 25.7905C40.867 25.7905 42.8096 26.3875 42.8096 27.4628C42.8096 27.5229 42.7195 27.6112 42.6596 27.6112Z" stroke="#0B0B0A" stroke-width="0.849765" stroke-miterlimit="10"/>
<path d="M51.6033 28.0355C51.4232 27.7652 51.3049 27.5569 50.9146 27.5569C50.8563 27.5569 50.7663 27.6152 50.7663 27.707V27.7353L50.8263 27.707C51.2449 27.707 51.3049 28.0637 51.6033 28.2138V28.0355ZM51.2449 39.0315C51.1247 39.1215 50.9146 39.0616 50.7663 39.0616C50.6762 39.0616 50.5578 39.0915 50.5578 39.2116C50.5578 39.45 51.2449 39.3918 51.3631 39.3918C51.4533 39.3617 51.6935 39.2416 51.6935 39.1215C51.6316 39.0015 51.3631 39.0315 51.2449 39.0315ZM52.112 29.6195C51.8417 29.4093 51.8417 29.0208 51.7517 28.9008L50.9146 28.0355H50.8563C50.5278 28.0355 49.749 30.2746 49.6307 30.6649C49.719 30.7549 49.8391 30.7849 49.9592 30.7849C50.2577 30.7849 50.5278 30.6649 50.8563 30.6949C51.395 30.5747 51.9619 30.6649 52.4988 30.5148L52.112 29.6195ZM48.6735 30.6649C48.6735 30.7549 48.7336 30.8732 48.8536 30.8432H49.002C49.1821 30.8432 49.3322 30.6949 49.3622 30.5148C49.5707 29.8879 50.0193 29.2592 50.0792 28.6323C49.4205 28.9926 48.6735 29.8879 48.6735 30.6649ZM48.7035 31.4118L48.6735 31.44C48.255 31.8003 48.3167 31.7403 48.3167 32.2488C48.3167 32.4572 48.1967 32.6673 48.1967 32.8757C48.1967 33.0258 48.3167 33.1159 48.3167 33.2642C48.3167 33.3543 48.2249 33.5026 48.1967 33.5643C48.1967 33.9829 48.1349 34.3696 48.1349 34.7882C48.1349 35.1166 48.5534 36.8807 48.7636 36.9407C48.7336 36.7606 48.7636 36.6122 48.7636 36.4321C48.7636 36.282 48.7336 36.1319 48.6453 36.0436C48.6735 35.9536 48.7035 35.8653 48.7035 35.7753C48.7035 35.385 48.3751 34.4897 48.3751 34.0112C48.3751 33.3543 48.6735 32.2488 49.002 31.652V31.6219C49.002 31.4719 48.8237 31.4118 48.7035 31.4118ZM52.3504 38.8531C51.6616 39.3017 51.8718 39.6001 50.8563 39.6001C50.4378 39.6001 50.0193 39.51 49.6607 39.3617C47.8665 37.5676 48.1349 36.4621 47.598 34.1912L47.7481 34.0112C47.7481 33.7728 47.688 33.5026 47.688 33.2642C47.688 33.2042 47.8364 32.7256 47.8665 32.6673C47.8364 32.5173 47.8364 32.3689 47.8364 32.2188C47.8364 32.0386 47.9264 31.8003 47.9565 31.6219C47.8364 31.5318 47.688 31.5019 47.538 31.5019C47.1794 31.5019 46.851 31.6219 46.4925 31.6219C45.9539 31.6219 45.3269 31.652 44.7582 31.5602V31.4719C44.7582 31.3518 44.9984 31.3218 45.0885 31.3218C45.8355 31.3218 46.6126 31.3518 47.3296 31.1416V31.1134C47.3296 31.0533 47.1194 31.0834 47.0894 31.0834C47.0311 31.0834 47.0011 31.0533 47.0011 31.0233C47.4497 30.8131 48.2249 31.2316 48.2249 30.5448C48.2249 29.8278 49.002 29.1409 49.4506 28.6323C49.9292 28.0055 50.3477 27.2585 51.2449 27.2585H51.3631C52.1703 27.6152 51.9319 28.454 52.4988 28.9926C52.4988 29.2909 52.6489 29.5894 52.6489 29.8879C52.8891 30.1863 52.7972 30.4246 52.9173 30.7549C52.112 31.0834 50.3177 31.1134 49.3622 31.3218C48.9137 32.0987 48.7035 32.8757 48.7035 33.7428C48.7035 35.2667 49.122 36.6705 49.3923 38.1644C49.4205 38.2546 49.4205 38.583 49.6006 38.5547H49.719C49.9291 38.5547 50.1375 38.7631 50.2877 38.9114C50.4078 38.9114 50.5578 38.9432 50.6762 38.9432C51.2748 38.9432 52.4705 38.703 52.7972 38.1344C53.3358 37.2391 53.6643 36.6122 53.6643 35.5668C53.6643 35.3568 53.6061 34.1312 53.8144 34.1312C53.9628 34.1312 54.0246 34.668 54.0246 34.7581C54.0246 36.3421 53.7261 37.926 52.3504 38.8531Z" fill="#0B0B0A"/>
<path d="M51.6033 28.0355C51.4232 27.7652 51.3049 27.5569 50.9146 27.5569C50.8563 27.5569 50.7663 27.6152 50.7663 27.707V27.7353L50.8263 27.707C51.2449 27.707 51.3049 28.0637 51.6033 28.2138V28.0355ZM51.2449 39.0315C51.1247 39.1215 50.9146 39.0616 50.7663 39.0616C50.6762 39.0616 50.5578 39.0915 50.5578 39.2116C50.5578 39.45 51.2449 39.3918 51.3631 39.3918C51.4533 39.3617 51.6935 39.2417 51.6935 39.1215C51.6316 39.0015 51.3631 39.0315 51.2449 39.0315ZM52.112 29.6195C51.8417 29.4093 51.8417 29.0208 51.7517 28.9008L50.9146 28.0355H50.8563C50.5278 28.0355 49.749 30.2746 49.6307 30.6649C49.719 30.7549 49.8391 30.7849 49.9592 30.7849C50.2577 30.7849 50.5278 30.6649 50.8563 30.6949C51.395 30.5747 51.9619 30.6649 52.4988 30.5148L52.112 29.6195ZM48.6735 30.6649C48.6735 30.7549 48.7336 30.8732 48.8536 30.8432H49.002C49.1821 30.8432 49.3322 30.6949 49.3622 30.5148C49.5707 29.8879 50.0193 29.2592 50.0792 28.6323C49.4205 28.9926 48.6735 29.8879 48.6735 30.6649ZM48.7035 31.4118L48.6735 31.44C48.255 31.8003 48.3167 31.7403 48.3167 32.2488C48.3167 32.4572 48.1967 32.6673 48.1967 32.8757C48.1967 33.0258 48.3167 33.1159 48.3167 33.2642C48.3167 33.3543 48.2249 33.5026 48.1967 33.5643C48.1967 33.9829 48.1349 34.3696 48.1349 34.7882C48.1349 35.1166 48.5534 36.8807 48.7636 36.9407C48.7336 36.7606 48.7636 36.6122 48.7636 36.4321C48.7636 36.282 48.7336 36.1319 48.6453 36.0436C48.6735 35.9536 48.7035 35.8653 48.7035 35.7753C48.7035 35.385 48.3751 34.4897 48.3751 34.0112C48.3751 33.3543 48.6735 32.2488 49.002 31.652V31.6219C49.002 31.4719 48.8237 31.4118 48.7035 31.4118ZM52.3504 38.8531C51.6616 39.3017 51.8718 39.6001 50.8563 39.6001C50.4378 39.6001 50.0193 39.51 49.6607 39.3617C47.8665 37.5676 48.1349 36.4621 47.598 34.1912L47.7481 34.0112C47.7481 33.7728 47.688 33.5026 47.688 33.2642C47.688 33.2042 47.8364 32.7256 47.8665 32.6673C47.8364 32.5173 47.8364 32.3689 47.8364 32.2188C47.8364 32.0386 47.9264 31.8003 47.9565 31.6219C47.8364 31.5318 47.688 31.5019 47.538 31.5019C47.1794 31.5019 46.851 31.6219 46.4925 31.6219C45.9539 31.6219 45.3269 31.652 44.7582 31.5602V31.4719C44.7582 31.3518 44.9984 31.3218 45.0885 31.3218C45.8355 31.3218 46.6126 31.3518 47.3296 31.1416V31.1134C47.3296 31.0533 47.1194 31.0834 47.0894 31.0834C47.0311 31.0834 47.0011 31.0533 47.0011 31.0233C47.4497 30.8131 48.2249 31.2316 48.2249 30.5448C48.2249 29.8278 49.002 29.1409 49.4506 28.6323C49.9292 28.0055 50.3477 27.2585 51.2449 27.2585H51.3631C52.1703 27.6152 51.9319 28.454 52.4988 28.9926C52.4988 29.2909 52.6489 29.5894 52.6489 29.8879C52.8891 30.1863 52.7972 30.4246 52.9173 30.7549C52.112 31.0834 50.3177 31.1134 49.3622 31.3218C48.9137 32.0987 48.7035 32.8757 48.7035 33.7428C48.7035 35.2667 49.122 36.6705 49.3923 38.1644C49.4205 38.2546 49.4205 38.583 49.6006 38.5547H49.719C49.9291 38.5547 50.1375 38.7631 50.2877 38.9114C50.4078 38.9114 50.5578 38.9432 50.6762 38.9432C51.2748 38.9432 52.4705 38.703 52.7972 38.1344C53.3358 37.2391 53.6643 36.6122 53.6643 35.5668C53.6643 35.3568 53.6061 34.1312 53.8144 34.1312C53.9628 34.1312 54.0246 34.668 54.0246 34.7581C54.0246 36.3421 53.7261 37.926 52.3504 38.8531Z" stroke="#0B0B0A" stroke-width="0.849765" stroke-miterlimit="10"/>
<path d="M63.7009 28.0355C63.5208 27.7652 63.4006 27.5569 63.0121 27.5569C62.9539 27.5569 62.8637 27.6152 62.8637 27.707V27.7353L62.9238 27.707C63.3423 27.707 63.4006 28.0637 63.7009 28.2138V28.0355ZM63.3423 39.0315C63.2223 39.1215 63.0121 39.0616 62.8637 39.0616C62.7737 39.0616 62.6554 39.0915 62.6554 39.2116C62.6554 39.45 63.3423 39.3918 63.4607 39.3918C63.5508 39.3617 63.7909 39.2416 63.7909 39.1215C63.7291 39.0015 63.4607 39.0315 63.3423 39.0315ZM64.2095 29.6195C63.9393 29.4093 63.9393 29.0208 63.8493 28.9008L63.0121 28.0355H62.9539C62.6253 28.0355 61.8466 30.2746 61.7282 30.6649C61.8165 30.7549 61.9366 30.7849 62.0567 30.7849C62.3552 30.7849 62.6253 30.6649 62.9539 30.6949C63.4925 30.5747 64.0593 30.6649 64.5963 30.5148L64.2095 29.6195ZM60.771 30.6649C60.771 30.7549 60.8311 30.8732 60.9511 30.8432H61.0995C61.2797 30.8432 61.4297 30.6949 61.4598 30.5148C61.6681 29.8879 62.1167 29.2592 62.1768 28.6323C61.518 28.9926 60.771 29.8879 60.771 30.6649ZM60.8011 31.4118L60.771 31.44C60.3525 31.8003 60.4143 31.7403 60.4143 32.2488C60.4143 32.4572 60.2942 32.6673 60.2942 32.8757C60.2942 33.0258 60.4143 33.1159 60.4143 33.2642C60.4143 33.3543 60.3224 33.5026 60.2942 33.5643C60.2942 33.9829 60.2324 34.3696 60.2324 34.7882C60.2324 35.1166 60.651 36.8807 60.8611 36.9407C60.8311 36.7606 60.8611 36.6122 60.8611 36.4321C60.8611 36.282 60.8311 36.1319 60.7428 36.0436C60.771 35.9536 60.8011 35.8653 60.8011 35.7753C60.8011 35.385 60.4725 34.4897 60.4725 34.0112C60.4725 33.3543 60.771 32.2488 61.0995 31.652V31.6219C61.0995 31.4719 60.9211 31.4118 60.8011 31.4118ZM64.4479 38.8531C63.7591 39.3017 63.9693 39.6001 62.9539 39.6001C62.5353 39.6001 62.1167 39.51 61.7583 39.3617C59.9639 37.5676 60.2324 36.4621 59.6955 34.1912L59.8457 34.0112C59.8457 33.7728 59.7856 33.5026 59.7856 33.2642C59.7856 33.2042 59.934 32.7256 59.9639 32.6673C59.934 32.5173 59.934 32.3689 59.934 32.2188C59.934 32.0386 60.024 31.8003 60.054 31.6219C59.934 31.5318 59.7856 31.5019 59.6355 31.5019C59.2769 31.5019 58.9485 31.6219 58.59 31.6219C58.0513 31.6219 57.4244 31.652 56.8557 31.5602V31.4719C56.8557 31.3518 57.0959 31.3218 57.186 31.3218C57.9331 31.3218 58.71 31.3518 59.427 31.1416V31.1134C59.427 31.0533 59.217 31.0834 59.1869 31.0834C59.1287 31.0834 59.0986 31.0533 59.0986 31.0233C59.5472 30.8131 60.3225 31.2316 60.3225 30.5448C60.3225 29.8278 61.0995 29.1409 61.5481 28.6323C62.0267 28.0055 62.4452 27.2585 63.3423 27.2585H63.4607C64.2678 27.6152 64.0294 28.454 64.5963 28.9926C64.5963 29.2909 64.7464 29.5894 64.7464 29.8879C64.9866 30.1863 64.8947 30.4246 65.0148 30.7549C64.2095 31.0834 62.4152 31.1134 61.4598 31.3218C61.0112 32.0987 60.8011 32.8757 60.8011 33.7428C60.8011 35.2667 61.2196 36.6705 61.488 38.1644C61.518 38.2546 61.518 38.583 61.6982 38.5547H61.8165C62.0267 38.5547 62.235 38.7631 62.3851 38.9114C62.5053 38.9114 62.6554 38.9432 62.7737 38.9432C63.3724 38.9432 64.568 38.703 64.8947 38.1344C65.4333 37.2391 65.7619 36.6122 65.7619 35.5668C65.7619 35.3568 65.7036 34.1312 65.9119 34.1312C66.0603 34.1312 66.1221 34.668 66.1221 34.7581C66.1221 36.3421 65.8236 37.926 64.4479 38.8531Z" fill="#0B0B0A"/>
<path d="M63.7009 28.0355C63.5208 27.7652 63.4006 27.5569 63.0121 27.5569C62.9539 27.5569 62.8637 27.6152 62.8637 27.707V27.7353L62.9238 27.707C63.3423 27.707 63.4006 28.0637 63.7009 28.2138V28.0355ZM63.3423 39.0315C63.2223 39.1215 63.0121 39.0616 62.8637 39.0616C62.7737 39.0616 62.6554 39.0915 62.6554 39.2116C62.6554 39.45 63.3423 39.3918 63.4607 39.3918C63.5508 39.3617 63.7909 39.2417 63.7909 39.1215C63.7291 39.0015 63.4607 39.0315 63.3423 39.0315ZM64.2095 29.6195C63.9393 29.4093 63.9393 29.0208 63.8493 28.9008L63.0121 28.0355H62.9539C62.6253 28.0355 61.8466 30.2746 61.7282 30.6649C61.8165 30.7549 61.9366 30.7849 62.0567 30.7849C62.3552 30.7849 62.6253 30.6649 62.9539 30.6949C63.4925 30.5747 64.0593 30.6649 64.5963 30.5148L64.2095 29.6195ZM60.771 30.6649C60.771 30.7549 60.8311 30.8732 60.9511 30.8432H61.0995C61.2797 30.8432 61.4297 30.6949 61.4598 30.5148C61.6681 29.8879 62.1167 29.2592 62.1768 28.6323C61.518 28.9926 60.771 29.8879 60.771 30.6649ZM60.8011 31.4118L60.771 31.44C60.3525 31.8003 60.4143 31.7403 60.4143 32.2488C60.4143 32.4572 60.2942 32.6673 60.2942 32.8757C60.2942 33.0258 60.4143 33.1159 60.4143 33.2642C60.4143 33.3543 60.3224 33.5026 60.2942 33.5643C60.2942 33.9829 60.2324 34.3696 60.2324 34.7882C60.2324 35.1166 60.651 36.8807 60.8611 36.9407C60.8311 36.7606 60.8611 36.6122 60.8611 36.4321C60.8611 36.282 60.8311 36.1319 60.7428 36.0436C60.771 35.9536 60.8011 35.8653 60.8011 35.7753C60.8011 35.385 60.4725 34.4897 60.4725 34.0112C60.4725 33.3543 60.771 32.2488 61.0995 31.652V31.6219C61.0995 31.4719 60.9211 31.4118 60.8011 31.4118ZM64.4479 38.8531C63.7591 39.3017 63.9693 39.6001 62.9539 39.6001C62.5353 39.6001 62.1167 39.51 61.7583 39.3617C59.9639 37.5676 60.2324 36.4621 59.6955 34.1912L59.8457 34.0112C59.8457 33.7728 59.7856 33.5026 59.7856 33.2642C59.7856 33.2042 59.934 32.7256 59.9639 32.6673C59.934 32.5173 59.934 32.3689 59.934 32.2188C59.934 32.0386 60.024 31.8003 60.054 31.6219C59.934 31.5318 59.7856 31.5019 59.6355 31.5019C59.2769 31.5019 58.9485 31.6219 58.59 31.6219C58.0513 31.6219 57.4244 31.652 56.8557 31.5602V31.4719C56.8557 31.3518 57.0959 31.3218 57.186 31.3218C57.9331 31.3218 58.71 31.3518 59.427 31.1416V31.1134C59.427 31.0533 59.217 31.0834 59.1869 31.0834C59.1287 31.0834 59.0986 31.0533 59.0986 31.0233C59.5472 30.8131 60.3225 31.2316 60.3225 30.5448C60.3225 29.8278 61.0995 29.1409 61.5481 28.6323C62.0267 28.0055 62.4452 27.2585 63.3423 27.2585H63.4607C64.2678 27.6152 64.0294 28.454 64.5963 28.9926C64.5963 29.2909 64.7464 29.5894 64.7464 29.8879C64.9866 30.1863 64.8947 30.4246 65.0148 30.7549C64.2095 31.0834 62.4152 31.1134 61.4598 31.3218C61.0112 32.0987 60.8011 32.8757 60.8011 33.7428C60.8011 35.2667 61.2196 36.6705 61.488 38.1644C61.518 38.2546 61.518 38.583 61.6982 38.5547H61.8165C62.0267 38.5547 62.235 38.7631 62.3851 38.9114C62.5053 38.9114 62.6554 38.9432 62.7737 38.9432C63.3724 38.9432 64.568 38.703 64.8947 38.1344C65.4333 37.2391 65.7619 36.6122 65.7619 35.5668C65.7619 35.3568 65.7036 34.1312 65.9119 34.1312C66.0603 34.1312 66.1221 34.668 66.1221 34.7581C66.1221 36.3421 65.8236 37.926 64.4479 38.8531Z" stroke="#0B0B0A" stroke-width="0.849765" stroke-miterlimit="10"/>
<path d="M78.5492 32.9644L78.4592 33.1145C78.4592 33.1728 78.4892 33.2347 78.5492 33.2629C78.5775 33.2347 78.6076 33.1728 78.6076 33.1429C78.6076 33.0846 78.5775 33.0245 78.5492 32.9644ZM78.0106 37.5063C77.9505 37.6564 77.9223 37.8064 77.9223 37.9548C77.9223 38.1949 77.9505 39.2103 78.1006 39.3004C78.1907 39.1203 78.2208 38.9119 78.2208 38.7318C78.2208 38.4934 78.2208 37.5363 78.0106 37.5063ZM77.9223 29.8566C77.9223 29.9466 77.8605 30.065 77.8605 30.1568C77.8605 30.215 77.9223 30.3051 77.9505 30.3051C78.0706 30.3051 78.1589 30.0367 78.2208 29.9466C78.2208 29.8266 77.9806 29.8566 77.9223 29.8566ZM78.0106 31.5907C78.0106 31.4105 78.1589 31.2304 78.1589 31.0521V30.992C78.0706 30.8737 78.1307 30.4835 78.0106 30.4835C77.9505 30.4835 77.8305 30.5753 77.8021 30.6035C77.7722 31.1721 77.7722 31.769 77.7722 32.3376V33.3529C77.7722 34.4001 77.7121 35.5938 77.8605 36.611C77.8923 36.7594 77.8923 36.9677 78.0706 36.9677C78.2208 36.3709 78.1907 35.6839 78.1907 35.0871C78.1907 34.25 78.0706 33.443 78.0706 32.606C78.0706 32.3676 78.1006 32.0975 78.2208 31.8891C78.1006 31.829 78.0106 31.7407 78.0106 31.5907ZM77.2636 30.0067C76.6949 30.185 76.158 30.4252 75.6495 30.7536L75.7395 30.7837C75.9478 30.5753 76.9651 30.3934 77.2636 30.3934C77.4738 30.3934 77.5621 30.305 77.5621 30.095C77.5621 29.9766 77.3536 30.0067 77.2636 30.0067ZM77.4738 32.0392C77.6521 31.5907 77.4419 31.1421 77.5621 30.6935L77.4738 30.5434H77.2936C76.5766 30.4835 76.0097 31.022 75.2909 31.0521C75.1125 31.2604 74.8123 31.2304 74.604 31.4406C73.4683 31.769 72.4512 32.636 71.584 33.413C71.0471 33.8898 70.8369 34.8469 70.8688 35.5355C70.7787 35.6839 70.7486 35.864 70.7486 36.0123C70.7486 37.5063 72.5129 37.9849 73.7067 37.9849C74.7522 37.9849 76.6066 37.5981 77.5038 37.1178C77.5038 36.9395 77.532 36.7594 77.622 36.611C77.4119 35.117 77.532 33.5331 77.4738 32.0392ZM71.8242 37.8064C71.1973 37.7164 70.6887 37.1178 70.5386 36.521C70.5085 36.3709 70.6004 36.2826 70.6004 36.1325C70.6004 36.0724 70.5685 36.0424 70.5386 35.9841C70.1199 36.1624 70.0017 36.641 69.9116 37.0595C70.3601 37.9849 71.584 38.345 72.5412 38.4634C72.7213 38.345 73.1682 38.5535 73.26 38.3151C72.8396 37.9849 72.2427 38.1331 71.8242 37.8064ZM70.1199 35.6839C69.9699 35.834 69.6432 36.0123 69.6432 36.2507C69.6432 36.2826 69.6432 36.3408 69.6714 36.3709L69.8215 36.3126C69.8533 36.1024 70.1199 35.9223 70.1199 35.714V35.6839ZM80.0432 36.731C79.5947 36.7594 79.2062 37.0295 78.7894 37.2078C78.6076 37.8966 78.6693 38.6435 78.6693 39.3605C78.6693 39.5688 78.6693 39.7789 78.6393 39.9874H78.5775C78.4291 39.9573 78.2508 40.1657 78.1006 40.1657C78.0407 40.1657 77.9806 40.1374 77.9223 40.0774C77.7121 39.3605 77.6521 38.5535 77.6521 37.8064L77.5621 37.5981C76.6949 37.8647 75.8595 38.2532 74.9624 38.2532C74.4838 38.4333 73.26 38.5234 72.7213 38.5234C71.1673 38.5234 71.3174 38.165 70.0617 37.7164C69.9699 37.6263 69.9116 37.6864 69.8215 37.7164C69.463 36.9094 69.343 37.1178 69.343 36.1624C69.343 36.0424 69.3429 35.9223 69.4029 35.834C69.7032 35.5938 69.8533 34.0098 70.2101 33.9516C72.6913 31.3222 74.1254 30.5135 77.5621 29.5581L77.6521 29.348V28.3326C77.6821 28.3626 77.6821 28.3927 77.6821 28.3927C77.7121 28.3927 77.7422 28.3626 77.7422 28.3326C77.8021 28.0642 77.8021 27.734 77.8021 27.4356L77.8305 27.1071C77.8305 26.7186 77.5621 26.5986 77.5621 25.8834C77.5621 25.4031 77.6821 24.8963 77.6821 24.3877C77.6821 24.1794 77.622 24.0009 77.5921 23.7608C77.4119 22.7437 77.4419 21.6382 77.4419 20.6229C77.4419 19.6375 77.4738 18.6204 77.5038 17.6332C77.4419 17.605 77.5038 16.708 77.5038 16.5596C77.5038 16.3795 77.5038 15.8127 77.5621 16.0211C77.4738 15.6025 77.4419 15.154 77.3836 14.7355C77.4119 14.6755 77.4119 14.6471 77.4119 14.6154C77.4119 14.4971 77.3836 14.4071 77.3836 14.3169L77.4419 14.1668H77.532C78.0106 14.1668 78.0706 16.0493 78.0706 16.4978C78.0706 17.0664 77.9223 17.605 77.9223 18.1718C77.9223 19.1589 77.9806 20.1143 77.9806 21.0714C77.9806 21.4581 77.9806 21.9968 78.1907 22.3552C78.4291 22.2051 78.3091 21.9066 78.3091 21.6682C78.3091 20.0242 78.4291 18.3803 78.3991 16.708H78.4892L78.5492 16.7962C78.6076 17.0665 78.5775 17.4249 78.5775 17.695C78.5775 19.9359 78.3691 22.1468 78.3691 24.3877C78.3691 24.4178 78.3991 24.5678 78.3691 24.5978C78.3408 24.4178 78.1907 23.0138 78.1307 22.9838C78.1006 23.0721 78.1006 23.1922 78.1006 23.2822C78.1006 24.0009 78.1307 24.7179 78.1589 25.4348C78.1589 26.2401 78.2508 27.1672 78.4592 27.9742C78.4592 28.0042 78.5193 28.1243 78.5492 28.1243C78.6076 27.9742 78.6076 27.7959 78.6076 27.6457C78.6393 27.8541 78.6693 28.0942 78.7577 28.3026C78.7276 28.2443 78.7276 28.0342 78.6693 27.9742C78.6076 28.1525 78.6076 28.5428 78.6076 28.7211C78.6076 28.9294 78.5492 29.2897 78.7894 29.348H78.9378C79.0261 29.348 79.1461 29.378 79.2362 29.4099C79.2362 29.7082 78.8176 29.5281 78.6393 29.7082C78.6393 30.8737 78.9077 32.0074 78.9077 33.1728C78.9077 33.5031 78.8777 33.8315 78.8777 34.1599C78.8777 34.907 78.9678 35.744 78.8477 36.4609C78.9378 36.5809 79.0261 36.641 79.1461 36.641C79.3863 36.641 79.5647 36.521 79.7731 36.521C79.8631 36.4609 79.9833 36.4327 80.1033 36.4327C80.1634 36.4327 80.2534 36.4609 80.3417 36.4609V36.551C80.3417 36.6692 80.1334 36.7011 80.0432 36.731Z" fill="#0B0B0A"/>
<path d="M78.5492 32.9644L78.4592 33.1145C78.4592 33.1728 78.4892 33.2347 78.5492 33.2629C78.5775 33.2347 78.6076 33.1729 78.6076 33.1429C78.6076 33.0846 78.5775 33.0245 78.5492 32.9644ZM78.0106 37.5063C77.9505 37.6564 77.9223 37.8065 77.9223 37.9548C77.9223 38.1949 77.9505 39.2103 78.1006 39.3004C78.1907 39.1203 78.2208 38.9119 78.2208 38.7318C78.2208 38.4934 78.2208 37.5363 78.0106 37.5063ZM77.9223 29.8566C77.9223 29.9466 77.8605 30.065 77.8605 30.1568C77.8605 30.215 77.9223 30.3051 77.9505 30.3051C78.0706 30.3051 78.1589 30.0367 78.2208 29.9466C78.2208 29.8266 77.9806 29.8566 77.9223 29.8566ZM78.0106 31.5907C78.0106 31.4105 78.1589 31.2304 78.1589 31.0521V30.992C78.0706 30.8737 78.1307 30.4835 78.0106 30.4835C77.9505 30.4835 77.8305 30.5753 77.8022 30.6035C77.7722 31.1721 77.7722 31.769 77.7722 32.3376V33.3529C77.7722 34.4001 77.7121 35.5938 77.8605 36.611C77.8923 36.7594 77.8923 36.9677 78.0706 36.9677C78.2208 36.3709 78.1907 35.6839 78.1907 35.0871C78.1907 34.25 78.0706 33.443 78.0706 32.606C78.0706 32.3676 78.1006 32.0975 78.2208 31.8891C78.1006 31.829 78.0106 31.7407 78.0106 31.5907ZM77.2636 30.0067C76.6949 30.185 76.158 30.4252 75.6495 30.7536L75.7395 30.7837C75.9478 30.5753 76.9651 30.3934 77.2636 30.3934C77.4738 30.3934 77.5621 30.305 77.5621 30.095C77.5621 29.9766 77.3536 30.0067 77.2636 30.0067ZM77.4738 32.0392C77.6521 31.5907 77.4419 31.1421 77.5621 30.6935L77.4738 30.5434H77.2936C76.5766 30.4835 76.0097 31.022 75.2909 31.0521C75.1125 31.2604 74.8123 31.2304 74.604 31.4406C73.4683 31.769 72.4512 32.636 71.584 33.413C71.0471 33.8898 70.8369 34.8469 70.8688 35.5355C70.7787 35.6839 70.7486 35.864 70.7486 36.0123C70.7486 37.5063 72.5129 37.9849 73.7067 37.9849C74.7522 37.9849 76.6066 37.5981 77.5038 37.1178C77.5038 36.9395 77.532 36.7594 77.622 36.611C77.4119 35.117 77.532 33.5331 77.4738 32.0392ZM71.8242 37.8064C71.1973 37.7164 70.6887 37.1178 70.5386 36.521C70.5085 36.3709 70.6004 36.2826 70.6004 36.1325C70.6004 36.0724 70.5685 36.0424 70.5386 35.9841C70.1199 36.1624 70.0017 36.641 69.9116 37.0595C70.3601 37.9849 71.584 38.345 72.5412 38.4634C72.7213 38.345 73.1682 38.5535 73.26 38.3151C72.8396 37.9849 72.2427 38.1331 71.8242 37.8064ZM70.1199 35.6839C69.9699 35.834 69.6432 36.0123 69.6432 36.2507C69.6432 36.2826 69.6432 36.3408 69.6714 36.3709L69.8215 36.3126C69.8533 36.1024 70.1199 35.9223 70.1199 35.714V35.6839ZM80.0432 36.731C79.5947 36.7594 79.2062 37.0295 78.7894 37.2078C78.6076 37.8966 78.6693 38.6435 78.6693 39.3605C78.6693 39.5688 78.6693 39.7789 78.6393 39.9874H78.5775C78.4291 39.9573 78.2508 40.1657 78.1006 40.1657C78.0407 40.1657 77.9806 40.1374 77.9223 40.0774C77.7121 39.3605 77.6521 38.5535 77.6521 37.8064L77.5621 37.5981C76.6949 37.8647 75.8595 38.2532 74.9624 38.2532C74.4838 38.4333 73.26 38.5234 72.7213 38.5234C71.1673 38.5234 71.3174 38.165 70.0617 37.7164C69.9699 37.6263 69.9116 37.6864 69.8215 37.7164C69.463 36.9094 69.343 37.1178 69.343 36.1624C69.343 36.0424 69.3429 35.9223 69.4029 35.834C69.7032 35.5938 69.8533 34.0098 70.2101 33.9516C72.6913 31.3222 74.1254 30.5135 77.5621 29.5581L77.6521 29.348V28.3326C77.6821 28.3626 77.6821 28.3927 77.6821 28.3927C77.7121 28.3927 77.7422 28.3626 77.7422 28.3326C77.8021 28.0642 77.8022 27.734 77.8022 27.4356L77.8305 27.1071C77.8305 26.7186 77.5621 26.5986 77.5621 25.8834C77.5621 25.4031 77.6821 24.8963 77.6821 24.3877C77.6821 24.1794 77.622 24.0009 77.5921 23.7608C77.4119 22.7437 77.4419 21.6382 77.4419 20.6229C77.4419 19.6375 77.4738 18.6204 77.5038 17.6332C77.4419 17.605 77.5038 16.708 77.5038 16.5596C77.5038 16.3795 77.5038 15.8127 77.5621 16.0211C77.4738 15.6025 77.4419 15.154 77.3836 14.7355C77.4119 14.6755 77.4119 14.6471 77.4119 14.6154C77.4119 14.4971 77.3836 14.4071 77.3836 14.3169L77.4419 14.1668H77.532C78.0106 14.1668 78.0706 16.0493 78.0706 16.4978C78.0706 17.0664 77.9223 17.605 77.9223 18.1718C77.9223 19.1589 77.9806 20.1143 77.9806 21.0714C77.9806 21.4581 77.9806 21.9968 78.1907 22.3552C78.4291 22.2051 78.3091 21.9066 78.3091 21.6682C78.3091 20.0242 78.4291 18.3803 78.3991 16.708H78.4892L78.5492 16.7962C78.6076 17.0665 78.5775 17.4249 78.5775 17.695C78.5775 19.9359 78.3691 22.1468 78.3691 24.3877C78.3691 24.4178 78.3991 24.5678 78.3691 24.5978C78.3408 24.4178 78.1907 23.0138 78.1307 22.9838C78.1006 23.0721 78.1006 23.1922 78.1006 23.2822C78.1006 24.0009 78.1307 24.7179 78.1589 25.4348C78.1589 26.2401 78.2508 27.1672 78.4592 27.9742C78.4592 28.0042 78.5193 28.1243 78.5492 28.1243C78.6076 27.9742 78.6076 27.7959 78.6076 27.6457C78.6393 27.8541 78.6693 28.0942 78.7577 28.3026C78.7276 28.2443 78.7276 28.0342 78.6693 27.9742C78.6076 28.1525 78.6076 28.5428 78.6076 28.7211C78.6076 28.9294 78.5492 29.2897 78.7894 29.348H78.9378C79.0261 29.348 79.1461 29.378 79.2362 29.4099C79.2362 29.7082 78.8176 29.5281 78.6393 29.7082C78.6393 30.8737 78.9077 32.0074 78.9077 33.1729C78.9077 33.5031 78.8777 33.8315 78.8777 34.1599C78.8777 34.907 78.9678 35.744 78.8477 36.4609C78.9378 36.5809 79.0261 36.641 79.1461 36.641C79.3863 36.641 79.5647 36.521 79.7731 36.521C79.8631 36.4609 79.9833 36.4327 80.1033 36.4327C80.1634 36.4327 80.2534 36.4609 80.3417 36.4609V36.551C80.3417 36.6692 80.1334 36.7011 80.0432 36.731Z" stroke="#0B0B0A" stroke-width="0.849765" stroke-miterlimit="10"/>
</svg>
