<svg width="96" height="96" viewBox="0 0 96 96" fill="none" xmlns="http://www.w3.org/2000/svg">
<rect width="96" height="96" fill="#0B0B0A"/>
<path d="M55.3459 48.0294H54.8622L56.6182 47.6381C56.4165 47.736 55.4435 48.0294 55.3459 48.0294ZM57.2974 47.6381H56.8082L57.2974 47.3502C56.8082 47.3502 56.4165 47.3502 56.0251 47.1547C53.8837 47.5401 51.644 47.6381 49.6006 48.0294C49.5026 48.0294 49.3068 48.2252 49.3068 48.2252C49.3068 48.3232 49.3068 48.3231 49.4047 48.4152C50.3777 48.4152 51.3562 48.611 52.4271 48.611C53.3021 48.611 54.2751 48.3232 55.156 48.2252C54.373 48.8065 51.644 48.7089 50.5735 48.7089C50.1818 48.7089 49.894 48.8065 49.6006 48.9044C49.7905 49.4916 50.4756 49.6874 50.6711 50.2687C52.8128 52.4101 54.7643 55.4321 56.3189 57.9649C56.3189 58.2586 56.4165 58.7479 56.6182 58.9378V59.3291C56.6182 59.525 56.9061 59.8184 57.1016 59.9108H57.1995C57.1995 60.0083 57.1016 60.1063 57.1016 60.2042C57.1016 60.5955 57.9766 60.8893 57.9766 61.1827C57.9766 61.2751 57.9766 61.3785 57.8787 61.3785C57.0036 61.2751 56.8082 60.7914 56.4165 60.1063C55.5414 59.525 55.346 58.2586 54.2751 57.7694C54.0792 56.9923 53.5899 57.0902 53.3021 56.3071L52.4271 54.3616C52.8129 54.4595 53.1063 54.7529 53.1063 55.1387C53.6879 56.503 54.6664 57.3836 55.3459 58.6444C55.6393 58.7479 55.6393 59.1337 56.0251 59.2312C55.4435 57.5794 54.4709 55.4321 52.9108 54.3616C52.9108 54.0678 52.8129 53.6765 52.4271 53.6765C52.2257 53.6765 52.2257 54.0678 52.3291 54.1657C51.9378 53.5845 51.7419 52.9973 51.1548 52.606L51.2527 52.4101C51.2527 51.9264 50.9648 51.5351 50.5735 51.4372C50.3777 50.758 49.6005 51.4372 49.2088 50.66C48.9154 49.9753 48.0404 49.7854 47.4532 49.7854C45.7032 52.4101 39.2726 58.552 38.3917 61.1827C37.8104 61.2751 37.4187 61.6664 36.8374 61.6664C36.7395 61.6664 36.3482 61.6664 36.3482 61.4706C36.3482 61.2751 36.7395 61.0792 36.8374 60.7914C37.8104 59.2312 46.4802 50.1708 46.4802 49.0023C46.4802 48.7089 45.8007 48.5186 45.5073 48.5186C45.2135 48.4152 44.8281 48.3232 44.5284 48.3232C43.6534 48.3232 42.8763 48.5186 42.0012 48.5186C39.9577 48.5186 37.8104 48.9044 35.6686 48.9044C35.2773 48.9044 35.4732 48.5186 35.1794 48.2252C35.8586 48.1273 36.4457 47.6381 37.1309 47.6381C37.3208 47.6381 37.7125 47.736 38.0059 47.9318C38.5931 47.9318 39.1747 48.0294 39.756 48.0294C41.9033 48.0294 44.9201 47.9318 46.9636 47.4422C47.0674 47.3502 47.1654 47.3502 47.1654 47.2467C47.1654 47.1547 46.6758 47.0568 46.7737 46.763C46.7737 46.3717 44.5284 44.4261 44.5284 43.8389C44.6322 43.8389 44.6322 43.741 44.6322 43.741C44.6322 42.6705 41.2182 38.6755 40.3432 37.7026V37.6047C40.3432 37.0175 39.8539 36.7296 39.8539 36.2404C39.8539 36.0449 40.1477 35.849 40.3432 35.849C40.6369 35.849 40.8328 36.2404 41.0227 36.4362C40.9307 36.5341 40.8328 36.6321 40.8328 36.7296C40.8328 37.2133 42.9742 39.9419 43.1641 39.9419C43.2679 39.9419 43.268 39.6481 43.3659 39.6481C45.6052 41.0124 46.1924 43.5511 47.6487 45.4966C49.1109 45.4966 52.3291 37.6047 54.1771 36.9255H54.373C52.7149 39.3603 50.8669 41.6975 49.5026 44.3282L49.6925 44.524C50.5735 44.1323 50.3777 43.1597 50.7634 42.866C50.9648 42.5726 51.9378 41.9909 51.9378 41.6975C51.9378 41.5017 54.373 38.4797 54.8622 37.4092C55.346 36.9255 55.6393 36.3383 56.1286 35.757L55.4435 35.947C55.6394 35.1698 57.2974 34.1969 58.0745 34.2948C57.1995 35.849 55.5414 36.7296 54.8622 38.3818C53.9813 40.2353 53.0087 41.3062 51.742 42.866V42.9639C51.742 43.2573 51.1548 43.5511 51.1548 43.8389C50.5735 44.8115 48.7196 45.888 48.7196 47.2467C49.0134 47.3502 49.4047 47.3502 49.6925 47.3502C52.2257 47.3502 54.8622 46.763 57.3894 46.763C58.2704 46.763 59.5368 46.6651 60.3139 47.0568C59.3413 47.4422 58.2704 47.5401 57.2974 47.6381Z" fill="#FBFDFD" stroke="#FBFDFD" stroke-width="3.02189" stroke-miterlimit="10"/>
<path d="M62.991 63.1881C63.2212 62.4513 63.4229 61.6627 63.6243 60.8568C63.8198 60.5977 64.0216 60.3446 64.2115 60.0797C64.2115 61.2888 63.5726 62.2211 62.991 63.1881ZM57.0039 72.6458C56.906 73.1351 56.5202 73.233 56.1288 73.3309C56.5028 72.2774 56.9865 71.2874 57.4588 70.3089C58.4029 69.9519 59.2491 69.1405 60.153 68.6568C59.1856 70.0499 58.1435 71.3909 57.0039 72.6458ZM62.2312 62.653C61.6381 63.9076 60.9127 65.2892 60.0203 66.9991C59.272 67.3098 58.9036 68.0869 58.3855 68.6394C58.4835 68.3515 58.581 68.0522 58.754 67.8737C59.5943 65.9396 60.9068 64.2993 62.2312 62.653ZM51.3505 76.8366C50.6654 78.103 47.9423 79.6627 46.676 79.6627C45.3117 79.6627 44.1429 78.3964 42.7786 78.2988C42.4848 77.3259 41.4143 77.8092 40.7347 77.3259C39.0767 76.1515 36.8318 73.8146 35.8588 72.0645C34.2067 68.9446 32.7441 64.8576 31.869 61.5419C31.4777 60.1776 31.4777 52.2856 31.4777 50.6334C31.4777 44.7849 31.2819 40.2087 33.717 34.8495C33.717 33.681 34.8859 33.0018 34.8859 32.1212V31.7355C35.571 30.9524 35.5709 29.6861 36.446 29.0069C37.321 26.1807 39.9517 24.4247 41.3163 21.7941C42.3869 21.3107 42.6866 19.8485 43.6592 19.1693C45.795 17.7991 48.0403 15.8535 50.7692 15.8535C51.0571 16.0494 51.3505 16.2452 51.7422 16.2452C51.9377 16.2452 52.0297 16.1473 52.2315 16.1473L52.6172 15.8535C53.0086 15.9515 53.4923 16.3428 53.6937 15.6581C55.4437 16.0494 57.8789 15.1744 58.9553 17.1199C62.7548 19.5551 61.5805 24.7185 63.1406 28.2242C63.4344 31.3441 63.7278 34.4581 63.8198 37.676C63.9178 42.0567 64.4994 46.443 64.4994 50.9213C64.4994 54.5364 64.2518 56.8504 63.6473 58.9803C63.2615 59.7286 62.8528 60.454 62.4555 61.254C61.3905 61.8353 61.1891 63.3954 60.0203 63.7812C59.2779 65.1972 58.3741 67.2004 57.3376 69.221C57.3206 69.221 57.3091 69.238 57.2918 69.238C57.1709 69.1345 57.1421 68.9904 57.0671 68.8696C56.8025 69.1863 56.549 69.503 56.2438 69.7908C56.3934 69.9981 56.5376 70.2169 56.716 70.3835C55.1673 73.2444 53.3655 75.9386 51.3505 76.8366ZM44.2408 81.217C41.224 81.217 37.8103 80.1465 36.0602 77.6137C34.6959 75.8636 32.842 74.2059 31.9614 72.0645C31.0864 71.0916 28.1616 59.4005 28.1616 57.6448C28.1616 57.5469 28.1616 57.1556 28.4613 57.1556C29.6242 57.1556 31.7715 63.3954 31.9614 64.2705C32.842 67.1945 34.4941 70.3089 35.8588 73.0375C36.6415 74.4014 37.7124 75.3744 38.4954 76.7387C39.4684 77.0321 39.9517 78.103 41.0226 78.2988C41.5118 79.1735 42.4848 79.2714 43.0664 79.9565C43.4578 79.9565 44.5342 80.2444 44.5342 80.7336C44.5342 80.9295 44.5342 81.217 44.2408 81.217ZM67.4297 51.6064C66.9401 51.9977 66.0651 52.5794 66.163 53.362V53.6499C65.3799 54.8242 65.2824 56.1826 64.4994 57.3511C64.4244 57.4778 64.3726 57.6101 64.3035 57.7369C65.5067 51.1633 65.8696 43.6224 65.8696 39.3337C65.8696 35.3391 64.4994 31.442 64.1195 27.4471C63.9178 24.3327 63.8198 20.9194 61.7763 18.3863C59.7269 16.0494 56.906 14.2993 53.6937 14.2993C53.2044 14.2993 52.7207 14.2993 52.2315 14.3917C51.8398 14.1038 51.3505 14 50.8668 14C49.4046 14 48.2302 15.0764 46.8659 15.0764C46.486 15.0764 46.0944 14.9785 45.795 14.881L45.3117 15.3702L47.0673 15.4681C47.1652 15.6581 47.3552 15.8535 47.3552 16.0494C47.3552 16.6307 45.703 16.4407 45.5072 17.4137C42.3869 19.0714 39.0767 23.0604 37.2231 25.9849C36.1522 27.7405 35.1793 29.8819 34.2067 31.7355C34.1087 31.8275 33.4236 33.2897 33.2337 33.2897C33.2337 33.9748 33.0319 34.562 32.9399 35.1432C32.1628 35.9203 32.6465 37.3826 31.869 38.1652C30.6947 41.8609 29.7217 46.443 29.7217 50.2421C29.7217 50.5359 29.5262 50.6334 29.2325 50.7314C29.1404 49.8508 28.8467 48.8778 28.9446 47.9052V47.318C29.3363 38.551 29.5262 31.1483 34.6959 23.5501C38.5874 17.7991 43.5557 16.9244 45.0179 15.1744C44.73 15.1744 44.5342 15.0764 44.2408 15.0764C43.4578 15.0764 42.6866 15.4681 42.2949 16.1473C36.7394 17.995 34.0108 23.0604 31.6736 27.9363C31.2819 28.5176 30.7985 28.9089 30.6947 29.6861C30.3089 31.442 30.0155 33.0997 29.3363 34.8495C29.1404 35.5346 28.7491 36.6054 28.7491 37.2846C28.7491 37.8718 29.0425 38.4531 29.0425 39.0403C29.0425 39.8174 28.9446 40.5025 28.7491 41.2796C27.6782 46.6385 27.3845 52.4814 27.3845 57.9382C27.3845 62.319 29.3363 66.216 30.6947 70.211C32.1628 74.4993 35.2772 78.005 38.5874 80.9295L41.0226 81.3208C41.6098 81.8042 42.2949 82 43.0664 82C44.1429 82 45.2138 81.6087 46.2843 81.7066H46.676C48.0403 80.8316 50.3775 80.2444 51.4484 79.0759C51.7418 78.8856 51.9377 78.2009 52.3294 78.2009C52.4214 78.2009 52.5193 78.2009 52.6172 78.2988C54.6666 76.0595 57.1997 74.2059 59.0474 71.8687C60.0203 70.7002 60.6075 69.238 61.4826 67.9716C61.7763 67.5803 61.7763 66.999 62.2656 66.7053C63.4344 63.7812 68.1089 54.4329 68.1089 51.8998V51.6064H67.4297Z" stroke="#FBFDFD" stroke-width="3.02189" stroke-miterlimit="10"/>
</svg>
