<svg width="96" height="96" viewBox="0 0 96 96" fill="none" xmlns="http://www.w3.org/2000/svg">
<path d="M51 96C24.5323 96 3 74.4666 3 48C3 21.5334 24.5323 0 51 0C67.6308 0 82.931 8.54699 91.6817 22.5124C92.6672 24.0849 92.2697 26.1524 90.7728 27.2496L80.6861 34.6424C79.0107 35.8711 76.642 35.398 75.5667 33.6196C69.5624 23.6983 60.4811 19.5699 51 19.5699C35.3241 19.5699 22.571 32.323 22.571 47.9989C22.571 63.6748 35.3241 76.4279 51 76.4279C60.503 76.4279 70.8415 70.2419 75.7704 60.8594C76.7986 58.9014 79.3381 58.3396 81.0836 59.6964L91.4791 67.7802C92.8884 68.8763 93.2586 70.8474 92.3508 72.3849C88.4534 78.9849 83.0208 84.5763 76.4964 88.6729C68.8638 93.466 60.0474 95.9989 51 95.9989V96Z" fill="white"/>
<path d="M51.5366 68.1799L44.1285 75.588C41.8803 75.0284 39.7383 74.1994 37.7355 73.1394L49.3256 61.5492C49.9115 60.9634 50.7065 60.6338 51.5355 60.6338C52.3645 60.6338 53.1595 60.9634 53.7453 61.5492L64.6368 72.4408C62.692 73.5993 60.642 74.529 58.5527 75.1981L51.5355 68.181L51.5366 68.1799ZM42.6622 63.7591C43.0706 62.2939 43.7857 60.3666 45.0856 58.3418C47.2319 54.9986 49.906 53.0537 51.5366 52.055C53.0872 53.1052 55.308 54.8825 57.3076 57.6464C58.9699 59.9428 59.9171 62.1428 60.4679 63.7591C61.6572 61.1616 64.3828 53.2629 58.5669 49.2987C50.4579 43.7709 50.7854 40.6258 50.7854 40.6258C50.7854 40.6258 50.7821 41.2084 49.7418 43.2244C48.1933 46.2271 46.5825 47.7032 45.0571 49.221C45.0571 49.221 43.3115 51.0979 42.3501 52.4569C41.1247 54.1882 40.2859 57.3738 42.6567 63.7514" fill="white"/>
<path d="M45.0581 49.221C45.0581 49.221 43.3126 51.0979 42.3511 52.4569C41.1258 54.1882 40.2869 57.3737 42.6578 63.7514C29.1447 51.9236 43.0597 39.8505 42.7815 40.7693C41.7467 44.1859 45.0581 49.221 45.0581 49.221ZM48.3543 45.5032C48.8274 44.8331 49.2928 44.0807 49.7374 43.2178C50.7766 41.2018 50.781 40.6192 50.781 40.6192C50.781 40.6192 50.4535 43.7643 58.5625 49.2922C64.3784 53.2563 61.6539 61.1561 60.4635 63.7525C60.4635 63.7525 67.3263 59.3766 66.3539 51.9827C65.1833 43.0897 60.3726 43.8924 56.7972 37.3056C53.4628 31.1623 59.1582 26.2399 59.1582 26.2399C59.1582 26.2399 51.5333 25.8304 48.0422 33.8452C44.3639 42.2925 48.3554 45.5021 48.3554 45.5021L48.3543 45.5032Z" fill="#FF6D01"/>
</svg>
