<svg width="95" height="24" viewBox="0 0 95 24" fill="none" xmlns="http://www.w3.org/2000/svg">
<path d="M28.2793 23.7055H25.5841C24.7256 23.7055 24.1259 22.8548 24.4145 22.0462L31.8802 1.11926C32.0565 0.624819 32.525 0.29454 33.0497 0.29454H36.2959C36.8214 0.29454 37.2903 0.625212 37.4662 1.12043L44.9036 22.047C45.1911 22.8556 44.5914 23.7047 43.7333 23.7047H40.9465C40.412 23.7047 39.9372 23.3626 39.7684 22.8556L38.6896 19.6188C38.5207 19.1118 38.0459 18.7697 37.5114 18.7697H31.7352C31.2035 18.7697 30.7307 19.1087 30.5594 19.6121L29.4551 22.8623C29.2839 23.3658 28.811 23.7047 28.2793 23.7047V23.7055ZM34.0091 9.4693L32.3322 14.4679H36.951L35.2745 9.4693C35.148 9.06873 35.0211 8.65755 34.8947 8.23537C34.7682 7.81398 34.6838 7.46564 34.6418 7.19152C34.5994 7.46603 34.52 7.80848 34.4046 8.21966C34.2883 8.63084 34.1564 9.04752 34.0091 9.4693Z" fill="white"/>
<path d="M51.9345 23.7055H49.4592C48.7711 23.7055 48.2134 23.1478 48.2134 22.4597V1.54065C48.2134 0.8526 48.7711 0.294935 49.4592 0.294935H52.3358C52.8456 0.294935 53.3043 0.605578 53.4928 1.07959L59.9837 17.3658C60.0402 17.5071 60.2401 17.5075 60.2971 17.3658L66.8178 1.07763C67.0071 0.604793 67.465 0.294935 67.9744 0.294935H70.9159C71.6039 0.294935 72.1616 0.8526 72.1616 1.54065V22.4597C72.1616 23.1478 71.6039 23.7055 70.9159 23.7055H68.4402C67.7521 23.7055 67.1945 23.1478 67.1945 22.4597V15.67C67.1945 14.8476 67.2047 14.1623 67.2259 13.6137C67.2467 13.0655 67.2734 12.5855 67.3048 12.1744C67.3197 11.9808 67.0495 11.9191 66.9792 12.1005L62.7885 22.9106C62.6028 23.3901 62.1413 23.7059 61.6272 23.7059H58.6535C58.1383 23.7059 57.6765 23.3885 57.4911 22.9078L53.3699 12.2085C53.2996 12.0259 53.0266 12.0895 53.0447 12.2843C53.0875 12.7419 53.1166 13.2167 53.1323 13.7091C53.1641 14.7212 53.1798 15.8711 53.1798 17.1572V22.4601C53.1798 23.1482 52.6221 23.7059 51.9341 23.7059L51.9345 23.7055Z" fill="white"/>
<path d="M93.4994 4.01204C92.8353 2.84134 91.9069 1.92944 90.7153 1.27556C89.5234 0.622072 88.1261 0.294935 86.5234 0.294935H78.2782C77.5902 0.294935 77.0325 0.8526 77.0325 1.54065V22.4597C77.0325 23.1478 77.5902 23.7055 78.2782 23.7055H80.9118C81.5999 23.7055 82.1576 23.1478 82.1576 22.4597V17.1686C82.1576 16.4806 82.7152 15.9229 83.4033 15.9229H86.5234C88.1257 15.9229 89.5234 15.5962 90.7153 14.9419C91.9065 14.2884 92.8349 13.3757 93.4994 12.2054C94.1634 11.0347 94.4961 9.66959 94.4961 8.10852C94.4961 6.54746 94.1638 5.18235 93.4994 4.01165V4.01204ZM88.1689 10.5607C87.5571 11.0987 86.6291 11.3673 85.3849 11.3673H83.4041C82.716 11.3673 82.1583 10.8097 82.1583 10.1216V6.09622C82.1583 5.40817 82.716 4.85051 83.4041 4.85051H85.3849C86.6295 4.85051 87.5571 5.11913 88.1689 5.65716C88.7804 6.19518 89.0863 7.01244 89.0863 8.10892C89.0863 9.20539 88.7804 10.0226 88.1689 10.5607Z" fill="white"/>
<path d="M22.52 16.9455L19.9214 14.9246C19.4851 14.5853 18.8501 14.7259 18.5932 15.2152C17.9554 16.4287 16.956 17.4286 15.8108 18.1107L13.0873 15.3872C12.9408 15.2407 12.7421 15.1583 12.5347 15.1583C12.3273 15.1583 12.1286 15.2407 11.9821 15.3872L9.08464 18.2847C6.83159 17.0912 5.29291 14.7223 5.29291 12C5.29291 8.08103 8.48142 4.89253 12.4004 4.89253C14.7705 4.89253 17.0412 5.9246 18.5422 8.40503C18.8112 8.84959 19.403 8.9678 19.822 8.66069L22.3437 6.81254C22.718 6.53842 22.8173 6.02121 22.5707 5.62809C20.3828 2.1368 16.5577 0 12.4 0C5.78303 0 0.399994 5.38303 0.399994 12C0.399994 18.617 5.78303 24 12.4 24C14.6621 24 16.866 23.3665 18.7743 22.1687C20.4052 21.1445 21.7633 19.7468 22.738 18.0966C22.965 17.7125 22.8723 17.2193 22.52 16.9455ZM10.6826 18.897L12.5343 17.0453L14.2894 18.8004C13.6642 19.0007 13.0248 19.1079 12.4004 19.1079C11.8082 19.1079 11.2332 19.0344 10.6826 18.8974V18.897ZM12.3462 10.1601C12.3434 10.2186 12.343 10.9962 14.2917 12.3244C15.7456 13.3156 15.0646 15.2902 14.7669 15.9394C14.6295 15.5353 14.3927 14.9855 13.9768 14.4113C13.4768 13.7205 12.9215 13.2763 12.5339 13.0136C12.1263 13.2634 11.4575 13.7496 10.921 14.5853C10.5962 15.0915 10.4175 15.5734 10.3154 15.9394L10.3142 15.9374C9.72124 14.343 9.93135 13.5465 10.2377 13.1138C10.478 12.7741 10.9147 12.3048 10.9147 12.3048C11.2961 11.9254 11.6986 11.5562 12.0858 10.8057C12.3238 10.3443 12.3446 10.1837 12.3462 10.1597V10.1601Z" fill="white"/>
<path d="M10.9147 12.3051C10.9147 12.3051 10.4784 12.7744 10.2377 13.1142C9.93135 13.5469 9.72164 14.3434 10.3143 15.9378C6.93607 12.9806 10.4148 9.96256 10.3453 10.1923C10.0869 11.0465 10.9143 12.3051 10.9143 12.3051H10.9147ZM11.7387 11.376C11.8569 11.2083 11.9731 11.0202 12.0843 10.8046C12.3442 10.3007 12.345 10.155 12.345 10.155C12.345 10.155 12.2629 10.9412 14.2902 12.3232C15.744 13.3144 15.063 15.289 14.7654 15.9382C14.7654 15.9382 16.4812 14.8441 16.2377 12.9959C15.9451 10.7727 14.7422 10.9734 13.8484 9.32674C13.0146 7.79081 14.4386 6.56041 14.4386 6.56041C14.4386 6.56041 12.5323 6.45791 11.6597 8.46197C10.74 10.5736 11.7383 11.3764 11.7383 11.3764L11.7387 11.376Z" fill="#FF6D01"/>
</svg>
