<svg width="96" height="96" viewBox="0 0 96 96" fill="none" xmlns="http://www.w3.org/2000/svg">
<rect width="96" height="96" fill="#F4F3F8"/>
<path d="M50 80C32.3548 80 18 65.6444 18 48C18 30.3556 32.3548 16 50 16C61.0872 16 71.2873 21.698 77.1211 31.0082C77.7782 32.0566 77.5132 33.4349 76.5152 34.1664L69.7908 39.0949C68.6738 39.914 67.0947 39.5987 66.3778 38.4131C62.375 31.7989 56.3207 29.0466 50 29.0466C39.5494 29.0466 31.0473 37.5487 31.0473 47.9993C31.0473 58.4498 39.5494 66.9519 50 66.9519C56.3353 66.9519 63.2277 62.8279 66.5136 56.5729C67.1991 55.2676 68.8921 54.8931 70.0558 55.7976L76.9861 61.1868C77.9256 61.9176 78.1724 63.2316 77.5672 64.2566C74.969 68.6566 71.3472 72.3842 66.9976 75.1153C61.9092 78.3107 56.0316 79.9993 50 79.9993V80Z" fill="#111111"/>
<path d="M50.3577 61.4532L45.419 66.392C43.9202 66.0189 42.4922 65.4663 41.157 64.7596L48.8838 57.0328C49.2743 56.6423 49.8043 56.4225 50.357 56.4225C50.9096 56.4225 51.4396 56.6423 51.8302 57.0328L59.0912 64.2938C57.7947 65.0662 56.428 65.686 55.0351 66.1321L50.357 61.454L50.3577 61.4532ZM44.4414 58.5061C44.7138 57.5293 45.1905 56.2444 46.057 54.8945C47.4879 52.6657 49.2707 51.3691 50.3577 50.7033C51.3915 51.4035 52.872 52.5883 54.205 54.431C55.3133 55.9619 55.9447 57.4285 56.312 58.5061C57.1048 56.7744 58.9219 51.5086 55.0446 48.8658C49.6386 45.1806 49.8569 43.0839 49.8569 43.0839C49.8569 43.0839 49.8547 43.4723 49.1612 44.8163C48.1289 46.8181 47.055 47.8022 46.0381 48.814C46.0381 48.814 44.8744 50.0653 44.2334 50.9713C43.4165 52.1255 42.8573 54.2492 44.4378 58.5009" fill="#111111"/>
<path d="M46.0387 48.814C46.0387 48.814 44.8751 50.0653 44.2341 50.9713C43.4172 52.1255 42.8579 54.2492 44.4385 58.5009C35.4297 50.6157 44.7064 42.567 44.521 43.1795C43.8311 45.4572 46.0387 48.814 46.0387 48.814ZM48.2362 46.3355C48.5516 45.8887 48.8618 45.3872 49.1582 44.8119C49.851 43.4679 49.854 43.0795 49.854 43.0795C49.854 43.0795 49.6357 45.1762 55.0416 48.8614C58.9189 51.5042 57.1026 56.7707 56.309 58.5017C56.309 58.5017 60.8842 55.5844 60.2359 50.6552C59.4555 44.7265 56.2484 45.2616 53.8648 40.8704C51.6418 36.7748 55.4388 33.4933 55.4388 33.4933C55.4388 33.4933 50.3555 33.2203 48.0281 38.5634C45.5759 44.195 48.2369 46.3348 48.2369 46.3348L48.2362 46.3355Z" fill="#FF6D01"/>
</svg>
