<svg width="97" height="97" viewBox="0 0 97 97" fill="none" xmlns="http://www.w3.org/2000/svg">
<path d="M12.4901 17.4428C13.0947 16.6956 13.7172 15.963 14.357 15.2457C14.3785 15.2098 14.4432 15.2026 14.4719 15.1738C14.5293 15.102 14.6155 15.0518 14.6801 14.9872L14.7375 14.9154C15.1755 14.5061 15.6423 14.0609 16.188 13.6732C17.9959 12.2721 20.0148 11.167 22.1692 10.3989C28.8828 8.04376 36.3504 9.49419 42.2024 15.0231C50.388 22.6917 49.6484 35.0347 43.1215 43.2419C34.8713 55.4772 20.6972 72.5521 40.3212 87.839C43.8539 90.5891 46.4747 92.8581 57.5899 96.0677C50.3162 97.4105 43.5738 96.994 36.0704 95.0768C30.7641 92.0826 22.4277 85.6706 19.5843 77.0039C15.2904 63.8638 27.138 44.2256 32.8679 36.6575C40.7232 26.1885 28.0068 14.8579 18.6437 27.5097C13.7467 34.1013 5.18049 52.763 8.16034 66.5996C9.89799 74.4477 12.2172 80.1704 21.4153 88.0257C19.7063 87.0205 18.0549 85.8788 16.4465 84.6007C-4.91509 64.7039 -2.43786 33.9361 12.4973 17.4428H12.4901Z" fill="url(#paint0_linear_2_326)"/>
<path d="M85.2127 80.2566C84.6128 81.0013 83.9951 81.7315 83.3602 82.4466C83.3315 82.4825 83.2669 82.4897 83.2381 82.5256C83.1807 82.5974 83.0874 82.6405 83.0299 82.7123L82.9725 82.7841C82.5345 83.1934 82.0677 83.6314 81.522 84.0191C79.7146 85.4227 77.6957 86.5303 75.5408 87.3005C68.8272 89.6557 61.3596 88.2052 55.5076 82.6764C47.322 75.0078 48.0616 62.6575 54.5885 54.4576C62.8388 42.2151 77.0128 25.1474 57.3889 9.8532C53.8561 7.11031 51.2353 4.84131 40.1201 1.62452C47.3938 0.288969 54.129 0.705429 61.6325 2.62258C66.9459 5.61679 75.2895 12.0288 78.1257 20.6955C82.4196 33.8356 70.572 53.4739 64.8421 61.0348C56.9868 71.5037 69.7032 82.8343 79.0664 70.1897C83.9634 63.591 92.5295 44.9364 89.5497 31.0927C87.812 23.2517 85.4928 17.5218 76.2947 9.66651C78.0283 10.6917 79.6886 11.8362 81.2635 13.0915C102.625 32.9955 100.148 63.7633 85.2127 80.2566Z" fill="url(#paint1_linear_2_326)"/>
<defs>
<linearGradient id="paint0_linear_2_326" x1="0.850739" y1="48.8497" x2="96.8593" y2="48.8497" gradientUnits="userSpaceOnUse">
<stop stop-color="#0082FA"/>
<stop offset="1" stop-color="#00F2FE"/>
</linearGradient>
<linearGradient id="paint1_linear_2_326" x1="0.850739" y1="48.8497" x2="96.8593" y2="48.8497" gradientUnits="userSpaceOnUse">
<stop stop-color="#0082FA"/>
<stop offset="1" stop-color="#00F2FE"/>
</linearGradient>
</defs>
</svg>
