<svg width="96" height="96" viewBox="0 0 96 96" fill="none" xmlns="http://www.w3.org/2000/svg">
<g clip-path="url(#clip0_6001_865)">
<mask id="mask0_6001_865" style="mask-type:luminance" maskUnits="userSpaceOnUse" x="7" y="4" width="83" height="88">
<path d="M89.8837 4H7V92H89.8837V4Z" fill="white"/>
</mask>
<g mask="url(#mask0_6001_865)">
<path fill-rule="evenodd" clip-rule="evenodd" d="M41.0904 11.2439C41.0904 7.20331 44.3773 3.92131 48.4413 3.92131C52.5052 3.92131 55.7922 7.19556 55.7922 11.2439V54.1962C55.7922 58.2367 52.5052 61.5187 48.4413 61.5187C44.385 61.5187 41.0904 58.2443 41.0904 54.1962V11.2439ZM7.07941 11.244C7.07941 7.19568 10.3741 3.92143 14.4303 3.92143C18.4943 3.92143 21.789 7.19568 21.7813 11.244V77.3761H57.3543C61.3948 77.3761 64.6769 80.6634 64.6769 84.7272C64.6769 88.7911 61.4024 92.0783 57.3543 92.0783H14.5211C14.4909 92.0783 14.4606 92.0788 14.4303 92.0788C14.3758 92.0788 14.3214 92.0783 14.2671 92.0767C12.3715 92.0425 10.6505 91.2847 9.36811 90.0661C7.95874 88.7322 7.07941 86.8474 7.07941 84.7559V11.244ZM82.4534 3.92131C78.3895 3.92131 75.1023 7.20331 75.1023 11.2439V54.1962C75.1023 58.2443 78.3972 61.5187 82.4534 61.5187C86.5172 61.5187 89.8044 58.2367 89.8044 54.1962V11.2439C89.8044 7.19556 86.5172 3.92131 82.4534 3.92131Z" fill="url(#paint0_linear_6001_865)"/>
</g>
</g>
<defs>
<linearGradient id="paint0_linear_6001_865" x1="7.07941" y1="48" x2="89.8044" y2="3.92106" gradientUnits="userSpaceOnUse">
<stop stop-color="#4400E2"/>
<stop offset="0.421875" stop-color="#F94E6C"/>
<stop offset="1" stop-color="#FFCB00"/>
</linearGradient>
<clipPath id="clip0_6001_865">
<rect width="82.8837" height="88" fill="white" transform="translate(7 4)"/>
</clipPath>
</defs>
</svg>
