<svg width="83" height="28" viewBox="0 0 83 28" fill="none" xmlns="http://www.w3.org/2000/svg">
<rect width="28" height="28" rx="6.02" fill="#090A0C"/>
<path d="M73.3085 7.293H74.9045V16.128L79.7305 10.713H81.9155L77.9635 14.988L82.1055 20.783H80.1485L76.8615 16.09L74.9045 18.199V20.783H73.3085V7.293Z" fill="#090A0C"/>
<path d="M69.9858 14.095C69.7768 12.784 68.6748 12.005 67.4778 12.005C65.6158 12.005 64.5328 13.411 64.5328 15.748C64.5328 18.085 65.6158 19.491 67.4778 19.491C68.7318 19.491 69.8338 18.655 70.0618 17.211L71.7528 17.325C71.4298 19.605 69.6058 21.011 67.4778 21.011C64.6658 21.011 62.8608 18.94 62.8608 15.748C62.8608 12.556 64.6658 10.485 67.4778 10.485C69.5298 10.485 71.3918 11.815 71.6578 13.981L69.9858 14.095Z" fill="#090A0C"/>
<path d="M52.8587 13.677C53.2577 11.72 54.8347 10.485 56.9817 10.485C59.5657 10.485 61.0287 12.005 61.0287 14.703V18.75C61.0287 19.168 61.2187 19.377 61.6367 19.377H62.0547V20.783H61.3707C60.3447 20.783 59.4517 20.46 59.4517 19.225C59.0147 20.156 57.9127 21.011 56.3167 21.011C54.3027 21.011 52.6877 19.947 52.6877 18.142C52.6877 16.071 54.2457 15.539 56.4877 15.121L59.4327 14.532C59.4137 12.841 58.5967 12.005 56.9817 12.005C55.7087 12.005 54.8537 12.651 54.5497 13.81L52.8587 13.677ZM54.3597 18.142C54.3597 18.94 55.0437 19.605 56.5257 19.605C58.1597 19.586 59.4707 18.446 59.4707 16.09V15.957L57.0957 16.375C55.5947 16.641 54.3597 16.736 54.3597 18.142Z" fill="#090A0C"/>
<path d="M47.3956 8.433H48.9916V10.713H51.6706V12.119H48.9916V18.104C48.9916 18.94 49.3906 19.377 50.1886 19.377H51.6326V20.783H50.1886C48.3836 20.783 47.3956 19.814 47.3956 18.104V12.119H45.9136V10.713H47.3956V8.433Z" fill="#090A0C"/>
<path d="M36.71 16.356C37.052 18.18 38.344 19.415 40.472 19.415C42.201 19.415 43.36 18.731 43.36 17.382C43.36 16.014 42.182 15.178 39.484 14.494C37.28 13.943 35.285 12.86 35.285 10.694C35.285 8.414 37.109 6.989 39.693 6.989C42.581 6.989 44.5 8.794 44.785 11.283L43.075 11.397C42.828 9.706 41.536 8.585 39.674 8.585C38.135 8.585 36.995 9.402 36.995 10.694C36.995 12.328 38.952 12.784 40.662 13.259C43.113 13.943 45.07 15.159 45.07 17.211C45.07 19.719 42.79 21.011 40.339 21.011C37.394 21.011 35.228 19.206 35 16.47L36.71 16.356Z" fill="#090A0C"/>
</svg>
