<svg width="99" height="40" viewBox="0 0 99 40" fill="none" xmlns="http://www.w3.org/2000/svg">
<rect width="98.1055" height="40" rx="10" fill="#1B1E24"/>
<rect x="7" y="6" width="28" height="28" rx="6.02" fill="white"/>
<path d="M79.3085 13.293H80.9045V22.128L85.7305 16.713H87.9155L83.9635 20.988L88.1055 26.783H86.1485L82.8615 22.09L80.9045 24.199V26.783H79.3085V13.293Z" fill="white"/>
<path d="M75.9858 20.095C75.7768 18.784 74.6748 18.005 73.4778 18.005C71.6158 18.005 70.5328 19.411 70.5328 21.748C70.5328 24.085 71.6158 25.491 73.4778 25.491C74.7318 25.491 75.8338 24.655 76.0618 23.211L77.7528 23.325C77.4298 25.605 75.6058 27.011 73.4778 27.011C70.6658 27.011 68.8608 24.94 68.8608 21.748C68.8608 18.556 70.6658 16.485 73.4778 16.485C75.5298 16.485 77.3918 17.815 77.6578 19.981L75.9858 20.095Z" fill="white"/>
<path d="M58.8587 19.677C59.2577 17.72 60.8347 16.485 62.9817 16.485C65.5657 16.485 67.0287 18.005 67.0287 20.703V24.75C67.0287 25.168 67.2187 25.377 67.6367 25.377H68.0547V26.783H67.3707C66.3447 26.783 65.4517 26.46 65.4517 25.225C65.0147 26.156 63.9127 27.011 62.3167 27.011C60.3027 27.011 58.6877 25.947 58.6877 24.142C58.6877 22.071 60.2457 21.539 62.4877 21.121L65.4327 20.532C65.4137 18.841 64.5967 18.005 62.9817 18.005C61.7087 18.005 60.8537 18.651 60.5497 19.81L58.8587 19.677ZM60.3597 24.142C60.3597 24.94 61.0437 25.605 62.5257 25.605C64.1597 25.586 65.4707 24.446 65.4707 22.09V21.957L63.0957 22.375C61.5947 22.641 60.3597 22.736 60.3597 24.142Z" fill="white"/>
<path d="M53.3956 14.433H54.9916V16.713H57.6706V18.119H54.9916V24.104C54.9916 24.94 55.3906 25.377 56.1886 25.377H57.6326V26.783H56.1886C54.3836 26.783 53.3956 25.814 53.3956 24.104V18.119H51.9136V16.713H53.3956V14.433Z" fill="white"/>
<path d="M42.71 22.356C43.052 24.18 44.344 25.415 46.472 25.415C48.201 25.415 49.36 24.731 49.36 23.382C49.36 22.014 48.182 21.178 45.484 20.494C43.28 19.943 41.285 18.86 41.285 16.694C41.285 14.414 43.109 12.989 45.693 12.989C48.581 12.989 50.5 14.794 50.785 17.283L49.075 17.397C48.828 15.706 47.536 14.585 45.674 14.585C44.135 14.585 42.995 15.402 42.995 16.694C42.995 18.328 44.952 18.784 46.662 19.259C49.113 19.943 51.07 21.159 51.07 23.211C51.07 25.719 48.79 27.011 46.339 27.011C43.394 27.011 41.228 25.206 41 22.47L42.71 22.356Z" fill="white"/>
</svg>
