<svg width="96" height="96" viewBox="0 0 96 96" fill="none" xmlns="http://www.w3.org/2000/svg">
<g clip-path="url(#clip0_6001_865)">
<path d="M83.2745 0H60C59.1967 0 58.5448 0.651888 58.5448 1.45518V9.21055C58.5448 10.0138 59.1967 10.6657 60 10.6657H69.6984C72.1083 10.6657 74.064 12.6214 74.064 15.0313V18.909C74.064 21.3188 72.1083 23.2745 69.6984 23.2745H36.7255C35.9222 23.2745 35.2703 23.9264 35.2703 24.7297V42.1835C35.2703 44.5934 33.3146 46.549 30.9048 46.549H13.4552C12.6519 46.549 12 47.2009 12 48.0042V71.2787C12 72.082 12.6519 72.7339 13.4552 72.7339H30.909C33.3188 72.7339 35.2745 74.6896 35.2745 77.0995V94.5532C35.2745 95.3565 35.9264 96.0084 36.7297 96.0084H60.0042C60.8075 96.0084 61.4594 95.3565 61.4594 94.5532V71.2787C61.4594 70.4754 60.8075 69.8235 60.0042 69.8235H42.5504C40.1405 69.8235 38.1849 67.8679 38.1849 65.458V53.8207C38.1849 51.4109 40.1405 49.4552 42.5504 49.4552H83.2787C84.082 49.4552 84.7339 48.8033 84.7339 48V1.45518C84.7339 0.651888 84.082 0 83.2787 0H83.2745ZM67.7596 37.3343C67.7596 38.9409 66.4558 40.2446 64.8492 40.2446H62.9104C61.3038 40.2446 60 38.9409 60 37.3343V35.3954C60 33.7888 61.3038 32.4851 62.9104 32.4851H64.8492C66.4558 32.4851 67.7596 33.7888 67.7596 35.3954V37.3343Z" fill="white"/>
</g>
<defs>
<clipPath id="clip0_6001_865">
<rect width="72.7297" height="96" fill="white" transform="translate(12)"/>
</clipPath>
</defs>
</svg>
