<svg width="148" height="32" viewBox="0 0 148 32" fill="none" xmlns="http://www.w3.org/2000/svg">
<g clip-path="url(#clip0_6001_868)">
<path d="M36.0307 7.73066H52.0693V17.2773H40.1173V19.8733H52.0693V23.616H36.0307V7.73066ZM40.1173 14.0307H47.984V11.2813H40.1173V14.0307ZM71.888 7.616V23.6547H56.0027V2.53733H59.936V7.616H71.888ZM67.9547 11.7013H59.936V19.568H67.9547V11.7013ZM80.212 2.65066V5.744H76.2787V2.65066H80.212ZM76.28 7.99733H80.2133V23.6533H76.28V7.99733ZM88.232 23.6533H84.2987V19.6813H88.232V23.6533ZM102.78 15.6347L108.012 20.828V23.6533H105.187L99.9933 18.46L94.8 23.6533H91.9747V20.828L97.168 15.6347L91.9747 10.5947V7.76933H94.8L99.9933 12.848L105.187 7.76933H108.012V10.5947L102.78 15.6347ZM127.296 23.6533L120.652 30.2213H117.559V27.6627L121.721 23.6533H111.411V7.768H115.344V19.6827H123.363V7.768H127.296V23.6533ZM147.344 7.692V10.5173L138.217 19.644H147.344V23.616H131.344V20.7907L140.471 11.664H131.344V7.692H147.344Z" fill="white"/>
<path d="M23.7573 0H16C15.7333 0 15.5147 0.217333 15.5147 0.485333V3.07067C15.5147 3.33733 15.732 3.556 16 3.556H19.232C20.0347 3.556 20.6867 4.20667 20.6867 5.01067V6.304C20.6867 7.10667 20.036 7.75867 19.232 7.75867H8.24267C7.976 7.75867 7.75733 7.976 7.75733 8.244V14.0627C7.75733 14.8653 7.10667 15.5173 6.30267 15.5173H0.485333C0.218667 15.5173 0 15.7347 0 16.0027V23.76C0 24.0267 0.217333 24.2453 0.485333 24.2453H6.304C7.10667 24.2453 7.75867 24.896 7.75867 25.7V31.5187C7.75867 31.7853 7.976 32.004 8.244 32.004H16.0013C16.268 32.004 16.4867 31.7867 16.4867 31.5187V23.7613C16.4867 23.4947 16.2693 23.276 16.0013 23.276H10.1827C9.38 23.276 8.728 22.6253 8.728 21.8213V17.9427C8.728 17.14 9.37867 16.488 10.1827 16.488H23.7587C24.0253 16.488 24.244 16.2707 24.244 16.0027V0.485333C24.244 0.218667 24.0267 0 23.7587 0H23.7573ZM18.5853 12.444C18.5853 12.98 18.1507 13.4133 17.616 13.4133H16.9693C16.4333 13.4133 16 12.9787 16 12.444V11.7973C16 11.2613 16.4347 10.828 16.9693 10.828H17.616C18.152 10.828 18.5853 11.2627 18.5853 11.7973V12.444Z" fill="white"/>
</g>
<defs>
<clipPath id="clip0_6001_868">
<rect width="147.344" height="32" fill="white"/>
</clipPath>
</defs>
</svg>
