<svg width="96" height="96" viewBox="0 0 96 96" fill="none" xmlns="http://www.w3.org/2000/svg">
<rect width="96" height="96" fill="url(#paint0_linear_6001_864)"/>
<g clip-path="url(#clip0_6001_864)">
<path d="M65.6373 24H54C53.5984 24 53.2724 24.3259 53.2724 24.7276V28.6053C53.2724 29.0069 53.5984 29.3329 54 29.3329H58.8492C60.0541 29.3329 61.032 30.3107 61.032 31.5156V33.4545C61.032 34.6594 60.0541 35.6373 58.8492 35.6373H42.3627C41.9611 35.6373 41.6352 35.9632 41.6352 36.3648V45.0917C41.6352 46.2967 40.6573 47.2745 39.4524 47.2745H30.7276C30.3259 47.2745 30 47.6005 30 48.0021V59.6394C30 60.041 30.3259 60.367 30.7276 60.367H39.4545C40.6594 60.367 41.6373 61.3448 41.6373 62.5497V71.2766C41.6373 71.6783 41.9632 72.0042 42.3648 72.0042H54.0021C54.4037 72.0042 54.7297 71.6783 54.7297 71.2766V59.6394C54.7297 59.2377 54.4037 58.9118 54.0021 58.9118H45.2752C44.0703 58.9118 43.0924 57.9339 43.0924 56.729V50.9104C43.0924 49.7054 44.0703 48.7276 45.2752 48.7276H65.6394C66.041 48.7276 66.367 48.4016 66.367 48V24.7276C66.367 24.3259 66.041 24 65.6394 24H65.6373ZM57.8798 42.6671C57.8798 43.4704 57.2279 44.1223 56.4246 44.1223H55.4552C54.6519 44.1223 54 43.4704 54 42.6671V41.6977C54 40.8944 54.6519 40.2425 55.4552 40.2425H56.4246C57.2279 40.2425 57.8798 40.8944 57.8798 41.6977V42.6671Z" fill="white"/>
</g>
<defs>
<linearGradient id="paint0_linear_6001_864" x1="48" y1="0" x2="48" y2="96" gradientUnits="userSpaceOnUse">
<stop stop-color="#FF8000"/>
<stop offset="1" stop-color="#FF0079"/>
</linearGradient>
<clipPath id="clip0_6001_864">
<rect width="36.3648" height="48" fill="white" transform="translate(30 24)"/>
</clipPath>
</defs>
</svg>
