<svg width="96" height="96" viewBox="0 0 96 96" fill="none" xmlns="http://www.w3.org/2000/svg">
<g clip-path="url(#clip0_6001_865)">
<path d="M92.1464 29.345C89.7173 23.6437 86.2828 18.5293 81.8428 14.0856C77.403 9.64191 72.3769 6.20436 66.6806 3.77292C60.733 1.25764 54.4504 0 48 0C41.466 0 35.1833 1.25764 29.3194 3.77292C23.623 6.20436 18.5131 9.64191 14.0733 14.0856C9.63351 18.5293 6.19896 23.6437 3.76964 29.345C1.25654 35.214 0 41.5023 0 48.042C0 54.4977 1.25654 60.786 3.76964 66.7389C6.19896 72.4401 9.63351 77.5545 14.0733 81.9984C18.5131 86.442 23.623 89.8794 29.3194 92.2272C35.267 94.7424 41.5496 96 48 96C54.4504 96 60.733 94.7424 66.6806 92.2272C72.3769 89.7957 77.4867 86.358 81.9268 81.9144C86.3665 77.4708 89.801 72.3564 92.2304 66.6549C94.7435 60.7023 96 54.414 96 47.958C96 41.5023 94.6598 35.214 92.1464 29.345ZM32.0838 43.5144C34.0104 35.8008 41.0472 30.1833 49.3402 30.1833H82.6805C84.8586 34.2918 86.1988 38.8191 86.7015 43.5144H32.0838ZM86.7015 52.5693C86.1988 57.2646 84.7749 61.7922 82.6805 65.9004H49.3402C41.0472 65.9004 34.0941 60.1992 32.0838 52.5693H86.7015ZM20.4398 20.4576C27.8115 13.0795 37.6127 9.05502 48 9.05502C58.3873 9.05502 68.1886 13.0795 75.5601 20.4576C75.8115 20.7092 75.9791 20.8769 76.2302 21.1284H49.3402C42.1361 21.1284 35.4347 23.8952 30.3245 29.0096C26.3036 33.0342 23.7068 38.0646 22.8691 43.5144H9.29842C10.3036 34.7949 14.1571 26.7458 20.4398 20.4576ZM48 87.0288C37.6127 87.0288 27.8115 83.0043 20.4398 75.6261C14.1571 69.3381 10.3036 61.2051 9.29842 52.5693H22.8691C23.7906 58.0191 26.3874 63.0498 30.3245 67.0743C35.4347 72.1887 42.1361 74.9556 49.3402 74.9556H76.2302C75.9791 75.207 75.8115 75.3747 75.5601 75.6261C68.1886 83.0043 58.3873 87.0288 48 87.0288Z" fill="white"/>
</g>
<defs>
<clipPath id="clip0_6001_865">
<rect width="96" height="96" fill="white"/>
</clipPath>
</defs>
</svg>
