<svg width="888" height="164" viewBox="0 0 888 164" fill="none" xmlns="http://www.w3.org/2000/svg">
<path d="M157.321 50.131C153.174 40.3913 147.31 31.6542 139.73 24.0629C132.15 16.4716 123.569 10.5991 113.844 6.44541C103.689 2.14847 92.9628 0 81.9501 0C70.7946 0 60.0682 2.14847 50.0568 6.44541C40.3314 10.5991 31.6073 16.4716 24.0272 24.0629C16.4472 31.6542 10.5834 40.3913 6.43588 50.131C2.14529 60.1573 0 70.8998 0 82.0717C0 93.1002 2.14529 103.843 6.43588 114.012C10.5834 123.752 16.4472 132.489 24.0272 140.081C31.6073 147.672 40.3314 153.544 50.0568 157.555C60.2111 161.852 70.9375 164 81.9501 164C92.9628 164 103.689 161.852 113.844 157.555C123.569 153.401 132.293 147.528 139.873 139.937C147.453 132.346 153.317 123.609 157.464 113.869C161.755 103.7 163.9 92.9573 163.9 81.9283C163.9 70.8998 161.612 60.1573 157.321 50.131ZM54.7765 74.3371C58.0658 61.1597 70.0797 51.5631 84.2383 51.5631H141.16C144.879 58.5818 147.167 66.316 148.025 74.3371H54.7765ZM148.025 89.8059C147.167 97.827 144.736 105.562 141.16 112.58H84.2383C70.0797 112.58 58.2087 102.84 54.7765 89.8059H148.025ZM34.8967 34.9485C47.4824 22.3441 64.2159 15.469 81.9501 15.469C99.6844 15.469 116.418 22.3441 129.003 34.9485C129.432 35.3782 129.719 35.6646 130.147 36.0943H84.2383C71.9387 36.0943 60.4974 40.821 51.7729 49.5581C44.9081 56.4334 40.4745 65.027 39.0443 74.3371H15.8751C17.5914 59.4413 24.1703 45.6908 34.8967 34.9485ZM81.9501 148.674C64.2159 148.674 47.4824 141.799 34.8967 129.195C24.1703 118.453 17.5914 104.559 15.8751 89.8059H39.0443C40.6175 99.116 45.0511 107.71 51.7729 114.585C60.4974 123.322 71.9387 128.049 84.2383 128.049H130.147C129.719 128.479 129.432 128.765 129.003 129.195C116.418 141.799 99.6844 148.674 81.9501 148.674Z" fill="white"/>
<path d="M830.964 130.635V62.135H841.924V75.698C846.445 65.423 853.98 60.491 864.803 60.491C879.873 60.491 887.682 69.807 887.682 88.028V130.635H876.037V88.713C876.037 76.657 870.968 70.492 860.967 70.492C849.596 70.492 842.609 79.671 842.609 94.878V130.635H830.964Z" fill="white"/>
<path d="M800.188 130.635V62.135H811.833V130.635H800.188ZM799.366 49.394V34.735H812.655V49.394H799.366Z" fill="white"/>
<path d="M748.804 132.279C734.83 132.279 725.651 124.333 725.651 112.14C725.651 105.29 729.076 99.399 735.241 95.974C740.447 93.371 747.023 91.727 758.257 90.357L770.998 88.85V87.754C770.998 75.15 766.477 70.081 755.928 70.081C746.612 70.081 740.858 75.013 740.31 83.644H727.843C728.802 69.67 739.762 60.491 755.791 60.491C774.56 60.491 782.78 68.985 782.78 88.987V107.482C782.78 118.031 783.465 125.292 785.109 130.635H772.916C772.368 127.073 771.957 122.552 771.82 118.168C768.669 126.936 760.038 132.279 748.804 132.279ZM737.981 111.866C737.981 118.579 743.05 122.689 751.407 122.689C763.326 122.689 771.135 114.058 771.135 100.769V97.344L752.503 100.084C742.365 101.591 737.981 105.153 737.981 111.866Z" fill="white"/>
<path d="M657.959 130.635V31.3101H669.604V75.0131C673.714 65.4231 681.386 60.4911 692.072 60.4911C706.868 60.4911 714.677 69.9441 714.677 88.0281V130.635H703.032V88.8501C703.032 76.7941 697.963 70.4921 688.099 70.4921C676.317 70.4921 669.604 79.3971 669.604 94.8781V130.635H657.959Z" fill="white"/>
<path d="M606.659 132.964C576.519 132.964 562.819 109.948 562.819 81.726C562.819 51.86 578.163 31.036 607.07 31.036C630.771 31.036 643.101 45.01 645.567 65.149L632.278 66.519C630.36 51.86 621.455 42.133 606.385 42.133C587.342 42.133 576.519 58.025 576.519 81.589C576.519 104.331 586.794 121.593 606.659 121.593C620.496 121.593 630.223 112.414 632.963 97.892L645.567 100.084C641.868 118.442 630.086 132.964 606.659 132.964Z" fill="white"/>
<path d="M486.531 132.279C469.954 132.279 458.72 117.894 458.72 96.3851C458.72 75.2871 470.776 60.4911 487.901 60.4911C496.943 60.4911 503.656 64.1901 508.04 72.2731V31.3101H519.685V130.635H508.725V117.894C504.615 127.073 497.217 132.279 486.531 132.279ZM471.05 96.3851C471.05 112.414 478.037 122.004 489.682 122.004C501.053 122.004 508.314 112.688 508.314 98.0291V94.8781C508.314 79.9451 501.19 70.7661 489.682 70.7661C478.037 70.7661 471.05 80.2191 471.05 96.3851Z" fill="white"/>
<path d="M445.754 31.3101V130.635H434.109V31.3101H445.754Z" fill="white"/>
<path d="M401.177 77.753C404.465 68.163 411.589 60.491 422.001 60.491C422.823 60.491 423.645 60.491 424.467 60.628V71.999H423.919C416.795 71.999 412.137 74.054 408.849 77.342C402.273 83.918 401.999 93.097 401.999 101.317V130.635H390.354V62.135H401.177V77.753Z" fill="white"/>
<path d="M345.464 132.279C326.147 132.279 313.543 118.716 313.543 96.385C313.543 74.054 326.147 60.491 345.464 60.491C364.781 60.491 377.385 74.054 377.385 96.385C377.385 118.716 364.781 132.279 345.464 132.279ZM325.873 96.385C325.873 113.373 333.134 122.141 345.464 122.141C357.794 122.141 365.055 113.373 365.055 96.385C365.055 79.397 357.794 70.629 345.464 70.629C333.134 70.629 325.873 79.397 325.873 96.385Z" fill="white"/>
<path d="M217.153 130.635L194 33.365H207.289L224.14 111.729C224.688 114.332 224.825 115.565 224.962 117.072H225.373C225.51 115.702 225.784 114.469 226.469 111.729L246.471 33.365H259.623L279.625 111.729C280.31 114.469 280.584 115.702 280.721 117.072H281.132C281.269 115.565 281.406 114.332 281.954 111.729L298.805 33.365H312.094L288.941 130.635H273.049L254.143 54.737C253.732 53.093 253.458 51.86 253.321 50.216H252.773C252.636 51.86 252.362 53.093 251.951 54.737L233.045 130.635H217.153Z" fill="white"/>
</svg>
