<svg width="64" height="64" viewBox="0 0 64 64" fill="none" xmlns="http://www.w3.org/2000/svg">
<rect width="64" height="64" fill="black"/>
<g clip-path="url(#clip0_90_10)">
<mask id="mask0_90_10" style="mask-type:luminance" maskUnits="userSpaceOnUse" x="8" y="8" width="48" height="48">
<path d="M56 8H8V56H56V8Z" fill="white"/>
</mask>
<g mask="url(#mask0_90_10)">
<path d="M54.0732 22.6725C52.8587 19.8218 51.1414 17.2646 48.9214 15.0428C46.7015 12.821 44.1885 11.1022 41.3403 9.88646C38.3665 8.62882 35.2252 8 32 8C28.733 8 25.5917 8.62882 22.6597 9.88646C19.8115 11.1022 17.2566 12.821 15.0367 15.0428C12.8168 17.2646 11.0995 19.8218 9.88482 22.6725C8.62827 25.607 8 28.7511 8 32.021C8 35.2488 8.62827 38.393 9.88482 41.3694C11.0995 44.22 12.8168 46.7772 15.0367 48.9992C17.2566 51.221 19.8115 52.9397 22.6597 54.1136C25.6335 55.3712 28.7748 56 32 56C35.2252 56 38.3665 55.3712 41.3403 54.1136C44.1885 52.8979 46.7434 51.179 48.9634 48.9572C51.1833 46.7354 52.9005 44.1782 54.1152 41.3274C55.3717 38.3511 56 35.207 56 31.979C56 28.7512 55.3299 25.607 54.0732 22.6725ZM24.0419 29.7572C25.0052 25.9004 28.5236 23.0917 32.6701 23.0917H49.3402C50.4293 25.1459 51.0994 27.4096 51.3507 29.7572H24.0419ZM51.3507 34.2847C51.0994 36.6323 50.3874 38.8961 49.3402 40.9502H32.6701C28.5236 40.9502 25.0471 38.0996 24.0419 34.2847H51.3507ZM18.2199 18.2288C21.9058 14.5397 26.8064 12.5275 32 12.5275C37.1936 12.5275 42.0943 14.5397 45.78 18.2288C45.9057 18.3546 45.9896 18.4385 46.1151 18.5642H32.6701C29.068 18.5642 25.7173 19.9476 23.1622 22.5048C21.1518 24.5171 19.8534 27.0323 19.4346 29.7572H12.6492C13.1518 25.3975 15.0786 21.3729 18.2199 18.2288ZM32 51.5144C26.8064 51.5144 21.9058 49.5021 18.2199 45.813C15.0786 42.669 13.1518 38.6026 12.6492 34.2847H19.4346C19.8953 37.0096 21.1937 39.5249 23.1622 41.5372C25.7173 44.0944 29.068 45.4778 32.6701 45.4778H46.1151C45.9896 45.6035 45.9057 45.6873 45.78 45.813C42.0943 49.5021 37.1936 51.5144 32 51.5144Z" fill="white"/>
</g>
</g>
<defs>
<clipPath id="clip0_90_10">
<rect width="48" height="48" fill="white" transform="translate(8 8)"/>
</clipPath>
</defs>
</svg>
