<svg width="128" height="128" viewBox="0 0 128 128" fill="none" xmlns="http://www.w3.org/2000/svg"><g clip-path="url(#clip0_1_40)" id="icon"><path id="Vector" d="M149.69-27.8244H-19.75V141.615h169.44V-27.8244Z" fill="#A1723A"/><g id="Group" filter="url(#filter0_f_1_40)"><path id="Vector_2" d="M68.8881 125.309c37.7179 0 68.2939-30.568 68.2939-68.275 0-37.707-30.576-68.2746-68.2939-68.2746C31.1702-11.2406.59375 19.327.59375 57.034c0 37.707 30.57645 68.275 68.29435 68.275Z" fill="#531002"/></g><g id="Group_2" filter="url(#filter1_f_1_40)"><path id="Vector_3" d="M76.2492 103.698c30.5918 0 55.3918-24.8082 55.3918-55.411 0-30.6028-24.8-55.4113-55.3918-55.4113-30.5918 0-55.3915 24.8085-55.3915 55.4113s24.7997 55.411 55.3915 55.411Z" fill="#2B5DF0"/></g><g id="Group_3" filter="url(#filter2_f_1_40)"><path id="Vector_4" d="M75.2409 106.865c31.8921 0 57.7461-25.8633 57.7461-57.7667S107.133-8.66794 75.2409-8.66794c-31.8923 0-57.7464 25.86284-57.7464 57.76624 0 31.9034 25.8541 57.7667 57.7464 57.7667Z" fill="url(#paint0_radial_1_40)"/></g><g id="Group_4" filter="url(#filter3_f_1_40)"><path id="Vector_5" d="M84.8191 63.6438c16.0669 0 29.0909-13.0245 29.0909-29.0909 0-16.0665-13.024-29.09096-29.0909-29.09096-16.0665 0-29.0909 13.02446-29.0909 29.09096 0 16.0664 13.0244 29.0909 29.0909 29.0909Z" fill="#FCB8D4"/></g><g id="Group_5" filter="url(#filter4_f_1_40)"><path id="Vector_6" d="M84.7985 46.1497c6.4159 0 11.6166-5.2008 11.6166-11.6166 0-6.4157-5.2007-11.6166-11.6166-11.6166-6.4158 0-11.6165 5.2009-11.6165 11.6166 0 6.4158 5.2007 11.6166 11.6165 11.6166Z" fill="#fff"/></g><g id="Group_6" filter="url(#filter5_f_1_40)"><path id="Vector_7" d="M77.0806 150.521c57.6534 0 104.3904-46.738 104.3904-104.3911 0-57.6535-46.737-104.3909-104.3904-104.3909S-27.3102-11.5236-27.3102 46.1299c0 57.6531 46.7374 104.3911 104.3908 104.3911Z" fill="url(#paint1_radial_1_40)" fill-opacity=".9"/></g></g><defs><filter id="filter0_f_1_40" x="-15.238" y="-27.0724" width="168.252" height="168.213" filterUnits="userSpaceOnUse" color-interpolation-filters="sRGB"><feFlood flood-opacity="0" result="BackgroundImageFix"/><feBlend in="SourceGraphic" in2="BackgroundImageFix" result="shape"/><feGaussianBlur stdDeviation="7.91589" result="effect1_foregroundBlur_1_40"/></filter><filter id="filter1_f_1_40" x="-10.8058" y="-38.7879" width="174.11" height="174.15" filterUnits="userSpaceOnUse" color-interpolation-filters="sRGB"><feFlood flood-opacity="0" result="BackgroundImageFix"/><feBlend in="SourceGraphic" in2="BackgroundImageFix" result="shape"/><feGaussianBlur stdDeviation="15.8318" result="effect1_foregroundBlur_1_40"/></filter><filter id="filter2_f_1_40" x="5.62062" y="-20.5418" width="139.241" height="139.28" filterUnits="userSpaceOnUse" color-interpolation-filters="sRGB"><feFlood flood-opacity="0" result="BackgroundImageFix"/><feBlend in="SourceGraphic" in2="BackgroundImageFix" result="shape"/><feGaussianBlur stdDeviation="5.93692" result="effect1_foregroundBlur_1_40"/></filter><filter id="filter3_f_1_40" x="31.9805" y="-18.2857" width="105.677" height="105.677" filterUnits="userSpaceOnUse" color-interpolation-filters="sRGB"><feFlood flood-opacity="0" result="BackgroundImageFix"/><feBlend in="SourceGraphic" in2="BackgroundImageFix" result="shape"/><feGaussianBlur stdDeviation="11.8738" result="effect1_foregroundBlur_1_40"/></filter><filter id="filter4_f_1_40" x="57.3502" y="7.08472" width="54.8967" height="54.8967" filterUnits="userSpaceOnUse" color-interpolation-filters="sRGB"><feFlood flood-opacity="0" result="BackgroundImageFix"/><feBlend in="SourceGraphic" in2="BackgroundImageFix" result="shape"/><feGaussianBlur stdDeviation="7.91589" result="effect1_foregroundBlur_1_40"/></filter><filter id="filter5_f_1_40" x="-39.1841" y="-70.1348" width="232.529" height="232.529" filterUnits="userSpaceOnUse" color-interpolation-filters="sRGB"><feFlood flood-opacity="0" result="BackgroundImageFix"/><feBlend in="SourceGraphic" in2="BackgroundImageFix" result="shape"/><feGaussianBlur stdDeviation="5.93692" result="effect1_foregroundBlur_1_40"/></filter><radialGradient id="paint0_radial_1_40" cx="0" cy="0" r="1" gradientUnits="userSpaceOnUse" gradientTransform="matrix(-67 86 -86 -67 84.981 32.8014)"><stop offset=".286458" stop-color="#387AFA"/><stop offset=".647782" stop-color="#387AFA" stop-opacity="0"/></radialGradient><radialGradient id="paint1_radial_1_40" cx="0" cy="0" r="1" gradientUnits="userSpaceOnUse" gradientTransform="matrix(0 104 -104 0 77.0806 46.1299)"><stop offset=".598958" stop-opacity="0"/><stop offset=".671875"/><stop offset=".734375" stop-opacity="0"/></radialGradient><clipPath id="clip0_1_40"><rect width="128" height="128" rx="64" fill="#fff"/></clipPath></defs></svg>