<svg width="96" height="96" viewBox="0 0 96 96" fill="none" xmlns="http://www.w3.org/2000/svg"><g clip-path="url(#clip0_196_113)" id="icon"><path id="Vector" d="M112.267-20.8683H-14.8125V106.211H112.267V-20.8683Z" fill="#A1723A"/><g id="Group" filter="url(#filter0_f_196_113)"><path id="Vector_2" d="M51.6661 93.9814c28.2885 0 51.2209-22.9257 51.2209-51.2059S79.9546-8.43044 51.6661-8.43044.445312 14.4953.445312 42.7755c0 28.2802 22.932288 51.2059 51.220788 51.2059Z" fill="#531002"/></g><g id="Group_2" filter="url(#filter1_f_196_113)"><path id="Vector_3" d="M57.1872 77.7737c22.9438 0 41.5435-18.6064 41.5435-41.5585S80.131-5.34323 57.1872-5.34323c-22.9439 0-41.5436 18.60633-41.5436 41.55843s18.5997 41.5585 41.5436 41.5585Z" fill="#2B5DF0"/></g><g id="Group_3" filter="url(#filter2_f_196_113)"><path id="Vector_4" d="M56.4309 80.1484c23.9193 0 43.3099-19.3971 43.3099-43.3247 0-23.9275-19.3906-43.32465-43.3099-43.32465-23.9192 0-43.3098 19.39715-43.3098 43.32465 0 23.9276 19.3906 43.3247 43.3098 43.3247Z" fill="url(#paint0_radial_196_113)"/></g><g id="Group_4" filter="url(#filter3_f_196_113)"><path id="Vector_5" d="M63.6141 47.7328c12.0499 0 21.8182-9.7683 21.8182-21.8182 0-12.0498-9.7683-21.81813-21.8182-21.81813-12.0499 0-21.8182 9.76833-21.8182 21.81813 0 12.0499 9.7683 21.8182 21.8182 21.8182Z" fill="#FCB8D4"/></g><g id="Group_5" filter="url(#filter4_f_196_113)"><path id="Vector_6" d="M63.5991 34.6122c4.8119 0 8.7125-3.9005 8.7125-8.7124 0-4.8117-3.9006-8.7124-8.7125-8.7124-4.8118 0-8.7124 3.9007-8.7124 8.7124 0 4.8119 3.9006 8.7124 8.7124 8.7124Z" fill="#fff"/></g><g id="Group_6" filter="url(#filter5_f_196_113)"><path id="Vector_7" d="M57.8107 112.891c43.2403 0 78.2933-35.0535 78.2933-78.2936 0-43.24011-35.053-78.2931-78.2933-78.2931-43.2401 0-78.2931 35.05299-78.2931 78.2931 0 43.2401 35.053 78.2936 78.2931 78.2936Z" fill="url(#paint1_radial_196_113)" fill-opacity=".9"/></g></g><defs><filter id="filter0_f_196_113" x="-11.4285" y="-20.3043" width="126.189" height="126.16" filterUnits="userSpaceOnUse" color-interpolation-filters="sRGB"><feFlood flood-opacity="0" result="BackgroundImageFix"/><feBlend in="SourceGraphic" in2="BackgroundImageFix" result="shape"/><feGaussianBlur stdDeviation="5.93692" result="effect1_foregroundBlur_196_113"/></filter><filter id="filter1_f_196_113" x="-8.10413" y="-29.0909" width="130.582" height="130.612" filterUnits="userSpaceOnUse" color-interpolation-filters="sRGB"><feFlood flood-opacity="0" result="BackgroundImageFix"/><feBlend in="SourceGraphic" in2="BackgroundImageFix" result="shape"/><feGaussianBlur stdDeviation="11.8738" result="effect1_foregroundBlur_196_113"/></filter><filter id="filter2_f_196_113" x="4.21571" y="-15.4063" width="104.431" height="104.46" filterUnits="userSpaceOnUse" color-interpolation-filters="sRGB"><feFlood flood-opacity="0" result="BackgroundImageFix"/><feBlend in="SourceGraphic" in2="BackgroundImageFix" result="shape"/><feGaussianBlur stdDeviation="4.45269" result="effect1_foregroundBlur_196_113"/></filter><filter id="filter3_f_196_113" x="23.9851" y="-13.7143" width="79.2582" height="79.2579" filterUnits="userSpaceOnUse" color-interpolation-filters="sRGB"><feFlood flood-opacity="0" result="BackgroundImageFix"/><feBlend in="SourceGraphic" in2="BackgroundImageFix" result="shape"/><feGaussianBlur stdDeviation="8.90538" result="effect1_foregroundBlur_196_113"/></filter><filter id="filter4_f_196_113" x="43.0129" y="5.31354" width="41.1725" height="41.1725" filterUnits="userSpaceOnUse" color-interpolation-filters="sRGB"><feFlood flood-opacity="0" result="BackgroundImageFix"/><feBlend in="SourceGraphic" in2="BackgroundImageFix" result="shape"/><feGaussianBlur stdDeviation="5.93692" result="effect1_foregroundBlur_196_113"/></filter><filter id="filter5_f_196_113" x="-29.3878" y="-52.6011" width="174.397" height="174.397" filterUnits="userSpaceOnUse" color-interpolation-filters="sRGB"><feFlood flood-opacity="0" result="BackgroundImageFix"/><feBlend in="SourceGraphic" in2="BackgroundImageFix" result="shape"/><feGaussianBlur stdDeviation="4.45269" result="effect1_foregroundBlur_196_113"/></filter><radialGradient id="paint0_radial_196_113" cx="0" cy="0" r="1" gradientUnits="userSpaceOnUse" gradientTransform="matrix(-51 64 -64 -51 63.736 24.601)"><stop offset=".286458" stop-color="#387AFA"/><stop offset=".647782" stop-color="#387AFA" stop-opacity="0"/></radialGradient><radialGradient id="paint1_radial_196_113" cx="0" cy="0" r="1" gradientUnits="userSpaceOnUse" gradientTransform="matrix(0 78 -78 0 57.8107 34.5974)"><stop offset=".598958" stop-opacity="0"/><stop offset=".671875"/><stop offset=".734375" stop-opacity="0"/></radialGradient><clipPath id="clip0_196_113"><rect width="96" height="96" rx="48" fill="#fff"/></clipPath></defs></svg>