<svg width="1440" height="1000" viewBox="0 0 1440 1000" fill="none" xmlns="http://www.w3.org/2000/svg">
<mask id="mask0_2367_5968" style="mask-type:luminance" maskUnits="userSpaceOnUse" x="0" y="0" width="1440" height="1000">
<path d="M0 1000L1440 1000V0L0 0V1000Z" fill="white"/>
</mask>
<g mask="url(#mask0_2367_5968)">
<path d="M-356.959 1100.09C-349.153 970.801 -343.021 841.285 -339.471 711.64C-334.75 566.309 -329.553 419.383 -301.879 278.152C-266.018 98.0357 -191.305 -66.3251 -91.953 -195.091C-79.0449 -211.76 -65.5389 -228.3 -51.931 -243.9C-33.6854 -264.893 -14.8927 -285.016 4.35803 -304.303C-14.95 -285.119 -33.7999 -265.091 -52.1092 -244.193C-65.7679 -228.661 -79.3185 -212.208 -92.2902 -195.574C-192.17 -67.1348 -267.455 97.157 -303.896 277.402C-338.192 450.395 -339.267 630.864 -346.221 808.586C-349.879 905.712 -355.433 1002.67 -361.4 1099.59L-356.959 1100.08V1100.09Z" fill="url(#paint0_linear_2367_5968)" fill-opacity="0.92549"/>
<path d="M-344.91 1100.15C-332.244 938.558 -323.948 776.42 -316.55 614.256C-310.455 501.099 -301.828 387.39 -280.071 277.54C-251.748 136.516 -199.563 4.79482 -130.156 -106.958C-114.817 -131.75 -98.4295 -155.879 -81.4753 -178.655C-47.4525 -224.483 -10.3252 -265.961 28.4117 -304.277C8.97013 -285.231 -10.0197 -265.341 -28.4753 -244.554C-65.3863 -203.059 -99.8545 -157.343 -130.798 -107.673C-202.591 7.02592 -256.233 143.003 -284.429 288.593C-316.753 458.311 -319.858 634.568 -329.489 808.457C-334.827 905.643 -341.933 1002.61 -349.338 1099.56L-344.91 1100.17V1100.15Z" fill="url(#paint1_linear_2367_5968)" fill-opacity="0.92549"/>
<path d="M-332.976 1100.21C-321.48 970.862 -310.569 841.337 -303.056 711.425C-295.174 581.797 -287.96 451.428 -266.641 324.324C-240.768 165.296 -184.428 16.3118 -106.751 -107.725C-60.2014 -182.472 -5.64278 -247.432 53.0001 -304.295C-5.82091 -247.742 -60.6086 -183.006 -107.387 -108.458C-169.898 -9.30707 -218.877 105.711 -249.394 229.455C-279.702 353.51 -291.045 484.163 -300.098 613.696C-306.53 711.011 -312.16 808.396 -320.379 905.471C-325.679 970.19 -331.5 1034.84 -337.397 1099.48L-332.976 1100.21V1100.21Z" fill="url(#paint2_linear_2367_5968)" fill-opacity="0.92549"/>
<path d="M-321.18 1100.69C-301.879 922.924 -286.979 744.315 -273.569 565.56C-264.548 460.311 -253.045 354.863 -230.531 253.171C-197.113 104.773 -137.089 -31.884 -58.7631 -144.895C-34.0094 -180.567 -7.47434 -214.102 20.5493 -245.045C39.2402 -265.685 58.4846 -285.42 78.1807 -304.285C58.4273 -285.532 39.1321 -265.891 20.3775 -245.338C-7.74155 -214.533 -34.391 -181.109 -59.2656 -145.541C-142.191 -26.8188 -204.887 118.366 -237.574 275.905C-266.723 417.885 -276.68 565.207 -288.239 711.254C-298.246 841.183 -311.873 970.518 -325.589 1099.84L-321.18 1100.69Z" fill="url(#paint3_linear_2367_5968)" fill-opacity="0.92549"/>
<path d="M-309.73 1100.33C-290.441 939.919 -271.973 775.516 -258.028 613.748C-251.233 540.638 -243.815 467.589 -233.344 395.263C-229.902 372.143 -225.856 346.102 -221.645 323.334C-178.55 66.2923 -55.4429 -157.722 104.868 -304.277C-15.3828 -194.135 -116.166 -42.8422 -176.533 136.774C-202.158 211.185 -219.392 290.384 -232.027 370.532C-249.515 480.252 -259.631 599.129 -270.299 710.736C-282.635 840.709 -298.527 970.009 -314.126 1099.37L-309.73 1100.33V1100.33Z" fill="url(#paint4_linear_2367_5968)" fill-opacity="0.92549"/>
<path d="M-298.418 1100.39C-270.75 902.369 -248.077 703.112 -226.046 503.795C-222.77 476.978 -218.584 445.682 -214.678 418.866C-205.758 358.652 -195.121 298.206 -180.96 239.818C-141.015 75.7245 -68.1976 -72.5102 25.2124 -189.785C38.4449 -206.376 52.46 -222.924 66.494 -238.275C87.6915 -261.628 109.786 -283.509 132.345 -304.39C109.729 -283.621 87.5643 -261.861 66.2969 -238.602C52.2119 -223.312 38.146 -206.833 24.8626 -190.302C-48.8641 -98.3272 -110.045 12.6076 -152.389 135.775C-170.438 187.934 -184.873 242.506 -196.095 298.059C-209.836 365.199 -220.111 434.527 -228.756 503.174C-251.36 702.388 -274.567 901.335 -302.801 1099.3L-298.418 1100.38V1100.39Z" fill="url(#paint5_linear_2367_5968)" fill-opacity="0.92549"/>
<path d="M-287.19 1100.45C-257.537 906.332 -230.576 711.33 -206.573 515.76C-202.26 483.25 -197.571 450.834 -192.475 418.548C-190.395 405.049 -186.801 383.893 -184.447 370.23C-181.902 356.103 -178.225 336.014 -175.438 322.24C-172.448 306.984 -168.816 289.669 -165.412 274.62C-158.484 243.566 -150.246 211.185 -141.104 181.284C-99.5615 43.6538 -34.7413 -80.4264 45.3535 -181.903C60.7872 -201.492 77.2579 -220.745 93.754 -238.654C115.193 -261.783 137.523 -283.646 160.311 -304.277C137.466 -283.767 115.079 -262.016 93.5567 -238.99C77.0034 -221.158 60.4628 -201.983 44.9718 -182.463C-35.5302 -81.2533 -100.789 42.7063 -142.777 180.345C-147.949 197.161 -153.02 215.319 -157.492 232.496C-160.959 245.797 -165.648 266.187 -168.784 279.703C-173.015 298.869 -177.392 320.061 -181.17 339.4C-184.479 356.792 -189.021 382.144 -191.973 399.657C-209.105 502.442 -220.982 606.71 -234.622 710.366C-251.799 840.433 -272.144 969.707 -291.554 1099.26L-287.19 1100.45Z" fill="url(#paint6_linear_2367_5968)" fill-opacity="0.92549"/>
<path d="M-276.057 1100.6C-243.675 906.1 -212.445 711.055 -185.478 514.994C-180.63 482.423 -175.547 449.913 -170.063 417.54C-151.671 310.559 -128.781 204.026 -90.9671 106.383C-49.3737 -2.40669 6.95355 -100.67 73.5487 -183.496C100.58 -217.256 129.475 -248.491 159.566 -277.116C169.605 -286.678 179.765 -295.999 190.039 -305.096C179.74 -296.059 169.548 -286.782 159.484 -277.272C129.297 -248.784 100.313 -217.695 73.1669 -184.056C5.66205 -100.765 -51.3458 -1.65724 -93.4545 108.141C-142.288 234.831 -166.901 375.166 -188.207 514.235C-215.734 710.236 -247.461 904.816 -280.415 1099.29L-276.063 1100.59L-276.057 1100.6Z" fill="url(#paint7_linear_2367_5968)" fill-opacity="0.92549"/>
<path d="M-264.974 1100.56C-228.178 897.986 -192.049 694.99 -160.393 490.771C-156.372 466.97 -151.989 441.213 -147.618 417.704C-141.963 386.538 -135.054 351.969 -128.31 321.095C-114.251 257.186 -97.8884 194.043 -76.182 134.096C-43.7688 44.1199 -1.41197 -39.1201 48.5535 -112.876C98.5444 -186.752 156.29 -250.601 218.718 -304.285C177.036 -268.588 137.281 -228.695 100.618 -183.978C8.86865 -72.3454 -63.9483 68.3777 -106.986 225.158C-119.716 271.752 -130.957 320.423 -140.646 368.405C-147.148 400.424 -153.16 433.27 -158.847 465.548C-161.233 479.452 -164.865 500.505 -167.143 514.374C-197.743 710.453 -233.668 904.627 -269.307 1099.15L-264.974 1100.56Z" fill="url(#paint8_linear_2367_5968)" fill-opacity="0.92549"/>
<path d="M-253.968 1100.61C-216.167 905.772 -176.507 711.33 -143.229 514.899C-128.603 433.339 -112.908 352.071 -92.8052 272.665C-84.7512 241.335 -75.9083 209.031 -66.1494 178.726C-31.4013 71.099 17.3681 -28.1118 76.6281 -113.85C91.3048 -135.248 106.999 -156.034 122.91 -175.787C161.857 -223.872 204.347 -266.59 249.102 -304.277C204.245 -266.822 161.615 -224.294 122.509 -176.381C106.528 -156.68 90.7704 -135.98 76.0174 -114.625C7.92727 -16.8098 -46.5869 98.6992 -81.9393 224.408C-108.761 318.467 -128.088 416.265 -145.932 514.011C-179.771 710.357 -219.907 904.291 -258.281 1099.09L-253.968 1100.61Z" fill="url(#paint9_linear_2367_5968)" fill-opacity="0.92549"/>
<path d="M-243.013 1100.66C-202.801 907.089 -158.777 712.105 -122.343 516.845C-93.8424 372.995 -64.1329 227.387 -10.2295 96.5965C51.2762 -52.2326 140.29 -179.293 244.999 -273.715C250.152 -278.487 255.566 -283.061 260.655 -287.446L276.401 -300.996L260.623 -287.523C255.782 -283.414 249.528 -278.082 244.929 -273.87C146.378 -185.642 61.4614 -68.7117 0.248346 68.3158C-7.62754 85.889 -15.6942 105.151 -22.6986 123.353C-81.1888 276.136 -111.185 448.189 -144.234 613.514C-176.208 776.273 -213.527 936.895 -247.289 1099.03L-243.001 1100.66H-243.013Z" fill="url(#paint10_linear_2367_5968)" fill-opacity="0.92549"/>
<path d="M-232.065 1100.49C-188.862 905.789 -140.57 710.262 -100.42 514.037C-76.0866 399.708 -50.4168 285.268 -14.1037 176.693C-5.92883 152.737 3.09218 128.66 12.5394 105.625C71.8567 -38.4576 156.837 -162.383 256.94 -256.106C266.902 -265.461 278.125 -275.566 288.431 -284.215C294.907 -289.659 306.276 -299.023 312.536 -304.277C306.645 -299.496 293.934 -288.866 288.374 -284.335C278.048 -275.747 266.788 -265.677 256.8 -256.382C156.996 -163.649 71.9967 -40.9988 12.3231 101.8C0.782871 129.401 -10.0704 158.336 -19.6385 187.323C-64.1328 322.094 -93.556 469.484 -124.169 611.086C-159.502 774.508 -200.001 935.681 -236.333 1098.77L-232.065 1100.5V1100.49Z" fill="url(#paint11_linear_2367_5968)" fill-opacity="0.92549"/>
<path d="M-221.638 1100.6C-183.378 937.077 -140.328 774.981 -102.042 611.344C-67.4152 464.264 -35.9752 314.909 13.0232 175.082C20.5365 153.813 28.5396 132.795 37.0071 112.189C39.4755 106.375 47.5677 87.5179 50.1315 81.574C54.5338 72.15 59.6042 60.9686 64.0511 51.6135C69.0005 41.8535 74.9933 29.2422 80.1209 19.7148C82.1503 16.0106 92.1511 -3.00111 94.1359 -6.27454C98.6274 -14.0102 104.181 -24.0372 108.736 -31.6695C113.139 -38.7935 119.5 -49.3632 123.903 -56.4528C132.434 -69.624 143.688 -86.844 152.652 -99.3692L155.909 -104.055L157.537 -106.398C159.91 -109.629 163.804 -114.858 165.948 -117.769C169.555 -122.619 175.719 -131.121 179.53 -135.799C216.187 -183.143 256.228 -226.154 298.585 -263.738C313.827 -277.211 331.386 -292.114 347.182 -304.277C331.373 -292.217 313.808 -277.478 298.47 -263.98C255.992 -226.585 215.811 -183.746 179.002 -136.557C175.09 -131.785 169.18 -123.687 165.356 -118.579C163.797 -116.529 158.231 -108.991 156.901 -107.234C155.972 -105.899 152.989 -101.643 151.99 -100.213C143.033 -87.7399 131.651 -70.563 123.095 -57.3831C118.68 -50.3194 112.267 -39.7755 107.839 -32.6343C103.265 -25.0365 97.6603 -14.9922 93.1435 -7.2738C91.2477 -4.10374 81.037 14.9769 79.0331 18.6897C73.88 28.1999 67.8236 40.8198 62.8487 50.5712C59.7823 56.7993 55.679 65.9735 52.6381 72.3481C51.213 75.4578 48.9355 80.144 47.6122 83.3055C31.3579 119.933 16.3059 158.517 3.28966 197.393C-46.7521 345.998 -78.9428 504.381 -116.732 659.102C-152.326 805.993 -191.025 951.497 -225.894 1098.79L-221.65 1100.62L-221.638 1100.6Z" fill="url(#paint12_linear_2367_5968)" fill-opacity="0.92549"/>
<path d="M-211.255 1100.82C-170.534 936.629 -124.43 774.345 -82.7345 610.484C-40.7468 447.027 -3.38404 279.824 58.4016 127.506C64.4707 112.629 71.316 97.2355 77.8241 82.6688C79.7708 78.577 88.9763 59.0139 90.7703 55.3098C92.5326 51.821 97.113 42.8191 98.9261 39.2441C133.369 -28.4297 174.072 -90.7283 218.954 -146.023C268.665 -207.262 324.07 -260.085 382.789 -304.285C325.317 -261.472 271.076 -210.174 222.008 -151.149C175.573 -94.777 133.343 -31.2638 97.781 38.1673C95.917 41.794 91.3556 50.7356 89.568 54.2244C87.8376 57.7993 78.4285 77.5691 76.5263 81.5661C69.9673 96.1243 63.0711 111.509 56.9447 126.395C-5.31168 278.541 -43.1706 445.735 -85.6228 609.105C-127.757 772.785 -174.262 934.708 -215.473 1098.87L-211.255 1100.8V1100.82Z" fill="url(#paint13_linear_2367_5968)" fill-opacity="0.92549"/>
<path d="M-200.975 1101.32C-148.821 903.325 -88.88 708.255 -36.179 510.436C3.68395 364.795 43.6933 217.507 105.04 85.4762C168.365 -49.7164 254.408 -164.778 353.595 -251.635C375.047 -270.251 398.095 -288.858 420.546 -305.096C398.064 -288.978 374.983 -270.535 353.442 -251.954C267.539 -177.32 191.471 -81.6238 131.149 29.9571C99.7469 88.5171 72.6902 151.608 49.7051 216.879C-0.921979 359.161 -37.7949 509.816 -79.8208 656.922C-121.535 804.209 -165.794 950.739 -205.18 1099.28L-200.987 1101.31L-200.975 1101.32Z" fill="url(#paint14_linear_2367_5968)" fill-opacity="0.92549"/>
<path d="M-190.472 1100.91C-135.271 902.06 -71.1629 706.955 -14.2186 508.921C24.3974 377.286 63.1662 244.867 116.688 122.777C180.509 -21.7796 269.339 -145.567 373.309 -237.835C378.52 -242.676 384.563 -247.741 389.844 -252.177C393.858 -255.511 402.332 -262.808 406.569 -266.124C423.453 -279.717 440.642 -292.613 458.074 -304.871C440.611 -292.69 423.383 -279.881 406.467 -266.365C401.887 -262.73 394.31 -256.364 389.704 -252.496C384.474 -248.206 378.055 -242.719 373.125 -238.231C268.792 -146.36 179.542 -22.822 115.256 121.614C61.3594 243.558 22.1836 375.994 -16.8014 507.525C-74.2865 705.379 -138.846 899.967 -194.632 1098.78L-190.465 1100.91H-190.472Z" fill="url(#paint15_linear_2367_5968)" fill-opacity="0.92549"/>
<path d="M-180.102 1100.96C-121.796 901.155 -53.3816 706.041 7.90784 507.818C51.9568 367.879 95.7323 226.518 156.888 98.3632C161.539 88.7238 167.423 77.3271 172.169 67.748C178.397 56.3083 184.816 43.6969 191.28 32.5673C194.887 26.4253 199.862 17.3372 203.456 11.3417C205.874 7.38772 217.032 -11.021 219.253 -14.5615C223.948 -21.832 230.901 -32.5309 235.615 -39.8186C241.881 -48.7689 249.617 -60.4671 256.024 -69.1847C288.132 -113.867 323.541 -155.836 360.656 -192.739C369.442 -201.75 379.958 -211.424 388.998 -219.978C405.812 -235.113 426.24 -252.712 443.766 -266.202C460.994 -279.597 478.527 -292.26 496.302 -304.277C478.502 -292.347 460.93 -279.761 443.664 -266.443C426.131 -253.022 405.621 -235.57 388.756 -220.46C379.684 -211.941 369.143 -202.319 360.331 -193.343C323.09 -156.577 287.54 -114.746 255.279 -70.1668C248.848 -61.4836 241.061 -49.8026 234.769 -40.8609C230.023 -33.556 223.038 -22.9174 218.317 -15.6469C213.972 -8.60904 203.501 8.25775 199.34 15.5024C197.343 18.9567 192.221 27.8897 190.173 31.4302C183.671 42.534 177.195 55.1626 170.941 66.5765C167.194 73.9676 162.06 84.1755 158.307 91.5752C155.959 95.9598 147.135 115.17 144.839 119.864C74.8847 272.604 27.0823 441.143 -26.1086 605.133C-78.9623 769.261 -135.289 932.321 -184.243 1098.74L-180.102 1100.96Z" fill="url(#paint16_linear_2367_5968)" fill-opacity="0.92549"/>
<path d="M-169.732 1101.01C-118.456 933.338 -58.9734 769.416 -2.69711 604.677C55.3287 436 107.241 262.086 182.742 105.84C186.324 98.2254 195.943 79.8598 199.837 72.15C202.012 68.1615 212.834 48.297 214.787 44.7479C219.253 37.0295 225.856 25.7017 230.341 17.966C233.554 12.7975 240.043 2.23636 243.256 -2.94083C306.257 -103.297 382.49 -188.613 466.669 -254.504C489.622 -272.577 514.077 -289.487 538.042 -305.096C513.956 -289.504 489.559 -272.827 466.529 -254.831C382.114 -189.285 305.589 -104.219 242.276 -4.0693C239.032 1.17681 232.53 11.5829 229.285 16.8117C224.768 24.5818 218.133 35.8407 213.635 43.5677C211.759 46.9962 200.715 67.0417 198.583 70.9439C194.62 78.7485 185.033 96.8902 181.368 104.617C105.409 260.622 53.0003 434.433 -5.48357 602.928C-62.2052 767.478 -122.114 931.124 -173.854 1098.69L-169.745 1101.01H-169.732Z" fill="url(#paint17_linear_2367_5968)" fill-opacity="0.92549"/>
<path d="M-159.312 1101.06C-105.599 933.606 -43.1201 770.503 16.6679 606.84C70.6794 459.441 120.072 308.544 183.188 167.666C202.286 125.025 223.489 82.7465 246.379 43.6031C307.872 -62.3699 383.476 -153.518 467.954 -224.749C477.554 -232.459 488.712 -241.849 498.465 -249.205C521.952 -267.312 546.165 -283.602 570.62 -299.177C546.127 -283.714 521.87 -267.545 498.331 -249.533C488.579 -242.245 477.382 -232.89 467.744 -225.206C382.992 -154.293 307.083 -63.395 245.259 42.4144C196.751 124.758 158.154 217 122.013 309.974C72.4034 439.482 26.7513 573.227 -22.4507 703.105C-71.1247 833.818 -119.951 964.531 -163.39 1098.66L-159.305 1101.08L-159.312 1101.06Z" fill="url(#paint18_linear_2367_5968)" fill-opacity="0.92549"/>
<path d="M-148.948 1101.1C-81.2078 898.941 1.37453 702.905 75.9664 505.147C116.669 397.623 156.895 289.6 203.749 186.685C213.953 164.073 226.187 138.471 237.378 116.556C240.508 110.053 245.851 100.215 249.312 93.8491C252.251 88.4479 257.042 79.377 259.975 74.1998C263.385 68.3077 274.13 49.7869 277.45 44.0584C279.493 40.7936 285.263 31.4816 287.394 28.0617C297.223 11.953 307.656 -3.49247 318.115 -18.8604C324.744 -28.0174 332.868 -39.8792 339.656 -48.8122C342.201 -52.1632 355.357 -69.366 358.15 -73.0443C366.878 -83.6743 379.939 -100.067 388.953 -110.043C393.337 -114.961 400.265 -123.197 404.743 -127.935C409.966 -133.379 423.765 -148.54 429.077 -153.691C434.994 -159.558 443.881 -168.491 449.817 -174.331C453.85 -178.104 467.044 -190.302 471.052 -194.041C479.819 -202.035 490.322 -210.77 499.222 -218.505C505.177 -223.295 517.811 -233.365 523.601 -238.017C532.38 -244.675 541.872 -251.524 550.702 -258.114C572.039 -272.879 593.746 -287.325 615.745 -300.203C593.714 -287.428 571.976 -273.085 550.594 -258.407C541.674 -251.877 532.234 -244.977 523.435 -238.43C519.523 -235.372 504.585 -223.424 501.22 -220.788C494.89 -215.714 485.691 -207.574 479.399 -202.259C473.915 -197.831 459.327 -184.074 453.716 -178.974C448.939 -174.693 441.686 -167.371 436.966 -162.719C433.728 -159.437 427.519 -153.485 424.503 -150.34C419.076 -144.5 405.564 -130.433 400.214 -124.446C394.571 -118.054 386.148 -108.44 380.48 -102.014C375.454 -96.1219 362.628 -80.3319 357.444 -74.0866C353.245 -68.6423 340.967 -52.637 337.01 -47.4943C332.493 -41.4643 325.278 -31.1616 320.812 -25.0196C318.808 -22.1252 315.589 -17.8955 313.687 -14.9322C300.938 3.73495 288.367 23.2463 276.331 42.8094C272.037 50.2263 261.419 68.2129 257.182 75.6987C252.76 83.8048 246.329 95.6839 241.901 103.807C239.986 107.218 237.785 111.767 236.003 115.256C234.445 118.469 222.943 140.883 221.524 144.131C213.298 161.196 204.583 179.828 196.713 197.195C137.593 328.227 88.5246 466.848 35.3337 602.282C-28.7358 765.393 -96.1579 930.667 -153.007 1098.58L-148.954 1101.08L-148.948 1101.1Z" fill="url(#paint19_linear_2367_5968)" fill-opacity="0.92549"/>
<path d="M-139.024 1101.14C-67.8359 896.848 18.9261 699.71 98.5056 501.202C151.429 370.799 203.596 239.147 267.723 118.039C269.44 114.886 281.369 93.4277 283.423 89.6891C289.919 78.5766 296.484 67.5331 303.05 56.4896C308.018 48.6764 315.137 37.3314 320.067 29.5613C332.683 10.1705 345.96 -8.97902 359.402 -27.3705C364.174 -34.1758 376.802 -50.2415 381.929 -57.0123C388.934 -66.0745 398.012 -76.6874 405.194 -85.5945C410.615 -92.0811 423.561 -106.562 429.178 -113.074C434.637 -118.803 448.467 -133.817 453.881 -139.356C461.642 -146.971 471.408 -157.041 479.258 -164.441C481.256 -166.233 498.878 -182.678 500.863 -184.469C509.019 -191.542 519.172 -200.337 527.379 -207.297C533.511 -212.121 548.29 -224.173 554.493 -228.816C564.646 -236.207 576.466 -245.355 586.836 -252.178C611.329 -269.139 637.59 -285.369 662.98 -299.539C637.565 -285.489 611.272 -269.406 586.709 -252.514C576.314 -245.717 564.493 -236.663 554.289 -229.281C548.15 -224.724 533.187 -212.621 527.112 -207.874C518.879 -200.957 508.701 -192.188 500.519 -185.15C498.095 -182.876 481.72 -167.878 478.851 -165.199C474.061 -160.797 466.656 -153.26 461.859 -148.574C458.633 -145.343 452.182 -139.141 449.237 -135.885C446.87 -133.438 431.373 -116.916 428.599 -114.013C419.254 -103.383 405.551 -88.2047 396.708 -77.1525C387.623 -66.488 374.741 -49.94 365.993 -38.4916C361.667 -33.1163 355.375 -24.0713 351.189 -18.3858C334.019 4.95028 317.694 30.1299 301.892 55.2147C295.288 66.241 288.691 77.2845 282.151 88.3797C279.167 93.755 267.716 114.24 264.771 119.546C184.949 270.779 122.598 437.017 55.4427 598.69C-12.4057 762.62 -83.4604 928.979 -143.064 1098.59L-139.037 1101.17L-139.024 1101.14Z" fill="url(#paint20_linear_2367_5968)" fill-opacity="0.92549"/>
<path d="M-129.112 1101.18C-66.8876 928.85 7.97783 760.527 79.7133 594.874C121.847 497.377 166.781 390.482 210.702 295.346C230.386 252.835 251.157 209.109 272.405 168.087C278.207 157.268 285.39 143.614 291.249 132.881C293.081 129.59 305.398 108.028 307.567 104.161C313.636 93.7373 321.658 80.8331 327.855 70.4529C332.957 62.545 340.343 50.976 345.413 43.1025C403.56 -45.0906 470.511 -123.489 544.543 -186.322C552.845 -193.678 563.463 -202.026 572.033 -208.831C589.655 -222.933 610.4 -237.491 628.761 -249.663C657.605 -268.812 687.276 -285.757 717.247 -301.392C688.873 -286.816 660.875 -270.802 633.424 -253.255C630.688 -251.411 621.941 -245.58 619.014 -243.616C608.123 -236.604 591.894 -224.655 581.047 -216.696C572.134 -209.83 562.121 -201.793 553.272 -194.773C545.688 -188.312 535.866 -179.887 528.346 -173.478C520.877 -166.535 506.761 -153.88 499.623 -146.8C442.927 -92.1591 390.817 -28.3186 344.313 41.7845C339.223 49.6322 331.761 61.2184 326.659 69.1005C320.437 79.4807 312.376 92.3418 306.263 102.774C304.227 106.426 291.726 128.108 289.849 131.468C283.952 142.193 276.719 155.846 270.885 166.649C216.581 271.562 168.288 382.29 120.441 492.691C35.0536 691.81 -57.8603 892.118 -133.107 1098.53L-129.112 1101.2V1101.18Z" fill="url(#paint21_linear_2367_5968)" fill-opacity="0.92549"/>
<path d="M-119.125 1101.22C-40.6519 891.929 56.906 689.769 147.396 489.418C205.339 364.062 262.392 237.226 330.31 121.157C413.471 -19.1185 516.335 -139.236 634.518 -222.278C652.324 -234.683 670.455 -246.407 688.784 -257.321C715.465 -273.249 742.611 -287.729 770.106 -300.909C742.585 -287.85 715.401 -273.481 688.675 -257.665C670.309 -246.829 652.153 -235.182 634.301 -222.838C515.807 -140.218 412.549 -20.402 328.961 119.684C260.718 235.546 203.31 362.253 145.036 487.436C54.0114 687.555 -44.03 889.302 -123.088 1098.49L-119.118 1101.22H-119.125Z" fill="url(#paint22_linear_2367_5968)" fill-opacity="0.92549"/>
<path d="M-109.047 1101.26C-53.623 958.233 10.4592 821.8 75.3112 686.366C139.915 552.724 205.836 413.207 273.347 282.778C285.543 258.942 299.838 232.617 312.536 209.066C404.781 38.4767 521.775 -110.774 661.053 -208.469C714.085 -245.442 769.687 -275.445 826.409 -300.341C769.617 -275.678 713.939 -245.907 660.799 -209.141C510.813 -105.149 387.668 58.8926 291.039 244.065C232.116 354.63 176.941 468.726 121.625 582.616C40.3214 750.379 -43.7496 921.088 -112.998 1098.44L-109.06 1101.25L-109.047 1101.26Z" fill="url(#paint23_linear_2367_5968)" fill-opacity="0.92549"/>
<path d="M-98.8805 1101.3C-40.3521 955.433 27.6872 817.131 96.7125 680.078C174.905 526.304 252.538 371.781 335.973 223.098C363.647 173.471 393.432 125.894 424.828 80.523C551.09 -105.658 710.427 -234.683 890.408 -300.909C772.461 -256.02 658.318 -188.062 560.448 -87.2058C474.501 0.0138477 399.451 105.978 334.312 221.367C326.239 235.796 314.349 256.677 306.505 270.976C180.332 505.923 55.5709 742.876 -56.9627 990.321C-72.7526 1025.93 -88.0527 1061.96 -102.793 1098.4L-98.8805 1101.28V1101.3Z" fill="url(#paint24_linear_2367_5968)" fill-opacity="0.92549"/>
<path d="M-88.6257 1101.33C-26.6683 952.212 45.7478 811.705 119.373 672.816C184.053 551.398 249.522 430.729 316.671 311.783C420.164 124 541.553 -52.0505 694.815 -165.509C750.175 -206.755 809.003 -239.041 868.988 -265.676C883.525 -272.12 899.594 -278.736 914.309 -284.395C929.501 -290.244 944.77 -295.74 960.101 -300.9C940.927 -294.526 921.842 -287.634 902.877 -280.166C892.056 -275.841 879.498 -270.724 868.899 -266.038C823.807 -246.303 779.478 -223.148 736.637 -195.668C578.738 -94.4672 449.855 73.7009 343.906 259.184C324.636 292.134 304.793 327.426 285.994 360.815C172.188 566.059 57.6826 771.174 -43.9405 988.022C-60.7102 1024.32 -76.92 1061.11 -92.5063 1098.37L-88.6257 1101.33Z" fill="url(#paint25_linear_2367_5968)" fill-opacity="0.92549"/>
<path d="M-78.262 1101.37C21.4017 871.599 144.146 662.254 264.714 452.272C303.96 384.754 347.119 310.92 387.421 244.134C491.226 73.5881 613.455 -82.477 761.92 -178.638C850.787 -235.846 945.559 -274.998 1041.91 -301.314C945.495 -275.368 850.584 -236.552 761.563 -179.655C612.71 -83.9501 489.998 71.8567 385.709 242.213C345.223 308.939 301.975 382.479 262.532 449.946C161.24 624.463 59.7824 799.316 -30.3005 984.972C-48.2216 1022.2 -65.513 1059.98 -82.1045 1098.34L-78.262 1101.38V1101.37Z" fill="url(#paint26_linear_2367_5968)" fill-opacity="0.92549"/>
<path d="M-67.746 1101.41C-25.7137 1006.47 21.7008 915.601 70.5274 826.848C134.883 710.107 203.158 596.605 271.878 484.49C455.53 185.032 611.737 -95.088 897.076 -222.579C945.953 -245.381 996.052 -263.652 1046.61 -278.219C1080.35 -287.902 1114.34 -295.965 1148.49 -302.451C1114.32 -296.094 1080.31 -288.151 1046.55 -278.59C995.95 -264.195 945.794 -246.105 896.853 -223.475C611.063 -96.9573 453.933 183.05 269.638 481.958C203.438 589.404 137.568 698.125 75.2924 809.783C44.2405 865.345 13.4749 922.811 -15.5666 980.303C-34.9891 1018.96 -53.661 1058.3 -71.5503 1098.29L-67.7396 1101.41H-67.746Z" fill="url(#paint27_linear_2367_5968)" fill-opacity="0.92549"/>
<path d="M-60.1631 1099.85C48.0317 867.877 181.833 660.281 314.679 453.96C393.546 332.878 471.796 205.248 559.805 96.3808C567.586 86.4916 579.921 71.787 588.052 62.0959C591.958 57.3753 598.421 50.0704 602.474 45.4273C606.634 40.6808 612.831 33.4793 617.036 28.974C622.208 23.3747 634.149 10.1259 639.258 4.93152C644.716 -0.650544 652.649 -9.01504 658.076 -14.5799C665.233 -21.5144 677.778 -34.1601 685.011 -40.8104C690.648 -45.9531 698.957 -53.7749 704.574 -58.9176C709.924 -63.5693 723.163 -75.0694 728.507 -79.7125C731.408 -82.1073 737.802 -87.2328 740.703 -89.6103C745.124 -93.1164 752.504 -99.3531 757.033 -102.635C762.218 -106.451 776.678 -117.65 781.946 -121.173C787.901 -125.291 797.055 -131.691 803.023 -135.826C814.607 -143.2 829.99 -153.253 841.74 -160.006C992.845 -248.354 1157.42 -288.506 1321.32 -297.06C1529.87 -307.604 1739.01 -264.179 1937.97 -180.215L1939.29 -185.97C1745.83 -267.108 1542.89 -309.929 1340.19 -302.401C1175.89 -295.905 1010.72 -258.244 858.294 -173.031C841.435 -163.745 822.808 -152.176 806.293 -141.417C801.566 -138.522 794.078 -133.052 789.338 -129.805C786.259 -127.703 779.579 -122.956 776.672 -120.949C771.156 -116.763 757.313 -106.313 751.791 -102.11C744.329 -96.028 734.831 -88.301 727.368 -82.2107C722.05 -77.5676 708.735 -65.9641 703.41 -61.3124C696.234 -54.6363 687.092 -46.1512 679.916 -39.4752C669.54 -29.25 655.607 -15.7083 645.581 -5.00938C641.332 -0.555794 634.696 6.20642 630.593 10.7892C625.592 16.3454 613.263 29.6028 608.511 35.1591C603.345 41.1718 595.571 49.967 590.405 55.9539C583.853 63.948 572.001 77.7912 565.588 85.88C474.844 197.202 394.583 328.39 313.846 452.961C181.273 659.626 47.7391 867.584 -60.1567 1099.84L-60.1631 1099.85Z" fill="url(#paint28_linear_2367_5968)" fill-opacity="0.92549"/>
<path d="M-50.4937 1099.85C2.11828 989.7 61.9699 885.51 123.832 784.637C141.27 756.382 160.775 725.345 178.594 697.529C227.853 620.776 278.302 545.436 329.12 470.569C431.259 320.62 539.625 152.813 659.068 28.9743C666.047 21.6694 678.268 9.29068 685.297 2.24419C699.828 -12.0555 716.559 -27.6646 731.56 -41.1201C736.643 -45.5393 750.079 -56.9791 755.321 -61.5102C760.519 -65.6192 774.451 -76.9298 779.515 -80.944C1021.31 -267.202 1336.3 -305.079 1608.63 -258.95C1720.3 -240.093 1830.6 -206.919 1937.97 -161.419L1939.3 -167.173C1831.62 -212.51 1721.03 -245.477 1609.1 -264.092C1336.12 -309.628 1020.54 -270.906 778.402 -83.58C773.414 -79.514 759.38 -68.2638 754.176 -64.0428C748.82 -59.46 735.543 -47.9599 730.39 -43.5494C715.376 -30.0077 698.644 -14.3469 684.095 0.0130947C677.059 7.07681 664.832 19.5503 657.859 26.8552C538.652 150.875 430.024 319.509 328.3 469.544C277.583 544.548 227.23 620.018 178.072 696.909C160.361 724.699 140.761 755.926 123.418 784.163C61.69 885.2 1.97196 989.545 -50.4937 1099.84V1099.85Z" fill="url(#paint29_linear_2367_5968)" fill-opacity="0.92549"/>
<path d="M-41.4216 1101.29C69.3116 878.318 205.702 681.524 342.69 488.099C436.138 357.368 538.315 207.764 641.757 93.1681C654.945 78.5841 671.931 60.3907 685.469 46.4183C691.347 40.4659 703.677 28.1733 709.727 22.1261C726.719 5.85366 744.01 -10.3929 761.569 -25.4937C894.39 -141.873 1048.76 -206.514 1204.71 -235.588C1302.66 -253.747 1402.31 -258.691 1501.02 -251.352C1649.32 -240.506 1796.33 -202.449 1937.96 -142.304L1939.29 -148.058C1809.08 -203.026 1674.4 -239.232 1538.34 -253.083C1427.16 -264.308 1314.74 -260.5 1204.29 -239.688C1048.01 -210.158 893.366 -144.957 760.392 -27.9747C742.821 -12.8049 725.51 3.51919 708.518 19.8691C702.519 25.968 690.158 38.1658 684.254 44.2648C670.729 58.2974 653.718 76.5598 640.549 91.1954C537.335 205.774 434.942 356.516 341.882 487.065C205.148 680.852 69.0062 878.025 -41.428 1101.3L-41.4216 1101.29Z" fill="url(#paint30_linear_2367_5968)" fill-opacity="0.92549"/>
<path d="M-30.8232 1099.85C81.1887 881.762 218.673 690.568 357.373 503.724C496.766 318.577 632.437 122.637 800.076 -16.5445C927.687 -123.767 1073.98 -184.945 1222.14 -212.804C1231.51 -214.518 1242.29 -216.456 1251.71 -217.964C1264.9 -219.825 1281.87 -222.168 1295.05 -224.003C1308.89 -225.269 1326.96 -227.371 1340.81 -228.447C1353.69 -229.033 1373.69 -230.748 1386.64 -231.015C1505.6 -235.167 1625.65 -220.85 1742.42 -189.942C1808.36 -172.67 1873.85 -149.877 1937.96 -122.845L1939.29 -128.599C1874.99 -155.528 1809.32 -178.209 1743.19 -195.351C1626.1 -226.018 1505.77 -240.068 1386.54 -235.597C1373.43 -235.175 1353.84 -233.668 1340.61 -232.91C1326.72 -231.738 1308.73 -229.705 1294.76 -228.336C1273.91 -225.329 1251.48 -222.529 1230.81 -218.61C1079.19 -191.122 929.284 -129.107 798.899 -19.103C631.336 120.586 495.78 317.061 356.577 502.673C218.12 689.888 80.8833 881.469 -30.8359 1099.86L-30.8232 1099.85Z" fill="url(#paint31_linear_2367_5968)" fill-opacity="0.92549"/>
<path d="M-20.8157 1099.85C134.329 808.534 337.531 563.276 530.274 318.406C553.609 288.954 580.621 255.901 604.471 227.836C638.348 187.848 674.037 147.878 709.822 111.017C718.404 102.084 728.45 92.2553 737.121 83.4859C754.189 66.9551 773.707 48.3482 791.317 32.9631C796.966 28.0185 804.778 21.1787 810.396 16.3375C817.737 10.3247 830.206 -0.201947 837.554 -5.95629C843.292 -10.4443 851.524 -16.8103 857.225 -21.2553C864.464 -26.7857 877.901 -36.382 885.153 -41.7142C891.375 -45.918 905.167 -55.299 911.523 -59.5889C919.837 -64.8005 929.959 -71.1148 938.287 -76.3265C1050.4 -143.354 1171.24 -181.705 1292.98 -198.107C1449.23 -219.892 1608.51 -206.583 1762.32 -164.261C1821.52 -148.066 1880.29 -127.34 1937.96 -103.031L1939.29 -108.785C1892.95 -128.245 1846.05 -145.189 1798.71 -159.489C1793.7 -160.945 1780.65 -164.959 1776.51 -166.156L1772.06 -167.345L1763.13 -169.723C1608.91 -211.743 1449.24 -224.682 1292.66 -202.431C1172.15 -185.874 1052.56 -147.868 941.442 -81.9171C931.518 -75.9733 920.334 -68.7114 910.467 -62.578C904.143 -58.2537 890.306 -48.8813 884.059 -44.5914C876.775 -39.2419 863.338 -29.5594 856.092 -24.0118C850.367 -19.6013 842.128 -13.0545 836.403 -8.62673C828.927 -2.79485 816.617 7.74904 809.219 13.779C803.506 18.6461 795.802 25.5634 790.127 30.4821C772.53 45.9103 752.961 64.6637 735.918 81.2289C728.513 88.6717 719.613 97.6478 712.214 105.108C677.663 140.814 642.941 179.32 610.197 217.998C592.409 238.784 573.33 262.06 555.886 283.415C354.561 539.966 141.391 794.785 -20.822 1099.83L-20.8157 1099.85Z" fill="url(#paint32_linear_2367_5968)" fill-opacity="0.92549"/>
<path d="M-10.6873 1099.85C138.484 827.458 332.83 599.86 518.581 374.269C596.717 280.321 676.156 186.305 761.29 104.176C841.588 26.6648 928.083 -40.3544 1020.82 -86.3978C1121.88 -136.826 1228.52 -165.494 1335.73 -177.614C1433.71 -188.916 1533.56 -186.272 1631.29 -171.24C1735.28 -155.045 1838.07 -125.016 1937.97 -82.797L1939.3 -88.5513C1839.09 -130.624 1736 -160.455 1631.73 -176.417C1429.44 -206.757 1211.67 -185.815 1019.91 -89.7573C927.027 -43.3694 840.443 24.0116 760.093 101.893C675.03 184.298 595.635 278.598 517.614 372.787C332.168 598.912 138.159 826.967 -10.6809 1099.84L-10.6873 1099.85Z" fill="url(#paint33_linear_2367_5968)" fill-opacity="0.92549"/>
<path d="M-0.426229 1099.85C146.283 839.717 336.799 624.325 519.7 412.207C544.613 383.78 576.282 347.591 601.201 319.181C642.05 273.103 683.529 227.241 725.956 183.877C760.99 147.852 797.952 112.542 834.901 80.2639C843.547 72.8986 856.27 61.9757 865.043 54.8689C872.137 49.2696 880.859 41.9906 887.958 36.5033C896.928 29.8961 910.008 19.3953 919.004 13.2102C924.29 9.50606 937.351 -0.0902604 942.606 -3.44983C949.922 -8.26522 959.159 -14.6484 966.507 -19.3087C1093.61 -101.101 1233.33 -142.08 1373.22 -155.639C1563.62 -173.746 1755.95 -138.841 1937.96 -62.1304L1939.29 -67.8847C1758.12 -143.656 1566.83 -178.346 1377.41 -160.506C1235.69 -147.145 1094.08 -105.512 965.432 -22.3668C958.084 -17.672 948.841 -11.2716 941.493 -6.40453C936.321 -3.03634 923.158 6.56858 917.859 10.3503C908.933 16.6215 895.688 27.0361 886.781 33.7725C879.688 39.2684 870.934 46.5906 863.854 52.2329C855.062 59.3742 842.363 70.3488 833.699 77.7485C796.756 110.155 759.781 145.62 724.766 181.775C682.377 225.268 640.937 271.269 600.139 317.476C575.283 345.937 543.614 382.246 518.765 410.725C336.144 623.369 145.965 839.226 -0.438965 1099.84L-0.426229 1099.85Z" fill="url(#paint34_linear_2367_5968)" fill-opacity="0.92549"/>
<path d="M9.91846 1099.85C126.11 900.225 267.424 731.048 411.627 569.608C520.337 449.111 628.462 327.374 740.887 213.261C853.408 100.301 974.562 -1.18353 1108.61 -59.5454C1287.17 -136.471 1478.52 -150.65 1663.94 -120.776C1756.83 -105.503 1848.61 -78.4623 1937.98 -40.9557L1939.29 -46.7187C1849.63 -84.0875 1757.56 -110.955 1664.41 -126.013C1478.47 -155.465 1286.67 -140.735 1107.76 -63.1289C973.525 -4.29329 852.288 97.6741 739.736 211.142C627.437 325.6 519.484 447.63 410.921 568.445C266.947 730.282 125.83 899.906 9.92483 1099.85H9.91846Z" fill="url(#paint35_linear_2367_5968)" fill-opacity="0.92549"/>
<path d="M20.001 1099.85C196.394 807.31 423.872 583.468 643.195 354.199C795.419 196.97 954.26 40.6297 1138.95 -37.6398C1242.53 -81.2023 1350.73 -103.16 1459.03 -107.941C1528.31 -110.749 1597.97 -106.821 1666.81 -95.9241C1758.71 -81.5124 1849.55 -55.2991 1937.98 -18.5247L1939.28 -24.2876C1850.55 -60.9242 1759.41 -86.9652 1667.25 -101.162C1603.96 -110.87 1540 -115.194 1476.3 -113.179C1361.92 -110.077 1247.42 -87.4907 1138.1 -41.2836C953.23 37.606 794.389 194.533 642.183 352.415C423.179 582.305 195.981 806.819 20.001 1099.86V1099.85Z" fill="url(#paint36_linear_2367_5968)" fill-opacity="0.92549"/>
<path d="M30.1738 1099.85C59.368 1052.55 90.5663 1006.27 122.528 962.308C218.871 829.665 325.647 711.89 434.904 599.43C581.798 451.782 727.514 300.739 882.201 168.216C1042.59 31.4903 1205.61 -51.4912 1395.16 -73.9658C1503.21 -87.6367 1612.64 -82.9678 1719.98 -61.7508C1743.33 -57.3575 1768.63 -51.1379 1791.8 -45.1682C1840.8 -31.7989 1889.4 -15.5351 1937.23 4.16579L1938.52 -1.6058C1890.52 -21.2292 1841.75 -37.4068 1792.59 -50.6814C1769.32 -56.6339 1743.98 -62.7328 1720.56 -67.1088C1612.88 -88.0846 1503.16 -92.4693 1394.85 -78.4711C1205.01 -55.4623 1041.41 28.2772 881.03 165.658C726.414 298.714 580.996 450.093 434.23 598.225C325.119 711.011 218.495 829.105 122.331 962.041C90.4517 1006.08 59.3108 1052.46 30.1738 1099.85Z" fill="url(#paint37_linear_2367_5968)" fill-opacity="0.92549"/>
<path d="M40.448 1099.85C218.304 819.886 446.132 611.144 668.61 402.144C840.194 242.513 1015.33 76.5673 1218.55 1.24392C1372.71 -55.6879 1535.17 -66.1199 1693.55 -41.147C1725.37 -35.8751 1758.38 -29.2248 1789.86 -20.981C1839.83 -8.24904 1889.28 8.40239 1937.98 28.1033L1939.26 22.3317C1890.37 2.70833 1840.76 -13.8569 1790.63 -26.4855C1759.03 -34.6605 1725.92 -41.2418 1694 -46.4362C1535.15 -71.0386 1372.26 -60.1243 1217.75 -2.60667C1014.37 73.3628 839.176 239.998 667.65 400.292C445.458 609.93 217.878 819.386 40.4353 1099.86L40.448 1099.85Z" fill="url(#paint38_linear_2367_5968)" fill-opacity="0.92549"/>
<path d="M50.7735 1099.95C244.362 803.683 494.66 591.237 736.866 375.88C890.968 240.136 1049.05 104.09 1227 33.884C1328.98 -5.86239 1435.36 -24.5468 1541.4 -25.3479C1585.9 -25.7442 1631 -23.0737 1675.27 -17.2419C1764.27 -5.86239 1852.32 18.0078 1938 52.3444L1939.27 46.5642C1853.26 12.3655 1764.92 -11.3325 1675.64 -22.4966C1636.75 -27.5618 1597.25 -29.9738 1558.17 -30.3614C1451.81 -30.9644 1345.05 -14.0287 1242.33 23.8052C1057.82 92.487 894.568 233.348 735.874 373.821C493.967 589.885 243.924 803.097 50.7671 1099.94L50.7735 1099.95Z" fill="url(#paint39_linear_2367_5968)" fill-opacity="0.92549"/>
<path d="M61.334 1099.85C270.929 788.177 543.392 574.448 805.306 354.043C1048.56 151.271 1252.48 8.80797 1545.69 3.99259C1678.23 1.23601 1810.87 26.8894 1938.01 77.3261L1939.26 71.5372C1811.64 21.3073 1678.56 -4.04454 1545.63 -0.900326C1251.76 4.76788 1047.61 147.998 804.288 351.803C542.685 572.975 270.465 787.557 61.334 1099.86V1099.85Z" fill="url(#paint40_linear_2367_5968)" fill-opacity="0.92549"/>
<path d="M71.958 1099.85C191.381 926.264 332.81 783.741 479.786 655.904C627.233 528.602 778.695 409.855 930.818 293.148C1054.77 200.2 1184.21 116.064 1322.87 72.5964C1397.29 49.2775 1473.59 36.7609 1549.93 34.2369C1680.9 29.7575 1812.2 53.8431 1938.02 102.945L1939.25 97.1471C1812.94 48.2524 1681.21 24.4683 1549.84 29.344C1473.27 32.092 1396.76 44.867 1322.16 68.4701C1183.3 112.42 1053.75 197.047 929.736 290.521C777.753 407.701 626.476 526.88 479.182 654.647C332.384 782.931 191.114 925.919 71.958 1099.87V1099.85Z" fill="url(#paint41_linear_2367_5968)" fill-opacity="0.92549"/>
<path d="M82.71 1099.85C293.406 802.674 564.513 605.218 828.088 407.795C993.113 284.999 1160.9 159.557 1345.84 101.824C1451.01 69.1934 1559.72 58.6409 1667.37 67.1691C1693.86 69.1762 1721.58 72.665 1747.92 77.0927C1812.15 87.852 1875.73 105.503 1938.02 129.278L1939.22 123.472C1897.53 107.725 1855.28 94.6142 1812.64 84.5441C1764.82 73.2938 1716.07 65.5582 1667.59 61.9488C1559.6 53.7135 1450.58 64.6106 1345.13 97.6464C1160.01 155.991 992.19 282.027 827.147 405.478C563.845 603.693 292.954 802.028 82.7036 1099.84L82.71 1099.85Z" fill="url(#paint42_linear_2367_5968)" fill-opacity="0.92549"/>
<path d="M93.6772 1099.85C176.349 986.884 268.588 887.07 365.993 798.403C481.275 693.662 602.658 601.937 725.332 514.183C838.915 434.044 951.913 352.027 1067.85 278.246C1183.72 205.24 1304.67 143.441 1431.21 115.307C1599.66 78.1963 1773.79 94.865 1938.03 156.354L1939.22 150.539C1774.32 89.326 1599.61 73.1053 1430.66 110.844C1303.9 139.401 1182.77 201.674 1066.79 275.171C950.915 349.331 838.05 431.684 724.55 512.184C601.99 600.326 480.709 692.438 365.561 797.55C268.283 886.518 176.164 986.642 93.6709 1099.86L93.6772 1099.85Z" fill="url(#paint43_linear_2367_5968)" fill-opacity="0.92549"/>
<path d="M104.098 1099.85C315.748 817.259 584.463 633.955 848.738 458.655C962.582 383.736 1075.86 306.449 1194.1 244.856C1355.49 159.704 1515.22 116.96 1688.84 130.545C1773.03 136.54 1856.68 155.035 1938.05 184.832L1939.21 179.009C1898.36 164.192 1856.94 152.193 1815.18 143.173C1642.9 105.572 1464.37 120.483 1297.84 191.93C1141.15 257.364 994.766 359.185 847.879 456.286C583.846 632.405 315.309 816.596 104.098 1099.85Z" fill="url(#paint44_linear_2367_5968)" fill-opacity="0.92549"/>
<path d="M114.824 1099.64C171.412 1026.53 232.237 959.343 295.931 897.88C436.234 762.704 589.903 654.914 744.997 554.592C934.336 437.188 1121.21 307.594 1321.14 225.939C1345.61 216.265 1371.9 206.833 1396.74 199.157C1554.08 149.393 1719.29 150.142 1877.26 194.644C1897.65 200.381 1917.92 206.91 1938.07 214.069L1939.2 208.237C1918.97 201.113 1898.61 194.626 1878.14 188.924C1719.56 144.758 1553.8 144.483 1396.01 194.893C1371.1 202.681 1344.86 212.156 1320.28 221.968C1120.3 304.286 933.573 434.491 744.278 552.55C589.298 653.372 435.763 761.671 295.632 897.311C232.033 958.972 171.304 1026.35 114.83 1099.65L114.824 1099.64Z" fill="url(#paint45_linear_2367_5968)" fill-opacity="0.92549"/>
<path d="M125.009 1100.37C189.104 1019.72 258.88 946.285 331.652 880.566C412.968 806.897 499.177 742.273 586.416 682.421C715.408 594.451 848.337 517.457 981.057 440.54C1075.87 385.581 1170.94 331.113 1268.91 287.352C1302.96 272.062 1337.96 258.046 1372.69 245.857C1430 225.967 1488.48 210.874 1547.36 202.794C1637.03 190.614 1727.79 194.033 1816.97 211.4C1857.74 219.368 1898.18 230.351 1938.08 244.212L1939.18 238.371C1899.11 224.58 1858.49 213.683 1817.56 205.809C1728.04 188.649 1636.97 185.505 1546.99 197.996C1487.95 206.283 1429.34 221.582 1371.89 241.713C1337.09 254.049 1302.08 268.168 1267.99 283.605C1170.01 327.701 1074.9 382.531 980.172 437.783C847.574 515.114 714.708 592.548 585.844 680.922C498.674 741.058 412.542 805.967 331.315 879.912C258.644 945.863 188.97 1019.52 125.002 1100.38L125.009 1100.37Z" fill="url(#paint46_linear_2367_5968)" fill-opacity="0.92549"/>
<path d="M136.345 1099.85C318.152 876.268 539.593 723.468 763.859 593.565C914.226 508.266 1065.19 424.018 1218.6 349.28C1305.09 308.38 1393.42 273.423 1483.78 252.24C1553.94 235.744 1625.37 228.215 1696.57 230.851C1777.96 233.737 1859.12 248.571 1938.1 275.232L1939.17 269.383C1859.82 242.859 1778.34 228.224 1696.67 225.579C1625.22 223.15 1553.57 230.929 1483.19 247.692C1392.68 269.202 1304.27 304.486 1217.68 345.731C1064.27 421.003 913.507 505.681 763.197 591.488C539.104 722.116 317.809 875.674 136.345 1099.86V1099.85Z" fill="url(#paint47_linear_2367_5968)" fill-opacity="0.92549"/>
<path d="M147.701 1099.58C223.381 1009.67 306.071 930.348 392.617 860.787C583.75 708.013 791.603 599.283 999.016 494.628C1266.03 358.988 1528.77 223.752 1819.47 277.772C1833.99 280.262 1849.78 283.406 1864.24 286.697C1889.03 292.356 1913.67 299.179 1938.11 307.138L1939.15 301.272C1914.6 293.355 1889.84 286.576 1864.94 280.977C1850.34 277.755 1834.66 274.576 1819.99 272.156C1528.44 218.928 1265.62 354.991 998.233 491.794C790.935 597.121 583.191 706.549 392.254 859.96C305.811 929.797 223.235 1009.39 147.695 1099.57L147.701 1099.58Z" fill="url(#paint48_linear_2367_5968)" fill-opacity="0.92549"/>
<path d="M158.803 1099.85C276.235 963.996 409.616 854.904 548.983 765.548C751.269 635.447 965.299 540.13 1176.97 442.392C1346.38 366.112 1521.82 300.601 1701.67 302.211C1781.21 302.883 1860.66 315.839 1938.14 340.002L1939.13 334.127C1861.29 310.111 1781.53 297.362 1701.69 296.94C1521.47 295.871 1345.71 362.046 1176.13 438.998C964.554 537.433 750.652 633.448 548.519 764.23C409.272 854.052 276.038 963.591 158.809 1099.85H158.803Z" fill="url(#paint49_linear_2367_5968)" fill-opacity="0.92549"/>
<path d="M170.355 1099.85C367.844 877.12 606.71 735.949 847.561 622.292C940.436 578.419 1034.49 538.242 1128.23 498.022C1312.82 418.874 1501.74 342.517 1696.85 339.381C1777.91 338.089 1859.03 350.089 1938.15 373.855L1939.11 367.972C1859.62 344.36 1778.17 332.576 1696.8 334.135C1501.34 337.891 1312.19 414.928 1127.47 494.792C1033.78 535.322 939.768 575.809 846.956 619.983C606.233 734.45 367.507 876.43 170.349 1099.86L170.355 1099.85Z" fill="url(#paint50_linear_2367_5968)" fill-opacity="0.92549"/>
<path d="M182.138 1099.85C273.131 1000.8 373.017 917.031 477.497 846.686C577.542 779.469 682.085 723.106 787.525 673.453C846.563 645.629 908.151 618.967 967.977 594.288C983.678 587.698 1008 577.989 1023.88 571.52C1173.27 512.994 1322.12 449.378 1475.14 410.415C1546.73 392.343 1619.37 380.205 1692.2 377.655C1774.71 374.485 1857.48 385.227 1938.17 408.667L1939.1 402.766C1862.79 380.894 1784.7 370.213 1706.71 371.979C1667.95 372.831 1628.58 376.415 1590.06 382.238C1381.69 414.972 1181.86 506.672 981.318 585.777C919.138 611.508 855.272 639.202 793.868 668.078C686.125 719.014 579.272 776.609 477.128 845.687C372.75 916.384 272.984 1000.49 182.145 1099.86L182.138 1099.85Z" fill="url(#paint51_linear_2367_5968)" fill-opacity="0.92549"/>
<path d="M193.5 1099.85C287.317 1000.54 390.276 917.565 497.797 848.53C603.18 781.279 712.99 725.82 823.927 677.804C892.291 648.205 962.359 620.691 1031.55 595.055C1281.14 506.655 1534.61 396.943 1795.59 418.195C1843.5 422.39 1891.18 431.271 1938.19 444.468L1939.09 438.559C1891.86 425.457 1843.98 416.704 1795.85 412.647C1534.36 392.18 1280.77 502.77 1030.96 592.143C961.806 618.003 891.731 645.776 823.405 675.598C712.507 724.002 602.747 779.84 497.428 847.471C390.009 916.867 287.165 1000.2 193.506 1099.84L193.5 1099.85Z" fill="url(#paint52_linear_2367_5968)" fill-opacity="0.92549"/>
<path d="M204.271 1099.85C386.606 912.017 600.82 790.503 818.743 700.519C909.392 662.857 1002.2 630.079 1094.29 599.576C1168.15 575.396 1242.46 550.94 1316.58 528.465C1400.08 503.277 1484.34 481.164 1569.34 467.657C1640.03 456.501 1711.64 451.298 1782.78 455.554C1834.94 458.457 1887.03 467.157 1938.2 481.087L1939.07 475.177C1892.29 462.618 1844.87 454.408 1797.24 450.928C1721.15 445.424 1644.53 450.644 1568.92 462.885C1483.83 476.685 1399.5 499.108 1315.94 524.597C1241.85 547.322 1167.55 572.036 1093.72 596.458C1001.65 627.28 908.864 660.376 818.253 698.348C600.419 789.091 386.332 911.353 204.271 1099.84V1099.85Z" fill="url(#paint53_linear_2367_5968)" fill-opacity="0.92549"/>
<path d="M215.461 1099.85C390.206 925.498 593.319 810.945 800.401 727.679C881.247 694.98 964.122 666.604 1046.3 640.839C1193.27 596.604 1340.27 550.983 1489.15 520.023C1544.94 508.79 1601.16 500.219 1657.48 496.041C1704.1 492.518 1751.8 492.01 1798.43 495.455C1845.3 498.694 1892.16 506.335 1938.21 518.568L1939.06 512.65C1892.79 500.521 1845.72 493 1798.65 489.908C1754.24 486.738 1708.73 487.289 1664.33 490.399C1605.54 494.68 1546.86 503.596 1488.66 515.553C1339.75 547.029 1192.78 593.15 1045.81 637.901C963.645 663.951 880.77 692.619 799.956 725.603C592.963 809.584 389.946 924.869 215.474 1099.85H215.461Z" fill="url(#paint54_linear_2367_5968)" fill-opacity="0.92549"/>
<path d="M227.555 1099.85C379.251 953.098 552.12 850.381 729.512 775.282C942.912 685.039 1163.61 631.38 1383.38 578.463C1438.38 565.955 1493.76 554.851 1549.21 546.659C1650.84 531.713 1753.66 526.536 1855.49 540.637C1883.23 544.273 1910.84 549.777 1938.23 556.755L1939.05 550.828C1911.53 543.911 1883.79 538.484 1855.92 534.926C1772.39 523.667 1688.07 525.252 1604.49 534.668C1558.15 539.81 1511.69 547.512 1465.67 556.557C1364.28 576.697 1263.75 603.668 1163.14 629.83C1035.26 663.693 907.642 701.63 782.557 751.429C586.378 829.233 394.259 937.722 227.567 1099.87L227.555 1099.85Z" fill="url(#paint55_linear_2367_5968)" fill-opacity="0.92549"/>
<path d="M239.973 1099.85C577.237 784.775 992.076 693.377 1388.92 610.723C1547.9 579.066 1709.72 557.711 1870.05 582.288C1892.81 585.707 1915.72 590.101 1938.24 595.7L1939.03 589.765C1920.86 585.346 1902.59 581.616 1884.27 578.695C1880.71 578.075 1874.06 576.998 1870.52 576.533C1746.69 557.935 1621.43 566.799 1498.02 586.543C1388.87 604.263 1278.74 630.002 1170.31 654.846C1098.41 671.721 1024.55 690.638 953.333 712.01C702.347 786.774 452.444 899.629 239.973 1099.86V1099.85Z" fill="url(#paint56_linear_2367_5968)" fill-opacity="0.92549"/>
<path d="M252.69 1099.85C453.741 917.34 687.187 811.875 922.509 744.176C1042.7 709.477 1164.42 684.332 1286.15 661.883C1457.22 629.985 1629.89 600.179 1802.85 614.272C1848.15 618.131 1893.54 624.833 1938.25 635.394L1939.01 629.451C1894.09 619.001 1848.58 612.437 1803.09 608.716C1629.88 595.192 1456.96 625.609 1285.77 658.145C1168.58 680.215 1051.3 704.61 935.5 737.904C695.578 806.259 457.31 913.128 252.696 1099.84L252.69 1099.85Z" fill="url(#paint57_linear_2367_5968)" fill-opacity="0.92549"/>
<path d="M264.243 1101.2C553.831 846.642 900.23 752.419 1238.26 697.925C1443.67 666.147 1651.34 630.802 1858.04 660.547C1877.46 663.399 1898.96 667.241 1918.27 671.281C1927.36 673.288 1930.4 674.02 1938.25 675.76L1939.01 669.816L1925.63 666.87L1918.95 665.397C1899.51 661.409 1878.03 657.619 1858.49 654.836C1651.44 625.763 1443.58 661.822 1237.94 694.376C899.88 750.067 553.449 845.548 264.243 1101.21V1101.2Z" fill="url(#paint58_linear_2367_5968)" fill-opacity="0.92549"/>
<path d="M279.251 1099.85C460.765 945.794 667.058 852.82 876.068 795.259C1015.75 756.813 1157.43 733.52 1299.33 716.335C1405.78 703.508 1512.3 691.069 1619.17 687.925C1681.4 686.15 1743.85 687.511 1805.92 694.058C1840.96 697.728 1877.2 703.232 1911.93 710.589C1921.7 712.553 1929.1 714.422 1938.24 716.473L1939.01 710.537C1930.99 708.72 1920.4 706.273 1912.59 704.723C1877.71 697.461 1841.41 692.068 1806.22 688.511C1744.01 682.171 1681.43 681.025 1619.08 683.023C1512.14 686.547 1405.52 699.373 1299.08 712.57C1157.14 730.264 1015.42 754.074 875.731 793.028C666.747 851.355 460.529 945.087 279.244 1099.84L279.251 1099.85Z" fill="url(#paint59_linear_2367_5968)" fill-opacity="0.92549"/>
<path d="M292.292 1099.85C596.417 850.958 956.341 773.412 1305.77 741.582C1452.82 728.419 1600.78 716.256 1748.14 726.981C1765.61 728.531 1789.99 730.564 1807.41 732.933C1824.72 734.76 1846.01 738.317 1863.22 740.962C1872.48 742.702 1877.69 743.727 1886.1 745.312C1902.04 748.069 1922.5 753.177 1938.24 756.692L1939.04 750.756C1923.18 747.285 1902.27 742.142 1886.71 739.523C1879.84 738.266 1870.29 736.439 1863.75 735.242C1846.54 732.58 1824.77 729.177 1807.78 727.386C1790.28 725.077 1766.06 723.13 1748.36 721.631C1600.84 711.423 1452.73 724.112 1305.58 737.809C956.074 770.896 596.067 849.76 292.298 1099.84L292.292 1099.85Z" fill="url(#paint60_linear_2367_5968)" fill-opacity="0.92549"/>
<path d="M305.767 1099.85C679.648 805.2 1124.62 765.695 1547.8 756.788C1603.95 756.064 1661.65 757.494 1717.74 761.526C1741.88 763.412 1768.59 766.143 1792.7 769.063C1803.29 770.597 1817.83 772.63 1828.45 774.154C1845.51 777.04 1869.68 781.158 1886.71 784.939C1902.68 787.989 1922.52 793.14 1938.22 796.887L1939.06 790.969C1923.44 787.248 1902.69 782.054 1887.36 779.168C1870.17 775.403 1846.36 771.441 1828.92 768.564C1818.25 767.073 1803.76 765.075 1793.07 763.585C1768.89 760.725 1742.03 758.115 1717.95 756.297C1661.77 752.455 1604 751.24 1547.76 752.162C1124.44 762.603 679.222 803.727 305.767 1099.84V1099.85Z" fill="url(#paint61_linear_2367_5968)" fill-opacity="0.92549"/>
<path d="M319.699 1099.85C622.691 868.789 976.324 802.967 1319.31 790.804C1478.7 786.23 1638.99 783.689 1797.67 807.369C1808.49 809.221 1825.14 811.788 1836.18 813.83L1861.78 818.818L1868.18 820.067C1878.31 822.298 1890.19 825.046 1900.07 827.251C1915.41 830.929 1924.54 833.557 1938.19 837.002L1939.07 831.093C1928.5 828.492 1910.64 823.676 1900.82 821.454C1891.25 819.36 1878.27 816.423 1868.83 814.364C1865.41 813.684 1840.96 809.058 1836.74 808.231C1825.16 806.137 1809.84 803.846 1798.13 801.891C1639.18 778.761 1478.79 781.871 1319.23 787.04C976.114 800.461 622.367 867.592 319.699 1099.85Z" fill="url(#paint62_linear_2367_5968)" fill-opacity="0.92549"/>
<path d="M334.102 1099.85C537.176 950.29 765.412 873.674 994.054 839.389C1108.52 822.066 1224.13 815.493 1339.25 814.882C1505.57 815.347 1672.68 818.973 1837.47 852.087C1871.2 859.116 1904.79 867.343 1938.17 876.939L1939.1 871.047C1905.61 861.545 1871.92 853.422 1838.09 846.496C1673.03 813.951 1505.75 810.919 1339.24 811.066C1224.06 812.108 1108.35 819.111 993.844 836.865C765.164 872.012 536.967 949.489 334.102 1099.86V1099.85Z" fill="url(#paint63_linear_2367_5968)" fill-opacity="0.92549"/>
<path d="M349.045 1099.85C616.202 910.973 921.211 846.771 1219.79 839.182C1247.92 838.398 1280.31 838.251 1308.49 838.518C1451.99 840.974 1595.85 848.597 1738.48 870.719C1763.12 874.664 1789.24 879.462 1813.78 884.562C1855.09 893.271 1897.39 904.03 1938.13 916.616L1939.12 910.741C1898.24 898.276 1855.9 887.646 1814.39 879.075C1789.8 874.052 1763.64 869.349 1738.93 865.49C1596.08 843.877 1452.15 836.787 1308.5 834.857C1280.26 834.694 1247.92 834.969 1219.74 835.857C921.02 844.557 615.947 909.905 349.039 1099.87L349.045 1099.85Z" fill="url(#paint64_linear_2367_5968)" fill-opacity="0.92549"/>
<path d="M364.6 1099.85C696.062 875.509 1077.1 839.751 1441.72 868.747C1541.75 876.758 1641.92 887.139 1741.21 905.866C1764.97 910.199 1791.81 916.057 1815.49 921.458C1856.27 931.209 1897.92 942.675 1938.1 955.984L1939.15 950.126C1898.84 936.938 1857.12 925.601 1816.19 915.979C1792.34 910.613 1765.55 904.91 1741.74 900.637C1642.32 882.263 1542.03 872.253 1441.89 864.612C1077.02 836.969 695.763 874.157 364.594 1099.85H364.6Z" fill="url(#paint65_linear_2367_5968)" fill-opacity="0.92549"/>
<path d="M380.778 1099.85C718.882 880.807 1105.15 854.818 1473.23 897.657C1596.59 911.913 1720.21 930.744 1841.56 964.581C1873.91 973.635 1906.1 983.713 1938.07 994.998L1939.19 989.166C1907.12 977.976 1874.83 967.992 1842.39 959.042C1728.95 927.841 1613.47 909.768 1498.21 896.252C1121.96 850.959 726.293 874.424 380.778 1099.85Z" fill="url(#paint66_linear_2367_5968)" fill-opacity="0.92549"/>
<path d="M398.025 1100.36C753.713 879.032 1158.54 870.392 1540.94 933.57C1674.71 955.226 1808.17 984.411 1938.03 1033.62L1939.23 1027.81C1813.01 980.543 1683.4 951.996 1553.51 931.097C1166.92 867.222 757.282 875.182 398.025 1100.36Z" fill="url(#paint67_linear_2367_5968)" fill-opacity="0.92549"/>
<path d="M416.099 1099.85C835.169 851.948 1310.8 891.384 1750.13 1007.02C1813.38 1024.62 1876.16 1045.36 1938 1070.42L1939.27 1064.64C1877.23 1039.76 1814.29 1019.22 1750.9 1001.85C1311.04 887.835 834.914 850.156 416.099 1099.84V1099.85Z" fill="url(#paint68_linear_2367_5968)" fill-opacity="0.92549"/>
<path d="M433.466 1099.92C789.758 898.096 1189.82 903.454 1565.12 989.347C1691.04 1017.75 1816.31 1053.95 1937.96 1106.73L1939.31 1100.98C1817.32 1048.59 1691.85 1012.84 1565.67 984.885C1189.96 900.413 789.548 896.571 433.473 1099.92H433.466Z" fill="url(#paint69_linear_2367_5968)" fill-opacity="0.92549"/>
<path d="M452.049 1099.85C867.212 877.593 1331.3 929.581 1756.6 1070.46C1817.8 1091.25 1878.48 1114.98 1938.17 1142.63L1939.61 1136.92C1879.72 1109.45 1818.88 1085.91 1757.54 1065.34C1331.65 926.057 867.028 875.802 452.055 1099.86L452.049 1099.85Z" fill="url(#paint70_linear_2367_5968)" fill-opacity="0.92549"/>
<path d="M471.503 1099.85C705.439 980.251 959.719 948.895 1207.98 971.206C1456.4 995.894 1703.11 1065.63 1938.01 1177.81L1939.53 1172.14C1880.79 1143.45 1821.09 1118.5 1760.83 1096.42C1580 1031.26 1395.04 984.429 1208.13 968.191C959.681 946.87 705.299 979.243 471.503 1099.84V1099.85Z" fill="url(#paint71_linear_2367_5968)" fill-opacity="0.92549"/>
<path d="M492.218 1099.85C688.18 1005.5 898.182 972.601 1105.43 980.776C1389.64 994.378 1671.77 1077.81 1937.84 1212.44L1939.43 1206.81C1881.89 1176.96 1823.38 1150.66 1764.28 1127.16C1550.04 1042.95 1328.83 986.427 1105.48 978.235C898.118 970.904 688.052 1004.66 492.218 1099.86V1099.85Z" fill="url(#paint72_linear_2367_5968)" fill-opacity="0.92549"/>
<path d="M514.497 1099.85C687.372 1021.99 870.629 991.483 1052.4 994.429C1355.65 1001.22 1656.51 1095.41 1937.79 1246.58L1939.47 1241C1826.88 1179.15 1710.5 1130.69 1592.72 1090.69C1416.11 1030.86 1234.64 994.481 1052.42 992.172C870.566 989.975 687.263 1021.25 514.497 1099.85Z" fill="url(#paint73_linear_2367_5968)" fill-opacity="0.92549"/>
<path d="M536.655 1100.64C736.975 1016.81 949.522 995.179 1158.02 1015.88C1426.31 1044.07 1690.22 1138.43 1937.76 1280.16L1939.52 1274.62C1691.33 1133.73 1426.87 1040.34 1158.16 1013.24C949.515 993.413 736.886 1015.92 536.661 1100.64L536.655 1100.64Z" fill="url(#paint74_linear_2367_5968)" fill-opacity="0.92549"/>
<path d="M592.041 1100.57C986.197 963.401 1404.86 1056.96 1778.98 1254.26C1832.77 1282.46 1885.9 1312.98 1938.11 1346.18L1940 1340.72C1887.62 1307.69 1834.32 1277.35 1780.38 1249.34C1405.5 1053.52 986.191 961.583 592.041 1100.57Z" fill="url(#paint75_linear_2367_5968)" fill-opacity="0.92549"/>
<path d="M619.262 1101.2C951.869 996.678 1302.61 1055.07 1623.18 1202.69C1730.32 1252.35 1835.33 1310.75 1936.88 1378.64L1938.85 1373.23C1862.48 1322.47 1784.07 1277.38 1704.39 1237.01C1360.98 1062.49 979.963 986.35 619.262 1101.2Z" fill="url(#paint76_linear_2367_5968)" fill-opacity="0.92549"/>
<ellipse cx="416" cy="440" rx="625" ry="458" fill="url(#paint77_radial_2367_5968)"/>
<ellipse cx="135" cy="214" rx="625" ry="458" fill="url(#paint78_radial_2367_5968)"/>
<ellipse cx="135" cy="608" rx="625" ry="458" fill="url(#paint79_radial_2367_5968)"/>
<ellipse cx="1360" cy="472" rx="625" ry="458" fill="url(#paint80_radial_2367_5968)"/>
<ellipse cx="1360" cy="602" rx="625" ry="458" fill="url(#paint81_radial_2367_5968)"/>
<ellipse cx="1360" cy="150" rx="625" ry="458" fill="url(#paint82_radial_2367_5968)"/>
</g>
<defs>
<linearGradient id="paint0_linear_2367_5968" x1="-178.521" y1="-304.303" x2="-178.521" y2="1100.09" gradientUnits="userSpaceOnUse">
<stop stop-color="#5EA2EC"/>
<stop offset="1" stop-color="#1C4881"/>
</linearGradient>
<linearGradient id="paint1_linear_2367_5968" x1="-160.463" y1="-304.277" x2="-160.463" y2="1100.17" gradientUnits="userSpaceOnUse">
<stop stop-color="#5EA2EC"/>
<stop offset="1" stop-color="#1C4881"/>
</linearGradient>
<linearGradient id="paint2_linear_2367_5968" x1="-142.198" y1="-304.295" x2="-142.198" y2="1100.21" gradientUnits="userSpaceOnUse">
<stop stop-color="#5EA2EC"/>
<stop offset="1" stop-color="#1C4881"/>
</linearGradient>
<linearGradient id="paint3_linear_2367_5968" x1="-123.704" y1="-304.285" x2="-123.704" y2="1100.69" gradientUnits="userSpaceOnUse">
<stop stop-color="#5EA2EC"/>
<stop offset="1" stop-color="#1C4881"/>
</linearGradient>
<linearGradient id="paint4_linear_2367_5968" x1="-104.629" y1="-304.277" x2="-104.629" y2="1100.33" gradientUnits="userSpaceOnUse">
<stop stop-color="#5EA2EC"/>
<stop offset="1" stop-color="#1C4881"/>
</linearGradient>
<linearGradient id="paint5_linear_2367_5968" x1="-85.2281" y1="-304.39" x2="-85.2281" y2="1100.39" gradientUnits="userSpaceOnUse">
<stop stop-color="#5EA2EC"/>
<stop offset="1" stop-color="#1C4881"/>
</linearGradient>
<linearGradient id="paint6_linear_2367_5968" x1="-65.6214" y1="-304.277" x2="-65.6214" y2="1100.45" gradientUnits="userSpaceOnUse">
<stop stop-color="#5EA2EC"/>
<stop offset="1" stop-color="#1C4881"/>
</linearGradient>
<linearGradient id="paint7_linear_2367_5968" x1="-45.1877" y1="-305.096" x2="-45.1877" y2="1100.6" gradientUnits="userSpaceOnUse">
<stop stop-color="#5EA2EC"/>
<stop offset="1" stop-color="#1C4881"/>
</linearGradient>
<linearGradient id="paint8_linear_2367_5968" x1="-25.2941" y1="-304.285" x2="-25.2941" y2="1100.56" gradientUnits="userSpaceOnUse">
<stop stop-color="#5EA2EC"/>
<stop offset="1" stop-color="#1C4881"/>
</linearGradient>
<linearGradient id="paint9_linear_2367_5968" x1="-4.58955" y1="-304.277" x2="-4.58955" y2="1100.61" gradientUnits="userSpaceOnUse">
<stop stop-color="#5EA2EC"/>
<stop offset="1" stop-color="#1C4881"/>
</linearGradient>
<linearGradient id="paint10_linear_2367_5968" x1="14.556" y1="-300.996" x2="14.556" y2="1100.66" gradientUnits="userSpaceOnUse">
<stop stop-color="#5EA2EC"/>
<stop offset="1" stop-color="#1C4881"/>
</linearGradient>
<linearGradient id="paint11_linear_2367_5968" x1="38.101" y1="-304.277" x2="38.101" y2="1100.5" gradientUnits="userSpaceOnUse">
<stop stop-color="#5EA2EC"/>
<stop offset="1" stop-color="#1C4881"/>
</linearGradient>
<linearGradient id="paint12_linear_2367_5968" x1="60.6443" y1="-304.277" x2="60.6443" y2="1100.62" gradientUnits="userSpaceOnUse">
<stop stop-color="#5EA2EC"/>
<stop offset="1" stop-color="#1C4881"/>
</linearGradient>
<linearGradient id="paint13_linear_2367_5968" x1="83.6579" y1="-304.285" x2="83.6579" y2="1100.82" gradientUnits="userSpaceOnUse">
<stop stop-color="#5EA2EC"/>
<stop offset="1" stop-color="#1C4881"/>
</linearGradient>
<linearGradient id="paint14_linear_2367_5968" x1="107.683" y1="-305.096" x2="107.683" y2="1101.32" gradientUnits="userSpaceOnUse">
<stop stop-color="#5EA2EC"/>
<stop offset="1" stop-color="#1C4881"/>
</linearGradient>
<linearGradient id="paint15_linear_2367_5968" x1="131.721" y1="-304.871" x2="131.721" y2="1100.91" gradientUnits="userSpaceOnUse">
<stop stop-color="#5EA2EC"/>
<stop offset="1" stop-color="#1C4881"/>
</linearGradient>
<linearGradient id="paint16_linear_2367_5968" x1="156.029" y1="-304.277" x2="156.029" y2="1100.96" gradientUnits="userSpaceOnUse">
<stop stop-color="#5EA2EC"/>
<stop offset="1" stop-color="#1C4881"/>
</linearGradient>
<linearGradient id="paint17_linear_2367_5968" x1="182.094" y1="-305.096" x2="182.094" y2="1101.01" gradientUnits="userSpaceOnUse">
<stop stop-color="#5EA2EC"/>
<stop offset="1" stop-color="#1C4881"/>
</linearGradient>
<linearGradient id="paint18_linear_2367_5968" x1="203.615" y1="-299.177" x2="203.615" y2="1101.08" gradientUnits="userSpaceOnUse">
<stop stop-color="#5EA2EC"/>
<stop offset="1" stop-color="#1C4881"/>
</linearGradient>
<linearGradient id="paint19_linear_2367_5968" x1="231.369" y1="-300.203" x2="231.369" y2="1101.1" gradientUnits="userSpaceOnUse">
<stop stop-color="#5EA2EC"/>
<stop offset="1" stop-color="#1C4881"/>
</linearGradient>
<linearGradient id="paint20_linear_2367_5968" x1="259.958" y1="-299.539" x2="259.958" y2="1101.17" gradientUnits="userSpaceOnUse">
<stop stop-color="#5EA2EC"/>
<stop offset="1" stop-color="#1C4881"/>
</linearGradient>
<linearGradient id="paint21_linear_2367_5968" x1="292.07" y1="-301.392" x2="292.07" y2="1101.2" gradientUnits="userSpaceOnUse">
<stop stop-color="#5EA2EC"/>
<stop offset="1" stop-color="#1C4881"/>
</linearGradient>
<linearGradient id="paint22_linear_2367_5968" x1="323.509" y1="-300.909" x2="323.509" y2="1101.22" gradientUnits="userSpaceOnUse">
<stop stop-color="#5EA2EC"/>
<stop offset="1" stop-color="#1C4881"/>
</linearGradient>
<linearGradient id="paint23_linear_2367_5968" x1="356.705" y1="-300.341" x2="356.705" y2="1101.26" gradientUnits="userSpaceOnUse">
<stop stop-color="#5EA2EC"/>
<stop offset="1" stop-color="#1C4881"/>
</linearGradient>
<linearGradient id="paint24_linear_2367_5968" x1="393.808" y1="-300.909" x2="393.808" y2="1101.3" gradientUnits="userSpaceOnUse">
<stop stop-color="#5EA2EC"/>
<stop offset="1" stop-color="#1C4881"/>
</linearGradient>
<linearGradient id="paint25_linear_2367_5968" x1="433.798" y1="-300.9" x2="433.798" y2="1101.33" gradientUnits="userSpaceOnUse">
<stop stop-color="#5EA2EC"/>
<stop offset="1" stop-color="#1C4881"/>
</linearGradient>
<linearGradient id="paint26_linear_2367_5968" x1="479.902" y1="-301.314" x2="479.902" y2="1101.38" gradientUnits="userSpaceOnUse">
<stop stop-color="#5EA2EC"/>
<stop offset="1" stop-color="#1C4881"/>
</linearGradient>
<linearGradient id="paint27_linear_2367_5968" x1="538.471" y1="-302.451" x2="538.471" y2="1101.41" gradientUnits="userSpaceOnUse">
<stop stop-color="#5EA2EC"/>
<stop offset="1" stop-color="#1C4881"/>
</linearGradient>
<linearGradient id="paint28_linear_2367_5968" x1="939.565" y1="-303.25" x2="939.565" y2="1099.85" gradientUnits="userSpaceOnUse">
<stop stop-color="#5EA2EC"/>
<stop offset="1" stop-color="#1C4881"/>
</linearGradient>
<linearGradient id="paint29_linear_2367_5968" x1="944.403" y1="-281.443" x2="944.403" y2="1099.85" gradientUnits="userSpaceOnUse">
<stop stop-color="#5EA2EC"/>
<stop offset="1" stop-color="#1C4881"/>
</linearGradient>
<linearGradient id="paint30_linear_2367_5968" x1="948.933" y1="-259.27" x2="948.933" y2="1101.3" gradientUnits="userSpaceOnUse">
<stop stop-color="#5EA2EC"/>
<stop offset="1" stop-color="#1C4881"/>
</linearGradient>
<linearGradient id="paint31_linear_2367_5968" x1="954.225" y1="-236.41" x2="954.225" y2="1099.86" gradientUnits="userSpaceOnUse">
<stop stop-color="#5EA2EC"/>
<stop offset="1" stop-color="#1C4881"/>
</linearGradient>
<linearGradient id="paint32_linear_2367_5968" x1="959.233" y1="-213.185" x2="959.233" y2="1099.85" gradientUnits="userSpaceOnUse">
<stop stop-color="#5EA2EC"/>
<stop offset="1" stop-color="#1C4881"/>
</linearGradient>
<linearGradient id="paint33_linear_2367_5968" x1="964.307" y1="-189.319" x2="964.307" y2="1099.85" gradientUnits="userSpaceOnUse">
<stop stop-color="#5EA2EC"/>
<stop offset="1" stop-color="#1C4881"/>
</linearGradient>
<linearGradient id="paint34_linear_2367_5968" x1="969.424" y1="-165.107" x2="969.424" y2="1099.85" gradientUnits="userSpaceOnUse">
<stop stop-color="#5EA2EC"/>
<stop offset="1" stop-color="#1C4881"/>
</linearGradient>
<linearGradient id="paint35_linear_2367_5968" x1="974.606" y1="-140.11" x2="974.606" y2="1099.85" gradientUnits="userSpaceOnUse">
<stop stop-color="#5EA2EC"/>
<stop offset="1" stop-color="#1C4881"/>
</linearGradient>
<linearGradient id="paint36_linear_2367_5968" x1="979.641" y1="-113.663" x2="979.641" y2="1099.86" gradientUnits="userSpaceOnUse">
<stop stop-color="#5EA2EC"/>
<stop offset="1" stop-color="#1C4881"/>
</linearGradient>
<linearGradient id="paint37_linear_2367_5968" x1="984.346" y1="-86.5674" x2="984.346" y2="1099.85" gradientUnits="userSpaceOnUse">
<stop stop-color="#5EA2EC"/>
<stop offset="1" stop-color="#1C4881"/>
</linearGradient>
<linearGradient id="paint38_linear_2367_5968" x1="989.849" y1="-58.7909" x2="989.849" y2="1099.86" gradientUnits="userSpaceOnUse">
<stop stop-color="#5EA2EC"/>
<stop offset="1" stop-color="#1C4881"/>
</linearGradient>
<linearGradient id="paint39_linear_2367_5968" x1="995.018" y1="-30.377" x2="995.018" y2="1099.95" gradientUnits="userSpaceOnUse">
<stop stop-color="#5EA2EC"/>
<stop offset="1" stop-color="#1C4881"/>
</linearGradient>
<linearGradient id="paint40_linear_2367_5968" x1="1000.3" y1="-1.16113" x2="1000.3" y2="1099.86" gradientUnits="userSpaceOnUse">
<stop stop-color="#5EA2EC"/>
<stop offset="1" stop-color="#1C4881"/>
</linearGradient>
<linearGradient id="paint41_linear_2367_5968" x1="1005.6" y1="28.7197" x2="1005.6" y2="1099.87" gradientUnits="userSpaceOnUse">
<stop stop-color="#5EA2EC"/>
<stop offset="1" stop-color="#1C4881"/>
</linearGradient>
<linearGradient id="paint42_linear_2367_5968" x1="1010.96" y1="59.3195" x2="1010.96" y2="1099.85" gradientUnits="userSpaceOnUse">
<stop stop-color="#5EA2EC"/>
<stop offset="1" stop-color="#1C4881"/>
</linearGradient>
<linearGradient id="paint43_linear_2367_5968" x1="1016.44" y1="90.6473" x2="1016.44" y2="1099.86" gradientUnits="userSpaceOnUse">
<stop stop-color="#5EA2EC"/>
<stop offset="1" stop-color="#1C4881"/>
</linearGradient>
<linearGradient id="paint44_linear_2367_5968" x1="1021.65" y1="123.161" x2="1021.65" y2="1099.85" gradientUnits="userSpaceOnUse">
<stop stop-color="#5EA2EC"/>
<stop offset="1" stop-color="#1C4881"/>
</linearGradient>
<linearGradient id="paint45_linear_2367_5968" x1="1027.01" y1="156.41" x2="1027.01" y2="1099.65" gradientUnits="userSpaceOnUse">
<stop stop-color="#5EA2EC"/>
<stop offset="1" stop-color="#1C4881"/>
</linearGradient>
<linearGradient id="paint46_linear_2367_5968" x1="1032.09" y1="190.405" x2="1032.09" y2="1100.38" gradientUnits="userSpaceOnUse">
<stop stop-color="#5EA2EC"/>
<stop offset="1" stop-color="#1C4881"/>
</linearGradient>
<linearGradient id="paint47_linear_2367_5968" x1="1037.76" y1="225.144" x2="1037.76" y2="1099.86" gradientUnits="userSpaceOnUse">
<stop stop-color="#5EA2EC"/>
<stop offset="1" stop-color="#1C4881"/>
</linearGradient>
<linearGradient id="paint48_linear_2367_5968" x1="1043.42" y1="260.342" x2="1043.42" y2="1099.58" gradientUnits="userSpaceOnUse">
<stop stop-color="#5EA2EC"/>
<stop offset="1" stop-color="#1C4881"/>
</linearGradient>
<linearGradient id="paint49_linear_2367_5968" x1="1048.97" y1="296.927" x2="1048.97" y2="1099.85" gradientUnits="userSpaceOnUse">
<stop stop-color="#5EA2EC"/>
<stop offset="1" stop-color="#1C4881"/>
</linearGradient>
<linearGradient id="paint50_linear_2367_5968" x1="1054.73" y1="333.998" x2="1054.73" y2="1099.86" gradientUnits="userSpaceOnUse">
<stop stop-color="#5EA2EC"/>
<stop offset="1" stop-color="#1C4881"/>
</linearGradient>
<linearGradient id="paint51_linear_2367_5968" x1="1060.62" y1="371.79" x2="1060.62" y2="1099.86" gradientUnits="userSpaceOnUse">
<stop stop-color="#5EA2EC"/>
<stop offset="1" stop-color="#1C4881"/>
</linearGradient>
<linearGradient id="paint52_linear_2367_5968" x1="1066.3" y1="410.172" x2="1066.3" y2="1099.85" gradientUnits="userSpaceOnUse">
<stop stop-color="#5EA2EC"/>
<stop offset="1" stop-color="#1C4881"/>
</linearGradient>
<linearGradient id="paint53_linear_2367_5968" x1="1071.67" y1="448.742" x2="1071.67" y2="1099.85" gradientUnits="userSpaceOnUse">
<stop stop-color="#5EA2EC"/>
<stop offset="1" stop-color="#1C4881"/>
</linearGradient>
<linearGradient id="paint54_linear_2367_5968" x1="1077.26" y1="487.782" x2="1077.26" y2="1099.85" gradientUnits="userSpaceOnUse">
<stop stop-color="#5EA2EC"/>
<stop offset="1" stop-color="#1C4881"/>
</linearGradient>
<linearGradient id="paint55_linear_2367_5968" x1="1083.3" y1="527.036" x2="1083.3" y2="1099.87" gradientUnits="userSpaceOnUse">
<stop stop-color="#5EA2EC"/>
<stop offset="1" stop-color="#1C4881"/>
</linearGradient>
<linearGradient id="paint56_linear_2367_5968" x1="1089.5" y1="566.318" x2="1089.5" y2="1099.86" gradientUnits="userSpaceOnUse">
<stop stop-color="#5EA2EC"/>
<stop offset="1" stop-color="#1C4881"/>
</linearGradient>
<linearGradient id="paint57_linear_2367_5968" x1="1095.85" y1="605.422" x2="1095.85" y2="1099.85" gradientUnits="userSpaceOnUse">
<stop stop-color="#5EA2EC"/>
<stop offset="1" stop-color="#1C4881"/>
</linearGradient>
<linearGradient id="paint58_linear_2367_5968" x1="1101.62" y1="644.161" x2="1101.62" y2="1101.21" gradientUnits="userSpaceOnUse">
<stop stop-color="#5EA2EC"/>
<stop offset="1" stop-color="#1C4881"/>
</linearGradient>
<linearGradient id="paint59_linear_2367_5968" x1="1109.13" y1="682.128" x2="1109.13" y2="1099.85" gradientUnits="userSpaceOnUse">
<stop stop-color="#5EA2EC"/>
<stop offset="1" stop-color="#1C4881"/>
</linearGradient>
<linearGradient id="paint60_linear_2367_5968" x1="1115.67" y1="717.926" x2="1115.67" y2="1099.85" gradientUnits="userSpaceOnUse">
<stop stop-color="#5EA2EC"/>
<stop offset="1" stop-color="#1C4881"/>
</linearGradient>
<linearGradient id="paint61_linear_2367_5968" x1="1122.41" y1="751.869" x2="1122.41" y2="1099.85" gradientUnits="userSpaceOnUse">
<stop stop-color="#5EA2EC"/>
<stop offset="1" stop-color="#1C4881"/>
</linearGradient>
<linearGradient id="paint62_linear_2367_5968" x1="1129.39" y1="783.365" x2="1129.39" y2="1099.85" gradientUnits="userSpaceOnUse">
<stop stop-color="#5EA2EC"/>
<stop offset="1" stop-color="#1C4881"/>
</linearGradient>
<linearGradient id="paint63_linear_2367_5968" x1="1136.6" y1="811.061" x2="1136.6" y2="1099.86" gradientUnits="userSpaceOnUse">
<stop stop-color="#5EA2EC"/>
<stop offset="1" stop-color="#1C4881"/>
</linearGradient>
<linearGradient id="paint64_linear_2367_5968" x1="1144.08" y1="834.813" x2="1144.08" y2="1099.87" gradientUnits="userSpaceOnUse">
<stop stop-color="#5EA2EC"/>
<stop offset="1" stop-color="#1C4881"/>
</linearGradient>
<linearGradient id="paint65_linear_2367_5968" x1="1151.87" y1="856.707" x2="1151.87" y2="1099.85" gradientUnits="userSpaceOnUse">
<stop stop-color="#5EA2EC"/>
<stop offset="1" stop-color="#1C4881"/>
</linearGradient>
<linearGradient id="paint66_linear_2367_5968" x1="1159.99" y1="877.207" x2="1159.99" y2="1099.85" gradientUnits="userSpaceOnUse">
<stop stop-color="#5EA2EC"/>
<stop offset="1" stop-color="#1C4881"/>
</linearGradient>
<linearGradient id="paint67_linear_2367_5968" x1="1168.63" y1="896.552" x2="1168.63" y2="1100.36" gradientUnits="userSpaceOnUse">
<stop stop-color="#5EA2EC"/>
<stop offset="1" stop-color="#1C4881"/>
</linearGradient>
<linearGradient id="paint68_linear_2367_5968" x1="1177.69" y1="913.504" x2="1177.69" y2="1099.85" gradientUnits="userSpaceOnUse">
<stop stop-color="#5EA2EC"/>
<stop offset="1" stop-color="#1C4881"/>
</linearGradient>
<linearGradient id="paint69_linear_2367_5968" x1="1186.39" y1="930.32" x2="1186.39" y2="1106.73" gradientUnits="userSpaceOnUse">
<stop stop-color="#5EA2EC"/>
<stop offset="1" stop-color="#1C4881"/>
</linearGradient>
<linearGradient id="paint70_linear_2367_5968" x1="1195.83" y1="946.284" x2="1195.83" y2="1142.63" gradientUnits="userSpaceOnUse">
<stop stop-color="#5EA2EC"/>
<stop offset="1" stop-color="#1C4881"/>
</linearGradient>
<linearGradient id="paint71_linear_2367_5968" x1="1205.52" y1="962.089" x2="1205.52" y2="1177.81" gradientUnits="userSpaceOnUse">
<stop stop-color="#5EA2EC"/>
<stop offset="1" stop-color="#1C4881"/>
</linearGradient>
<linearGradient id="paint72_linear_2367_5968" x1="1215.83" y1="977.268" x2="1215.83" y2="1212.44" gradientUnits="userSpaceOnUse">
<stop stop-color="#5EA2EC"/>
<stop offset="1" stop-color="#1C4881"/>
</linearGradient>
<linearGradient id="paint73_linear_2367_5968" x1="1226.98" y1="992.064" x2="1226.98" y2="1246.58" gradientUnits="userSpaceOnUse">
<stop stop-color="#5EA2EC"/>
<stop offset="1" stop-color="#1C4881"/>
</linearGradient>
<linearGradient id="paint74_linear_2367_5968" x1="1238.09" y1="1006.51" x2="1238.09" y2="1280.16" gradientUnits="userSpaceOnUse">
<stop stop-color="#5EA2EC"/>
<stop offset="1" stop-color="#1C4881"/>
</linearGradient>
<linearGradient id="paint75_linear_2367_5968" x1="1266.02" y1="1033.85" x2="1266.02" y2="1346.18" gradientUnits="userSpaceOnUse">
<stop stop-color="#5EA2EC"/>
<stop offset="1" stop-color="#1C4881"/>
</linearGradient>
<linearGradient id="paint76_linear_2367_5968" x1="1279.06" y1="1046.56" x2="1279.06" y2="1378.64" gradientUnits="userSpaceOnUse">
<stop stop-color="#5EA2EC"/>
<stop offset="1" stop-color="#1C4881"/>
</linearGradient>
<radialGradient id="paint77_radial_2367_5968" cx="0" cy="0" r="1" gradientUnits="userSpaceOnUse" gradientTransform="translate(416 440) rotate(90) scale(458 625)">
<stop stop-color="#1B2543"/>
<stop offset="1" stop-color="#1B2543" stop-opacity="0"/>
</radialGradient>
<radialGradient id="paint78_radial_2367_5968" cx="0" cy="0" r="1" gradientUnits="userSpaceOnUse" gradientTransform="translate(135 214) rotate(90) scale(458 625)">
<stop stop-color="#1B2543"/>
<stop offset="1" stop-color="#1B2543" stop-opacity="0"/>
</radialGradient>
<radialGradient id="paint79_radial_2367_5968" cx="0" cy="0" r="1" gradientUnits="userSpaceOnUse" gradientTransform="translate(135 608) rotate(90) scale(458 625)">
<stop stop-color="#1B2543"/>
<stop offset="1" stop-color="#1B2543" stop-opacity="0"/>
</radialGradient>
<radialGradient id="paint80_radial_2367_5968" cx="0" cy="0" r="1" gradientUnits="userSpaceOnUse" gradientTransform="translate(1360 472) rotate(90) scale(458 625)">
<stop stop-color="#1B2543"/>
<stop offset="1" stop-color="#1B2543" stop-opacity="0"/>
</radialGradient>
<radialGradient id="paint81_radial_2367_5968" cx="0" cy="0" r="1" gradientUnits="userSpaceOnUse" gradientTransform="translate(1360 602) rotate(90) scale(458 625)">
<stop stop-color="#1B2543"/>
<stop offset="1" stop-color="#1B2543" stop-opacity="0"/>
</radialGradient>
<radialGradient id="paint82_radial_2367_5968" cx="0" cy="0" r="1" gradientUnits="userSpaceOnUse" gradientTransform="translate(1360 150) rotate(90) scale(458 625)">
<stop stop-color="#1B2543"/>
<stop offset="1" stop-color="#1B2543" stop-opacity="0"/>
</radialGradient>
</defs>
</svg>
