<svg width="118" height="39" viewBox="0 0 118 39" fill="none" xmlns="http://www.w3.org/2000/svg">
<path d="M19.5 39C30.3063 39 39 30.3063 39 19.5C39 8.69369 30.3063 0 19.5 0C8.69369 0 0 8.69369 0 19.5C0 30.3063 8.69369 39 19.5 39Z" fill="#2775CA"/>
<path d="M24.8625 22.5874C24.8625 19.7437 23.1562 18.7687 19.7437 18.3626C17.3062 18.0375 16.8187 17.3876 16.8187 16.2499C16.8187 15.1123 17.6313 14.3812 19.2562 14.3812C20.7187 14.3812 21.5313 14.8687 21.9375 16.0875C22.0188 16.3312 22.2626 16.4937 22.5063 16.4937H23.8062C24.1312 16.4937 24.375 16.2499 24.375 15.9251V15.8437C24.0499 14.0562 22.5874 12.675 20.7187 12.5126V10.5626C20.7187 10.2375 20.475 9.99374 20.0688 9.91243H18.8501C18.525 9.91243 18.2812 10.1562 18.1999 10.5626V12.4312C15.7624 12.7563 14.2188 14.3812 14.2188 16.4126C14.2188 19.0938 15.8437 20.1499 19.2562 20.5563C21.5313 20.9625 22.2626 21.45 22.2626 22.7501C22.2626 24.0501 21.1249 24.9438 19.5813 24.9438C17.4687 24.9438 16.7374 24.0499 16.4937 22.8312C16.4126 22.5063 16.1688 22.3437 15.9251 22.3437H14.5437C14.2188 22.3437 13.9751 22.5874 13.9751 22.9125V22.9938C14.2999 25.0249 15.6 26.4874 18.2812 26.8938V28.8438C18.2812 29.1687 18.525 29.4124 18.9312 29.4937H20.1499C20.475 29.4937 20.7187 29.25 20.8001 28.8438V26.8938C23.2376 26.4874 24.8625 24.7812 24.8625 22.5874Z" fill="white"/>
<path d="M15.3563 31.1187C9.01875 28.8438 5.76869 21.7751 8.12507 15.5187C9.34382 12.1062 12.0251 9.50626 15.3563 8.28751C15.6813 8.12508 15.8438 7.88133 15.8438 7.47495V6.33751C15.8438 6.01245 15.6813 5.7687 15.3563 5.68758C15.2749 5.68758 15.1125 5.68758 15.0312 5.7687C7.3125 8.2062 3.08744 16.4126 5.52494 24.1313C6.98744 28.6812 10.4813 32.175 15.0312 33.6375C15.3563 33.7999 15.6813 33.6375 15.7624 33.3124C15.8438 33.2313 15.8438 33.15 15.8438 32.9876V31.8499C15.8438 31.6062 15.6 31.2813 15.3563 31.1187ZM23.9688 5.7687C23.6438 5.60626 23.3187 5.7687 23.2376 6.09376C23.1563 6.17508 23.1563 6.2562 23.1563 6.41883V7.55626C23.1563 7.88133 23.4 8.2062 23.6438 8.36883C29.9813 10.6437 33.2313 17.7124 30.8749 23.9688C29.6562 27.3813 26.9749 29.9813 23.6438 31.2C23.3187 31.3624 23.1563 31.6062 23.1563 32.0126V33.15C23.1563 33.4751 23.3187 33.7188 23.6438 33.7999C23.7251 33.7999 23.8875 33.7999 23.9688 33.7188C31.6875 31.2813 35.9126 23.0749 33.4751 15.3563C32.0126 10.725 28.4374 7.2312 23.9688 5.7687Z" fill="white"/>
<path d="M80 9.43804C80.0745 9.43454 80.138 9.42949 80.2012 9.42949C82.5599 9.42949 84.9182 9.42483 87.2769 9.43104C88.793 9.43493 90.263 9.69068 91.6598 10.2986C93.9233 11.2838 95.4854 12.9466 96.4107 15.2172C96.7597 16.0739 96.9726 16.9651 97.0822 17.8823C97.1995 18.8637 97.2081 19.8463 97.1153 20.8293C96.9496 22.5826 96.4165 24.2092 95.3996 25.6609C94.3846 27.1106 93.0234 28.1247 91.3868 28.7827C90.2802 29.2277 89.1275 29.4648 87.9379 29.5227C87.5292 29.5425 87.1198 29.5495 86.7107 29.5503C84.5536 29.553 82.3965 29.5515 80.2394 29.5515H80.0004V9.43804H80ZM83.9223 25.9022C83.9832 25.9065 84.028 25.9127 84.0732 25.9127C85.1194 25.9127 86.1656 25.9127 87.2118 25.9108C87.7472 25.9096 88.2736 25.8342 88.7926 25.7067C89.9702 25.4179 90.9727 24.8427 91.737 23.8912C92.4096 23.054 92.8085 22.0936 92.9851 21.0395C93.1208 20.2299 93.1368 19.4164 93.0659 18.5998C92.9992 17.833 92.8284 17.0926 92.5114 16.3879C91.9709 15.1869 91.1415 14.258 89.9394 13.6843C89.156 13.3104 88.3254 13.099 87.459 13.0807C86.3224 13.0566 85.1849 13.0694 84.0475 13.0675C84.0097 13.0675 83.9719 13.076 83.9223 13.0818V25.9026V25.9022Z" fill="white"/>
<path d="M114.005 22.0306C115.233 22.4003 116.442 22.7648 117.666 23.1333C117.65 23.2083 117.639 23.2709 117.621 23.3311C116.86 25.9244 115.26 27.8149 112.828 29.0077C111.779 29.5227 110.671 29.8169 109.506 29.9211C107.525 30.0983 105.612 29.8476 103.805 28.9988C100.889 27.6287 99.0899 25.3359 98.3109 22.2394C97.9825 20.9342 97.9396 19.6026 98.0648 18.264C98.2477 16.307 98.9199 14.5355 100.109 12.9699C101.479 11.1661 103.289 10 105.463 9.38633C106.598 9.06607 107.757 8.95996 108.935 9.02098C109.966 9.07423 110.974 9.23553 111.95 9.58106C113.662 10.1874 115.083 11.1906 116.14 12.6765C116.765 13.5556 117.216 14.5203 117.5 15.5616C117.508 15.5919 117.514 15.623 117.526 15.6747C116.298 16.0606 115.076 16.445 113.84 16.8333C113.815 16.7529 113.796 16.6922 113.778 16.6316C113.458 15.5791 112.941 14.6521 112.05 13.9696C111.349 13.432 110.563 13.0721 109.693 12.9077C108.358 12.6551 107.052 12.7511 105.796 13.2859C104.109 14.0038 103.026 15.2747 102.443 16.9884C102.227 17.6239 102.122 18.2823 102.091 18.9512C102.051 19.8152 102.077 20.6773 102.32 21.5137C103.042 23.9977 104.656 25.5462 107.218 26.0414C108.379 26.2656 109.537 26.1762 110.649 25.7401C112.296 25.0942 113.364 23.9005 113.936 22.2471C113.957 22.1865 113.975 22.1251 114.005 22.031V22.0306Z" fill="white"/>
<path d="M77.0023 14.2311C75.8395 14.5864 74.6806 14.9405 73.5077 15.2988C73.4901 15.2506 73.4738 15.2118 73.4613 15.1713C73.4071 14.9984 73.3615 14.8223 73.2987 14.6529C72.8425 13.4231 71.9207 12.7608 70.6584 12.5342C70.0123 12.4184 69.3635 12.4285 68.7279 12.6147C68.0884 12.802 67.539 13.1316 67.1296 13.6676C66.3813 14.6466 66.5396 15.9914 67.4895 16.7206C67.8299 16.9818 68.2183 17.1477 68.6347 17.2364C69.2886 17.3755 69.9464 17.4948 70.6023 17.6258C71.3147 17.7681 72.0357 17.8726 72.7317 18.0903C73.8536 18.4413 74.8604 18.9912 75.6878 19.8315C76.7999 20.9606 77.3528 22.3276 77.2928 23.9079C77.214 25.9897 76.2349 27.5824 74.5106 28.7251C73.487 29.4034 72.3515 29.7913 71.126 29.9133C69.8739 30.0381 68.63 29.9942 67.4123 29.6688C65.8015 29.2386 64.4203 28.4259 63.3741 27.1059C62.6145 26.1479 62.1954 25.044 62.0086 23.8457C62.0008 23.7952 62.0031 23.7435 62 23.6724C63.2037 23.3537 64.4047 23.0354 65.6197 22.7135C65.6478 22.8814 65.6704 23.0342 65.6989 23.1854C66.0132 24.8579 67.2099 26.0569 68.8858 26.3752C69.7199 26.5334 70.5528 26.5338 71.379 26.3278C71.8267 26.2163 72.2268 26.0118 72.5765 25.7052C73.5576 24.8439 73.6329 23.1461 72.4069 22.2502C71.9955 21.9494 71.5315 21.7706 71.0375 21.6684C70.0139 21.4566 68.9884 21.2564 67.9648 21.0454C66.8044 20.8059 65.7285 20.3745 64.7919 19.6341C63.6997 18.7708 63.022 17.6604 62.8294 16.2802C62.5167 14.0407 63.247 12.1821 64.9635 10.7195C66.0689 9.77734 67.367 9.24097 68.8098 9.07073C70.1223 8.91604 71.42 9.00738 72.6791 9.42559C73.8341 9.80921 74.8436 10.4272 75.641 11.3612C76.3386 12.1782 76.7617 13.1277 77.005 14.1643C77.0077 14.1763 77.0042 14.1899 77.0023 14.2315V14.2311Z" fill="white"/>
<path d="M45.0008 9.44036H48.9102C48.9173 9.47923 48.9286 9.5212 48.9313 9.56396C48.9352 9.62187 48.9325 9.68056 48.9325 9.73886C48.9325 13.839 48.9333 17.9395 48.9317 22.0396C48.9317 22.5923 48.9711 23.1391 49.1235 23.6736C49.4776 24.9146 50.2851 25.7001 51.5329 26.025C52.3732 26.2439 53.2225 26.2365 54.0577 26.0044C55.302 25.6589 56.0862 24.8462 56.4172 23.6024C56.5291 23.1811 56.5822 22.7509 56.5833 22.3152C56.5853 21.5378 56.5857 20.7605 56.5857 19.9831C56.5857 16.5566 56.5857 13.13 56.5857 9.70349C56.5857 9.6207 56.5857 9.53792 56.5857 9.44269H60.5045C60.5088 9.50488 60.5162 9.56085 60.5162 9.61721C60.5162 13.9311 60.5193 18.2454 60.5139 22.5592C60.5123 23.6708 60.3244 24.7498 59.8674 25.7728C58.9861 27.7453 57.5032 29.031 55.4252 29.635C54.2375 29.9802 53.026 30.0641 51.7977 29.9565C50.8252 29.8713 49.887 29.6482 49.0031 29.2328C47.1411 28.3575 45.9651 26.8918 45.3517 24.957C45.0955 24.1536 45.0039 23.3234 45.0023 22.4842C44.9984 20.4763 45.0008 18.4681 45.0008 16.4602C45.0008 14.1997 45.0008 11.9388 45.0008 9.67823V9.43997V9.44036Z" fill="white"/>
</svg>
