<svg width="180" height="180" viewBox="0 0 180 180" fill="none" xmlns="http://www.w3.org/2000/svg">
<g clip-path="url(#clip0_125_2)">
<path d="M71.5276 83.2009C71.4053 82.8118 71.3164 82.4172 71.2497 82.017C71.2163 81.8336 71.183 81.6446 71.1441 81.4612C71.0551 81.061 70.9606 80.6664 70.855 80.2717C72.6058 77.6261 80.9653 63.8141 71.4497 54.9489C60.8893 45.111 48.5503 58.0059 48.5503 58.0059L48.5892 58.0615C43.0422 56.3773 37.0283 56.1772 31.1811 58.0059C31.1088 57.9281 18.8143 45.1388 8.28161 54.9489C-2.25104 64.759 9.12089 80.633 9.18203 80.7164C9.05975 81.0888 8.96526 81.4723 8.89856 81.8558C7.75915 88.6534 0 90.7488 0 102.582C0 114.415 8.11487 124.148 24.6781 124.148H31.4757C31.5035 124.192 34.3048 128.155 40.0519 128.155C45.3877 128.149 48.906 124.187 48.9393 124.148H55.4257C71.9889 124.148 80.1038 114.643 80.1038 102.582C80.1038 91.5658 73.3729 88.9869 71.5276 83.2009Z" fill="#E68441"/>
<path d="M179.155 65.9541C179.155 65.9541 180.556 52.987 169.906 50.2024V45H161.664V50.069C150.431 52.5535 151.881 65.9541 151.881 65.9541V68.1774C151.881 68.1774 150.431 81.578 161.669 84.0625V95.1955C149.83 97.352 151.326 111.192 151.326 111.192V113.415C151.326 113.415 149.875 126.816 161.108 129.3V134.369H169.356V129.167C180.006 126.382 178.605 113.415 178.605 113.415C179.072 113.415 179.45 113.037 179.45 112.57V112.031C179.45 111.564 179.072 111.186 178.605 111.186C178.605 111.186 179.994 98.3302 169.495 95.4678V84.0625H169.373C180.606 81.578 179.161 68.1774 179.161 68.1774C179.628 68.1774 180.006 67.7994 180.006 67.3326V66.7934C180 66.3321 179.622 65.9541 179.155 65.9541ZM172.435 111.186H171.679C171.213 111.186 170.835 111.564 170.835 112.031V112.57C170.835 113.037 171.213 113.415 171.679 113.415H172.435C172.435 121.458 169.762 122.814 168.867 123.042C168.717 123.081 168.578 122.969 168.578 122.819V120.257C168.578 118.84 167.678 118.062 166.772 117.639C165.632 117.106 164.298 117.106 163.159 117.639C162.258 118.062 161.352 118.84 161.352 120.257V122.819C161.352 122.969 161.213 123.081 161.069 123.047C160.174 122.825 157.495 121.48 157.495 113.421V111.197C157.495 103.155 160.169 101.799 161.063 101.571C161.213 101.532 161.352 101.643 161.352 101.793V104.355C161.352 105.773 162.253 106.551 163.159 106.973C164.298 107.507 165.632 107.507 166.772 106.973C167.672 106.551 168.578 105.773 168.578 104.355V101.793C168.578 101.643 168.717 101.532 168.861 101.565C169.756 101.787 172.435 103.132 172.435 111.186ZM172.241 68.1774H172.997C172.997 76.2367 170.318 77.5818 169.423 77.8041C169.278 77.843 169.139 77.7263 169.139 77.5762V75.0139C169.139 73.5966 168.239 72.8184 167.333 72.396C166.194 71.8624 164.86 71.8624 163.72 72.396C162.82 72.8184 161.914 73.5966 161.914 75.0139V77.5762C161.914 77.7263 161.769 77.8374 161.625 77.7985C160.724 77.5706 158.056 76.2145 158.056 68.1718V65.9486C158.056 57.8893 160.735 56.5442 161.63 56.3219C161.775 56.283 161.914 56.3997 161.914 56.5498V59.1176C161.914 60.535 162.814 61.3131 163.72 61.7355C164.86 62.2691 166.194 62.2691 167.333 61.7355C168.233 61.3131 169.139 60.535 169.139 59.1176V56.5553C169.139 56.4053 169.284 56.2941 169.428 56.333C170.329 56.5609 172.997 57.9115 172.997 65.9597H172.241C171.774 65.9597 171.396 66.3377 171.396 66.8045V67.3437C171.396 67.7994 171.774 68.1774 172.241 68.1774Z" fill="#E68441"/>
<path d="M138.414 88.8536C138.414 88.8536 139.87 75.3751 128.532 72.9518V60.8406C139.57 58.2561 138.136 44.9999 138.136 44.9999C138.136 44.9999 131.95 44.9999 131.972 44.9999C131.972 53.0592 129.293 54.4043 128.398 54.6266C128.254 54.6655 128.115 54.5488 128.115 54.3987V51.8364C128.115 50.4191 127.214 49.641 126.309 49.2186C125.169 48.685 123.835 48.685 122.696 49.2186C121.795 49.641 120.889 50.4191 120.889 51.8364V54.3987C120.889 54.5488 120.745 54.66 120.6 54.6211C119.7 54.3932 117.032 53.0426 117.032 44.9944C117.06 44.9944 110.868 44.9944 110.868 44.9944C110.868 44.9944 109.384 58.7508 121.106 60.9684V72.924C109.679 75.314 111.14 88.8536 111.14 88.8536V91.0768C111.14 91.0768 109.679 104.616 121.101 106.995V118.395C109.378 120.613 110.862 134.369 110.862 134.369C110.862 134.369 117.049 134.369 117.026 134.369C117.026 126.31 119.705 124.965 120.6 124.742C120.745 124.704 120.884 124.82 120.884 124.97V127.533C120.884 128.95 121.784 129.728 122.69 130.15C123.83 130.684 125.164 130.684 126.303 130.15C127.203 129.728 128.109 128.95 128.109 127.533V124.97C128.109 124.82 128.254 124.709 128.398 124.748C129.299 124.976 131.967 126.326 131.967 134.375C131.939 134.375 138.131 134.375 138.131 134.375C138.131 134.375 139.565 121.119 128.526 118.534V106.984C139.865 104.555 138.409 91.0824 138.409 91.0824C138.875 91.0824 139.253 90.7044 139.253 90.2376V89.6984C139.259 89.2315 138.881 88.8536 138.414 88.8536ZM131.5 91.0768H132.256C132.256 99.1361 129.577 100.481 128.682 100.704C128.537 100.742 128.398 100.626 128.398 100.476V97.9133C128.398 96.496 127.498 95.7179 126.592 95.2954C125.453 94.7619 124.119 94.7619 122.979 95.2954C122.079 95.7179 121.173 96.496 121.173 97.9133V100.476C121.173 100.626 121.028 100.737 120.884 100.698C119.983 100.47 117.315 99.1139 117.315 91.0713V88.848C117.315 80.7887 119.994 79.4437 120.889 79.2213C121.034 79.1824 121.173 79.2992 121.173 79.4492V82.0171C121.173 83.4344 122.073 84.2125 122.979 84.635C124.119 85.1685 125.453 85.1685 126.592 84.635C127.492 84.2125 128.398 83.4344 128.398 82.0171V79.4548C128.398 79.3047 128.543 79.1936 128.687 79.2325C129.588 79.4603 132.256 80.8165 132.256 88.8591H131.5C131.033 88.8591 130.655 89.2371 130.655 89.704V90.2431C130.655 90.6989 131.033 91.0768 131.5 91.0768Z" fill="#E68441"/>
</g>
<defs>
<clipPath id="clip0_125_2">
<rect width="180" height="89.3747" fill="white" transform="translate(0 45)"/>
</clipPath>
</defs>
</svg>
