<svg width="97" height="24" viewBox="0 0 97 24" fill="none" xmlns="http://www.w3.org/2000/svg">
<g clip-path="url(#clip0_299_227)">
<path d="M15.1491 12.0546C15.8992 10.8796 16.2743 9.55233 16.2743 8.11624C16.2743 6.81071 15.9617 5.61397 15.3574 4.50427C14.7323 3.39457 13.8988 2.52422 12.836 1.87146C11.7733 1.24045 10.6064 0.914062 9.37696 0.914062H0.5V3.9603H9.37696C10.4814 3.9603 11.4191 4.37372 12.2109 5.1788C12.9819 5.98387 13.3778 6.96302 13.3778 8.138C13.3778 9.31298 12.9819 10.2704 12.2109 11.0972C11.4399 11.9023 10.5022 12.3157 9.37696 12.3157H0.5V22.9558H3.41731V15.3619H9.37696C9.39779 15.3619 9.43947 15.3619 9.48114 15.3619C9.52282 15.3619 9.5645 15.3619 9.58533 15.3619L13.3778 22.9775H16.2951L12.1901 14.7309C13.4195 14.1217 14.3989 13.2513 15.1491 12.0546Z" fill="#C4FF61"/>
<path d="M19.4001 10.4227V13.4689H34.2575V10.4227H19.4001ZM19.4001 19.9966L17.8789 22.9775H34.2784V19.9966H19.4001ZM17.8789 0.914062L19.4001 3.9603H34.2575V0.914062H17.8789Z" fill="#C4FF61"/>
<path d="M52.0738 0.913867V16.8196L36.4453 0V22.9991H39.3626V7.31097L54.9911 24V0.913867H52.0738Z" fill="#C4FF61"/>
<path d="M63.0966 14.8397L68.2853 11.6412C69.6189 10.8143 70.6816 9.70464 71.4527 8.29032C72.2237 6.87599 72.5987 5.35287 72.5987 3.72096V0.914062H57.4287V3.9603H69.7023V4.00382C69.7023 5.04825 69.4522 6.02739 68.9521 6.94127C68.452 7.85514 67.7643 8.57318 66.91 9.09539L61.7838 12.2504C60.4294 13.0773 59.3875 14.187 58.5956 15.6013C57.8246 17.0156 57.4287 18.5387 57.4287 20.1706V22.9558H72.5987V19.9095H60.3252C60.3252 18.8651 60.5752 17.886 61.0753 16.9939C61.5546 16.08 62.2423 15.3619 63.0966 14.8397Z" fill="#C4FF61"/>
<path d="M96.5002 12.9248C96.5002 12.9466 96.5002 12.9683 96.5002 12.9901C96.0209 18.4298 91.895 22.651 86.8522 23.2167C86.8106 23.2167 86.7897 23.2167 86.748 23.2167L96.5002 12.9248Z" fill="#C4FF61"/>
<path d="M90.4364 1.69716C90.1655 1.56661 89.8946 1.43606 89.6029 1.3055C89.0403 1.08792 88.4776 0.892088 87.8733 0.783294C87.1648 0.630982 86.4147 0.543945 85.6645 0.543945C85.3103 0.543945 84.9352 0.565701 84.5809 0.609219C82.0804 0.870325 79.8299 2.00178 78.1003 3.74249C77.9753 3.85129 77.8711 3.98184 77.7669 4.09063C76.1207 5.89662 75.058 8.26833 74.8288 10.8794C74.8079 11.2058 74.7871 11.5539 74.7871 11.9021C74.7871 12.7507 74.8705 13.5775 75.0372 14.3826C75.1622 14.9918 75.3289 15.5793 75.5581 16.1233C75.6831 16.4279 75.8082 16.7325 75.954 17.0371C76.2041 17.5594 76.4958 18.0381 76.8084 18.5168L78.6004 16.6237L90.1238 4.4823L91.9159 2.58928C91.4366 2.24113 90.9573 1.95827 90.4364 1.69716ZM77.5377 14.0562C77.5169 13.9692 77.496 13.9039 77.4752 13.8168C77.3502 13.2076 77.2668 12.5548 77.2668 11.9021C77.2668 9.6609 78.0795 7.52853 79.5381 5.89662L79.8299 5.57024C81.3927 4.0036 83.4557 3.13325 85.6437 3.13325C86.2271 3.13325 86.7897 3.19852 87.3524 3.30731C87.4357 3.32907 87.5191 3.35084 87.6024 3.37259L77.5377 14.0562Z" fill="#C4FF61"/>
<path d="M81.9139 22.5639C81.643 22.4551 81.3721 22.3463 81.1221 22.2158C80.5803 21.9547 80.0802 21.65 79.5801 21.3019L94.6251 5.4397C94.9585 5.94015 95.2294 6.44061 95.4794 6.98458C95.6044 7.26744 95.7295 7.55031 95.8337 7.85493L81.9139 22.5639Z" fill="#C4FF61"/>
</g>
<defs>
<clipPath id="clip0_299_227">
<rect width="97" height="24" fill="#C4FF61"/>
</clipPath>
</defs>
</svg>
