<svg width="96" height="96" viewBox="0 0 96 96" fill="none" xmlns="http://www.w3.org/2000/svg">
<path d="M23.1956 32.2261C22.5232 31.4965 21.6989 31.128 20.7144 31.128H0.6003C0.416208 31.128 0.272129 31.0742 0.168077 30.9667C0.0560212 30.8592 0 30.744 0 30.6135V17.6743C0 17.5438 0.0560212 17.4286 0.168077 17.3211C0.280133 17.2136 0.424212 17.1598 0.6003 17.1598H21.8509C27.2136 17.1598 31.8399 19.2562 35.7299 23.4336L40.8924 29.4463L30.8314 41.1567L23.1876 32.2337L23.1956 32.2261ZM60.3342 23.3645C64.2241 19.2255 68.8744 17.1522 74.2771 17.1522H95.4637C95.6398 17.1522 95.7759 17.1982 95.8639 17.2827C95.952 17.3672 96 17.4977 96 17.6743V30.6135C96 30.744 95.952 30.8592 95.8639 30.9667C95.7759 31.0742 95.6398 31.128 95.4637 31.128H75.3497C74.3652 31.128 73.5408 31.4965 72.8684 32.2261L58.045 49.4347L72.9325 66.7739C73.6048 67.465 74.4052 67.8106 75.3497 67.8106H95.4637C95.6398 67.8106 95.7759 67.8643 95.8639 67.9718C95.952 68.0794 96 68.2176 96 68.3942V81.3333C96 81.4639 95.952 81.5791 95.8639 81.6866C95.7759 81.7941 95.6398 81.8478 95.4637 81.8478H74.2771C68.8664 81.8478 64.2481 79.7591 60.3982 75.5741L48.064 61.2143L35.7299 75.5741C31.8399 79.7591 27.1896 81.8478 21.7869 81.8478H0.6003C0.416208 81.8478 0.280132 81.7941 0.192088 81.6866C0.104044 81.5791 0.0560339 81.4408 0.0560339 81.2642V68.3251C0.0560339 68.1945 0.104044 68.0794 0.192088 67.9718C0.280132 67.8643 0.416208 67.8106 0.6003 67.8106H20.7144C21.6508 67.8106 22.4752 67.442 23.1956 66.7125L37.7389 49.7649L60.3342 23.3722V23.3645Z" fill="#00D1FF"/>
</svg>
