<svg width="180" height="180" viewBox="0 0 180 180" fill="none" xmlns="http://www.w3.org/2000/svg">
<g clip-path="url(#clip0_72_122)">
<path fill-rule="evenodd" clip-rule="evenodd" d="M138.751 87.0807L111.848 102.628V121.148V133.7L138.751 118.153V87.0807ZM63.0466 49.1861L89.9493 64.7332L116.852 49.1861L89.9493 33.639L63.0466 49.1861ZM41.1695 102.606V118.153L48.4619 122.345L68.0721 133.679V102.606L41.1695 87.0807V102.628V102.606ZM26.5848 126.558V143.41L19.2924 139.197L12 134.983V89.9891V44.9946L89.9493 0L167.899 44.9946V135.005L128.913 157.502L111.826 167.361V150.51L153.313 126.558V61.8248L97.2416 94.202C97.2416 103.184 97.2416 112.144 97.2416 121.127V175.786L89.9493 180L82.6569 175.786L50.9639 157.502L41.1695 151.856V135.005L82.6569 158.956V94.2234L26.5848 61.8461V126.58V126.558ZM89.9493 81.5633L33.8771 49.1861L89.9493 16.8088L146.022 49.1861L89.9493 81.5633Z" fill="white"/>
</g>
<defs>
<clipPath id="clip0_72_122">
<rect width="180" height="180" fill="white"/>
</clipPath>
</defs>
</svg>
