<svg width="21" height="25" viewBox="0 0 21 25" fill="none" xmlns="http://www.w3.org/2000/svg">
<path d="M6.48848 2.35326L10.3234 0.138624C10.4326 0.0756182 10.5681 0.0756182 10.6773 0.138624L20.7844 5.97397C20.8936 6.03697 20.9608 6.15353 20.9619 6.27954L20.9755 10.293C20.9755 10.42 20.9083 10.5377 20.798 10.6007L16.9684 12.8121C16.7331 12.9487 16.4381 12.7785 16.437 12.5066L16.4244 8.90477C16.4244 8.77876 16.3562 8.6622 16.247 8.59919L6.48848 2.96651C6.25221 2.83 6.25221 2.48977 6.48848 2.35326Z" fill="#010101"/>
<path d="M4.01134 20.5324L0.177465 18.3188C0.0672057 18.2558 0 18.1392 0 18.0121V6.34146C0 6.21545 0.0672057 6.09889 0.176415 6.03483L3.64591 4.01551C3.75617 3.95145 3.89163 3.95145 4.00084 4.01551L7.83051 6.227C8.06573 6.36351 8.06678 6.70269 7.83156 6.84025L4.7191 8.65165C4.60989 8.71466 4.54269 8.83122 4.54269 8.95828V20.2268C4.54269 20.4998 4.24761 20.6689 4.01134 20.5324Z" fill="#010101"/>
<path d="M20.9756 13.5839V18.0111C20.9756 18.1382 20.9084 18.2547 20.7981 18.3177L10.691 24.1531C10.5818 24.2161 10.4474 24.2161 10.3382 24.1531L6.85503 22.1579C6.74477 22.0949 6.67651 21.9773 6.67651 21.8502V17.4283C6.67651 17.1564 6.97054 16.9862 7.20681 17.1206L10.3319 18.911C10.4411 18.9741 10.5755 18.973 10.6847 18.911L20.4432 13.2763C20.6794 13.1398 20.9745 13.3099 20.9745 13.5829L20.9756 13.5839Z" fill="#010101"/>
</svg>
