<svg width="96" height="96" viewBox="0 0 96 96" fill="none" xmlns="http://www.w3.org/2000/svg">
<g clip-path="url(#clip0_2_133)">
<path opacity="0.75" d="M36 36H24V24H36V36Z" fill="white"/>
<path d="M36 48H24V36H36V48Z" fill="white"/>
<path d="M36 60H24V48H36V60Z" fill="white"/>
<path opacity="0.75" d="M36 72H24V60H36V72Z" fill="white"/>
<path opacity="0.75" d="M72 36H60V24H72V36Z" fill="white"/>
<path d="M72 48H60V36H72V48Z" fill="white"/>
<path d="M72 60H60V48H72V60Z" fill="white"/>
<path opacity="0.75" d="M72 72H60V60H72V72Z" fill="white"/>
<path d="M48 72H36V60H48V72Z" fill="white"/>
<path d="M60 72H48V60H60V72Z" fill="white"/>
<path d="M48 36H36V24H48V36Z" fill="white"/>
<path d="M60 36H48V24H60V36Z" fill="white"/>
<path d="M48 0H36V12H48V0Z" fill="white" fill-opacity="0.25"/>
<path d="M60 84H48V72H60V84Z" fill="white" fill-opacity="0.75"/>
<path d="M84 48H72V60H84V48Z" fill="white" fill-opacity="0.75"/>
<path d="M24 60H12V48H24V60Z" fill="white" fill-opacity="0.75"/>
<path d="M60 12H48V24H60V12Z" fill="white" fill-opacity="0.75"/>
<path d="M60 0H48V12H60V0Z" fill="white" fill-opacity="0.25"/>
<path d="M48 96H36V84H48V96Z" fill="white" fill-opacity="0.25"/>
<path d="M60 96H48V84H60V96Z" fill="white" fill-opacity="0.25"/>
<path d="M96 36H84V48H96V36Z" fill="white" fill-opacity="0.25"/>
<path d="M96 48H84V60H96V48Z" fill="white" fill-opacity="0.25"/>
<path d="M12 60H0V48H12V60Z" fill="white" fill-opacity="0.25"/>
<path d="M12 48H0V36H12V48Z" fill="white" fill-opacity="0.25"/>
<path d="M48 12H36V24H48V12Z" fill="white" fill-opacity="0.75"/>
<path d="M48 84H36V72H48V84Z" fill="white" fill-opacity="0.75"/>
<path d="M84 36H72V48H84V36Z" fill="white" fill-opacity="0.75"/>
<path d="M24 48H12V36H24V48Z" fill="white" fill-opacity="0.75"/>
</g>
<defs>
<clipPath id="clip0_2_133">
<rect width="96" height="96" fill="white"/>
</clipPath>
</defs>
</svg>
