<svg width="142" height="26" viewBox="0 0 142 26" fill="none" xmlns="http://www.w3.org/2000/svg">
<g clip-path="url(#clip0_2002_154)">
<path fill-rule="evenodd" clip-rule="evenodd" d="M84.0792 19.7385C83.2207 19.3833 82.5347 18.8576 82.021 18.1615C81.5073 17.4653 81.2364 16.627 81.2083 15.6467H85.0503C85.1066 16.2008 85.2966 16.6235 85.6203 16.9147C85.944 17.206 86.3662 17.3516 86.8869 17.3516C87.4217 17.3516 87.8439 17.2273 88.1535 16.9787C88.4631 16.73 88.6179 16.3855 88.6179 15.9451C88.6179 15.5757 88.4948 15.2702 88.2485 15.0287C88.0022 14.7871 87.6996 14.5882 87.3408 14.432C86.9819 14.2757 86.4717 14.0981 85.8103 13.8992C84.8533 13.6008 84.0722 13.3024 83.467 13.0041C82.8619 12.7057 82.3412 12.2653 81.9049 11.6828C81.4686 11.1003 81.2505 10.3402 81.2505 9.40245C81.2505 8.01009 81.7501 6.91966 82.7493 6.13113C83.7485 5.34261 85.0503 4.94835 86.6547 4.94835C88.2872 4.94835 89.603 5.34261 90.6023 6.13113C91.6015 6.91966 92.1363 8.01719 92.2066 9.42376H88.3013C88.2731 8.9407 88.0972 8.56064 87.7735 8.28359C87.4498 8.00654 87.0347 7.86802 86.528 7.86802C86.0917 7.86802 85.7399 7.98523 85.4725 8.21966C85.2051 8.45409 85.0714 8.79151 85.0714 9.23195C85.0714 9.71502 85.2966 10.0915 85.7469 10.3615C86.1973 10.6314 86.901 10.9227 87.8579 11.2352C88.8149 11.562 89.5925 11.8746 90.1906 12.1729C90.7887 12.4713 91.3059 12.9046 91.7422 13.4729C92.1785 14.0412 92.3966 14.7729 92.3966 15.668C92.3966 16.5205 92.182 17.2948 91.7528 17.991C91.3235 18.6872 90.7008 19.2412 89.8845 19.6533C89.0683 20.0653 88.1042 20.2713 86.9924 20.2713C85.9088 20.2713 84.9377 20.0937 84.0792 19.7385ZM101.178 17.032V20.1221H99.3419C98.033 20.1221 97.0127 19.7989 96.2809 19.1524C95.5491 18.506 95.1832 17.4511 95.1832 15.9877V11.2565H93.7477V8.23031H95.1832V5.33195H98.793V8.23031H101.157V11.2565H98.793V16.0303C98.793 16.3855 98.8774 16.6412 99.0463 16.7975C99.2152 16.9538 99.4967 17.032 99.8907 17.032H101.178ZM105.432 19.5467C104.51 19.0494 103.786 18.3391 103.258 17.4156C102.73 16.4921 102.466 15.4123 102.466 14.1762C102.466 12.9544 102.734 11.8781 103.268 10.9475C103.803 10.0169 104.535 9.30299 105.464 8.80572C106.393 8.30845 107.434 8.05982 108.588 8.05982C109.742 8.05982 110.784 8.30845 111.712 8.80572C112.641 9.30299 113.373 10.0169 113.908 10.9475C114.443 11.8781 114.71 12.9544 114.71 14.1762C114.71 15.3981 114.439 16.4743 113.897 17.4049C113.355 18.3355 112.617 19.0494 111.681 19.5467C110.745 20.044 109.7 20.2926 108.546 20.2926C107.392 20.2926 106.354 20.044 105.432 19.5467ZM110.309 16.3713C110.794 15.8598 111.037 15.1281 111.037 14.1762C111.037 13.2243 110.801 12.4926 110.33 11.9811C109.858 11.4697 109.278 11.2139 108.588 11.2139C107.884 11.2139 107.3 11.4661 106.836 11.9705C106.372 12.4749 106.139 13.2101 106.139 14.1762C106.139 15.1281 106.368 15.8598 106.825 16.3713C107.283 16.8828 107.856 17.1385 108.546 17.1385C109.235 17.1385 109.823 16.8828 110.309 16.3713ZM127.112 9.45573C127.936 10.3579 128.347 11.5975 128.347 13.1746V20.1221H124.758V13.6647C124.758 12.8691 124.554 12.2511 124.146 11.8106C123.738 11.3702 123.189 11.15 122.5 11.15C121.81 11.15 121.261 11.3702 120.853 11.8106C120.445 12.2511 120.241 12.8691 120.241 13.6647V20.1221H116.631V8.23031H120.241V9.80736C120.607 9.28168 121.099 8.86611 121.719 8.56064C122.338 8.25518 123.034 8.10245 123.809 8.10245C125.188 8.10245 126.289 8.55353 127.112 9.45573ZM141.9 15.05H133.73C133.787 15.7888 134.022 16.3535 134.437 16.7443C134.853 17.135 135.363 17.3303 135.968 17.3303C136.869 17.3303 137.495 16.9467 137.847 16.1795H141.689C141.492 16.9609 141.136 17.6642 140.623 18.2893C140.109 18.9145 139.465 19.4046 138.691 19.7598C137.917 20.115 137.052 20.2926 136.095 20.2926C134.941 20.2926 133.913 20.044 133.013 19.5467C132.112 19.0494 131.408 18.3391 130.902 17.4156C130.395 16.4921 130.142 15.4123 130.142 14.1762C130.142 12.9401 130.391 11.8604 130.891 10.9369C131.391 10.0134 132.091 9.30299 132.991 8.80572C133.892 8.30845 134.927 8.05982 136.095 8.05982C137.235 8.05982 138.248 8.30135 139.134 8.78441C140.021 9.26748 140.714 9.95654 141.214 10.8516C141.713 11.7467 141.963 12.791 141.963 13.9844C141.963 14.3254 141.942 14.6806 141.9 15.05ZM138.269 13.0254C138.269 12.4003 138.058 11.903 137.636 11.5336C137.213 11.1642 136.686 10.9795 136.052 10.9795C135.447 10.9795 134.937 11.1571 134.522 11.5123C134.107 11.8675 133.85 12.3718 133.751 13.0254H138.269Z" fill="#FD627A"/>
<path fill-rule="evenodd" clip-rule="evenodd" d="M47.9039 20.0853L44.8271 14.4495H43.963V20.0853H40.3593V5.1557H46.4076C47.5737 5.1557 48.5677 5.36128 49.3896 5.77245C50.2115 6.18362 50.8262 6.74719 51.2336 7.46319C51.641 8.17919 51.8448 8.9767 51.8448 9.85575C51.8448 10.8482 51.5673 11.7343 51.0123 12.5141C50.4574 13.2939 49.639 13.8469 48.5572 14.173L51.9712 20.0853H47.9039ZM43.963 11.8761H46.1969C46.8572 11.8761 47.3524 11.7131 47.6826 11.387C48.0128 11.0609 48.1779 10.6001 48.1779 10.0046C48.1779 9.43749 48.0128 8.99089 47.6826 8.66479C47.3524 8.33869 46.8572 8.17564 46.1969 8.17564H43.963V11.8761Z" fill="white"/>
<path fill-rule="evenodd" clip-rule="evenodd" d="M65.1786 15.0495H57.0107C57.067 15.7884 57.3026 16.3532 57.7177 16.7439C58.1328 17.1347 58.6429 17.33 59.2479 17.33C60.1484 17.33 60.7745 16.9464 61.1263 16.1791H64.9675C64.7706 16.9606 64.4153 17.6639 63.9017 18.2891C63.3881 18.9143 62.7444 19.4045 61.9705 19.7598C61.1966 20.115 60.3313 20.2926 59.3745 20.2926C58.2207 20.2926 57.1936 20.044 56.2931 19.5466C55.3926 19.0493 54.689 18.3389 54.1825 17.4153C53.676 16.4917 53.4227 15.4118 53.4227 14.1756C53.4227 12.9395 53.6724 11.8596 54.1719 10.936C54.6715 10.0124 55.3715 9.30196 56.272 8.80464C57.1725 8.30733 58.2067 8.05867 59.3745 8.05867C60.5142 8.05867 61.5273 8.30022 62.4138 8.78333C63.3002 9.26644 63.9932 9.95557 64.4927 10.8507C64.9922 11.7459 65.2419 12.7903 65.2419 13.9838C65.2419 14.3248 65.2208 14.6801 65.1786 15.0495ZM61.5484 13.0247C61.5484 12.3995 61.3374 11.9022 60.9152 11.5328C60.4931 11.1633 59.9655 10.9786 59.3323 10.9786C58.7273 10.9786 58.2172 11.1562 57.8021 11.5115C57.3871 11.8667 57.1303 12.3711 57.0318 13.0247H61.5484Z" fill="white"/>
<path fill-rule="evenodd" clip-rule="evenodd" d="M67.1725 10.8363C67.6302 9.92338 68.2533 9.22112 69.0419 8.72952C69.8305 8.23793 70.7106 7.99214 71.6822 7.99214C72.4568 7.99214 73.1644 8.15366 73.8051 8.47671C74.4458 8.79975 74.9492 9.23516 75.3154 9.78293V4.32628H78.9273V19.9167H75.3154V18.2313C74.9774 18.7931 74.4951 19.2425 73.8685 19.5796C73.2418 19.9167 72.5131 20.0853 71.6822 20.0853C70.7106 20.0853 69.8305 19.836 69.0419 19.3373C68.2533 18.8387 67.6302 18.1294 67.1725 17.2095C66.7149 16.2895 66.4861 15.2255 66.4861 14.0176C66.4861 12.8097 66.7149 11.7493 67.1725 10.8363ZM74.5655 11.9108C74.0656 11.3911 73.4566 11.1313 72.7384 11.1313C72.0202 11.1313 71.4112 11.3876 70.9113 11.9003C70.4114 12.4129 70.1614 13.1187 70.1614 14.0176C70.1614 14.9165 70.4114 15.6293 70.9113 16.156C71.4112 16.6828 72.0202 16.9461 72.7384 16.9461C73.4566 16.9461 74.0656 16.6863 74.5655 16.1666C75.0654 15.6469 75.3154 14.9376 75.3154 14.0387C75.3154 13.1398 75.0654 12.4305 74.5655 11.9108Z" fill="white"/>
<path fill-rule="evenodd" clip-rule="evenodd" d="M25.6982 12.1434L21.8453 5.77154L23.841 2.50579L29.6686 12.1434H25.6982ZM12.5831 21.0982H20.3727L22.3172 24.2856H10.6735L12.5831 21.0982ZM20.3699 4.90926H12.5737L10.6681 1.71443H22.3221L20.3699 4.90926ZM20.364 19.3838H12.5715L8.71347 13.0038L12.5715 6.62369H20.364L24.2219 13.0038L20.364 19.3838ZM9.15481 2.51265L11.0945 5.76445L7.23835 12.1413H3.33261L9.15481 2.51265ZM3.33083 13.8558H7.23199L11.099 20.2507L9.15752 23.4917L3.33083 13.8558ZM23.8384 23.4984L21.8467 20.2337L25.7021 13.8578H29.6679L23.8384 23.4984ZM24.5716 0.412164C24.4169 0.156247 24.1404 0 23.8424 0H9.15752C8.85945 0 8.58301 0.156247 8.42834 0.412164L1.08596 12.5549C0.920596 12.8284 0.920518 13.1716 1.08589 13.445L8.42834 25.5878C8.58301 25.8438 8.85945 26 9.15752 26H23.8424C24.1404 26 24.4169 25.8438 24.5716 25.5878L31.9141 13.445C32.0795 13.1716 32.0795 12.8284 31.9141 12.5549L24.5716 0.412164Z" fill="white"/>
<path fill-rule="evenodd" clip-rule="evenodd" d="M20.8838 14.339C20.4858 14.0858 19.9586 14.2045 19.7065 14.6045L18.1964 16.9999C17.9443 17.3999 18.0626 17.9295 18.4606 18.1828C18.6023 18.2729 18.7603 18.3159 18.9164 18.3159C19.199 18.3159 19.4756 18.1749 19.638 17.9173L21.1481 15.5219C21.4002 15.1219 21.2819 14.5923 20.8838 14.339Z" fill="white"/>
<path fill-rule="evenodd" clip-rule="evenodd" d="M22.1252 12.1332C21.7192 11.8931 21.1961 12.0293 20.9572 12.4374L20.8461 12.6272C20.6072 13.0352 20.7428 13.5606 21.149 13.8006C21.2848 13.8809 21.4337 13.9191 21.5807 13.9191C21.8731 13.9191 22.1579 13.768 22.3169 13.4964L22.428 13.3067C22.6669 12.8986 22.5313 12.3733 22.1252 12.1332Z" fill="white"/>
</g>
<defs>
<clipPath id="clip0_2002_154">
<rect width="141.001" height="26" fill="white" transform="translate(0.961899)"/>
</clipPath>
</defs>
</svg>
