<svg width="131" height="32" viewBox="0 0 131 32" fill="none" xmlns="http://www.w3.org/2000/svg">
<g clip-path="url(#clip0_2008_278)">
<mask id="mask0_2008_278" style="mask-type:luminance" maskUnits="userSpaceOnUse" x="0" y="0" width="32" height="32">
<path d="M32 0H0V32H32V0Z" fill="white"/>
</mask>
<g mask="url(#mask0_2008_278)">
<path opacity="0.75" d="M12 12H8V8.00001H12V12Z" fill="white"/>
<path d="M12 16H8V12H12V16Z" fill="white"/>
<path d="M12 20H8V16H12V20Z" fill="white"/>
<path opacity="0.75" d="M12 24H8V20H12V24Z" fill="white"/>
<path opacity="0.75" d="M24 12H20V8.00001H24V12Z" fill="white"/>
<path d="M24 16H20V12H24V16Z" fill="white"/>
<path d="M24 20H20V16H24V20Z" fill="white"/>
<path opacity="0.75" d="M24 24H20V20H24V24Z" fill="white"/>
<path d="M16 24H12V20H16V24Z" fill="white"/>
<path d="M20 24H16V20H20V24Z" fill="white"/>
<path d="M16 12H12V8.00001H16V12Z" fill="white"/>
<path d="M20 12H16V8.00001H20V12Z" fill="white"/>
<path d="M16 7.62939e-06H12V4.00001H16V7.62939e-06Z" fill="white" fill-opacity="0.25"/>
<path d="M20 28H16V24H20V28Z" fill="white" fill-opacity="0.75"/>
<path d="M28 16H24V20H28V16Z" fill="white" fill-opacity="0.75"/>
<path d="M8 20H4V16H8V20Z" fill="white" fill-opacity="0.75"/>
<path d="M20 4.00001H16V8.00001H20V4.00001Z" fill="white" fill-opacity="0.75"/>
<path d="M20 7.62939e-06H16V4.00001H20V7.62939e-06Z" fill="white" fill-opacity="0.25"/>
<path d="M16 32H12V28H16V32Z" fill="white" fill-opacity="0.25"/>
<path d="M20 32H16V28H20V32Z" fill="white" fill-opacity="0.25"/>
<path d="M32 12H28V16H32V12Z" fill="white" fill-opacity="0.25"/>
<path d="M32 16H28V20H32V16Z" fill="white" fill-opacity="0.25"/>
<path d="M4 20H0V16H4V20Z" fill="white" fill-opacity="0.25"/>
<path d="M4 16H0V12H4V16Z" fill="white" fill-opacity="0.25"/>
<path d="M16 4.00001H12V8.00001H16V4.00001Z" fill="white" fill-opacity="0.75"/>
<path d="M16 28H12V24H16V28Z" fill="white" fill-opacity="0.75"/>
<path d="M28 12H24V16H28V12Z" fill="white" fill-opacity="0.75"/>
<path d="M8 16H4V12H8V16Z" fill="white" fill-opacity="0.75"/>
</g>
<path d="M52.4539 23.1837H50.4065L48.0428 17.9722H46.1257V23.1837H44.2645V10.1551H49.1037C50.9649 10.1551 52.4539 11.6441 52.4539 13.5053V14.622C52.4539 16.1669 51.4302 17.4511 50.0157 17.842L52.4539 23.1837ZM46.1257 16.111H49.1037C49.9412 16.111 50.5927 15.4596 50.5927 14.622V13.5053C50.5927 12.6678 49.9412 12.0163 49.1037 12.0163H46.1257V16.111ZM63.614 10.1551V12.0163H57.2859V15.4224H62.8695V17.2836H57.2859V21.3225H63.614V23.1837H55.4247V10.1551H63.614ZM71.4237 10.1551C73.2663 10.1551 74.7739 11.6441 74.7739 13.5053V19.8149C74.7739 21.6575 73.2663 23.1837 71.4237 23.1837H66.5845V10.1551H71.4237ZM68.4457 21.3038H71.4237C72.2426 21.3038 72.9127 20.6338 72.9127 19.8149V13.5053C72.9127 12.6864 72.2612 12.0163 71.4237 12.0163H68.4457V21.3038ZM77.7447 18.9773H79.6059V19.7218C79.6059 20.5966 80.3318 21.3225 81.2065 21.3225H82.4536C83.4028 21.3225 84.0728 20.7269 84.0728 19.9079C84.0728 17.3394 77.9308 16.7811 77.9308 13.2447C77.9308 11.4207 79.3639 10.1551 81.3927 10.1551H82.2674C84.1845 10.1551 85.7479 11.6999 85.7479 13.617V14.1754H83.8867V13.617C83.8867 12.7236 83.1608 12.0163 82.2674 12.0163H81.3927C80.3876 12.0163 79.792 12.4816 79.792 13.2447C79.792 15.2176 85.934 15.9807 85.934 19.9079C85.934 21.7691 84.4265 23.1837 82.4536 23.1837H81.2065C79.2895 23.1837 77.7447 21.6389 77.7447 19.7218V18.9773ZM88.9048 10.1551H97.0942V12.0163H93.9301V23.1837H92.0689V12.0163H88.9048V10.1551ZM104.904 21.3038C105.723 21.3038 106.393 20.6338 106.393 19.8149V13.5053C106.393 12.6678 105.742 12.0163 104.904 12.0163H103.415C102.578 12.0163 101.926 12.6864 101.926 13.5053V19.8149C101.926 20.6338 102.596 21.3038 103.415 21.3038H104.904ZM100.065 19.8149V13.5053C100.065 11.6441 101.573 10.1551 103.415 10.1551H104.904C106.765 10.1551 108.254 11.6441 108.254 13.5053V19.8149C108.254 21.6575 106.765 23.1837 104.904 23.1837H103.415C101.573 23.1837 100.065 21.6575 100.065 19.8149ZM117.553 10.1551H119.414V23.1837H116.715L113.086 13.282V23.1837H111.225V10.1551H113.924L117.553 20.0568V10.1551ZM130.574 10.1551V12.0163H124.246V15.4224H129.83V17.2836H124.246V21.3225H130.574V23.1837H122.385V10.1551H130.574Z" fill="white"/>
</g>
<defs>
<clipPath id="clip0_2008_278">
<rect width="131" height="32" fill="white"/>
</clipPath>
</defs>
</svg>
