<svg width="132" height="32" viewBox="0 0 132 32" fill="none" xmlns="http://www.w3.org/2000/svg">
<g clip-path="url(#clip0_2_101)">
<mask id="mask0_2_101" style="mask-type:luminance" maskUnits="userSpaceOnUse" x="0" y="0" width="33" height="32">
<path d="M32.9619 0H0.961899V32H32.9619V0Z" fill="white"/>
</mask>
<g mask="url(#mask0_2_101)">
<path opacity="0.75" d="M12.9619 12H8.9619V8.00001H12.9619V12Z" fill="#F34242"/>
<path d="M12.9619 16H8.9619V12H12.9619V16Z" fill="#F34242"/>
<path d="M12.9619 20H8.9619V16H12.9619V20Z" fill="#F34242"/>
<path opacity="0.75" d="M12.9619 24H8.9619V20H12.9619V24Z" fill="#F34242"/>
<path opacity="0.75" d="M24.9619 12H20.9619V8.00001H24.9619V12Z" fill="#F34242"/>
<path d="M24.9619 16H20.9619V12H24.9619V16Z" fill="#F34242"/>
<path d="M24.9619 20H20.9619V16H24.9619V20Z" fill="#F34242"/>
<path opacity="0.75" d="M24.9619 24H20.9619V20H24.9619V24Z" fill="#F34242"/>
<path d="M16.9619 24H12.9619V20H16.9619V24Z" fill="#F34242"/>
<path d="M20.9619 24H16.9619V20H20.9619V24Z" fill="#F34242"/>
<path d="M16.9619 12H12.9619V8.00001H16.9619V12Z" fill="#F34242"/>
<path d="M20.9619 12H16.9619V8.00001H20.9619V12Z" fill="#F34242"/>
<path d="M16.9619 7.62939e-06H12.9619V4.00001H16.9619V7.62939e-06Z" fill="#F34242" fill-opacity="0.25"/>
<path d="M20.9619 28H16.9619V24H20.9619V28Z" fill="#F34242" fill-opacity="0.75"/>
<path d="M28.9619 16H24.9619V20H28.9619V16Z" fill="#F34242" fill-opacity="0.75"/>
<path d="M8.9619 20H4.9619V16H8.9619V20Z" fill="#F34242" fill-opacity="0.75"/>
<path d="M20.9619 4.00001H16.9619V8.00001H20.9619V4.00001Z" fill="#F34242" fill-opacity="0.75"/>
<path d="M20.9619 7.62939e-06H16.9619V4.00001H20.9619V7.62939e-06Z" fill="#F34242" fill-opacity="0.25"/>
<path d="M16.9619 32H12.9619V28H16.9619V32Z" fill="#F34242" fill-opacity="0.25"/>
<path d="M20.9619 32H16.9619V28H20.9619V32Z" fill="#F34242" fill-opacity="0.25"/>
<path d="M32.9619 12H28.9619V16H32.9619V12Z" fill="#F34242" fill-opacity="0.25"/>
<path d="M32.9619 16H28.9619V20H32.9619V16Z" fill="#F34242" fill-opacity="0.25"/>
<path d="M4.9619 20H0.961899V16H4.9619V20Z" fill="#F34242" fill-opacity="0.25"/>
<path d="M4.9619 16H0.961899V12H4.9619V16Z" fill="#F34242" fill-opacity="0.25"/>
<path d="M16.9619 4.00001H12.9619V8.00001H16.9619V4.00001Z" fill="#F34242" fill-opacity="0.75"/>
<path d="M16.9619 28H12.9619V24H16.9619V28Z" fill="#F34242" fill-opacity="0.75"/>
<path d="M28.9619 12H24.9619V16H28.9619V12Z" fill="#F34242" fill-opacity="0.75"/>
<path d="M8.9619 16H4.9619V12H8.9619V16Z" fill="#F34242" fill-opacity="0.75"/>
</g>
<path d="M53.4158 23.1837H51.3684L49.0047 17.9722H47.0876V23.1837H45.2264V10.1551H50.0656C51.9268 10.1551 53.4158 11.6441 53.4158 13.5053V14.622C53.4158 16.1669 52.3921 17.4511 50.9776 17.842L53.4158 23.1837ZM47.0876 16.111H50.0656C50.9031 16.111 51.5545 15.4596 51.5545 14.622V13.5053C51.5545 12.6678 50.9031 12.0163 50.0656 12.0163H47.0876V16.111ZM64.5759 10.1551V12.0163H58.2478V15.4224H63.8314V17.2836H58.2478V21.3225H64.5759V23.1837H56.3865V10.1551H64.5759ZM72.3856 10.1551C74.2282 10.1551 75.7358 11.6441 75.7358 13.5053V19.8149C75.7358 21.6575 74.2282 23.1837 72.3856 23.1837H67.5464V10.1551H72.3856ZM69.4076 21.3038H72.3856C73.2045 21.3038 73.8745 20.6338 73.8745 19.8149V13.5053C73.8745 12.6864 73.2231 12.0163 72.3856 12.0163H69.4076V21.3038ZM78.7065 18.9773H80.5678V19.7218C80.5678 20.5966 81.2937 21.3225 82.1684 21.3225H83.4154C84.3647 21.3225 85.0347 20.7269 85.0347 19.9079C85.0347 17.3394 78.8927 16.7811 78.8927 13.2447C78.8927 11.4207 80.3258 10.1551 82.3546 10.1551H83.2293C85.1464 10.1551 86.7098 11.6999 86.7098 13.617V14.1754H84.8486V13.617C84.8486 12.7236 84.1227 12.0163 83.2293 12.0163H82.3546C81.3495 12.0163 80.7539 12.4816 80.7539 13.2447C80.7539 15.2176 86.8959 15.9807 86.8959 19.9079C86.8959 21.7691 85.3883 23.1837 83.4154 23.1837H82.1684C80.2514 23.1837 78.7065 21.6389 78.7065 19.7218V18.9773ZM89.8667 10.1551H98.0561V12.0163H94.892V23.1837H93.0308V12.0163H89.8667V10.1551ZM105.866 21.3038C106.685 21.3038 107.355 20.6338 107.355 19.8149V13.5053C107.355 12.6678 106.704 12.0163 105.866 12.0163H104.377C103.54 12.0163 102.888 12.6864 102.888 13.5053V19.8149C102.888 20.6338 103.558 21.3038 104.377 21.3038H105.866ZM101.027 19.8149V13.5053C101.027 11.6441 102.534 10.1551 104.377 10.1551H105.866C107.727 10.1551 109.216 11.6441 109.216 13.5053V19.8149C109.216 21.6575 107.727 23.1837 105.866 23.1837H104.377C102.534 23.1837 101.027 21.6575 101.027 19.8149ZM118.515 10.1551H120.376V23.1837H117.677L114.048 13.282V23.1837H112.187V10.1551H114.885L118.515 20.0568V10.1551ZM131.536 10.1551V12.0163H125.208V15.4224H130.792V17.2836H125.208V21.3225H131.536V23.1837H123.347V10.1551H131.536Z" fill="black"/>
</g>
<defs>
<clipPath id="clip0_2_101">
<rect width="131" height="32" fill="white" transform="translate(0.961899)"/>
</clipPath>
</defs>
</svg>
