<svg width="141" height="26" viewBox="0 0 141 26" fill="none" xmlns="http://www.w3.org/2000/svg">
<g clip-path="url(#clip0_2008_288)">
<path fill-rule="evenodd" clip-rule="evenodd" d="M83.1173 19.7385C82.2589 19.3833 81.5728 18.8576 81.0591 18.1615C80.5454 17.4653 80.2745 16.627 80.2464 15.6467H84.0884C84.1447 16.2008 84.3347 16.6235 84.6584 16.9147C84.9821 17.206 85.4043 17.3516 85.925 17.3516C86.4598 17.3516 86.882 17.2273 87.1916 16.9787C87.5012 16.73 87.656 16.3855 87.656 15.9451C87.656 15.5757 87.5329 15.2702 87.2866 15.0287C87.0403 14.7871 86.7377 14.5882 86.3789 14.432C86.02 14.2757 85.5098 14.0981 84.8484 13.8992C83.8914 13.6008 83.1103 13.3025 82.5051 13.0041C81.9 12.7057 81.3793 12.2653 80.943 11.6828C80.5067 11.1003 80.2886 10.3402 80.2886 9.40245C80.2886 8.01009 80.7882 6.91967 81.7874 6.13114C82.7866 5.34261 84.0884 4.94835 85.6928 4.94835C87.3253 4.94835 88.6411 5.34261 89.6404 6.13114C90.6396 6.91967 91.1744 8.0172 91.2447 9.42376H87.3394C87.3112 8.9407 87.1353 8.56065 86.8116 8.2836C86.4879 8.00655 86.0728 7.86802 85.5661 7.86802C85.1298 7.86802 84.778 7.98523 84.5106 8.21966C84.2432 8.45409 84.1095 8.79152 84.1095 9.23196C84.1095 9.71502 84.3347 10.0915 84.785 10.3615C85.2354 10.6314 85.9391 10.9227 86.896 11.2352C87.853 11.562 88.6306 11.8746 89.2287 12.1729C89.8268 12.4713 90.344 12.9046 90.7803 13.4729C91.2166 14.0413 91.4347 14.7729 91.4347 15.668C91.4347 16.5205 91.2201 17.2948 90.7909 17.991C90.3616 18.6872 89.7389 19.2412 88.9226 19.6533C88.1064 20.0653 87.1423 20.2713 86.0305 20.2713C84.9469 20.2713 83.9758 20.0937 83.1173 19.7385ZM100.217 17.032V20.1221H98.38C97.0711 20.1221 96.0508 19.7989 95.319 19.1524C94.5872 18.506 94.2213 17.4511 94.2213 15.9877V11.2565H92.7858V8.23032H94.2213V5.33196H97.8311V8.23032H100.195V11.2565H97.8311V16.0303C97.8311 16.3855 97.9155 16.6412 98.0844 16.7975C98.2533 16.9538 98.5348 17.032 98.9288 17.032H100.217ZM104.47 19.5467C103.548 19.0494 102.824 18.3391 102.296 17.4156C101.768 16.4921 101.504 15.4123 101.504 14.1762C101.504 12.9544 101.772 11.8781 102.306 10.9475C102.841 10.0169 103.573 9.303 104.502 8.80573C105.431 8.30846 106.472 8.05982 107.626 8.05982C108.78 8.05982 109.822 8.30846 110.751 8.80573C111.679 9.303 112.411 10.0169 112.946 10.9475C113.481 11.8781 113.748 12.9544 113.748 14.1762C113.748 15.3981 113.477 16.4743 112.935 17.4049C112.394 18.3355 111.655 19.0494 110.719 19.5467C109.783 20.044 108.738 20.2926 107.584 20.2926C106.43 20.2926 105.392 20.044 104.47 19.5467ZM109.347 16.3713C109.832 15.8598 110.075 15.1281 110.075 14.1762C110.075 13.2243 109.839 12.4926 109.368 11.9811C108.896 11.4697 108.316 11.2139 107.626 11.2139C106.923 11.2139 106.338 11.4661 105.874 11.9705C105.41 12.4749 105.177 13.2101 105.177 14.1762C105.177 15.1281 105.406 15.8598 105.864 16.3713C106.321 16.8828 106.894 17.1385 107.584 17.1385C108.274 17.1385 108.861 16.8828 109.347 16.3713ZM126.15 9.45573C126.974 10.3579 127.385 11.5975 127.385 13.1746V20.1221H123.797V13.6647C123.797 12.8691 123.593 12.2511 123.184 11.8106C122.776 11.3702 122.227 11.15 121.538 11.15C120.848 11.15 120.299 11.3702 119.891 11.8106C119.483 12.2511 119.279 12.8691 119.279 13.6647V20.1221H115.669V8.23032H119.279V9.80737C119.645 9.28168 120.137 8.86611 120.757 8.56064C121.376 8.25518 122.073 8.10245 122.847 8.10245C124.226 8.10245 125.327 8.55354 126.15 9.45573ZM140.938 15.05H132.768C132.825 15.7888 133.06 16.3535 133.476 16.7443C133.891 17.135 134.401 17.3303 135.006 17.3303C135.907 17.3303 136.533 16.9467 136.885 16.1795H140.727C140.53 16.9609 140.175 17.6642 139.661 18.2893C139.147 18.9145 138.503 19.4046 137.729 19.7598C136.955 20.115 136.09 20.2926 135.133 20.2926C133.979 20.2926 132.951 20.044 132.051 19.5467C131.15 19.0494 130.446 18.3391 129.94 17.4156C129.433 16.4921 129.18 15.4123 129.18 14.1762C129.18 12.9401 129.429 11.8604 129.929 10.9369C130.429 10.0134 131.129 9.303 132.03 8.80573C132.93 8.30846 133.965 8.05982 135.133 8.05982C136.273 8.05982 137.286 8.30135 138.173 8.78442C139.059 9.26748 139.752 9.95654 140.252 10.8516C140.752 11.7467 141.001 12.791 141.001 13.9844C141.001 14.3254 140.98 14.6806 140.938 15.05ZM137.307 13.0254C137.307 12.4003 137.096 11.903 136.674 11.5336C136.252 11.1642 135.724 10.9795 135.091 10.9795C134.485 10.9795 133.975 11.1571 133.56 11.5123C133.145 11.8675 132.888 12.3718 132.79 13.0254H137.307Z" fill="#FD627A"/>
<path fill-rule="evenodd" clip-rule="evenodd" d="M46.942 20.0853L43.8652 14.4495H43.0011V20.0853H39.3974V5.1557H45.4457C46.6118 5.1557 47.6058 5.36128 48.4277 5.77245C49.2496 6.18362 49.8643 6.74719 50.2717 7.46319C50.6791 8.17919 50.8829 8.9767 50.8829 9.85575C50.8829 10.8482 50.6054 11.7343 50.0504 12.5141C49.4955 13.2939 48.6771 13.8469 47.5953 14.173L51.0093 20.0853H46.942ZM43.0011 11.8761H45.235C45.8953 11.8761 46.3905 11.7131 46.7207 11.387C47.0509 11.0609 47.216 10.6001 47.216 10.0046C47.216 9.43749 47.0509 8.99088 46.7207 8.66479C46.3905 8.33869 45.8953 8.17564 45.235 8.17564H43.0011V11.8761Z" fill="white"/>
<path fill-rule="evenodd" clip-rule="evenodd" d="M64.2167 15.0495H56.0488C56.1051 15.7884 56.3407 16.3532 56.7558 16.7439C57.1709 17.1347 57.681 17.33 58.286 17.33C59.1865 17.33 59.8126 16.9464 60.1644 16.1791H64.0057C63.8087 16.9606 63.4534 17.6639 62.9398 18.2891C62.4262 18.9143 61.7825 19.4045 61.0086 19.7598C60.2347 20.115 59.3694 20.2926 58.4126 20.2926C57.2588 20.2926 56.2317 20.044 55.3312 19.5466C54.4307 19.0493 53.7271 18.3389 53.2206 17.4153C52.7141 16.4917 52.4608 15.4118 52.4608 14.1756C52.4608 12.9395 52.7105 11.8596 53.21 10.936C53.7096 10.0124 54.4096 9.30196 55.3101 8.80464C56.2106 8.30733 57.2448 8.05867 58.4126 8.05867C59.5523 8.05867 60.5654 8.30022 61.4519 8.78333C62.3383 9.26644 63.0313 9.95557 63.5308 10.8507C64.0303 11.7459 64.28 12.7903 64.28 13.9838C64.28 14.3248 64.2589 14.6801 64.2167 15.0495ZM60.5865 13.0247C60.5865 12.3995 60.3755 11.9022 59.9533 11.5328C59.5312 11.1633 59.0036 10.9786 58.3704 10.9786C57.7654 10.9786 57.2553 11.1562 56.8402 11.5115C56.4252 11.8667 56.1684 12.3711 56.0699 13.0247H60.5865Z" fill="white"/>
<path fill-rule="evenodd" clip-rule="evenodd" d="M66.2106 10.8363C66.6683 9.92338 67.2914 9.22111 68.08 8.72952C68.8686 8.23793 69.7487 7.99214 70.7203 7.99214C71.4949 7.99214 72.2025 8.15366 72.8432 8.4767C73.4839 8.79975 73.9873 9.23515 74.3535 9.78293V4.32628H77.9655V19.9167H74.3535V18.2313C74.0155 18.7931 73.5332 19.2425 72.9066 19.5796C72.2799 19.9167 71.5512 20.0853 70.7203 20.0853C69.7487 20.0853 68.8686 19.836 68.08 19.3373C67.2914 18.8387 66.6683 18.1294 66.2106 17.2095C65.753 16.2895 65.5242 15.2255 65.5242 14.0176C65.5242 12.8097 65.753 11.7493 66.2106 10.8363ZM73.6036 11.9108C73.1037 11.3911 72.4947 11.1313 71.7765 11.1313C71.0583 11.1313 70.4493 11.3876 69.9494 11.9003C69.4495 12.4129 69.1995 13.1187 69.1995 14.0176C69.1995 14.9165 69.4495 15.6293 69.9494 16.156C70.4493 16.6828 71.0583 16.9461 71.7765 16.9461C72.4947 16.9461 73.1037 16.6863 73.6036 16.1666C74.1035 15.6469 74.3535 14.9376 74.3535 14.0387C74.3535 13.1398 74.1035 12.4305 73.6036 11.9108Z" fill="white"/>
<path fill-rule="evenodd" clip-rule="evenodd" d="M24.7363 12.1434L20.8834 5.77154L22.8791 2.50579L28.7067 12.1434H24.7363ZM11.6212 21.0982H19.4108L21.3553 24.2856H9.71162L11.6212 21.0982ZM19.408 4.90926H11.6118L9.70619 1.71443H21.3602L19.408 4.90926ZM19.4021 19.3838H11.6096L7.75157 13.0038L11.6096 6.62369H19.4021L23.26 13.0038L19.4021 19.3838ZM8.19291 2.51265L10.1326 5.76445L6.27645 12.1413H2.37071L8.19291 2.51265ZM2.36893 13.8558H6.2701L10.1371 20.2507L8.19563 23.4917L2.36893 13.8558ZM22.8765 23.4984L20.8848 20.2337L24.7402 13.8578H28.706L22.8765 23.4984ZM23.6097 0.412164C23.455 0.156247 23.1785 0 22.8805 0H8.19563C7.89755 0 7.62111 0.156247 7.46644 0.412164L0.124064 12.5549C-0.0413029 12.8284 -0.0413805 13.1716 0.123986 13.445L7.46644 25.5878C7.62111 25.8438 7.89755 26 8.19563 26H22.8805C23.1785 26 23.455 25.8438 23.6097 25.5878L30.9522 13.445C31.1176 13.1716 31.1176 12.8284 30.9522 12.5549L23.6097 0.412164Z" fill="white"/>
<path fill-rule="evenodd" clip-rule="evenodd" d="M19.9219 14.339C19.5239 14.0858 18.9967 14.2045 18.7446 14.6045L17.2345 16.9999C16.9824 17.3999 17.1007 17.9295 17.4987 18.1828C17.6404 18.2729 17.7984 18.3159 17.9545 18.3159C18.2371 18.3159 18.5137 18.1749 18.6761 17.9173L20.1862 15.5219C20.4383 15.1219 20.32 14.5923 19.9219 14.339Z" fill="white"/>
<path fill-rule="evenodd" clip-rule="evenodd" d="M21.1633 12.1332C20.7573 11.8932 20.2342 12.0293 19.9953 12.4374L19.8842 12.6272C19.6453 13.0352 19.7809 13.5606 20.1871 13.8006C20.3229 13.881 20.4718 13.9191 20.6188 13.9191C20.9112 13.9191 21.196 13.768 21.355 13.4964L21.4661 13.3067C21.705 12.8986 21.5694 12.3733 21.1633 12.1332Z" fill="white"/>
</g>
<defs>
<clipPath id="clip0_2008_288">
<rect width="141.001" height="26" fill="white"/>
</clipPath>
</defs>
</svg>
