<svg width="27" height="26" viewBox="0 0 27 26" fill="none" xmlns="http://www.w3.org/2000/svg">
<path d="M5.03104 5.00506L13.0477 12.9952L21.0643 5.00506C18.9383 2.86597 16.1027 1.69189 13.0477 1.69189C9.99265 1.69189 7.16816 2.86597 5.03104 5.00506ZM13.0379 15.4028L2.69396 5.09367C2.9828 4.72539 3.29246 4.36679 3.61324 4.02897C5.9892 1.55205 9.33443 0 13.0477 0C16.7609 0 20.1158 1.55205 22.4821 4.03035C22.8112 4.35849 23.1208 4.72677 23.3805 5.08398L13.0379 15.4015V15.4028ZM22.103 8.36807C22.8015 9.20432 23.2208 10.2579 23.2208 11.432C23.2208 14.0682 21.074 16.2073 18.4286 16.2073C17.2608 16.2073 16.1929 15.7891 15.3542 15.0927L13.0477 17.391L10.7411 15.0927C9.90239 15.7891 8.84424 16.2073 7.66668 16.2073C5.02132 16.2073 2.87448 14.0682 2.87448 11.432C2.87448 10.2676 3.29385 9.20294 3.99234 8.36807L2.91336 7.29368L1.88577 6.26913C0.688765 8.23793 0 10.5362 0 13.0048C0 20.1891 5.83923 26 13.0379 26C20.2366 26 26.0759 20.1795 26.0759 13.0048C26.0953 10.5279 25.4065 8.22962 24.2081 6.26913L22.1016 8.36807H22.103ZM18.4286 14.7867C20.2964 14.7964 21.8127 13.2831 21.8127 11.4126C21.8127 10.6373 21.5531 9.92012 21.1045 9.34278L16.3526 14.0792C16.922 14.5264 17.6399 14.7853 18.4286 14.7853V14.7867ZM4.29228 11.4223C4.29228 10.6359 4.55196 9.92012 5.00049 9.35385L9.75241 14.0903C9.17335 14.5375 8.45542 14.7964 7.6764 14.7964C5.79896 14.7964 4.28256 13.2831 4.29228 11.4223Z" fill="#F0EBDE"/>
</svg>
