<svg width="180" height="180" viewBox="0 0 180 180" fill="none" xmlns="http://www.w3.org/2000/svg">
<path d="M102.194 64.6235L121.166 31.9073L133.015 11H47.2877L58.9625 31.9132L77.9347 64.6235C83.3262 73.9143 96.802 73.9143 102.194 64.6235Z" fill="black"/>
<path d="M73.8722 66.681L54.9641 33.9299L42.9512 13.1216L0 87.5825H61.7602C72.5024 87.5592 79.2228 75.9951 73.8722 66.681Z" fill="black"/>
<path d="M106.134 66.681L125.042 33.9299L137.06 13.1216L180 87.5825H118.246C107.503 87.5592 100.777 75.9951 106.134 66.681Z" fill="black"/>
<path d="M77.8123 115.187L58.8401 147.897L46.9905 168.805H132.718L121.043 147.897L102.071 115.187C96.6796 105.896 83.2038 105.896 77.8123 115.187Z" fill="black"/>
<path d="M106.134 113.118L125.042 145.875L137.06 166.683L180 92.2221H118.246C107.503 92.2396 100.777 103.809 106.134 113.118Z" fill="black"/>
<path d="M73.8722 113.118L54.9641 145.875L42.9512 166.683L0 92.2221H61.7602C72.5024 92.2396 79.2228 103.809 73.8722 113.118Z" fill="black"/>
</svg>
