<svg width="96" height="96" viewBox="0 0 96 96" fill="none" xmlns="http://www.w3.org/2000/svg">
<path d="M68.9786 56.6017C68.7442 57.7971 68.3755 58.8697 67.8618 59.8194C67.2252 61.0037 66.3205 62.0875 65.1255 63.0819C63.9863 64.0204 62.8024 64.7019 61.5962 65.1153C60.39 65.5287 58.8599 65.7298 57.0171 65.7298C54.56 65.7298 52.3486 65.227 50.3829 64.2215C48.4172 63.2159 46.9653 61.73 46.0271 59.7636C44.9996 61.5624 43.57 63.0037 41.7272 64.0651C39.8844 65.1265 37.5947 65.6628 34.8473 65.6628C33.0491 65.6628 31.4297 65.3834 29.989 64.836C28.5594 64.2885 27.3308 63.4953 26.3033 62.4673C25.488 61.6517 24.8402 60.6909 24.371 59.6071C23.902 58.5233 23.6562 57.2832 23.6562 55.8866C23.6562 54.49 23.9243 53.2274 24.4604 52.0766C24.9966 50.9258 25.7225 49.9538 26.6495 49.1605C27.5654 48.3561 28.6375 47.7304 29.8438 47.2835C31.0499 46.8366 32.312 46.602 33.6299 46.602C35.3052 46.5573 36.9693 46.5349 38.6111 46.5126C40.2529 46.4903 41.917 46.4791 43.5923 46.4791V43.1608C43.5923 41.0714 42.9892 39.5408 41.7718 38.5799C40.5545 37.619 38.9797 37.1386 37.014 37.1386C35.0483 37.1386 33.4177 37.5744 32.1221 38.457C30.8377 39.3396 30.1342 40.7586 30.0001 42.7362L24.9742 41.8312C25.1306 40.4457 25.5102 39.2391 26.1022 38.1889C26.817 36.9152 27.744 35.8872 28.8609 35.0828C29.9889 34.2896 31.2733 33.6974 32.7029 33.3287C34.1437 32.96 35.5955 32.7812 37.0698 32.7812C37.9745 32.7812 38.8903 32.8706 39.8397 33.0605C40.789 33.2504 41.7048 33.5186 42.6095 33.8873C43.503 34.256 44.3406 34.7364 45.1001 35.3286C45.8595 35.9208 46.4962 36.6135 47.0323 37.3844C48.0598 35.9543 49.3442 34.8482 50.8967 34.0661C52.4491 33.284 54.3925 32.8929 56.7378 32.8929C59.4072 32.8929 61.5404 33.3734 63.1599 34.3342C64.7793 35.2951 66.1418 36.6358 67.2475 38.3564C68.1857 39.7977 68.8223 41.362 69.1574 43.0602C69.4813 44.7585 69.6488 46.7584 69.6488 49.06V50.6577L48.6294 50.7248V50.9705C48.6294 52.2889 48.7747 53.5626 49.0539 54.814C49.3443 56.0653 49.8133 57.1714 50.4722 58.1323C51.1311 59.0932 51.98 59.8753 53.0522 60.4674C54.1243 61.0596 55.4311 61.3612 56.9947 61.3612C58.5025 61.3612 59.9432 60.9144 61.2946 60.0093C62.646 59.1044 63.5507 57.6742 63.9975 55.7078L68.9786 56.6017ZM34.8249 50.4789C33.2278 50.4789 31.8429 50.937 30.6814 51.8644C29.5086 52.7917 28.9279 54.1101 28.9279 55.8307C28.9279 57.5513 29.4863 58.8697 30.6144 59.7971C31.7424 60.7244 33.1273 61.1824 34.7579 61.1824C35.9418 61.1824 37.1145 61.0037 38.2537 60.6573C39.4041 60.311 40.3869 59.73 41.2022 58.9032C42.3861 57.7189 43.1121 56.5011 43.3466 55.272C43.5923 54.0431 43.7152 52.7135 43.7152 51.2722V50.4119L34.8249 50.4789ZM64.3326 46.602C64.2878 45.1719 64.1203 43.8646 63.8076 42.7027C63.506 41.5295 63.0035 40.524 62.2999 39.6637C61.7191 38.9263 60.9819 38.3229 60.0885 37.8536C59.1838 37.3844 58.0446 37.1498 56.6485 37.1498C55.4647 37.1498 54.4371 37.3509 53.5771 37.7643C52.7171 38.1776 51.9576 38.7252 51.2987 39.429C50.4387 40.334 49.7909 41.3955 49.3665 42.6245C48.9421 43.8535 48.7187 45.183 48.7187 46.6243H64.3326V46.602Z" fill="white"/>
<path d="M46.6318 91.7952C23.1776 91.7952 4.10156 72.712 4.10156 49.2491C4.10156 25.7862 23.1776 6.70312 46.6318 6.70312C70.0859 6.70312 89.1728 25.7862 89.1728 49.2491C89.1728 72.712 70.0859 91.7952 46.6318 91.7952ZM46.6318 11.4069C25.7798 11.4069 8.80352 28.3783 8.80352 49.2491C8.80352 70.1199 25.7687 87.0912 46.6318 87.0912C67.4948 87.0912 84.46 70.1199 84.46 49.2491C84.46 28.3783 67.4948 11.4069 46.6318 11.4069Z" fill="white"/>
</svg>
